<?xml version="1.0" encoding="UTF-8" standalone="no"?>
<!DOCTYPE svg PUBLIC "-//W3C//DTD SVG 1.1//EN" "http://www.w3.org/Graphics/SVG/1.1/DTD/svg11.dtd">
<!-- Generated by Microsoft Visio, SVG Export gh_design.svg Page-5 -->
<svg xmlns="http://www.w3.org/2000/svg" xmlns:xlink="http://www.w3.org/1999/xlink" xmlns:ev="http://www.w3.org/2001/xml-events"
		width="7.49861in" height="5.2383in" viewBox="0 0 539.9 377.157" xml:space="preserve" color-interpolation-filters="sRGB"
		class="st15">
	<title>gh design</title>

	<style type="text/css">
	<![CDATA[
		.st1 {stroke:#000000;stroke-linecap:round;stroke-linejoin:round;stroke-width:2}
		.st2 {fill:#7f7f7f;stroke:#000000;stroke-linecap:round;stroke-linejoin:round;stroke-width:1}
		.st3 {fill:#ffffff;font-family:Segoe UI;font-size:0.833336em;font-weight:bold}
		.st4 {fill:none;stroke:none;stroke-linecap:round;stroke-linejoin:round;stroke-width:0.5}
		.st5 {fill:#000000;font-family:Segoe UI;font-size:1.00001em;font-weight:bold}
		.st6 {fill:#70ad47;stroke:#000000;stroke-linecap:round;stroke-linejoin:round;stroke-width:1}
		.st7 {fill:#ffc000}
		.st8 {stroke:#000000;stroke-linecap:round;stroke-linejoin:round;stroke-width:1}
		.st9 {fill:#ffc000;stroke:#000000;stroke-linecap:round;stroke-linejoin:round;stroke-width:1;visibility:hidden}
		.st10 {fill:#5b9bd5;stroke:#000000;stroke-linecap:round;stroke-linejoin:round;stroke-width:1}
		.st11 {fill:#305497;stroke:#000000;stroke-linecap:round;stroke-linejoin:round;stroke-width:1}
		.st12 {fill:#000000;font-family:Segoe UI;font-size:0.833336em;font-weight:bold}
		.st13 {fill:#ed7d31;stroke:#000000;stroke-linecap:round;stroke-linejoin:round;stroke-width:1}
		.st14 {fill:#ffffff;font-family:Segoe UI;font-size:0.666664em;font-weight:bold}
		.st15 {fill:none;fill-rule:evenodd;font-size:12px;overflow:visible;stroke-linecap:square;stroke-miterlimit:3}
	]]>
	</style>

	<g>
		<title>Page-5</title>
		<g id="shape1000-1" transform="translate(443.697,-188.579)">
			<title>Right Brace.1112</title>
			<path d="M-0 377.16 A37.9502 26.0908 -180 0 0 14.17 361.57 L14.17 299.2 L28.35 299.2 L14.17 299.2 L14.17 236.84 A37.9502
						 26.0908 -180 0 0 0 221.25" class="st1"/>
		</g>
		<g id="shape1001-4" transform="translate(259.445,-18.5)">
			<title>Rounded Rectangle.1113</title>
			<desc>SWITCH</desc>
			<path d="M12.76 377.16 L114.8 377.16 A12.7557 12.7557 -180 0 0 127.56 364.4 L127.56 49.76 A12.7557 12.7557 -180 0 0 114.8
						 37 L12.76 37 A12.7557 12.7557 -180 0 0 0 49.76 L0 364.4 A12.7557 12.7557 -180 0 0 12.76 377.16 Z"
					class="st2"/>
			<text x="44.49" y="210.08" class="st3">SWITCH</text>		</g>
		<g id="shape1002-7" transform="translate(472.043,-188.579)">
			<title>Sheet.1002</title>
			<desc>ECMP</desc>
			<rect x="0" y="221.252" width="49.6063" height="155.906" class="st4"/>
			<text x="8.44" y="302.8" class="st5">ECMP</text>		</g>
		<g id="shape1003-10" transform="translate(443.697,-32.6732)">
			<title>Right Brace.1115</title>
			<path d="M-0 377.16 A37.9502 11.8594 -180 0 0 14.17 370.07 L14.17 341.72 L28.35 341.72 L14.17 341.72 L14.17 313.38 A37.9502
						 11.8594 -180 0 0 0 306.29" class="st1"/>
		</g>
		<g id="shape1004-13" transform="translate(472.043,-32.6732)">
			<title>Sheet.1004</title>
			<desc>LAG</desc>
			<rect x="0" y="306.291" width="42.5197" height="70.8661" class="st4"/>
			<text x="9.71" y="345.32" class="st5">LAG</text>		</g>
		<g id="shape1005-16" transform="translate(18.5,-18.5)">
			<title>Rectangle.1117</title>
			<rect x="0" y="37" width="198.425" height="340.157" class="st6"/>
		</g>
		<g id="group1006-18" transform="translate(216.925,-167.319) rotate(5.96633E-06)">
			<title>1-D single.1118</title>
			<g id="shape1007-19">
				<title>Sheet.1007</title>
				<path d="M0 366.53 L31.89 366.53 L31.89 377.16 L42.52 355.9 L31.89 334.64 L31.89 345.27 L0 345.27 L0 366.53 Z"
						class="st7"/>
				<path d="M0 366.53 L31.89 366.53 L31.89 377.16 L42.52 355.9 L31.89 334.64 L31.89 345.27 L0 345.27" class="st8"/>
			</g>
			<g id="shape1008-22">
				<title>Sheet.1008</title>
				<path d="M0 366.53 L31.89 366.53 L31.89 377.16 L42.52 355.9 L31.89 334.64 L31.89 345.27 L0 345.27 L0 366.53"
						class="st8"/>
			</g>
			<g id="shape1009-25" transform="translate(-0.545197,-10.8099)">
				<title>Sheet.1009</title>
				<rect x="0" y="356.258" width="0.24" height="20.8998" class="st9"/>
			</g>
		</g>
		<g id="shape1010-27" transform="translate(32.6732,-32.6732)">
			<title>Rectangle.1122</title>
			<rect x="0" y="79.5197" width="170.079" height="297.638" class="st10"/>
		</g>
		<g id="shape1011-29" transform="translate(46.8465,-46.8465)">
			<title>Rectangle.1123</title>
			<rect x="0" y="235.425" width="141.732" height="141.732" class="st11"/>
		</g>
		<g id="group1012-31" transform="translate(387.004,-188.579)">
			<title>1-D single.1129</title>
			<g id="shape1013-32">
				<title>Sheet.1013</title>
				<path d="M0 370.07 L35.43 370.07 L35.43 377.16 L42.52 362.98 L35.43 348.81 L35.43 355.9 L0 355.9 L0 370.07 Z"
						class="st7"/>
				<path d="M0 370.07 L35.43 370.07 L35.43 377.16 L42.52 362.98 L35.43 348.81 L35.43 355.9 L0 355.9" class="st8"/>
			</g>
			<g id="shape1014-35">
				<title>Sheet.1014</title>
				<path d="M0 370.07 L35.43 370.07 L35.43 377.16 L42.52 362.98 L35.43 348.81 L35.43 355.9 L0 355.9 L0 370.07"
						class="st8"/>
			</g>
			<g id="shape1015-38" transform="translate(-0.545197,-7.20661)">
				<title>Sheet.1015</title>
				<rect x="0" y="363.224" width="0.24" height="13.9332" class="st9"/>
			</g>
		</g>
		<g id="group1016-40" transform="translate(387.004,-231.098)">
			<title>1-D single.1133</title>
			<g id="shape1017-41">
				<title>Sheet.1017</title>
				<path d="M0 370.07 L35.43 370.07 L35.43 377.16 L42.52 362.98 L35.43 348.81 L35.43 355.9 L0 355.9 L0 370.07 Z"
						class="st7"/>
				<path d="M0 370.07 L35.43 370.07 L35.43 377.16 L42.52 362.98 L35.43 348.81 L35.43 355.9 L0 355.9" class="st8"/>
			</g>
			<g id="shape1018-44">
				<title>Sheet.1018</title>
				<path d="M0 370.07 L35.43 370.07 L35.43 377.16 L42.52 362.98 L35.43 348.81 L35.43 355.9 L0 355.9 L0 370.07"
						class="st8"/>
			</g>
			<g id="shape1019-47" transform="translate(-0.545197,-7.20661)">
				<title>Sheet.1019</title>
				<rect x="0" y="363.224" width="0.24" height="13.9332" class="st9"/>
			</g>
		</g>
		<g id="group1020-49" transform="translate(387.004,-273.618)">
			<title>1-D single.1137</title>
			<g id="shape1021-50">
				<title>Sheet.1021</title>
				<path d="M0 370.07 L35.43 370.07 L35.43 377.16 L42.52 362.98 L35.43 348.81 L35.43 355.9 L0 355.9 L0 370.07 Z"
						class="st7"/>
				<path d="M0 370.07 L35.43 370.07 L35.43 377.16 L42.52 362.98 L35.43 348.81 L35.43 355.9 L0 355.9" class="st8"/>
			</g>
			<g id="shape1022-53">
				<title>Sheet.1022</title>
				<path d="M0 370.07 L35.43 370.07 L35.43 377.16 L42.52 362.98 L35.43 348.81 L35.43 355.9 L0 355.9 L0 370.07"
						class="st8"/>
			</g>
			<g id="shape1023-56" transform="translate(-0.545197,-7.20661)">
				<title>Sheet.1023</title>
				<rect x="0" y="363.224" width="0.24" height="13.9332" class="st9"/>
			</g>
		</g>
		<g id="group1024-58" transform="translate(387.004,-316.138)">
			<title>1-D single.1141</title>
			<g id="shape1025-59">
				<title>Sheet.1025</title>
				<path d="M0 370.07 L35.43 370.07 L35.43 377.16 L42.52 362.98 L35.43 348.81 L35.43 355.9 L0 355.9 L0 370.07 Z"
						class="st7"/>
				<path d="M0 370.07 L35.43 370.07 L35.43 377.16 L42.52 362.98 L35.43 348.81 L35.43 355.9 L0 355.9" class="st8"/>
			</g>
			<g id="shape1026-62">
				<title>Sheet.1026</title>
				<path d="M0 370.07 L35.43 370.07 L35.43 377.16 L42.52 362.98 L35.43 348.81 L35.43 355.9 L0 355.9 L0 370.07"
						class="st8"/>
			</g>
			<g id="shape1027-65" transform="translate(-0.545197,-7.20661)">
				<title>Sheet.1027</title>
				<rect x="0" y="363.224" width="0.24" height="13.9332" class="st9"/>
			</g>
		</g>
		<g id="group1028-67" transform="translate(387.004,-32.6732)">
			<title>1-D single.1145</title>
			<g id="shape1029-68">
				<title>Sheet.1029</title>
				<path d="M0 370.07 L35.43 370.07 L35.43 377.16 L42.52 362.98 L35.43 348.81 L35.43 355.9 L0 355.9 L0 370.07 Z"
						class="st7"/>
				<path d="M0 370.07 L35.43 370.07 L35.43 377.16 L42.52 362.98 L35.43 348.81 L35.43 355.9 L0 355.9" class="st8"/>
			</g>
			<g id="shape1030-71">
				<title>Sheet.1030</title>
				<path d="M0 370.07 L35.43 370.07 L35.43 377.16 L42.52 362.98 L35.43 348.81 L35.43 355.9 L0 355.9 L0 370.07"
						class="st8"/>
			</g>
			<g id="shape1031-74" transform="translate(-0.545197,-7.20661)">
				<title>Sheet.1031</title>
				<rect x="0" y="363.224" width="0.24" height="13.9332" class="st9"/>
			</g>
		</g>
		<g id="group1032-76" transform="translate(387.004,-75.1929)">
			<title>1-D single.1149</title>
			<g id="shape1033-77">
				<title>Sheet.1033</title>
				<path d="M0 370.07 L35.43 370.07 L35.43 377.16 L42.52 362.98 L35.43 348.81 L35.43 355.9 L0 355.9 L0 370.07 Z"
						class="st7"/>
				<path d="M0 370.07 L35.43 370.07 L35.43 377.16 L42.52 362.98 L35.43 348.81 L35.43 355.9 L0 355.9" class="st8"/>
			</g>
			<g id="shape1034-80">
				<title>Sheet.1034</title>
				<path d="M0 370.07 L35.43 370.07 L35.43 377.16 L42.52 362.98 L35.43 348.81 L35.43 355.9 L0 355.9 L0 370.07"
						class="st8"/>
			</g>
			<g id="shape1035-83" transform="translate(-0.545197,-7.20661)">
				<title>Sheet.1035</title>
				<rect x="0" y="363.224" width="0.24" height="13.9332" class="st9"/>
			</g>
		</g>
		<g id="shape1036-85" transform="translate(18.5,-330.311)">
			<title>Sheet.1036</title>
			<desc>Ethernet Packet</desc>
			<rect x="0" y="348.811" width="198.425" height="28.3465" class="st4"/>
			<text x="62.24" y="366.58" class="st12">Ethernet Packet</text>		</g>
		<g id="shape1037-88" transform="translate(32.6732,-301.965)">
			<title>Sheet.1037</title>
			<desc>Outer Frame</desc>
			<rect x="0" y="348.811" width="170.079" height="28.3465" class="st4"/>
			<text x="55.64" y="366.58" class="st3">Outer Frame</text>		</g>
		<g id="shape1038-91" transform="translate(61.0197,-82.2795)">
			<title>Rectangle.1158</title>
			<desc>INNER_DST_IP</desc>
			<rect x="0" y="362.984" width="113.386" height="14.1732" class="st13"/>
			<text x="29.79" y="372.47" class="st14">INNER_DST_IP</text>		</g>
		<g id="shape1039-94" transform="translate(61.0197,-103.539)">
			<title>Rectangle.1159</title>
			<desc>INNER_ETHERTYPE</desc>
			<rect x="0" y="362.984" width="113.386" height="14.1732" class="st13"/>
			<text x="21.07" y="372.47" class="st14">INNER_ETHERTYPE</text>		</g>
		<g id="shape1040-97" transform="translate(46.8465,-287.791)">
			<title>Rectangle.1162</title>
			<desc>DST_MAC</desc>
			<rect x="0" y="362.984" width="141.732" height="14.1732" class="st13"/>
			<text x="52.53" y="372.47" class="st14">DST_MAC</text>		</g>
		<g id="shape1041-100" transform="translate(46.8464,-266.532)">
			<title>Rectangle.1163</title>
			<desc>SRC_MAC</desc>
			<rect x="0" y="362.984" width="141.732" height="14.1732" class="st13"/>
			<text x="52.72" y="372.47" class="st14">SRC_MAC</text>		</g>
		<g id="shape1042-103" transform="translate(46.8465,-245.272)">
			<title>Rectangle.1164</title>
			<desc>ETHERTYPE</desc>
			<rect x="0" y="362.984" width="141.732" height="14.1732" class="st13"/>
			<text x="49.23" y="372.47" class="st14">ETHERTYPE</text>		</g>
		<g id="shape1043-106" transform="translate(46.8465,-224.012)">
			<title>Rectangle.1165</title>
			<desc>DST_IP</desc>
			<rect x="0" y="362.984" width="141.732" height="14.1732" class="st13"/>
			<text x="57.95" y="372.47" class="st14">DST_IP</text>		</g>
		<g id="shape1044-109" transform="translate(46.8465,-160.232)">
			<title>Sheet.1044</title>
			<desc>Inner Frame</desc>
			<rect x="0" y="348.811" width="141.732" height="28.3465" class="st4"/>
			<text x="42.59" y="366.58" class="st3">Inner Frame</text>		</g>
		<g id="shape1045-112" transform="translate(61.0197,-146.059)">
			<title>Rectangle.1167</title>
			<desc>INNER_DST_MAC</desc>
			<rect x="0" y="362.984" width="113.386" height="14.1732" class="st13"/>
			<text x="24.37" y="372.47" class="st14">INNER_DST_MAC</text>		</g>
		<g id="shape1046-115" transform="translate(61.0197,-124.799)">
			<title>Rectangle.1168</title>
			<desc>INNER_SRC_MAC</desc>
			<rect x="0" y="362.984" width="113.386" height="14.1732" class="st13"/>
			<text x="24.56" y="372.47" class="st14">INNER_SRC_MAC</text>		</g>
		<g id="shape1047-118" transform="translate(46.8465,-202.752)">
			<title>Rectangle.1169</title>
			<desc>SRC_IP</desc>
			<rect x="0" y="362.984" width="141.732" height="14.1732" class="st13"/>
			<text x="58.13" y="372.47" class="st14">SRC_IP</text>		</g>
		<g id="shape1048-121" transform="translate(61.0197,-61.0197)">
			<title>Rectangle.1170</title>
			<desc>INNER_SRC_IP</desc>
			<rect x="0" y="362.984" width="113.386" height="14.1732" class="st13"/>
			<text x="29.97" y="372.47" class="st14">INNER_SRC_IP</text>		</g>
	</g>
</svg>
