<?xml version="1.0" encoding="UTF-8" standalone="no"?>
<!DOCTYPE svg PUBLIC "-//W3C//DTD SVG 1.1//EN" "http://www.w3.org/Graphics/SVG/1.1/DTD/svg11.dtd">
<!-- Generated by Microsoft Visio, SVG Export gh_show_cap_flow.svg Page-10 -->
<svg xmlns="http://www.w3.org/2000/svg" xmlns:xlink="http://www.w3.org/1999/xlink" xmlns:ev="http://www.w3.org/2001/xml-events"
		width="11.6929in" height="8.26772in" viewBox="0 0 841.89 595.276" xml:space="preserve" color-interpolation-filters="sRGB"
		class="st12">
	<title>gh show cap flow</title>

	<style type="text/css">
	<![CDATA[
		.st1 {fill:#5b9bd5;stroke:#000000;stroke-linecap:round;stroke-linejoin:round;stroke-width:1}
		.st2 {stroke:#000000;stroke-dasharray:7,5;stroke-linecap:round;stroke-linejoin:round;stroke-width:1}
		.st3 {fill:#ffffff;font-family:Segoe UI;font-size:1.00001em;font-weight:bold}
		.st4 {fill:#af5200;stroke:#a54d00;stroke-linecap:round;stroke-linejoin:round;stroke-width:0.5}
		.st5 {marker-end:url(#mrkr4-34);stroke:#a54d00;stroke-linecap:round;stroke-linejoin:round;stroke-width:1}
		.st6 {fill:#a54d00;fill-opacity:1;stroke:#a54d00;stroke-opacity:1;stroke-width:0.23584905660377}
		.st7 {fill:#ffffff;stroke:none;stroke-linecap:butt;stroke-width:7.2}
		.st8 {fill:#803a00;font-family:Segoe UI;font-size:1.00001em;font-weight:bold}
		.st9 {fill:#70ad47;stroke:#70ad47;stroke-linecap:round;stroke-linejoin:round;stroke-width:0.5}
		.st10 {fill:#ffffff;stroke:none;stroke-linecap:butt}
		.st11 {marker-end:url(#mrkr3-62);stroke:#a54d00;stroke-dasharray:7,5;stroke-linecap:round;stroke-linejoin:round;stroke-width:1}
		.st12 {fill:none;fill-rule:evenodd;font-size:12px;overflow:visible;stroke-linecap:square;stroke-miterlimit:3}
	]]>
	</style>

	<defs id="Markers">
		<g id="lend4">
			<path d="M 2 1 L 0 0 L 2 -1 L 2 1 " style="stroke:none"/>
		</g>
		<marker id="mrkr4-34" class="st6" refX="-8.48" orient="auto" markerUnits="strokeWidth" overflow="visible">
			<use xlink:href="#lend4" transform="scale(-4.24,-4.24) "/>
		</marker>
		<g id="lend3">
			<path d="M 2 1 L 0 0 L 2 -1 " style="stroke-linecap:round;stroke-linejoin:round;fill:none"/>
		</g>
		<marker id="mrkr3-62" class="st6" orient="auto" markerUnits="strokeWidth" overflow="visible">
			<use xlink:href="#lend3" transform="scale(-4.24,-4.24) "/>
		</marker>
	</defs>
	<g>
		<title>Page-10</title>
		<g id="group1000-1" transform="translate(522.425,-452.409)">
			<title>Actor lifeline.1198</title>
			<desc>StateDB</desc>
			<g id="shape1001-2" transform="translate(17.0079,-8.50394)">
				<title>Sheet.1001</title>
				<rect x="0" y="569.764" width="51.0236" height="25.5118" class="st1"/>
			</g>
			<g id="shape1002-4" transform="translate(34.0157,-46.063)">
				<title>Sheet.1002</title>
				<path d="M8.5 595.28 a6.99441E-15 0 0 1 1 -1.42109E-14 0 a6.99441E-15 0 0 1 1 1.42109E-14 0 Z" class="st1"/>
			</g>
			<g id="shape1003-6" transform="translate(28.3465,420.54)">
				<title>Sheet.1003</title>
			</g>
			<g id="shape1004-8" transform="translate(637.795,595.276) rotate(90)">
				<title>Sheet.1004</title>
				<path d="M0 595.28 L396.85 595.28" class="st2"/>
			</g>
			<g id="shape1000-11">
				<rect x="0" y="552.756" width="85.0394" height="42.5197" class="st1"/>
				<text x="19.74" y="577.62" class="st3">StateDB</text>			</g>
		</g>
		<g id="group1005-14" transform="translate(238.961,-452.409)">
			<title>Actor lifeline.1213</title>
			<desc>CLI</desc>
			<g id="shape1006-15" transform="translate(17.0079,-8.50394)">
				<title>Sheet.1006</title>
				<rect x="0" y="569.764" width="51.0236" height="25.5118" class="st1"/>
			</g>
			<g id="shape1007-17" transform="translate(34.0157,-46.063)">
				<title>Sheet.1007</title>
				<path d="M3.4 595.28 L3.4 578.27 L3.4 585.07 L0 585.07 L0 571.46 L1.7 569.76 L15.31 569.76 L17.01 571.46 L17.01 585.07
							 L13.61 585.07 L13.61 578.27 L13.61 595.28 L8.5 595.28 L8.5 581.67 L8.5 595.28 L3.4 595.28 ZM11.91 564.66
							 A3.40157 3.40157 -180 1 0 5.1 564.66 A3.40157 3.40157 -180 1 0 11.91 564.66 Z" class="st1"/>
			</g>
			<g id="shape1008-19" transform="translate(28.3465,420.54)">
				<title>Sheet.1008</title>
			</g>
			<g id="shape1009-21" transform="translate(637.795,595.276) rotate(90)">
				<title>Sheet.1009</title>
				<path d="M0 595.28 L396.85 595.28" class="st2"/>
			</g>
			<g id="shape1005-24">
				<rect x="0" y="552.756" width="85.0394" height="42.5197" class="st1"/>
				<text x="33.81" y="577.62" class="st3">CLI</text>			</g>
		</g>
		<g id="shape1011-27" transform="translate(-309.543,227.906) rotate(-90)">
			<title>Activation.1098</title>
			<rect x="0" y="586.772" width="56.6929" height="8.50394" class="st4"/>
		</g>
		<g id="shape1012-29" transform="translate(292.819,-424.063)">
			<title>Self Message.1099</title>
			<desc>process data</desc>
			<path d="M-7.09 595.28 L10.91 595.28 L10.91 651.97 L1.39 651.97" class="st5"/>
			<rect x="7.17552" y="616.422" width="70.6885" height="14.4001" class="st7"/>
			<text x="7.18" y="627.22" class="st8">process data</text>		</g>
		<g id="shape1013-37" transform="translate(-309.543,426.331) rotate(-90)">
			<title>Activation.1102</title>
			<rect x="0" y="586.772" width="170.079" height="8.50394" class="st4"/>
		</g>
		<g id="shape1014-39" transform="translate(280.772,-339.024)">
			<title>Self Message.1103</title>
			<desc>get switch capabilities</desc>
			<path d="M4.96 595.28 L27.21 595.28 L27.21 623.62 L17.69 623.62" class="st5"/>
			<rect x="23.9324" y="602.249" width="124.765" height="14.4001" class="st7"/>
			<text x="23.93" y="613.05" class="st8">get switch capabilities</text>		</g>
		<g id="shape1015-46" transform="translate(-305.291,397.984) rotate(-90)">
			<title>Activation.1104</title>
			<rect x="0" y="586.772" width="113.386" height="8.50394" class="st9"/>
		</g>
		<g id="shape1016-48" transform="translate(289.984,-275.244)">
			<title>Message.1105</title>
			<desc>HGETALL SWITCH_CAPABILITY|switch</desc>
			<path d="M0 588.19 L262.23 588.19" class="st5"/>
			<rect x="28.479" y="580.989" width="213.751" height="14.4001" class="st10"/>
			<text x="28.48" y="591.79" class="st8">HGETALL SWITCH_CAPABILITY|switch</text>		</g>
		<g id="shape1017-55" transform="translate(-26.0788,369.638) rotate(-90)">
			<title>Activation.1106</title>
			<rect x="0" y="586.772" width="56.693" height="8.50394" class="st4"/>
		</g>
		<g id="shape1018-57" transform="translate(560.693,-218.551)">
			<title>Return Message.1107</title>
			<path d="M0 588.19 L-270.71 588.19" class="st11"/>
		</g>
		<g id="shape1019-63" transform="translate(-309.543,511.37) rotate(-90)">
			<title>Activation.1044</title>
			<rect x="0" y="586.772" width="56.6929" height="8.50394" class="st4"/>
		</g>
		<g id="shape1020-65" transform="translate(292.819,-140.598)">
			<title>Self Message.1045</title>
			<desc>display data</desc>
			<path d="M-7.09 595.28 L10.91 595.28 L10.91 651.97 L1.39 651.97" class="st5"/>
			<rect x="7.28095" y="616.422" width="68.21" height="14.4001" class="st7"/>
			<text x="7.28" y="627.22" class="st8">display data</text>		</g>
	</g>
</svg>
