<?xml version="1.0" encoding="UTF-8" standalone="no"?>
<!DOCTYPE svg PUBLIC "-//W3C//DTD SVG 1.1//EN" "http://www.w3.org/Graphics/SVG/1.1/DTD/svg11.dtd">
<!-- Generated by Microsoft Visio, SVG Export gh_swss_design.svg Page-6 -->
<svg xmlns="http://www.w3.org/2000/svg" xmlns:xlink="http://www.w3.org/1999/xlink" xmlns:ev="http://www.w3.org/2001/xml-events"
		width="11.7344in" height="3.86035in" viewBox="0 0 844.874 277.945" xml:space="preserve" color-interpolation-filters="sRGB"
		class="st11">
	<title>gh swss design</title>

	<style type="text/css">
	<![CDATA[
		.st1 {fill:#5b9bd5;stroke:#000000;stroke-linecap:round;stroke-linejoin:round;stroke-width:1}
		.st2 {fill:#ffffff;font-family:Segoe UI;font-size:0.833336em;font-weight:bold}
		.st3 {fill:#70ad47;stroke:#000000;stroke-linecap:round;stroke-linejoin:round;stroke-width:1}
		.st4 {fill:#ed7d31;stroke:#000000;stroke-linecap:round;stroke-linejoin:round;stroke-width:1}
		.st5 {fill:#ffffff;font-family:Segoe UI;font-size:0.833336em}
		.st6 {marker-end:url(#mrkr4-27);marker-start:url(#mrkr4-25);stroke:#000000;stroke-linecap:round;stroke-linejoin:round;stroke-width:2}
		.st7 {fill:#000000;fill-opacity:1;stroke:#000000;stroke-opacity:1;stroke-width:0.44247787610619}
		.st8 {fill:#7f7f7f;stroke:#000000;stroke-linecap:round;stroke-linejoin:round;stroke-width:1}
		.st9 {marker-end:url(#mrkr4-56);stroke:#000000;stroke-linecap:round;stroke-linejoin:round;stroke-width:2}
		.st10 {fill:#000000;fill-opacity:1;stroke:#000000;stroke-opacity:1;stroke-width:0.38167938931298}
		.st11 {fill:none;fill-rule:evenodd;font-size:12px;overflow:visible;stroke-linecap:square;stroke-miterlimit:3}
	]]>
	</style>

	<defs id="Markers">
		<g id="lend4">
			<path d="M 2 1 L 0 0 L 2 -1 L 2 1 " style="stroke:none"/>
		</g>
		<marker id="mrkr4-25" class="st7" refX="4.34" orient="auto" markerUnits="strokeWidth" overflow="visible">
			<use xlink:href="#lend4" transform="scale(2.26) "/>
		</marker>
		<marker id="mrkr4-27" class="st7" refX="-4.52" orient="auto" markerUnits="strokeWidth" overflow="visible">
			<use xlink:href="#lend4" transform="scale(-2.26,-2.26) "/>
		</marker>
		<marker id="mrkr4-56" class="st10" refX="-5.24" orient="auto" markerUnits="strokeWidth" overflow="visible">
			<use xlink:href="#lend4" transform="scale(-2.62,-2.62) "/>
		</marker>
	</defs>
	<g>
		<title>Page-6</title>
		<g id="group1000-1" transform="translate(18.5,-18.5)">
			<title>Can.1070</title>
			<desc>CONFIG_DB</desc>
			<g id="shape1001-2">
				<title>Sheet.1001</title>
				<path d="M0 253.85 A63.7795 24.0945 -180 1 0 127.56 253.85 L127.56 61.09 L0 61.09 L0 253.85 Z" class="st1"/>
			</g>
			<g id="shape1000-4">
				<ellipse cx="63.7795" cy="61.0945" rx="63.7795" ry="24.0945" class="st1"/>
				<text x="36.21" y="100.47" class="st2">CONFIG_DB</text>			</g>
		</g>
		<g id="shape1002-7" transform="translate(188.579,-18.5)">
			<title>Rounded Rectangle.1072</title>
			<desc>Orchagent</desc>
			<path d="M12.76 277.94 L114.8 277.94 A12.7557 12.7557 -180 0 0 127.56 265.19 L127.56 49.76 A12.7557 12.7557 -180 0 0
						 114.8 37 L12.76 37 A12.7557 12.7557 -180 0 0 0 49.76 L0 265.19 A12.7557 12.7557 -180 0 0 12.76 277.94 Z"
					class="st3"/>
			<text x="33.16" y="64.47" class="st2">ORCHAGENT</text>		</g>
		<g id="group1003-10" transform="translate(358.657,-18.5)">
			<title>Can.1079</title>
			<desc>ASIC_DB</desc>
			<g id="shape1004-11">
				<title>Sheet.1004</title>
				<path d="M0 253.85 A63.7795 24.0945 -180 1 0 127.56 253.85 L127.56 61.09 L0 61.09 L0 253.85 Z" class="st1"/>
			</g>
			<g id="shape1003-13">
				<ellipse cx="63.7795" cy="61.0945" rx="63.7795" ry="24.0945" class="st1"/>
				<text x="43.79" y="160.47" class="st2">ASIC_DB</text>			</g>
		</g>
		<g id="shape1005-16" transform="translate(202.752,-167.319)">
			<title>Rounded Rectangle.1081</title>
			<desc>switchorch</desc>
			<path d="M9.92 277.94 L89.29 277.94 A9.9211 9.9211 -180 0 0 99.21 268.02 L99.21 245.35 A9.9211 9.9211 -180 0 0 89.29
						 235.43 L9.92 235.43 A9.9211 9.9211 -180 0 0 -0 245.35 L0 268.02 A9.9211 9.9211 -180 0 0 9.92 277.94 Z"
					class="st4"/>
			<text x="26.02" y="259.69" class="st5">switchorch</text>		</g>
		<g id="shape1006-19" transform="translate(316.138,-146.059)">
			<title>Dynamic connector.1083</title>
			<path d="M8.68 285.03 L9.04 285.03 L33.48 285.03" class="st6"/>
		</g>
		<g id="shape1007-28" transform="translate(528.736,-18.5)">
			<title>Rounded Rectangle.1085</title>
			<desc>SYNCD</desc>
			<path d="M12.76 277.94 L114.8 277.94 A12.7557 12.7557 -180 0 0 127.56 265.19 L127.56 49.76 A12.7557 12.7557 -180 0 0
						 114.8 37 L12.76 37 A12.7557 12.7557 -180 0 0 0 49.76 L0 265.19 A12.7557 12.7557 -180 0 0 12.76 277.94 Z"
					class="st3"/>
			<text x="47.19" y="160.47" class="st2">SYNCD</text>		</g>
		<g id="shape1008-31" transform="translate(486.217,-131.886)">
			<title>Dynamic connector.1086</title>
			<path d="M8.68 270.86 L9.04 270.86 L33.48 270.86" class="st6"/>
		</g>
		<g id="shape1009-38" transform="translate(698.815,-18.5)">
			<title>Rounded Rectangle.1087</title>
			<desc>ASIC</desc>
			<path d="M12.76 277.94 L114.8 277.94 A12.7557 12.7557 -180 0 0 127.56 265.19 L127.56 49.76 A12.7557 12.7557 -180 0 0
						 114.8 37 L12.76 37 A12.7557 12.7557 -180 0 0 0 49.76 L0 265.19 A12.7557 12.7557 -180 0 0 12.76 277.94 Z"
					class="st8"/>
			<text x="52.76" y="160.47" class="st2">ASIC</text>		</g>
		<g id="shape1010-41" transform="translate(656.295,-146.059)">
			<title>Dynamic connector.1088</title>
			<path d="M8.68 285.03 L9.04 285.03 L33.48 285.03" class="st6"/>
		</g>
		<g id="shape1011-48" transform="translate(32.6732,-153.146)">
			<title>Rounded Rectangle.1090</title>
			<desc>SWITCH_HASH</desc>
			<path d="M9.92 277.94 L89.29 277.94 A9.9211 9.9211 -180 0 0 99.21 268.02 L99.21 259.52 A9.9211 9.9211 -180 0 0 89.29
						 249.6 L9.92 249.6 A9.9211 9.9211 -180 0 0 0 259.52 L0 268.02 A9.9211 9.9211 -180 0 0 9.92 277.94 Z"
					class="st4"/>
			<text x="16.63" y="266.77" class="st5">SWITCH_HASH</text>		</g>
		<g id="shape1012-51" transform="translate(146.059,-146.059)">
			<title>Dynamic connector.1091</title>
			<path d="M0 285.03 L32.04 285.03" class="st9"/>
		</g>
	</g>
</svg>
