<?xml version="1.0" encoding="UTF-8" standalone="no"?>
<!DOCTYPE svg PUBLIC "-//W3C//DTD SVG 1.1//EN" "http://www.w3.org/Graphics/SVG/1.1/DTD/svg11.dtd">
<!-- Generated by Microsoft Visio, SVG Export gh_update_flow.svg Page-12 -->
<svg xmlns="http://www.w3.org/2000/svg" xmlns:xlink="http://www.w3.org/1999/xlink" xmlns:ev="http://www.w3.org/2001/xml-events"
		width="19.1163in" height="19.5663in" viewBox="0 0 1376.37 1408.77" xml:space="preserve" color-interpolation-filters="sRGB"
		class="st18">
	<title>gh update flow</title>

	<style type="text/css">
	<![CDATA[
		.st1 {fill:#5b9bd5;stroke:#000000;stroke-linecap:round;stroke-linejoin:round;stroke-width:1}
		.st2 {stroke:#000000;stroke-dasharray:7,5;stroke-linecap:round;stroke-linejoin:round;stroke-width:1}
		.st3 {fill:#ffffff;font-family:Segoe UI;font-size:1.00001em;font-weight:bold}
		.st4 {fill:#af5200;stroke:#a54d00;stroke-linecap:round;stroke-linejoin:round;stroke-width:0.5}
		.st5 {marker-end:url(#mrkr4-60);stroke:#a54d00;stroke-linecap:round;stroke-linejoin:round;stroke-width:1}
		.st6 {fill:#a54d00;fill-opacity:1;stroke:#a54d00;stroke-opacity:1;stroke-width:0.23584905660377}
		.st7 {fill:#ffffff;stroke:none;stroke-linecap:butt;stroke-width:7.2}
		.st8 {fill:#803a00;font-family:Segoe UI;font-size:1.00001em;font-weight:bold}
		.st9 {fill:#70ad47;stroke:#70ad47;stroke-linecap:round;stroke-linejoin:round;stroke-width:0.5}
		.st10 {marker-end:url(#mrkr3-88);stroke:#a54d00;stroke-dasharray:7,5;stroke-linecap:round;stroke-linejoin:round;stroke-width:1}
		.st11 {marker-end:url(#mrkr3-88);stroke:#a54d00;stroke-linecap:round;stroke-linejoin:round;stroke-width:1}
		.st12 {fill:#ffffff;stroke:none;stroke-linecap:butt}
		.st13 {fill:none;stroke:#b43500;stroke-linecap:round;stroke-linejoin:round;stroke-width:1}
		.st14 {fill:#b43500;font-family:Segoe UI;font-size:1.00001em;font-weight:bold}
		.st15 {fill:#ac770d;font-family:Segoe UI;font-size:1.00001em;font-weight:bold}
		.st16 {fill:none;stroke:none;stroke-linecap:round;stroke-linejoin:round;stroke-width:0.5}
		.st17 {font-size:1em}
		.st18 {fill:none;fill-rule:evenodd;font-size:12px;overflow:visible;stroke-linecap:square;stroke-miterlimit:3}
	]]>
	</style>

	<defs id="Markers">
		<g id="lend4">
			<path d="M 2 1 L 0 0 L 2 -1 L 2 1 " style="stroke:none"/>
		</g>
		<marker id="mrkr4-60" class="st6" refX="-8.48" orient="auto" markerUnits="strokeWidth" overflow="visible">
			<use xlink:href="#lend4" transform="scale(-4.24,-4.24) "/>
		</marker>
		<g id="lend3">
			<path d="M 2 1 L 0 0 L 2 -1 " style="stroke-linecap:round;stroke-linejoin:round;fill:none"/>
		</g>
		<marker id="mrkr3-88" class="st6" orient="auto" markerUnits="strokeWidth" overflow="visible">
			<use xlink:href="#lend3" transform="scale(-4.24,-4.24) "/>
		</marker>
	</defs>
	<g>
		<title>Page-12</title>
		<g id="group1000-1" transform="translate(330.311,-1310.19)">
			<title>Actor lifeline.1198</title>
			<desc>ConfigDB</desc>
			<g id="shape1001-2" transform="translate(17.0079,-8.50394)">
				<title>Sheet.1001</title>
				<rect x="0" y="1383.26" width="51.0236" height="25.5118" class="st1"/>
			</g>
			<g id="shape1002-4" transform="translate(34.0157,-46.063)">
				<title>Sheet.1002</title>
				<path d="M8.5 1408.77 a6.99441E-15 0 0 1 1 -1.42109E-14 0 a6.99441E-15 0 0 1 1 1.42109E-14 0 Z" class="st1"/>
			</g>
			<g id="shape1003-6" transform="translate(28.3465,1292.19)">
				<title>Sheet.1003</title>
			</g>
			<g id="shape1004-8" transform="translate(1451.29,1408.77) rotate(90)">
				<title>Sheet.1004</title>
				<path d="M0 1408.77 L1268.5 1408.77" class="st2"/>
			</g>
			<g id="shape1000-11">
				<rect x="0" y="1366.25" width="85.0394" height="42.5197" class="st1"/>
				<text x="15.49" y="1391.11" class="st3">ConfigDB</text>			</g>
		</g>
		<g id="group1005-14" transform="translate(953.933,-1310.19)">
			<title>Object lifeline.1203</title>
			<desc>SwitchOrch</desc>
			<g id="shape1006-15" transform="translate(17.0079,-8.50394)">
				<title>Sheet.1006</title>
				<rect x="0" y="1383.26" width="51.0236" height="25.5118" class="st1"/>
			</g>
			<g id="shape1007-17" transform="translate(34.0157,-46.063)">
				<title>Sheet.1007</title>
				<path d="M8.5 1408.77 a0 0 0 1 1 0 0 a0 0 0 1 1 0 0 Z" class="st1"/>
			</g>
			<g id="shape1008-19" transform="translate(28.3465,1292.19)">
				<title>Sheet.1008</title>
			</g>
			<g id="shape1009-21" transform="translate(1451.29,1408.77) rotate(90)">
				<title>Sheet.1009</title>
				<path d="M0 1408.77 L1268.5 1408.77" class="st2"/>
			</g>
			<g id="shape1005-24">
				<rect x="0" y="1366.25" width="85.0394" height="42.5197" class="st1"/>
				<text x="10.41" y="1391.11" class="st3">SwitchOrch</text>			</g>
		</g>
		<g id="group1010-27" transform="translate(1265.74,-1310.19)">
			<title>Object lifeline.1208</title>
			<desc>SAI</desc>
			<g id="shape1011-28" transform="translate(17.0079,-8.50394)">
				<title>Sheet.1011</title>
				<rect x="0" y="1383.26" width="51.0236" height="25.5118" class="st1"/>
			</g>
			<g id="shape1012-30" transform="translate(34.0157,-46.063)">
				<title>Sheet.1012</title>
				<path d="M8.5 1408.77 a0 0 0 1 1 0 0 a0 0 0 1 1 0 0 Z" class="st1"/>
			</g>
			<g id="shape1013-32" transform="translate(28.3465,1292.19)">
				<title>Sheet.1013</title>
			</g>
			<g id="shape1014-34" transform="translate(1451.29,1408.77) rotate(90)">
				<title>Sheet.1014</title>
				<path d="M0 1408.77 L1268.5 1408.77" class="st2"/>
			</g>
			<g id="shape1010-37">
				<rect x="0" y="1366.25" width="85.0394" height="42.5197" class="st1"/>
				<text x="33.04" y="1391.11" class="st3">SAI</text>			</g>
		</g>
		<g id="group1015-40" transform="translate(18.5,-1310.19)">
			<title>Actor lifeline.1213</title>
			<desc>CLI</desc>
			<g id="shape1016-41" transform="translate(17.0079,-8.50394)">
				<title>Sheet.1016</title>
				<rect x="0" y="1383.26" width="51.0236" height="25.5118" class="st1"/>
			</g>
			<g id="shape1017-43" transform="translate(34.0157,-46.063)">
				<title>Sheet.1017</title>
				<path d="M3.4 1408.77 L3.4 1391.76 L3.4 1398.57 L0 1398.57 L0 1384.96 L1.7 1383.26 L15.31 1383.26 L17.01 1384.96
							 L17.01 1398.57 L13.61 1398.57 L13.61 1391.76 L13.61 1408.77 L8.5 1408.77 L8.5 1395.17 L8.5 1408.77 L3.4
							 1408.77 ZM11.91 1378.16 A3.40157 3.40157 -180 1 0 5.1 1378.16 A3.40157 3.40157 -180 1 0 11.91 1378.16
							 Z" class="st1"/>
			</g>
			<g id="shape1018-45" transform="translate(28.3465,1292.19)">
				<title>Sheet.1018</title>
			</g>
			<g id="shape1019-47" transform="translate(1451.29,1408.77) rotate(90)">
				<title>Sheet.1019</title>
				<path d="M0 1408.77 L1268.5 1408.77" class="st2"/>
			</g>
			<g id="shape1015-50">
				<rect x="0" y="1366.25" width="85.0394" height="42.5197" class="st1"/>
				<text x="33.81" y="1391.11" class="st3">CLI</text>			</g>
		</g>
		<g id="shape1020-53" transform="translate(-1343.5,920.626) rotate(-90)">
			<title>Activation.1098</title>
			<rect x="0" y="1400.27" width="56.6929" height="8.50394" class="st4"/>
		</g>
		<g id="shape1021-55" transform="translate(72.3583,-544.839)">
			<title>Self Message.1099</title>
			<desc>process data</desc>
			<path d="M-7.09 1408.77 L10.91 1408.77 L10.91 1465.47 L1.39 1465.47" class="st5"/>
			<rect x="7.17552" y="1429.92" width="70.6885" height="14.4001" class="st7"/>
			<text x="7.18" y="1440.72" class="st8">process data</text>		</g>
		<g id="shape1022-63" transform="translate(-1343.5,1119.05) rotate(-90)">
			<title>Activation.1102</title>
			<rect x="0" y="1400.27" width="170.079" height="8.50394" class="st4"/>
		</g>
		<g id="shape1023-65" transform="translate(60.3112,-459.8)">
			<title>Self Message.1103</title>
			<desc>set switch hash</desc>
			<path d="M4.96 1408.77 L27.21 1408.77 L27.21 1437.12 L17.69 1437.12" class="st5"/>
			<rect x="24.7426" y="1415.75" width="85.1605" height="14.4001" class="st7"/>
			<text x="24.74" y="1426.55" class="st8">set switch hash</text>		</g>
		<g id="shape1024-72" transform="translate(-1339.25,1090.7) rotate(-90)">
			<title>Activation.1104</title>
			<rect x="0" y="1400.27" width="113.386" height="8.50394" class="st9"/>
		</g>
		<g id="shape1025-74" transform="translate(69.5237,-396.02)">
			<title>Message.1105</title>
			<desc>HMSET SWITCH_HASH|GLOBAL</desc>
			<path d="M0 1401.69 L290.58 1401.69" class="st5"/>
			<rect x="60.0721" y="1394.49" width="178.911" height="14.4001" class="st7"/>
			<text x="60.07" y="1405.29" class="st8">HMSET SWITCH_HASH|GLOBAL</text>		</g>
		<g id="shape1026-81" transform="translate(-1031.69,1062.36) rotate(-90)">
			<title>Activation.1106</title>
			<rect x="0" y="1400.27" width="56.6929" height="8.50394" class="st4"/>
		</g>
		<g id="shape1027-83" transform="translate(368.579,-339.327)">
			<title>Return Message.1107</title>
			<path d="M0 1401.69 L-299.06 1401.69" class="st10"/>
		</g>
		<g id="shape1028-89" transform="translate(-408.067,1310.39) rotate(-90)">
			<title>Activation.1188</title>
			<rect x="0" y="1400.27" width="170.079" height="8.50394" class="st4"/>
		</g>
		<g id="shape1029-91" transform="translate(995.744,-268.461)">
			<title>Self Message.1189</title>
			<desc>set switch ecmp/lag hash field list</desc>
			<path d="M4.96 1408.77 L27.21 1408.77 L27.21 1437.12 L17.69 1437.12" class="st5"/>
			<rect x="24.5101" y="1415.83" width="190.507" height="14.4001" class="st7"/>
			<text x="24.51" y="1426.63" class="st8">set switch ecmp/lag hash field list</text>		</g>
		<g id="shape1030-98" transform="translate(-403.815,1282.04) rotate(-90)">
			<title>Activation.1190</title>
			<rect x="0" y="1400.27" width="113.386" height="8.50394" class="st9"/>
		</g>
		<g id="shape1031-100" transform="translate(377.083,-410.194)">
			<title>Asynchronous Message.1240</title>
			<desc>SWITCH_HASH|GLOBAL</desc>
			<path d="M0 1415.86 L615.12 1415.86" class="st11"/>
			<rect x="240.17" y="1408.66" width="134.778" height="14.4001" class="st12"/>
			<text x="240.17" y="1419.46" class="st8">SWITCH_HASH|GLOBAL</text>		</g>
		<g id="shape1032-107" transform="translate(-408.068,1062.36) rotate(-90)">
			<title>Activation.1241</title>
			<rect x="0" y="1400.27" width="56.6929" height="8.50394" class="st4"/>
		</g>
		<g id="shape1033-109" transform="translate(1007.79,-403.107)">
			<title>Self Message.1242</title>
			<desc>process data</desc>
			<path d="M-7.09 1408.77 L10.91 1408.77 L10.91 1465.47 L1.39 1465.47" class="st5"/>
			<rect x="7.17552" y="1429.92" width="70.6885" height="14.4001" class="st12"/>
			<text x="7.18" y="1440.72" class="st8">process data</text>		</g>
		<g id="shape1034-116" transform="translate(1004.96,-204.682)">
			<title>Message.1244</title>
			<desc>set_hash_attribute</desc>
			<path d="M0 1401.69 L290.58 1401.69" class="st5"/>
			<rect x="98.3103" y="1394.49" width="102.435" height="14.4001" class="st7"/>
			<text x="98.31" y="1405.29" class="st8">set_hash_attribute</text>		</g>
		<g id="shape1035-123" transform="translate(-96.2565,1253.7) rotate(-90)">
			<title>Activation.1245</title>
			<rect x="0" y="1400.27" width="56.6929" height="8.50394" class="st4"/>
		</g>
		<g id="shape1036-125" transform="translate(1304.01,-147.989)">
			<title>Return Message.1246</title>
			<desc>return &#60;status&#62;</desc>
			<path d="M0 1401.69 L-299.06 1401.69" class="st10"/>
			<rect x="-194.091" y="1394.49" width="89.1277" height="14.4001" class="st12"/>
			<text x="-194.09" y="1405.29" class="st8">return &#60;status&#62;</text>		</g>
		<g id="shape1037-132" transform="translate(-408.067,977.319) rotate(-90)">
			<title>Activation.1247</title>
			<rect x="0" y="1400.27" width="170.079" height="8.50394" class="st4"/>
		</g>
		<g id="shape1038-134" transform="translate(995.744,-601.532)">
			<title>Self Message.1248</title>
			<desc>get switch ecmp/lag hash oid</desc>
			<path d="M4.96 1408.77 L27.21 1408.77 L27.21 1437.12 L17.69 1437.12" class="st5"/>
			<rect x="24.302" y="1415.75" width="165.412" height="14.4001" class="st7"/>
			<text x="24.3" y="1426.55" class="st8">get switch ecmp/lag hash oid</text>		</g>
		<g id="shape1039-141" transform="translate(-403.815,948.972) rotate(-90)">
			<title>Activation.1249</title>
			<rect x="0" y="1400.27" width="113.386" height="8.50394" class="st9"/>
		</g>
		<g id="shape1040-143" transform="translate(1004.96,-537.752)">
			<title>Message.1250</title>
			<desc>get_switch_attribute</desc>
			<path d="M0 1401.69 L290.58 1401.69" class="st5"/>
			<rect x="92.3717" y="1394.49" width="114.312" height="14.4001" class="st12"/>
			<text x="92.37" y="1405.29" class="st8">get_switch_attribute</text>		</g>
		<g id="shape1041-150" transform="translate(-96.2565,920.626) rotate(-90)">
			<title>Activation.1251</title>
			<rect x="0" y="1400.27" width="56.6929" height="8.50394" class="st4"/>
		</g>
		<g id="shape1042-152" transform="translate(1304.01,-481.06)">
			<title>Return Message.1252</title>
			<desc>return &#60;status&#62;</desc>
			<path d="M0 1401.69 L-299.06 1401.69" class="st10"/>
			<rect x="-194.091" y="1394.49" width="89.1277" height="14.4001" class="st12"/>
			<text x="-194.09" y="1405.29" class="st8">return &#60;status&#62;</text>		</g>
		<g id="shape1043-159" transform="translate(-408.068,552.122) rotate(-90)">
			<title>Activation.1044</title>
			<rect x="0" y="1400.27" width="425.197" height="8.50394" class="st4"/>
		</g>
		<g id="shape1044-161" transform="translate(995.744,-1281.85)">
			<title>Self Message.1045</title>
			<desc>get switch ecmp/lag hash capabilities</desc>
			<path d="M4.96 1408.77 L27.21 1408.77 L27.21 1437.12 L17.69 1437.12" class="st5"/>
			<rect x="24.2473" y="1415.75" width="210.875" height="14.4001" class="st7"/>
			<text x="24.25" y="1426.55" class="st8">get switch ecmp/lag hash capabilities</text>		</g>
		<g id="shape1045-168" transform="translate(-403.816,523.776) rotate(-90)">
			<title>Activation.1046</title>
			<rect x="0" y="1400.27" width="368.504" height="8.50394" class="st9"/>
		</g>
		<g id="shape1046-170" transform="translate(1004.96,-1133.03)">
			<title>Message.1047</title>
			<desc>sai_query_attribute_capability</desc>
			<path d="M0 1415.86 L290.58 1415.86" class="st5"/>
			<rect x="65.8956" y="1408.66" width="167.264" height="14.4001" class="st7"/>
			<text x="65.9" y="1419.46" class="st8">sai_query_attribute_capability</text>		</g>
		<g id="shape1047-177" transform="translate(-96.2565,311.44) rotate(-90)">
			<title>Activation.1048</title>
			<rect x="0" y="1400.27" width="28.6097" height="8.50394" class="st4"/>
		</g>
		<g id="shape1048-179" transform="translate(1304.01,-1090.38)">
			<title>Return Message.1049</title>
			<desc>return &#60;status&#62;</desc>
			<path d="M0 1401.82 L-299.06 1401.55" class="st10"/>
			<rect x="-194.091" y="1394.49" width="89.1277" height="14.4001" class="st7"/>
			<text x="-194.09" y="1405.29" class="st8">return &#60;status&#62;</text>		</g>
		<g id="shape1049-186" transform="translate(1004.96,-977.123)">
			<title>Message.1050</title>
			<desc>sai_query_attribute_enum_values_capability</desc>
			<path d="M0 1415.86 L290.58 1415.86" class="st5"/>
			<rect x="27.2118" y="1408.66" width="244.632" height="14.4001" class="st7"/>
			<text x="27.21" y="1419.46" class="st8">sai_query_attribute_enum_values_capability</text>		</g>
		<g id="shape1050-193" transform="translate(-96.2565,467.083) rotate(-90)">
			<title>Activation.1051</title>
			<rect x="0" y="1400.27" width="28.3464" height="8.50394" class="st4"/>
		</g>
		<g id="shape1051-195" transform="translate(1304.01,-935.312)">
			<title>Return Message.1052</title>
			<desc>return &#60;status&#62;</desc>
			<path d="M0 1402.39 L-299.06 1400.98" class="st10"/>
			<rect x="-194.091" y="1394.49" width="89.1277" height="14.4001" class="st7"/>
			<text x="-194.09" y="1405.29" class="st8">return &#60;status&#62;</text>		</g>
		<g id="group1052-202" transform="translate(946.846,-70.036)">
			<title>Optional fragment.1059</title>
			<g id="shape1052-203">
				<rect x="0" y="1160.74" width="411.024" height="248.032" class="st13"/>
			</g>
			<g id="shape1053-205" transform="translate(0,-225.628)">
				<title>Sheet.1053</title>
				<desc>opt</desc>
				<path d="M0 1408.77 L88.91 1408.77 L96 1401.69 L96 1386.37 L0 1386.37 L0 1408.77 Z" class="st13"/>
				<text x="4" y="1401.17" class="st14">opt</text>			</g>
			<g id="shape1054-208" transform="translate(0,-203.224)">
				<title>Sheet.1054</title>
				<desc>capability is validated</desc>
				<text x="123.18" y="1401.17" class="st15">capability is validated</text>			</g>
		</g>
		<g id="group1055-210" transform="translate(946.846,-1069.25)">
			<title>Loop fragment.1063</title>
			<g id="shape1055-211">
				<rect x="0" y="1254.19" width="411.024" height="154.583" class="st13"/>
			</g>
			<g id="shape1056-213" transform="translate(0,-132.179)">
				<title>Sheet.1056</title>
				<desc>query</desc>
				<path d="M0 1408.77 L88.91 1408.77 L96 1401.69 L96 1386.37 L0 1386.37 L0 1408.77 Z" class="st13"/>
				<text x="4" y="1401.17" class="st14">query</text>			</g>
		</g>
		<g id="group1058-216" transform="translate(946.846,-913.343)">
			<title>Loop fragment.1066</title>
			<g id="shape1058-217">
				<rect x="0" y="1281.21" width="411.024" height="127.559" class="st13"/>
			</g>
			<g id="shape1059-219" transform="translate(0,-105.155)">
				<title>Sheet.1059</title>
				<desc>query</desc>
				<path d="M0 1408.77 L88.91 1408.77 L96 1401.69 L96 1386.37 L0 1386.37 L0 1408.77 Z" class="st13"/>
				<text x="4" y="1401.17" class="st14">query</text>			</g>
		</g>
		<g id="group1061-222" transform="translate(642.122,-1310.19)">
			<title>Actor lifeline.1069</title>
			<desc>StateDB</desc>
			<g id="shape1062-223" transform="translate(17.0079,-8.50394)">
				<title>Sheet.1062</title>
				<rect x="0" y="1383.26" width="51.0236" height="25.5118" class="st1"/>
			</g>
			<g id="shape1063-225" transform="translate(34.0157,-46.063)">
				<title>Sheet.1063</title>
				<path d="M8.5 1408.77 a6.99441E-15 0 0 1 1 -1.42109E-14 0 a6.99441E-15 0 0 1 1 1.42109E-14 0 Z" class="st1"/>
			</g>
			<g id="shape1064-227" transform="translate(28.3465,1292.19)">
				<title>Sheet.1064</title>
			</g>
			<g id="shape1065-229" transform="translate(1451.29,1408.77) rotate(90)">
				<title>Sheet.1065</title>
				<path d="M0 1408.77 L1268.5 1408.77" class="st2"/>
			</g>
			<g id="shape1061-232">
				<rect x="0" y="1366.25" width="85.0394" height="42.5197" class="st1"/>
				<text x="19.74" y="1391.11" class="st3">StateDB</text>			</g>
		</g>
		<g id="shape1066-235" transform="translate(-408.068,778.894) rotate(-90)">
			<title>Activation.1066</title>
			<rect x="0" y="1400.27" width="198.425" height="8.50394" class="st4"/>
		</g>
		<g id="shape1067-237" transform="translate(995.744,-828.304)">
			<title>Self Message.1075</title>
			<desc>push switch ecmp/lag hash capabilities to DB</desc>
			<path d="M4.96 1408.77 L27.21 1408.77 L27.21 1437.12 L17.69 1437.12" class="st5"/>
			<rect x="23.6166" y="1415.75" width="254.657" height="14.4001" class="st12"/>
			<text x="23.62" y="1426.55" class="st8">push switch ecmp/lag hash capabilities to DB</text>		</g>
		<g id="shape1068-244" transform="translate(-403.816,750.547) rotate(-90)">
			<title>Activation.1076</title>
			<rect x="0" y="1400.27" width="141.732" height="8.50394" class="st9"/>
		</g>
		<g id="shape1069-246" transform="translate(992.201,-764.524)">
			<title>Message.1077</title>
			<desc>HMSET SWITCH_CAPABILITY|switch</desc>
			<path d="M0 1415.86 L-294.83 1415.86" class="st5"/>
			<rect x="-253.015" y="1408.66" width="202.724" height="14.4001" class="st7"/>
			<text x="-253.02" y="1419.46" class="st8">HMSET SWITCH_CAPABILITY|switch</text>		</g>
		<g id="shape1070-253" transform="translate(-719.879,708.028) rotate(-90)">
			<title>Activation.1078</title>
			<rect x="0" y="1400.27" width="56.6929" height="8.50394" class="st4"/>
		</g>
		<g id="shape1071-255" transform="translate(688.894,-693.658)">
			<title>Return Message.1079</title>
			<path d="M0 1401.69 L303.31 1401.69" class="st10"/>
		</g>
		<g id="shape1074-260" transform="translate(1024.8,-1140.11)">
			<title>Sheet.1074</title>
			<desc>SAI_SWITCH_ATTR_ECMP_HASH SAI_SWITCH_ATTR_LAG_HASH SAI_HASH_A...</desc>
			<rect x="0" y="1359.17" width="262.205" height="49.6063" class="st16"/>
			<text x="4" y="1373.17" class="st15">SAI_SWITCH_ATTR_ECMP_HASH <tspan x="4" dy="1.2em" class="st17">SAI_SWITCH_ATTR_LAG_HASH </tspan><tspan
						x="4" dy="1.2em" class="st17">SAI_HASH_ATTR_NATIVE_HASH_FIELD_LIST</tspan></text>		</g>
		<g id="shape1076-265" transform="translate(1024.8,-984.209)">
			<title>Sheet.1076</title>
			<desc>SAI_HASH_ATTR_NATIVE_HASH_FIELD_LIST</desc>
			<rect x="0" y="1387.51" width="262.205" height="21.2598" class="st16"/>
			<text x="4" y="1401.74" class="st15">SAI_HASH_ATTR_NATIVE_HASH_FIELD_LIST</text>		</g>
	</g>
</svg>
