<?xml version="1.0" encoding="UTF-8" standalone="no"?>
<!DOCTYPE svg PUBLIC "-//W3C//DTD SVG 1.1//EN" "http://www.w3.org/Graphics/SVG/1.1/DTD/svg11.dtd">
<!-- Generated by Microsoft Visio, SVG Export gh_update_flow.svg Page-8 -->
<svg xmlns="http://www.w3.org/2000/svg" xmlns:xlink="http://www.w3.org/1999/xlink" xmlns:ev="http://www.w3.org/2001/xml-events"
		width="13.506in" height="9.03479in" viewBox="0 0 972.433 650.505" xml:space="preserve" color-interpolation-filters="sRGB"
		class="st13">
	<title>gh update flow</title>

	<style type="text/css">
	<![CDATA[
		.st1 {fill:#5b9bd5;stroke:#000000;stroke-linecap:round;stroke-linejoin:round;stroke-width:1}
		.st2 {stroke:#000000;stroke-dasharray:7,5;stroke-linecap:round;stroke-linejoin:round;stroke-width:1}
		.st3 {fill:#ffffff;font-family:Segoe UI;font-size:1.00001em;font-weight:bold}
		.st4 {fill:#af5200;stroke:#a54d00;stroke-linecap:round;stroke-linejoin:round;stroke-width:0.5}
		.st5 {marker-end:url(#mrkr4-60);stroke:#a54d00;stroke-linecap:round;stroke-linejoin:round;stroke-width:1}
		.st6 {fill:#a54d00;fill-opacity:1;stroke:#a54d00;stroke-opacity:1;stroke-width:0.23584905660377}
		.st7 {fill:#ffffff;stroke:none;stroke-linecap:butt;stroke-width:7.2}
		.st8 {fill:#803a00;font-family:Segoe UI;font-size:1.00001em;font-weight:bold}
		.st9 {fill:#70ad47;stroke:#70ad47;stroke-linecap:round;stroke-linejoin:round;stroke-width:0.5}
		.st10 {fill:#ffffff;stroke:none;stroke-linecap:butt}
		.st11 {marker-end:url(#mrkr3-88);stroke:#a54d00;stroke-dasharray:7,5;stroke-linecap:round;stroke-linejoin:round;stroke-width:1}
		.st12 {marker-end:url(#mrkr3-88);stroke:#a54d00;stroke-linecap:round;stroke-linejoin:round;stroke-width:1}
		.st13 {fill:none;fill-rule:evenodd;font-size:12px;overflow:visible;stroke-linecap:square;stroke-miterlimit:3}
	]]>
	</style>

	<defs id="Markers">
		<g id="lend4">
			<path d="M 2 1 L 0 0 L 2 -1 L 2 1 " style="stroke:none"/>
		</g>
		<marker id="mrkr4-60" class="st6" refX="-8.48" orient="auto" markerUnits="strokeWidth" overflow="visible">
			<use xlink:href="#lend4" transform="scale(-4.24,-4.24) "/>
		</marker>
		<g id="lend3">
			<path d="M 2 1 L 0 0 L 2 -1 " style="stroke-linecap:round;stroke-linejoin:round;fill:none"/>
		</g>
		<marker id="mrkr3-88" class="st6" orient="auto" markerUnits="strokeWidth" overflow="visible">
			<use xlink:href="#lend3" transform="scale(-4.24,-4.24) "/>
		</marker>
	</defs>
	<g>
		<title>Page-8</title>
		<g id="group1000-1" transform="translate(301.965,-551.926)">
			<title>Actor lifeline.1198</title>
			<desc>ConfigDB</desc>
			<g id="shape1001-2" transform="translate(17.0079,-8.50394)">
				<title>Sheet.1001</title>
				<rect x="0" y="624.993" width="51.0236" height="25.5118" class="st1"/>
			</g>
			<g id="shape1002-4" transform="translate(34.0157,-46.063)">
				<title>Sheet.1002</title>
				<path d="M8.5 650.5 a6.99441E-15 0 0 1 1 -1.42109E-14 0 a6.99441E-15 0 0 1 1 1.42109E-14 0 Z" class="st1"/>
			</g>
			<g id="shape1003-6" transform="translate(28.3465,533.926)">
				<title>Sheet.1003</title>
			</g>
			<g id="shape1004-8" transform="translate(693.024,650.505) rotate(90)">
				<title>Sheet.1004</title>
				<path d="M0 650.5 L510.24 650.5" class="st2"/>
			</g>
			<g id="shape1000-11">
				<rect x="0" y="607.985" width="85.0394" height="42.5197" class="st1"/>
				<text x="15.49" y="632.85" class="st3">ConfigDB</text>			</g>
		</g>
		<g id="group1005-14" transform="translate(585.429,-551.926)">
			<title>Object lifeline.1203</title>
			<desc>SwitchOrch</desc>
			<g id="shape1006-15" transform="translate(17.0079,-8.50394)">
				<title>Sheet.1006</title>
				<rect x="0" y="624.993" width="51.0236" height="25.5118" class="st1"/>
			</g>
			<g id="shape1007-17" transform="translate(34.0157,-46.063)">
				<title>Sheet.1007</title>
				<path d="M8.5 650.5 a0 0 0 1 1 0 0 a0 0 0 1 1 0 0 Z" class="st1"/>
			</g>
			<g id="shape1008-19" transform="translate(28.3465,533.926)">
				<title>Sheet.1008</title>
			</g>
			<g id="shape1009-21" transform="translate(693.024,650.505) rotate(90)">
				<title>Sheet.1009</title>
				<path d="M0 650.5 L510.24 650.5" class="st2"/>
			</g>
			<g id="shape1005-24">
				<rect x="0" y="607.985" width="85.0394" height="42.5197" class="st1"/>
				<text x="10.41" y="632.85" class="st3">SwitchOrch</text>			</g>
		</g>
		<g id="group1010-27" transform="translate(868.894,-551.926)">
			<title>Object lifeline.1208</title>
			<desc>SAI</desc>
			<g id="shape1011-28" transform="translate(17.0079,-8.50394)">
				<title>Sheet.1011</title>
				<rect x="0" y="624.993" width="51.0236" height="25.5118" class="st1"/>
			</g>
			<g id="shape1012-30" transform="translate(34.0157,-46.063)">
				<title>Sheet.1012</title>
				<path d="M8.5 650.5 a0 0 0 1 1 0 0 a0 0 0 1 1 0 0 Z" class="st1"/>
			</g>
			<g id="shape1013-32" transform="translate(28.3465,533.926)">
				<title>Sheet.1013</title>
			</g>
			<g id="shape1014-34" transform="translate(693.024,650.505) rotate(90)">
				<title>Sheet.1014</title>
				<path d="M0 650.5 L510.24 650.5" class="st2"/>
			</g>
			<g id="shape1010-37">
				<rect x="0" y="607.985" width="85.0394" height="42.5197" class="st1"/>
				<text x="33.04" y="632.85" class="st3">SAI</text>			</g>
		</g>
		<g id="group1015-40" transform="translate(18.5,-551.926)">
			<title>Actor lifeline.1213</title>
			<desc>CLI</desc>
			<g id="shape1016-41" transform="translate(17.0079,-8.50394)">
				<title>Sheet.1016</title>
				<rect x="0" y="624.993" width="51.0236" height="25.5118" class="st1"/>
			</g>
			<g id="shape1017-43" transform="translate(34.0157,-46.063)">
				<title>Sheet.1017</title>
				<path d="M3.4 650.5 L3.4 633.5 L3.4 640.3 L0 640.3 L0 626.69 L1.7 624.99 L15.31 624.99 L17.01 626.69 L17.01 640.3
							 L13.61 640.3 L13.61 633.5 L13.61 650.5 L8.5 650.5 L8.5 636.9 L8.5 650.5 L3.4 650.5 ZM11.91 619.89 A3.40157
							 3.40157 -180 1 0 5.1 619.89 A3.40157 3.40157 -180 1 0 11.91 619.89 Z" class="st1"/>
			</g>
			<g id="shape1018-45" transform="translate(28.3465,533.926)">
				<title>Sheet.1018</title>
			</g>
			<g id="shape1019-47" transform="translate(693.024,650.505) rotate(90)">
				<title>Sheet.1019</title>
				<path d="M0 650.5 L510.24 650.5" class="st2"/>
			</g>
			<g id="shape1015-50">
				<rect x="0" y="607.985" width="85.0394" height="42.5197" class="st1"/>
				<text x="33.81" y="632.85" class="st3">CLI</text>			</g>
		</g>
		<g id="shape1021-53" transform="translate(-585.233,240.311) rotate(-90)">
			<title>Activation.1098</title>
			<rect x="0" y="642.001" width="56.6929" height="8.50394" class="st4"/>
		</g>
		<g id="shape1022-55" transform="translate(72.3583,-466.886)">
			<title>Self Message.1099</title>
			<desc>process data</desc>
			<path d="M-7.09 650.5 L10.91 650.5 L10.91 707.2 L1.39 707.2" class="st5"/>
			<rect x="7.17552" y="671.651" width="70.6885" height="14.4001" class="st7"/>
			<text x="7.18" y="682.45" class="st8">process data</text>		</g>
		<g id="shape1023-63" transform="translate(-585.233,438.736) rotate(-90)">
			<title>Activation.1102</title>
			<rect x="0" y="642.001" width="170.079" height="8.50394" class="st4"/>
		</g>
		<g id="shape1024-65" transform="translate(60.3111,-381.847)">
			<title>Self Message.1103</title>
			<desc>set switch hash</desc>
			<path d="M4.96 650.5 L27.21 650.5 L27.21 678.85 L17.69 678.85" class="st5"/>
			<rect x="24.7426" y="657.478" width="85.1605" height="14.4001" class="st7"/>
			<text x="24.74" y="668.28" class="st8">set switch hash</text>		</g>
		<g id="shape1025-72" transform="translate(-580.981,410.39) rotate(-90)">
			<title>Activation.1104</title>
			<rect x="0" y="642.001" width="113.386" height="8.50394" class="st9"/>
		</g>
		<g id="shape1026-74" transform="translate(69.5237,-318.068)">
			<title>Message.1105</title>
			<desc>HMSET SWITCH_HASH|GLOBAL</desc>
			<path d="M0 643.42 L262.23 643.42" class="st5"/>
			<rect x="45.8989" y="636.218" width="178.911" height="14.4001" class="st10"/>
			<text x="45.9" y="647.02" class="st8">HMSET SWITCH_HASH|GLOBAL</text>		</g>
		<g id="shape1027-81" transform="translate(-301.768,382.043) rotate(-90)">
			<title>Activation.1106</title>
			<rect x="0" y="642.001" width="56.6929" height="8.50394" class="st4"/>
		</g>
		<g id="shape1028-83" transform="translate(340.232,-261.375)">
			<title>Return Message.1107</title>
			<path d="M0 643.42 L-270.71 643.42" class="st11"/>
		</g>
		<g id="shape1029-89" transform="translate(-18.3037,580.469) rotate(-90)">
			<title>Activation.1188</title>
			<rect x="0" y="642.001" width="170.079" height="8.50394" class="st4"/>
		</g>
		<g id="shape1030-91" transform="translate(627.24,-240.115)">
			<title>Self Message.1189</title>
			<desc>set switch ecmp/lag hash field list</desc>
			<path d="M4.96 650.5 L27.21 650.5 L27.21 678.85 L17.69 678.85" class="st5"/>
			<rect x="24.5101" y="657.566" width="190.507" height="14.4001" class="st7"/>
			<text x="24.51" y="668.37" class="st8">set switch ecmp/lag hash field list</text>		</g>
		<g id="shape1031-98" transform="translate(-14.0517,552.122) rotate(-90)">
			<title>Activation.1190</title>
			<rect x="0" y="642.001" width="113.386" height="8.50394" class="st9"/>
		</g>
		<g id="shape1032-100" transform="translate(348.736,-332.241)">
			<title>Asynchronous Message.1240</title>
			<desc>SWITCH_HASH|GLOBAL</desc>
			<path d="M0 657.59 L274.96 657.59" class="st12"/>
			<rect x="70.0915" y="650.391" width="134.778" height="14.4001" class="st7"/>
			<text x="70.09" y="661.19" class="st8">SWITCH_HASH|GLOBAL</text>		</g>
		<g id="shape1033-107" transform="translate(-18.3038,382.043) rotate(-90)">
			<title>Activation.1241</title>
			<rect x="0" y="642.001" width="56.6929" height="8.50394" class="st4"/>
		</g>
		<g id="shape1034-109" transform="translate(639.287,-325.154)">
			<title>Self Message.1242</title>
			<desc>process data</desc>
			<path d="M-7.09 650.5 L10.91 650.5 L10.91 707.2 L1.39 707.2" class="st5"/>
			<rect x="7.17552" y="671.651" width="70.6885" height="14.4001" class="st10"/>
			<text x="7.18" y="682.45" class="st8">process data</text>		</g>
		<g id="shape1035-116" transform="translate(636.453,-176.335)">
			<title>Message.1244</title>
			<desc>set_hash_attribute</desc>
			<path d="M0 643.42 L262.23 643.42" class="st5"/>
			<rect x="84.1371" y="636.218" width="102.435" height="14.4001" class="st7"/>
			<text x="84.14" y="647.02" class="st8">set_hash_attribute</text>		</g>
		<g id="shape1036-123" transform="translate(265.161,523.776) rotate(-90)">
			<title>Activation.1245</title>
			<rect x="0" y="642.001" width="56.6929" height="8.50394" class="st4"/>
		</g>
		<g id="shape1037-125" transform="translate(907.161,-119.642)">
			<title>Return Message.1246</title>
			<desc>return &#60;status&#62;</desc>
			<path d="M0 643.42 L-270.71 643.42" class="st11"/>
			<rect x="-179.918" y="636.218" width="89.1277" height="14.4001" class="st7"/>
			<text x="-179.92" y="647.02" class="st8">return &#60;status&#62;</text>		</g>
		<g id="shape1038-132" transform="translate(-18.3038,297.004) rotate(-90)">
			<title>Activation.1247</title>
			<rect x="0" y="642.001" width="170.079" height="8.50394" class="st4"/>
		</g>
		<g id="shape1039-134" transform="translate(627.24,-523.579)">
			<title>Self Message.1248</title>
			<desc>get switch ecmp/lag hash oid</desc>
			<path d="M4.96 650.5 L27.21 650.5 L27.21 678.85 L17.69 678.85" class="st5"/>
			<rect x="24.302" y="657.478" width="165.412" height="14.4001" class="st10"/>
			<text x="24.3" y="668.28" class="st8">get switch ecmp/lag hash oid</text>		</g>
		<g id="shape1040-141" transform="translate(-14.0518,268.657) rotate(-90)">
			<title>Activation.1249</title>
			<rect x="0" y="642.001" width="113.386" height="8.50394" class="st9"/>
		</g>
		<g id="shape1041-143" transform="translate(636.453,-459.8)">
			<title>Message.1250</title>
			<desc>get_switch_attribute</desc>
			<path d="M0 643.42 L262.23 643.42" class="st5"/>
			<rect x="78.1984" y="636.218" width="114.312" height="14.4001" class="st7"/>
			<text x="78.2" y="647.02" class="st8">get_switch_attribute</text>		</g>
		<g id="shape1042-150" transform="translate(265.161,240.311) rotate(-90)">
			<title>Activation.1251</title>
			<rect x="0" y="642.001" width="56.6929" height="8.50394" class="st4"/>
		</g>
		<g id="shape1043-152" transform="translate(907.161,-403.107)">
			<title>Return Message.1252</title>
			<desc>return &#60;status&#62;</desc>
			<path d="M0 643.42 L-270.71 643.42" class="st11"/>
			<rect x="-179.918" y="636.218" width="89.1277" height="14.4001" class="st7"/>
			<text x="-179.92" y="647.02" class="st8">return &#60;status&#62;</text>		</g>
	</g>
</svg>
