<?xml version="1.0" encoding="UTF-8" standalone="no"?>
<!DOCTYPE svg PUBLIC "-//W3C//DTD SVG 1.1//EN" "http://www.w3.org/Graphics/SVG/1.1/DTD/svg11.dtd">
<!-- Generated by Microsoft Visio, SVG Export gh_update_flow.svg Page-1 -->
<svg xmlns="http://www.w3.org/2000/svg" xmlns:xlink="http://www.w3.org/1999/xlink" xmlns:ev="http://www.w3.org/2001/xml-events"
		width="19.6989in" height="23.4954in" viewBox="0 0 1418.32 1691.67" xml:space="preserve" color-interpolation-filters="sRGB"
		class="st18">
	<title>gh update flow</title>

	<style type="text/css">
	<![CDATA[
		.st1 {fill:#5b9bd5;stroke:#000000;stroke-linecap:round;stroke-linejoin:round;stroke-width:1}
		.st2 {stroke:#000000;stroke-dasharray:7,5;stroke-linecap:round;stroke-linejoin:round;stroke-width:1}
		.st3 {fill:#ffffff;font-family:Segoe UI;font-size:1.00001em;font-weight:bold}
		.st4 {fill:#af5200;stroke:#a54d00;stroke-linecap:round;stroke-linejoin:round;stroke-width:0.5}
		.st5 {marker-end:url(#mrkr4-60);stroke:#a54d00;stroke-linecap:round;stroke-linejoin:round;stroke-width:1}
		.st6 {fill:#a54d00;fill-opacity:1;stroke:#a54d00;stroke-opacity:1;stroke-width:0.23584905660377}
		.st7 {fill:#ffffff;stroke:none;stroke-linecap:butt;stroke-width:7.2}
		.st8 {fill:#803a00;font-family:Segoe UI;font-size:1.00001em;font-weight:bold}
		.st9 {fill:#70ad47;stroke:#70ad47;stroke-linecap:round;stroke-linejoin:round;stroke-width:0.5}
		.st10 {fill:#ffffff;stroke:none;stroke-linecap:butt}
		.st11 {marker-end:url(#mrkr3-88);stroke:#a54d00;stroke-dasharray:7,5;stroke-linecap:round;stroke-linejoin:round;stroke-width:1}
		.st12 {marker-end:url(#mrkr3-88);stroke:#a54d00;stroke-linecap:round;stroke-linejoin:round;stroke-width:1}
		.st13 {fill:none;stroke:#b43500;stroke-linecap:round;stroke-linejoin:round;stroke-width:1}
		.st14 {fill:#b43500;font-family:Segoe UI;font-size:1.00001em;font-weight:bold}
		.st15 {fill:#ac770d;font-family:Segoe UI;font-size:1.00001em;font-weight:bold}
		.st16 {fill:none;stroke:none;stroke-linecap:round;stroke-linejoin:round;stroke-width:0.5}
		.st17 {font-size:1em}
		.st18 {fill:none;fill-rule:evenodd;font-size:12px;overflow:visible;stroke-linecap:square;stroke-miterlimit:3}
	]]>
	</style>

	<defs id="Markers">
		<g id="lend4">
			<path d="M 2 1 L 0 0 L 2 -1 L 2 1 " style="stroke:none"/>
		</g>
		<marker id="mrkr4-60" class="st6" refX="-8.48" orient="auto" markerUnits="strokeWidth" overflow="visible">
			<use xlink:href="#lend4" transform="scale(-4.24,-4.24) "/>
		</marker>
		<g id="lend3">
			<path d="M 2 1 L 0 0 L 2 -1 " style="stroke-linecap:round;stroke-linejoin:round;fill:none"/>
		</g>
		<marker id="mrkr3-88" class="st6" orient="auto" markerUnits="strokeWidth" overflow="visible">
			<use xlink:href="#lend3" transform="scale(-4.24,-4.24) "/>
		</marker>
	</defs>
	<g>
		<title>Page-1</title>
		<g id="group1000-1" transform="translate(312.311,-1611.09)">
			<title>Actor lifeline.1198</title>
			<desc>ConfigDB</desc>
			<g id="shape1001-2" transform="translate(17.0079,-8.50394)">
				<title>Sheet.1001</title>
				<rect x="0" y="1666.16" width="51.0236" height="25.5118" class="st1"/>
			</g>
			<g id="shape1002-4" transform="translate(34.0157,-46.063)">
				<title>Sheet.1002</title>
				<path d="M8.5 1691.67 a6.99441E-15 0 0 1 1 -1.42109E-14 0 a6.99441E-15 0 0 1 1 1.42109E-14 0 Z" class="st1"/>
			</g>
			<g id="shape1003-6" transform="translate(28.3465,1611.09)">
				<title>Sheet.1003</title>
			</g>
			<g id="shape1004-8" transform="translate(1734.19,1691.67) rotate(90)">
				<title>Sheet.1004</title>
				<path d="M0 1691.67 L1587.4 1691.67" class="st2"/>
			</g>
			<g id="shape1000-11">
				<rect x="0" y="1649.15" width="85.0394" height="42.5197" class="st1"/>
				<text x="15.49" y="1674.01" class="st3">ConfigDB</text>			</g>
		</g>
		<g id="group1005-14" transform="translate(935.933,-1611.09)">
			<title>Object lifeline.1203</title>
			<desc>SwitchOrch</desc>
			<g id="shape1006-15" transform="translate(17.0079,-8.50394)">
				<title>Sheet.1006</title>
				<rect x="0" y="1666.16" width="51.0236" height="25.5118" class="st1"/>
			</g>
			<g id="shape1007-17" transform="translate(34.0157,-46.063)">
				<title>Sheet.1007</title>
				<path d="M8.5 1691.67 a0 0 0 1 1 0 0 a0 0 0 1 1 0 0 Z" class="st1"/>
			</g>
			<g id="shape1008-19" transform="translate(28.3465,1611.09)">
				<title>Sheet.1008</title>
			</g>
			<g id="shape1009-21" transform="translate(1734.19,1691.67) rotate(90)">
				<title>Sheet.1009</title>
				<path d="M0 1691.67 L1587.4 1691.67" class="st2"/>
			</g>
			<g id="shape1005-24">
				<rect x="0" y="1649.15" width="85.0394" height="42.5197" class="st1"/>
				<text x="10.41" y="1674.01" class="st3">SwitchOrch</text>			</g>
		</g>
		<g id="group1010-27" transform="translate(1318.61,-1611.09)">
			<title>Object lifeline.1208</title>
			<desc>SAI</desc>
			<g id="shape1011-28" transform="translate(17.0079,-8.50394)">
				<title>Sheet.1011</title>
				<rect x="0" y="1666.16" width="51.0236" height="25.5118" class="st1"/>
			</g>
			<g id="shape1012-30" transform="translate(34.0157,-46.063)">
				<title>Sheet.1012</title>
				<path d="M8.5 1691.67 a0 0 0 1 1 0 0 a0 0 0 1 1 0 0 Z" class="st1"/>
			</g>
			<g id="shape1013-32" transform="translate(28.3465,1611.09)">
				<title>Sheet.1013</title>
			</g>
			<g id="shape1014-34" transform="translate(1734.19,1691.67) rotate(90)">
				<title>Sheet.1014</title>
				<path d="M0 1691.67 L1587.4 1691.67" class="st2"/>
			</g>
			<g id="shape1010-37">
				<rect x="0" y="1649.15" width="85.0394" height="42.5197" class="st1"/>
				<text x="33.04" y="1674.01" class="st3">SAI</text>			</g>
		</g>
		<g id="group1015-40" transform="translate(0.5,-1611.09)">
			<title>Actor lifeline.1213</title>
			<desc>CLI</desc>
			<g id="shape1016-41" transform="translate(17.0079,-8.50394)">
				<title>Sheet.1016</title>
				<rect x="0" y="1666.16" width="51.0236" height="25.5118" class="st1"/>
			</g>
			<g id="shape1017-43" transform="translate(34.0157,-46.063)">
				<title>Sheet.1017</title>
				<path d="M3.4 1691.67 L3.4 1674.66 L3.4 1681.47 L0 1681.47 L0 1667.86 L1.7 1666.16 L15.31 1666.16 L17.01 1667.86
							 L17.01 1681.47 L13.61 1681.47 L13.61 1674.66 L13.61 1691.67 L8.5 1691.67 L8.5 1678.06 L8.5 1691.67 L3.4
							 1691.67 ZM11.91 1661.06 A3.40157 3.40157 -180 1 0 5.1 1661.06 A3.40157 3.40157 -180 1 0 11.91 1661.06
							 Z" class="st1"/>
			</g>
			<g id="shape1018-45" transform="translate(28.3465,1611.09)">
				<title>Sheet.1018</title>
			</g>
			<g id="shape1019-47" transform="translate(1734.19,1691.67) rotate(90)">
				<title>Sheet.1019</title>
				<path d="M0 1691.67 L1587.4 1691.67" class="st2"/>
			</g>
			<g id="shape1015-50">
				<rect x="0" y="1649.15" width="85.0394" height="42.5197" class="st1"/>
				<text x="33.81" y="1674.01" class="st3">CLI</text>			</g>
		</g>
		<g id="shape1021-53" transform="translate(-1644.4,1016.01) rotate(-90)">
			<title>Activation.1098</title>
			<rect x="0" y="1683.17" width="56.6929" height="8.50394" class="st4"/>
		</g>
		<g id="shape1022-55" transform="translate(54.3583,-732.351)">
			<title>Self Message.1099</title>
			<desc>process data</desc>
			<path d="M-7.09 1691.67 L10.91 1691.67 L10.91 1748.36 L1.39 1748.36" class="st5"/>
			<rect x="7.17552" y="1712.82" width="70.6885" height="14.4001" class="st7"/>
			<text x="7.18" y="1723.62" class="st8">process data</text>		</g>
		<g id="shape1023-63" transform="translate(-1644.4,1214.44) rotate(-90)">
			<title>Activation.1102</title>
			<rect x="0" y="1683.17" width="170.079" height="8.50394" class="st4"/>
		</g>
		<g id="shape1024-65" transform="translate(42.3112,-647.312)">
			<title>Self Message.1103</title>
			<desc>set switch hash</desc>
			<path d="M4.96 1691.67 L27.21 1691.67 L27.21 1720.02 L17.69 1720.02" class="st5"/>
			<rect x="24.7426" y="1698.64" width="85.1605" height="14.4001" class="st7"/>
			<text x="24.74" y="1709.44" class="st8">set switch hash</text>		</g>
		<g id="shape1025-72" transform="translate(-1640.15,1186.09) rotate(-90)">
			<title>Activation.1104</title>
			<rect x="0" y="1683.17" width="113.386" height="8.50394" class="st9"/>
		</g>
		<g id="shape1026-74" transform="translate(51.5237,-583.532)">
			<title>Message.1105</title>
			<desc>HMSET SWITCH_HASH|GLOBAL</desc>
			<path d="M0 1684.58 L290.58 1684.58" class="st5"/>
			<rect x="60.0721" y="1677.38" width="178.911" height="14.4001" class="st10"/>
			<text x="60.07" y="1688.18" class="st8">HMSET SWITCH_HASH|GLOBAL</text>		</g>
		<g id="shape1027-81" transform="translate(-1332.59,1157.74) rotate(-90)">
			<title>Activation.1106</title>
			<rect x="0" y="1683.17" width="56.6929" height="8.50394" class="st4"/>
		</g>
		<g id="shape1028-83" transform="translate(350.579,-526.839)">
			<title>Return Message.1107</title>
			<path d="M0 1684.58 L-299.06 1684.58" class="st11"/>
		</g>
		<g id="shape1029-89" transform="translate(-708.965,1412.86) rotate(-90)">
			<title>Activation.1188</title>
			<rect x="0" y="1683.17" width="170.079" height="8.50394" class="st4"/>
		</g>
		<g id="shape1030-91" transform="translate(977.744,-448.886)">
			<title>Self Message.1189</title>
			<desc>set switch ecmp/lag hash field list</desc>
			<path d="M4.96 1691.67 L27.21 1691.67 L27.21 1720.02 L17.69 1720.02" class="st5"/>
			<rect x="24.5101" y="1698.73" width="190.507" height="14.4001" class="st7"/>
			<text x="24.51" y="1709.53" class="st8">set switch ecmp/lag hash field list</text>		</g>
		<g id="shape1031-98" transform="translate(-704.713,1384.52) rotate(-90)">
			<title>Activation.1190</title>
			<rect x="0" y="1683.17" width="113.386" height="8.50394" class="st9"/>
		</g>
		<g id="shape1032-100" transform="translate(359.083,-597.705)">
			<title>Asynchronous Message.1240</title>
			<desc>SWITCH_HASH|GLOBAL</desc>
			<path d="M0 1698.76 L615.12 1698.76" class="st12"/>
			<rect x="240.17" y="1691.56" width="134.778" height="14.4001" class="st10"/>
			<text x="240.17" y="1702.36" class="st8">SWITCH_HASH|GLOBAL</text>		</g>
		<g id="shape1033-107" transform="translate(-708.965,1157.74) rotate(-90)">
			<title>Activation.1241</title>
			<rect x="0" y="1683.17" width="56.6929" height="8.50394" class="st4"/>
		</g>
		<g id="shape1034-109" transform="translate(989.791,-590.619)">
			<title>Self Message.1242</title>
			<desc>process data</desc>
			<path d="M-7.09 1691.67 L10.91 1691.67 L10.91 1748.36 L1.39 1748.36" class="st5"/>
			<rect x="7.17552" y="1712.82" width="70.6885" height="14.4001" class="st7"/>
			<text x="7.18" y="1723.62" class="st8">process data</text>		</g>
		<g id="shape1035-116" transform="translate(986.957,-385.107)">
			<title>Message.1244</title>
			<desc>set_hash_attribute</desc>
			<path d="M0 1684.58 L361.44 1684.58" class="st5"/>
			<rect x="133.743" y="1677.38" width="102.435" height="14.4001" class="st7"/>
			<text x="133.74" y="1688.18" class="st8">set_hash_attribute</text>		</g>
		<g id="shape1036-123" transform="translate(-326.288,1356.17) rotate(-90)">
			<title>Activation.1245</title>
			<rect x="0" y="1683.17" width="56.6929" height="8.50394" class="st4"/>
		</g>
		<g id="shape1037-125" transform="translate(1356.88,-328.414)">
			<title>Return Message.1246</title>
			<desc>return &#60;status&#62;</desc>
			<path d="M0 1684.58 L-369.92 1684.58" class="st11"/>
			<rect x="-229.524" y="1677.38" width="89.1277" height="14.4001" class="st10"/>
			<text x="-229.52" y="1688.18" class="st8">return &#60;status&#62;</text>		</g>
		<g id="shape1038-132" transform="translate(-708.965,1072.7) rotate(-90)">
			<title>Activation.1247</title>
			<rect x="0" y="1683.17" width="170.079" height="8.50394" class="st4"/>
		</g>
		<g id="shape1039-134" transform="translate(977.744,-789.044)">
			<title>Self Message.1248</title>
			<desc>get switch ecmp/lag hash oid</desc>
			<path d="M4.96 1691.67 L27.21 1691.67 L27.21 1720.02 L17.69 1720.02" class="st5"/>
			<rect x="24.302" y="1698.64" width="165.412" height="14.4001" class="st7"/>
			<text x="24.3" y="1709.44" class="st8">get switch ecmp/lag hash oid</text>		</g>
		<g id="shape1040-141" transform="translate(-704.713,1044.36) rotate(-90)">
			<title>Activation.1249</title>
			<rect x="0" y="1683.17" width="113.386" height="8.50394" class="st9"/>
		</g>
		<g id="shape1041-143" transform="translate(986.957,-725.264)">
			<title>Message.1250</title>
			<desc>get_switch_attribute</desc>
			<path d="M0 1684.58 L361.44 1684.58" class="st5"/>
			<rect x="127.805" y="1677.38" width="114.312" height="14.4001" class="st10"/>
			<text x="127.8" y="1688.18" class="st8">get_switch_attribute</text>		</g>
		<g id="shape1042-150" transform="translate(-326.288,1016.01) rotate(-90)">
			<title>Activation.1251</title>
			<rect x="0" y="1683.17" width="56.6929" height="8.50394" class="st4"/>
		</g>
		<g id="shape1043-152" transform="translate(1356.88,-668.571)">
			<title>Return Message.1252</title>
			<desc>return &#60;status&#62;</desc>
			<path d="M0 1684.58 L-369.92 1684.58" class="st11"/>
			<rect x="-229.524" y="1677.38" width="89.1277" height="14.4001" class="st7"/>
			<text x="-229.52" y="1688.18" class="st8">return &#60;status&#62;</text>		</g>
		<g id="shape1044-159" transform="translate(-708.965,647.508) rotate(-90)">
			<title>Activation.1044</title>
			<rect x="0" y="1683.17" width="538.583" height="8.50394" class="st4"/>
		</g>
		<g id="shape1045-161" transform="translate(977.744,-1582.74)">
			<title>Self Message.1045</title>
			<desc>get switch ecmp/lag hash capabilities</desc>
			<path d="M4.96 1691.67 L27.21 1691.67 L27.21 1720.02 L17.69 1720.02" class="st5"/>
			<rect x="24.2473" y="1698.64" width="210.875" height="14.4001" class="st10"/>
			<text x="24.25" y="1709.44" class="st8">get switch ecmp/lag hash capabilities</text>		</g>
		<g id="shape1046-168" transform="translate(-704.713,619.161) rotate(-90)">
			<title>Activation.1046</title>
			<rect x="0" y="1683.17" width="481.89" height="8.50394" class="st9"/>
		</g>
		<g id="shape1047-170" transform="translate(986.957,-1391.41)">
			<title>Message.1047</title>
			<desc>sai_query_attribute_capability</desc>
			<path d="M0 1698.76 L361.44 1698.76" class="st5"/>
			<rect x="101.329" y="1691.56" width="167.264" height="14.4001" class="st10"/>
			<text x="101.33" y="1702.36" class="st8">sai_query_attribute_capability</text>		</g>
		<g id="shape1048-177" transform="translate(-326.288,335.96) rotate(-90)">
			<title>Activation.1048</title>
			<rect x="0" y="1683.17" width="28.6097" height="8.50394" class="st4"/>
		</g>
		<g id="shape1049-179" transform="translate(1356.88,-1348.75)">
			<title>Return Message.1049</title>
			<desc>return &#60;status&#62;</desc>
			<path d="M0 1684.71 L-369.92 1684.45" class="st11"/>
			<rect x="-229.524" y="1677.38" width="89.1277" height="14.4001" class="st10"/>
			<text x="-229.52" y="1688.18" class="st8">return &#60;status&#62;</text>		</g>
		<g id="shape1050-186" transform="translate(986.957,-1178.81)">
			<title>Message.1050</title>
			<desc>sai_query_attribute_enum_values_capability</desc>
			<path d="M0 1698.76 L361.44 1698.76" class="st5"/>
			<rect x="62.6449" y="1691.56" width="244.632" height="14.4001" class="st7"/>
			<text x="62.64" y="1702.36" class="st8">sai_query_attribute_enum_values_capability</text>		</g>
		<g id="shape1051-193" transform="translate(-326.288,548.295) rotate(-90)">
			<title>Activation.1051</title>
			<rect x="0" y="1683.17" width="28.3464" height="8.50394" class="st4"/>
		</g>
		<g id="shape1052-195" transform="translate(1356.88,-1150.46)">
			<title>Return Message.1052</title>
			<desc>return &#60;status&#62;</desc>
			<path d="M0 1698.76 L-369.92 1698.76" class="st11"/>
			<rect x="-229.524" y="1691.56" width="89.1277" height="14.4001" class="st10"/>
			<text x="-229.52" y="1702.36" class="st8">return &#60;status&#62;</text>		</g>
		<g id="group1053-202" transform="translate(921.76,-52.036)">
			<title>Optional fragment.1059</title>
			<g id="shape1053-203">
				<rect x="0" y="1238.13" width="496.063" height="453.543" class="st13"/>
			</g>
			<g id="shape1054-205" transform="translate(0,-431.14)">
				<title>Sheet.1054</title>
				<desc>opt</desc>
				<path d="M0 1691.67 L88.91 1691.67 L96 1684.58 L96 1669.27 L0 1669.27 L0 1691.67 Z" class="st13"/>
				<text x="4" y="1684.07" class="st14">opt</text>			</g>
			<g id="shape1055-208" transform="translate(0,-408.736)">
				<title>Sheet.1055</title>
				<desc>capability is validated</desc>
				<text x="179.45" y="1684.07" class="st15">capability is validated</text>			</g>
		</g>
		<g id="group1056-210" transform="translate(921.76,-1313.45)">
			<title>Loop fragment.1063</title>
			<g id="shape1056-211">
				<rect x="0" y="1479.73" width="496.063" height="211.937" class="st13"/>
			</g>
			<g id="shape1057-213" transform="translate(0,-189.534)">
				<title>Sheet.1057</title>
				<desc>query</desc>
				<path d="M0 1691.67 L88.91 1691.67 L96 1684.58 L96 1669.27 L0 1669.27 L0 1691.67 Z" class="st13"/>
				<text x="4" y="1684.07" class="st14">query</text>			</g>
		</g>
		<g id="group1059-216" transform="translate(921.76,-1100.85)">
			<title>Loop fragment.1066</title>
			<g id="shape1059-217">
				<rect x="0" y="1507.42" width="496.063" height="184.252" class="st13"/>
			</g>
			<g id="shape1060-219" transform="translate(0,-161.848)">
				<title>Sheet.1060</title>
				<desc>query</desc>
				<path d="M0 1691.67 L88.91 1691.67 L96 1684.58 L96 1669.27 L0 1669.27 L0 1691.67 Z" class="st13"/>
				<text x="4" y="1684.07" class="st14">query</text>			</g>
		</g>
		<g id="group1062-222" transform="translate(624.122,-1611.09)">
			<title>Actor lifeline.1069</title>
			<desc>StateDB</desc>
			<g id="shape1063-223" transform="translate(17.0079,-8.50394)">
				<title>Sheet.1063</title>
				<rect x="0" y="1666.16" width="51.0236" height="25.5118" class="st1"/>
			</g>
			<g id="shape1064-225" transform="translate(34.0157,-46.063)">
				<title>Sheet.1064</title>
				<path d="M8.5 1691.67 a6.99441E-15 0 0 1 1 -1.42109E-14 0 a6.99441E-15 0 0 1 1 1.42109E-14 0 Z" class="st1"/>
			</g>
			<g id="shape1065-227" transform="translate(28.3465,1611.09)">
				<title>Sheet.1065</title>
			</g>
			<g id="shape1066-229" transform="translate(1734.19,1691.67) rotate(90)">
				<title>Sheet.1066</title>
				<path d="M0 1691.67 L1587.4 1691.67" class="st2"/>
			</g>
			<g id="shape1062-232">
				<rect x="0" y="1649.15" width="85.0394" height="42.5197" class="st1"/>
				<text x="19.74" y="1674.01" class="st3">StateDB</text>			</g>
		</g>
		<g id="shape1067-235" transform="translate(-708.965,874.28) rotate(-90)">
			<title>Activation.1074</title>
			<rect x="0" y="1683.17" width="198.425" height="8.50394" class="st4"/>
		</g>
		<g id="shape1068-237" transform="translate(977.744,-1015.82)">
			<title>Self Message.1075</title>
			<desc>push switch ecmp/lag hash capabilities to DB</desc>
			<path d="M4.96 1691.67 L27.21 1691.67 L27.21 1720.02 L17.69 1720.02" class="st5"/>
			<rect x="23.6166" y="1698.64" width="254.657" height="14.4001" class="st7"/>
			<text x="23.62" y="1709.44" class="st8">push switch ecmp/lag hash capabilities to DB</text>		</g>
		<g id="shape1069-244" transform="translate(-704.713,845.933) rotate(-90)">
			<title>Activation.1076</title>
			<rect x="0" y="1683.17" width="141.732" height="8.50394" class="st9"/>
		</g>
		<g id="shape1070-246" transform="translate(974.201,-937.333)">
			<title>Message.1077</title>
			<desc>HMSET SWITCH_CAPABILITY|switch</desc>
			<path d="M0 1685.11 L-294.83 1684.08" class="st5"/>
			<rect x="-253.015" y="1677.38" width="202.724" height="14.4001" class="st7"/>
			<text x="-253.02" y="1688.18" class="st8">HMSET SWITCH_CAPABILITY|switch</text>		</g>
		<g id="shape1071-253" transform="translate(-1020.78,803.413) rotate(-90)">
			<title>Activation.1078</title>
			<rect x="0" y="1683.17" width="56.6929" height="8.50394" class="st4"/>
		</g>
		<g id="shape1072-255" transform="translate(670.894,-894.814)">
			<title>Return Message.1079</title>
			<path d="M0 1698.23 L303.31 1699.29" class="st11"/>
		</g>
		<g id="shape1073-260" transform="translate(1006.8,-1412.67)">
			<title>Sheet.1073</title>
			<desc>SAI_SWITCH_ATTR_ECMP_HASH SAI_SWITCH_ATTR_LAG_HASH SAI_HASH_A...</desc>
			<rect x="0" y="1606.63" width="325.984" height="85.0394" class="st16"/>
			<text x="4" y="1623.95" class="st15">SAI_SWITCH_ATTR_ECMP_HASH <tspan x="4" dy="1.2em" class="st17">SAI_SWITCH_ATTR_LAG_HASH </tspan><tspan
						x="4" dy="1.2em" class="st17">SAI_HASH_ATTR_NATIVE_HASH_FIELD_LIST </tspan><tspan x="4" dy="1.2em"
						class="st17">SAI_SWITCH_ATTR_ECMP_DEFAULT_HASH_ALGORITHM </tspan><tspan x="4" dy="1.2em" class="st17">SAI_SWITCH_ATTR_LAG_DEFAULT_HASH_ALGORITHM</tspan></text>		</g>
		<g id="shape1074-267" transform="translate(1006.8,-1200.07)">
			<title>Sheet.1074</title>
			<desc>SAI_HASH_ATTR_NATIVE_HASH_FIELD_LIST SAI_SWITCH_ATTR_ECMP_DEF...</desc>
			<rect x="0" y="1634.98" width="325.984" height="56.6929" class="st16"/>
			<text x="4" y="1652.52" class="st15">SAI_HASH_ATTR_NATIVE_HASH_FIELD_LIST <tspan x="4" dy="1.2em" class="st17">SAI_SWITCH_ATTR_ECMP_DEFAULT_HASH_ALGORITHM </tspan><tspan
						x="4" dy="1.2em" class="st17">SAI_SWITCH_ATTR_LAG_DEFAULT_HASH_ALGORITHM</tspan></text>		</g>
		<g id="shape1075-272" transform="translate(-708.965,1611.29) rotate(-90)">
			<title>Activation.1084</title>
			<rect x="0" y="1683.17" width="170.079" height="8.50394" class="st4"/>
		</g>
		<g id="shape1076-274" transform="translate(977.744,-250.461)">
			<title>Self Message.1085</title>
			<desc>set switch ecmp/lag hash algorithm</desc>
			<path d="M4.96 1691.67 L27.21 1691.67 L27.21 1720.02 L17.69 1720.02" class="st5"/>
			<rect x="24.7541" y="1698.64" width="200.791" height="14.4001" class="st7"/>
			<text x="24.75" y="1709.44" class="st8">set switch ecmp/lag hash algorithm</text>		</g>
		<g id="shape1077-281" transform="translate(-704.713,1582.94) rotate(-90)">
			<title>Activation.1086</title>
			<rect x="0" y="1683.17" width="113.386" height="8.50394" class="st9"/>
		</g>
		<g id="shape1078-283" transform="translate(986.957,-186.682)">
			<title>Message.1087</title>
			<desc>set_switch_attribute</desc>
			<path d="M0 1684.58 L361.44 1684.58" class="st5"/>
			<rect x="128.88" y="1677.38" width="112.161" height="14.4001" class="st7"/>
			<text x="128.88" y="1688.18" class="st8">set_switch_attribute</text>		</g>
		<g id="shape1079-290" transform="translate(-326.288,1554.59) rotate(-90)">
			<title>Activation.1088</title>
			<rect x="0" y="1683.17" width="56.6929" height="8.50394" class="st4"/>
		</g>
		<g id="shape1080-292" transform="translate(1356.88,-129.989)">
			<title>Return Message.1089</title>
			<desc>return &#60;status&#62;</desc>
			<path d="M0 1684.58 L-369.92 1684.58" class="st11"/>
			<rect x="-229.524" y="1677.38" width="89.1277" height="14.4001" class="st7"/>
			<text x="-229.52" y="1688.18" class="st8">return &#60;status&#62;</text>		</g>
	</g>
</svg>
