<svg id="diagram-svg" width="1072.5" xmlns="http://www.w3.org/2000/svg" height="2502" viewBox="-140 -10 1072.5 2502" role="graphics-document document" aria-roledescription="sequence"><g><rect x="649.5" y="2416" fill="#eaeaea" stroke="#666" width="166" height="65" name="D" rx="3" ry="3" class="actor actor-bottom"></rect><text x="732.5" y="2448.5" dominant-baseline="central" alignment-baseline="central" class="actor actor-box" style="text-anchor: middle; font-size: 16px; font-weight: 400;"><tspan x="732.5" dy="0">Dependency owners</tspan></text></g><g><rect x="340" y="2416" fill="#eaeaea" stroke="#666" width="150" height="65" name="O" rx="3" ry="3" class="actor actor-bottom"></rect><text x="415" y="2448.5" dominant-baseline="central" alignment-baseline="central" class="actor actor-box" style="text-anchor: middle; font-size: 16px; font-weight: 400;"><tspan x="415" dy="0">IntfsOrch</tspan></text></g><g><rect x="0" y="2416" fill="#eaeaea" stroke="#666" width="150" height="65" name="M" rx="3" ry="3" class="actor actor-bottom"></rect><text x="75" y="2448.5" dominant-baseline="central" alignment-baseline="central" class="actor actor-box" style="text-anchor: middle; font-size: 16px; font-weight: 400;"><tspan x="75" dy="0">IntfMgr</tspan></text></g><g><line id="actor2" x1="732.5" y1="65" x2="732.5" y2="2416" class="actor-line 200" stroke-width="0.5px" stroke="#999" name="D"></line><g id="root-2"><rect x="649.5" y="0" fill="#eaeaea" stroke="#666" width="166" height="65" name="D" rx="3" ry="3" class="actor actor-top"></rect><text x="732.5" y="32.5" dominant-baseline="central" alignment-baseline="central" class="actor actor-box" style="text-anchor: middle; font-size: 16px; font-weight: 400;"><tspan x="732.5" dy="0">Dependency owners</tspan></text></g></g><g><line id="actor1" x1="415" y1="65" x2="415" y2="2416" class="actor-line 200" stroke-width="0.5px" stroke="#999" name="O"></line><g id="root-1"><rect x="340" y="0" fill="#eaeaea" stroke="#666" width="150" height="65" name="O" rx="3" ry="3" class="actor actor-top"></rect><text x="415" y="32.5" dominant-baseline="central" alignment-baseline="central" class="actor actor-box" style="text-anchor: middle; font-size: 16px; font-weight: 400;"><tspan x="415" dy="0">IntfsOrch</tspan></text></g></g><g><line id="actor0" x1="75" y1="65" x2="75" y2="2416" class="actor-line 200" stroke-width="0.5px" stroke="#999" name="M"></line><g id="root-0"><rect x="0" y="0" fill="#eaeaea" stroke="#666" width="150" height="65" name="M" rx="3" ry="3" class="actor actor-top"></rect><text x="75" y="32.5" dominant-baseline="central" alignment-baseline="central" class="actor actor-box" style="text-anchor: middle; font-size: 16px; font-weight: 400;"><tspan x="75" dy="0">IntfMgr</tspan></text></g></g><style>#diagram-svg{font-family:"trebuchet ms",verdana,arial,sans-serif;font-size:16px;fill:#333;}@keyframes edge-animation-frame{from{stroke-dashoffset:0;}}@keyframes dash{to{stroke-dashoffset:0;}}#diagram-svg .edge-animation-slow{stroke-dasharray:9,5!important;stroke-dashoffset:900;animation:dash 50s linear infinite;stroke-linecap:round;}#diagram-svg .edge-animation-fast{stroke-dasharray:9,5!important;stroke-dashoffset:900;animation:dash 20s linear infinite;stroke-linecap:round;}#diagram-svg .error-icon{fill:#552222;}#diagram-svg .error-text{fill:#552222;stroke:#552222;}#diagram-svg .edge-thickness-normal{stroke-width:1px;}#diagram-svg .edge-thickness-thick{stroke-width:3.5px;}#diagram-svg .edge-pattern-solid{stroke-dasharray:0;}#diagram-svg .edge-thickness-invisible{stroke-width:0;fill:none;}#diagram-svg .edge-pattern-dashed{stroke-dasharray:3;}#diagram-svg .edge-pattern-dotted{stroke-dasharray:2;}#diagram-svg .marker{fill:#333333;stroke:#333333;}#diagram-svg .marker.cross{stroke:#333333;}#diagram-svg svg{font-family:"trebuchet ms",verdana,arial,sans-serif;font-size:16px;}#diagram-svg p{margin:0;}#diagram-svg .actor{stroke:hsl(259.6261682243, 59.7765363128%, 87.9019607843%);fill:#ECECFF;}#diagram-svg text.actor&gt;tspan{fill:black;stroke:none;}#diagram-svg .actor-line{stroke:hsl(259.6261682243, 59.7765363128%, 87.9019607843%);}#diagram-svg .innerArc{stroke-width:1.5;stroke-dasharray:none;}#diagram-svg .messageLine0{stroke-width:1.5;stroke-dasharray:none;stroke:#333;}#diagram-svg .messageLine1{stroke-width:1.5;stroke-dasharray:2,2;stroke:#333;}#diagram-svg #arrowhead path{fill:#333;stroke:#333;}#diagram-svg .sequenceNumber{fill:white;}#diagram-svg #sequencenumber{fill:#333;}#diagram-svg #crosshead path{fill:#333;stroke:#333;}#diagram-svg .messageText{fill:#333;stroke:none;}#diagram-svg .labelBox{stroke:hsl(259.6261682243, 59.7765363128%, 87.9019607843%);fill:#ECECFF;}#diagram-svg .labelText,#diagram-svg .labelText&gt;tspan{fill:black;stroke:none;}#diagram-svg .loopText,#diagram-svg .loopText&gt;tspan{fill:black;stroke:none;}#diagram-svg .loopLine{stroke-width:2px;stroke-dasharray:2,2;stroke:hsl(259.6261682243, 59.7765363128%, 87.9019607843%);fill:hsl(259.6261682243, 59.7765363128%, 87.9019607843%);}#diagram-svg .note{stroke:#aaaa33;fill:#fff5ad;}#diagram-svg .noteText,#diagram-svg .noteText&gt;tspan{fill:black;stroke:none;}#diagram-svg .activation0{fill:#f4f4f4;stroke:#666;}#diagram-svg .activation1{fill:#f4f4f4;stroke:#666;}#diagram-svg .activation2{fill:#f4f4f4;stroke:#666;}#diagram-svg .actorPopupMenu{position:absolute;}#diagram-svg .actorPopupMenuPanel{position:absolute;fill:#ECECFF;box-shadow:0px 8px 16px 0px rgba(0,0,0,0.2);filter:drop-shadow(3px 5px 2px rgb(0 0 0 / 0.4));}#diagram-svg .actor-man line{stroke:hsl(259.6261682243, 59.7765363128%, 87.9019607843%);fill:#ECECFF;}#diagram-svg .actor-man circle,#diagram-svg line{stroke:hsl(259.6261682243, 59.7765363128%, 87.9019607843%);fill:#ECECFF;stroke-width:2px;}#diagram-svg :root{--mermaid-font-family:"trebuchet ms",verdana,arial,sans-serif;}</style><g></g><defs><symbol id="computer" width="24" height="24"><path transform="scale(.5)" d="M2 2v13h20v-13h-20zm18 11h-16v-9h16v9zm-10.228 6l.466-1h3.524l.467 1h-4.457zm14.228 3h-24l2-6h2.104l-1.33 4h18.45l-1.297-4h2.073l2 6zm-5-10h-14v-7h14v7z"></path></symbol></defs><defs><symbol id="database" fill-rule="evenodd" clip-rule="evenodd"><path transform="scale(.5)" d="M12.258.001l.256.004.255.005.253.008.251.01.249.012.247.015.246.016.242.019.241.02.239.023.236.024.233.027.231.028.229.031.225.032.223.034.22.036.217.038.214.04.211.041.208.043.205.045.201.046.198.048.194.05.191.051.187.053.183.054.18.056.175.057.172.059.168.06.163.061.16.063.155.064.15.066.074.033.073.033.071.034.07.034.069.035.068.035.067.035.066.035.064.036.064.036.062.036.06.036.06.037.058.037.058.037.055.038.055.038.053.038.052.038.051.039.05.039.048.039.047.039.045.04.044.04.043.04.041.04.04.041.039.041.037.041.036.041.034.041.033.042.032.042.03.042.029.042.027.042.026.043.024.043.023.043.021.043.02.043.018.044.017.043.015.044.013.044.012.044.011.045.009.044.007.045.006.045.004.045.002.045.001.045v17l-.001.045-.002.045-.004.045-.006.045-.007.045-.009.044-.011.045-.012.044-.013.044-.015.044-.017.043-.018.044-.02.043-.021.043-.023.043-.024.043-.026.043-.027.042-.029.042-.03.042-.032.042-.033.042-.034.041-.036.041-.037.041-.039.041-.04.041-.041.04-.043.04-.044.04-.045.04-.047.039-.048.039-.05.039-.051.039-.052.038-.053.038-.055.038-.055.038-.058.037-.058.037-.06.037-.06.036-.062.036-.064.036-.064.036-.066.035-.067.035-.068.035-.069.035-.07.034-.071.034-.073.033-.074.033-.15.066-.155.064-.16.063-.163.061-.168.06-.172.059-.175.057-.18.056-.183.054-.187.053-.191.051-.194.05-.198.048-.201.046-.205.045-.208.043-.211.041-.214.04-.217.038-.22.036-.223.034-.225.032-.229.031-.231.028-.233.027-.236.024-.239.023-.241.02-.242.019-.246.016-.247.015-.249.012-.251.01-.253.008-.255.005-.256.004-.258.001-.258-.001-.256-.004-.255-.005-.253-.008-.251-.01-.249-.012-.247-.015-.245-.016-.243-.019-.241-.02-.238-.023-.236-.024-.234-.027-.231-.028-.228-.031-.226-.032-.223-.034-.22-.036-.217-.038-.214-.04-.211-.041-.208-.043-.204-.045-.201-.046-.198-.048-.195-.05-.19-.051-.187-.053-.184-.054-.179-.056-.176-.057-.172-.059-.167-.06-.164-.061-.159-.063-.155-.064-.151-.066-.074-.033-.072-.033-.072-.034-.07-.034-.069-.035-.068-.035-.067-.035-.066-.035-.064-.036-.063-.036-.062-.036-.061-.036-.06-.037-.058-.037-.057-.037-.056-.038-.055-.038-.053-.038-.052-.038-.051-.039-.049-.039-.049-.039-.046-.039-.046-.04-.044-.04-.043-.04-.041-.04-.04-.041-.039-.041-.037-.041-.036-.041-.034-.041-.033-.042-.032-.042-.03-.042-.029-.042-.027-.042-.026-.043-.024-.043-.023-.043-.021-.043-.02-.043-.018-.044-.017-.043-.015-.044-.013-.044-.012-.044-.011-.045-.009-.044-.007-.045-.006-.045-.004-.045-.002-.045-.001-.045v-17l.001-.045.002-.045.004-.045.006-.045.007-.045.009-.044.011-.045.012-.044.013-.044.015-.044.017-.043.018-.044.02-.043.021-.043.023-.043.024-.043.026-.043.027-.042.029-.042.03-.042.032-.042.033-.042.034-.041.036-.041.037-.041.039-.041.04-.041.041-.04.043-.04.044-.04.046-.04.046-.039.049-.039.049-.039.051-.039.052-.038.053-.038.055-.038.056-.038.057-.037.058-.037.06-.037.061-.036.062-.036.063-.036.064-.036.066-.035.067-.035.068-.035.069-.035.07-.034.072-.034.072-.033.074-.033.151-.066.155-.064.159-.063.164-.061.167-.06.172-.059.176-.057.179-.056.184-.054.187-.053.19-.051.195-.05.198-.048.201-.046.204-.045.208-.043.211-.041.214-.04.217-.038.22-.036.223-.034.226-.032.228-.031.231-.028.234-.027.236-.024.238-.023.241-.02.243-.019.245-.016.247-.015.249-.012.251-.01.253-.008.255-.005.256-.004.258-.001.258.001zm-9.258 20.499v.01l.001.021.003.021.004.022.005.021.006.022.007.022.009.023.01.022.011.023.012.023.013.023.015.023.016.024.017.023.018.024.019.024.021.024.022.025.023.024.024.025.052.049.056.05.061.051.066.051.07.051.075.051.079.052.084.052.088.052.092.052.097.052.102.051.105.052.11.052.114.051.119.051.123.051.127.05.131.05.135.05.139.048.144.049.147.047.152.047.155.047.16.045.163.045.167.043.171.043.176.041.178.041.183.039.187.039.19.037.194.035.197.035.202.033.204.031.209.03.212.029.216.027.219.025.222.024.226.021.23.02.233.018.236.016.24.015.243.012.246.01.249.008.253.005.256.004.259.001.26-.001.257-.004.254-.005.25-.008.247-.011.244-.012.241-.014.237-.016.233-.018.231-.021.226-.021.224-.024.22-.026.216-.027.212-.028.21-.031.205-.031.202-.034.198-.034.194-.036.191-.037.187-.039.183-.04.179-.04.175-.042.172-.043.168-.044.163-.045.16-.046.155-.046.152-.047.148-.048.143-.049.139-.049.136-.05.131-.05.126-.05.123-.051.118-.052.114-.051.11-.052.106-.052.101-.052.096-.052.092-.052.088-.053.083-.051.079-.052.074-.052.07-.051.065-.051.06-.051.056-.05.051-.05.023-.024.023-.025.021-.024.02-.024.019-.024.018-.024.017-.024.015-.023.014-.024.013-.023.012-.023.01-.023.01-.022.008-.022.006-.022.006-.022.004-.022.004-.021.001-.021.001-.021v-4.127l-.077.055-.08.053-.083.054-.085.053-.087.052-.09.052-.093.051-.095.05-.097.05-.1.049-.102.049-.105.048-.106.047-.109.047-.111.046-.114.045-.115.045-.118.044-.12.043-.122.042-.124.042-.126.041-.128.04-.13.04-.132.038-.134.038-.135.037-.138.037-.139.035-.142.035-.143.034-.144.033-.147.032-.148.031-.15.03-.151.03-.153.029-.154.027-.156.027-.158.026-.159.025-.161.024-.162.023-.163.022-.165.021-.166.02-.167.019-.169.018-.169.017-.171.016-.173.015-.173.014-.175.013-.175.012-.177.011-.178.01-.179.008-.179.008-.181.006-.182.005-.182.004-.184.003-.184.002h-.37l-.184-.002-.184-.003-.182-.004-.182-.005-.181-.006-.179-.008-.179-.008-.178-.01-.176-.011-.176-.012-.175-.013-.173-.014-.172-.015-.171-.016-.17-.017-.169-.018-.167-.019-.166-.02-.165-.021-.163-.022-.162-.023-.161-.024-.159-.025-.157-.026-.156-.027-.155-.027-.153-.029-.151-.03-.15-.03-.148-.031-.146-.032-.145-.033-.143-.034-.141-.035-.14-.035-.137-.037-.136-.037-.134-.038-.132-.038-.13-.04-.128-.04-.126-.041-.124-.042-.122-.042-.12-.044-.117-.043-.116-.045-.113-.045-.112-.046-.109-.047-.106-.047-.105-.048-.102-.049-.1-.049-.097-.05-.095-.05-.093-.052-.09-.051-.087-.052-.085-.053-.083-.054-.08-.054-.077-.054v4.127zm0-5.654v.011l.001.021.003.021.004.021.005.022.006.022.007.022.009.022.01.022.011.023.012.023.013.023.015.024.016.023.017.024.018.024.019.024.021.024.022.024.023.025.024.024.052.05.056.05.061.05.066.051.07.051.075.052.079.051.084.052.088.052.092.052.097.052.102.052.105.052.11.051.114.051.119.052.123.05.127.051.131.05.135.049.139.049.144.048.147.048.152.047.155.046.16.045.163.045.167.044.171.042.176.042.178.04.183.04.187.038.19.037.194.036.197.034.202.033.204.032.209.03.212.028.216.027.219.025.222.024.226.022.23.02.233.018.236.016.24.014.243.012.246.01.249.008.253.006.256.003.259.001.26-.001.257-.003.254-.006.25-.008.247-.01.244-.012.241-.015.237-.016.233-.018.231-.02.226-.022.224-.024.22-.025.216-.027.212-.029.21-.03.205-.032.202-.033.198-.035.194-.036.191-.037.187-.039.183-.039.179-.041.175-.042.172-.043.168-.044.163-.045.16-.045.155-.047.152-.047.148-.048.143-.048.139-.05.136-.049.131-.05.126-.051.123-.051.118-.051.114-.052.11-.052.106-.052.101-.052.096-.052.092-.052.088-.052.083-.052.079-.052.074-.051.07-.052.065-.051.06-.05.056-.051.051-.049.023-.025.023-.024.021-.025.02-.024.019-.024.018-.024.017-.024.015-.023.014-.023.013-.024.012-.022.01-.023.01-.023.008-.022.006-.022.006-.022.004-.021.004-.022.001-.021.001-.021v-4.139l-.077.054-.08.054-.083.054-.085.052-.087.053-.09.051-.093.051-.095.051-.097.05-.1.049-.102.049-.105.048-.106.047-.109.047-.111.046-.114.045-.115.044-.118.044-.12.044-.122.042-.124.042-.126.041-.128.04-.13.039-.132.039-.134.038-.135.037-.138.036-.139.036-.142.035-.143.033-.144.033-.147.033-.148.031-.15.03-.151.03-.153.028-.154.028-.156.027-.158.026-.159.025-.161.024-.162.023-.163.022-.165.021-.166.02-.167.019-.169.018-.169.017-.171.016-.173.015-.173.014-.175.013-.175.012-.177.011-.178.009-.179.009-.179.007-.181.007-.182.005-.182.004-.184.003-.184.002h-.37l-.184-.002-.184-.003-.182-.004-.182-.005-.181-.007-.179-.007-.179-.009-.178-.009-.176-.011-.176-.012-.175-.013-.173-.014-.172-.015-.171-.016-.17-.017-.169-.018-.167-.019-.166-.02-.165-.021-.163-.022-.162-.023-.161-.024-.159-.025-.157-.026-.156-.027-.155-.028-.153-.028-.151-.03-.15-.03-.148-.031-.146-.033-.145-.033-.143-.033-.141-.035-.14-.036-.137-.036-.136-.037-.134-.038-.132-.039-.13-.039-.128-.04-.126-.041-.124-.042-.122-.043-.12-.043-.117-.044-.116-.044-.113-.046-.112-.046-.109-.046-.106-.047-.105-.048-.102-.049-.1-.049-.097-.05-.095-.051-.093-.051-.09-.051-.087-.053-.085-.052-.083-.054-.08-.054-.077-.054v4.139zm0-5.666v.011l.001.02.003.022.004.021.005.022.006.021.007.022.009.023.01.022.011.023.012.023.013.023.015.023.016.024.017.024.018.023.019.024.021.025.022.024.023.024.024.025.052.05.056.05.061.05.066.051.07.051.075.052.079.051.084.052.088.052.092.052.097.052.102.052.105.051.11.052.114.051.119.051.123.051.127.05.131.05.135.05.139.049.144.048.147.048.152.047.155.046.16.045.163.045.167.043.171.043.176.042.178.04.183.04.187.038.19.037.194.036.197.034.202.033.204.032.209.03.212.028.216.027.219.025.222.024.226.021.23.02.233.018.236.017.24.014.243.012.246.01.249.008.253.006.256.003.259.001.26-.001.257-.003.254-.006.25-.008.247-.01.244-.013.241-.014.237-.016.233-.018.231-.02.226-.022.224-.024.22-.025.216-.027.212-.029.21-.03.205-.032.202-.033.198-.035.194-.036.191-.037.187-.039.183-.039.179-.041.175-.042.172-.043.168-.044.163-.045.16-.045.155-.047.152-.047.148-.048.143-.049.139-.049.136-.049.131-.051.126-.05.123-.051.118-.052.114-.051.11-.052.106-.052.101-.052.096-.052.092-.052.088-.052.083-.052.079-.052.074-.052.07-.051.065-.051.06-.051.056-.05.051-.049.023-.025.023-.025.021-.024.02-.024.019-.024.018-.024.017-.024.015-.023.014-.024.013-.023.012-.023.01-.022.01-.023.008-.022.006-.022.006-.022.004-.022.004-.021.001-.021.001-.021v-4.153l-.077.054-.08.054-.083.053-.085.053-.087.053-.09.051-.093.051-.095.051-.097.05-.1.049-.102.048-.105.048-.106.048-.109.046-.111.046-.114.046-.115.044-.118.044-.12.043-.122.043-.124.042-.126.041-.128.04-.13.039-.132.039-.134.038-.135.037-.138.036-.139.036-.142.034-.143.034-.144.033-.147.032-.148.032-.15.03-.151.03-.153.028-.154.028-.156.027-.158.026-.159.024-.161.024-.162.023-.163.023-.165.021-.166.02-.167.019-.169.018-.169.017-.171.016-.173.015-.173.014-.175.013-.175.012-.177.01-.178.01-.179.009-.179.007-.181.006-.182.006-.182.004-.184.003-.184.001-.185.001-.185-.001-.184-.001-.184-.003-.182-.004-.182-.006-.181-.006-.179-.007-.179-.009-.178-.01-.176-.01-.176-.012-.175-.013-.173-.014-.172-.015-.171-.016-.17-.017-.169-.018-.167-.019-.166-.02-.165-.021-.163-.023-.162-.023-.161-.024-.159-.024-.157-.026-.156-.027-.155-.028-.153-.028-.151-.03-.15-.03-.148-.032-.146-.032-.145-.033-.143-.034-.141-.034-.14-.036-.137-.036-.136-.037-.134-.038-.132-.039-.13-.039-.128-.041-.126-.041-.124-.041-.122-.043-.12-.043-.117-.044-.116-.044-.113-.046-.112-.046-.109-.046-.106-.048-.105-.048-.102-.048-.1-.05-.097-.049-.095-.051-.093-.051-.09-.052-.087-.052-.085-.053-.083-.053-.08-.054-.077-.054v4.153zm8.74-8.179l-.257.004-.254.005-.25.008-.247.011-.244.012-.241.014-.237.016-.233.018-.231.021-.226.022-.224.023-.22.026-.216.027-.212.028-.21.031-.205.032-.202.033-.198.034-.194.036-.191.038-.187.038-.183.04-.179.041-.175.042-.172.043-.168.043-.163.045-.16.046-.155.046-.152.048-.148.048-.143.048-.139.049-.136.05-.131.05-.126.051-.123.051-.118.051-.114.052-.11.052-.106.052-.101.052-.096.052-.092.052-.088.052-.083.052-.079.052-.074.051-.07.052-.065.051-.06.05-.056.05-.051.05-.023.025-.023.024-.021.024-.02.025-.019.024-.018.024-.017.023-.015.024-.014.023-.013.023-.012.023-.01.023-.01.022-.008.022-.006.023-.006.021-.004.022-.004.021-.001.021-.001.021.001.021.001.021.004.021.004.022.006.021.006.023.008.022.01.022.01.023.012.023.013.023.014.023.015.024.017.023.018.024.019.024.02.025.021.024.023.024.023.025.051.05.056.05.06.05.065.051.07.052.074.051.079.052.083.052.088.052.092.052.096.052.101.052.106.052.11.052.114.052.118.051.123.051.126.051.131.05.136.05.139.049.143.048.148.048.152.048.155.046.16.046.163.045.168.043.172.043.175.042.179.041.183.04.187.038.191.038.194.036.198.034.202.033.205.032.21.031.212.028.216.027.22.026.224.023.226.022.231.021.233.018.237.016.241.014.244.012.247.011.25.008.254.005.257.004.26.001.26-.001.257-.004.254-.005.25-.008.247-.011.244-.012.241-.014.237-.016.233-.018.231-.021.226-.022.224-.023.22-.026.216-.027.212-.028.21-.031.205-.032.202-.033.198-.034.194-.036.191-.038.187-.038.183-.04.179-.041.175-.042.172-.043.168-.043.163-.045.16-.046.155-.046.152-.048.148-.048.143-.048.139-.049.136-.05.131-.05.126-.051.123-.051.118-.051.114-.052.11-.052.106-.052.101-.052.096-.052.092-.052.088-.052.083-.052.079-.052.074-.051.07-.052.065-.051.06-.05.056-.05.051-.05.023-.025.023-.024.021-.024.02-.025.019-.024.018-.024.017-.023.015-.024.014-.023.013-.023.012-.023.01-.023.01-.022.008-.022.006-.023.006-.021.004-.022.004-.021.001-.021.001-.021-.001-.021-.001-.021-.004-.021-.004-.022-.006-.021-.006-.023-.008-.022-.01-.022-.01-.023-.012-.023-.013-.023-.014-.023-.015-.024-.017-.023-.018-.024-.019-.024-.02-.025-.021-.024-.023-.024-.023-.025-.051-.05-.056-.05-.06-.05-.065-.051-.07-.052-.074-.051-.079-.052-.083-.052-.088-.052-.092-.052-.096-.052-.101-.052-.106-.052-.11-.052-.114-.052-.118-.051-.123-.051-.126-.051-.131-.05-.136-.05-.139-.049-.143-.048-.148-.048-.152-.048-.155-.046-.16-.046-.163-.045-.168-.043-.172-.043-.175-.042-.179-.041-.183-.04-.187-.038-.191-.038-.194-.036-.198-.034-.202-.033-.205-.032-.21-.031-.212-.028-.216-.027-.22-.026-.224-.023-.226-.022-.231-.021-.233-.018-.237-.016-.241-.014-.244-.012-.247-.011-.25-.008-.254-.005-.257-.004-.26-.001-.26.001z"></path></symbol></defs><defs><symbol id="clock" width="24" height="24"><path transform="scale(.5)" d="M12 2c5.514 0 10 4.486 10 10s-4.486 10-10 10-10-4.486-10-10 4.486-10 10-10zm0-2c-6.627 0-12 5.373-12 12s5.373 12 12 12 12-5.373 12-12-5.373-12-12-12zm5.848 12.459c.202.038.202.333.001.372-1.907.361-6.045 1.111-6.547 1.111-.719 0-1.301-.582-1.301-1.301 0-.512.77-5.447 1.125-7.445.034-.192.312-.181.343.014l.985 6.238 5.394 1.011z"></path></symbol></defs><defs><marker id="arrowhead" refX="7.9" refY="5" markerUnits="userSpaceOnUse" markerWidth="12" markerHeight="12" orient="auto-start-reverse"><path d="M -1 0 L 10 5 L 0 10 z"></path></marker></defs><defs><marker id="crosshead" markerWidth="15" markerHeight="8" orient="auto" refX="4" refY="4.5"><path fill="none" stroke="#000000" stroke-width="1pt" d="M 1,2 L 6,7 M 6,2 L 1,7" style="stroke-dasharray: 0, 0;"></path></marker></defs><defs><marker id="filled-head" refX="15.5" refY="7" markerWidth="20" markerHeight="28" orient="auto"><path d="M 18,7 L9,13 L14,7 L9,1 Z"></path></marker></defs><defs><marker id="sequencenumber" refX="15" refY="15" markerWidth="60" markerHeight="40" orient="auto"><circle cx="15" cy="15" r="6"></circle></marker></defs><g><rect x="50" y="75" fill="#EDF2AE" stroke="#666" width="707.5" height="58" class="note"></rect><text x="404" y="80" text-anchor="middle" dominant-baseline="middle" alignment-baseline="middle" class="noteText" dy="1em" style="font-size: 16px; font-weight: 400;"><tspan x="404">Start: Linux interface detached; no old RIF.</tspan></text><text x="404" y="99" text-anchor="middle" dominant-baseline="middle" alignment-baseline="middle" class="noteText" dy="1em" style="font-size: 16px; font-weight: 400;"><tspan x="404">VrfBlue exists. Guard inactive.</tspan></text></g><g><rect x="50" y="143" fill="#EDF2AE" stroke="#666" width="707.5" height="58" class="note"></rect><text x="404" y="148" text-anchor="middle" dominant-baseline="middle" alignment-baseline="middle" class="noteText" dy="1em" style="font-size: 16px; font-weight: 400;"><tspan x="404">CLI returns after saving the configuration.</tspan></text><text x="404" y="167" text-anchor="middle" dominant-baseline="middle" alignment-baseline="middle" class="noteText" dy="1em" style="font-size: 16px; font-weight: 400;"><tspan x="404">The old recorded interface state is already absent.</tspan></text></g><g><line x1="-90" y1="211" x2="242" y2="211" class="loopLine"></line><line x1="242" y1="211" x2="242" y2="374" class="loopLine"></line><line x1="-90" y1="374" x2="242" y2="374" class="loopLine"></line><line x1="-90" y1="211" x2="-90" y2="374" class="loopLine"></line><polygon points="-90,211 -40,211 -40,224 -48.4,231 -90,231" class="labelBox"></polygon><text x="-65" y="224" text-anchor="middle" dominant-baseline="middle" alignment-baseline="middle" class="labelText" style="font-size: 16px; font-weight: 400;">loop</text><text x="101" y="229" text-anchor="middle" class="loopText" style="font-size: 16px; font-weight: 400;"><tspan x="101">[While interface or VrfBlue state is</tspan></text><text x="101" y="248" text-anchor="middle" class="loopText" style="font-size: 16px; font-weight: 400;"><tspan x="101">not ready]</tspan></text></g><g><line x1="309.5" y1="782" x2="522.5" y2="782" class="loopLine"></line><line x1="522.5" y1="782" x2="522.5" y2="962" class="loopLine"></line><line x1="309.5" y1="962" x2="522.5" y2="962" class="loopLine"></line><line x1="309.5" y1="782" x2="309.5" y2="962" class="loopLine"></line><polygon points="309.5,782 359.5,782 359.5,795 351.1,802 309.5,802" class="labelBox"></polygon><text x="335" y="795" text-anchor="middle" dominant-baseline="middle" alignment-baseline="middle" class="labelText" style="font-size: 16px; font-weight: 400;">opt</text><text x="441" y="800" text-anchor="middle" class="loopText" style="font-size: 16px; font-weight: 400;"><tspan x="441">[New interface work</tspan></text><text x="441" y="819" text-anchor="middle" class="loopText" style="font-size: 16px; font-weight: 400;"><tspan x="441">runs while the guard</tspan></text><text x="441" y="838" text-anchor="middle" class="loopText" style="font-size: 16px; font-weight: 400;"><tspan x="441">is active]</tspan></text></g><g><line x1="404" y1="972" x2="840" y2="972" class="loopLine"></line><line x1="840" y1="972" x2="840" y2="1223" class="loopLine"></line><line x1="404" y1="1223" x2="840" y2="1223" class="loopLine"></line><line x1="404" y1="972" x2="404" y2="1223" class="loopLine"></line><polygon points="404,972 454,972 454,985 445.6,992 404,992" class="labelBox"></polygon><text x="429" y="985" text-anchor="middle" dominant-baseline="middle" alignment-baseline="middle" class="labelText" style="font-size: 16px; font-weight: 400;">opt</text><text x="647" y="990" text-anchor="middle" class="loopText" style="font-size: 16px; font-weight: 400;"><tspan x="647">[Queued dependency work runs while</tspan></text><text x="647" y="1009" text-anchor="middle" class="loopText" style="font-size: 16px; font-weight: 400;"><tspan x="647">the guard is active]</tspan></text></g><g><line x1="286.5" y1="1233" x2="545.5" y2="1233" class="loopLine"></line><line x1="545.5" y1="1233" x2="545.5" y2="1456" class="loopLine"></line><line x1="286.5" y1="1456" x2="545.5" y2="1456" class="loopLine"></line><line x1="286.5" y1="1233" x2="286.5" y2="1456" class="loopLine"></line><polygon points="286.5,1233 336.5,1233 336.5,1246 328.1,1253 286.5,1253" class="labelBox"></polygon><text x="312" y="1246" text-anchor="middle" dominant-baseline="middle" alignment-baseline="middle" class="labelText" style="font-size: 16px; font-weight: 400;">loop</text><text x="441" y="1251" text-anchor="middle" class="loopText" style="font-size: 16px; font-weight: 400;"><tspan x="441">[While ports are not ready]</tspan></text></g><g><line x1="268" y1="1659" x2="564" y2="1659" class="loopLine"></line><line x1="564" y1="1659" x2="564" y2="1822" class="loopLine"></line><line x1="268" y1="1822" x2="564" y2="1822" class="loopLine"></line><line x1="268" y1="1659" x2="268" y2="1822" class="loopLine"></line><polygon points="268,1659 318,1659 318,1672 309.6,1679 268,1679" class="labelBox"></polygon><text x="293" y="1672" text-anchor="middle" dominant-baseline="middle" alignment-baseline="middle" class="labelText" style="font-size: 16px; font-weight: 400;">loop</text><text x="441" y="1677" text-anchor="middle" class="loopText" style="font-size: 16px; font-weight: 400;"><tspan x="441">[While ports or VrfBlue are not</tspan></text><text x="441" y="1696" text-anchor="middle" class="loopText" style="font-size: 16px; font-weight: 400;"><tspan x="441">ready]</tspan></text></g><g><rect x="50" y="1951" fill="#EDF2AE" stroke="#666" width="707.5" height="58" class="note"></rect><text x="404" y="1956" text-anchor="middle" dominant-baseline="middle" alignment-baseline="middle" class="noteText" dy="1em" style="font-size: 16px; font-weight: 400;"><tspan x="404">BIND complete: Linux interface and recorded interface state use VrfBlue.</tspan></text><text x="404" y="1975" text-anchor="middle" dominant-baseline="middle" alignment-baseline="middle" class="noteText" dy="1em" style="font-size: 16px; font-weight: 400;"><tspan x="404">Guard released; new RIF ready.</tspan></text></g><g><rect x="390" y="2078" fill="#EDF2AE" stroke="#666" width="367.5" height="77" class="note"></rect><text x="574" y="2083" text-anchor="middle" dominant-baseline="middle" alignment-baseline="middle" class="noteText" dy="1em" style="font-size: 16px; font-weight: 400;"><tspan x="574">Eligible neighbor: IP and usable MAC.</tspan></text><text x="574" y="2102" text-anchor="middle" dominant-baseline="middle" alignment-baseline="middle" class="noteText" dy="1em" style="font-size: 16px; font-weight: 400;"><tspan x="574">Address setup / learning as needed</tspan></text><text x="574" y="2121" text-anchor="middle" dominant-baseline="middle" alignment-baseline="middle" class="noteText" dy="1em" style="font-size: 16px; font-weight: 400;"><tspan x="574">is independently supplied.</tspan></text></g><g><rect x="390" y="2327" fill="#EDF2AE" stroke="#666" width="367.5" height="39" class="note"></rect><text x="574" y="2332" text-anchor="middle" dominant-baseline="middle" alignment-baseline="middle" class="noteText" dy="1em" style="font-size: 16px; font-weight: 400;"><tspan x="574">Optional neighbor and next hop ready.</tspan></text></g><g><line x1="380" y1="2019" x2="862.5" y2="2019" class="loopLine"></line><line x1="862.5" y1="2019" x2="862.5" y2="2376" class="loopLine"></line><line x1="380" y1="2376" x2="862.5" y2="2376" class="loopLine"></line><line x1="380" y1="2019" x2="380" y2="2376" class="loopLine"></line><polygon points="380,2019 430,2019 430,2032 421.6,2039 380,2039" class="labelBox"></polygon><text x="405" y="2032" text-anchor="middle" dominant-baseline="middle" alignment-baseline="middle" class="labelText" style="font-size: 16px; font-weight: 400;">opt</text><text x="646.25" y="2037" text-anchor="middle" class="loopText" style="font-size: 16px; font-weight: 400;"><tspan x="646.25">[Independently supplied eligible neighbor</tspan></text><text x="646.25" y="2056" text-anchor="middle" class="loopText" style="font-size: 16px; font-weight: 400;"><tspan x="646.25">work succeeds]</tspan></text></g><g><line x1="40" y1="1832" x2="872.5" y2="1832" class="loopLine"></line><line x1="872.5" y1="1832" x2="872.5" y2="2386" class="loopLine"></line><line x1="40" y1="2386" x2="872.5" y2="2386" class="loopLine"></line><line x1="40" y1="1832" x2="40" y2="2386" class="loopLine"></line><polygon points="40,1832 90,1832 90,1845 81.6,1852 40,1852" class="labelBox"></polygon><text x="65" y="1845" text-anchor="middle" dominant-baseline="middle" alignment-baseline="middle" class="labelText" style="font-size: 16px; font-weight: 400;">opt</text><text x="481.25" y="1850" text-anchor="middle" class="loopText" style="font-size: 16px; font-weight: 400;"><tspan x="481.25">[Port available and new RIF creation succeeds]</tspan></text></g><g><line x1="30" y1="1466" x2="882.5" y2="1466" class="loopLine"></line><line x1="882.5" y1="1466" x2="882.5" y2="2396" class="loopLine"></line><line x1="30" y1="2396" x2="882.5" y2="2396" class="loopLine"></line><line x1="30" y1="1466" x2="30" y2="2396" class="loopLine"></line><polygon points="30,1466 80,1466 80,1479 71.6,1486 30,1486" class="labelBox"></polygon><text x="55" y="1479" text-anchor="middle" dominant-baseline="middle" alignment-baseline="middle" class="labelText" style="font-size: 16px; font-weight: 400;">opt</text><text x="481.25" y="1484" text-anchor="middle" class="loopText" style="font-size: 16px; font-weight: 400;"><tspan x="481.25">[Ports ready and no old interface or RIF remains]</tspan></text></g><text x="76" y="275" text-anchor="middle" dominant-baseline="middle" alignment-baseline="middle" class="messageText" dy="1em" style="font-size: 16px; font-weight: 400;">Check interface and VrfBlue state readiness</text><path d="M 76,304 C 136,294 136,334 76,324" class="messageLine0" stroke-width="2" stroke="none" marker-end="url(#arrowhead)" style="fill: none;"></path><text x="244" y="389" text-anchor="middle" dominant-baseline="middle" alignment-baseline="middle" class="messageText" dy="1em" style="font-size: 16px; font-weight: 400;">Ask IntfsOrch to activate the guard</text><line x1="76" y1="418" x2="411" y2="418" class="messageLine0" stroke-width="2" stroke="none" marker-end="url(#arrowhead)" style="fill: none;"></line><text x="416" y="433" text-anchor="middle" dominant-baseline="middle" alignment-baseline="middle" class="messageText" dy="1em" style="font-size: 16px; font-weight: 400;">Set the guard active for this request</text><path d="M 416,462 C 476,452 476,492 416,482" class="messageLine0" stroke-width="2" stroke="none" marker-end="url(#arrowhead)" style="fill: none;"></path><text x="247" y="507" text-anchor="middle" dominant-baseline="middle" alignment-baseline="middle" class="messageText" dy="1em" style="font-size: 16px; font-weight: 400;">Confirm the guard is active</text><line x1="414" y1="536" x2="79" y2="536" class="messageLine1" stroke-width="2" stroke="none" marker-end="url(#arrowhead)" style="stroke-dasharray: 3, 3; fill: none;"></line><text x="76" y="551" text-anchor="middle" dominant-baseline="middle" alignment-baseline="middle" class="messageText" dy="1em" style="font-size: 16px; font-weight: 400;">Attach the Linux interface to VrfBlue</text><path d="M 76,580 C 136,570 136,610 76,600" class="messageLine0" stroke-width="2" stroke="none" marker-end="url(#arrowhead)" style="fill: none;"></path><text x="244" y="625" text-anchor="middle" dominant-baseline="middle" alignment-baseline="middle" class="messageText" dy="1em" style="font-size: 16px; font-weight: 400;">Request creation of the new interface</text><line x1="76" y1="654" x2="411" y2="654" class="messageLine0" stroke-width="2" stroke="none" marker-end="url(#arrowhead)" style="fill: none;"></line><text x="244" y="669" text-anchor="middle" dominant-baseline="middle" alignment-baseline="middle" class="messageText" dy="1em" style="font-size: 16px; font-weight: 400;">Report that the Linux binding changed</text><line x1="76" y1="698" x2="411" y2="698" class="messageLine0" stroke-width="2" stroke="none" marker-end="url(#arrowhead)" style="fill: none;"></line><text x="76" y="713" text-anchor="middle" dominant-baseline="middle" alignment-baseline="middle" class="messageText" dy="1em" style="font-size: 16px; font-weight: 400;">Record the new interface state</text><path d="M 76,742 C 136,732 136,772 76,762" class="messageLine0" stroke-width="2" stroke="none" marker-end="url(#arrowhead)" style="fill: none;"></path><text x="416" y="863" text-anchor="middle" dominant-baseline="middle" alignment-baseline="middle" class="messageText" dy="1em" style="font-size: 16px; font-weight: 400;">Keep work queued for retry</text><path d="M 416,892 C 476,882 476,922 416,912" class="messageLine0" stroke-width="2" stroke="none" marker-end="url(#arrowhead)" style="fill: none;"></path><text x="575" y="1036" text-anchor="middle" dominant-baseline="middle" alignment-baseline="middle" class="messageText" dy="1em" style="font-size: 16px; font-weight: 400;">Try to use the RIF</text><line x1="731.5" y1="1065" x2="419" y2="1065" class="messageLine0" stroke-width="2" stroke="none" marker-end="url(#arrowhead)" style="fill: none;"></line><text x="572" y="1080" text-anchor="middle" dominant-baseline="middle" alignment-baseline="middle" class="messageText" dy="1em" style="font-size: 16px; font-weight: 400;">RIF is not ready</text><line x1="416" y1="1109" x2="728.5" y2="1109" class="messageLine1" stroke-width="2" stroke="none" marker-end="url(#arrowhead)" style="stroke-dasharray: 3, 3; fill: none;"></line><text x="734" y="1124" text-anchor="middle" dominant-baseline="middle" alignment-baseline="middle" class="messageText" dy="1em" style="font-size: 16px; font-weight: 400;">Keep work queued for retry</text><path d="M 733.5,1153 C 793.5,1143 793.5,1183 733.5,1173" class="messageLine0" stroke-width="2" stroke="none" marker-end="url(#arrowhead)" style="fill: none;"></path><text x="416" y="1283" text-anchor="middle" dominant-baseline="middle" alignment-baseline="middle" class="messageText" dy="1em" style="font-size: 16px; font-weight: 400;">Check and retire any old interface</text><path d="M 416,1312 C 476,1302 476,1342 416,1332" class="messageLine0" stroke-width="2" stroke="none" marker-end="url(#arrowhead)" style="fill: none;"></path><text x="416" y="1357" text-anchor="middle" dominant-baseline="middle" alignment-baseline="middle" class="messageText" dy="1em" style="font-size: 16px; font-weight: 400;">Keep retirement queued for retry</text><path d="M 416,1386 C 476,1376 476,1416 416,1406" class="messageLine0" stroke-width="2" stroke="none" marker-end="url(#arrowhead)" style="fill: none;"></path><text x="416" y="1516" text-anchor="middle" dominant-baseline="middle" alignment-baseline="middle" class="messageText" dy="1em" style="font-size: 16px; font-weight: 400;">Check and retire any old interface</text><path d="M 416,1545 C 476,1535 476,1575 416,1565" class="messageLine0" stroke-width="2" stroke="none" marker-end="url(#arrowhead)" style="fill: none;"></path><text x="416" y="1590" text-anchor="middle" dominant-baseline="middle" alignment-baseline="middle" class="messageText" dy="1em" style="font-size: 16px; font-weight: 400;">Release the guard</text><path d="M 416,1619 C 476,1609 476,1649 416,1639" class="messageLine0" stroke-width="2" stroke="none" marker-end="url(#arrowhead)" style="fill: none;"></path><text x="416" y="1723" text-anchor="middle" dominant-baseline="middle" alignment-baseline="middle" class="messageText" dy="1em" style="font-size: 16px; font-weight: 400;">Check that ports and VrfBlue are ready</text><path d="M 416,1752 C 476,1742 476,1782 416,1772" class="messageLine0" stroke-width="2" stroke="none" marker-end="url(#arrowhead)" style="fill: none;"></path><text x="416" y="1882" text-anchor="middle" dominant-baseline="middle" alignment-baseline="middle" class="messageText" dy="1em" style="font-size: 16px; font-weight: 400;">Create the new RIF</text><path d="M 416,1911 C 476,1901 476,1941 416,1931" class="messageLine0" stroke-width="2" stroke="none" marker-end="url(#arrowhead)" style="fill: none;"></path><text x="575" y="2170" text-anchor="middle" dominant-baseline="middle" alignment-baseline="middle" class="messageText" dy="1em" style="font-size: 16px; font-weight: 400;">Try to use the RIF</text><line x1="731.5" y1="2199" x2="419" y2="2199" class="messageLine0" stroke-width="2" stroke="none" marker-end="url(#arrowhead)" style="fill: none;"></line><text x="572" y="2214" text-anchor="middle" dominant-baseline="middle" alignment-baseline="middle" class="messageText" dy="1em" style="font-size: 16px; font-weight: 400;">Use the new RIF</text><line x1="416" y1="2243" x2="728.5" y2="2243" class="messageLine1" stroke-width="2" stroke="none" marker-end="url(#arrowhead)" style="stroke-dasharray: 3, 3; fill: none;"></line><text x="734" y="2258" text-anchor="middle" dominant-baseline="middle" alignment-baseline="middle" class="messageText" dy="1em" style="font-size: 16px; font-weight: 400;">Create the neighbor and next hop</text><path d="M 733.5,2287 C 793.5,2277 793.5,2317 733.5,2307" class="messageLine0" stroke-width="2" stroke="none" marker-end="url(#arrowhead)" style="fill: none;"></path></svg>