<svg version="1.1" xmlns="http://www.w3.org/2000/svg" viewBox="0 0 1067.6732742704062 846.6208850342143" width="1067.6732742704062" height="846.6208850342143">
  <!-- svg-source:excalidraw -->
  
  <defs>
    <style class="style-fonts">
      @font-face {
        font-family: "Virgil";
        src: url("https://excalidraw.com/Virgil.woff2");
      }
      @font-face {
        font-family: "Cascadia";
        src: url("https://excalidraw.com/Cascadia.woff2");
      }
    </style>
    
  </defs>
  <rect x="0" y="0" width="1067.6732742704062" height="846.6208850342143" fill="#ffffff"></rect><g stroke-linecap="round" transform="translate(10 337.20658327448734) rotate(0 127 48)"><path d="M60.05 6.1 C71.85 2.46, 90.92 1.9, 106.89 0.84 C122.86 -0.22, 140.3 -1.53, 155.87 -0.26 C171.44 1.01, 187.33 4.51, 200.3 8.45 C213.28 12.4, 224.76 18.03, 233.74 23.42 C242.73 28.81, 251.12 35.11, 254.21 40.77 C257.3 46.44, 256.2 51.51, 252.29 57.41 C248.37 63.31, 240.15 71.24, 230.7 76.17 C221.26 81.1, 209.51 83.67, 195.6 86.98 C181.69 90.29, 163.44 94.72, 147.26 96.03 C131.09 97.33, 114.25 96.64, 98.55 94.81 C82.85 92.97, 66.28 88.93, 53.06 85 C39.85 81.07, 27.99 75.79, 19.25 71.23 C10.5 66.66, 3.45 63.45, 0.6 57.62 C-2.25 51.78, -1.97 42.59, 2.13 36.22 C6.23 29.85, 13.05 24.62, 25.22 19.39 C37.38 14.16, 63.45 7.74, 75.14 4.85 C86.82 1.97, 94.44 1.23, 95.35 2.06 M137.31 2.7 C152.25 2.35, 166.74 1.39, 180.49 3.8 C194.24 6.22, 209.03 12.64, 219.82 17.21 C230.62 21.78, 239.69 25.58, 245.26 31.23 C250.84 36.88, 253.74 44.94, 253.29 51.11 C252.83 57.28, 249.9 62.84, 242.54 68.25 C235.18 73.66, 221.98 79.16, 209.13 83.57 C196.29 87.98, 180.89 92.76, 165.48 94.74 C150.08 96.72, 132.16 95.82, 116.71 95.44 C101.26 95.06, 87.15 94.92, 72.79 92.43 C58.42 89.94, 41.05 85.04, 30.51 80.5 C19.98 75.97, 14.87 71.38, 9.55 65.22 C4.23 59.06, -2.47 50.03, -1.39 43.55 C-0.31 37.07, 8.34 31.47, 16.02 26.34 C23.71 21.21, 32.78 17.03, 44.71 12.78 C56.64 8.53, 72.81 3.34, 87.61 0.85 C102.41 -1.63, 125.58 -2.53, 133.49 -2.13 C141.4 -1.74, 135.08 2.32, 135.06 3.21" stroke="#000000" stroke-width="2" fill="none"></path></g><g transform="translate(58.377523017824046 372.765457777533) rotate(0 78.81991577148432 12.5)"><text x="78.81991577148438" y="0" font-family="Virgil, Segoe UI Emoji" font-size="20px" fill="#000000" text-anchor="middle" style="white-space: pre;" direction="ltr" dominant-baseline="text-before-edge">linux-image-*.deb</text></g><g stroke-linecap="round" transform="translate(36.806346489951466 205.48566205631448) rotate(0 164.5 50)"><path d="M82.22 5.07 C96.19 1.55, 117.01 0.71, 135.34 0.1 C153.66 -0.52, 173.23 0.21, 192.17 1.39 C211.11 2.57, 232.27 4.69, 249 7.18 C265.72 9.66, 280.7 11.98, 292.54 16.3 C304.37 20.62, 313.6 27.77, 320 33.1 C326.41 38.42, 331.12 42.47, 330.95 48.26 C330.78 54.06, 325.62 62.2, 318.97 67.88 C312.33 73.56, 303.11 78.42, 291.07 82.35 C279.04 86.28, 263.12 88.97, 246.77 91.46 C230.42 93.96, 211.67 95.68, 192.95 97.3 C174.23 98.92, 153.18 101.99, 134.45 101.19 C115.71 100.4, 96.38 95.81, 80.53 92.53 C64.68 89.26, 51.38 85.64, 39.34 81.53 C27.3 77.42, 14.72 73.24, 8.3 67.87 C1.88 62.51, 0.69 54.93, 0.81 49.33 C0.92 43.72, 2.65 39.45, 9 34.25 C15.36 29.04, 21.14 23.22, 38.93 18.09 C56.72 12.96, 96.44 6.59, 115.74 3.46 C135.04 0.33, 153.95 -0.99, 154.75 -0.71 M209.42 1.88 C227.87 2.68, 247.88 5.28, 262.87 8.55 C277.85 11.82, 289.51 16.4, 299.34 21.51 C309.17 26.61, 317.37 33.64, 321.85 39.19 C326.32 44.73, 327.44 49.09, 326.19 54.77 C324.94 60.46, 322.43 67.97, 314.37 73.32 C306.31 78.66, 291.17 82.82, 277.81 86.85 C264.45 90.88, 251.48 95.54, 234.23 97.5 C216.98 99.46, 192.99 98.57, 174.3 98.6 C155.6 98.62, 139.56 98.87, 122.04 97.66 C104.52 96.45, 84.62 94.9, 69.19 91.33 C53.76 87.77, 40.51 81.52, 29.48 76.27 C18.44 71.02, 7.78 64.75, 2.99 59.86 C-1.8 54.96, -1.33 52.5, 0.74 46.92 C2.82 41.34, 6.81 32.22, 15.46 26.37 C24.1 20.53, 39.22 15.52, 52.62 11.85 C66.01 8.17, 79.53 5.82, 95.84 4.31 C112.15 2.79, 131.55 2.97, 150.48 2.73 C169.42 2.49, 199.72 3.09, 209.46 2.84 C219.19 2.6, 209.17 0.68, 208.91 1.28" stroke="#000000" stroke-width="2" fill="none"></path></g><g transform="translate(97.89739145839712 243.13032299698716) rotate(0 103.58988952636719 12.5)"><text x="103.58988952636719" y="0" font-family="Virgil, Segoe UI Emoji" font-size="20px" fill="#000000" text-anchor="middle" style="white-space: pre;" direction="ltr" dominant-baseline="text-before-edge">initramfs-tools_*.deb</text></g><g stroke-linecap="round" transform="translate(646.4311604172372 306.9784200784808) rotate(0 204 50)"><path d="M59.49 14.98 C71.92 11.16, 95.29 8.37, 114.6 5.68 C133.91 3, 154.74 -0.29, 175.34 -1.11 C195.94 -1.94, 217.44 -0.07, 238.21 0.74 C258.97 1.55, 281.42 1.27, 299.95 3.74 C318.48 6.21, 334.84 11.55, 349.4 15.55 C363.97 19.55, 377.87 23.56, 387.33 27.74 C396.79 31.92, 403.12 35.9, 406.16 40.64 C409.21 45.39, 409.28 50.51, 405.6 56.23 C401.91 61.96, 394 70.24, 384.04 75.02 C374.08 79.8, 360.45 81.73, 345.85 84.93 C331.24 88.13, 315.21 91.65, 296.39 94.22 C277.57 96.79, 253.76 99.59, 232.92 100.35 C212.08 101.12, 192.03 99.55, 171.36 98.8 C150.69 98.05, 127.68 98.09, 108.92 95.86 C90.16 93.63, 73.48 89.13, 58.79 85.43 C44.09 81.72, 29.89 78.61, 20.76 73.65 C11.62 68.68, 7.13 61.22, 4 55.61 C0.88 50.01, -1.26 44.99, 1.99 39.99 C5.24 34.99, 8.61 30.97, 23.5 25.62 C38.4 20.26, 73.68 11.21, 91.35 7.88 C109.02 4.55, 127.62 5.06, 129.53 5.63 M165.75 0.34 C185.53 -1.29, 212.51 0.93, 233.49 1.85 C254.48 2.77, 272.58 3.53, 291.64 5.84 C310.7 8.15, 332.81 12.5, 347.88 15.7 C362.94 18.9, 372.06 20.88, 382.02 25.04 C391.97 29.21, 403.38 35.26, 407.63 40.69 C411.88 46.12, 410.62 52.73, 407.53 57.62 C404.45 62.51, 398.79 65.91, 389.12 70.03 C379.45 74.15, 364.28 77.97, 349.5 82.33 C334.72 86.69, 318.83 93.66, 300.43 96.19 C282.04 98.71, 259.4 97.3, 239.14 97.49 C218.89 97.69, 199.82 97.77, 178.91 97.36 C157.99 96.95, 133.39 96.46, 113.64 95.02 C93.89 93.59, 75.36 92.14, 60.41 88.73 C45.45 85.33, 33.45 79.82, 23.92 74.58 C14.39 69.34, 6.48 62.55, 3.22 57.28 C-0.03 52.01, 2.02 48.2, 4.4 42.95 C6.78 37.71, 9.29 30.15, 17.51 25.82 C25.73 21.49, 39.21 20.09, 53.72 16.96 C68.24 13.82, 85.62 9.68, 104.58 7.01 C123.54 4.35, 157.22 2.1, 167.5 0.97 C177.78 -0.15, 165.7 -0.86, 166.28 0.26" stroke="#000000" stroke-width="2" fill="none"></path></g><g transform="translate(714.0114856977596 344.62308101915346) rotate(0 136.16989135742188 12.5)"><text x="136.16989135742188" y="0" font-family="Virgil, Segoe UI Emoji" font-size="20px" fill="#000000" text-anchor="middle" style="white-space: pre;" direction="ltr" dominant-baseline="text-before-edge">docker-syncd-%(PLATFORM)</text></g><g stroke-linecap="round" transform="translate(768.6732742704062 69.70618175525647) rotate(0 144.5 50)"><path d="M189.5 0.63 C205.76 1.54, 221.78 7.26, 235.42 10.99 C249.06 14.71, 262.68 17.65, 271.32 22.95 C279.96 28.25, 284.71 36.5, 287.26 42.78 C289.82 49.06, 290.23 55.15, 286.64 60.61 C283.04 66.07, 275.34 70.86, 265.7 75.55 C256.06 80.24, 243.2 84.59, 228.79 88.74 C214.39 92.88, 196.4 98.72, 179.26 100.42 C162.13 102.12, 142.9 100.08, 125.99 98.95 C109.08 97.82, 93.17 96.2, 77.78 93.64 C62.4 91.08, 45.1 88.15, 33.67 83.59 C22.24 79.02, 14.99 71.85, 9.2 66.27 C3.42 60.7, -1.39 56.01, -1.03 50.14 C-0.67 44.26, 4.58 36.61, 11.35 31.03 C18.12 25.44, 27.27 21.32, 39.6 16.62 C51.93 11.92, 69.55 5.88, 85.33 2.83 C101.11 -0.23, 114.82 -1.68, 134.28 -1.7 C153.75 -1.72, 189.1 1.29, 202.12 2.72 C215.15 4.15, 213.49 5.72, 212.44 6.89 M94.76 4.05 C109.58 1.45, 129.53 -0.65, 147.63 -0.43 C165.74 -0.2, 187.24 2.84, 203.39 5.43 C219.55 8.02, 231.99 10.84, 244.56 15.12 C257.14 19.4, 271.77 25.99, 278.85 31.11 C285.94 36.23, 286.08 40.2, 287.09 45.84 C288.1 51.48, 289.74 58.86, 284.91 64.95 C280.08 71.04, 269.32 77.93, 258.1 82.39 C246.88 86.85, 233.25 89.25, 217.6 91.72 C201.95 94.19, 181.65 95.66, 164.19 97.2 C146.73 98.74, 129.72 102.17, 112.85 100.94 C95.99 99.72, 77.04 93.93, 62.99 89.86 C48.95 85.79, 38.69 81.18, 28.6 76.54 C18.51 71.89, 7.45 67.03, 2.46 61.98 C-2.54 56.94, -3.82 52.08, -1.39 46.26 C1.05 40.44, 8.37 33.07, 17.08 27.07 C25.79 21.07, 37.15 14.37, 50.9 10.27 C64.64 6.17, 92.18 3.96, 99.57 2.46 C106.97 0.96, 95.37 0.16, 95.25 1.25" stroke="#000000" stroke-width="2" fill="none"></path></g><g transform="translate(824.8864124431493 107.35084269592903) rotate(0 88.10993194580078 12.5)"><text x="88.10993194580078" y="0" font-family="Virgil, Segoe UI Emoji" font-size="20px" fill="#000000" text-anchor="middle" style="white-space: pre;" direction="ltr" dominant-baseline="text-before-edge">syncd_1.0.0_*.deb</text></g><g stroke-linecap="round" transform="translate(368.3469012664091 280.6006366705491) rotate(0 104.4000244140625 44)"><path d="M29.01 12.57 C36.74 8.01, 49.55 6.46, 62.32 4.38 C75.09 2.31, 91.4 0.51, 105.62 0.1 C119.84 -0.3, 134.8 -0.15, 147.62 1.96 C160.45 4.06, 173.38 7.61, 182.58 12.71 C191.77 17.8, 198.73 26.63, 202.78 32.53 C206.83 38.42, 208.05 42.54, 206.89 48.05 C205.72 53.57, 202.94 60.21, 195.79 65.63 C188.65 71.05, 175.56 77.11, 164.02 80.6 C152.48 84.08, 140.36 85.23, 126.56 86.54 C112.77 87.86, 95.21 89.61, 81.27 88.49 C67.32 87.38, 54.25 83.41, 42.88 79.85 C31.51 76.29, 19.8 72.69, 13.03 67.16 C6.26 61.62, 3.7 53.07, 2.26 46.62 C0.83 40.17, -8.55 36.24, 4.45 28.45 C17.44 20.67, 57.79 4.1, 80.25 -0.1 C102.7 -4.29, 138.88 2.18, 139.19 3.3 M67.84 3.72 C79.96 1.24, 96.45 -0.82, 111.27 -0.3 C126.09 0.22, 144.2 3.75, 156.76 6.85 C169.32 9.94, 177.94 13.46, 186.63 18.29 C195.32 23.11, 205.78 30.34, 208.89 35.79 C211.99 41.24, 207.92 45.49, 205.28 50.98 C202.63 56.47, 200.57 63.46, 193 68.72 C185.42 73.98, 172.2 79.66, 159.84 82.53 C147.47 85.41, 133.39 85.75, 118.8 85.97 C104.21 86.19, 86.09 84.97, 72.29 83.88 C58.49 82.79, 46.59 83.25, 35.99 79.44 C25.4 75.63, 14.32 67.13, 8.72 61.01 C3.12 54.89, 2.79 48.4, 2.4 42.72 C2.02 37.04, 1.74 31.62, 6.41 26.92 C11.08 22.22, 19.86 18.45, 30.41 14.52 C40.96 10.59, 62.99 5.49, 69.71 3.35 C76.43 1.2, 69.69 1.16, 70.75 1.65" stroke="#000000" stroke-width="2" fill="none"></path></g><g transform="translate(414.26501783429376 311.98793829834096) rotate(0 58.659942626953125 12.5)"><text x="58.659942626953125" y="0" font-family="Virgil, Segoe UI Emoji" font-size="20px" fill="#000000" text-anchor="middle" style="white-space: pre;" direction="ltr" dominant-baseline="text-before-edge">some docker</text></g><g stroke-linecap="round" transform="translate(167.48655862788019 54.866184255649955) rotate(0 104.4000244140625 44)"><path d="M20.93 18.17 C27.63 12.77, 40.63 7.26, 52.82 3.94 C65 0.62, 80.21 -1.77, 94.05 -1.73 C107.89 -1.69, 122.67 2.09, 135.84 4.16 C149.02 6.23, 162.25 7.08, 173.11 10.67 C183.97 14.25, 195.31 19.96, 201.02 25.69 C206.72 31.41, 207.43 39.04, 207.34 45 C207.26 50.96, 206.21 55.91, 200.49 61.45 C194.77 66.99, 183.67 74.12, 173.02 78.24 C162.37 82.37, 150.02 84.42, 136.6 86.21 C123.18 88.01, 106.31 90.03, 92.5 89.04 C78.69 88.04, 65.99 83.74, 53.75 80.23 C41.51 76.72, 27.54 72.74, 19.04 67.98 C10.55 63.23, 5.74 57.3, 2.8 51.72 C-0.14 46.13, -9.5 42.46, 1.41 34.47 C12.32 26.49, 47.25 9.4, 68.26 3.83 C89.27 -1.75, 126.94 0.78, 127.49 1.03 M149.59 5.33 C162.65 7.29, 172.02 11.14, 181.54 15.68 C191.07 20.21, 202.6 27.21, 206.76 32.53 C210.92 37.86, 208.05 42.08, 206.48 47.64 C204.9 53.2, 203.98 60.37, 197.32 65.87 C190.66 71.38, 178.3 77.41, 166.53 80.67 C154.76 83.93, 141.13 84.74, 126.71 85.42 C112.3 86.1, 94.13 85.38, 80.05 84.73 C65.97 84.09, 53.53 85.01, 42.26 81.55 C30.98 78.1, 18.97 69.92, 12.41 64.01 C5.84 58.1, 4.34 51.75, 2.87 46.09 C1.4 40.44, -0.06 34.94, 3.59 30.08 C7.24 25.22, 15 21.18, 24.78 16.93 C34.55 12.68, 48.85 7.67, 62.24 4.58 C75.64 1.49, 90.49 -1.46, 105.13 -1.62 C119.77 -1.78, 143.63 2.97, 150.1 3.62 C156.58 4.27, 145.6 1.3, 143.97 2.27" stroke="#000000" stroke-width="2" fill="none"></path></g><g transform="translate(228.0546614628547 86.25348588344184) rotate(0 44.00995635986328 12.5)"><text x="44.00995635986328" y="0" font-family="Virgil, Segoe UI Emoji" font-size="20px" fill="#000000" text-anchor="middle" style="white-space: pre;" direction="ltr" dominant-baseline="text-before-edge">some deb</text></g><g stroke-linecap="round"><g transform="translate(266.4296866974928 407.6506959680205) rotate(0 48.140005814746246 50.041829661696056)"><path d="M0.9 1.21 C17.72 17.98, 82.57 84.12, 98.34 100.68 M-2.06 -0.6 C14.64 15.26, 79.02 78.58, 96.18 96" stroke="#000000" stroke-width="2" fill="none"></path></g><g transform="translate(266.4296866974928 407.6506959680205) rotate(0 48.140005814746246 50.041829661696056)"><path d="M70.71 83.57 C75.46 81.98, 80.9 84.47, 94.15 99.96 M68.48 81.91 C76.19 86.82, 81.14 87.91, 97.67 96.14" stroke="#000000" stroke-width="2" fill="none"></path></g><g transform="translate(266.4296866974928 407.6506959680205) rotate(0 48.140005814746246 50.041829661696056)"><path d="M85.19 69.04 C86.97 70.53, 89.43 76.02, 94.15 99.96 M82.96 67.38 C87.17 75.87, 88.72 80.37, 97.67 96.14" stroke="#000000" stroke-width="2" fill="none"></path></g></g><mask></mask><g stroke-linecap="round"><g transform="translate(314.87264640316243 297.2732414958788) rotate(0 61.19487374310279 103.13215729537023)"><path d="M0.14 0.61 C20.1 35.04, 100.59 173.58, 120.66 207.79 M-3.22 -1.53 C17.48 31.88, 104.09 168.09, 125.61 203.05" stroke="#000000" stroke-width="2" fill="none"></path></g><g transform="translate(314.87264640316243 297.2732414958788) rotate(0 61.19487374310279 103.13215729537023)"><path d="M102.82 180.8 C110.67 186.79, 115.78 200.79, 123.01 201.66 M102.86 185.42 C109.8 190.48, 120.28 198.29, 125.95 202.27" stroke="#000000" stroke-width="2" fill="none"></path></g><g transform="translate(314.87264640316243 297.2732414958788) rotate(0 61.19487374310279 103.13215729537023)"><path d="M120.21 169.9 C122.38 179.52, 121.72 197.15, 123.01 201.66 M120.24 174.52 C120.91 183.22, 125.17 194.94, 125.95 202.27" stroke="#000000" stroke-width="2" fill="none"></path></g></g><mask></mask><g stroke-linecap="round"><g transform="translate(468.25900149908193 373.6060087688535) rotate(0 14.155231094561373 68.29538410189656)"><path d="M-2.67 0.5 C1.65 22.97, 20.36 113.01, 26.07 135.44 M1.07 -1.7 C6.2 21.07, 25.95 115.15, 30.98 138.29" stroke="#000000" stroke-width="2" fill="none"></path></g><g transform="translate(468.25900149908193 373.6060087688535) rotate(0 14.155231094561373 68.29538410189656)"><path d="M15.78 108.94 C18 124.89, 22.29 127.29, 33.3 137.29 M14.54 111.78 C20.4 118.64, 22.87 123.51, 32.27 140.02" stroke="#000000" stroke-width="2" fill="none"></path></g><g transform="translate(468.25900149908193 373.6060087688535) rotate(0 14.155231094561373 68.29538410189656)"><path d="M35.85 104.65 C31.96 121.53, 30.13 125.24, 33.3 137.29 M34.61 107.5 C35.95 115.5, 33.86 121.33, 32.27 140.02" stroke="#000000" stroke-width="2" fill="none"></path></g></g><mask></mask><g stroke-linecap="round"><g transform="translate(295.32952260141246 142.7389897838167) rotate(0 68.63651858192497 69.35780173681832)"><path d="M-2.75 -1.42 C21.03 21.41, 116.85 113.77, 140.02 137.5 M0.96 3.97 C24.86 27.08, 117.12 118.09, 139.29 140.14" stroke="#000000" stroke-width="2" fill="none"></path></g><g transform="translate(295.32952260141246 142.7389897838167) rotate(0 68.63651858192497 69.35780173681832)"><path d="M110 131.56 C115.05 129.31, 125.54 132.27, 136.37 141.96 M113.52 127.74 C121.58 131.39, 131.8 138.16, 137.46 139.37" stroke="#000000" stroke-width="2" fill="none"></path></g><g transform="translate(295.32952260141246 142.7389897838167) rotate(0 68.63651858192497 69.35780173681832)"><path d="M124.43 116.98 C126.58 117.43, 134.13 123.37, 136.37 141.96 M127.95 113.15 C131.03 121.61, 136.33 133.34, 137.46 139.37" stroke="#000000" stroke-width="2" fill="none"></path></g></g><mask></mask><g stroke-linecap="round"><g transform="translate(843.6553527145061 168.9799096825078) rotate(0 -5.595327672005851 67.82623736189001)"><path d="M2.77 -1.82 C1.36 21.33, -8.91 114.87, -11.2 137.48 M0.83 3.36 C-0.79 25.83, -11.64 111.27, -13.96 133.35" stroke="#000000" stroke-width="2" fill="none"></path></g><g transform="translate(843.6553527145061 168.9799096825078) rotate(0 -5.595327672005851 67.82623736189001)"><path d="M-23.49 102.77 C-17.47 108.91, -21.3 117.63, -12.35 132.29 M-20.55 103.38 C-17.47 113.05, -18.88 117.73, -15.77 133.9" stroke="#000000" stroke-width="2" fill="none"></path></g><g transform="translate(843.6553527145061 168.9799096825078) rotate(0 -5.595327672005851 67.82623736189001)"><path d="M-3.11 105.14 C-1.18 111.22, -9.12 119.45, -12.35 132.29 M-0.17 105.75 C-2.13 114.87, -8.56 118.96, -15.77 133.9" stroke="#000000" stroke-width="2" fill="none"></path></g></g><mask></mask><g stroke-linecap="round"><g transform="translate(814.710073694414 410.3102109855754) rotate(0 -27.360553447487632 48.283822227246105)"><path d="M-0.97 1.62 C-10.73 17.59, -46.99 78.08, -55.8 94.01 M3.69 0.04 C-6.75 16.47, -48.64 81.16, -58.42 96.53" stroke="#000000" stroke-width="2" fill="none"></path></g><g transform="translate(814.710073694414 410.3102109855754) rotate(0 -27.360553447487632 48.283822227246105)"><path d="M-49.49 66.27 C-57.74 80.72, -55.85 89.52, -60.58 99.5 M-50.52 69 C-55.57 75.42, -57.57 85.72, -59.76 95.62" stroke="#000000" stroke-width="2" fill="none"></path></g><g transform="translate(814.710073694414 410.3102109855754) rotate(0 -27.360553447487632 48.283822227246105)"><path d="M-32.23 77.36 C-47.22 87.27, -52.22 91.64, -60.58 99.5 M-33.26 80.09 C-43.63 82.97, -50.93 89.88, -59.76 95.62" stroke="#000000" stroke-width="2" fill="none"></path></g></g><mask></mask><g transform="translate(302.8138839661233 547.0760230396868) rotate(0 273.8298034667969 137.5)"><text x="0" y="0" font-family="Virgil, Segoe UI Emoji" font-size="20px" fill="#000000" text-anchor="start" style="white-space: pre;" direction="ltr" dominant-baseline="text-before-edge">SONIC Installer build (sonic-$(PLATFORM).bin)</text><text x="0" y="25" font-family="Virgil, Segoe UI Emoji" font-size="20px" fill="#000000" text-anchor="start" style="white-space: pre;" direction="ltr" dominant-baseline="text-before-edge"></text><text x="0" y="50" font-family="Virgil, Segoe UI Emoji" font-size="20px" fill="#000000" text-anchor="start" style="white-space: pre;" direction="ltr" dominant-baseline="text-before-edge">- build_debian.sh:</text><text x="0" y="75" font-family="Virgil, Segoe UI Emoji" font-size="20px" fill="#000000" text-anchor="start" style="white-space: pre;" direction="ltr" dominant-baseline="text-before-edge">    * build_debian_base_system.sh</text><text x="0" y="100" font-family="Virgil, Segoe UI Emoji" font-size="20px" fill="#000000" text-anchor="start" style="white-space: pre;" direction="ltr" dominant-baseline="text-before-edge">    * Installation of required utilities</text><text x="0" y="125" font-family="Virgil, Segoe UI Emoji" font-size="20px" fill="#000000" text-anchor="start" style="white-space: pre;" direction="ltr" dominant-baseline="text-before-edge">    * Installation of initramfs-tools-* linux-image-*</text><text x="0" y="150" font-family="Virgil, Segoe UI Emoji" font-size="20px" fill="#000000" text-anchor="start" style="white-space: pre;" direction="ltr" dominant-baseline="text-before-edge">    * Configuration and "apt install" external packages</text><text x="0" y="175" font-family="Virgil, Segoe UI Emoji" font-size="20px" fill="#000000" text-anchor="start" style="white-space: pre;" direction="ltr" dominant-baseline="text-before-edge">    * sonic_debian_extension.sh</text><text x="0" y="200" font-family="Virgil, Segoe UI Emoji" font-size="20px" fill="#000000" text-anchor="start" style="white-space: pre;" direction="ltr" dominant-baseline="text-before-edge">    * Generating ONIE_INSTALLER_PAYLOAD</text><text x="0" y="225" font-family="Virgil, Segoe UI Emoji" font-size="20px" fill="#000000" text-anchor="start" style="white-space: pre;" direction="ltr" dominant-baseline="text-before-edge"></text><text x="0" y="250" font-family="Virgil, Segoe UI Emoji" font-size="20px" fill="#000000" text-anchor="start" style="white-space: pre;" direction="ltr" dominant-baseline="text-before-edge">- build_image.sh</text></g><g stroke-linecap="round" transform="translate(271.2140274003068 508.72189667357634) rotate(0 298.6069350829439 163.949494180319)"><path d="M32 0 M32 0 C179.33 -2.36, 324.5 -0.75, 565.21 0 M32 0 C196 2.35, 358.24 1.35, 565.21 0 M565.21 0 C582.93 1.12, 594.52 8.84, 597.21 32 M565.21 0 C585.88 -0.1, 599.77 9.13, 597.21 32 M597.21 32 C597.82 95.55, 595.98 165.27, 597.21 295.9 M597.21 32 C597.38 124.41, 595 214.21, 597.21 295.9 M597.21 295.9 C601.07 316.69, 588.4 329.08, 565.21 327.9 M597.21 295.9 C599.3 314.65, 583.65 324.47, 565.21 327.9 M565.21 327.9 C407.14 327.47, 249.72 325.26, 32 327.9 M565.21 327.9 C405.42 331.85, 245.83 331.17, 32 327.9 M32 327.9 C14.05 327.48, -3.64 313.94, 0 295.9 M32 327.9 C6.24 330.24, -4.33 318.85, 0 295.9 M0 295.9 C-1.86 217.8, 1.83 140.53, 0 32 M0 295.9 C0.53 236.24, 0.36 175.01, 0 32 M0 32 C-0.29 13.3, 7.6 2.3, 32 0 M0 32 C-1.85 13.17, 13.89 0.74, 32 0" stroke="#1e1e1e" stroke-width="2" fill="none"></path></g><g stroke-linecap="round" transform="translate(393.3224284274738 10) rotate(0 104.4000244140625 44)"><path d="M174.24 12.88 C185.48 15.86, 196.28 19.71, 201.92 24.67 C207.55 29.63, 208.36 36.58, 208.02 42.62 C207.69 48.67, 205.82 55.26, 199.91 60.94 C194 66.62, 183.29 72.34, 172.58 76.69 C161.87 81.05, 149.11 85.43, 135.64 87.09 C122.18 88.75, 105.91 87.8, 91.8 86.68 C77.69 85.56, 62.89 83.45, 50.96 80.38 C39.02 77.3, 28.39 72.62, 20.19 68.24 C12 63.86, 4.56 59.82, 1.77 54.07 C-1.02 48.33, 0.2 39.53, 3.43 33.8 C6.66 28.06, 12.65 24.55, 21.13 19.68 C29.61 14.81, 42.22 7.49, 54.3 4.57 C66.39 1.64, 79.81 2.35, 93.65 2.13 C107.49 1.9, 121.9 0.68, 137.36 3.22 C152.82 5.76, 177.33 14.38, 186.41 17.37 C195.49 20.35, 193.53 20.85, 191.83 21.14 M175.27 8.61 C186.37 12.1, 192.09 19.18, 197.25 25.39 C202.41 31.59, 205.75 39.72, 206.23 45.84 C206.7 51.96, 205.22 57.31, 200.1 62.1 C194.99 66.88, 185.42 70.69, 175.56 74.56 C165.7 78.42, 154.76 83.49, 140.93 85.29 C127.1 87.09, 107.58 85.58, 92.57 85.37 C77.57 85.15, 63.3 86.31, 50.9 84.01 C38.5 81.7, 26.26 76.52, 18.2 71.53 C10.13 66.54, 5.58 60.32, 2.51 54.07 C-0.55 47.83, -2.86 39.64, -0.19 34.08 C2.48 28.52, 10.05 25.7, 18.53 20.72 C27.02 15.74, 38.54 7.29, 50.72 4.19 C62.9 1.08, 77.45 2.13, 91.63 2.08 C105.8 2.04, 122.16 2.29, 135.8 3.91 C149.43 5.53, 167.52 10.21, 173.44 11.8 C179.35 13.39, 172.92 12.76, 171.31 13.43" stroke="#000000" stroke-width="2" fill="none"></path></g><g transform="translate(439.23054285912804 28.887301627791885) rotate(0 58.669944763183594 25)"><text x="58.669944763183594" y="0" font-family="Virgil, Segoe UI Emoji" font-size="20px" fill="#000000" text-anchor="middle" style="white-space: pre;" direction="ltr" dominant-baseline="text-before-edge">some other </text><text x="58.669944763183594" y="25" font-family="Virgil, Segoe UI Emoji" font-size="20px" fill="#000000" text-anchor="middle" style="white-space: pre;" direction="ltr" dominant-baseline="text-before-edge">deb</text></g><g stroke-linecap="round"><g transform="translate(503.7563311692247 98.92620100378474) rotate(0 -12.929318762384355 87.45588794386748)"><path d="M0.48 -1.09 C-4.05 28.72, -20.09 149.62, -25.07 179.06 M-2.71 -4.15 C-7.63 24.91, -22.79 144.99, -26.34 175.37" stroke="#1e1e1e" stroke-width="2" fill="none"></path></g><g transform="translate(503.7563311692247 98.92620100378474) rotate(0 -12.929318762384355 87.45588794386748)"><path d="M-34.64 148.71 C-27.06 153.39, -29.54 164.38, -25.22 172.67 M-31.97 145.47 C-32.48 153.22, -31.25 161.87, -27.61 175.06" stroke="#1e1e1e" stroke-width="2" fill="none"></path></g><g transform="translate(503.7563311692247 98.92620100378474) rotate(0 -12.929318762384355 87.45588794386748)"><path d="M-14.27 151.21 C-14.32 155.03, -24.42 165.08, -25.22 172.67 M-11.6 147.97 C-17.29 155.08, -21.24 163.09, -27.61 175.06" stroke="#1e1e1e" stroke-width="2" fill="none"></path></g></g><mask></mask><g transform="translate(618.9562680863337 217.1621888098124) rotate(0 25.47998809814453 12.5)"><text x="0" y="0" font-family="Virgil, Segoe UI Emoji" font-size="20px" fill="#1e1e1e" text-anchor="start" style="white-space: pre;" direction="ltr" dominant-baseline="text-before-edge">* * *</text></g></svg>