<svg version="1.1" xmlns="http://www.w3.org/2000/svg" viewBox="0 0 1294.3561499556608 965.3082775642295" width="1294.3561499556608" height="965.3082775642295">
  <!-- svg-source:excalidraw -->
  
  <defs>
    <style class="style-fonts">
      @font-face {
        font-family: "Virgil";
        src: url("https://excalidraw.com/Virgil.woff2");
      }
      @font-face {
        font-family: "Cascadia";
        src: url("https://excalidraw.com/Cascadia.woff2");
      }
    </style>
    
  </defs>
  <rect x="0" y="0" width="1294.3561499556608" height="965.3082775642295" fill="#ffffff"></rect><g stroke-linecap="round" transform="translate(50.791707982180924 273.6241208613633) rotate(0 127 48)"><path d="M28.14 16.01 C36.29 11.21, 51.23 10.83, 65.13 7.9 C79.03 4.97, 95.15 -0.32, 111.55 -1.57 C127.95 -2.83, 147.92 -1.98, 163.53 0.36 C179.14 2.71, 192.95 8.49, 205.2 12.48 C217.45 16.48, 229.2 19.55, 237.01 24.34 C244.81 29.13, 250.2 35.08, 252.02 41.23 C253.84 47.38, 252.16 55.37, 247.92 61.25 C243.68 67.13, 236.36 71.66, 226.57 76.49 C216.79 81.32, 203.79 87.29, 189.21 90.2 C174.64 93.11, 155.32 93.54, 139.13 93.93 C122.93 94.32, 107.52 94.01, 92.05 92.54 C76.58 91.08, 58.82 88.94, 46.3 85.13 C33.78 81.32, 24.33 75.26, 16.92 69.69 C9.52 64.11, 3.93 57.22, 1.86 51.68 C-0.2 46.15, -1.88 42.94, 4.53 36.48 C10.93 30.01, 32.03 17.41, 40.29 12.87 C48.55 8.33, 52.52 8.88, 54.1 9.22 M84.77 1.67 C99.11 -0.86, 121.65 -1.64, 137.83 -0.58 C154 0.49, 167.77 5.6, 181.83 8.07 C195.89 10.54, 211.69 9.86, 222.17 14.25 C232.66 18.63, 239.45 27.78, 244.74 34.37 C250.03 40.96, 255 48.18, 253.92 53.79 C252.84 59.41, 245.95 63.33, 238.27 68.06 C230.59 72.8, 220.06 78.21, 207.84 82.21 C195.62 86.2, 180.15 89.85, 164.95 92.04 C149.75 94.24, 132.67 95.54, 116.63 95.39 C100.59 95.24, 82.85 94, 68.73 91.15 C54.61 88.3, 42.75 83.38, 31.91 78.26 C21.07 73.14, 9.23 66.01, 3.68 60.42 C-1.88 54.84, -2.94 50.11, -1.43 44.74 C0.09 39.37, 5.36 33.3, 12.76 28.19 C20.16 23.08, 30.44 18.02, 42.97 14.07 C55.51 10.13, 80.15 6.5, 88 4.5 C95.84 2.5, 89.41 1.77, 90.07 2.1" stroke="#000000" stroke-width="2" fill="none"></path></g><g transform="translate(99.16923100000508 309.18299536440895) rotate(0 78.81991577148438 12.5)"><text x="78.81991577148438" y="0" font-family="Virgil, Segoe UI Emoji" font-size="20px" fill="#000000" text-anchor="middle" style="white-space: pre;" direction="ltr" dominant-baseline="text-before-edge">linux-image-*.deb</text></g><g stroke-linecap="round" transform="translate(98.7922086098406 151.44058517501617) rotate(0 164.5 50)"><path d="M26.83 20.04 C35.01 14.53, 54.02 10.6, 69.28 7.89 C84.55 5.19, 100.77 5.2, 118.43 3.81 C136.08 2.42, 156.5 -0.27, 175.21 -0.43 C193.93 -0.59, 213.55 0.45, 230.7 2.85 C247.86 5.25, 264.43 10, 278.17 13.98 C291.9 17.95, 304.6 21.51, 313.12 26.69 C321.63 31.87, 327.74 39.44, 329.27 45.07 C330.79 50.7, 326.95 55.23, 322.26 60.48 C317.57 65.73, 311.58 71.6, 301.13 76.56 C290.67 81.52, 274.61 86.89, 259.51 90.24 C244.42 93.6, 228.21 95.36, 210.55 96.7 C192.9 98.05, 172.57 98.18, 153.56 98.32 C134.56 98.45, 113.7 99.64, 96.53 97.51 C79.36 95.38, 63.92 89.92, 50.54 85.53 C37.15 81.14, 24.26 76.53, 16.22 71.15 C8.18 65.78, 4.27 58.89, 2.3 53.27 C0.33 47.65, -6.08 44.89, 4.38 37.43 C14.85 29.98, 46.86 14.02, 65.1 8.53 C83.34 3.05, 112.15 3.83, 113.8 4.5 M299.1 23.98 C311.24 28.85, 320.38 35.7, 324.81 40.76 C329.23 45.81, 328.25 49.38, 325.67 54.31 C323.09 59.23, 317.7 65.23, 309.32 70.31 C300.95 75.4, 288.89 80.65, 275.43 84.84 C261.97 89.02, 245.66 92.86, 228.56 95.42 C211.46 97.97, 191.21 99.94, 172.84 100.17 C154.48 100.4, 136.59 98.9, 118.37 96.78 C100.16 94.66, 79.05 90.62, 63.54 87.44 C48.03 84.26, 35.3 81.74, 25.33 77.72 C15.36 73.69, 7.9 68.46, 3.7 63.27 C-0.51 58.09, -2.33 52.21, 0.12 46.6 C2.58 41, 9.47 35.34, 18.42 29.64 C27.36 23.93, 40.16 16.73, 53.79 12.39 C67.42 8.05, 83.84 5.43, 100.22 3.59 C116.59 1.74, 133.44 1.29, 152.04 1.33 C170.65 1.37, 193.47 2.68, 211.84 3.84 C230.22 5, 246.91 5.31, 262.3 8.27 C277.7 11.23, 298.44 19.61, 304.21 21.61 C309.98 23.62, 299.41 19.62, 296.92 20.3" stroke="#000000" stroke-width="2" fill="none"></path></g><g transform="translate(159.88325357828626 189.08524611568873) rotate(0 103.58988952636719 12.5)"><text x="103.58988952636719" y="0" font-family="Virgil, Segoe UI Emoji" font-size="20px" fill="#000000" text-anchor="middle" style="white-space: pre;" direction="ltr" dominant-baseline="text-before-edge">initramfs-tools_*.deb</text></g><g stroke-linecap="round" transform="translate(847.2387159692562 306.97842007848067) rotate(0 204 50)"><path d="M39.25 22.01 C48.21 17.78, 67.75 12.15, 84.92 8.6 C102.08 5.05, 122.14 2.17, 142.26 0.71 C162.38 -0.75, 184.33 -0.24, 205.64 -0.17 C226.94 -0.11, 249.82 -0.6, 270.07 1.1 C290.32 2.81, 310.69 7.01, 327.15 10.06 C343.62 13.1, 356.83 15.42, 368.86 19.35 C380.9 23.28, 393.07 28.46, 399.39 33.63 C405.7 38.79, 406.92 45.17, 406.76 50.34 C406.61 55.51, 404.8 59.99, 398.44 64.66 C392.07 69.33, 381.45 73.68, 368.57 78.36 C355.7 83.04, 338.44 89.55, 321.21 92.73 C303.99 95.91, 285.24 96.32, 265.23 97.43 C245.23 98.54, 222.06 99.7, 201.17 99.39 C180.28 99.08, 159.88 97.17, 139.9 95.56 C119.93 93.96, 98.48 92.8, 81.32 89.76 C64.16 86.72, 49.06 81.32, 36.95 77.34 C24.84 73.37, 14.9 70.81, 8.67 65.9 C2.44 60.99, -1.14 53.33, -0.45 47.91 C0.24 42.48, 4.3 38.85, 12.8 33.32 C21.29 27.8, 41.21 17.92, 50.51 14.75 C59.82 11.59, 65.57 13.71, 68.62 14.33 M105.38 4.44 C121.6 1.7, 145.68 0.94, 166.48 0.32 C187.28 -0.31, 208.98 0.12, 230.16 0.71 C251.34 1.3, 274.88 2.08, 293.56 3.83 C312.24 5.58, 327.52 7.41, 342.24 11.19 C356.97 14.98, 371.61 21.27, 381.9 26.54 C392.19 31.81, 400.1 37.38, 403.98 42.81 C407.86 48.24, 407.71 53.96, 405.16 59.11 C402.62 64.27, 397.31 69.73, 388.72 73.77 C380.13 77.8, 368.16 80.02, 353.63 83.31 C339.1 86.6, 320.89 90.67, 301.54 93.53 C282.2 96.38, 258.33 99.15, 237.54 100.44 C216.74 101.74, 197.19 102.46, 176.78 101.29 C156.37 100.12, 133.64 96.1, 115.05 93.43 C96.47 90.75, 80.78 88.99, 65.29 85.23 C49.8 81.48, 32.25 75.24, 22.09 70.92 C11.94 66.61, 7.71 64.04, 4.37 59.34 C1.04 54.64, -0.38 48.37, 2.09 42.72 C4.56 37.06, 10.09 29.76, 19.2 25.41 C28.3 21.06, 41.9 20, 56.71 16.62 C71.52 13.24, 99.48 6.88, 108.07 5.12 C116.66 3.36, 106.49 5.34, 108.24 6.06" stroke="#000000" stroke-width="2" fill="none"></path></g><g transform="translate(914.8190412497786 344.62308101915323) rotate(0 136.16989135742188 12.5)"><text x="136.16989135742188" y="0" font-family="Virgil, Segoe UI Emoji" font-size="20px" fill="#000000" text-anchor="middle" style="white-space: pre;" direction="ltr" dominant-baseline="text-before-edge">docker-syncd-%(PLATFORM)</text></g><g stroke-linecap="round" transform="translate(969.4808298224234 69.70618175525624) rotate(0 144.5 50)"><path d="M261.68 19.8 C273.05 24.1, 279.38 32.05, 283.82 37.9 C288.26 43.74, 290.2 48.85, 288.32 54.87 C286.44 60.89, 281.22 68.77, 272.53 74.02 C263.85 79.27, 249.55 82.75, 236.18 86.36 C222.82 89.98, 208.69 93.49, 192.33 95.71 C175.98 97.92, 155.3 99.85, 138.03 99.66 C120.76 99.46, 104.29 97.11, 88.7 94.53 C73.1 91.94, 57.16 87.81, 44.44 84.15 C31.72 80.49, 19.6 77.82, 12.35 72.55 C5.1 67.27, 1.86 58.91, 0.95 52.48 C0.03 46.06, 1.37 39.94, 6.86 33.97 C12.35 28, 22.98 21.27, 33.88 16.65 C44.79 12.03, 57.51 9.19, 72.31 6.26 C87.1 3.32, 105.43 -0.31, 122.66 -0.97 C139.89 -1.63, 158.71 0.95, 175.69 2.29 C192.66 3.62, 208.46 3.3, 224.52 7.03 C240.57 10.75, 264.13 21.16, 272.03 24.64 C279.93 28.12, 274.18 27.37, 271.92 27.91 M242.73 11.94 C256.21 15.35, 266.21 21.77, 273.68 27.51 C281.16 33.25, 286.35 40.05, 287.57 46.36 C288.79 52.66, 285.89 59.71, 280.99 65.34 C276.1 70.97, 269.36 75.95, 258.22 80.16 C247.08 84.37, 229.69 87.34, 214.18 90.59 C198.66 93.83, 181.98 97.96, 165.13 99.62 C148.27 101.29, 129.93 101.51, 113.06 100.59 C96.18 99.67, 78.12 97.38, 63.89 94.11 C49.65 90.85, 37.18 86.53, 27.63 81.01 C18.09 75.5, 10.91 67.29, 6.64 61.02 C2.36 54.76, 0.72 48.99, 1.99 43.43 C3.25 37.87, 6.16 32.59, 14.25 27.66 C22.34 22.73, 36.92 18.22, 50.53 13.82 C64.13 9.42, 79.12 3.7, 95.87 1.25 C112.62 -1.2, 133.94 -0.86, 151.03 -0.88 C168.11 -0.89, 182.54 -1.39, 198.38 1.16 C214.21 3.72, 238.57 12.3, 246.03 14.47 C253.5 16.65, 245.19 14.16, 243.16 14.21" stroke="#000000" stroke-width="2" fill="none"></path></g><g transform="translate(1025.6939679951665 107.3508426959288) rotate(0 88.10993194580078 12.5)"><text x="88.10993194580078" y="0" font-family="Virgil, Segoe UI Emoji" font-size="20px" fill="#000000" text-anchor="middle" style="white-space: pre;" direction="ltr" dominant-baseline="text-before-edge">syncd_1.0.0_*.deb</text></g><g stroke-linecap="round" transform="translate(569.1544568184281 280.60063667054874) rotate(0 104.4000244140625 44)"><path d="M32.23 10.87 C41.12 6.49, 56.67 4.9, 69.58 2.81 C82.5 0.72, 95.7 -1.81, 109.73 -1.69 C123.76 -1.56, 141.18 0.53, 153.77 3.56 C166.37 6.6, 176.45 11.81, 185.3 16.52 C194.16 21.24, 203.06 26.27, 206.9 31.85 C210.74 37.43, 211.09 43.56, 208.36 49.99 C205.63 56.42, 198.49 65.26, 190.54 70.42 C182.59 75.58, 172.57 78.19, 160.64 80.95 C148.71 83.7, 132.87 86.35, 118.98 86.95 C105.09 87.55, 91 86.12, 77.31 84.54 C63.61 82.96, 48.02 81.24, 36.83 77.47 C25.65 73.69, 16.41 66.99, 10.2 61.86 C3.99 56.73, 0.09 52.65, -0.44 46.7 C-0.97 40.75, -0.42 32.61, 7.04 26.16 C14.51 19.71, 36.59 11.64, 44.33 8 C52.08 4.37, 52.68 3.62, 53.54 4.34 M174.76 10.25 C185.57 13.7, 193.75 20.21, 199.22 26.02 C204.69 31.82, 207.97 38.81, 207.59 45.07 C207.21 51.33, 202.79 58.31, 196.94 63.56 C191.08 68.82, 183.57 73.25, 172.47 76.59 C161.37 79.94, 144.43 81.76, 130.36 83.63 C116.29 85.49, 101.74 87.9, 88.06 87.8 C74.38 87.7, 60.15 85.83, 48.28 83.03 C36.41 80.23, 24.46 75.87, 16.84 70.98 C9.21 66.09, 4.44 60.16, 2.52 53.68 C0.6 47.2, 1.9 38.3, 5.33 32.08 C8.76 25.87, 15.2 20.67, 23.08 16.39 C30.96 12.1, 40.21 8.81, 52.59 6.38 C64.98 3.96, 82.85 2.74, 97.38 1.85 C111.91 0.96, 126.12 -0.56, 139.77 1.05 C153.41 2.65, 173.68 9.94, 179.26 11.47 C184.85 13, 174.68 9.49, 173.27 10.24" stroke="#000000" stroke-width="2" fill="none"></path></g><g transform="translate(615.0725733863128 311.9879382983406) rotate(0 58.659942626953125 12.5)"><text x="58.659942626953125" y="0" font-family="Virgil, Segoe UI Emoji" font-size="20px" fill="#000000" text-anchor="middle" style="white-space: pre;" direction="ltr" dominant-baseline="text-before-edge">some docker</text></g><g stroke-linecap="round" transform="translate(368.2941141798992 54.86618425564984) rotate(0 104.4000244140625 44)"><path d="M29.67 10.76 C38.08 6.04, 55.27 3.04, 68.62 1.21 C81.97 -0.62, 95.54 -0.62, 109.78 -0.22 C124.02 0.18, 141.14 1.05, 154.07 3.61 C167 6.17, 178.87 9.91, 187.35 15.13 C195.84 20.36, 201.54 28.99, 204.99 34.98 C208.44 40.96, 210.36 45.58, 208.05 51.04 C205.74 56.5, 198.86 63.03, 191.15 67.76 C183.43 72.48, 173.79 76.13, 161.76 79.37 C149.73 82.62, 133.29 86.31, 118.97 87.23 C104.64 88.14, 89.42 86.23, 75.81 84.86 C62.2 83.48, 48.21 82.75, 37.31 78.96 C26.4 75.17, 16.27 67.73, 10.4 62.1 C4.53 56.48, 2.84 51.25, 2.07 45.21 C1.3 39.18, -4.61 32.83, 5.77 25.91 C16.15 18.99, 48.22 8.12, 64.35 3.71 C80.48 -0.71, 102.18 -0.98, 102.53 -0.58 M35.71 9.96 C45.05 6.08, 59.85 3.81, 73.79 2.03 C87.74 0.25, 105.58 -1.04, 119.36 -0.73 C133.14 -0.42, 144.88 0.52, 156.46 3.88 C168.05 7.24, 180.55 13.76, 188.87 19.42 C197.18 25.08, 203.7 31.62, 206.36 37.85 C209.03 44.08, 207.92 50.95, 204.85 56.8 C201.79 62.65, 196.09 68.85, 187.97 72.96 C179.85 77.07, 168.6 79.08, 156.14 81.48 C143.67 83.89, 128.13 86.5, 113.18 87.37 C98.22 88.23, 79.84 88.31, 66.4 86.67 C52.95 85.04, 42.33 82.16, 32.51 77.56 C22.68 72.97, 12.46 65.05, 7.43 59.09 C2.4 53.13, 2.24 47.96, 2.35 41.81 C2.45 35.66, 2.14 27.33, 8.07 22.17 C14.01 17.01, 32.89 12.81, 37.96 10.87 C43.02 8.94, 37.67 10.55, 38.44 10.56" stroke="#000000" stroke-width="2" fill="none"></path></g><g transform="translate(428.86221701487375 86.25348588344173) rotate(0 44.00995635986328 12.5)"><text x="44.00995635986328" y="0" font-family="Virgil, Segoe UI Emoji" font-size="20px" fill="#000000" text-anchor="middle" style="white-space: pre;" direction="ltr" dominant-baseline="text-before-edge">some deb</text></g><g stroke-linecap="round"><g transform="translate(203.1327784584173 375.618352205247) rotate(0 20.116802917820507 53.05948404070642)"><path d="M0.17 -2.41 C6.93 15.42, 31.95 90.45, 38.37 108.53 M-3.18 2.46 C4.61 19.26, 35.49 86.32, 43.42 103.95" stroke="#000000" stroke-width="2" fill="none"></path></g><g transform="translate(203.1327784584173 375.618352205247) rotate(0 20.116802917820507 53.05948404070642)"><path d="M18.95 78.98 C28.44 84.2, 29.55 91.43, 45.93 101.13 M24.29 83.27 C29.21 90.08, 36.39 99.32, 41.63 103.31" stroke="#000000" stroke-width="2" fill="none"></path></g><g transform="translate(203.1327784584173 375.618352205247) rotate(0 20.116802917820507 53.05948404070642)"><path d="M37.62 70.47 C43.05 77.61, 40 86.73, 45.93 101.13 M42.96 74.76 C41.12 84.49, 41.66 96.76, 41.63 103.31" stroke="#000000" stroke-width="2" fill="none"></path></g></g><mask></mask><g stroke-linecap="round"><g transform="translate(327.515785274446 260.749998887964) rotate(0 17.53202812988991 115.42742981278298)"><path d="M-2.5 0.79 C2.86 39.43, 26.24 190.72, 32.33 229.39 M1.34 -1.24 C7.55 37.94, 32.45 193.84, 37.57 232.1" stroke="#000000" stroke-width="2" fill="none"></path></g><g transform="translate(327.515785274446 260.749998887964) rotate(0 17.53202812988991 115.42742981278298)"><path d="M24.4 202.64 C24.75 213.43, 34.08 219.31, 39.78 229 M22.95 205.54 C27.06 214.27, 29.79 219.37, 37.26 231.63" stroke="#000000" stroke-width="2" fill="none"></path></g><g transform="translate(327.515785274446 260.749998887964) rotate(0 17.53202812988991 115.42742981278298)"><path d="M44.7 199.62 C38.79 210.97, 41.9 217.77, 39.78 229 M43.25 202.52 C41.88 212.22, 39.06 218.15, 37.26 231.63" stroke="#000000" stroke-width="2" fill="none"></path></g></g><mask></mask><g stroke-linecap="round"><g transform="translate(670.2652186917394 372.53131843541723) rotate(0 83.67388339259298 159.0840558719242)"><path d="M-2.16 -1.71 C26.51 51.47, 141.15 266.31, 169.51 319.87 M1.87 3.54 C30.35 55.85, 138.39 263.91, 167.03 315.82" stroke="#000000" stroke-width="2" fill="none"></path></g><g transform="translate(670.2652186917394 372.53131843541723) rotate(0 83.67388339259298 159.0840558719242)"><path d="M142.27 295.16 C152.04 297.53, 156.44 301.46, 165.95 319.62 M144.1 297.23 C150.36 301.91, 159.34 308.81, 165.51 315.31" stroke="#000000" stroke-width="2" fill="none"></path></g><g transform="translate(670.2652186917394 372.53131843541723) rotate(0 83.67388339259298 159.0840558719242)"><path d="M160.38 285.5 C166.39 289.62, 166.97 295.6, 165.95 319.62 M162.21 287.57 C162.35 295.46, 165.25 305.61, 165.51 315.31" stroke="#000000" stroke-width="2" fill="none"></path></g></g><mask></mask><g stroke-linecap="round"><g transform="translate(496.1370781534315 142.73898978381658) rotate(0 68.24692064907958 70.56092209004021)"><path d="M-0.43 1.76 C22.47 25.52, 112.69 118.07, 135.28 140.87 M-4.11 0.25 C19.88 23.35, 116.47 113.2, 140.61 136.7" stroke="#000000" stroke-width="2" fill="none"></path></g><g transform="translate(496.1370781534315 142.73898978381658) rotate(0 68.24692064907958 70.56092209004021)"><path d="M115.61 121.92 C121.3 124.39, 124.13 133.96, 142.04 136.07 M111.31 124.1 C120.72 127.35, 127.51 130.78, 141.68 136.23" stroke="#000000" stroke-width="2" fill="none"></path></g><g transform="translate(496.1370781534315 142.73898978381658) rotate(0 68.24692064907958 70.56092209004021)"><path d="M129.74 107.04 C132.09 112.78, 131.78 125.67, 142.04 136.07 M125.44 109.21 C130.65 117, 133.33 124.76, 141.68 136.23" stroke="#000000" stroke-width="2" fill="none"></path></g></g><mask></mask><g stroke-linecap="round"><g transform="translate(1044.4629082665233 168.9799096825077) rotate(0 -5.120785480977247 69.11608654738654)"><path d="M-1.97 1.55 C-3.97 23.77, -11.46 112.54, -12.39 135.09 M2.15 -0.08 C1.07 22.4, -5.49 116.32, -7.17 138.31" stroke="#000000" stroke-width="2" fill="none"></path></g><g transform="translate(1044.4629082665233 168.9799096825077) rotate(0 -5.120785480977247 69.11608654738654)"><path d="M-13.16 106.35 C-13.76 121.58, -8.91 125.36, -7.54 137.09 M-15.68 108.98 C-14.35 119.75, -8.71 130.55, -8.62 140.29" stroke="#000000" stroke-width="2" fill="none"></path></g><g transform="translate(1044.4629082665233 168.9799096825077) rotate(0 -5.120785480977247 69.11608654738654)"><path d="M7.3 107.83 C0.86 122.35, -0.1 125.71, -7.54 137.09 M4.79 110.46 C-1.49 120.55, -3.47 130.8, -8.62 140.29" stroke="#000000" stroke-width="2" fill="none"></path></g></g><mask></mask><g stroke-linecap="round"><g transform="translate(1047.5354954125432 410.1824678330454) rotate(0 3.9428048705279934 141.87102974402507)"><path d="M-2.17 -0.76 C-0.17 46.88, 8.54 239.57, 10.06 287.38 M1.85 -3.64 C3.9 42.99, 8.75 234.13, 9.26 282.92" stroke="#000000" stroke-width="2" fill="none"></path></g><g transform="translate(1047.5354954125432 410.1824678330454) rotate(0 3.9428048705279934 141.87102974402507)"><path d="M-2.62 258.73 C2.69 260.89, 3.36 266.73, 12.17 279.34 M-3.06 254.42 C2.34 262.01, 2.72 271.96, 8.65 281.34" stroke="#000000" stroke-width="2" fill="none"></path></g><g transform="translate(1047.5354954125432 410.1824678330454) rotate(0 3.9428048705279934 141.87102974402507)"><path d="M17.89 258.33 C18.5 260.27, 14.46 266.2, 12.17 279.34 M17.46 254.02 C17.36 261.63, 12.24 271.68, 8.65 281.34" stroke="#000000" stroke-width="2" fill="none"></path></g></g><mask></mask><g transform="translate(718.7421363555895 736.7637995913101) rotate(0 276.20977783203125 100)"><text x="0" y="0" font-family="Virgil, Segoe UI Emoji" font-size="20px" fill="#000000" text-anchor="start" style="white-space: pre;" direction="ltr" dominant-baseline="text-before-edge">SONIC Installer build Stage 2 (sonic-$(PLATFORM).bin)</text><text x="0" y="25" font-family="Virgil, Segoe UI Emoji" font-size="20px" fill="#000000" text-anchor="start" style="white-space: pre;" direction="ltr" dominant-baseline="text-before-edge"></text><text x="0" y="50" font-family="Virgil, Segoe UI Emoji" font-size="20px" fill="#000000" text-anchor="start" style="white-space: pre;" direction="ltr" dominant-baseline="text-before-edge">- build_debian.sh:</text><text x="0" y="75" font-family="Virgil, Segoe UI Emoji" font-size="20px" fill="#000000" text-anchor="start" style="white-space: pre;" direction="ltr" dominant-baseline="text-before-edge">    * Loading the squashfs from the Stage 1</text><text x="0" y="100" font-family="Virgil, Segoe UI Emoji" font-size="20px" fill="#000000" text-anchor="start" style="white-space: pre;" direction="ltr" dominant-baseline="text-before-edge">    * sonic_debian_extension.sh</text><text x="0" y="125" font-family="Virgil, Segoe UI Emoji" font-size="20px" fill="#000000" text-anchor="start" style="white-space: pre;" direction="ltr" dominant-baseline="text-before-edge">    * Generating ONIE_INSTALLER_PAYLOAD</text><text x="0" y="150" font-family="Virgil, Segoe UI Emoji" font-size="20px" fill="#000000" text-anchor="start" style="white-space: pre;" direction="ltr" dominant-baseline="text-before-edge"></text><text x="0" y="175" font-family="Virgil, Segoe UI Emoji" font-size="20px" fill="#000000" text-anchor="start" style="white-space: pre;" direction="ltr" dominant-baseline="text-before-edge">- build_image.sh</text></g><g stroke-linecap="round" transform="translate(687.142279789773 698.4096732251996) rotate(0 298.6069350829439 128.4493021695149)"><path d="M32 0 M32 0 C242.48 0.19, 454.43 -0.76, 565.21 0 M32 0 C174.29 0.8, 318.23 0.81, 565.21 0 M565.21 0 C583.66 3.95, 595.99 7.51, 597.21 32 M565.21 0 C582.24 2.25, 597.6 14.2, 597.21 32 M597.21 32 C592.5 72.91, 593.28 117.62, 597.21 224.9 M597.21 32 C596.24 85.99, 593.73 139.7, 597.21 224.9 M597.21 224.9 C594.87 246.53, 585.55 259.2, 565.21 256.9 M597.21 224.9 C595.71 249.9, 587.99 260.06, 565.21 256.9 M565.21 256.9 C365.58 256.69, 167.16 258.32, 32 256.9 M565.21 256.9 C374.88 254.36, 182.73 253.87, 32 256.9 M32 256.9 C12.14 257.46, 0.32 245.48, 0 224.9 M32 256.9 C9.09 252.47, 0.2 248.04, 0 224.9 M0 224.9 C0.04 164.57, -0.14 101.02, 0 32 M0 224.9 C0.89 147.25, 0.86 73.28, 0 32 M0 32 C-2.05 12.16, 9.65 -2.67, 32 0 M0 32 C4.23 9.38, 6.68 -2.91, 32 0" stroke="#1e1e1e" stroke-width="2" fill="none"></path></g><g stroke-linecap="round" transform="translate(594.1299839794929 10) rotate(0 104.4000244140625 44)"><path d="M22.6 14.89 C29.82 10.29, 43.63 8.63, 56.22 5.92 C68.81 3.21, 83.61 -0.77, 98.16 -1.38 C112.71 -1.99, 130.46 0.22, 143.51 2.27 C156.55 4.32, 166.55 6.59, 176.43 10.92 C186.3 15.26, 197.1 22.65, 202.73 28.28 C208.36 33.91, 211.24 39.01, 210.21 44.69 C209.18 50.38, 203.45 57.04, 196.57 62.39 C189.69 67.74, 179.91 72.9, 168.93 76.78 C157.95 80.67, 144.18 84.06, 130.7 85.71 C117.22 87.35, 101.84 87.31, 88.05 86.63 C74.26 85.95, 59.93 85.04, 47.97 81.64 C36 78.24, 24.33 71.53, 16.26 66.23 C8.19 60.93, 1.66 55.5, -0.45 49.84 C-2.55 44.17, -6.52 39.93, 3.63 32.24 C13.78 24.54, 43.39 8.79, 60.44 3.66 C77.49 -1.46, 105.14 0.49, 105.93 1.51 M59.28 5.02 C70.81 2.48, 90.24 2.21, 104.81 1.74 C119.37 1.28, 133.38 0.23, 146.65 2.22 C159.92 4.22, 175.27 9.47, 184.42 13.72 C193.56 17.97, 197.36 21.82, 201.51 27.72 C205.66 33.62, 210.4 42.8, 209.31 49.1 C208.22 55.4, 202.41 60.9, 194.96 65.51 C187.5 70.12, 176.06 72.97, 164.58 76.76 C153.09 80.55, 139.61 86.67, 126.04 88.24 C112.48 89.8, 97.24 87.75, 83.2 86.18 C69.16 84.6, 53.11 82.29, 41.81 78.77 C30.51 75.24, 22.16 69.57, 15.39 65.01 C8.61 60.45, 3 56.84, 1.14 51.39 C-0.72 45.94, 0 38.8, 4.22 32.32 C8.44 25.84, 16.88 17.02, 26.44 12.52 C36 8.02, 55.73 6.47, 61.56 5.33 C67.39 4.19, 60.75 5.62, 61.42 5.69" stroke="#000000" stroke-width="2" fill="none"></path></g><g transform="translate(640.0380984111471 28.887301627791885) rotate(0 58.669944763183594 25)"><text x="58.669944763183594" y="0" font-family="Virgil, Segoe UI Emoji" font-size="20px" fill="#000000" text-anchor="middle" style="white-space: pre;" direction="ltr" dominant-baseline="text-before-edge">some other </text><text x="58.669944763183594" y="25" font-family="Virgil, Segoe UI Emoji" font-size="20px" fill="#000000" text-anchor="middle" style="white-space: pre;" direction="ltr" dominant-baseline="text-before-edge">deb</text></g><g stroke-linecap="round"><g transform="translate(704.5638867212438 98.92620100378463) rotate(0 -14.713599663563173 87.84221394552651)"><path d="M-0.43 -0.66 C-4.84 28.81, -24.84 146.49, -29 175.93 M-4.1 -3.48 C-7.42 26.49, -20.04 148.8, -23.75 179.17" stroke="#1e1e1e" stroke-width="2" fill="none"></path></g><g transform="translate(704.5638867212438 98.92620100378463) rotate(0 -14.713599663563173 87.84221394552651)"><path d="M-31.77 146.98 C-30.55 158.31, -28.97 159.43, -19.8 177.95 M-30.66 151.55 C-31.29 155.4, -29.72 161.43, -25.08 178.15" stroke="#1e1e1e" stroke-width="2" fill="none"></path></g><g transform="translate(704.5638867212438 98.92620100378463) rotate(0 -14.713599663563173 87.84221394552651)"><path d="M-11.37 149.25 C-14.44 160.05, -17.16 160.68, -19.8 177.95 M-10.27 153.82 C-15.36 157.37, -18.29 162.89, -25.08 178.15" stroke="#1e1e1e" stroke-width="2" fill="none"></path></g></g><mask></mask><g transform="translate(819.7638236383527 217.1621888098125) rotate(0 25.47998809814453 12.5)"><text x="0" y="0" font-family="Virgil, Segoe UI Emoji" font-size="20px" fill="#1e1e1e" text-anchor="start" style="white-space: pre;" direction="ltr" dominant-baseline="text-before-edge">* * *</text></g><g transform="translate(41.59985656581648 532.4548634088451) rotate(0 273.8298034667969 112.5)"><text x="0" y="0" font-family="Virgil, Segoe UI Emoji" font-size="20px" fill="#1971c2" text-anchor="start" style="white-space: pre;" direction="ltr" dominant-baseline="text-before-edge">SONIC Installer build Stage 1 </text><text x="0" y="25" font-family="Virgil, Segoe UI Emoji" font-size="20px" fill="#1971c2" text-anchor="start" style="white-space: pre;" direction="ltr" dominant-baseline="text-before-edge">(sonic-$(PLATFORM).bin__rfs.squashfs)</text><text x="0" y="50" font-family="Virgil, Segoe UI Emoji" font-size="20px" fill="#1971c2" text-anchor="start" style="white-space: pre;" direction="ltr" dominant-baseline="text-before-edge"></text><text x="0" y="75" font-family="Virgil, Segoe UI Emoji" font-size="20px" fill="#1971c2" text-anchor="start" style="white-space: pre;" direction="ltr" dominant-baseline="text-before-edge">- build_debian.sh:</text><text x="0" y="100" font-family="Virgil, Segoe UI Emoji" font-size="20px" fill="#1971c2" text-anchor="start" style="white-space: pre;" direction="ltr" dominant-baseline="text-before-edge">    * build_debian_base_system.sh</text><text x="0" y="125" font-family="Virgil, Segoe UI Emoji" font-size="20px" fill="#1971c2" text-anchor="start" style="white-space: pre;" direction="ltr" dominant-baseline="text-before-edge">    * Installation of required utilities</text><text x="0" y="150" font-family="Virgil, Segoe UI Emoji" font-size="20px" fill="#1971c2" text-anchor="start" style="white-space: pre;" direction="ltr" dominant-baseline="text-before-edge">    * Installation of initramfs-tools-* linux-image-*</text><text x="0" y="175" font-family="Virgil, Segoe UI Emoji" font-size="20px" fill="#1971c2" text-anchor="start" style="white-space: pre;" direction="ltr" dominant-baseline="text-before-edge">    * Configuration and "apt install" external packages</text><text x="0" y="200" font-family="Virgil, Segoe UI Emoji" font-size="20px" fill="#1971c2" text-anchor="start" style="white-space: pre;" direction="ltr" dominant-baseline="text-before-edge">    * Saving the progress into squashfs</text></g><g stroke-linecap="round" transform="translate(10 508.9366611089863) rotate(0 301.2562043501574 135.86718335335877)"><path d="M32 0 M32 0 C223.89 2.63, 411.36 1.62, 570.51 0 M32 0 C219.27 -3.71, 407.14 -3.87, 570.51 0 M570.51 0 C589.18 -2.03, 600.99 10.02, 602.51 32 M570.51 0 C589.89 0.39, 604.05 8.94, 602.51 32 M602.51 32 C599.5 74.26, 601.27 117.14, 602.51 239.73 M602.51 32 C604.98 110.14, 604.22 189.46, 602.51 239.73 M602.51 239.73 C598.73 262.73, 592.13 274.06, 570.51 271.73 M602.51 239.73 C601.92 258.59, 595.38 270.36, 570.51 271.73 M570.51 271.73 C449.41 273.45, 327.56 272.77, 32 271.73 M570.51 271.73 C460.95 273.2, 350.72 273.22, 32 271.73 M32 271.73 C12.66 270.51, 0.79 264.9, 0 239.73 M32 271.73 C9.21 274.79, -0.78 258.04, 0 239.73 M0 239.73 C-0.59 180.33, -4.28 125.98, 0 32 M0 239.73 C4.42 181.88, 3.99 125.07, 0 32 M0 32 C0.72 14.58, 14.55 -3.65, 32 0 M0 32 C-1.95 6.82, 14.37 1.09, 32 0" stroke="#1971c2" stroke-width="2" fill="none"></path></g><g stroke-linecap="round"><g transform="translate(620.165387910567 644.4609227862356) rotate(0 33.738861073515636 52.502889515662105)"><path d="M-0.85 -2.21 C10.04 15.2, 52.18 88.85, 63.35 107.22 M3.88 2.76 C15.79 20.52, 58.22 86.14, 68.33 102.95" stroke="#1971c2" stroke-width="2" fill="none"></path></g><g transform="translate(620.165387910567 644.4609227862356) rotate(0 33.738861073515636 52.502889515662105)"><path d="M41.5 80.78 C52.36 89.2, 58.88 90.1, 66.36 100.01 M43.89 84.2 C49 89.17, 55.95 92.48, 66.49 101.17" stroke="#1971c2" stroke-width="2" fill="none"></path></g><g transform="translate(620.165387910567 644.4609227862356) rotate(0 33.738861073515636 52.502889515662105)"><path d="M58.88 69.87 C66 80.67, 68.56 84.05, 66.36 100.01 M61.27 73.29 C62.24 80.59, 65.2 86.4, 66.49 101.17" stroke="#1971c2" stroke-width="2" fill="none"></path></g></g><mask></mask></svg>