<svg width="1324" height="439" xmlns="http://www.w3.org/2000/svg" xmlns:xlink="http://www.w3.org/1999/xlink" xml:space="preserve" overflow="hidden"><g transform="matrix(1 0 0 1 0 4)"><g><path d="M592.5 68.9999C592.5 31.1684 623.169 0.499836 661 0.499836 698.831 0.499836 729.5 31.1684 729.5 68.9999 729.5 106.831 698.831 137.5 661 137.5 623.169 137.5 592.5 106.831 592.5 68.9999Z" stroke="#FFFFFF" stroke-width="4.58333" stroke-linecap="butt" stroke-linejoin="miter" stroke-miterlimit="8" stroke-opacity="1" fill="#4472C4" fill-rule="evenodd" fill-opacity="1"/><text fill="#FFFFFF" fill-opacity="1" font-family="Calibri,Calibri_MSFontService,sans-serif" font-style="normal" font-variant="normal" font-weight="400" font-stretch="normal" font-size="23" text-anchor="start" direction="ltr" writing-mode="lr-tb" unicode-bidi="normal" text-decoration="none" transform="matrix(1 0 0 1 621.19 75)">onboard</text><path d="M729.787 117.974 742.656 130.844 749.202 124.299 745.709 153.532 716.476 157.025 723.021 150.479 710.151 137.61Z" fill="#B0BCDE" fill-rule="evenodd" fill-opacity="1"/><path d="M738.5 215C738.5 177.168 769.168 146.5 807 146.5 844.831 146.5 875.5 177.168 875.5 215 875.5 252.832 844.831 283.5 807 283.5 769.168 283.5 738.5 252.832 738.5 215Z" stroke="#FFFFFF" stroke-width="4.58333" stroke-linecap="butt" stroke-linejoin="miter" stroke-miterlimit="8" stroke-opacity="1" fill="#4472C4" fill-rule="evenodd" fill-opacity="1"/><text fill="#FFFFFF" fill-opacity="1" font-family="Calibri,Calibri_MSFontService,sans-serif" font-style="normal" font-variant="normal" font-weight="400" font-stretch="normal" font-size="23" text-anchor="start" direction="ltr" writing-mode="lr-tb" unicode-bidi="normal" text-decoration="none" transform="matrix(1 0 0 1 768.623 221)">monitor</text><path d="M756.983 283.141 744.113 296.011 750.658 302.556 721.426 299.063 717.933 269.83 724.478 276.375 737.348 263.506Z" fill="#B0BCDE" fill-rule="evenodd" fill-opacity="1"/><path d="M592.5 360C592.5 322.169 623.169 291.5 661 291.5 698.831 291.5 729.5 322.169 729.5 360 729.5 397.832 698.831 428.5 661 428.5 623.169 428.5 592.5 397.832 592.5 360Z" stroke="#FFFFFF" stroke-width="4.58333" stroke-linecap="butt" stroke-linejoin="miter" stroke-miterlimit="8" stroke-opacity="1" fill="#4472C4" fill-rule="evenodd" fill-opacity="1"/><text fill="#FFFFFF" fill-opacity="1" font-family="Calibri,Calibri_MSFontService,sans-serif" font-style="normal" font-variant="normal" font-weight="400" font-stretch="normal" font-size="23" text-anchor="start" direction="ltr" writing-mode="lr-tb" unicode-bidi="normal" text-decoration="none" transform="matrix(1 0 0 1 630.85 349)">detect</text><text fill="#FFFFFF" fill-opacity="1" font-family="Calibri,Calibri_MSFontService,sans-serif" font-style="normal" font-variant="normal" font-weight="400" font-stretch="normal" font-size="23" text-anchor="start" direction="ltr" writing-mode="lr-tb" unicode-bidi="normal" text-decoration="none" transform="matrix(1 0 0 1 631.652 384)">debug</text><path d="M591.817 310.337 578.947 297.468 572.402 304.013 575.895 274.78 605.127 271.287 598.582 277.832 611.452 290.702Z" fill="#B0BCDE" fill-rule="evenodd" fill-opacity="1"/><path d="M447.5 215C447.5 177.168 478.169 146.5 516 146.5 553.831 146.5 584.5 177.168 584.5 215 584.5 252.832 553.831 283.5 516 283.5 478.169 283.5 447.5 252.832 447.5 215Z" stroke="#FFFFFF" stroke-width="4.58333" stroke-linecap="butt" stroke-linejoin="miter" stroke-miterlimit="8" stroke-opacity="1" fill="#4472C4" fill-rule="evenodd" fill-opacity="1"/><text fill="#FFFFFF" fill-opacity="1" font-family="Calibri,Calibri_MSFontService,sans-serif" font-style="normal" font-variant="normal" font-weight="400" font-stretch="normal" font-size="23" text-anchor="start" direction="ltr" writing-mode="lr-tb" unicode-bidi="normal" text-decoration="none" transform="matrix(1 0 0 1 496.628 221)">rma</text><path d="M564.62 145.171 577.49 132.301 570.945 125.756 600.178 129.249 603.671 158.482 597.125 151.937 584.256 164.807Z" fill="#B0BCDE" fill-rule="evenodd" fill-opacity="1"/></g></g></svg>