<?xml version="1.0" encoding="UTF-8" standalone="no"?>
<!DOCTYPE svg PUBLIC "-//W3C//DTD SVG 1.1//EN" "http://www.w3.org/Graphics/SVG/1.1/DTD/svg11.dtd">
<!-- Generated by Microsoft Visio, SVG Export ssip_add_flow.svg Page-7 -->
<svg xmlns="http://www.w3.org/2000/svg" xmlns:xlink="http://www.w3.org/1999/xlink" xmlns:ev="http://www.w3.org/2001/xml-events"
		width="13.506in" height="10.2159in" viewBox="0 0 972.433 735.544" xml:space="preserve" color-interpolation-filters="sRGB"
		class="st13">
	<title>ssip add flow</title>

	<style type="text/css">
	<![CDATA[
		.st1 {fill:#5b9bd5;stroke:#000000;stroke-linecap:round;stroke-linejoin:round;stroke-width:1}
		.st2 {stroke:#000000;stroke-dasharray:7,5;stroke-linecap:round;stroke-linejoin:round;stroke-width:1}
		.st3 {fill:#ffffff;font-family:Segoe UI;font-size:1.00001em;font-weight:bold}
		.st4 {font-size:1em}
		.st5 {fill:#af5200;stroke:#a54d00;stroke-linecap:round;stroke-linejoin:round;stroke-width:0.5}
		.st6 {marker-end:url(#mrkr4-62);stroke:#a54d00;stroke-linecap:round;stroke-linejoin:round;stroke-width:1}
		.st7 {fill:#a54d00;fill-opacity:1;stroke:#a54d00;stroke-opacity:1;stroke-width:0.23584905660377}
		.st8 {fill:#ffffff;stroke:none;stroke-linecap:butt;stroke-width:7.2}
		.st9 {fill:#803a00;font-family:Segoe UI;font-size:1.00001em;font-weight:bold}
		.st10 {fill:#70ad47;stroke:#70ad47;stroke-linecap:round;stroke-linejoin:round;stroke-width:0.5}
		.st11 {marker-end:url(#mrkr3-90);stroke:#a54d00;stroke-dasharray:7,5;stroke-linecap:round;stroke-linejoin:round;stroke-width:1}
		.st12 {fill:#ffffff;stroke:none;stroke-linecap:butt}
		.st13 {fill:none;fill-rule:evenodd;font-size:12px;overflow:visible;stroke-linecap:square;stroke-miterlimit:3}
	]]>
	</style>

	<defs id="Markers">
		<g id="lend4">
			<path d="M 2 1 L 0 0 L 2 -1 L 2 1 " style="stroke:none"/>
		</g>
		<marker id="mrkr4-62" class="st7" refX="-8.48" orient="auto" markerUnits="strokeWidth" overflow="visible">
			<use xlink:href="#lend4" transform="scale(-4.24,-4.24) "/>
		</marker>
		<g id="lend3">
			<path d="M 2 1 L 0 0 L 2 -1 " style="stroke-linecap:round;stroke-linejoin:round;fill:none"/>
		</g>
		<marker id="mrkr3-90" class="st7" orient="auto" markerUnits="strokeWidth" overflow="visible">
			<use xlink:href="#lend3" transform="scale(-4.24,-4.24) "/>
		</marker>
	</defs>
	<g>
		<title>Page-7</title>
		<g id="group1045-1" transform="translate(301.965,-636.965)">
			<title>Actor lifeline.1378</title>
			<desc>config- db</desc>
			<g id="shape1046-2" transform="translate(17.0079,-8.50394)">
				<title>Sheet.1046</title>
				<rect x="0" y="710.032" width="51.0236" height="25.5118" class="st1"/>
			</g>
			<g id="shape1047-4" transform="translate(34.0157,-46.063)">
				<title>Sheet.1047</title>
				<path d="M8.5 735.54 a6.99441E-15 0 0 1 1 -1.42109E-14 0 a6.99441E-15 0 0 1 1 1.42109E-14 0 Z" class="st1"/>
			</g>
			<g id="shape1048-6" transform="translate(28.3465,618.965)">
				<title>Sheet.1048</title>
			</g>
			<g id="shape1049-8" transform="translate(778.064,735.544) rotate(90)">
				<title>Sheet.1049</title>
				<path d="M0 735.54 L595.28 735.54" class="st2"/>
			</g>
			<g id="shape1045-11">
				<rect x="0" y="693.024" width="85.0394" height="42.5197" class="st1"/>
				<text x="22.2" y="710.68" class="st3">config- <tspan x="35.08" dy="1.2em" class="st4">db</tspan></text>			</g>
		</g>
		<g id="group1050-15" transform="translate(585.429,-636.965)">
			<title>Object lifeline.1383</title>
			<desc>rsyslog-config</desc>
			<g id="shape1051-16" transform="translate(17.0079,-8.50394)">
				<title>Sheet.1051</title>
				<rect x="0" y="710.032" width="51.0236" height="25.5118" class="st1"/>
			</g>
			<g id="shape1052-18" transform="translate(34.0157,-46.063)">
				<title>Sheet.1052</title>
				<path d="M8.5 735.54 a0 0 0 1 1 0 0 a0 0 0 1 1 0 0 Z" class="st1"/>
			</g>
			<g id="shape1053-20" transform="translate(28.3465,618.965)">
				<title>Sheet.1053</title>
			</g>
			<g id="shape1054-22" transform="translate(778.064,735.544) rotate(90)">
				<title>Sheet.1054</title>
				<path d="M0 735.54 L595.28 735.54" class="st2"/>
			</g>
			<g id="shape1050-25">
				<rect x="0" y="693.024" width="85.0394" height="42.5197" class="st1"/>
				<text x="20.11" y="710.68" class="st3">rsyslog-<tspan x="24.62" dy="1.2em" class="st4">config</tspan></text>			</g>
		</g>
		<g id="group1055-29" transform="translate(868.894,-637.073)">
			<title>Object lifeline.1388</title>
			<desc>rsyslog</desc>
			<g id="shape1056-30" transform="translate(17.0079,-8.50394)">
				<title>Sheet.1056</title>
				<rect x="0" y="710.032" width="51.0236" height="25.5118" class="st1"/>
			</g>
			<g id="shape1057-32" transform="translate(34.0157,-46.063)">
				<title>Sheet.1057</title>
				<path d="M8.5 735.54 a0 0 0 1 1 0 0 a0 0 0 1 1 0 0 Z" class="st1"/>
			</g>
			<g id="shape1058-34" transform="translate(28.3465,619.073)">
				<title>Sheet.1058</title>
			</g>
			<g id="shape1059-36" transform="translate(778.064,735.544) rotate(90)">
				<title>Sheet.1059</title>
				<path d="M0 735.54 L595.38 735.54" class="st2"/>
			</g>
			<g id="shape1055-39">
				<rect x="0" y="693.024" width="85.0394" height="42.5197" class="st1"/>
				<text x="22.54" y="717.88" class="st3">rsyslog</text>			</g>
		</g>
		<g id="group1060-42" transform="translate(18.5,-636.965)">
			<title>Actor lifeline.1087</title>
			<desc>CLI</desc>
			<g id="shape1061-43" transform="translate(17.0079,-8.50394)">
				<title>Sheet.1061</title>
				<rect x="0" y="710.032" width="51.0236" height="25.5118" class="st1"/>
			</g>
			<g id="shape1062-45" transform="translate(34.0157,-46.063)">
				<title>Sheet.1062</title>
				<path d="M3.4 735.54 L3.4 718.54 L3.4 725.34 L0 725.34 L0 711.73 L1.7 710.03 L15.31 710.03 L17.01 711.73 L17.01 725.34
							 L13.61 725.34 L13.61 718.54 L13.61 735.54 L8.5 735.54 L8.5 721.94 L8.5 735.54 L3.4 735.54 ZM11.91 704.93
							 A3.40157 3.40157 -180 1 0 5.1 704.93 A3.40157 3.40157 -180 1 0 11.91 704.93 Z" class="st1"/>
			</g>
			<g id="shape1063-47" transform="translate(28.3465,618.965)">
				<title>Sheet.1063</title>
			</g>
			<g id="shape1064-49" transform="translate(778.064,735.544) rotate(90)">
				<title>Sheet.1064</title>
				<path d="M0 735.54 L595.28 735.54" class="st2"/>
			</g>
			<g id="shape1060-52">
				<rect x="0" y="693.024" width="85.0394" height="42.5197" class="st1"/>
				<text x="33.81" y="717.88" class="st3">CLI</text>			</g>
		</g>
		<g id="shape1066-55" transform="translate(-670.272,183.618) rotate(-90)">
			<title>Activation.1098</title>
			<rect x="0" y="727.04" width="56.6929" height="8.50394" class="st5"/>
		</g>
		<g id="shape1067-57" transform="translate(72.3583,-608.619)">
			<title>Self Message.1099</title>
			<desc>process data</desc>
			<path d="M-7.09 735.54 L10.91 735.54 L10.91 792.24 L1.39 792.24" class="st6"/>
			<rect x="7.17552" y="756.69" width="70.6885" height="14.4001" class="st8"/>
			<text x="7.18" y="767.49" class="st9">process data</text>		</g>
		<g id="shape1068-65" transform="translate(-670.272,382.043) rotate(-90)">
			<title>Activation.1102</title>
			<rect x="0" y="727.04" width="170.079" height="8.50394" class="st5"/>
		</g>
		<g id="shape1069-67" transform="translate(60.3111,-523.579)">
			<title>Self Message.1103</title>
			<desc>add syslog server</desc>
			<path d="M4.96 735.54 L27.21 735.54 L27.21 763.89 L17.69 763.89" class="st6"/>
			<rect x="24.268" y="742.517" width="97.4482" height="14.4001" class="st8"/>
			<text x="24.27" y="753.32" class="st9">add syslog server</text>		</g>
		<g id="shape1070-74" transform="translate(-666.02,353.697) rotate(-90)">
			<title>Activation.1104</title>
			<rect x="0" y="727.04" width="113.386" height="8.50394" class="st10"/>
		</g>
		<g id="shape1071-76" transform="translate(69.5237,-459.8)">
			<title>Message.1105</title>
			<desc>HMSET SYSLOG_SERVER|key</desc>
			<path d="M0 728.46 L262.23 728.46" class="st6"/>
			<rect x="55.1736" y="721.257" width="160.362" height="14.4001" class="st8"/>
			<text x="55.17" y="732.06" class="st9">HMSET SYSLOG_SERVER|key</text>		</g>
		<g id="shape1072-83" transform="translate(-386.808,325.35) rotate(-90)">
			<title>Activation.1106</title>
			<rect x="0" y="727.04" width="56.6929" height="8.50394" class="st5"/>
		</g>
		<g id="shape1073-85" transform="translate(340.232,-403.107)">
			<title>Return Message.1107</title>
			<path d="M0 728.46 L-270.71 728.46" class="st11"/>
		</g>
		<g id="shape1074-91" transform="translate(-670.272,665.508) rotate(-90)">
			<title>Activation.1162</title>
			<rect x="0" y="727.04" width="255.118" height="8.50394" class="st5"/>
		</g>
		<g id="shape1075-93" transform="translate(65.2717,-318.067)">
			<title>Message.1165</title>
			<desc>systemctl restart rsyslog-config</desc>
			<path d="M0 728.46 L549.95 728.46" class="st6"/>
			<rect x="190.53" y="721.257" width="177.365" height="14.4001" class="st12"/>
			<text x="190.53" y="732.06" class="st9">systemctl restart rsyslog-config</text>		</g>
		<g id="shape1076-100" transform="translate(623.697,-77.1226)">
			<title>Return Message.1167</title>
			<path d="M0 742.63 L-558.43 742.63" class="st11"/>
		</g>
		<g id="shape1077-105" transform="translate(-103.343,580.469) rotate(-90)">
			<title>Activation.1188</title>
			<rect x="0" y="727.04" width="170.079" height="8.50394" class="st5"/>
		</g>
		<g id="shape1078-107" transform="translate(627.24,-325.154)">
			<title>Self Message.1189</title>
			<desc>generate rsyslogd config</desc>
			<path d="M4.96 735.54 L27.21 735.54 L27.21 763.89 L17.69 763.89" class="st6"/>
			<rect x="23.602" y="742.517" width="139.883" height="14.4001" class="st8"/>
			<text x="23.6" y="753.32" class="st9">generate rsyslogd config</text>		</g>
		<g id="shape1079-114" transform="translate(-99.091,552.122) rotate(-90)">
			<title>Activation.1190</title>
			<rect x="0" y="727.04" width="113.386" height="8.50394" class="st10"/>
		</g>
		<g id="shape1080-116" transform="translate(623.697,-275.548)">
			<title>Message.1191</title>
			<desc>HGETALL SYSLOG_SERVER|key</desc>
			<path d="M0 742.63 L-266.48 742.63" class="st6"/>
			<rect x="-223.175" y="735.431" width="171.389" height="14.4001" class="st12"/>
			<text x="-223.17" y="746.23" class="st9">HGETALL SYSLOG_SERVER|key</text>		</g>
		<g id="shape1081-123" transform="translate(-386.808,523.776) rotate(-90)">
			<title>Activation.1192</title>
			<rect x="0" y="727.04" width="56.6929" height="8.50394" class="st5"/>
		</g>
		<g id="shape1082-125" transform="translate(348.736,-204.682)">
			<title>Return Message.1193</title>
			<path d="M0 728.46 L274.96 728.46" class="st11"/>
		</g>
		<g id="shape1083-130" transform="translate(-103.343,665.508) rotate(-90)">
			<title>Activation.1196</title>
			<rect x="0" y="727.04" width="56.6929" height="8.50394" class="st5"/>
		</g>
		<g id="shape1084-132" transform="translate(632.201,-133.816)">
			<title>Message.1198</title>
			<desc>systemctl restart rsyslog</desc>
			<path d="M0 742.63 L266.48 742.63" class="st6"/>
			<rect x="69.1213" y="735.431" width="136.718" height="14.4001" class="st12"/>
			<text x="69.12" y="746.23" class="st9">systemctl restart rsyslog</text>		</g>
		<g id="shape1085-139" transform="translate(907.161,-62.9494)">
			<title>Return Message.1199</title>
			<path d="M0 728.46 L-274.96 728.46" class="st11"/>
		</g>
		<g id="shape1086-144" transform="translate(180.121,665.508) rotate(-90)">
			<title>Activation.1200</title>
			<rect x="0" y="727.04" width="56.6929" height="8.50394" class="st5"/>
		</g>
	</g>
</svg>
