<?xml version="1.0" encoding="UTF-8" standalone="no"?>
<!DOCTYPE svg PUBLIC "-//W3C//DTD SVG 1.1//EN" "http://www.w3.org/Graphics/SVG/1.1/DTD/svg11.dtd">
<!-- Generated by Microsoft Visio, SVG Export ssip_remove_flow.svg Page-8 -->
<svg xmlns="http://www.w3.org/2000/svg" xmlns:xlink="http://www.w3.org/1999/xlink" xmlns:ev="http://www.w3.org/2001/xml-events"
		width="13.506in" height="10.2159in" viewBox="0 0 972.433 735.544" xml:space="preserve" color-interpolation-filters="sRGB"
		class="st12">
	<title>ssip remove flow</title>

	<style type="text/css">
	<![CDATA[
		.st1 {fill:#5b9bd5;stroke:#000000;stroke-linecap:round;stroke-linejoin:round;stroke-width:1}
		.st2 {stroke:#000000;stroke-dasharray:7,5;stroke-linecap:round;stroke-linejoin:round;stroke-width:1}
		.st3 {fill:#ffffff;font-family:Segoe UI;font-size:1.00001em;font-weight:bold}
		.st4 {font-size:1em}
		.st5 {fill:#af5200;stroke:#a54d00;stroke-linecap:round;stroke-linejoin:round;stroke-width:0.5}
		.st6 {marker-end:url(#mrkr4-62);stroke:#a54d00;stroke-linecap:round;stroke-linejoin:round;stroke-width:1}
		.st7 {fill:#a54d00;fill-opacity:1;stroke:#a54d00;stroke-opacity:1;stroke-width:0.23584905660377}
		.st8 {fill:#ffffff;stroke:none;stroke-linecap:butt;stroke-width:7.2}
		.st9 {fill:#803a00;font-family:Segoe UI;font-size:1.00001em;font-weight:bold}
		.st10 {fill:#70ad47;stroke:#70ad47;stroke-linecap:round;stroke-linejoin:round;stroke-width:0.5}
		.st11 {marker-end:url(#mrkr3-90);stroke:#a54d00;stroke-dasharray:7,5;stroke-linecap:round;stroke-linejoin:round;stroke-width:1}
		.st12 {fill:none;fill-rule:evenodd;font-size:12px;overflow:visible;stroke-linecap:square;stroke-miterlimit:3}
	]]>
	</style>

	<defs id="Markers">
		<g id="lend4">
			<path d="M 2 1 L 0 0 L 2 -1 L 2 1 " style="stroke:none"/>
		</g>
		<marker id="mrkr4-62" class="st7" refX="-8.48" orient="auto" markerUnits="strokeWidth" overflow="visible">
			<use xlink:href="#lend4" transform="scale(-4.24,-4.24) "/>
		</marker>
		<g id="lend3">
			<path d="M 2 1 L 0 0 L 2 -1 " style="stroke-linecap:round;stroke-linejoin:round;fill:none"/>
		</g>
		<marker id="mrkr3-90" class="st7" orient="auto" markerUnits="strokeWidth" overflow="visible">
			<use xlink:href="#lend3" transform="scale(-4.24,-4.24) "/>
		</marker>
	</defs>
	<g>
		<title>Page-8</title>
		<g id="group1004-1" transform="translate(301.965,-636.965)">
			<title>Actor lifeline.1203</title>
			<desc>config- db</desc>
			<g id="shape1005-2" transform="translate(17.0079,-8.50394)">
				<title>Sheet.1005</title>
				<rect x="0" y="710.032" width="51.0236" height="25.5118" class="st1"/>
			</g>
			<g id="shape1006-4" transform="translate(34.0157,-46.063)">
				<title>Sheet.1006</title>
				<path d="M8.5 735.54 a6.99441E-15 0 0 1 1 -1.42109E-14 0 a6.99441E-15 0 0 1 1 1.42109E-14 0 Z" class="st1"/>
			</g>
			<g id="shape1007-6" transform="translate(28.3465,618.965)">
				<title>Sheet.1007</title>
			</g>
			<g id="shape1008-8" transform="translate(778.064,735.544) rotate(90)">
				<title>Sheet.1008</title>
				<path d="M0 735.54 L595.28 735.54" class="st2"/>
			</g>
			<g id="shape1004-11">
				<rect x="0" y="693.024" width="85.0394" height="42.5197" class="st1"/>
				<text x="22.2" y="710.68" class="st3">config- <tspan x="35.08" dy="1.2em" class="st4">db</tspan></text>			</g>
		</g>
		<g id="group1009-15" transform="translate(585.429,-636.965)">
			<title>Object lifeline.1208</title>
			<desc>rsyslog-config</desc>
			<g id="shape1010-16" transform="translate(17.0079,-8.50394)">
				<title>Sheet.1010</title>
				<rect x="0" y="710.032" width="51.0236" height="25.5118" class="st1"/>
			</g>
			<g id="shape1011-18" transform="translate(34.0157,-46.063)">
				<title>Sheet.1011</title>
				<path d="M8.5 735.54 a0 0 0 1 1 0 0 a0 0 0 1 1 0 0 Z" class="st1"/>
			</g>
			<g id="shape1012-20" transform="translate(28.3465,618.965)">
				<title>Sheet.1012</title>
			</g>
			<g id="shape1013-22" transform="translate(778.064,735.544) rotate(90)">
				<title>Sheet.1013</title>
				<path d="M0 735.54 L595.28 735.54" class="st2"/>
			</g>
			<g id="shape1009-25">
				<rect x="0" y="693.024" width="85.0394" height="42.5197" class="st1"/>
				<text x="20.11" y="710.68" class="st3">rsyslog-<tspan x="24.62" dy="1.2em" class="st4">config</tspan></text>			</g>
		</g>
		<g id="group1014-29" transform="translate(868.894,-638.49)">
			<title>Object lifeline.1213</title>
			<desc>rsyslog</desc>
			<g id="shape1015-30" transform="translate(17.0079,-8.50394)">
				<title>Sheet.1015</title>
				<rect x="0" y="710.032" width="51.0236" height="25.5118" class="st1"/>
			</g>
			<g id="shape1016-32" transform="translate(34.0157,-46.063)">
				<title>Sheet.1016</title>
				<path d="M8.5 735.54 a0 0 0 1 1 0 0 a0 0 0 1 1 0 0 Z" class="st1"/>
			</g>
			<g id="shape1017-34" transform="translate(28.3465,620.49)">
				<title>Sheet.1017</title>
			</g>
			<g id="shape1018-36" transform="translate(778.064,735.544) rotate(90)">
				<title>Sheet.1018</title>
				<path d="M0 735.54 L596.8 735.54" class="st2"/>
			</g>
			<g id="shape1014-39">
				<rect x="0" y="693.024" width="85.0394" height="42.5197" class="st1"/>
				<text x="22.54" y="717.88" class="st3">rsyslog</text>			</g>
		</g>
		<g id="group1019-42" transform="translate(18.5,-636.965)">
			<title>Actor lifeline.1252</title>
			<desc>CLI</desc>
			<g id="shape1020-43" transform="translate(17.0079,-8.50394)">
				<title>Sheet.1020</title>
				<rect x="0" y="710.032" width="51.0236" height="25.5118" class="st1"/>
			</g>
			<g id="shape1021-45" transform="translate(34.0157,-46.063)">
				<title>Sheet.1021</title>
				<path d="M3.4 735.54 L3.4 718.54 L3.4 725.34 L0 725.34 L0 711.73 L1.7 710.03 L15.31 710.03 L17.01 711.73 L17.01 725.34
							 L13.61 725.34 L13.61 718.54 L13.61 735.54 L8.5 735.54 L8.5 721.94 L8.5 735.54 L3.4 735.54 ZM11.91 704.93
							 A3.40157 3.40157 -180 1 0 5.1 704.93 A3.40157 3.40157 -180 1 0 11.91 704.93 Z" class="st1"/>
			</g>
			<g id="shape1022-47" transform="translate(28.3465,618.965)">
				<title>Sheet.1022</title>
			</g>
			<g id="shape1023-49" transform="translate(778.064,735.544) rotate(90)">
				<title>Sheet.1023</title>
				<path d="M0 735.54 L595.28 735.54" class="st2"/>
			</g>
			<g id="shape1019-52">
				<rect x="0" y="693.024" width="85.0394" height="42.5197" class="st1"/>
				<text x="33.81" y="717.88" class="st3">CLI</text>			</g>
		</g>
		<g id="shape1024-55" transform="translate(-670.272,183.618) rotate(-90)">
			<title>Activation.1270</title>
			<rect x="0" y="727.04" width="56.6929" height="8.50394" class="st5"/>
		</g>
		<g id="shape1025-57" transform="translate(58.1851,-608.619)">
			<title>Self Message.1271</title>
			<desc>process data</desc>
			<path d="M7.09 735.54 L25.09 735.54 L25.09 792.24 L15.57 792.24" class="st6"/>
			<rect x="21.3487" y="756.69" width="70.6885" height="14.4001" class="st8"/>
			<text x="21.35" y="767.49" class="st9">process data</text>		</g>
		<g id="shape1026-65" transform="translate(-670.272,382.043) rotate(-90)">
			<title>Activation.1272</title>
			<rect x="0" y="727.04" width="170.079" height="8.50394" class="st5"/>
		</g>
		<g id="shape1027-67" transform="translate(60.3111,-523.579)">
			<title>Self Message.1273</title>
			<desc>remove syslog server</desc>
			<path d="M4.96 735.54 L27.21 735.54 L27.21 763.89 L17.69 763.89" class="st6"/>
			<rect x="24.4017" y="742.517" width="118.724" height="14.4001" class="st8"/>
			<text x="24.4" y="753.32" class="st9">remove syslog server</text>		</g>
		<g id="shape1028-74" transform="translate(-666.02,353.697) rotate(-90)">
			<title>Activation.1274</title>
			<rect x="0" y="727.04" width="113.386" height="8.50394" class="st10"/>
		</g>
		<g id="shape1029-76" transform="translate(69.5237,-473.973)">
			<title>Message.1275</title>
			<desc>DEL SYSLOG_SERVER|key</desc>
			<path d="M0 742.63 L262.23 742.63" class="st6"/>
			<rect x="64.9002" y="735.431" width="140.908" height="14.4001" class="st8"/>
			<text x="64.9" y="746.23" class="st9">DEL SYSLOG_SERVER|key</text>		</g>
		<g id="shape1030-83" transform="translate(-386.808,325.35) rotate(-90)">
			<title>Activation.1276</title>
			<rect x="0" y="727.04" width="56.6929" height="8.50394" class="st5"/>
		</g>
		<g id="shape1031-85" transform="translate(340.232,-403.107)">
			<title>Return Message.1277</title>
			<path d="M0 728.46 L-270.71 728.46" class="st11"/>
		</g>
		<g id="shape1032-91" transform="translate(-670.272,665.508) rotate(-90)">
			<title>Activation.1278</title>
			<rect x="0" y="727.04" width="255.118" height="8.50394" class="st5"/>
		</g>
		<g id="shape1033-93" transform="translate(65.2717,-318.068)">
			<title>Message.1279</title>
			<desc>systemctl restart rsyslog-config</desc>
			<path d="M0 728.46 L549.95 728.46" class="st6"/>
			<rect x="190.53" y="721.257" width="177.365" height="14.4001" class="st8"/>
			<text x="190.53" y="732.06" class="st9">systemctl restart rsyslog-config</text>		</g>
		<g id="shape1034-100" transform="translate(623.697,-77.1227)">
			<title>Return Message.1280</title>
			<path d="M0 742.63 L-558.43 742.63" class="st11"/>
		</g>
		<g id="shape1035-105" transform="translate(-103.343,580.469) rotate(-90)">
			<title>Activation.1285</title>
			<rect x="0" y="727.04" width="170.079" height="8.50394" class="st5"/>
		</g>
		<g id="shape1036-107" transform="translate(627.24,-325.154)">
			<title>Self Message.1286</title>
			<desc>generate rsyslogd config</desc>
			<path d="M4.96 735.54 L27.21 735.54 L27.21 763.89 L17.69 763.89" class="st6"/>
			<rect x="23.602" y="742.517" width="139.883" height="14.4001" class="st8"/>
			<text x="23.6" y="753.32" class="st9">generate rsyslogd config</text>		</g>
		<g id="shape1037-114" transform="translate(-99.0911,552.122) rotate(-90)">
			<title>Activation.1287</title>
			<rect x="0" y="727.04" width="113.386" height="8.50394" class="st10"/>
		</g>
		<g id="shape1038-116" transform="translate(623.697,-275.548)">
			<title>Message.1288</title>
			<desc>HGETALL SYSLOG_SERVER|key</desc>
			<path d="M0 742.63 L-266.48 742.63" class="st6"/>
			<rect x="-223.175" y="735.431" width="171.389" height="14.4001" class="st8"/>
			<text x="-223.17" y="746.23" class="st9">HGETALL SYSLOG_SERVER|key</text>		</g>
		<g id="shape1039-123" transform="translate(-386.808,523.776) rotate(-90)">
			<title>Activation.1289</title>
			<rect x="0" y="727.04" width="56.6929" height="8.50394" class="st5"/>
		</g>
		<g id="shape1040-125" transform="translate(348.736,-204.682)">
			<title>Return Message.1111</title>
			<path d="M0 728.46 L274.96 728.46" class="st11"/>
		</g>
		<g id="shape1041-130" transform="translate(-103.343,665.508) rotate(-90)">
			<title>Activation.1112</title>
			<rect x="0" y="727.04" width="56.6929" height="8.50394" class="st5"/>
		</g>
		<g id="shape1042-132" transform="translate(632.201,-133.816)">
			<title>Message.1292</title>
			<desc>systemctl restart rsyslog</desc>
			<path d="M0 742.63 L266.48 742.63" class="st6"/>
			<rect x="69.1213" y="735.431" width="136.718" height="14.4001" class="st8"/>
			<text x="69.12" y="746.23" class="st9">systemctl restart rsyslog</text>		</g>
		<g id="shape1043-139" transform="translate(907.161,-62.9494)">
			<title>Return Message.1293</title>
			<path d="M0 728.46 L-274.96 728.46" class="st11"/>
		</g>
		<g id="shape1044-144" transform="translate(180.121,665.508) rotate(-90)">
			<title>Activation.1294</title>
			<rect x="0" y="727.04" width="56.6929" height="8.50394" class="st5"/>
		</g>
	</g>
</svg>
