<svg id="mermaid-1774428212407-ggb5yy6" width="100%" xmlns="http://www.w3.org/2000/svg" style="max-width: 2001px;" viewBox="-50 -10 2001 3554" role="graphics-document document" aria-roledescription="sequence"><g><rect x="1751" y="3468" fill="#eaeaea" stroke="#666" width="150" height="65" name="IDMgr" rx="3" ry="3" class="actor actor-bottom"></rect><text x="1826" y="3500.5" dominant-baseline="central" alignment-baseline="central" class="actor actor-box" style="text-anchor: middle; font-size: 16px; font-weight: 400; font-family: inherit;"><tspan x="1826" dy="0">SonicIDMgr</tspan></text></g><g><rect x="1551" y="3468" fill="#eaeaea" stroke="#666" width="150" height="65" name="DB" rx="3" ry="3" class="actor actor-bottom"></rect><text x="1626" y="3500.5" dominant-baseline="central" alignment-baseline="central" class="actor actor-box" style="text-anchor: middle; font-size: 16px; font-weight: 400; font-family: inherit;"><tspan x="1626" dy="0">APP_DB</tspan></text></g><g><rect x="1193" y="3468" fill="#eaeaea" stroke="#666" width="204" height="65" name="SONIC" rx="3" ry="3" class="actor actor-bottom"></rect><text x="1295" y="3500.5" dominant-baseline="central" alignment-baseline="central" class="actor actor-box" style="text-anchor: middle; font-size: 16px; font-weight: 400; font-family: inherit;"><tspan x="1295" dy="0">SonicGateWayNHGTable</tspan></text></g><g><rect x="993" y="3468" fill="#eaeaea" stroke="#666" width="150" height="65" name="RIB" rx="3" ry="3" class="actor actor-bottom"></rect><text x="1068" y="3500.5" dominant-baseline="central" alignment-baseline="central" class="actor actor-box" style="text-anchor: middle; font-size: 16px; font-weight: 400; font-family: inherit;"><tspan x="1068" dy="0">RIBNHGTable</tspan></text></g><g><rect x="756" y="3468" fill="#eaeaea" stroke="#666" width="150" height="65" name="NHG" rx="3" ry="3" class="actor actor-bottom"></rect><text x="831" y="3500.5" dominant-baseline="central" alignment-baseline="central" class="actor actor-box" style="text-anchor: middle; font-size: 16px; font-weight: 400; font-family: inherit;"><tspan x="831" dy="0">NHGMgr</tspan></text></g><g><rect x="556" y="3468" fill="#eaeaea" stroke="#666" width="150" height="65" name="RS" rx="3" ry="3" class="actor actor-bottom"></rect><text x="631" y="3500.5" dominant-baseline="central" alignment-baseline="central" class="actor actor-box" style="text-anchor: middle; font-size: 16px; font-weight: 400; font-family: inherit;"><tspan x="631" dy="0">RouteSync</tspan></text></g><g><rect x="309" y="3468" fill="#eaeaea" stroke="#666" width="150" height="65" name="NL" rx="3" ry="3" class="actor actor-bottom"></rect><text x="384" y="3500.5" dominant-baseline="central" alignment-baseline="central" class="actor actor-box" style="text-anchor: middle; font-size: 16px; font-weight: 400; font-family: inherit;"><tspan x="384" dy="0">Netlink Socket</tspan></text></g><g><rect x="0" y="3468" fill="#eaeaea" stroke="#666" width="150" height="65" name="FRR" rx="3" ry="3" class="actor actor-bottom"></rect><text x="75" y="3500.5" dominant-baseline="central" alignment-baseline="central" class="actor actor-box" style="text-anchor: middle; font-size: 16px; font-weight: 400; font-family: inherit;"><tspan x="75" dy="0">FRR/zebra</tspan></text></g><g><line id="actor7" x1="1826" y1="65" x2="1826" y2="3468" class="actor-line 200" stroke-width="0.5px" stroke="#999" name="IDMgr"></line><g id="root-7"><rect x="1751" y="0" fill="#eaeaea" stroke="#666" width="150" height="65" name="IDMgr" rx="3" ry="3" class="actor actor-top"></rect><text x="1826" y="32.5" dominant-baseline="central" alignment-baseline="central" class="actor actor-box" style="text-anchor: middle; font-size: 16px; font-weight: 400; font-family: inherit;"><tspan x="1826" dy="0">SonicIDMgr</tspan></text></g></g><g><line id="actor6" x1="1626" y1="65" x2="1626" y2="3468" class="actor-line 200" stroke-width="0.5px" stroke="#999" name="DB"></line><g id="root-6"><rect x="1551" y="0" fill="#eaeaea" stroke="#666" width="150" height="65" name="DB" rx="3" ry="3" class="actor actor-top"></rect><text x="1626" y="32.5" dominant-baseline="central" alignment-baseline="central" class="actor actor-box" style="text-anchor: middle; font-size: 16px; font-weight: 400; font-family: inherit;"><tspan x="1626" dy="0">APP_DB</tspan></text></g></g><g><line id="actor5" x1="1295" y1="65" x2="1295" y2="3468" class="actor-line 200" stroke-width="0.5px" stroke="#999" name="SONIC"></line><g id="root-5"><rect x="1193" y="0" fill="#eaeaea" stroke="#666" width="204" height="65" name="SONIC" rx="3" ry="3" class="actor actor-top"></rect><text x="1295" y="32.5" dominant-baseline="central" alignment-baseline="central" class="actor actor-box" style="text-anchor: middle; font-size: 16px; font-weight: 400; font-family: inherit;"><tspan x="1295" dy="0">SonicGateWayNHGTable</tspan></text></g></g><g><line id="actor4" x1="1068" y1="65" x2="1068" y2="3468" class="actor-line 200" stroke-width="0.5px" stroke="#999" name="RIB"></line><g id="root-4"><rect x="993" y="0" fill="#eaeaea" stroke="#666" width="150" height="65" name="RIB" rx="3" ry="3" class="actor actor-top"></rect><text x="1068" y="32.5" dominant-baseline="central" alignment-baseline="central" class="actor actor-box" style="text-anchor: middle; font-size: 16px; font-weight: 400; font-family: inherit;"><tspan x="1068" dy="0">RIBNHGTable</tspan></text></g></g><g><line id="actor3" x1="831" y1="65" x2="831" y2="3468" class="actor-line 200" stroke-width="0.5px" stroke="#999" name="NHG"></line><g id="root-3"><rect x="756" y="0" fill="#eaeaea" stroke="#666" width="150" height="65" name="NHG" rx="3" ry="3" class="actor actor-top"></rect><text x="831" y="32.5" dominant-baseline="central" alignment-baseline="central" class="actor actor-box" style="text-anchor: middle; font-size: 16px; font-weight: 400; font-family: inherit;"><tspan x="831" dy="0">NHGMgr</tspan></text></g></g><g><line id="actor2" x1="631" y1="65" x2="631" y2="3468" class="actor-line 200" stroke-width="0.5px" stroke="#999" name="RS"></line><g id="root-2"><rect x="556" y="0" fill="#eaeaea" stroke="#666" width="150" height="65" name="RS" rx="3" ry="3" class="actor actor-top"></rect><text x="631" y="32.5" dominant-baseline="central" alignment-baseline="central" class="actor actor-box" style="text-anchor: middle; font-size: 16px; font-weight: 400; font-family: inherit;"><tspan x="631" dy="0">RouteSync</tspan></text></g></g><g><line id="actor1" x1="384" y1="65" x2="384" y2="3468" class="actor-line 200" stroke-width="0.5px" stroke="#999" name="NL"></line><g id="root-1"><rect x="309" y="0" fill="#eaeaea" stroke="#666" width="150" height="65" name="NL" rx="3" ry="3" class="actor actor-top"></rect><text x="384" y="32.5" dominant-baseline="central" alignment-baseline="central" class="actor actor-box" style="text-anchor: middle; font-size: 16px; font-weight: 400; font-family: inherit;"><tspan x="384" dy="0">Netlink Socket</tspan></text></g></g><g><line id="actor0" x1="75" y1="65" x2="75" y2="3468" class="actor-line 200" stroke-width="0.5px" stroke="#999" name="FRR"></line><g id="root-0"><rect x="0" y="0" fill="#eaeaea" stroke="#666" width="150" height="65" name="FRR" rx="3" ry="3" class="actor actor-top"></rect><text x="75" y="32.5" dominant-baseline="central" alignment-baseline="central" class="actor actor-box" style="text-anchor: middle; font-size: 16px; font-weight: 400; font-family: inherit;"><tspan x="75" dy="0">FRR/zebra</tspan></text></g></g><style>#mermaid-1774428212407-ggb5yy6{font-family:inherit;font-size:16px;fill:#18181b;}@keyframes edge-animation-frame{from{stroke-dashoffset:0;}}@keyframes dash{to{stroke-dashoffset:0;}}#mermaid-1774428212407-ggb5yy6 .edge-animation-slow{stroke-dasharray:9,5!important;stroke-dashoffset:900;animation:dash 50s linear infinite;stroke-linecap:round;}#mermaid-1774428212407-ggb5yy6 .edge-animation-fast{stroke-dasharray:9,5!important;stroke-dashoffset:900;animation:dash 20s linear infinite;stroke-linecap:round;}#mermaid-1774428212407-ggb5yy6 .error-icon{fill:#fafafa;}#mermaid-1774428212407-ggb5yy6 .error-text{fill:#050505;stroke:#050505;}#mermaid-1774428212407-ggb5yy6 .edge-thickness-normal{stroke-width:1px;}#mermaid-1774428212407-ggb5yy6 .edge-thickness-thick{stroke-width:3.5px;}#mermaid-1774428212407-ggb5yy6 .edge-pattern-solid{stroke-dasharray:0;}#mermaid-1774428212407-ggb5yy6 .edge-thickness-invisible{stroke-width:0;fill:none;}#mermaid-1774428212407-ggb5yy6 .edge-pattern-dashed{stroke-dasharray:3;}#mermaid-1774428212407-ggb5yy6 .edge-pattern-dotted{stroke-dasharray:2;}#mermaid-1774428212407-ggb5yy6 .marker{fill:#71717a;stroke:#71717a;}#mermaid-1774428212407-ggb5yy6 .marker.cross{stroke:#71717a;}#mermaid-1774428212407-ggb5yy6 svg{font-family:inherit;font-size:16px;}#mermaid-1774428212407-ggb5yy6 p{margin:0;}#mermaid-1774428212407-ggb5yy6 .actor{stroke:#d4d4d8;fill:#fafafa;}#mermaid-1774428212407-ggb5yy6 text.actor>tspan{fill:#18181b;stroke:none;}#mermaid-1774428212407-ggb5yy6 .actor-line{stroke:#d4d4d8;}#mermaid-1774428212407-ggb5yy6 .innerArc{stroke-width:1.5;stroke-dasharray:none;}#mermaid-1774428212407-ggb5yy6 .messageLine0{stroke-width:1.5;stroke-dasharray:none;stroke:#18181b;}#mermaid-1774428212407-ggb5yy6 .messageLine1{stroke-width:1.5;stroke-dasharray:2,2;stroke:#18181b;}#mermaid-1774428212407-ggb5yy6 #arrowhead path{fill:#18181b;stroke:#18181b;}#mermaid-1774428212407-ggb5yy6 .sequenceNumber{fill:#8e8e85;}#mermaid-1774428212407-ggb5yy6 #sequencenumber{fill:#18181b;}#mermaid-1774428212407-ggb5yy6 #crosshead path{fill:#18181b;stroke:#18181b;}#mermaid-1774428212407-ggb5yy6 .messageText{fill:#18181b;stroke:none;}#mermaid-1774428212407-ggb5yy6 .labelBox{stroke:#d4d4d8;fill:#fafafa;}#mermaid-1774428212407-ggb5yy6 .labelText,#mermaid-1774428212407-ggb5yy6 .labelText>tspan{fill:#18181b;stroke:none;}#mermaid-1774428212407-ggb5yy6 .loopText,#mermaid-1774428212407-ggb5yy6 .loopText>tspan{fill:#18181b;stroke:none;}#mermaid-1774428212407-ggb5yy6 .loopLine{stroke-width:2px;stroke-dasharray:2,2;stroke:#d4d4d8;fill:#d4d4d8;}#mermaid-1774428212407-ggb5yy6 .note{stroke:hsl(52.6829268293, 60%, 73.9215686275%);fill:#fff5ad;}#mermaid-1774428212407-ggb5yy6 .noteText,#mermaid-1774428212407-ggb5yy6 .noteText>tspan{fill:#333;stroke:none;}#mermaid-1774428212407-ggb5yy6 .activation0{fill:#f4f4f5;stroke:hsl(240, 4.7619047619%, 85.8823529412%);}#mermaid-1774428212407-ggb5yy6 .activation1{fill:#f4f4f5;stroke:hsl(240, 4.7619047619%, 85.8823529412%);}#mermaid-1774428212407-ggb5yy6 .activation2{fill:#f4f4f5;stroke:hsl(240, 4.7619047619%, 85.8823529412%);}#mermaid-1774428212407-ggb5yy6 .actorPopupMenu{position:absolute;}#mermaid-1774428212407-ggb5yy6 .actorPopupMenuPanel{position:absolute;fill:#fafafa;box-shadow:0px 8px 16px 0px rgba(0,0,0,0.2);filter:drop-shadow(3px 5px 2px rgb(0 0 0 / 0.4));}#mermaid-1774428212407-ggb5yy6 .actor-man line{stroke:#d4d4d8;fill:#fafafa;}#mermaid-1774428212407-ggb5yy6 .actor-man circle,#mermaid-1774428212407-ggb5yy6 line{stroke:#d4d4d8;fill:#fafafa;stroke-width:2px;}#mermaid-1774428212407-ggb5yy6 :root{--mermaid-font-family:inherit;}</style><g></g><defs><symbol id="computer" width="24" height="24"><path transform="scale(.5)" d="M2 2v13h20v-13h-20zm18 11h-16v-9h16v9zm-10.228 6l.466-1h3.524l.467 1h-4.457zm14.228 3h-24l2-6h2.104l-1.33 4h18.45l-1.297-4h2.073l2 6zm-5-10h-14v-7h14v7z"></path></symbol></defs><defs><symbol id="database" fill-rule="evenodd" clip-rule="evenodd"><path transform="scale(.5)" d="M12.258.001l.256.004.255.005.253.008.251.01.249.012.247.015.246.016.242.019.241.02.239.023.236.024.233.027.231.028.229.031.225.032.223.034.22.036.217.038.214.04.211.041.208.043.205.045.201.046.198.048.194.05.191.051.187.053.183.054.18.056.175.057.172.059.168.06.163.061.16.063.155.064.15.066.074.033.073.033.071.034.07.034.069.035.068.035.067.035.066.035.064.036.064.036.062.036.06.036.06.037.058.037.058.037.055.038.055.038.053.038.052.038.051.039.05.039.048.039.047.039.045.04.044.04.043.04.041.04.04.041.039.041.037.041.036.041.034.041.033.042.032.042.03.042.029.042.027.042.026.043.024.043.023.043.021.043.02.043.018.044.017.043.015.044.013.044.012.044.011.045.009.044.007.045.006.045.004.045.002.045.001.045v17l-.001.045-.002.045-.004.045-.006.045-.007.045-.009.044-.011.045-.012.044-.013.044-.015.044-.017.043-.018.044-.02.043-.021.043-.023.043-.024.043-.026.043-.027.042-.029.042-.03.042-.032.042-.033.042-.034.041-.036.041-.037.041-.039.041-.04.041-.041.04-.043.04-.044.04-.045.04-.047.039-.048.039-.05.039-.051.039-.052.038-.053.038-.055.038-.055.038-.058.037-.058.037-.06.037-.06.036-.062.036-.064.036-.064.036-.066.035-.067.035-.068.035-.069.035-.07.034-.071.034-.073.033-.074.033-.15.066-.155.064-.16.063-.163.061-.168.06-.172.059-.175.057-.18.056-.183.054-.187.053-.191.051-.194.05-.198.048-.201.046-.205.045-.208.043-.211.041-.214.04-.217.038-.22.036-.223.034-.225.032-.229.031-.231.028-.233.027-.236.024-.239.023-.241.02-.242.019-.246.016-.247.015-.249.012-.251.01-.253.008-.255.005-.256.004-.258.001-.258-.001-.256-.004-.255-.005-.253-.008-.251-.01-.249-.012-.247-.015-.245-.016-.243-.019-.241-.02-.238-.023-.236-.024-.234-.027-.231-.028-.228-.031-.226-.032-.223-.034-.22-.036-.217-.038-.214-.04-.211-.041-.208-.043-.204-.045-.201-.046-.198-.048-.195-.05-.19-.051-.187-.053-.184-.054-.179-.056-.176-.057-.172-.059-.167-.06-.164-.061-.159-.063-.155-.064-.151-.066-.074-.033-.072-.033-.072-.034-.07-.034-.069-.035-.068-.035-.067-.035-.066-.035-.064-.036-.063-.036-.062-.036-.061-.036-.06-.037-.058-.037-.057-.037-.056-.038-.055-.038-.053-.038-.052-.038-.051-.039-.049-.039-.049-.039-.046-.039-.046-.04-.044-.04-.043-.04-.041-.04-.04-.041-.039-.041-.037-.041-.036-.041-.034-.041-.033-.042-.032-.042-.03-.042-.029-.042-.027-.042-.026-.043-.024-.043-.023-.043-.021-.043-.02-.043-.018-.044-.017-.043-.015-.044-.013-.044-.012-.044-.011-.045-.009-.044-.007-.045-.006-.045-.004-.045-.002-.045-.001-.045v-17l.001-.045.002-.045.004-.045.006-.045.007-.045.009-.044.011-.045.012-.044.013-.044.015-.044.017-.043.018-.044.02-.043.021-.043.023-.043.024-.043.026-.043.027-.042.029-.042.03-.042.032-.042.033-.042.034-.041.036-.041.037-.041.039-.041.04-.041.041-.04.043-.04.044-.04.046-.04.046-.039.049-.039.049-.039.051-.039.052-.038.053-.038.055-.038.056-.038.057-.037.058-.037.06-.037.061-.036.062-.036.063-.036.064-.036.066-.035.067-.035.068-.035.069-.035.07-.034.072-.034.072-.033.074-.033.151-.066.155-.064.159-.063.164-.061.167-.06.172-.059.176-.057.179-.056.184-.054.187-.053.19-.051.195-.05.198-.048.201-.046.204-.045.208-.043.211-.041.214-.04.217-.038.22-.036.223-.034.226-.032.228-.031.231-.028.234-.027.236-.024.238-.023.241-.02.243-.019.245-.016.247-.015.249-.012.251-.01.253-.008.255-.005.256-.004.258-.001.258.001zm-9.258 20.499v.01l.001.021.003.021.004.022.005.021.006.022.007.022.009.023.01.022.011.023.012.023.013.023.015.023.016.024.017.023.018.024.019.024.021.024.022.025.023.024.024.025.052.049.056.05.061.051.066.051.07.051.075.051.079.052.084.052.088.052.092.052.097.052.102.051.105.052.11.052.114.051.119.051.123.051.127.05.131.05.135.05.139.048.144.049.147.047.152.047.155.047.16.045.163.045.167.043.171.043.176.041.178.041.183.039.187.039.19.037.194.035.197.035.202.033.204.031.209.03.212.029.216.027.219.025.222.024.226.021.23.02.233.018.236.016.24.015.243.012.246.01.249.008.253.005.256.004.259.001.26-.001.257-.004.254-.005.25-.008.247-.011.244-.012.241-.014.237-.016.233-.018.231-.021.226-.021.224-.024.22-.026.216-.027.212-.028.21-.031.205-.031.202-.034.198-.034.194-.036.191-.037.187-.039.183-.04.179-.04.175-.042.172-.043.168-.044.163-.045.16-.046.155-.046.152-.047.148-.048.143-.049.139-.049.136-.05.131-.05.126-.05.123-.051.118-.052.114-.051.11-.052.106-.052.101-.052.096-.052.092-.052.088-.053.083-.051.079-.052.074-.052.07-.051.065-.051.06-.051.056-.05.051-.05.023-.024.023-.025.021-.024.02-.024.019-.024.018-.024.017-.024.015-.023.014-.024.013-.023.012-.023.01-.023.01-.022.008-.022.006-.022.006-.022.004-.022.004-.021.001-.021.001-.021v-4.127l-.077.055-.08.053-.083.054-.085.053-.087.052-.09.052-.093.051-.095.05-.097.05-.1.049-.102.049-.105.048-.106.047-.109.047-.111.046-.114.045-.115.045-.118.044-.12.043-.122.042-.124.042-.126.041-.128.04-.13.04-.132.038-.134.038-.135.037-.138.037-.139.035-.142.035-.143.034-.144.033-.147.032-.148.031-.15.03-.151.03-.153.029-.154.027-.156.027-.158.026-.159.025-.161.024-.162.023-.163.022-.165.021-.166.02-.167.019-.169.018-.169.017-.171.016-.173.015-.173.014-.175.013-.175.012-.177.011-.178.01-.179.008-.179.008-.181.006-.182.005-.182.004-.184.003-.184.002h-.37l-.184-.002-.184-.003-.182-.004-.182-.005-.181-.006-.179-.008-.179-.008-.178-.01-.176-.011-.176-.012-.175-.013-.173-.014-.172-.015-.171-.016-.17-.017-.169-.018-.167-.019-.166-.02-.165-.021-.163-.022-.162-.023-.161-.024-.159-.025-.157-.026-.156-.027-.155-.027-.153-.029-.151-.03-.15-.03-.148-.031-.146-.032-.145-.033-.143-.034-.141-.035-.14-.035-.137-.037-.136-.037-.134-.038-.132-.038-.13-.04-.128-.04-.126-.041-.124-.042-.122-.042-.12-.044-.117-.043-.116-.045-.113-.045-.112-.046-.109-.047-.106-.047-.105-.048-.102-.049-.1-.049-.097-.05-.095-.05-.093-.052-.09-.051-.087-.052-.085-.053-.083-.054-.08-.054-.077-.054v4.127zm0-5.654v.011l.001.021.003.021.004.021.005.022.006.022.007.022.009.022.01.022.011.023.012.023.013.023.015.024.016.023.017.024.018.024.019.024.021.024.022.024.023.025.024.024.052.05.056.05.061.05.066.051.07.051.075.052.079.051.084.052.088.052.092.052.097.052.102.052.105.052.11.051.114.051.119.052.123.05.127.051.131.05.135.049.139.049.144.048.147.048.152.047.155.046.16.045.163.045.167.044.171.042.176.042.178.04.183.04.187.038.19.037.194.036.197.034.202.033.204.032.209.03.212.028.216.027.219.025.222.024.226.022.23.02.233.018.236.016.24.014.243.012.246.01.249.008.253.006.256.003.259.001.26-.001.257-.003.254-.006.25-.008.247-.01.244-.012.241-.015.237-.016.233-.018.231-.02.226-.022.224-.024.22-.025.216-.027.212-.029.21-.03.205-.032.202-.033.198-.035.194-.036.191-.037.187-.039.183-.039.179-.041.175-.042.172-.043.168-.044.163-.045.16-.045.155-.047.152-.047.148-.048.143-.048.139-.05.136-.049.131-.05.126-.051.123-.051.118-.051.114-.052.11-.052.106-.052.101-.052.096-.052.092-.052.088-.052.083-.052.079-.052.074-.051.07-.052.065-.051.06-.05.056-.051.051-.049.023-.025.023-.024.021-.025.02-.024.019-.024.018-.024.017-.024.015-.023.014-.023.013-.024.012-.022.01-.023.01-.023.008-.022.006-.022.006-.022.004-.021.004-.022.001-.021.001-.021v-4.139l-.077.054-.08.054-.083.054-.085.052-.087.053-.09.051-.093.051-.095.051-.097.05-.1.049-.102.049-.105.048-.106.047-.109.047-.111.046-.114.045-.115.044-.118.044-.12.044-.122.042-.124.042-.126.041-.128.04-.13.039-.132.039-.134.038-.135.037-.138.036-.139.036-.142.035-.143.033-.144.033-.147.033-.148.031-.15.03-.151.03-.153.028-.154.028-.156.027-.158.026-.159.025-.161.024-.162.023-.163.022-.165.021-.166.02-.167.019-.169.018-.169.017-.171.016-.173.015-.173.014-.175.013-.175.012-.177.011-.178.009-.179.009-.179.007-.181.007-.182.005-.182.004-.184.003-.184.002h-.37l-.184-.002-.184-.003-.182-.004-.182-.005-.181-.007-.179-.007-.179-.009-.178-.009-.176-.011-.176-.012-.175-.013-.173-.014-.172-.015-.171-.016-.17-.017-.169-.018-.167-.019-.166-.02-.165-.021-.163-.022-.162-.023-.161-.024-.159-.025-.157-.026-.156-.027-.155-.028-.153-.028-.151-.03-.15-.03-.148-.031-.146-.033-.145-.033-.143-.033-.141-.035-.14-.036-.137-.036-.136-.037-.134-.038-.132-.039-.13-.039-.128-.04-.126-.041-.124-.042-.122-.043-.12-.043-.117-.044-.116-.044-.113-.046-.112-.046-.109-.046-.106-.047-.105-.048-.102-.049-.1-.049-.097-.05-.095-.051-.093-.051-.09-.051-.087-.053-.085-.052-.083-.054-.08-.054-.077-.054v4.139zm0-5.666v.011l.001.02.003.022.004.021.005.022.006.021.007.022.009.023.01.022.011.023.012.023.013.023.015.023.016.024.017.024.018.023.019.024.021.025.022.024.023.024.024.025.052.05.056.05.061.05.066.051.07.051.075.052.079.051.084.052.088.052.092.052.097.052.102.052.105.051.11.052.114.051.119.051.123.051.127.05.131.05.135.05.139.049.144.048.147.048.152.047.155.046.16.045.163.045.167.043.171.043.176.042.178.04.183.04.187.038.19.037.194.036.197.034.202.033.204.032.209.03.212.028.216.027.219.025.222.024.226.021.23.02.233.018.236.017.24.014.243.012.246.01.249.008.253.006.256.003.259.001.26-.001.257-.003.254-.006.25-.008.247-.01.244-.013.241-.014.237-.016.233-.018.231-.02.226-.022.224-.024.22-.025.216-.027.212-.029.21-.03.205-.032.202-.033.198-.035.194-.036.191-.037.187-.039.183-.039.179-.041.175-.042.172-.043.168-.044.163-.045.16-.045.155-.047.152-.047.148-.048.143-.049.139-.049.136-.049.131-.051.126-.05.123-.051.118-.052.114-.051.11-.052.106-.052.101-.052.096-.052.092-.052.088-.052.083-.052.079-.052.074-.052.07-.051.065-.051.06-.051.056-.05.051-.049.023-.025.023-.025.021-.024.02-.024.019-.024.018-.024.017-.024.015-.023.014-.024.013-.023.012-.023.01-.022.01-.023.008-.022.006-.022.006-.022.004-.022.004-.021.001-.021.001-.021v-4.153l-.077.054-.08.054-.083.053-.085.053-.087.053-.09.051-.093.051-.095.051-.097.05-.1.049-.102.048-.105.048-.106.048-.109.046-.111.046-.114.046-.115.044-.118.044-.12.043-.122.043-.124.042-.126.041-.128.04-.13.039-.132.039-.134.038-.135.037-.138.036-.139.036-.142.034-.143.034-.144.033-.147.032-.148.032-.15.03-.151.03-.153.028-.154.028-.156.027-.158.026-.159.024-.161.024-.162.023-.163.023-.165.021-.166.02-.167.019-.169.018-.169.017-.171.016-.173.015-.173.014-.175.013-.175.012-.177.01-.178.01-.179.009-.179.007-.181.006-.182.006-.182.004-.184.003-.184.001-.185.001-.185-.001-.184-.001-.184-.003-.182-.004-.182-.006-.181-.006-.179-.007-.179-.009-.178-.01-.176-.01-.176-.012-.175-.013-.173-.014-.172-.015-.171-.016-.17-.017-.169-.018-.167-.019-.166-.02-.165-.021-.163-.023-.162-.023-.161-.024-.159-.024-.157-.026-.156-.027-.155-.028-.153-.028-.151-.03-.15-.03-.148-.032-.146-.032-.145-.033-.143-.034-.141-.034-.14-.036-.137-.036-.136-.037-.134-.038-.132-.039-.13-.039-.128-.041-.126-.041-.124-.041-.122-.043-.12-.043-.117-.044-.116-.044-.113-.046-.112-.046-.109-.046-.106-.048-.105-.048-.102-.048-.1-.05-.097-.049-.095-.051-.093-.051-.09-.052-.087-.052-.085-.053-.083-.053-.08-.054-.077-.054v4.153zm8.74-8.179l-.257.004-.254.005-.25.008-.247.011-.244.012-.241.014-.237.016-.233.018-.231.021-.226.022-.224.023-.22.026-.216.027-.212.028-.21.031-.205.032-.202.033-.198.034-.194.036-.191.038-.187.038-.183.04-.179.041-.175.042-.172.043-.168.043-.163.045-.16.046-.155.046-.152.048-.148.048-.143.048-.139.049-.136.05-.131.05-.126.051-.123.051-.118.051-.114.052-.11.052-.106.052-.101.052-.096.052-.092.052-.088.052-.083.052-.079.052-.074.051-.07.052-.065.051-.06.05-.056.05-.051.05-.023.025-.023.024-.021.024-.02.025-.019.024-.018.024-.017.023-.015.024-.014.023-.013.023-.012.023-.01.023-.01.022-.008.022-.006.023-.006.021-.004.022-.004.021-.001.021-.001.021.001.021.001.021.004.021.004.022.006.021.006.023.008.022.01.022.01.023.012.023.013.023.014.023.015.024.017.023.018.024.019.024.02.025.021.024.023.024.023.025.051.05.056.05.06.05.065.051.07.052.074.051.079.052.083.052.088.052.092.052.096.052.101.052.106.052.11.052.114.052.118.051.123.051.126.051.131.05.136.05.139.049.143.048.148.048.152.048.155.046.16.046.163.045.168.043.172.043.175.042.179.041.183.04.187.038.191.038.194.036.198.034.202.033.205.032.21.031.212.028.216.027.22.026.224.023.226.022.231.021.233.018.237.016.241.014.244.012.247.011.25.008.254.005.257.004.26.001.26-.001.257-.004.254-.005.25-.008.247-.011.244-.012.241-.014.237-.016.233-.018.231-.021.226-.022.224-.023.22-.026.216-.027.212-.028.21-.031.205-.032.202-.033.198-.034.194-.036.191-.038.187-.038.183-.04.179-.041.175-.042.172-.043.168-.043.163-.045.16-.046.155-.046.152-.048.148-.048.143-.048.139-.049.136-.05.131-.05.126-.051.123-.051.118-.051.114-.052.11-.052.106-.052.101-.052.096-.052.092-.052.088-.052.083-.052.079-.052.074-.051.07-.052.065-.051.06-.05.056-.05.051-.05.023-.025.023-.024.021-.024.02-.025.019-.024.018-.024.017-.023.015-.024.014-.023.013-.023.012-.023.01-.023.01-.022.008-.022.006-.023.006-.021.004-.022.004-.021.001-.021.001-.021-.001-.021-.001-.021-.004-.021-.004-.022-.006-.021-.006-.023-.008-.022-.01-.022-.01-.023-.012-.023-.013-.023-.014-.023-.015-.024-.017-.023-.018-.024-.019-.024-.02-.025-.021-.024-.023-.024-.023-.025-.051-.05-.056-.05-.06-.05-.065-.051-.07-.052-.074-.051-.079-.052-.083-.052-.088-.052-.092-.052-.096-.052-.101-.052-.106-.052-.11-.052-.114-.052-.118-.051-.123-.051-.126-.051-.131-.05-.136-.05-.139-.049-.143-.048-.148-.048-.152-.048-.155-.046-.16-.046-.163-.045-.168-.043-.172-.043-.175-.042-.179-.041-.183-.04-.187-.038-.191-.038-.194-.036-.198-.034-.202-.033-.205-.032-.21-.031-.212-.028-.216-.027-.22-.026-.224-.023-.226-.022-.231-.021-.233-.018-.237-.016-.241-.014-.244-.012-.247-.011-.25-.008-.254-.005-.257-.004-.26-.001-.26.001z"></path></symbol></defs><defs><symbol id="clock" width="24" height="24"><path transform="scale(.5)" d="M12 2c5.514 0 10 4.486 10 10s-4.486 10-10 10-10-4.486-10-10 4.486-10 10-10zm0-2c-6.627 0-12 5.373-12 12s5.373 12 12 12 12-5.373 12-12-5.373-12-12-12zm5.848 12.459c.202.038.202.333.001.372-1.907.361-6.045 1.111-6.547 1.111-.719 0-1.301-.582-1.301-1.301 0-.512.77-5.447 1.125-7.445.034-.192.312-.181.343.014l.985 6.238 5.394 1.011z"></path></symbol></defs><defs><marker id="arrowhead" refX="7.9" refY="5" markerUnits="userSpaceOnUse" markerWidth="12" markerHeight="12" orient="auto-start-reverse"><path d="M -1 0 L 10 5 L 0 10 z"></path></marker></defs><defs><marker id="crosshead" markerWidth="15" markerHeight="8" orient="auto" refX="4" refY="4.5"><path fill="none" stroke="#000000" stroke-width="1pt" d="M 1,2 L 6,7 M 6,2 L 1,7" style="stroke-dasharray: 0, 0;"></path></marker></defs><defs><marker id="filled-head" refX="15.5" refY="7" markerWidth="20" markerHeight="28" orient="auto"><path d="M 18,7 L9,13 L14,7 L9,1 Z"></path></marker></defs><defs><marker id="sequencenumber" refX="15" refY="15" markerWidth="60" markerHeight="40" orient="auto"><circle cx="15" cy="15" r="6"></circle></marker></defs><g><rect x="533.5" y="187" fill="#EDF2AE" stroke="#666" width="195" height="39" class="note"></rect><text x="631" y="192" text-anchor="middle" dominant-baseline="middle" alignment-baseline="middle" class="noteText" dy="1em" style="font-family: inherit; font-size: 16px; font-weight: 400;"><tspan x="631">Parse Netlink attributes</tspan></text></g><g><rect x="745.5" y="714" fill="#EDF2AE" stroke="#666" width="171" height="39" class="note"></rect><text x="831" y="719" text-anchor="middle" dominant-baseline="middle" alignment-baseline="middle" class="noteText" dy="1em" style="font-family: inherit; font-size: 16px; font-weight: 400;"><tspan x="831">Check if NHG exists</tspan></text></g><g><line x1="820" y1="1114" x2="1837" y2="1114" class="loopLine"></line><line x1="1837" y1="1114" x2="1837" y2="1464" class="loopLine"></line><line x1="820" y1="1464" x2="1837" y2="1464" class="loopLine"></line><line x1="820" y1="1114" x2="820" y2="1464" class="loopLine"></line><polygon points="820,1114 870,1114 870,1127 861.6,1134 820,1134" class="labelBox"></polygon><text x="845" y="1127" text-anchor="middle" dominant-baseline="middle" alignment-baseline="middle" class="labelText" style="font-family: inherit; font-size: 16px; font-weight: 400;">opt</text><text x="1353.5" y="1132" text-anchor="middle" class="loopText" style="font-family: inherit; font-size: 16px; font-weight: 400;"><tspan x="1353.5">[Need Sonic Object]</tspan></text></g><g><line x1="702" y1="1608" x2="1837" y2="1608" class="loopLine"></line><line x1="1837" y1="1608" x2="1837" y2="2346" class="loopLine"></line><line x1="702" y1="2346" x2="1837" y2="2346" class="loopLine"></line><line x1="702" y1="1608" x2="702" y2="2346" class="loopLine"></line><line x1="702" y1="1859" x2="1837" y2="1859" class="loopLine" style="stroke-dasharray: 3, 3;"></line><polygon points="702,1608 752,1608 752,1621 743.6,1628 702,1628" class="labelBox"></polygon><text x="727" y="1621" text-anchor="middle" dominant-baseline="middle" alignment-baseline="middle" class="labelText" style="font-family: inherit; font-size: 16px; font-weight: 400;">alt</text><text x="1294.5" y="1626" text-anchor="middle" class="loopText" style="font-family: inherit; font-size: 16px; font-weight: 400;"><tspan x="1294.5">[Object exists]</tspan></text><text x="1269.5" y="1877" text-anchor="middle" class="loopText" style="font-family: inherit; font-size: 16px; font-weight: 400;">[Object not exists]</text></g><g><line x1="669" y1="1474" x2="1847" y2="1474" class="loopLine"></line><line x1="1847" y1="1474" x2="1847" y2="2356" class="loopLine"></line><line x1="669" y1="2356" x2="1847" y2="2356" class="loopLine"></line><line x1="669" y1="1474" x2="669" y2="2356" class="loopLine"></line><polygon points="669,1474 719,1474 719,1487 710.6,1494 669,1494" class="labelBox"></polygon><text x="694" y="1487" text-anchor="middle" dominant-baseline="middle" alignment-baseline="middle" class="labelText" style="font-family: inherit; font-size: 16px; font-weight: 400;">opt</text><text x="1283" y="1492" text-anchor="middle" class="loopText" style="font-family: inherit; font-size: 16px; font-weight: 400;"><tspan x="1283">[Has SRv6 Gateway Object]</tspan></text></g><g><line x1="820" y1="2682" x2="1837" y2="2682" class="loopLine"></line><line x1="1837" y1="2682" x2="1837" y2="2928" class="loopLine"></line><line x1="820" y1="2928" x2="1837" y2="2928" class="loopLine"></line><line x1="820" y1="2682" x2="820" y2="2928" class="loopLine"></line><polygon points="820,2682 870,2682 870,2695 861.6,2702 820,2702" class="labelBox"></polygon><text x="845" y="2695" text-anchor="middle" dominant-baseline="middle" alignment-baseline="middle" class="labelText" style="font-family: inherit; font-size: 16px; font-weight: 400;">opt</text><text x="1353.5" y="2700" text-anchor="middle" class="loopText" style="font-family: inherit; font-size: 16px; font-weight: 400;"><tspan x="1353.5">[Sonic Object Changed]</tspan></text></g><g><line x1="810" y1="2548" x2="1847" y2="2548" class="loopLine"></line><line x1="1847" y1="2548" x2="1847" y2="2938" class="loopLine"></line><line x1="810" y1="2938" x2="1847" y2="2938" class="loopLine"></line><line x1="810" y1="2548" x2="810" y2="2938" class="loopLine"></line><polygon points="810,2548 860,2548 860,2561 851.6,2568 810,2568" class="labelBox"></polygon><text x="835" y="2561" text-anchor="middle" dominant-baseline="middle" alignment-baseline="middle" class="labelText" style="font-family: inherit; font-size: 16px; font-weight: 400;">opt</text><text x="1353.5" y="2566" text-anchor="middle" class="loopText" style="font-family: inherit; font-size: 16px; font-weight: 400;"><tspan x="1353.5">[Fields Updated]</tspan></text></g><g><line x1="820" y1="2996" x2="1837" y2="2996" class="loopLine"></line><line x1="1837" y1="2996" x2="1837" y2="3372" class="loopLine"></line><line x1="820" y1="3372" x2="1837" y2="3372" class="loopLine"></line><line x1="820" y1="2996" x2="820" y2="3372" class="loopLine"></line><line x1="820" y1="3217" x2="1837" y2="3217" class="loopLine" style="stroke-dasharray: 3, 3;"></line><polygon points="820,2996 870,2996 870,3009 861.6,3016 820,3016" class="labelBox"></polygon><text x="845" y="3009" text-anchor="middle" dominant-baseline="middle" alignment-baseline="middle" class="labelText" style="font-family: inherit; font-size: 16px; font-weight: 400;">alt</text><text x="1353.5" y="3014" text-anchor="middle" class="loopText" style="font-family: inherit; font-size: 16px; font-weight: 400;"><tspan x="1353.5">[Type changed or removed]</tspan></text><text x="1328.5" y="3235" text-anchor="middle" class="loopText" style="font-family: inherit; font-size: 16px; font-weight: 400;">[Fields updated]</text></g><g><line x1="810" y1="2948" x2="1847" y2="2948" class="loopLine"></line><line x1="1847" y1="2948" x2="1847" y2="3382" class="loopLine"></line><line x1="810" y1="3382" x2="1847" y2="3382" class="loopLine"></line><line x1="810" y1="2948" x2="810" y2="3382" class="loopLine"></line><polygon points="810,2948 860,2948 860,2961 851.6,2968 810,2968" class="labelBox"></polygon><text x="835" y="2961" text-anchor="middle" dominant-baseline="middle" alignment-baseline="middle" class="labelText" style="font-family: inherit; font-size: 16px; font-weight: 400;">opt</text><text x="1353.5" y="2966" text-anchor="middle" class="loopText" style="font-family: inherit; font-size: 16px; font-weight: 400;"><tspan x="1353.5">[Gateway Object Changed]</tspan></text></g><g><line x1="659" y1="763" x2="1857" y2="763" class="loopLine"></line><line x1="1857" y1="763" x2="1857" y2="3392" class="loopLine"></line><line x1="659" y1="3392" x2="1857" y2="3392" class="loopLine"></line><line x1="659" y1="763" x2="659" y2="3392" class="loopLine"></line><line x1="659" y1="2371" x2="1857" y2="2371" class="loopLine" style="stroke-dasharray: 3, 3;"></line><polygon points="659,763 709,763 709,776 700.6,783 659,783" class="labelBox"></polygon><text x="684" y="776" text-anchor="middle" dominant-baseline="middle" alignment-baseline="middle" class="labelText" style="font-family: inherit; font-size: 16px; font-weight: 400;">alt</text><text x="1283" y="781" text-anchor="middle" class="loopText" style="font-family: inherit; font-size: 16px; font-weight: 400;"><tspan x="1283">[New NHG]</tspan></text><text x="1258" y="2389" text-anchor="middle" class="loopText" style="font-family: inherit; font-size: 16px; font-weight: 400;">[Update Existing NHG]</text></g><text x="228" y="80" text-anchor="middle" dominant-baseline="middle" alignment-baseline="middle" class="messageText" dy="1em" style="font-family: inherit; font-size: 16px; font-weight: 400;">RTM_NEWNEXTHOP with JSON</text><line x1="76" y1="121" x2="380" y2="121" class="messageLine0" stroke-width="2" stroke="none" marker-end="url(#arrowhead)" style="fill: none;"></line><text x="506" y="136" text-anchor="middle" dominant-baseline="middle" alignment-baseline="middle" class="messageText" dy="1em" style="font-family: inherit; font-size: 16px; font-weight: 400;">onNexthopgroupfullMsg</text><line x1="385" y1="177" x2="627" y2="177" class="messageLine0" stroke-width="2" stroke="none" marker-end="url(#arrowhead)" style="fill: none;"></line><text x="632" y="241" text-anchor="middle" dominant-baseline="middle" alignment-baseline="middle" class="messageText" dy="1em" style="font-family: inherit; font-size: 16px; font-weight: 400;">Parse NHA_ID</text><path d="M 632,282 C 692,272 692,312 632,302" class="messageLine0" stroke-width="2" stroke="none" marker-end="url(#arrowhead)" style="fill: none;"></path><text x="632" y="327" text-anchor="middle" dominant-baseline="middle" alignment-baseline="middle" class="messageText" dy="1em" style="font-family: inherit; font-size: 16px; font-weight: 400;">Parse NHA_JSON_STR</text><path d="M 632,368 C 692,358 692,398 632,388" class="messageLine0" stroke-width="2" stroke="none" marker-end="url(#arrowhead)" style="fill: none;"></path><text x="632" y="413" text-anchor="middle" dominant-baseline="middle" alignment-baseline="middle" class="messageText" dy="1em" style="font-family: inherit; font-size: 16px; font-weight: 400;">json parse</text><path d="M 632,454 C 692,444 692,484 632,474" class="messageLine0" stroke-width="2" stroke="none" marker-end="url(#arrowhead)" style="fill: none;"></path><text x="632" y="499" text-anchor="middle" dominant-baseline="middle" alignment-baseline="middle" class="messageText" dy="1em" style="font-family: inherit; font-size: 16px; font-weight: 400;">fib::from_json to NextHopGroupFull</text><path d="M 632,540 C 692,530 692,570 632,560" class="messageLine0" stroke-width="2" stroke="none" marker-end="url(#arrowhead)" style="fill: none;"></path><text x="632" y="585" text-anchor="middle" dominant-baseline="middle" alignment-baseline="middle" class="messageText" dy="1em" style="font-family: inherit; font-size: 16px; font-weight: 400;">getIfName from ifindex</text><path d="M 632,626 C 692,616 692,656 632,646" class="messageLine0" stroke-width="2" stroke="none" marker-end="url(#arrowhead)" style="fill: none;"></path><text x="730" y="671" text-anchor="middle" dominant-baseline="middle" alignment-baseline="middle" class="messageText" dy="1em" style="font-family: inherit; font-size: 16px; font-weight: 400;">addNHGFull</text><line x1="632" y1="704" x2="827" y2="704" class="messageLine0" stroke-width="2" stroke="none" marker-end="url(#arrowhead)" style="fill: none;"></line><text x="948" y="813" text-anchor="middle" dominant-baseline="middle" alignment-baseline="middle" class="messageText" dy="1em" style="font-family: inherit; font-size: 16px; font-weight: 400;">addEntry</text><line x1="832" y1="846" x2="1064" y2="846" class="messageLine0" stroke-width="2" stroke="none" marker-end="url(#arrowhead)" style="fill: none;"></line><text x="1069" y="861" text-anchor="middle" dominant-baseline="middle" alignment-baseline="middle" class="messageText" dy="1em" style="font-family: inherit; font-size: 16px; font-weight: 400;">Create RIBNHGEntry</text><path d="M 1069,902 C 1129,892 1129,932 1069,922" class="messageLine0" stroke-width="2" stroke="none" marker-end="url(#arrowhead)" style="fill: none;"></path><text x="1069" y="947" text-anchor="middle" dominant-baseline="middle" alignment-baseline="middle" class="messageText" dy="1em" style="font-family: inherit; font-size: 16px; font-weight: 400;">Parse depends and group members</text><path d="M 1069,988 C 1129,978 1129,1018 1069,1008" class="messageLine0" stroke-width="2" stroke="none" marker-end="url(#arrowhead)" style="fill: none;"></path><text x="1069" y="1033" text-anchor="middle" dominant-baseline="middle" alignment-baseline="middle" class="messageText" dy="1em" style="font-family: inherit; font-size: 16px; font-weight: 400;">checkNeedCreateSonicGatewayNHGObj</text><path d="M 1069,1074 C 1129,1064 1129,1104 1069,1094" class="messageLine0" stroke-width="2" stroke="none" marker-end="url(#arrowhead)" style="fill: none;"></path><text x="1069" y="1167" text-anchor="middle" dominant-baseline="middle" alignment-baseline="middle" class="messageText" dy="1em" style="font-family: inherit; font-size: 16px; font-weight: 400;">checkNeedCreateSonicNHGObj</text><path d="M 1069,1208 C 1129,1198 1129,1238 1069,1228" class="messageLine0" stroke-width="2" stroke="none" marker-end="url(#arrowhead)" style="fill: none;"></path><text x="1327" y="1253" text-anchor="middle" dominant-baseline="middle" alignment-baseline="middle" class="messageText" dy="1em" style="font-family: inherit; font-size: 16px; font-weight: 400;">allocateID</text><line x1="832" y1="1294" x2="1822" y2="1294" class="messageLine0" stroke-width="2" stroke="none" marker-end="url(#arrowhead)" style="fill: none;"></line><text x="1330" y="1309" text-anchor="middle" dominant-baseline="middle" alignment-baseline="middle" class="messageText" dy="1em" style="font-family: inherit; font-size: 16px; font-weight: 400;">sonicId</text><line x1="1825" y1="1342" x2="835" y2="1342" class="messageLine1" stroke-width="2" stroke="none" marker-end="url(#arrowhead)" style="stroke-dasharray: 3, 3; fill: none;"></line><text x="948" y="1357" text-anchor="middle" dominant-baseline="middle" alignment-baseline="middle" class="messageText" dy="1em" style="font-family: inherit; font-size: 16px; font-weight: 400;">setSonicNHGObjId</text><line x1="832" y1="1398" x2="1064" y2="1398" class="messageLine0" stroke-width="2" stroke="none" marker-end="url(#arrowhead)" style="fill: none;"></line><text x="1346" y="1413" text-anchor="middle" dominant-baseline="middle" alignment-baseline="middle" class="messageText" dy="1em" style="font-family: inherit; font-size: 16px; font-weight: 400;">Write NEXTHOP_GROUP_TABLE</text><line x1="1069" y1="1454" x2="1622" y2="1454" class="messageLine0" stroke-width="2" stroke="none" marker-end="url(#arrowhead)" style="fill: none;"></line><text x="832" y="1527" text-anchor="middle" dominant-baseline="middle" alignment-baseline="middle" class="messageText" dy="1em" style="font-family: inherit; font-size: 16px; font-weight: 400;">createSonicSRv6GateWayNHGObjectKey</text><path d="M 832,1568 C 892,1558 892,1598 832,1588" class="messageLine0" stroke-width="2" stroke="none" marker-end="url(#arrowhead)" style="fill: none;"></path><text x="1062" y="1661" text-anchor="middle" dominant-baseline="middle" alignment-baseline="middle" class="messageText" dy="1em" style="font-family: inherit; font-size: 16px; font-weight: 400;">getEntry</text><line x1="832" y1="1702" x2="1291" y2="1702" class="messageLine0" stroke-width="2" stroke="none" marker-end="url(#arrowhead)" style="fill: none;"></line><text x="1065" y="1717" text-anchor="middle" dominant-baseline="middle" alignment-baseline="middle" class="messageText" dy="1em" style="font-family: inherit; font-size: 16px; font-weight: 400;">sonicEntry</text><line x1="1294" y1="1758" x2="835" y2="1758" class="messageLine1" stroke-width="2" stroke="none" marker-end="url(#arrowhead)" style="stroke-dasharray: 3, 3; fill: none;"></line><text x="832" y="1773" text-anchor="middle" dominant-baseline="middle" alignment-baseline="middle" class="messageText" dy="1em" style="font-family: inherit; font-size: 16px; font-weight: 400;">addRefCount</text><path d="M 832,1814 C 892,1804 892,1844 832,1834" class="messageLine0" stroke-width="2" stroke="none" marker-end="url(#arrowhead)" style="fill: none;"></path><text x="1327" y="1907" text-anchor="middle" dominant-baseline="middle" alignment-baseline="middle" class="messageText" dy="1em" style="font-family: inherit; font-size: 16px; font-weight: 400;">allocateID</text><line x1="832" y1="1948" x2="1822" y2="1948" class="messageLine0" stroke-width="2" stroke="none" marker-end="url(#arrowhead)" style="fill: none;"></line><text x="1330" y="1963" text-anchor="middle" dominant-baseline="middle" alignment-baseline="middle" class="messageText" dy="1em" style="font-family: inherit; font-size: 16px; font-weight: 400;">gatewayId</text><line x1="1825" y1="2004" x2="835" y2="2004" class="messageLine1" stroke-width="2" stroke="none" marker-end="url(#arrowhead)" style="stroke-dasharray: 3, 3; fill: none;"></line><text x="832" y="2019" text-anchor="middle" dominant-baseline="middle" alignment-baseline="middle" class="messageText" dy="1em" style="font-family: inherit; font-size: 16px; font-weight: 400;">createSonicGateWayNHGObject</text><path d="M 832,2060 C 892,2050 892,2090 832,2080" class="messageLine0" stroke-width="2" stroke="none" marker-end="url(#arrowhead)" style="fill: none;"></path><text x="1062" y="2105" text-anchor="middle" dominant-baseline="middle" alignment-baseline="middle" class="messageText" dy="1em" style="font-family: inherit; font-size: 16px; font-weight: 400;">addEntry</text><line x1="832" y1="2138" x2="1291" y2="2138" class="messageLine0" stroke-width="2" stroke="none" marker-end="url(#arrowhead)" style="fill: none;"></line><text x="1296" y="2153" text-anchor="middle" dominant-baseline="middle" alignment-baseline="middle" class="messageText" dy="1em" style="font-family: inherit; font-size: 16px; font-weight: 400;">Create SonicGateWayNHGEntry</text><path d="M 1296,2194 C 1356,2184 1356,2224 1296,2214" class="messageLine0" stroke-width="2" stroke="none" marker-end="url(#arrowhead)" style="fill: none;"></path><text x="1459" y="2239" text-anchor="middle" dominant-baseline="middle" alignment-baseline="middle" class="messageText" dy="1em" style="font-family: inherit; font-size: 16px; font-weight: 400;">Write PIC_CONTEXT_TABLE</text><line x1="1296" y1="2280" x2="1622" y2="2280" class="messageLine0" stroke-width="2" stroke="none" marker-end="url(#arrowhead)" style="fill: none;"></line><text x="948" y="2295" text-anchor="middle" dominant-baseline="middle" alignment-baseline="middle" class="messageText" dy="1em" style="font-family: inherit; font-size: 16px; font-weight: 400;">setSonicGatewayObjId</text><line x1="832" y1="2336" x2="1064" y2="2336" class="messageLine0" stroke-width="2" stroke="none" marker-end="url(#arrowhead)" style="fill: none;"></line><text x="948" y="2419" text-anchor="middle" dominant-baseline="middle" alignment-baseline="middle" class="messageText" dy="1em" style="font-family: inherit; font-size: 16px; font-weight: 400;">updateEntry</text><line x1="832" y1="2460" x2="1064" y2="2460" class="messageLine0" stroke-width="2" stroke="none" marker-end="url(#arrowhead)" style="fill: none;"></line><text x="1069" y="2475" text-anchor="middle" dominant-baseline="middle" alignment-baseline="middle" class="messageText" dy="1em" style="font-family: inherit; font-size: 16px; font-weight: 400;">checkNeedUpdate</text><path d="M 1069,2508 C 1129,2498 1129,2538 1069,2528" class="messageLine0" stroke-width="2" stroke="none" marker-end="url(#arrowhead)" style="fill: none;"></path><text x="1069" y="2601" text-anchor="middle" dominant-baseline="middle" alignment-baseline="middle" class="messageText" dy="1em" style="font-family: inherit; font-size: 16px; font-weight: 400;">setEntry</text><path d="M 1069,2642 C 1129,2632 1129,2672 1069,2662" class="messageLine0" stroke-width="2" stroke="none" marker-end="url(#arrowhead)" style="fill: none;"></path><text x="1069" y="2735" text-anchor="middle" dominant-baseline="middle" alignment-baseline="middle" class="messageText" dy="1em" style="font-family: inherit; font-size: 16px; font-weight: 400;">subSonicNHGObjectRef</text><path d="M 1069,2776 C 1129,2766 1129,2806 1069,2796" class="messageLine0" stroke-width="2" stroke="none" marker-end="url(#arrowhead)" style="fill: none;"></path><text x="1327" y="2821" text-anchor="middle" dominant-baseline="middle" alignment-baseline="middle" class="messageText" dy="1em" style="font-family: inherit; font-size: 16px; font-weight: 400;">allocateID</text><line x1="832" y1="2862" x2="1822" y2="2862" class="messageLine0" stroke-width="2" stroke="none" marker-end="url(#arrowhead)" style="fill: none;"></line><text x="1346" y="2877" text-anchor="middle" dominant-baseline="middle" alignment-baseline="middle" class="messageText" dy="1em" style="font-family: inherit; font-size: 16px; font-weight: 400;">Write new Sonic ID</text><line x1="1069" y1="2918" x2="1622" y2="2918" class="messageLine0" stroke-width="2" stroke="none" marker-end="url(#arrowhead)" style="fill: none;"></line><text x="1062" y="3049" text-anchor="middle" dominant-baseline="middle" alignment-baseline="middle" class="messageText" dy="1em" style="font-family: inherit; font-size: 16px; font-weight: 400;">delEntry</text><line x1="832" y1="3090" x2="1291" y2="3090" class="messageLine0" stroke-width="2" stroke="none" marker-end="url(#arrowhead)" style="fill: none;"></line><text x="1459" y="3105" text-anchor="middle" dominant-baseline="middle" alignment-baseline="middle" class="messageText" dy="1em" style="font-family: inherit; font-size: 16px; font-weight: 400;">Delete from PIC_CONTEXT_TABLE</text><line x1="1296" y1="3146" x2="1622" y2="3146" class="messageLine0" stroke-width="2" stroke="none" marker-end="url(#arrowhead)" style="fill: none;"></line><text x="1327" y="3161" text-anchor="middle" dominant-baseline="middle" alignment-baseline="middle" class="messageText" dy="1em" style="font-family: inherit; font-size: 16px; font-weight: 400;">freeID</text><line x1="832" y1="3202" x2="1822" y2="3202" class="messageLine0" stroke-width="2" stroke="none" marker-end="url(#arrowhead)" style="fill: none;"></line><text x="1062" y="3265" text-anchor="middle" dominant-baseline="middle" alignment-baseline="middle" class="messageText" dy="1em" style="font-family: inherit; font-size: 16px; font-weight: 400;">updateEntry</text><line x1="832" y1="3306" x2="1291" y2="3306" class="messageLine0" stroke-width="2" stroke="none" marker-end="url(#arrowhead)" style="fill: none;"></line><text x="1459" y="3321" text-anchor="middle" dominant-baseline="middle" alignment-baseline="middle" class="messageText" dy="1em" style="font-family: inherit; font-size: 16px; font-weight: 400;">Update PIC_CONTEXT_TABLE</text><line x1="1296" y1="3362" x2="1622" y2="3362" class="messageLine0" stroke-width="2" stroke="none" marker-end="url(#arrowhead)" style="fill: none;"></line><text x="733" y="3407" text-anchor="middle" dominant-baseline="middle" alignment-baseline="middle" class="messageText" dy="1em" style="font-family: inherit; font-size: 16px; font-weight: 400;">Return status</text><line x1="830" y1="3448" x2="635" y2="3448" class="messageLine1" stroke-width="2" stroke="none" marker-end="url(#arrowhead)" style="stroke-dasharray: 3, 3; fill: none;"></line></svg>