<?xml version="1.0" encoding="UTF-8" standalone="no"?>
<!DOCTYPE svg PUBLIC "-//W3C//DTD SVG 1.1//EN" "http://www.w3.org/Graphics/SVG/1.1/DTD/svg11.dtd">
<!-- Generated by Microsoft Visio, SVG Export wcmp_design.svg Page-11 -->
<svg xmlns="http://www.w3.org/2000/svg" xmlns:xlink="http://www.w3.org/1999/xlink" xmlns:ev="http://www.w3.org/2001/xml-events"
		width="11.1473in" height="4.0572in" viewBox="0 0 802.604 292.118" xml:space="preserve" color-interpolation-filters="sRGB"
		class="st13">
	<title>wcmp design</title>

	<style type="text/css">
	<![CDATA[
		.st1 {stroke:#000000;stroke-linecap:round;stroke-linejoin:round;stroke-width:1}
		.st2 {fill:#70ad47;stroke:#000000;stroke-linecap:round;stroke-linejoin:round;stroke-width:1.5}
		.st3 {fill:#ffffff;font-family:Segoe UI;font-size:0.833336em}
		.st4 {fill:#4672c4;stroke:#000000;stroke-linecap:round;stroke-linejoin:round;stroke-width:1.5}
		.st5 {fill:#a5a5a5;stroke:#000000;stroke-linecap:round;stroke-linejoin:round;stroke-width:1.5}
		.st6 {fill:none;stroke:#000000;stroke-dasharray:7,5;stroke-linecap:round;stroke-linejoin:round;stroke-width:1}
		.st7 {fill:#ffc000}
		.st8 {stroke:none;stroke-linecap:round;stroke-linejoin:round;stroke-width:1}
		.st9 {stroke:#000000;stroke-linecap:round;stroke-linejoin:round;stroke-width:0.24}
		.st10 {fill:#ffffff;stroke:#ffc000;stroke-linecap:round;stroke-linejoin:round;stroke-width:0.24;visibility:hidden}
		.st11 {stroke:#ff0000;stroke-linecap:round;stroke-linejoin:round;stroke-width:1}
		.st12 {stroke:#ff0000;stroke-linecap:round;stroke-linejoin:round;stroke-width:1.5}
		.st13 {fill:none;fill-rule:evenodd;font-size:12px;overflow:visible;stroke-linecap:square;stroke-miterlimit:3}
	]]>
	</style>

	<g>
		<title>Page-11</title>
		<g id="shape1000-1" transform="translate(353.388,89.3662) rotate(90)">
			<title>Sheet.1000</title>
			<path d="M0 292.12 L56.69 292.12" class="st1"/>
		</g>
		<g id="shape1001-4" transform="translate(169.759,-181.859) rotate(21.8014)">
			<title>Sheet.1001</title>
			<path d="M0 292.12 L152.65 292.12" class="st1"/>
		</g>
		<g id="shape1002-7" transform="translate(118.559,-197.079) rotate(11.3099)">
			<title>Sheet.1002</title>
			<path d="M0 292.12 L289.08 292.12" class="st1"/>
		</g>
		<g id="shape1003-10" transform="translate(99.8769,-200.189) rotate(7.59464)">
			<title>Sheet.1003</title>
			<path d="M0 292.12 L428.96 292.12" class="st1"/>
		</g>
		<g id="shape1004-13" transform="translate(18.7499,-103.539)">
			<title>Round Corner Rectangle.1205</title>
			<desc>ToR-1</desc>
			<path d="M8.5 292.12 L76.54 292.12 A8.5038 8.5038 -180 0 0 85.04 283.61 L85.04 258.1 A8.5038 8.5038 -180 0 0 76.54 249.6
						 L8.5 249.6 A8.5038 8.5038 -180 0 0 0 258.1 L0 283.61 A8.5038 8.5038 -180 0 0 8.5 292.12 Z" class="st2"/>
			<text x="29.28" y="273.86" class="st3">ToR-1</text>		</g>
		<g id="shape1005-16" transform="translate(160.482,-103.539)">
			<title>Round Corner Rectangle.1206</title>
			<desc>ToR-2</desc>
			<path d="M8.5 292.12 L76.54 292.12 A8.5038 8.5038 -180 0 0 85.04 283.61 L85.04 258.1 A8.5038 8.5038 -180 0 0 76.54 249.6
						 L8.5 249.6 A8.5038 8.5038 -180 0 0 0 258.1 L0 283.61 A8.5038 8.5038 -180 0 0 8.5 292.12 Z" class="st2"/>
			<text x="29.28" y="273.86" class="st3">ToR-2</text>		</g>
		<g id="shape1006-19" transform="translate(302.214,-103.539)">
			<title>Round Corner Rectangle.1207</title>
			<desc>ToR-3</desc>
			<path d="M8.5 292.12 L76.54 292.12 A8.5038 8.5038 -180 0 0 85.04 283.61 L85.04 258.1 A8.5038 8.5038 -180 0 0 76.54 249.6
						 L8.5 249.6 A8.5038 8.5038 -180 0 0 0 258.1 L0 283.61 A8.5038 8.5038 -180 0 0 8.5 292.12 Z" class="st2"/>
			<text x="29.28" y="273.86" class="st3">ToR-3</text>		</g>
		<g id="shape1007-22" transform="translate(443.947,-103.539)">
			<title>Round Corner Rectangle.1208</title>
			<desc>ToR-4</desc>
			<path d="M8.5 292.12 L76.54 292.12 A8.5038 8.5038 -180 0 0 85.04 283.61 L85.04 258.1 A8.5038 8.5038 -180 0 0 76.54 249.6
						 L8.5 249.6 A8.5038 8.5038 -180 0 0 0 258.1 L0 283.61 A8.5038 8.5038 -180 0 0 8.5 292.12 Z" class="st2"/>
			<text x="29.28" y="273.86" class="st3">ToR-4</text>		</g>
		<g id="shape1008-25" transform="translate(18.7499,-202.752)">
			<title>Round Corner Rectangle.1209</title>
			<desc>SPINE-1</desc>
			<path d="M8.5 292.12 L76.54 292.12 A8.5038 8.5038 -180 0 0 85.04 283.61 L85.04 258.1 A8.5038 8.5038 -180 0 0 76.54 249.6
						 L8.5 249.6 A8.5038 8.5038 -180 0 0 0 258.1 L0 283.61 A8.5038 8.5038 -180 0 0 8.5 292.12 Z" class="st4"/>
			<text x="24.77" y="273.86" class="st3">SPINE-1</text>		</g>
		<g id="shape1009-28" transform="translate(160.482,-202.752)">
			<title>Round Corner Rectangle.1210</title>
			<desc>SPINE-2</desc>
			<path d="M8.5 292.12 L76.54 292.12 A8.5038 8.5038 -180 0 0 85.04 283.61 L85.04 258.1 A8.5038 8.5038 -180 0 0 76.54 249.6
						 L8.5 249.6 A8.5038 8.5038 -180 0 0 0 258.1 L0 283.61 A8.5038 8.5038 -180 0 0 8.5 292.12 Z" class="st4"/>
			<text x="24.77" y="273.86" class="st3">SPINE-2</text>		</g>
		<g id="shape1010-31" transform="translate(302.214,-202.752)">
			<title>Round Corner Rectangle.1211</title>
			<desc>SPINE-3</desc>
			<path d="M8.5 292.12 L76.54 292.12 A8.5038 8.5038 -180 0 0 85.04 283.61 L85.04 258.1 A8.5038 8.5038 -180 0 0 76.54 249.6
						 L8.5 249.6 A8.5038 8.5038 -180 0 0 0 258.1 L0 283.61 A8.5038 8.5038 -180 0 0 8.5 292.12 Z" class="st4"/>
			<text x="24.77" y="273.86" class="st3">SPINE-3</text>		</g>
		<g id="shape1011-34" transform="translate(443.947,-202.752)">
			<title>Round Corner Rectangle.1212</title>
			<desc>SPINE-4</desc>
			<path d="M8.5 292.12 L76.54 292.12 A8.5038 8.5038 -180 0 0 85.04 283.61 L85.04 258.1 A8.5038 8.5038 -180 0 0 76.54 249.6
						 L8.5 249.6 A8.5038 8.5038 -180 0 0 0 258.1 L0 283.61 A8.5038 8.5038 -180 0 0 8.5 292.12 Z" class="st4"/>
			<text x="24.77" y="273.86" class="st3">SPINE-4</text>		</g>
		<g id="shape1012-37" transform="translate(311.492,360.591) rotate(158.199)">
			<title>Sheet.1012</title>
			<path d="M0 292.12 L152.65 292.12" class="st1"/>
		</g>
		<g id="shape1013-40" transform="translate(495.12,89.3662) rotate(90)">
			<title>Sheet.1013</title>
			<path d="M0 292.12 L56.69 292.12" class="st1"/>
		</g>
		<g id="shape1014-43" transform="translate(311.492,-181.859) rotate(21.8014)">
			<title>Sheet.1014</title>
			<path d="M0 292.12 L152.65 292.12" class="st1"/>
		</g>
		<g id="shape1015-46" transform="translate(260.291,-197.079) rotate(11.3099)">
			<title>Sheet.1015</title>
			<path d="M0 292.12 L289.08 292.12" class="st1"/>
		</g>
		<g id="shape1016-49" transform="translate(402.023,375.812) rotate(168.69)">
			<title>Sheet.1016</title>
			<path d="M0 292.12 L289.08 292.12" class="st1"/>
		</g>
		<g id="shape1017-52" transform="translate(453.224,360.591) rotate(158.199)">
			<title>Sheet.1017</title>
			<path d="M0 292.12 L152.65 292.12" class="st1"/>
		</g>
		<g id="shape1018-55" transform="translate(636.852,89.3662) rotate(90)">
			<title>Sheet.1018</title>
			<path d="M0 292.12 L56.69 292.12" class="st1"/>
		</g>
		<g id="shape1019-58" transform="translate(453.224,-181.859) rotate(21.8014)">
			<title>Sheet.1019</title>
			<path d="M0 292.12 L152.65 292.12" class="st1"/>
		</g>
		<g id="shape1020-61" transform="translate(594.956,360.591) rotate(158.199)">
			<title>Sheet.1020</title>
			<path d="M0 292.12 L152.65 292.12" class="st1"/>
		</g>
		<g id="shape1021-64" transform="translate(543.756,375.812) rotate(168.69)">
			<title>Sheet.1021</title>
			<path d="M0 292.12 L289.08 292.12" class="st1"/>
		</g>
		<g id="shape1022-67" transform="translate(525.074,378.922) rotate(172.405)">
			<title>Sheet.1022</title>
			<path d="M0 292.12 L428.96 292.12" class="st1"/>
		</g>
		<g id="shape1023-70" transform="translate(778.585,89.3662) rotate(90)">
			<title>Sheet.1023</title>
			<path d="M0 292.12 L56.69 292.12" class="st1"/>
		</g>
		<g id="shape1024-73" transform="translate(18.7499,-46.8464)">
			<title>Round Corner Rectangle.1226</title>
			<desc>SRV-1</desc>
			<path d="M8.5 292.12 L76.54 292.12 A8.5038 8.5038 -180 0 0 85.04 283.61 L85.04 272.28 A8.5038 8.5038 -180 0 0 76.54 263.77
						 L8.5 263.77 A8.5038 8.5038 -180 0 0 0 272.28 L0 283.61 A8.5038 8.5038 -180 0 0 8.5 292.12 Z" class="st5"/>
			<text x="29.07" y="280.95" class="st3">SRV-1</text>		</g>
		<g id="shape1025-76" transform="translate(160.482,-46.8463)">
			<title>Round Corner Rectangle.1227</title>
			<desc>SRV-2</desc>
			<path d="M8.5 292.12 L76.54 292.12 A8.5038 8.5038 -180 0 0 85.04 283.61 L85.04 272.28 A8.5038 8.5038 -180 0 0 76.54 263.77
						 L8.5 263.77 A8.5038 8.5038 -180 0 0 0 272.28 L0 283.61 A8.5038 8.5038 -180 0 0 8.5 292.12 Z" class="st5"/>
			<text x="29.07" y="280.95" class="st3">SRV-2</text>		</g>
		<g id="shape1026-79" transform="translate(302.214,-46.8465)">
			<title>Round Corner Rectangle.1228</title>
			<desc>SRV-3</desc>
			<path d="M8.5 292.12 L76.54 292.12 A8.5038 8.5038 -180 0 0 85.04 283.61 L85.04 272.28 A8.5038 8.5038 -180 0 0 76.54 263.77
						 L8.5 263.77 A8.5038 8.5038 -180 0 0 0 272.28 L0 283.61 A8.5038 8.5038 -180 0 0 8.5 292.12 Z" class="st5"/>
			<text x="29.07" y="280.95" class="st3">SRV-3</text>		</g>
		<g id="shape1027-82" transform="translate(443.947,-46.8465)">
			<title>Round Corner Rectangle.1229</title>
			<desc>SRV-4</desc>
			<path d="M8.5 292.12 L76.54 292.12 A8.5038 8.5038 -180 0 0 85.04 283.61 L85.04 272.28 A8.5038 8.5038 -180 0 0 76.54 263.77
						 L8.5 263.77 A8.5038 8.5038 -180 0 0 0 272.28 L0 283.61 A8.5038 8.5038 -180 0 0 8.5 292.12 Z" class="st5"/>
			<text x="29.07" y="280.95" class="st3">SRV-4</text>		</g>
		<g id="shape1028-85" transform="translate(353.388,188.579) rotate(90)">
			<title>Sheet.1028</title>
			<path d="M0 292.12 L28.35 292.12" class="st1"/>
		</g>
		<g id="shape1029-88" transform="translate(495.12,188.58) rotate(90.0003)">
			<title>Sheet.1029</title>
			<path d="M0 292.12 L28.35 292.12" class="st1"/>
		</g>
		<g id="shape1030-91" transform="translate(636.852,188.579) rotate(90)">
			<title>Sheet.1030</title>
			<path d="M0 292.12 L28.35 292.12" class="st1"/>
		</g>
		<g id="shape1031-94" transform="translate(778.585,188.579) rotate(90)">
			<title>Sheet.1031</title>
			<path d="M0 292.12 L28.35 292.12" class="st1"/>
		</g>
		<g id="shape1032-97" transform="translate(415.6,-18.5)">
			<title>Rectangle.1234</title>
			<path d="M0 292.12 L141.73 292.12 L141.73 37 L0 37 L0 292.12 Z" class="st6"/>
		</g>
		<g id="group1033-99" transform="translate(571.506,-117.713)">
			<title>1-D single.1235</title>
			<g id="shape1034-100">
				<title>Sheet.1034</title>
				<path d="M0 277.94 L42.52 277.94 L42.52 292.12 L56.69 263.77 L42.52 235.43 L42.52 249.6 L0 249.6 L0 277.94 Z"
						class="st7"/>
				<path d="M0 277.94 L42.52 277.94 L42.52 292.12 L56.69 263.77 L42.52 235.43 L42.52 249.6 L0 249.6" class="st8"/>
			</g>
			<g id="shape1035-103">
				<title>Sheet.1035</title>
				<path d="M0 277.94 L42.52 277.94 L42.52 292.12 L56.69 263.77 L42.52 235.43 L42.52 249.6 L0 249.6 L0 277.94"
						class="st9"/>
			</g>
			<g id="shape1036-106" transform="translate(-0.726929,-14.4132)">
				<title>Sheet.1036</title>
				<rect x="0" y="264.252" width="0.32" height="27.8665" class="st10"/>
			</g>
		</g>
		<g id="shape1037-108" transform="translate(642.372,-18.5)">
			<title>Rectangle.1239</title>
			<path d="M0 292.12 L141.73 292.12 L141.73 37 L0 37 L0 292.12 Z" class="st6"/>
		</g>
		<g id="shape1038-110" transform="translate(670.719,-103.539)">
			<title>Round Corner Rectangle.1240</title>
			<desc>ToR-4</desc>
			<path d="M8.5 292.12 L76.54 292.12 A8.5038 8.5038 -180 0 0 85.04 283.61 L85.04 258.1 A8.5038 8.5038 -180 0 0 76.54 249.6
						 L8.5 249.6 A8.5038 8.5038 -180 0 0 0 258.1 L0 283.61 A8.5038 8.5038 -180 0 0 8.5 292.12 Z" class="st2"/>
			<text x="29.28" y="273.86" class="st3">ToR-4</text>		</g>
		<g id="shape1039-113" transform="translate(670.719,-202.752)">
			<title>Round Corner Rectangle.1241</title>
			<desc>SPINE-4</desc>
			<path d="M8.5 292.12 L76.54 292.12 A8.5038 8.5038 -180 0 0 85.04 283.61 L85.04 258.1 A8.5038 8.5038 -180 0 0 76.54 249.6
						 L8.5 249.6 A8.5038 8.5038 -180 0 0 0 258.1 L0 283.61 A8.5038 8.5038 -180 0 0 8.5 292.12 Z" class="st4"/>
			<text x="24.77" y="273.86" class="st3">SPINE-4</text>		</g>
		<g id="shape1040-116" transform="translate(991.183,89.3662) rotate(90)">
			<title>Sheet.1040</title>
			<path d="M0 292.12 L56.69 292.12" class="st1"/>
		</g>
		<g id="shape1041-119" transform="translate(1019.53,89.3662) rotate(90)">
			<title>Sheet.1041</title>
			<path d="M0 292.12 L56.69 292.12" class="st11"/>
		</g>
		<g id="shape1042-122" transform="translate(670.719,-46.8465)">
			<title>Round Corner Rectangle.1244</title>
			<desc>SRV-4</desc>
			<path d="M8.5 292.12 L76.54 292.12 A8.5038 8.5038 -180 0 0 85.04 283.61 L85.04 272.28 A8.5038 8.5038 -180 0 0 76.54 263.77
						 L8.5 263.77 A8.5038 8.5038 -180 0 0 0 272.28 L0 283.61 A8.5038 8.5038 -180 0 0 8.5 292.12 Z" class="st5"/>
			<text x="29.07" y="280.95" class="st3">SRV-4</text>		</g>
		<g id="shape1043-125" transform="translate(1005.36,188.579) rotate(90)">
			<title>Sheet.1043</title>
			<path d="M0 292.12 L28.35 292.12" class="st1"/>
		</g>
		<g id="shape1044-128" transform="translate(535.025,338.444) rotate(-135)">
			<title>Sheet.1044</title>
			<path d="M0 292.12 L40.09 292.12" class="st12"/>
		</g>
		<g id="shape1045-131" transform="translate(948.144,310.097) rotate(135)">
			<title>Sheet.1045</title>
			<path d="M0 292.12 L40.09 292.12" class="st12"/>
		</g>
	</g>
</svg>
