<?xml version="1.0" encoding="UTF-8" standalone="no"?>
<!DOCTYPE svg PUBLIC "-//W3C//DTD SVG 1.1//EN" "http://www.w3.org/Graphics/SVG/1.1/DTD/svg11.dtd">
<!-- Generated by Microsoft Visio, SVG Export wcmp_bgp_design.svg PBH_DB -->
<svg xmlns="http://www.w3.org/2000/svg" xmlns:xlink="http://www.w3.org/1999/xlink" xmlns:ev="http://www.w3.org/2001/xml-events"
		width="7.40365in" height="3.86035in" viewBox="0 0 533.063 277.945" xml:space="preserve" color-interpolation-filters="sRGB"
		class="st10">
	<title>wcmp bgp design</title>

	<style type="text/css">
	<![CDATA[
		.st1 {fill:#5b9bd5;stroke:#000000;stroke-linecap:round;stroke-linejoin:round;stroke-width:1}
		.st2 {fill:#ffffff;font-family:Segoe UI;font-size:0.833336em;font-weight:bold}
		.st3 {fill:#70ad47;stroke:#000000;stroke-linecap:round;stroke-linejoin:round;stroke-width:1}
		.st4 {fill:#ed7d31;stroke:#000000;stroke-linecap:round;stroke-linejoin:round;stroke-width:1}
		.st5 {fill:#ffffff;font-family:Segoe UI;font-size:0.833336em}
		.st6 {marker-end:url(#mrkr4-21);marker-start:url(#mrkr4-19);stroke:#000000;stroke-linecap:round;stroke-linejoin:round;stroke-width:2}
		.st7 {fill:#000000;fill-opacity:1;stroke:#000000;stroke-opacity:1;stroke-width:0.44247787610619}
		.st8 {marker-end:url(#mrkr4-33);stroke:#000000;stroke-linecap:round;stroke-linejoin:round;stroke-width:2}
		.st9 {fill:#000000;fill-opacity:1;stroke:#000000;stroke-opacity:1;stroke-width:0.38167938931298}
		.st10 {fill:none;fill-rule:evenodd;font-size:12px;overflow:visible;stroke-linecap:square;stroke-miterlimit:3}
	]]>
	</style>

	<defs id="Markers">
		<g id="lend4">
			<path d="M 2 1 L 0 0 L 2 -1 L 2 1 " style="stroke:none"/>
		</g>
		<marker id="mrkr4-19" class="st7" refX="4.34" orient="auto" markerUnits="strokeWidth" overflow="visible">
			<use xlink:href="#lend4" transform="scale(2.26) "/>
		</marker>
		<marker id="mrkr4-21" class="st7" refX="-4.52" orient="auto" markerUnits="strokeWidth" overflow="visible">
			<use xlink:href="#lend4" transform="scale(-2.26,-2.26) "/>
		</marker>
		<marker id="mrkr4-33" class="st9" refX="-5.24" orient="auto" markerUnits="strokeWidth" overflow="visible">
			<use xlink:href="#lend4" transform="scale(-2.62,-2.62) "/>
		</marker>
	</defs>
	<g>
		<title>WCMP_BGP_DESIGN</title>
		<g id="group1092-1" transform="translate(18.5,-18.5)">
			<title>Can.1092</title>
			<desc>CONFIG_DB</desc>
			<g id="shape1093-2">
				<title>Sheet.1093</title>
				<path d="M0 253.85 A70.8661 24.0945 -180 1 0 141.73 253.85 L141.73 61.09 L0 61.09 L0 253.85 Z" class="st1"/>
			</g>
			<g id="shape1092-4">
				<ellipse cx="70.8661" cy="61.0945" rx="70.8661" ry="24.0945" class="st1"/>
				<text x="43.3" y="106.47" class="st2">CONFIG_DB</text>			</g>
		</g>
		<g id="shape1094-7" transform="translate(202.752,-18.5)">
			<title>Rounded Rectangle.1094</title>
			<desc>BGPCFGD</desc>
			<path d="M14.17 277.94 L127.56 277.94 A14.173 14.173 -180 0 0 141.73 263.77 L141.73 51.17 A14.173 14.173 -180 0 0 127.56
						 37 L14.17 37 A14.173 14.173 -180 0 0 -0 51.17 L0 263.77 A14.173 14.173 -180 0 0 14.17 277.94 Z"
					class="st3"/>
			<text x="48.07" y="64.47" class="st2">BGPCFGD</text>		</g>
		<g id="shape1097-10" transform="translate(216.925,-174.406)">
			<title>Rounded Rectangle.1097</title>
			<desc>DeviceGlobalCfgMgr</desc>
			<path d="M11.34 277.94 L102.05 277.94 A11.3384 11.3384 -180 0 0 113.39 266.61 L113.39 246.76 A11.3384 11.3384 -180 0
						 0 102.05 235.43 L11.34 235.43 A11.3384 11.3384 -180 0 0 -0 246.76 L0 266.61 A11.3384 11.3384 -180 0 0 11.34
						 277.94 Z" class="st4"/>
			<text x="11" y="259.69" class="st5">DeviceGlobalCfgMgr</text>		</g>
		<g id="shape1098-13" transform="translate(344.484,-146.059)">
			<title>Dynamic connector.1098</title>
			<path d="M8.68 285.03 L9.04 285.03 L33.48 285.03" class="st6"/>
		</g>
		<g id="shape1099-22" transform="translate(387.004,-18.5)">
			<title>Rounded Rectangle.1099</title>
			<desc>FRR</desc>
			<path d="M12.76 277.94 L114.8 277.94 A12.7557 12.7557 -180 0 0 127.56 265.19 L127.56 49.76 A12.7557 12.7557 -180 0 0
						 114.8 37 L12.76 37 A12.7557 12.7557 -180 0 0 0 49.76 L0 265.19 A12.7557 12.7557 -180 0 0 12.76 277.94 Z"
					class="st3"/>
			<text x="54.65" y="160.47" class="st2">FRR</text>		</g>
		<g id="shape1103-25" transform="translate(32.6732,-146.059)">
			<title>Rounded Rectangle.1103</title>
			<desc>BGP_DEVICE_GLOBAL</desc>
			<path d="M11.34 277.94 L102.05 277.94 A11.3384 11.3384 -180 0 0 113.39 266.61 L113.39 260.94 A11.3384 11.3384 -180 0
						 0 102.05 249.6 L11.34 249.6 A11.3384 11.3384 -180 0 0 0 260.94 L0 266.61 A11.3384 11.3384 -180 0 0 11.34
						 277.94 Z" class="st4"/>
			<text x="9.35" y="266.77" class="st5">BGP_DEVICE_GLOBAL</text>		</g>
		<g id="shape1104-28" transform="translate(160.232,-146.059)">
			<title>Dynamic connector.1104</title>
			<path d="M0 285.03 L32.04 285.03" class="st8"/>
		</g>
	</g>
</svg>
