<?xml version="1.0" encoding="UTF-8"?> <!-- Generator: Adobe Illustrator 24.3.0, SVG Export Plug-In . SVG Version: 6.00 Build 0) --> <svg xmlns="http://www.w3.org/2000/svg" xmlns:xlink="http://www.w3.org/1999/xlink" version="1.1" id="Layer_1" x="0px" y="0px" viewBox="0 0 339 111.5" style="enable-background:new 0 0 339 111.5;" xml:space="preserve"> <style type="text/css"> .Graphic_x0020_Style_x0020_2{fill:none;} .st0{fill:#003764;} .st1{fill:#009ADE;} </style> <g> <g> <path class="st0" d="M130.2,0.4h19.6v2h-8.6v22.7h-2.3V2.4h-8.6V0.4z"></path> <path class="st0" d="M152.1,0.4h2.3v10.7h14.7V0.4h2.3v24.7h-2.3v-12h-14.7v12h-2.3V0.4z"></path> <path class="st0" d="M176.5,0.4h17v2h-14.7v8.9h13.8v2h-13.8v9.7h14.9v2h-17.2V0.4z"></path> </g> <g> <path class="st0" d="M130.2,86.3h15.7v2h-13.3v8.9h11.8v2h-11.8V111h-2.3V86.3z"></path> <path class="st0" d="M159.1,85.8c7.7,0,11.6,6.1,11.6,12.9c0,6.8-3.9,12.9-11.6,12.9c-7.8,0-11.6-6.1-11.6-12.9 C147.5,91.9,151.4,85.8,159.1,85.8z M159.1,109.5c6.5,0,9.3-5.5,9.3-10.9c0-5.4-2.8-10.9-9.3-10.9c-6.5,0-9.3,5.5-9.3,10.9 C149.8,104.1,152.6,109.5,159.1,109.5z"></path> <path class="st0" d="M174.2,86.3h2.3v15.3c0,5.7,2.7,7.9,7.2,7.9c4.6,0,7.3-2.2,7.3-7.9V86.3h2.4v15.8c0,5.1-2.7,9.4-9.6,9.4 c-6.8,0-9.6-4.3-9.6-9.4V86.3z"></path> <path class="st0" d="M198.1,86.3h2.6l14.4,20.9h0.1V86.3h2.4V111h-2.6l-14.4-20.9h-0.1V111h-2.4V86.3z"></path> <path class="st0" d="M222.4,86.3h8.5c7.5,0.2,11.3,4.2,11.3,12.3c0,8.2-3.9,12.2-11.3,12.3h-8.5V86.3z M224.8,109h5 c7.1,0,10.2-2.9,10.2-10.3s-3.1-10.3-10.2-10.3h-5V109z"></path> <path class="st0" d="M253.3,86.3h2.6l9.7,24.7h-2.5l-3-7.7h-11.2l-3,7.7h-2.5L253.3,86.3z M249.6,101.3h9.7l-4.8-12.6L249.6,101.3 z"></path> <path class="st0" d="M262.9,86.3h19.6v2h-8.6V111h-2.4V88.3h-8.6V86.3z"></path> <path class="st0" d="M284.9,86.3h2.4V111h-2.4V86.3z"></path> <path class="st0" d="M302.7,85.8c7.7,0,11.6,6.1,11.6,12.9c0,6.8-3.9,12.9-11.6,12.9c-7.8,0-11.6-6.1-11.6-12.9 C291.1,91.9,295,85.8,302.7,85.8z M302.7,109.5c6.5,0,9.3-5.5,9.3-10.9c0-5.4-2.8-10.9-9.3-10.9c-6.5,0-9.3,5.5-9.3,10.9 C293.5,104.1,296.2,109.5,302.7,109.5z"></path> <path class="st0" d="M318,86.3h2.6l14.4,20.9h0.1V86.3h2.4V111h-2.6l-14.4-20.9h-0.1V111H318V86.3z"></path> </g> <g> <path class="st0" d="M130.2,32.4h13.6v32.8h19.5v11.3h-33.1V32.4z"></path> <path class="st0" d="M172.3,32.4h13.6v44.1h-13.6V32.4z"></path> <path class="st0" d="M196,32.4h13.9l12.9,23.6h0.1V32.4h12.9v44.1h-13.2L209,52.5h-0.1v24.1H196V32.4z"></path> <path class="st0" d="M286.1,59.5c0,12.3-6.5,18.1-20.1,18.1c-13.6,0-20.2-5.8-20.2-18.1V32.4h13.6v24.1c0,4.5-0.1,10.1,6.6,10.1 c6.4,0,6.4-5.7,6.4-10.1V32.4h13.6V59.5z"></path> <path class="st0" d="M307.7,53.1l-14.5-20.7h16l6.7,12l6.6-12h15.1l-14.2,20.8L339,76.6h-16.4l-7.5-13.2l-7.8,13.2h-15.6 L307.7,53.1z"></path> </g> <g> <polygon class="st1" points="22.2,88.8 22.2,44.4 0,44.4 0,111 66.6,111 66.6,88.8 "></polygon> <polygon class="st0" points="111,0 0,0 0,33.3 22.2,33.3 22.2,22.3 88.8,22.3 88.8,88.8 77.7,88.8 77.7,111 111,111 "></polygon> </g> </g> </svg> 