<?xml version="1.0" encoding="UTF-8" standalone="no"?>
<!DOCTYPE svg PUBLIC "-//W3C//DTD SVG 1.1//EN" "http://www.w3.org/Graphics/SVG/1.1/DTD/svg11.dtd">
<!-- Generated by Microsoft Visio, SVG Export pbh_add_flow.svg Page-6 -->
<svg xmlns="http://www.w3.org/2000/svg" xmlns:xlink="http://www.w3.org/1999/xlink" xmlns:ev="http://www.w3.org/2001/xml-events"
		width="9.96271in" height="10.1371in" viewBox="0 0 717.315 729.875" xml:space="preserve" color-interpolation-filters="sRGB"
		class="st13">
	<title>pbh add flow</title>

	<style type="text/css">
	<![CDATA[
		.st1 {fill:#5b9bd5;stroke:#000000;stroke-linecap:round;stroke-linejoin:round;stroke-width:1}
		.st2 {stroke:#000000;stroke-dasharray:7,5;stroke-linecap:round;stroke-linejoin:round;stroke-width:1}
		.st3 {fill:#ffffff;font-family:Segoe UI;font-size:1.00001em;font-weight:bold}
		.st4 {fill:#af5200;stroke:#a54d00;stroke-linecap:round;stroke-linejoin:round;stroke-width:0.5}
		.st5 {marker-end:url(#mrkr3-62);stroke:#a54d00;stroke-linecap:round;stroke-linejoin:round;stroke-width:1}
		.st6 {fill:#a54d00;fill-opacity:1;stroke:#a54d00;stroke-opacity:1;stroke-width:0.23584905660377}
		.st7 {fill:#ffffff;stroke:none;stroke-linecap:butt;stroke-width:7.2}
		.st8 {fill:#813b00;font-family:Segoe UI;font-size:1.00001em;font-weight:bold}
		.st9 {marker-end:url(#mrkr4-70);stroke:#a54d00;stroke-linecap:round;stroke-linejoin:round;stroke-width:1}
		.st10 {fill:#803a00;font-family:Segoe UI;font-size:1.00001em;font-weight:bold}
		.st11 {marker-end:url(#mrkr3-62);stroke:#a54d00;stroke-dasharray:7,5;stroke-linecap:round;stroke-linejoin:round;stroke-width:1}
		.st12 {fill:#ffffff;stroke:none;stroke-linecap:butt}
		.st13 {fill:none;fill-rule:evenodd;font-size:12px;overflow:visible;stroke-linecap:square;stroke-miterlimit:3}
	]]>
	</style>

	<defs id="Markers">
		<g id="lend3">
			<path d="M 2 1 L 0 0 L 2 -1 " style="stroke-linecap:round;stroke-linejoin:round;fill:none"/>
		</g>
		<marker id="mrkr3-62" class="st6" orient="auto" markerUnits="strokeWidth" overflow="visible">
			<use xlink:href="#lend3" transform="scale(-4.24,-4.24) "/>
		</marker>
		<g id="lend4">
			<path d="M 2 1 L 0 0 L 2 -1 L 2 1 " style="stroke:none"/>
		</g>
		<marker id="mrkr4-70" class="st6" refX="-8.48" orient="auto" markerUnits="strokeWidth" overflow="visible">
			<use xlink:href="#lend4" transform="scale(-4.24,-4.24) "/>
		</marker>
	</defs>
	<g>
		<title>Page-6</title>
		<g id="group1185-1" transform="translate(18.5,-665.312)">
			<title>Actor lifeline.764</title>
			<desc>ConfigDB</desc>
			<g id="shape1186-2" transform="translate(17.0079,-8.50394)">
				<title>Sheet.1186</title>
				<rect x="0" y="704.363" width="51.0236" height="25.5118" class="st1"/>
			</g>
			<g id="shape1187-4" transform="translate(34.0157,-46.063)">
				<title>Sheet.1187</title>
				<path d="M8.5 729.87 a6.99441E-15 0 0 1 1 -1.42109E-14 0 a6.99441E-15 0 0 1 1 1.42109E-14 0 Z" class="st1"/>
			</g>
			<g id="shape1188-6" transform="translate(28.3465,647.312)">
				<title>Sheet.1188</title>
			</g>
			<g id="shape1189-8" transform="translate(772.394,729.875) rotate(90)">
				<title>Sheet.1189</title>
				<path d="M0 729.87 L623.62 729.87" class="st2"/>
			</g>
			<g id="shape1185-11">
				<rect x="0" y="687.355" width="85.0394" height="42.5197" class="st1"/>
				<text x="15.49" y="712.22" class="st3">ConfigDB</text>			</g>
		</g>
		<g id="group1190-14" transform="translate(216.925,-665.311)">
			<title>Object lifeline.769</title>
			<desc>PbhOrch</desc>
			<g id="shape1191-15" transform="translate(17.0079,-8.50394)">
				<title>Sheet.1191</title>
				<rect x="0" y="704.363" width="51.0236" height="25.5118" class="st1"/>
			</g>
			<g id="shape1192-17" transform="translate(34.0157,-46.063)">
				<title>Sheet.1192</title>
				<path d="M8.5 729.87 a0 0 0 1 1 0 0 a0 0 0 1 1 0 0 Z" class="st1"/>
			</g>
			<g id="shape1193-19" transform="translate(28.3465,647.311)">
				<title>Sheet.1193</title>
			</g>
			<g id="shape1194-21" transform="translate(772.394,729.875) rotate(90)">
				<title>Sheet.1194</title>
				<path d="M0 729.87 L623.62 729.87" class="st2"/>
			</g>
			<g id="shape1190-24">
				<rect x="0" y="687.355" width="85.0394" height="42.5197" class="st1"/>
				<text x="18.07" y="712.22" class="st3">PbhOrch</text>			</g>
		</g>
		<g id="group1195-27" transform="translate(415.35,-665.312)">
			<title>Object lifeline.774</title>
			<desc>AclOrch</desc>
			<g id="shape1196-28" transform="translate(17.0079,-8.50394)">
				<title>Sheet.1196</title>
				<rect x="0" y="704.363" width="51.0236" height="25.5118" class="st1"/>
			</g>
			<g id="shape1197-30" transform="translate(34.0157,-46.063)">
				<title>Sheet.1197</title>
				<path d="M8.5 729.87 a0 0 0 1 1 0 0 a0 0 0 1 1 0 0 Z" class="st1"/>
			</g>
			<g id="shape1198-32" transform="translate(28.3465,647.312)">
				<title>Sheet.1198</title>
			</g>
			<g id="shape1199-34" transform="translate(772.394,729.875) rotate(90)">
				<title>Sheet.1199</title>
				<path d="M0 729.87 L623.62 729.87" class="st2"/>
			</g>
			<g id="shape1195-37">
				<rect x="0" y="687.355" width="85.0394" height="42.5197" class="st1"/>
				<text x="20.29" y="712.22" class="st3">AclOrch</text>			</g>
		</g>
		<g id="group1200-40" transform="translate(613.775,-665.312)">
			<title>Object lifeline.782</title>
			<desc>SAI</desc>
			<g id="shape1201-41" transform="translate(17.0079,-8.50394)">
				<title>Sheet.1201</title>
				<rect x="0" y="704.363" width="51.0236" height="25.5118" class="st1"/>
			</g>
			<g id="shape1202-43" transform="translate(34.0157,-46.063)">
				<title>Sheet.1202</title>
				<path d="M8.5 729.87 a0 0 0 1 1 0 0 a0 0 0 1 1 0 0 Z" class="st1"/>
			</g>
			<g id="shape1203-45" transform="translate(28.3465,647.312)">
				<title>Sheet.1203</title>
			</g>
			<g id="shape1204-47" transform="translate(772.394,729.875) rotate(90)">
				<title>Sheet.1204</title>
				<path d="M0 729.87 L623.62 729.87" class="st2"/>
			</g>
			<g id="shape1200-50">
				<rect x="0" y="687.355" width="85.0394" height="42.5197" class="st1"/>
				<text x="33.04" y="712.22" class="st3">SAI</text>			</g>
		</g>
		<g id="shape1205-53" transform="translate(-466.178,149.603) rotate(-90)">
			<title>Activation.1266</title>
			<rect x="0" y="721.371" width="56.6931" height="8.50394" class="st4"/>
		</g>
		<g id="shape1206-55" transform="translate(-664.603,433.067) rotate(-90)">
			<title>Activation.1269</title>
			<rect x="0" y="721.371" width="340.157" height="8.50394" class="st4"/>
		</g>
		<g id="shape1207-57" transform="translate(65.2715,-629.879)">
			<title>Asynchronous Message.1273</title>
			<desc>PBH_HASH|name</desc>
			<path d="M0 722.79 L189.92 722.79" class="st5"/>
			<rect x="46.0081" y="715.588" width="97.9052" height="14.4001" class="st7"/>
			<text x="46.01" y="726.39" class="st8">PBH_HASH|name</text>		</g>
		<g id="shape1208-65" transform="translate(256.61,-636.965)">
			<title>Self Message.1275</title>
			<desc>process data</desc>
			<path d="M7.09 729.87 L25.09 729.87 L25.09 786.57 L15.57 786.57" class="st9"/>
			<rect x="21.3488" y="751.021" width="70.6885" height="14.4001" class="st7"/>
			<text x="21.35" y="761.82" class="st10">process data</text>		</g>
		<g id="shape1209-73" transform="translate(65.2715,-473.973)">
			<title>Asynchronous Message.1276</title>
			<desc>PBH_TABLE|name</desc>
			<path d="M0 736.96 L189.92 736.96" class="st5"/>
			<rect x="44.9416" y="729.761" width="100.038" height="14.4001" class="st7"/>
			<text x="44.94" y="740.56" class="st8">PBH_TABLE|name</text>		</g>
		<g id="shape1210-80" transform="translate(263.697,-544.839)">
			<title>Message.1278</title>
			<desc>create_fine_grained_hash_field</desc>
			<path d="M0 722.79 L379.87 722.79" class="st9"/>
			<rect x="108.617" y="715.588" width="171.113" height="14.4001" class="st7"/>
			<text x="108.62" y="726.39" class="st10">create_fine_grained_hash_field</text>		</g>
		<g id="shape1211-87" transform="translate(-69.3275,234.642) rotate(-90)">
			<title>Activation.1279</title>
			<rect x="0" y="721.371" width="56.6929" height="8.50394" class="st4"/>
		</g>
		<g id="shape1212-89" transform="translate(-466.178,234.642) rotate(-90)">
			<title>Activation.1280</title>
			<rect x="0" y="721.371" width="56.6929" height="8.50394" class="st4"/>
		</g>
		<g id="shape1213-91" transform="translate(-466.178,489.76) rotate(-90)">
			<title>Activation.1281</title>
			<rect x="0" y="721.371" width="56.6929" height="8.50394" class="st4"/>
		</g>
		<g id="shape1214-93" transform="translate(-466.178,319.681) rotate(-90)">
			<title>Activation.1282</title>
			<rect x="0" y="721.371" width="56.6929" height="8.50394" class="st4"/>
		</g>
		<g id="shape1215-95" transform="translate(256.61,-466.886)">
			<title>Self Message.1283</title>
			<desc>process data</desc>
			<path d="M7.09 729.87 L25.09 729.87 L25.09 786.57 L15.57 786.57" class="st9"/>
			<rect x="21.3488" y="751.021" width="70.6885" height="14.4001" class="st7"/>
			<text x="21.35" y="761.82" class="st10">process data</text>		</g>
		<g id="shape1216-102" transform="translate(65.2714,-289.721)">
			<title>Asynchronous Message.1284</title>
			<desc>PBH_RULE|name</desc>
			<path d="M0 722.79 L189.92 722.79" class="st5"/>
			<rect x="48.2668" y="715.588" width="93.3879" height="14.4001" class="st7"/>
			<text x="48.27" y="726.39" class="st8">PBH_RULE|name</text>		</g>
		<g id="shape1217-109" transform="translate(652.043,-502.319)">
			<title>Return Message.1285</title>
			<desc>return &#60;fg_hash_oid&#62;</desc>
			<path d="M0 736.96 L-388.35 736.96" class="st11"/>
			<rect x="-255.105" y="729.761" width="121.864" height="14.4001" class="st7"/>
			<text x="-255.11" y="740.56" class="st10">return &#60;fg_hash_oid&#62;</text>		</g>
		<g id="shape1218-116" transform="translate(256.61,-296.808)">
			<title>Self Message.1286</title>
			<desc>process data</desc>
			<path d="M7.09 729.87 L25.09 729.87 L25.09 786.57 L15.57 786.57" class="st9"/>
			<rect x="21.3488" y="751.021" width="70.6885" height="14.4001" class="st7"/>
			<text x="21.35" y="761.82" class="st10">process data</text>		</g>
		<g id="shape1219-123" transform="translate(-466.178,404.72) rotate(-90)">
			<title>Activation.1288</title>
			<rect x="0" y="721.371" width="56.6929" height="8.50394" class="st4"/>
		</g>
		<g id="shape1220-125" transform="translate(263.697,-388.934)">
			<title>Message.1289</title>
			<desc>addAclTable</desc>
			<path d="M0 736.96 L181.44 736.96" class="st9"/>
			<rect x="60.0823" y="729.761" width="69.7569" height="14.4001" class="st7"/>
			<text x="60.08" y="740.56" class="st10">addAclTable</text>		</g>
		<g id="shape1221-132" transform="translate(-267.753,404.72) rotate(-90)">
			<title>Activation.1290</title>
			<rect x="0" y="721.371" width="56.6929" height="8.50394" class="st4"/>
		</g>
		<g id="shape1222-134" transform="translate(453.618,-318.068)">
			<title>Return Message.1291</title>
			<desc>return &#60;result&#62;</desc>
			<path d="M0 722.79 L-189.92 722.79" class="st11"/>
			<rect x="-138.66" y="715.588" width="87.3993" height="14.4001" class="st7"/>
			<text x="-138.66" y="726.39" class="st10">return &#60;result&#62;</text>		</g>
		<g id="shape1223-141" transform="translate(-466.178,659.839) rotate(-90)">
			<title>Activation.1292</title>
			<rect x="0" y="721.371" width="56.6929" height="8.50394" class="st4"/>
		</g>
		<g id="shape1224-143" transform="translate(263.697,-119.642)">
			<title>Message.1293</title>
			<desc>addAclRule</desc>
			<path d="M0 722.79 L181.44 722.79" class="st9"/>
			<rect x="63.0004" y="715.588" width="63.9207" height="14.4001" class="st7"/>
			<text x="63" y="726.39" class="st10">addAclRule</text>		</g>
		<g id="shape1225-150" transform="translate(453.618,-77.1226)">
			<title>Return Message.1295</title>
			<desc>return &#60;result&#62;</desc>
			<path d="M0 736.96 L-189.92 736.96" class="st11"/>
			<rect x="-138.66" y="729.761" width="87.3993" height="14.4001" class="st7"/>
			<text x="-138.66" y="740.56" class="st10">return &#60;result&#62;</text>		</g>
		<g id="shape1226-157" transform="translate(462.122,-374.76)">
			<title>Message.1296</title>
			<desc>create_acl_table</desc>
			<path d="M0 722.79 L181.44 722.79" class="st9"/>
			<rect x="50.6074" y="715.588" width="88.7066" height="14.4001" class="st12"/>
			<text x="50.61" y="726.39" class="st10">create_acl_table</text>		</g>
		<g id="shape1227-164" transform="translate(652.043,-332.241)">
			<title>Return Message.1297</title>
			<desc>return &#60;acl_table_oid&#62;</desc>
			<path d="M0 736.96 L-189.92 736.96" class="st11"/>
			<rect x="-158.834" y="729.761" width="127.748" height="14.4001" class="st7"/>
			<text x="-158.83" y="740.56" class="st10">return &#60;acl_table_oid&#62;</text>		</g>
		<g id="shape1228-171" transform="translate(-69.3275,404.72) rotate(-90)">
			<title>Activation.1298</title>
			<rect x="0" y="721.371" width="56.6929" height="8.50394" class="st4"/>
		</g>
		<g id="shape1229-173" transform="translate(462.122,-133.816)">
			<title>Message.1299</title>
			<desc>create_acl_entry</desc>
			<path d="M0 736.96 L181.44 736.96" class="st9"/>
			<rect x="50.0157" y="729.761" width="89.8901" height="14.4001" class="st7"/>
			<text x="50.02" y="740.56" class="st10">create_acl_entry</text>		</g>
		<g id="shape1230-180" transform="translate(652.043,-62.9494)">
			<title>Return Message.1300</title>
			<desc>return &#60;acl_entry_oid&#62;</desc>
			<path d="M0 722.79 L-189.92 722.79" class="st11"/>
			<rect x="-159.426" y="715.588" width="128.931" height="14.4001" class="st7"/>
			<text x="-159.43" y="726.39" class="st10">return &#60;acl_entry_oid&#62;</text>		</g>
		<g id="shape1231-187" transform="translate(-69.3275,659.839) rotate(-90)">
			<title>Activation.1301</title>
			<rect x="0" y="721.371" width="56.6929" height="8.50394" class="st4"/>
		</g>
		<g id="shape1232-189" transform="translate(-466.178,574.799) rotate(-90)">
			<title>Activation.1302</title>
			<rect x="0" y="721.371" width="56.6929" height="8.50394" class="st4"/>
		</g>
		<g id="shape1233-191" transform="translate(263.697,-204.682)">
			<title>Message.1303</title>
			<desc>create_hash</desc>
			<path d="M0 722.79 L379.87 722.79" class="st9"/>
			<rect x="161.267" y="715.588" width="65.8133" height="14.4001" class="st7"/>
			<text x="161.27" y="726.39" class="st10">create_hash</text>		</g>
		<g id="shape1234-198" transform="translate(652.043,-162.162)">
			<title>Return Message.1307</title>
			<desc>return &#60;hash_oid&#62;</desc>
			<path d="M0 736.96 L-388.35 736.96" class="st11"/>
			<rect x="-246.6" y="729.761" width="104.854" height="14.4001" class="st7"/>
			<text x="-246.6" y="740.56" class="st10">return &#60;hash_oid&#62;</text>		</g>
		<g id="shape1235-205" transform="translate(-69.3275,574.799) rotate(-90)">
			<title>Activation.1308</title>
			<rect x="0" y="721.371" width="56.6929" height="8.50394" class="st4"/>
		</g>
		<g id="shape1236-207" transform="translate(-267.753,659.839) rotate(-90)">
			<title>Activation.1321</title>
			<rect x="0" y="721.371" width="56.6929" height="8.50394" class="st4"/>
		</g>
	</g>
</svg>
