<?xml version="1.0" encoding="UTF-8" standalone="no"?>
<!DOCTYPE svg PUBLIC "-//W3C//DTD SVG 1.1//EN" "http://www.w3.org/Graphics/SVG/1.1/DTD/svg11.dtd">
<!-- Generated by Microsoft Visio, SVG Export pbh_design.svg PBH_DESIGN -->
<svg xmlns="http://www.w3.org/2000/svg" xmlns:xlink="http://www.w3.org/1999/xlink" xmlns:ev="http://www.w3.org/2001/xml-events"
		width="9.36868in" height="5.04145in" viewBox="0 0 674.545 362.984" xml:space="preserve" color-interpolation-filters="sRGB"
		class="st14">
	<title>pbh design</title>

	<style type="text/css">
	<![CDATA[
		.st1 {stroke:#000000;stroke-linecap:round;stroke-linejoin:round;stroke-width:2}
		.st2 {fill:#7f7f7f;stroke:#000000;stroke-linecap:round;stroke-linejoin:round;stroke-width:1}
		.st3 {fill:#ffffff;font-family:Segoe UI;font-size:0.833336em;font-weight:bold}
		.st4 {fill:none;stroke:none;stroke-linecap:round;stroke-linejoin:round;stroke-width:0.5}
		.st5 {fill:#000000;font-family:Segoe UI;font-size:1.00001em;font-weight:bold}
		.st6 {fill:#70ad47;stroke:#000000;stroke-linecap:round;stroke-linejoin:round;stroke-width:1}
		.st7 {fill:#ffc000}
		.st8 {stroke:#000000;stroke-linecap:round;stroke-linejoin:round;stroke-width:1}
		.st9 {fill:#ffc000;stroke:#000000;stroke-linecap:round;stroke-linejoin:round;stroke-width:1;visibility:hidden}
		.st10 {fill:#5b9bd5;stroke:#000000;stroke-linecap:round;stroke-linejoin:round;stroke-width:1}
		.st11 {fill:#305497;stroke:#000000;stroke-linecap:round;stroke-linejoin:round;stroke-width:1}
		.st12 {fill:#ed7d31;stroke:#000000;stroke-linecap:round;stroke-linejoin:round;stroke-width:1}
		.st13 {fill:#ffffff;font-family:Segoe UI;font-size:0.833336em}
		.st14 {fill:none;fill-rule:evenodd;font-size:12px;overflow:visible;stroke-linecap:square;stroke-miterlimit:3}
	]]>
	</style>

	<g>
		<title>PBH_DESIGN</title>
		<g id="shape1010-1" transform="translate(443.697,-174.406)">
			<title>Right Brace.1003</title>
			<path d="M-0 362.98 A37.9502 26.0908 -180 0 0 14.17 347.39 L14.17 285.03 L28.35 285.03 L14.17 285.03 L14.17 222.67 A37.9502
						 26.0908 -180 0 0 0 207.08" class="st1"/>
		</g>
		<g id="shape1029-4" transform="translate(259.445,-18.5)">
			<title>Rounded Rectangle.1039</title>
			<desc>SWITCH</desc>
			<path d="M12.76 362.98 L114.8 362.98 A12.7557 12.7557 -180 0 0 127.56 350.23 L127.56 49.76 A12.7557 12.7557 -180 0 0
						 114.8 37 L12.76 37 A12.7557 12.7557 -180 0 0 0 49.76 L0 350.23 A12.7557 12.7557 -180 0 0 12.76 362.98 Z"
					class="st2"/>
			<text x="44.49" y="202.99" class="st3">SWITCH</text>		</g>
		<g id="shape1034-7" transform="translate(472.043,-174.406)">
			<title>Sheet.1034</title>
			<desc>Regular/Fine-Grained ECMP</desc>
			<rect x="0" y="207.079" width="184.252" height="155.906" class="st4"/>
			<text x="13.31" y="288.63" class="st5">Regular/Fine-Grained ECMP</text>		</g>
		<g id="shape1037-10" transform="translate(443.697,-32.6732)">
			<title>Right Brace.1037</title>
			<path d="M-0 362.98 A37.9502 11.8594 -180 0 0 14.17 355.9 L14.17 327.55 L28.35 327.55 L14.17 327.55 L14.17 299.2 A37.9502
						 11.8594 -180 0 0 0 292.12" class="st1"/>
		</g>
		<g id="shape1038-13" transform="translate(472.043,-32.6732)">
			<title>Sheet.1038</title>
			<desc>LAG</desc>
			<rect x="0" y="292.118" width="42.5197" height="70.8661" class="st4"/>
			<text x="9.71" y="331.15" class="st5">LAG</text>		</g>
		<g id="shape1039-16" transform="translate(18.5,-18.5)">
			<title>Rectangle.1039</title>
			<desc>NVGRE/VxLAN packet</desc>
			<rect x="0" y="37" width="198.425" height="325.984" class="st6"/>
			<text x="47.1" y="52.99" class="st3">NVGRE/VxLAN packet</text>		</g>
		<g id="group1049-19" transform="translate(216.925,-160.232) rotate(2.98316E-06)">
			<title>1-D single.1049</title>
			<g id="shape1050-20">
				<title>Sheet.1050</title>
				<path d="M0 352.35 L31.89 352.35 L31.89 362.98 L42.52 341.72 L31.89 320.46 L31.89 331.09 L0 331.09 L0 352.35 Z"
						class="st7"/>
				<path d="M0 352.35 L31.89 352.35 L31.89 362.98 L42.52 341.72 L31.89 320.46 L31.89 331.09 L0 331.09" class="st8"/>
			</g>
			<g id="shape1051-23">
				<title>Sheet.1051</title>
				<path d="M0 352.35 L31.89 352.35 L31.89 362.98 L42.52 341.72 L31.89 320.46 L31.89 331.09 L0 331.09 L0 352.35"
						class="st8"/>
			</g>
			<g id="shape1052-26" transform="translate(-0.545197,-10.8099)">
				<title>Sheet.1052</title>
				<rect x="0" y="342.084" width="0.24" height="20.8998" class="st9"/>
			</g>
		</g>
		<g id="shape1053-28" transform="translate(32.6732,-32.6732)">
			<title>Rectangle.1053</title>
			<desc>Outer IPv4/IPv6 Frame</desc>
			<rect x="0" y="79.5197" width="170.079" height="283.465" class="st10"/>
			<text x="31.56" y="98.25" class="st3">Outer IPv4/IPv6 Frame</text>		</g>
		<g id="shape1054-31" transform="translate(46.8465,-46.8465)">
			<title>Rectangle.1054</title>
			<desc>Inner IPv4/IPv6 Frame</desc>
			<rect x="0" y="122.039" width="141.732" height="240.945" class="st11"/>
			<text x="18.51" y="137.51" class="st3">Inner IPv4/IPv6 Frame</text>		</g>
		<g id="shape1055-34" transform="translate(61.0197,-231.098)">
			<title>Rectangle.1055</title>
			<desc>INNER_IP_PROTOCOL</desc>
			<rect x="0" y="334.638" width="113.386" height="28.3465" class="st12"/>
			<text x="8.91" y="351.81" class="st13">INNER_IP_PROTOCOL</text>		</g>
		<g id="shape1056-37" transform="translate(61.0197,-188.579)">
			<title>Rectangle.1056</title>
			<desc>INNER_L4_DST_PORT</desc>
			<rect x="0" y="334.638" width="113.386" height="28.3465" class="st12"/>
			<text x="10.13" y="351.81" class="st13">INNER_L4_DST_PORT</text>		</g>
		<g id="shape1057-40" transform="translate(61.0197,-146.059)">
			<title>Rectangle.1057</title>
			<desc>INNER_L4_SRC_PORT</desc>
			<rect x="0" y="334.638" width="113.386" height="28.3465" class="st12"/>
			<text x="10.16" y="351.81" class="st13">INNER_L4_SRC_PORT</text>		</g>
		<g id="shape1058-43" transform="translate(61.0197,-103.539)">
			<title>Rectangle.1058</title>
			<desc>INNER_DST_IP_ADDR</desc>
			<rect x="0" y="334.638" width="113.386" height="28.3465" class="st12"/>
			<text x="10" y="351.81" class="st13">INNER_DST_IP_ADDR</text>		</g>
		<g id="shape1059-46" transform="translate(61.0197,-61.0197)">
			<title>Rectangle.1059</title>
			<desc>INNER_SRC_IP_ADDR</desc>
			<rect x="0" y="334.638" width="113.386" height="28.3465" class="st12"/>
			<text x="10.03" y="351.81" class="st13">INNER_SRC_IP_ADDR</text>		</g>
		<g id="group1080-49" transform="translate(387.004,-174.406)">
			<title>1-D single.1080</title>
			<g id="shape1081-50">
				<title>Sheet.1081</title>
				<path d="M0 355.9 L35.43 355.9 L35.43 362.98 L42.52 348.81 L35.43 334.64 L35.43 341.72 L0 341.72 L0 355.9 Z"
						class="st7"/>
				<path d="M0 355.9 L35.43 355.9 L35.43 362.98 L42.52 348.81 L35.43 334.64 L35.43 341.72 L0 341.72" class="st8"/>
			</g>
			<g id="shape1082-53">
				<title>Sheet.1082</title>
				<path d="M0 355.9 L35.43 355.9 L35.43 362.98 L42.52 348.81 L35.43 334.64 L35.43 341.72 L0 341.72 L0 355.9"
						class="st8"/>
			</g>
			<g id="shape1083-56" transform="translate(-0.545197,-7.20661)">
				<title>Sheet.1083</title>
				<rect x="0" y="349.051" width="0.24" height="13.9332" class="st9"/>
			</g>
		</g>
		<g id="group1092-58" transform="translate(387.004,-216.925)">
			<title>1-D single.1092</title>
			<g id="shape1093-59">
				<title>Sheet.1093</title>
				<path d="M0 355.9 L35.43 355.9 L35.43 362.98 L42.52 348.81 L35.43 334.64 L35.43 341.72 L0 341.72 L0 355.9 Z"
						class="st7"/>
				<path d="M0 355.9 L35.43 355.9 L35.43 362.98 L42.52 348.81 L35.43 334.64 L35.43 341.72 L0 341.72" class="st8"/>
			</g>
			<g id="shape1094-62">
				<title>Sheet.1094</title>
				<path d="M0 355.9 L35.43 355.9 L35.43 362.98 L42.52 348.81 L35.43 334.64 L35.43 341.72 L0 341.72 L0 355.9"
						class="st8"/>
			</g>
			<g id="shape1095-65" transform="translate(-0.545197,-7.20661)">
				<title>Sheet.1095</title>
				<rect x="0" y="349.051" width="0.24" height="13.9332" class="st9"/>
			</g>
		</g>
		<g id="group1096-67" transform="translate(387.004,-259.445)">
			<title>1-D single.1096</title>
			<g id="shape1097-68">
				<title>Sheet.1097</title>
				<path d="M0 355.9 L35.43 355.9 L35.43 362.98 L42.52 348.81 L35.43 334.64 L35.43 341.72 L0 341.72 L0 355.9 Z"
						class="st7"/>
				<path d="M0 355.9 L35.43 355.9 L35.43 362.98 L42.52 348.81 L35.43 334.64 L35.43 341.72 L0 341.72" class="st8"/>
			</g>
			<g id="shape1098-71">
				<title>Sheet.1098</title>
				<path d="M0 355.9 L35.43 355.9 L35.43 362.98 L42.52 348.81 L35.43 334.64 L35.43 341.72 L0 341.72 L0 355.9"
						class="st8"/>
			</g>
			<g id="shape1099-74" transform="translate(-0.545197,-7.20661)">
				<title>Sheet.1099</title>
				<rect x="0" y="349.051" width="0.24" height="13.9332" class="st9"/>
			</g>
		</g>
		<g id="group1100-76" transform="translate(387.004,-301.965)">
			<title>1-D single.1100</title>
			<g id="shape1101-77">
				<title>Sheet.1101</title>
				<path d="M0 355.9 L35.43 355.9 L35.43 362.98 L42.52 348.81 L35.43 334.64 L35.43 341.72 L0 341.72 L0 355.9 Z"
						class="st7"/>
				<path d="M0 355.9 L35.43 355.9 L35.43 362.98 L42.52 348.81 L35.43 334.64 L35.43 341.72 L0 341.72" class="st8"/>
			</g>
			<g id="shape1102-80">
				<title>Sheet.1102</title>
				<path d="M0 355.9 L35.43 355.9 L35.43 362.98 L42.52 348.81 L35.43 334.64 L35.43 341.72 L0 341.72 L0 355.9"
						class="st8"/>
			</g>
			<g id="shape1103-83" transform="translate(-0.545197,-7.20661)">
				<title>Sheet.1103</title>
				<rect x="0" y="349.051" width="0.24" height="13.9332" class="st9"/>
			</g>
		</g>
		<g id="group1104-85" transform="translate(387.004,-32.6732)">
			<title>1-D single.1104</title>
			<g id="shape1105-86">
				<title>Sheet.1105</title>
				<path d="M0 355.9 L35.43 355.9 L35.43 362.98 L42.52 348.81 L35.43 334.64 L35.43 341.72 L0 341.72 L0 355.9 Z"
						class="st7"/>
				<path d="M0 355.9 L35.43 355.9 L35.43 362.98 L42.52 348.81 L35.43 334.64 L35.43 341.72 L0 341.72" class="st8"/>
			</g>
			<g id="shape1106-89">
				<title>Sheet.1106</title>
				<path d="M0 355.9 L35.43 355.9 L35.43 362.98 L42.52 348.81 L35.43 334.64 L35.43 341.72 L0 341.72 L0 355.9"
						class="st8"/>
			</g>
			<g id="shape1107-92" transform="translate(-0.545197,-7.20661)">
				<title>Sheet.1107</title>
				<rect x="0" y="349.051" width="0.24" height="13.9332" class="st9"/>
			</g>
		</g>
		<g id="group1108-94" transform="translate(387.004,-75.1929)">
			<title>1-D single.1108</title>
			<g id="shape1109-95">
				<title>Sheet.1109</title>
				<path d="M0 355.9 L35.43 355.9 L35.43 362.98 L42.52 348.81 L35.43 334.64 L35.43 341.72 L0 341.72 L0 355.9 Z"
						class="st7"/>
				<path d="M0 355.9 L35.43 355.9 L35.43 362.98 L42.52 348.81 L35.43 334.64 L35.43 341.72 L0 341.72" class="st8"/>
			</g>
			<g id="shape1110-98">
				<title>Sheet.1110</title>
				<path d="M0 355.9 L35.43 355.9 L35.43 362.98 L42.52 348.81 L35.43 334.64 L35.43 341.72 L0 341.72 L0 355.9"
						class="st8"/>
			</g>
			<g id="shape1111-101" transform="translate(-0.545197,-7.20661)">
				<title>Sheet.1111</title>
				<rect x="0" y="349.051" width="0.24" height="13.9332" class="st9"/>
			</g>
		</g>
	</g>
</svg>
