<?xml version="1.0" encoding="UTF-8" standalone="no"?>
<!DOCTYPE svg PUBLIC "-//W3C//DTD SVG 1.1//EN" "http://www.w3.org/Graphics/SVG/1.1/DTD/svg11.dtd">
<!-- Generated by Microsoft Visio, SVG Export pbh_update_flow.svg Page-5 -->
<svg xmlns="http://www.w3.org/2000/svg" xmlns:xlink="http://www.w3.org/1999/xlink" xmlns:ev="http://www.w3.org/2001/xml-events"
		width="16.0651in" height="18.4821in" viewBox="0 0 1156.69 1330.71" xml:space="preserve" color-interpolation-filters="sRGB"
		class="st18">
	<title>pbh update flow</title>

	<style type="text/css">
	<![CDATA[
		.st1 {fill:#5b9bd5;stroke:#000000;stroke-linecap:round;stroke-linejoin:round;stroke-width:1}
		.st2 {stroke:#000000;stroke-dasharray:7,5;stroke-linecap:round;stroke-linejoin:round;stroke-width:1}
		.st3 {fill:#ffffff;font-family:Segoe UI;font-size:1.00001em;font-weight:bold}
		.st4 {fill:#af5200;stroke:#a54d00;stroke-linecap:round;stroke-linejoin:round;stroke-width:0.5}
		.st5 {marker-end:url(#mrkr3-62);stroke:#a54d00;stroke-linecap:round;stroke-linejoin:round;stroke-width:1}
		.st6 {fill:#a54d00;fill-opacity:1;stroke:#a54d00;stroke-opacity:1;stroke-width:0.23584905660377}
		.st7 {fill:#ffffff;stroke:none;stroke-linecap:butt;stroke-width:7.2}
		.st8 {fill:#813b00;font-family:Segoe UI;font-size:1.00001em;font-weight:bold}
		.st9 {marker-end:url(#mrkr4-70);stroke:#a54d00;stroke-linecap:round;stroke-linejoin:round;stroke-width:1}
		.st10 {fill:#803a00;font-family:Segoe UI;font-size:1.00001em;font-weight:bold}
		.st11 {marker-end:url(#mrkr3-62);stroke:#a54d00;stroke-dasharray:7,5;stroke-linecap:round;stroke-linejoin:round;stroke-width:1}
		.st12 {fill:#70ad47;stroke:#70ad47;stroke-linecap:round;stroke-linejoin:round;stroke-width:0.5}
		.st13 {fill:#ffffff;stroke:none;stroke-linecap:butt}
		.st14 {fill:none;stroke:#a54d00;stroke-linecap:round;stroke-linejoin:round;stroke-width:1}
		.st15 {fill:#b43500;font-family:Segoe UI;font-size:1.00001em;font-weight:bold}
		.st16 {fill:#ac770d;font-family:Segoe UI;font-size:1.00001em;font-weight:bold}
		.st17 {fill:none;stroke:none;stroke-linecap:round;stroke-linejoin:round;stroke-width:0.5}
		.st18 {fill:none;fill-rule:evenodd;font-size:12px;overflow:visible;stroke-linecap:square;stroke-miterlimit:3}
	]]>
	</style>

	<defs id="Markers">
		<g id="lend3">
			<path d="M 2 1 L 0 0 L 2 -1 " style="stroke-linecap:round;stroke-linejoin:round;fill:none"/>
		</g>
		<marker id="mrkr3-62" class="st6" orient="auto" markerUnits="strokeWidth" overflow="visible">
			<use xlink:href="#lend3" transform="scale(-4.24,-4.24) "/>
		</marker>
		<g id="lend4">
			<path d="M 2 1 L 0 0 L 2 -1 L 2 1 " style="stroke:none"/>
		</g>
		<marker id="mrkr4-70" class="st6" refX="-8.48" orient="auto" markerUnits="strokeWidth" overflow="visible">
			<use xlink:href="#lend4" transform="scale(-4.24,-4.24) "/>
		</marker>
	</defs>
	<g>
		<title>Page-5</title>
		<g id="group1000-1" transform="translate(372.831,-1232.13)">
			<title>Actor lifeline.1378</title>
			<desc>ConfigDB</desc>
			<g id="shape1001-2" transform="translate(17.0079,-8.50394)">
				<title>Sheet.1001</title>
				<rect x="0" y="1305.2" width="51.0236" height="25.5118" class="st1"/>
			</g>
			<g id="shape1002-4" transform="translate(34.0157,-46.063)">
				<title>Sheet.1002</title>
				<path d="M8.5 1330.71 a6.99441E-15 0 0 1 1 -1.42109E-14 0 a6.99441E-15 0 0 1 1 1.42109E-14 0 Z" class="st1"/>
			</g>
			<g id="shape1003-6" transform="translate(28.3465,1214.13)">
				<title>Sheet.1003</title>
			</g>
			<g id="shape1004-8" transform="translate(1373.23,1330.71) rotate(90)">
				<title>Sheet.1004</title>
				<path d="M0 1330.71 L1190.44 1330.71" class="st2"/>
			</g>
			<g id="shape1000-11">
				<rect x="0" y="1288.19" width="85.0394" height="42.5197" class="st1"/>
				<text x="15.49" y="1313.05" class="st3">ConfigDB</text>			</g>
		</g>
		<g id="group1005-14" transform="translate(656.295,-1232.13)">
			<title>Object lifeline.1383</title>
			<desc>PbhOrch</desc>
			<g id="shape1006-15" transform="translate(17.0079,-8.50394)">
				<title>Sheet.1006</title>
				<rect x="0" y="1305.2" width="51.0236" height="25.5118" class="st1"/>
			</g>
			<g id="shape1007-17" transform="translate(34.0157,-46.063)">
				<title>Sheet.1007</title>
				<path d="M8.5 1330.71 a0 0 0 1 1 0 0 a0 0 0 1 1 0 0 Z" class="st1"/>
			</g>
			<g id="shape1008-19" transform="translate(28.3465,1214.13)">
				<title>Sheet.1008</title>
			</g>
			<g id="shape1009-21" transform="translate(1373.23,1330.71) rotate(90)">
				<title>Sheet.1009</title>
				<path d="M0 1330.71 L1190.44 1330.71" class="st2"/>
			</g>
			<g id="shape1005-24">
				<rect x="0" y="1288.19" width="85.0394" height="42.5197" class="st1"/>
				<text x="18.07" y="1313.05" class="st3">PbhOrch</text>			</g>
		</g>
		<g id="group1010-27" transform="translate(854.721,-1233.66)">
			<title>Object lifeline.1388</title>
			<desc>AclOrch</desc>
			<g id="shape1011-28" transform="translate(17.0079,-8.50394)">
				<title>Sheet.1011</title>
				<rect x="0" y="1305.2" width="51.0236" height="25.5118" class="st1"/>
			</g>
			<g id="shape1012-30" transform="translate(34.0157,-46.063)">
				<title>Sheet.1012</title>
				<path d="M8.5 1330.71 a0 0 0 1 1 0 0 a0 0 0 1 1 0 0 Z" class="st1"/>
			</g>
			<g id="shape1013-32" transform="translate(28.3465,1215.66)">
				<title>Sheet.1013</title>
			</g>
			<g id="shape1014-34" transform="translate(1373.23,1330.71) rotate(90)">
				<title>Sheet.1014</title>
				<path d="M0 1330.71 L1191.97 1330.71" class="st2"/>
			</g>
			<g id="shape1010-37">
				<rect x="0" y="1288.19" width="85.0394" height="42.5197" class="st1"/>
				<text x="20.29" y="1313.05" class="st3">AclOrch</text>			</g>
		</g>
		<g id="group1015-40" transform="translate(1053.15,-1233.66)">
			<title>Object lifeline.1393</title>
			<desc>SAI</desc>
			<g id="shape1016-41" transform="translate(17.0079,-8.50394)">
				<title>Sheet.1016</title>
				<rect x="0" y="1305.2" width="51.0236" height="25.5118" class="st1"/>
			</g>
			<g id="shape1017-43" transform="translate(34.0157,-46.063)">
				<title>Sheet.1017</title>
				<path d="M8.5 1330.71 a0 0 0 1 1 0 0 a0 0 0 1 1 0 0 Z" class="st1"/>
			</g>
			<g id="shape1018-45" transform="translate(28.3465,1215.66)">
				<title>Sheet.1018</title>
			</g>
			<g id="shape1019-47" transform="translate(1373.23,1330.71) rotate(90)">
				<title>Sheet.1019</title>
				<path d="M0 1330.71 L1191.97 1330.71" class="st2"/>
			</g>
			<g id="shape1015-50">
				<rect x="0" y="1288.19" width="85.0394" height="42.5197" class="st1"/>
				<text x="33.04" y="1313.05" class="st3">SAI</text>			</g>
		</g>
		<g id="shape1020-53" transform="translate(-627.644,495.429) rotate(-90)">
			<title>Activation.1398</title>
			<rect x="0" y="1322.21" width="56.6931" height="8.50394" class="st4"/>
		</g>
		<g id="shape1021-55" transform="translate(-911.109,1147.4) rotate(-90)">
			<title>Activation.1399</title>
			<rect x="0" y="1322.21" width="992.126" height="8.50394" class="st4"/>
		</g>
		<g id="shape1022-57" transform="translate(419.602,-1182.53)">
			<title>Asynchronous Message.1400</title>
			<desc>PBH_HASH_FIELD|name</desc>
			<path d="M0 1337.8 L274.96 1337.8" class="st5"/>
			<rect x="70.3316" y="1330.6" width="134.298" height="14.4001" class="st7"/>
			<text x="70.33" y="1341.4" class="st8">PBH_HASH_FIELD|name</text>		</g>
		<g id="shape1023-65" transform="translate(695.981,-891.975)">
			<title>Self Message.1401</title>
			<desc>process data</desc>
			<path d="M7.09 1330.71 L25.09 1330.71 L25.09 1387.4 L15.57 1387.4" class="st9"/>
			<rect x="21.3488" y="1351.86" width="70.6885" height="14.4001" class="st7"/>
			<text x="21.35" y="1362.66" class="st10">process data</text>		</g>
		<g id="shape1024-73" transform="translate(419.602,-601.424)">
			<title>Asynchronous Message.1402</title>
			<desc>PBH_TABLE|name</desc>
			<path d="M0 1323.63 L274.96 1323.62" class="st5"/>
			<rect x="87.4615" y="1316.43" width="100.038" height="14.4001" class="st7"/>
			<text x="87.46" y="1327.23" class="st8">PBH_TABLE|name</text>		</g>
		<g id="shape1025-80" transform="translate(707.319,-459.692)">
			<title>Message.1412</title>
			<desc>updateAclTable</desc>
			<path d="M0 1323.63 L177.19 1323.63" class="st9"/>
			<rect x="48.7393" y="1316.43" width="88.1908" height="14.4001" class="st7"/>
			<text x="48.74" y="1327.23" class="st10">updateAclTable</text>		</g>
		<g id="shape1026-87" transform="translate(-429.219,920.626) rotate(-90)">
			<title>Activation.1413</title>
			<rect x="0" y="1322.21" width="56.6929" height="8.50394" class="st4"/>
		</g>
		<g id="shape1027-89" transform="translate(892.988,-417.172)">
			<title>Return Message.1414</title>
			<desc>return &#60;result&#62;</desc>
			<path d="M0 1337.8 L-185.67 1337.8" class="st11"/>
			<rect x="-136.534" y="1330.6" width="87.3993" height="14.4001" class="st7"/>
			<text x="-136.53" y="1341.4" class="st10">return &#60;result&#62;</text>		</g>
		<g id="shape1028-96" transform="translate(901.492,-459.692)">
			<title>Message.1418</title>
			<desc>set_acl_table_attribute</desc>
			<path d="M0 1323.63 L181.44 1323.63" class="st9"/>
			<rect x="32.2968" y="1316.43" width="125.328" height="14.4001" class="st7"/>
			<text x="32.3" y="1327.23" class="st10">set_acl_table_attribute</text>		</g>
		<g id="shape1029-103" transform="translate(1091.41,-417.172)">
			<title>Return Message.1419</title>
			<desc>return &#60;status&#62;</desc>
			<path d="M0 1337.8 L-189.92 1337.8" class="st11"/>
			<rect x="-139.524" y="1330.6" width="89.1277" height="14.4001" class="st7"/>
			<text x="-139.52" y="1341.4" class="st10">return &#60;status&#62;</text>		</g>
		<g id="shape1030-110" transform="translate(-627.644,211.965) rotate(-90)">
			<title>Activation.1430</title>
			<rect x="0" y="1322.21" width="56.6931" height="8.50394" class="st4"/>
		</g>
		<g id="shape1031-112" transform="translate(695.981,-1175.44)">
			<title>Self Message.1431</title>
			<desc>process data</desc>
			<path d="M7.09 1330.71 L25.09 1330.71 L25.09 1387.4 L15.57 1387.4" class="st9"/>
			<rect x="21.3488" y="1351.86" width="70.6885" height="14.4001" class="st7"/>
			<text x="21.35" y="1362.66" class="st10">process data</text>		</g>
		<g id="shape1032-119" transform="translate(-627.645,410.39) rotate(-90)">
			<title>Activation.1452</title>
			<rect x="0" y="1322.21" width="170.079" height="8.50394" class="st4"/>
		</g>
		<g id="shape1033-121" transform="translate(698.107,-1090.4)">
			<title>Self Message.1453</title>
			<desc>updatePbhHashField</desc>
			<path d="M4.96 1330.71 L27.21 1330.71 L27.21 1359.06 L17.69 1359.06" class="st9"/>
			<rect x="23.8839" y="1337.69" width="116.925" height="14.4001" class="st7"/>
			<text x="23.88" y="1348.49" class="st10">updatePbhHashField</text>		</g>
		<g id="shape1034-128" transform="translate(-623.393,382.043) rotate(-90)">
			<title>Activation.1451</title>
			<rect x="0" y="1322.21" width="113.386" height="8.50394" class="st12"/>
		</g>
		<g id="shape1035-130" transform="translate(707.319,-1026.62)">
			<title>Message.1455</title>
			<desc>set_fine_grained_hash_field_attribute</desc>
			<path d="M0 1323.63 L375.61 1323.63" class="st9"/>
			<rect x="88.1801" y="1316.43" width="207.734" height="14.4001" class="st7"/>
			<text x="88.18" y="1327.23" class="st10">set_fine_grained_hash_field_attribute</text>		</g>
		<g id="shape1036-137" transform="translate(-230.794,353.697) rotate(-90)">
			<title>Activation.1456</title>
			<rect x="0" y="1322.21" width="56.6929" height="8.50394" class="st4"/>
		</g>
		<g id="shape1037-139" transform="translate(1091.41,-969.928)">
			<title>Return Message.1457</title>
			<desc>return &#60;status&#62;</desc>
			<path d="M0 1323.63 L-384.09 1323.63" class="st11"/>
			<rect x="-236.611" y="1316.43" width="89.1277" height="14.4001" class="st7"/>
			<text x="-236.61" y="1327.23" class="st10">return &#60;status&#62;</text>		</g>
		<g id="shape1038-146" transform="translate(419.602,-884.889)">
			<title>Asynchronous Message.1458</title>
			<desc>PBH_HASH|name</desc>
			<path d="M0 1323.63 L274.96 1323.62" class="st5"/>
			<rect x="88.528" y="1316.43" width="97.9052" height="14.4001" class="st7"/>
			<text x="88.53" y="1327.23" class="st8">PBH_HASH|name</text>		</g>
		<g id="shape1039-153" transform="translate(-627.644,693.854) rotate(-90)">
			<title>Activation.1459</title>
			<rect x="0" y="1322.21" width="170.079" height="8.50394" class="st4"/>
		</g>
		<g id="shape1040-155" transform="translate(698.107,-806.936)">
			<title>Self Message.1460</title>
			<desc>updatePbhHash</desc>
			<path d="M4.96 1330.71 L27.21 1330.71 L27.21 1359.06 L17.69 1359.06" class="st9"/>
			<rect x="23.7688" y="1337.69" width="89.9426" height="14.4001" class="st7"/>
			<text x="23.77" y="1348.49" class="st10">updatePbhHash</text>		</g>
		<g id="shape1041-162" transform="translate(-623.392,665.508) rotate(-90)">
			<title>Activation.1461</title>
			<rect x="0" y="1322.21" width="113.386" height="8.50394" class="st12"/>
		</g>
		<g id="shape1042-164" transform="translate(707.319,-743.157)">
			<title>Message.1462</title>
			<desc>set_hash_attribute</desc>
			<path d="M0 1323.63 L375.61 1323.63" class="st9"/>
			<rect x="140.83" y="1316.43" width="102.435" height="14.4001" class="st13"/>
			<text x="140.83" y="1327.23" class="st10">set_hash_attribute</text>		</g>
		<g id="shape1043-171" transform="translate(-230.794,637.161) rotate(-90)">
			<title>Activation.1463</title>
			<rect x="0" y="1322.21" width="56.6929" height="8.50394" class="st4"/>
		</g>
		<g id="shape1044-173" transform="translate(1091.41,-686.464)">
			<title>Return Message.1464</title>
			<desc>return &#60;status&#62;</desc>
			<path d="M0 1323.63 L-384.09 1323.63" class="st11"/>
			<rect x="-236.611" y="1316.43" width="89.1277" height="14.4001" class="st13"/>
			<text x="-236.61" y="1327.23" class="st10">return &#60;status&#62;</text>		</g>
		<g id="shape1045-180" transform="translate(419.602,-317.96)">
			<title>Asynchronous Message.1466</title>
			<desc>PBH_RULE|name</desc>
			<path d="M0 1323.63 L274.96 1323.62" class="st5"/>
			<rect x="90.7866" y="1316.43" width="93.3879" height="14.4001" class="st7"/>
			<text x="90.79" y="1327.23" class="st8">PBH_RULE|name</text>		</g>
		<g id="shape1046-187" transform="translate(703.067,-190.401)">
			<title>Message.1469</title>
			<desc>updateAclRule</desc>
			<path d="M0 1337.8 L181.44 1337.8" class="st9"/>
			<rect x="53.7834" y="1330.6" width="82.3546" height="14.4001" class="st7"/>
			<text x="53.78" y="1341.4" class="st10">updateAclRule</text>		</g>
		<g id="shape1047-194" transform="translate(-429.219,1204.09) rotate(-90)">
			<title>Activation.1470</title>
			<rect x="0" y="1322.21" width="56.6929" height="8.50394" class="st4"/>
		</g>
		<g id="shape1048-196" transform="translate(892.988,-119.534)">
			<title>Return Message.1471</title>
			<desc>return &#60;result&#62;</desc>
			<path d="M0 1323.63 L-189.92 1323.63" class="st11"/>
			<rect x="-138.66" y="1316.43" width="87.3993" height="14.4001" class="st7"/>
			<text x="-138.66" y="1327.23" class="st10">return &#60;result&#62;</text>		</g>
		<g id="shape1049-203" transform="translate(901.492,-176.227)">
			<title>Message.1472</title>
			<desc>set_acl_entry_attribute</desc>
			<path d="M0 1323.63 L181.44 1323.63" class="st9"/>
			<rect x="31.705" y="1316.43" width="126.511" height="14.4001" class="st7"/>
			<text x="31.71" y="1327.23" class="st10">set_acl_entry_attribute</text>		</g>
		<g id="shape1050-210" transform="translate(1091.41,-133.708)">
			<title>Return Message.1473</title>
			<desc>return &#60;status&#62;</desc>
			<path d="M0 1337.8 L-189.92 1337.8" class="st11"/>
			<rect x="-139.524" y="1330.6" width="89.1277" height="14.4001" class="st7"/>
			<text x="-139.52" y="1341.4" class="st10">return &#60;status&#62;</text>		</g>
		<g id="shape1051-217" transform="translate(-627.644,778.894) rotate(-90)">
			<title>Activation.1565</title>
			<rect x="0" y="1322.21" width="56.6931" height="8.50394" class="st4"/>
		</g>
		<g id="shape1052-219" transform="translate(695.981,-608.511)">
			<title>Self Message.1566</title>
			<desc>process data</desc>
			<path d="M7.09 1330.71 L25.09 1330.71 L25.09 1387.4 L15.57 1387.4" class="st9"/>
			<rect x="21.3488" y="1351.86" width="70.6885" height="14.4001" class="st7"/>
			<text x="21.35" y="1362.66" class="st10">process data</text>		</g>
		<g id="shape1053-226" transform="translate(-627.644,977.319) rotate(-90)">
			<title>Activation.1567</title>
			<rect x="0" y="1322.21" width="170.079" height="8.50394" class="st4"/>
		</g>
		<g id="shape1054-228" transform="translate(698.107,-523.472)">
			<title>Self Message.1568</title>
			<desc>updatePbhTable</desc>
			<path d="M4.96 1330.71 L27.21 1330.71 L27.21 1359.06 L17.69 1359.06" class="st9"/>
			<rect x="23.847" y="1337.69" width="92.6208" height="14.4001" class="st7"/>
			<text x="23.85" y="1348.49" class="st10">updatePbhTable</text>		</g>
		<g id="shape1055-235" transform="translate(-623.392,948.972) rotate(-90)">
			<title>Activation.1569</title>
			<rect x="0" y="1322.21" width="113.386" height="8.50394" class="st12"/>
		</g>
		<g id="shape1056-237" transform="translate(-230.794,920.626) rotate(-90)">
			<title>Activation.1673</title>
			<rect x="0" y="1322.21" width="56.6929" height="8.50394" class="st4"/>
		</g>
		<g id="shape1057-239" transform="translate(-627.644,1062.36) rotate(-90)">
			<title>Activation.1573</title>
			<rect x="0" y="1322.21" width="56.6931" height="8.50394" class="st4"/>
		</g>
		<g id="shape1058-241" transform="translate(695.981,-325.046)">
			<title>Self Message.1675</title>
			<desc>process data</desc>
			<path d="M7.09 1330.71 L25.09 1330.71 L25.09 1387.4 L15.57 1387.4" class="st9"/>
			<rect x="21.3488" y="1351.86" width="70.6885" height="14.4001" class="st7"/>
			<text x="21.35" y="1362.66" class="st10">process data</text>		</g>
		<g id="shape1059-248" transform="translate(-627.644,1260.78) rotate(-90)">
			<title>Activation.1575</title>
			<rect x="0" y="1322.21" width="170.079" height="8.50394" class="st4"/>
		</g>
		<g id="shape1060-250" transform="translate(698.107,-240.007)">
			<title>Self Message.1576</title>
			<desc>updatePbhRule</desc>
			<path d="M4.96 1330.71 L27.21 1330.71 L27.21 1359.06 L17.69 1359.06" class="st9"/>
			<rect x="23.9305" y="1337.69" width="86.7846" height="14.4001" class="st7"/>
			<text x="23.93" y="1348.49" class="st10">updatePbhRule</text>		</g>
		<g id="shape1061-257" transform="translate(-623.392,1232.44) rotate(-90)">
			<title>Activation.1577</title>
			<rect x="0" y="1322.21" width="113.386" height="8.50394" class="st12"/>
		</g>
		<g id="shape1062-259" transform="translate(-230.794,1204.09) rotate(-90)">
			<title>Activation.1579</title>
			<rect x="0" y="1322.21" width="56.6929" height="8.50394" class="st4"/>
		</g>
		<g id="group1063-261" transform="translate(18.5,-1062.05)">
			<title>Loop fragment.877</title>
			<g id="shape1063-262">
				<rect x="0" y="1188.98" width="425.197" height="141.732" class="st14"/>
			</g>
			<g id="shape1064-264" transform="translate(0,-119.329)">
				<title>Sheet.1064</title>
				<desc>transaction</desc>
				<path d="M0 1330.71 L88.91 1330.71 L96 1323.63 L96 1308.31 L0 1308.31 L0 1330.71 Z" class="st14"/>
				<text x="4" y="1323.11" class="st15">transaction</text>			</g>
			<g id="shape1065-267" transform="translate(0,-96.9249)">
				<title>Sheet.1065</title>
				<desc>HSET/HDEL</desc>
				<text x="4" y="1323.11" class="st16">HSET/HDEL</text>			</g>
		</g>
		<g id="group1066-269" transform="translate(89.3662,-1232.13)">
			<title>Actor lifeline.1087</title>
			<desc>CLI</desc>
			<g id="shape1067-270" transform="translate(17.0079,-8.50394)">
				<title>Sheet.1067</title>
				<rect x="0" y="1305.2" width="51.0236" height="25.5118" class="st1"/>
			</g>
			<g id="shape1068-272" transform="translate(34.0157,-46.063)">
				<title>Sheet.1068</title>
				<path d="M3.4 1330.71 L3.4 1313.7 L3.4 1320.51 L0 1320.51 L0 1306.9 L1.7 1305.2 L15.31 1305.2 L17.01 1306.9 L17.01
							 1320.51 L13.61 1320.51 L13.61 1313.7 L13.61 1330.71 L8.5 1330.71 L8.5 1317.11 L8.5 1330.71 L3.4 1330.71
							 ZM11.91 1300.1 A3.40157 3.40157 -180 1 0 5.1 1300.1 A3.40157 3.40157 -180 1 0 11.91 1300.1 Z"
						class="st1"/>
			</g>
			<g id="shape1069-274" transform="translate(28.3465,1214.13)">
				<title>Sheet.1069</title>
			</g>
			<g id="shape1070-276" transform="translate(1373.23,1330.71) rotate(90)">
				<title>Sheet.1070</title>
				<path d="M0 1330.71 L1190.44 1330.71" class="st2"/>
			</g>
			<g id="shape1066-279">
				<rect x="0" y="1288.19" width="85.0394" height="42.5197" class="st1"/>
				<text x="33.81" y="1313.05" class="st3">CLI</text>			</g>
		</g>
		<g id="shape1071-282" transform="translate(136.138,-1182.53)">
			<title>Asynchronous Message.1092</title>
			<desc>PBH_HASH_FIELD|key|field</desc>
			<path d="M0 1337.8 L274.96 1337.8" class="st5"/>
			<rect x="61.4748" y="1330.6" width="152.011" height="14.4001" class="st7"/>
			<text x="61.47" y="1341.4" class="st8">PBH_HASH_FIELD|key|field</text>		</g>
		<g id="shape1072-289" transform="translate(-1194.57,1147.4) rotate(-90)">
			<title>Activation.1093</title>
			<rect x="0" y="1322.21" width="992.126" height="8.50394" class="st4"/>
		</g>
		<g id="shape1073-291" transform="translate(136.138,-1140.01)">
			<title>Asynchronous Message.1073</title>
			<desc>PBH_HASH_FIELD|key|field</desc>
			<path d="M0 1323.63 L274.96 1323.63" class="st5"/>
			<rect x="61.4748" y="1316.43" width="152.011" height="14.4001" class="st7"/>
			<text x="61.47" y="1327.23" class="st8">PBH_HASH_FIELD|key|field</text>		</g>
		<g id="shape1074-298" transform="translate(136.138,-1097.49)">
			<title>Asynchronous Message.1076</title>
			<desc>PBH_HASH_FIELD|key|field</desc>
			<path d="M0 1337.8 L274.96 1337.8" class="st5"/>
			<rect x="61.4748" y="1330.6" width="152.011" height="14.4001" class="st7"/>
			<text x="61.47" y="1341.4" class="st8">PBH_HASH_FIELD|key|field</text>		</g>
		<g id="shape1075-305" transform="translate(131.886,-1104.57)">
			<title>Sheet.1075</title>
			<desc>. . .</desc>
			<rect x="0" y="1302.37" width="283.465" height="28.3465" class="st17"/>
			<text x="133.54" y="1320.14" class="st15">. . .</text>		</g>
		<g id="group1076-308" transform="translate(18.5,-778.59)">
			<title>Loop fragment.1097</title>
			<g id="shape1076-309">
				<rect x="0" y="1188.98" width="425.197" height="141.732" class="st14"/>
			</g>
			<g id="shape1077-311" transform="translate(0,-119.329)">
				<title>Sheet.1077</title>
				<desc>transaction</desc>
				<path d="M0 1330.71 L88.91 1330.71 L96 1323.63 L96 1308.31 L0 1308.31 L0 1330.71 Z" class="st14"/>
				<text x="4" y="1323.11" class="st15">transaction</text>			</g>
			<g id="shape1078-314" transform="translate(0,-96.9249)">
				<title>Sheet.1078</title>
				<desc>HSET/HDEL</desc>
				<text x="4" y="1323.11" class="st16">HSET/HDEL</text>			</g>
		</g>
		<g id="shape1079-316" transform="translate(136.138,-884.889)">
			<title>Asynchronous Message.1100</title>
			<desc>PBH_HASH|key|field</desc>
			<path d="M0 1323.63 L274.96 1323.63" class="st5"/>
			<rect x="79.6712" y="1316.43" width="115.618" height="14.4001" class="st7"/>
			<text x="79.67" y="1327.23" class="st8">PBH_HASH|key|field</text>		</g>
		<g id="shape1080-323" transform="translate(136.138,-856.542)">
			<title>Asynchronous Message.1101</title>
			<desc>PBH_HASH|key|field</desc>
			<path d="M0 1323.63 L274.96 1323.63" class="st5"/>
			<rect x="79.6712" y="1316.43" width="115.618" height="14.4001" class="st7"/>
			<text x="79.67" y="1327.23" class="st8">PBH_HASH|key|field</text>		</g>
		<g id="shape1081-330" transform="translate(136.138,-814.023)">
			<title>Asynchronous Message.1102</title>
			<desc>PBH_HASH|key|field</desc>
			<path d="M0 1337.8 L274.96 1337.8" class="st5"/>
			<rect x="79.6712" y="1330.6" width="115.618" height="14.4001" class="st7"/>
			<text x="79.67" y="1341.4" class="st8">PBH_HASH|key|field</text>		</g>
		<g id="shape1082-337" transform="translate(131.886,-821.109)">
			<title>Sheet.1082</title>
			<desc>. . .</desc>
			<rect x="0" y="1302.37" width="283.465" height="28.3465" class="st17"/>
			<text x="133.54" y="1320.14" class="st15">. . .</text>		</g>
		<g id="group1083-340" transform="translate(18.5,-495.125)">
			<title>Loop fragment.1104</title>
			<g id="shape1083-341">
				<rect x="0" y="1188.98" width="425.197" height="141.732" class="st14"/>
			</g>
			<g id="shape1084-343" transform="translate(0,-119.329)">
				<title>Sheet.1084</title>
				<desc>transaction</desc>
				<path d="M0 1330.71 L88.91 1330.71 L96 1323.63 L96 1308.31 L0 1308.31 L0 1330.71 Z" class="st14"/>
				<text x="4" y="1323.11" class="st15">transaction</text>			</g>
			<g id="shape1085-346" transform="translate(0,-96.9249)">
				<title>Sheet.1085</title>
				<desc>HSET/HDEL</desc>
				<text x="4" y="1323.11" class="st16">HSET/HDEL</text>			</g>
		</g>
		<g id="shape1086-348" transform="translate(136.138,-615.597)">
			<title>Asynchronous Message.1107</title>
			<desc>PBH_TABLE|key|field</desc>
			<path d="M0 1337.8 L274.96 1337.8" class="st5"/>
			<rect x="78.6047" y="1330.6" width="117.751" height="14.4001" class="st7"/>
			<text x="78.6" y="1341.4" class="st8">PBH_TABLE|key|field</text>		</g>
		<g id="shape1087-355" transform="translate(136.138,-573.078)">
			<title>Asynchronous Message.1108</title>
			<desc>PBH_TABLE|key|field</desc>
			<path d="M0 1323.63 L274.96 1323.63" class="st5"/>
			<rect x="78.6047" y="1316.43" width="117.751" height="14.4001" class="st7"/>
			<text x="78.6" y="1327.23" class="st8">PBH_TABLE|key|field</text>		</g>
		<g id="shape1088-362" transform="translate(136.138,-530.558)">
			<title>Asynchronous Message.1109</title>
			<desc>PBH_TABLE|key|field</desc>
			<path d="M0 1337.8 L274.96 1337.8" class="st5"/>
			<rect x="78.6047" y="1330.6" width="117.751" height="14.4001" class="st13"/>
			<text x="78.6" y="1341.4" class="st8">PBH_TABLE|key|field</text>		</g>
		<g id="shape1089-369" transform="translate(131.886,-537.645)">
			<title>Sheet.1089</title>
			<desc>. . .</desc>
			<rect x="0" y="1302.37" width="283.465" height="28.3465" class="st17"/>
			<text x="133.54" y="1320.14" class="st15">. . .</text>		</g>
		<g id="group1090-372" transform="translate(18.5,-211.66)">
			<title>Loop fragment.1115</title>
			<g id="shape1090-373">
				<rect x="0" y="1188.98" width="425.197" height="141.732" class="st14"/>
			</g>
			<g id="shape1091-375" transform="translate(0,-119.329)">
				<title>Sheet.1091</title>
				<desc>transaction</desc>
				<path d="M0 1330.71 L88.91 1330.71 L96 1323.63 L96 1308.31 L0 1308.31 L0 1330.71 Z" class="st14"/>
				<text x="4" y="1323.11" class="st15">transaction</text>			</g>
			<g id="shape1092-378" transform="translate(0,-96.9249)">
				<title>Sheet.1092</title>
				<desc>HSET/HDEL</desc>
				<text x="4" y="1323.11" class="st16">HSET/HDEL</text>			</g>
		</g>
		<g id="shape1093-380" transform="translate(136.138,-332.133)">
			<title>Asynchronous Message.1118</title>
			<desc>PBH_RULE|key|field</desc>
			<path d="M0 1337.8 L274.96 1337.8" class="st5"/>
			<rect x="81.9298" y="1330.6" width="111.101" height="14.4001" class="st7"/>
			<text x="81.93" y="1341.4" class="st8">PBH_RULE|key|field</text>		</g>
		<g id="shape1094-387" transform="translate(136.138,-289.613)">
			<title>Asynchronous Message.1119</title>
			<desc>PBH_RULE|key|field</desc>
			<path d="M0 1323.63 L274.96 1323.63" class="st5"/>
			<rect x="81.9298" y="1316.43" width="111.101" height="14.4001" class="st7"/>
			<text x="81.93" y="1327.23" class="st8">PBH_RULE|key|field</text>		</g>
		<g id="shape1095-394" transform="translate(136.138,-247.094)">
			<title>Asynchronous Message.1120</title>
			<desc>PBH_RULE|key|field</desc>
			<path d="M0 1337.8 L274.96 1337.8" class="st5"/>
			<rect x="81.9298" y="1330.6" width="111.101" height="14.4001" class="st7"/>
			<text x="81.93" y="1341.4" class="st8">PBH_RULE|key|field</text>		</g>
		<g id="shape1096-401" transform="translate(131.886,-254.18)">
			<title>Sheet.1096</title>
			<desc>. . .</desc>
			<rect x="0" y="1302.37" width="283.465" height="28.3465" class="st17"/>
			<text x="133.54" y="1320.14" class="st15">. . .</text>		</g>
	</g>
</svg>
