<?xml version="1.0" encoding="UTF-8" standalone="no"?>
<!DOCTYPE svg PUBLIC "-//W3C//DTD SVG 1.1//EN" "http://www.w3.org/Graphics/SVG/1.1/DTD/svg11.dtd">
<!-- Generated by Microsoft Visio, SVG Export pbh_remove_flow.svg Page-6 -->
<svg xmlns="http://www.w3.org/2000/svg" xmlns:xlink="http://www.w3.org/1999/xlink" xmlns:ev="http://www.w3.org/2001/xml-events"
		width="9.96271in" height="10.1371in" viewBox="0 0 717.315 729.875" xml:space="preserve" color-interpolation-filters="sRGB"
		class="st13">
	<title>pbh remove flow</title>

	<style type="text/css">
	<![CDATA[
		.st1 {fill:#5b9bd5;stroke:#000000;stroke-linecap:round;stroke-linejoin:round;stroke-width:1}
		.st2 {stroke:#000000;stroke-dasharray:7,5;stroke-linecap:round;stroke-linejoin:round;stroke-width:1}
		.st3 {fill:#ffffff;font-family:Segoe UI;font-size:1.00001em;font-weight:bold}
		.st4 {fill:#af5200;stroke:#a54d00;stroke-linecap:round;stroke-linejoin:round;stroke-width:0.5}
		.st5 {marker-end:url(#mrkr3-62);stroke:#a54d00;stroke-linecap:round;stroke-linejoin:round;stroke-width:1}
		.st6 {fill:#a54d00;fill-opacity:1;stroke:#a54d00;stroke-opacity:1;stroke-width:0.23584905660377}
		.st7 {fill:#ffffff;stroke:none;stroke-linecap:butt;stroke-width:7.2}
		.st8 {fill:#813b00;font-family:Segoe UI;font-size:1.00001em;font-weight:bold}
		.st9 {marker-end:url(#mrkr4-70);stroke:#a54d00;stroke-linecap:round;stroke-linejoin:round;stroke-width:1}
		.st10 {fill:#803a00;font-family:Segoe UI;font-size:1.00001em;font-weight:bold}
		.st11 {fill:#ffffff;stroke:none;stroke-linecap:butt}
		.st12 {marker-end:url(#mrkr3-62);stroke:#a54d00;stroke-dasharray:7,5;stroke-linecap:round;stroke-linejoin:round;stroke-width:1}
		.st13 {fill:none;fill-rule:evenodd;font-size:12px;overflow:visible;stroke-linecap:square;stroke-miterlimit:3}
	]]>
	</style>

	<defs id="Markers">
		<g id="lend3">
			<path d="M 2 1 L 0 0 L 2 -1 " style="stroke-linecap:round;stroke-linejoin:round;fill:none"/>
		</g>
		<marker id="mrkr3-62" class="st6" orient="auto" markerUnits="strokeWidth" overflow="visible">
			<use xlink:href="#lend3" transform="scale(-4.24,-4.24) "/>
		</marker>
		<g id="lend4">
			<path d="M 2 1 L 0 0 L 2 -1 L 2 1 " style="stroke:none"/>
		</g>
		<marker id="mrkr4-70" class="st6" refX="-8.48" orient="auto" markerUnits="strokeWidth" overflow="visible">
			<use xlink:href="#lend4" transform="scale(-4.24,-4.24) "/>
		</marker>
	</defs>
	<g>
		<title>Page-6</title>
		<g id="group1079-1" transform="translate(18.5,-665.312)">
			<title>Actor lifeline.1324</title>
			<desc>ConfigDB</desc>
			<g id="shape1080-2" transform="translate(17.0079,-8.50394)">
				<title>Sheet.1080</title>
				<rect x="0" y="704.363" width="51.0236" height="25.5118" class="st1"/>
			</g>
			<g id="shape1081-4" transform="translate(34.0157,-46.063)">
				<title>Sheet.1081</title>
				<path d="M8.5 729.87 a6.99441E-15 0 0 1 1 -1.42109E-14 0 a6.99441E-15 0 0 1 1 1.42109E-14 0 Z" class="st1"/>
			</g>
			<g id="shape1082-6" transform="translate(28.3465,647.312)">
				<title>Sheet.1082</title>
			</g>
			<g id="shape1083-8" transform="translate(772.394,729.875) rotate(90)">
				<title>Sheet.1083</title>
				<path d="M0 729.87 L623.62 729.87" class="st2"/>
			</g>
			<g id="shape1079-11">
				<rect x="0" y="687.355" width="85.0394" height="42.5197" class="st1"/>
				<text x="15.49" y="712.22" class="st3">ConfigDB</text>			</g>
		</g>
		<g id="group1084-14" transform="translate(216.925,-665.311)">
			<title>Object lifeline.1329</title>
			<desc>PbhOrch</desc>
			<g id="shape1085-15" transform="translate(17.0079,-8.50394)">
				<title>Sheet.1085</title>
				<rect x="0" y="704.363" width="51.0236" height="25.5118" class="st1"/>
			</g>
			<g id="shape1086-17" transform="translate(34.0157,-46.063)">
				<title>Sheet.1086</title>
				<path d="M8.5 729.87 a0 0 0 1 1 0 0 a0 0 0 1 1 0 0 Z" class="st1"/>
			</g>
			<g id="shape1087-19" transform="translate(28.3465,647.311)">
				<title>Sheet.1087</title>
			</g>
			<g id="shape1088-21" transform="translate(772.394,729.875) rotate(90)">
				<title>Sheet.1088</title>
				<path d="M0 729.87 L623.62 729.87" class="st2"/>
			</g>
			<g id="shape1084-24">
				<rect x="0" y="687.355" width="85.0394" height="42.5197" class="st1"/>
				<text x="18.07" y="712.22" class="st3">PbhOrch</text>			</g>
		</g>
		<g id="group1089-27" transform="translate(415.35,-665.312)">
			<title>Object lifeline.1334</title>
			<desc>AclOrch</desc>
			<g id="shape1090-28" transform="translate(17.0079,-8.50394)">
				<title>Sheet.1090</title>
				<rect x="0" y="704.363" width="51.0236" height="25.5118" class="st1"/>
			</g>
			<g id="shape1091-30" transform="translate(34.0157,-46.063)">
				<title>Sheet.1091</title>
				<path d="M8.5 729.87 a0 0 0 1 1 0 0 a0 0 0 1 1 0 0 Z" class="st1"/>
			</g>
			<g id="shape1092-32" transform="translate(28.3465,647.312)">
				<title>Sheet.1092</title>
			</g>
			<g id="shape1093-34" transform="translate(772.394,729.875) rotate(90)">
				<title>Sheet.1093</title>
				<path d="M0 729.87 L623.62 729.87" class="st2"/>
			</g>
			<g id="shape1089-37">
				<rect x="0" y="687.355" width="85.0394" height="42.5197" class="st1"/>
				<text x="20.29" y="712.22" class="st3">AclOrch</text>			</g>
		</g>
		<g id="group1094-40" transform="translate(613.775,-665.312)">
			<title>Object lifeline.1339</title>
			<desc>SAI</desc>
			<g id="shape1095-41" transform="translate(17.0079,-8.50394)">
				<title>Sheet.1095</title>
				<rect x="0" y="704.363" width="51.0236" height="25.5118" class="st1"/>
			</g>
			<g id="shape1096-43" transform="translate(34.0157,-46.063)">
				<title>Sheet.1096</title>
				<path d="M8.5 729.87 a0 0 0 1 1 0 0 a0 0 0 1 1 0 0 Z" class="st1"/>
			</g>
			<g id="shape1097-45" transform="translate(28.3465,647.312)">
				<title>Sheet.1097</title>
			</g>
			<g id="shape1098-47" transform="translate(772.394,729.875) rotate(90)">
				<title>Sheet.1098</title>
				<path d="M0 729.87 L623.62 729.87" class="st2"/>
			</g>
			<g id="shape1094-50">
				<rect x="0" y="687.355" width="85.0394" height="42.5197" class="st1"/>
				<text x="33.04" y="712.22" class="st3">SAI</text>			</g>
		</g>
		<g id="shape1099-53" transform="translate(-466.178,149.603) rotate(-90)">
			<title>Activation.1344</title>
			<rect x="0" y="721.371" width="56.6931" height="8.50394" class="st4"/>
		</g>
		<g id="shape1100-55" transform="translate(-664.603,518.106) rotate(-90)">
			<title>Activation.1345</title>
			<rect x="0" y="721.371" width="425.197" height="8.50394" class="st4"/>
		</g>
		<g id="shape1101-57" transform="translate(65.2715,-644.052)">
			<title>Asynchronous Message.1346</title>
			<desc>PBH_RULE|name</desc>
			<path d="M0 736.96 L189.92 736.96" class="st5"/>
			<rect x="48.2668" y="729.761" width="93.3879" height="14.4001" class="st7"/>
			<text x="48.27" y="740.56" class="st8">PBH_RULE|name</text>		</g>
		<g id="shape1102-65" transform="translate(256.61,-636.965)">
			<title>Self Message.1347</title>
			<desc>process data</desc>
			<path d="M7.09 729.87 L25.09 729.87 L25.09 786.57 L15.57 786.57" class="st9"/>
			<rect x="21.3488" y="751.021" width="70.6885" height="14.4001" class="st7"/>
			<text x="21.35" y="761.82" class="st10">process data</text>		</g>
		<g id="shape1103-73" transform="translate(65.2715,-388.934)">
			<title>Asynchronous Message.1348</title>
			<desc>PBH_TABLE|name</desc>
			<path d="M0 736.96 L189.92 736.96" class="st5"/>
			<rect x="44.9416" y="729.761" width="100.038" height="14.4001" class="st11"/>
			<text x="44.94" y="740.56" class="st8">PBH_TABLE|name</text>		</g>
		<g id="shape1104-80" transform="translate(263.697,-459.8)">
			<title>Message.1349</title>
			<desc>remove_hash</desc>
			<path d="M0 722.79 L379.87 722.79" class="st9"/>
			<rect x="157.294" y="715.588" width="73.7586" height="14.4001" class="st7"/>
			<text x="157.29" y="726.39" class="st10">remove_hash</text>		</g>
		<g id="shape1105-87" transform="translate(-69.3275,319.681) rotate(-90)">
			<title>Activation.1350</title>
			<rect x="0" y="721.371" width="56.6929" height="8.50394" class="st4"/>
		</g>
		<g id="shape1106-89" transform="translate(-466.178,319.681) rotate(-90)">
			<title>Activation.1351</title>
			<rect x="0" y="721.371" width="56.6929" height="8.50394" class="st4"/>
		</g>
		<g id="shape1107-91" transform="translate(-466.178,574.799) rotate(-90)">
			<title>Activation.1352</title>
			<rect x="0" y="721.371" width="56.6929" height="8.50394" class="st4"/>
		</g>
		<g id="shape1108-93" transform="translate(-466.178,404.721) rotate(-90)">
			<title>Activation.1353</title>
			<rect x="0" y="721.371" width="56.6929" height="8.50394" class="st4"/>
		</g>
		<g id="shape1109-95" transform="translate(65.2714,-204.682)">
			<title>Asynchronous Message.1355</title>
			<desc>PBH_HASH|name</desc>
			<path d="M0 722.79 L189.92 722.79" class="st5"/>
			<rect x="46.0082" y="715.588" width="97.9052" height="14.4001" class="st7"/>
			<text x="46.01" y="726.39" class="st8">PBH_HASH|name</text>		</g>
		<g id="shape1110-102" transform="translate(652.043,-417.28)">
			<title>Return Message.1356</title>
			<desc>return &#60;status&#62;</desc>
			<path d="M0 736.96 L-388.35 736.96" class="st12"/>
			<rect x="-238.737" y="729.761" width="89.1277" height="14.4001" class="st7"/>
			<text x="-238.74" y="740.56" class="st10">return &#60;status&#62;</text>		</g>
		<g id="shape1111-109" transform="translate(256.61,-211.768)">
			<title>Self Message.1357</title>
			<desc>process data</desc>
			<path d="M7.09 729.87 L25.09 729.87 L25.09 786.57 L15.57 786.57" class="st9"/>
			<rect x="21.3488" y="751.021" width="70.6885" height="14.4001" class="st7"/>
			<text x="21.35" y="761.82" class="st10">process data</text>		</g>
		<g id="shape1112-116" transform="translate(-466.178,489.76) rotate(-90)">
			<title>Activation.1358</title>
			<rect x="0" y="721.371" width="56.6929" height="8.50394" class="st4"/>
		</g>
		<g id="shape1113-118" transform="translate(263.697,-303.894)">
			<title>Message.1359</title>
			<desc>removeAclTable</desc>
			<path d="M0 736.96 L181.44 736.96" class="st9"/>
			<rect x="49.4444" y="729.761" width="91.0327" height="14.4001" class="st7"/>
			<text x="49.44" y="740.56" class="st10">removeAclTable</text>		</g>
		<g id="shape1114-125" transform="translate(-267.753,489.76) rotate(-90)">
			<title>Activation.1360</title>
			<rect x="0" y="721.371" width="56.6929" height="8.50394" class="st4"/>
		</g>
		<g id="shape1115-127" transform="translate(453.618,-233.028)">
			<title>Return Message.1361</title>
			<desc>return &#60;result&#62;</desc>
			<path d="M0 722.79 L-189.92 722.79" class="st12"/>
			<rect x="-138.66" y="715.588" width="87.3993" height="14.4001" class="st7"/>
			<text x="-138.66" y="726.39" class="st10">return &#60;result&#62;</text>		</g>
		<g id="shape1116-134" transform="translate(-466.178,234.642) rotate(-90)">
			<title>Activation.1362</title>
			<rect x="0" y="721.371" width="56.6929" height="8.50394" class="st4"/>
		</g>
		<g id="shape1117-136" transform="translate(263.697,-544.839)">
			<title>Message.1363</title>
			<desc>removeAclRule</desc>
			<path d="M0 722.79 L181.44 722.79" class="st9"/>
			<rect x="52.3625" y="715.588" width="85.1965" height="14.4001" class="st7"/>
			<text x="52.36" y="726.39" class="st10">removeAclRule</text>		</g>
		<g id="shape1118-143" transform="translate(453.618,-502.319)">
			<title>Return Message.1364</title>
			<desc>return &#60;result&#62;</desc>
			<path d="M0 736.96 L-189.92 736.96" class="st12"/>
			<rect x="-138.66" y="729.761" width="87.3993" height="14.4001" class="st7"/>
			<text x="-138.66" y="740.56" class="st10">return &#60;result&#62;</text>		</g>
		<g id="shape1119-150" transform="translate(462.122,-289.721)">
			<title>Message.1365</title>
			<desc>remove_acl_table</desc>
			<path d="M0 722.79 L181.44 722.79" class="st9"/>
			<rect x="46.6348" y="715.588" width="96.6519" height="14.4001" class="st7"/>
			<text x="46.63" y="726.39" class="st10">remove_acl_table</text>		</g>
		<g id="shape1120-157" transform="translate(652.043,-247.201)">
			<title>Return Message.1366</title>
			<desc>return &#60;status&#62;</desc>
			<path d="M0 736.96 L-189.92 736.96" class="st12"/>
			<rect x="-139.524" y="729.761" width="89.1277" height="14.4001" class="st7"/>
			<text x="-139.52" y="740.56" class="st10">return &#60;status&#62;</text>		</g>
		<g id="shape1121-164" transform="translate(-69.3275,489.76) rotate(-90)">
			<title>Activation.1367</title>
			<rect x="0" y="721.371" width="56.6929" height="8.50394" class="st4"/>
		</g>
		<g id="shape1122-166" transform="translate(462.122,-559.012)">
			<title>Message.1368</title>
			<desc>remove_acl_entry</desc>
			<path d="M0 736.96 L181.44 736.96" class="st9"/>
			<rect x="46.043" y="729.761" width="97.8354" height="14.4001" class="st7"/>
			<text x="46.04" y="740.56" class="st10">remove_acl_entry</text>		</g>
		<g id="shape1123-173" transform="translate(652.043,-488.146)">
			<title>Return Message.1369</title>
			<desc>return &#60;status&#62;</desc>
			<path d="M0 722.79 L-189.92 722.79" class="st12"/>
			<rect x="-139.524" y="715.588" width="89.1277" height="14.4001" class="st7"/>
			<text x="-139.52" y="726.39" class="st10">return &#60;status&#62;</text>		</g>
		<g id="shape1124-180" transform="translate(-69.3273,234.642) rotate(-90)">
			<title>Activation.1370</title>
			<rect x="0" y="721.371" width="56.6929" height="8.50394" class="st4"/>
		</g>
		<g id="shape1125-182" transform="translate(-466.178,659.839) rotate(-90)">
			<title>Activation.1371</title>
			<rect x="0" y="721.371" width="56.6929" height="8.50394" class="st4"/>
		</g>
		<g id="shape1126-184" transform="translate(263.697,-119.642)">
			<title>Message.1372</title>
			<desc>remove_fine_grained_hash_field</desc>
			<path d="M0 722.79 L379.87 722.79" class="st9"/>
			<rect x="104.644" y="715.588" width="179.058" height="14.4001" class="st7"/>
			<text x="104.64" y="726.39" class="st10">remove_fine_grained_hash_field</text>		</g>
		<g id="shape1127-191" transform="translate(652.043,-77.1225)">
			<title>Return Message.1373</title>
			<desc>return &#60;status&#62;</desc>
			<path d="M0 736.96 L-388.35 736.96" class="st12"/>
			<rect x="-238.737" y="729.761" width="89.1277" height="14.4001" class="st7"/>
			<text x="-238.74" y="740.56" class="st10">return &#60;status&#62;</text>		</g>
		<g id="shape1128-198" transform="translate(-69.3275,659.839) rotate(-90)">
			<title>Activation.1374</title>
			<rect x="0" y="721.371" width="56.6929" height="8.50394" class="st4"/>
		</g>
		<g id="shape1129-200" transform="translate(-267.753,234.642) rotate(-90)">
			<title>Activation.1375</title>
			<rect x="0" y="721.371" width="56.6929" height="8.50394" class="st4"/>
		</g>
		<g id="shape1130-202" transform="translate(256.61,-381.847)">
			<title>Self Message.1376</title>
			<desc>process data</desc>
			<path d="M7.09 729.87 L25.09 729.87 L25.09 786.57 L15.57 786.57" class="st9"/>
			<rect x="21.3488" y="751.021" width="70.6885" height="14.4001" class="st11"/>
			<text x="21.35" y="761.82" class="st10">process data</text>		</g>
	</g>
</svg>
