<?xml version="1.0" encoding="UTF-8" standalone="no"?>
<!DOCTYPE svg PUBLIC "-//W3C//DTD SVG 1.1//EN" "http://www.w3.org/Graphics/SVG/1.1/DTD/svg11.dtd">
<!-- Generated by Microsoft Visio, SVG Export pbh_swss_design.svg Page-5 -->
<svg xmlns="http://www.w3.org/2000/svg" xmlns:xlink="http://www.w3.org/1999/xlink" xmlns:ev="http://www.w3.org/2001/xml-events"
		width="11.7344in" height="3.66666in" viewBox="0 0 844.874 263.999" xml:space="preserve" color-interpolation-filters="sRGB"
		class="st11">
	<title>pbh swss design</title>

	<style type="text/css">
	<![CDATA[
		.st1 {fill:#5b9bd5;stroke:#000000;stroke-linecap:round;stroke-linejoin:round;stroke-width:1}
		.st2 {fill:#ffffff;font-family:Segoe UI;font-size:0.833336em;font-weight:bold}
		.st3 {fill:#70ad47;stroke:#000000;stroke-linecap:round;stroke-linejoin:round;stroke-width:1}
		.st4 {fill:#ed7d31;stroke:#000000;stroke-linecap:round;stroke-linejoin:round;stroke-width:1}
		.st5 {fill:#ffffff;font-family:Segoe UI;font-size:0.833336em}
		.st6 {marker-end:url(#mrkr4-24);stroke:#000000;stroke-linecap:round;stroke-linejoin:round;stroke-width:2}
		.st7 {fill:#000000;fill-opacity:1;stroke:#000000;stroke-opacity:1;stroke-width:0.38167938931298}
		.st8 {marker-end:url(#mrkr4-55);marker-start:url(#mrkr4-53);stroke:#000000;stroke-linecap:round;stroke-linejoin:round;stroke-width:2}
		.st9 {fill:#000000;fill-opacity:1;stroke:#000000;stroke-opacity:1;stroke-width:0.44247787610619}
		.st10 {fill:#7f7f7f;stroke:#000000;stroke-linecap:round;stroke-linejoin:round;stroke-width:1}
		.st11 {fill:none;fill-rule:evenodd;font-size:12px;overflow:visible;stroke-linecap:square;stroke-miterlimit:3}
	]]>
	</style>

	<defs id="Markers">
		<g id="lend4">
			<path d="M 2 1 L 0 0 L 2 -1 L 2 1 " style="stroke:none"/>
		</g>
		<marker id="mrkr4-24" class="st7" refX="-5.24" orient="auto" markerUnits="strokeWidth" overflow="visible">
			<use xlink:href="#lend4" transform="scale(-2.62,-2.62) "/>
		</marker>
		<marker id="mrkr4-53" class="st9" refX="4.34" orient="auto" markerUnits="strokeWidth" overflow="visible">
			<use xlink:href="#lend4" transform="scale(2.26) "/>
		</marker>
		<marker id="mrkr4-55" class="st9" refX="-4.52" orient="auto" markerUnits="strokeWidth" overflow="visible">
			<use xlink:href="#lend4" transform="scale(-2.26,-2.26) "/>
		</marker>
	</defs>
	<g>
		<title>Page-5</title>
		<g id="group1000-1" transform="translate(18.5,-18.7277)">
			<title>Can.1000</title>
			<desc>CONFIG_DB</desc>
			<g id="shape1001-2">
				<title>Sheet.1001</title>
				<path d="M0 241.32 A63.7795 22.6772 -180 1 0 127.56 241.32 L127.56 59.9 L0 59.9 L0 241.32 Z" class="st1"/>
			</g>
			<g id="shape1000-4">
				<ellipse cx="63.7795" cy="59.9048" rx="63.7795" ry="22.6772" class="st1"/>
				<text x="36.21" y="99.61" class="st2">CONFIG_DB</text>			</g>
		</g>
		<g id="shape1002-7" transform="translate(188.579,-18.7277)">
			<title>Rounded Rectangle.1002</title>
			<desc>Orchagent</desc>
			<path d="M12.76 264 L114.8 264 A12.7557 12.7557 -180 0 0 127.56 251.24 L127.56 49.98 A12.7557 12.7557 -180 0 0 114.8
						 37.23 L12.76 37.23 A12.7557 12.7557 -180 0 0 0 49.98 L0 251.24 A12.7557 12.7557 -180 0 0 12.76 264 Z"
					class="st3"/>
			<text x="33.16" y="63.61" class="st2">ORCHAGENT</text>		</g>
		<g id="shape1003-10" transform="translate(32.6732,-41.058)">
			<title>Rounded Rectangle.1006</title>
			<desc>PBH_RULE</desc>
			<path d="M9.92 264 L89.29 264 A9.9211 9.9211 -180 0 0 99.21 254.08 L99.21 239.56 A9.9211 9.9211 -180 0 0 89.29 229.64
						 L9.92 229.64 A9.9211 9.9211 -180 0 0 0 239.56 L0 254.08 A9.9211 9.9211 -180 0 0 9.92 264 Z" class="st4"/>
			<text x="27.01" y="249.82" class="st5">PBH_RULE</text>		</g>
		<g id="shape1004-13" transform="translate(32.6732,-89.5938)">
			<title>Rounded Rectangle.1007</title>
			<desc>PBH_TABLE</desc>
			<path d="M9.92 264 L89.29 264 A9.9211 9.9211 -180 0 0 99.21 254.08 L99.21 238.49 A9.9211 9.9211 -180 0 0 89.29 228.57
						 L9.92 228.57 A9.9211 9.9211 -180 0 0 0 238.49 L0 254.08 A9.9211 9.9211 -180 0 0 9.92 264 Z" class="st4"/>
			<text x="24.72" y="249.28" class="st5">PBH_TABLE</text>		</g>
		<g id="shape1005-16" transform="translate(32.6732,-139.2)">
			<title>Rounded Rectangle.1008</title>
			<desc>PBH_HASH</desc>
			<path d="M9.92 264 L89.29 264 A9.9211 9.9211 -180 0 0 99.21 254.08 L99.21 238.49 A9.9211 9.9211 -180 0 0 89.29 228.57
						 L9.92 228.57 A9.9211 9.9211 -180 0 0 0 238.49 L0 254.08 A9.9211 9.9211 -180 0 0 9.92 264 Z" class="st4"/>
			<text x="25.33" y="249.28" class="st5">PBH_HASH</text>		</g>
		<g id="shape1006-19" transform="translate(131.886,-158.167)">
			<title>Dynamic connector.1009</title>
			<path d="M0 265.25 L46.43 274.81" class="st6"/>
		</g>
		<g id="shape1007-25" transform="translate(131.886,-106.06)">
			<title>Dynamic connector.1010</title>
			<path d="M0 262.75 L46.43 253.19" class="st6"/>
		</g>
		<g id="shape1008-30" transform="translate(131.886,-58.2393)">
			<title>Dynamic connector.1011</title>
			<path d="M0 264 L47.76 234.71" class="st6"/>
		</g>
		<g id="group1009-35" transform="translate(358.657,-18.7277)">
			<title>Can.1012</title>
			<desc>ASIC_DB</desc>
			<g id="shape1010-36">
				<title>Sheet.1010</title>
				<path d="M0 241.32 A63.7795 22.6772 -180 0 0 127.56 241.32 L127.56 59.9 L0 59.9 L0 241.32 Z" class="st1"/>
			</g>
			<g id="shape1009-38">
				<ellipse cx="63.7795" cy="59.9048" rx="63.7795" ry="22.6772" class="st1"/>
				<text x="43.79" y="153.61" class="st2">ASIC_DB</text>			</g>
		</g>
		<g id="shape1011-41" transform="translate(202.752,-168.617)">
			<title>Rounded Rectangle.1014</title>
			<desc>pbhorch</desc>
			<path d="M9.92 264 L89.29 264 A9.9211 9.9211 -180 0 0 99.21 254.08 L99.21 239.56 A9.9211 9.9211 -180 0 0 89.29 229.64
						 L9.92 229.64 A9.9211 9.9211 -180 0 0 -0 239.56 L0 254.08 A9.9211 9.9211 -180 0 0 9.92 264 Z" class="st4"/>
			<text x="31.09" y="249.82" class="st5">pbhorch</text>		</g>
		<g id="shape1012-44" transform="translate(202.752,-41.058)">
			<title>Rounded Rectangle.1012</title>
			<desc>aclorch</desc>
			<path d="M9.92 264 L89.29 264 A9.9211 9.9211 -180 0 0 99.21 254.08 L99.21 239.56 A9.9211 9.9211 -180 0 0 89.29 229.64
						 L9.92 229.64 A9.9211 9.9211 -180 0 0 -0 239.56 L0 254.08 A9.9211 9.9211 -180 0 0 9.92 264 Z" class="st4"/>
			<text x="33.73" y="249.82" class="st5">aclorch</text>		</g>
		<g id="shape1013-47" transform="translate(301.965,-185.798)">
			<title>Dynamic connector.1029</title>
			<path d="M7.93 267.53 L8.26 267.68 L48.44 285.58" class="st8"/>
		</g>
		<g id="shape1014-56" transform="translate(301.965,-58.2393)">
			<title>Dynamic connector.1030</title>
			<path d="M7.4 259.46 L7.71 259.27 L48.99 233.96" class="st8"/>
		</g>
		<g id="shape1015-63" transform="translate(528.736,-18.7277)">
			<title>Rounded Rectangle.1032</title>
			<desc>SYNCD</desc>
			<path d="M12.76 264 L114.8 264 A12.7557 12.7557 -180 0 0 127.56 251.24 L127.56 49.98 A12.7557 12.7557 -180 0 0 114.8
						 37.23 L12.76 37.23 A12.7557 12.7557 -180 0 0 0 49.98 L0 251.24 A12.7557 12.7557 -180 0 0 12.76 264 Z"
					class="st3"/>
			<text x="47.19" y="153.61" class="st2">SYNCD</text>		</g>
		<g id="shape1016-66" transform="translate(486.217,-125.027)">
			<title>Dynamic connector.1036</title>
			<path d="M8.68 256.91 L9.04 256.91 L33.48 256.91" class="st8"/>
		</g>
		<g id="shape1017-73" transform="translate(698.815,-18.5)">
			<title>Rounded Rectangle.1039</title>
			<desc>ASIC</desc>
			<path d="M12.76 264 L114.8 264 A12.7557 12.7557 -180 0 0 127.56 251.24 L127.56 49.98 A12.7557 12.7557 -180 0 0 114.8
						 37.23 L12.76 37.23 A12.7557 12.7557 -180 0 0 0 49.98 L0 251.24 A12.7557 12.7557 -180 0 0 12.76 264 Z"
					class="st10"/>
			<text x="52.76" y="153.61" class="st2">ASIC</text>		</g>
		<g id="shape1018-76" transform="translate(656.295,-139.155)">
			<title>Dynamic connector.1040</title>
			<path d="M8.68 271.06 L9.04 271.06 L33.48 271.11" class="st8"/>
		</g>
		<g id="shape1019-83" transform="translate(259.445,-168.617)">
			<title>Dynamic connector.1045</title>
			<path d="M-7.09 272.68 L-7.09 273.04 L-7.09 348.16" class="st8"/>
		</g>
	</g>
</svg>
