<?xml version="1.0" encoding="UTF-8" standalone="no"?>
<!DOCTYPE svg PUBLIC "-//W3C//DTD SVG 1.1//EN" "http://www.w3.org/Graphics/SVG/1.1/DTD/svg11.dtd">
<!-- Generated by Microsoft Visio, SVG Export pbh_add_flow.svg Page-4 -->
<svg xmlns="http://www.w3.org/2000/svg" xmlns:xlink="http://www.w3.org/1999/xlink" xmlns:ev="http://www.w3.org/2001/xml-events"
		width="9.96271in" height="17.6175in" viewBox="0 0 717.315 1268.46" xml:space="preserve" color-interpolation-filters="sRGB"
		class="st14">
	<title>pbh add flow</title>

	<style type="text/css">
	<![CDATA[
		.st1 {fill:#5b9bd5;stroke:#000000;stroke-linecap:round;stroke-linejoin:round;stroke-width:1}
		.st2 {stroke:#000000;stroke-dasharray:7,5;stroke-linecap:round;stroke-linejoin:round;stroke-width:1}
		.st3 {fill:#ffffff;font-family:Segoe UI;font-size:1.00001em;font-weight:bold}
		.st4 {fill:#af5200;stroke:#a54d00;stroke-linecap:round;stroke-linejoin:round;stroke-width:0.5}
		.st5 {marker-end:url(#mrkr3-60);stroke:#a54d00;stroke-linecap:round;stroke-linejoin:round;stroke-width:1}
		.st6 {fill:#a54d00;fill-opacity:1;stroke:#a54d00;stroke-opacity:1;stroke-width:0.23584905660377}
		.st7 {fill:#ffffff;stroke:none;stroke-linecap:butt;stroke-width:7.2}
		.st8 {fill:#813b00;font-family:Segoe UI;font-size:1.00001em;font-weight:bold}
		.st9 {marker-end:url(#mrkr4-70);stroke:#a54d00;stroke-linecap:round;stroke-linejoin:round;stroke-width:1}
		.st10 {fill:#803a00;font-family:Segoe UI;font-size:1.00001em;font-weight:bold}
		.st11 {fill:#70ad47;stroke:#70ad47;stroke-linecap:round;stroke-linejoin:round;stroke-width:0.5}
		.st12 {marker-end:url(#mrkr3-60);stroke:#a54d00;stroke-dasharray:7,5;stroke-linecap:round;stroke-linejoin:round;stroke-width:1}
		.st13 {fill:#ffffff;stroke:none;stroke-linecap:butt}
		.st14 {fill:none;fill-rule:evenodd;font-size:12px;overflow:visible;stroke-linecap:square;stroke-miterlimit:3}
	]]>
	</style>

	<defs id="Markers">
		<g id="lend3">
			<path d="M 2 1 L 0 0 L 2 -1 " style="stroke-linecap:round;stroke-linejoin:round;fill:none"/>
		</g>
		<marker id="mrkr3-60" class="st6" orient="auto" markerUnits="strokeWidth" overflow="visible">
			<use xlink:href="#lend3" transform="scale(-4.24,-4.24) "/>
		</marker>
		<g id="lend4">
			<path d="M 2 1 L 0 0 L 2 -1 L 2 1 " style="stroke:none"/>
		</g>
		<marker id="mrkr4-70" class="st6" refX="-8.48" orient="auto" markerUnits="strokeWidth" overflow="visible">
			<use xlink:href="#lend4" transform="scale(-4.24,-4.24) "/>
		</marker>
	</defs>
	<g>
		<title>Page-4</title>
		<g id="group1093-1" transform="translate(18.5,-1203.89)">
			<title>Actor lifeline.1433</title>
			<desc>ConfigDB</desc>
			<g id="shape1094-2" transform="translate(17.0079,-8.50394)">
				<title>Sheet.1094</title>
				<rect x="0" y="1242.95" width="51.0236" height="25.5118" class="st1"/>
			</g>
			<g id="shape1095-4" transform="translate(34.0157,-46.063)">
				<title>Sheet.1095</title>
				<path d="M8.5 1268.46 a6.99441E-15 0 0 1 1 -1.42109E-14 0 a6.99441E-15 0 0 1 1 1.42109E-14 0 Z" class="st1"/>
			</g>
			<g id="shape1096-6" transform="translate(28.3465,1185.89)">
				<title>Sheet.1096</title>
			</g>
			<g id="shape1097-8" transform="translate(1310.98,1268.46) rotate(90)">
				<title>Sheet.1097</title>
				<path d="M0 1268.46 L1162.2 1268.46" class="st2"/>
			</g>
			<g id="shape1093-11">
				<rect x="0" y="1225.94" width="85.0394" height="42.5197" class="st1"/>
				<text x="15.49" y="1250.8" class="st3">ConfigDB</text>			</g>
		</g>
		<g id="group1098-14" transform="translate(216.925,-1203.89)">
			<title>Object lifeline.1438</title>
			<desc>PbhOrch</desc>
			<g id="shape1099-15" transform="translate(17.0079,-8.50394)">
				<title>Sheet.1099</title>
				<rect x="0" y="1242.95" width="51.0236" height="25.5118" class="st1"/>
			</g>
			<g id="shape1100-17" transform="translate(34.0157,-46.063)">
				<title>Sheet.1100</title>
				<path d="M8.5 1268.46 a0 0 0 1 1 0 0 a0 0 0 1 1 0 0 Z" class="st1"/>
			</g>
			<g id="shape1101-19" transform="translate(28.3465,1185.89)">
				<title>Sheet.1101</title>
			</g>
			<g id="shape1102-21" transform="translate(1310.98,1268.46) rotate(90)">
				<title>Sheet.1102</title>
				<path d="M0 1268.46 L1162.2 1268.46" class="st2"/>
			</g>
			<g id="shape1098-24">
				<rect x="0" y="1225.94" width="85.0394" height="42.5197" class="st1"/>
				<text x="18.07" y="1250.8" class="st3">PbhOrch</text>			</g>
		</g>
		<g id="group1103-27" transform="translate(415.35,-1203.89)">
			<title>Object lifeline.1443</title>
			<desc>AclOrch</desc>
			<g id="shape1104-28" transform="translate(17.0079,-8.50394)">
				<title>Sheet.1104</title>
				<rect x="0" y="1242.95" width="51.0236" height="25.5118" class="st1"/>
			</g>
			<g id="shape1105-30" transform="translate(34.0157,-46.063)">
				<title>Sheet.1105</title>
				<path d="M8.5 1268.46 a0 0 0 1 1 0 0 a0 0 0 1 1 0 0 Z" class="st1"/>
			</g>
			<g id="shape1106-32" transform="translate(28.3465,1185.89)">
				<title>Sheet.1106</title>
			</g>
			<g id="shape1107-34" transform="translate(1310.98,1268.46) rotate(90)">
				<title>Sheet.1107</title>
				<path d="M0 1268.46 L1162.2 1268.46" class="st2"/>
			</g>
			<g id="shape1103-37">
				<rect x="0" y="1225.94" width="85.0394" height="42.5197" class="st1"/>
				<text x="20.29" y="1250.8" class="st3">AclOrch</text>			</g>
		</g>
		<g id="group1108-40" transform="translate(613.775,-1203.89)">
			<title>Object lifeline.1448</title>
			<desc>SAI</desc>
			<g id="shape1109-41" transform="translate(17.0079,-8.50394)">
				<title>Sheet.1109</title>
				<rect x="0" y="1242.95" width="51.0236" height="25.5118" class="st1"/>
			</g>
			<g id="shape1110-43" transform="translate(34.0157,-46.063)">
				<title>Sheet.1110</title>
				<path d="M8.5 1268.46 a0 0 0 1 1 0 0 a0 0 0 1 1 0 0 Z" class="st1"/>
			</g>
			<g id="shape1111-45" transform="translate(28.3465,1185.89)">
				<title>Sheet.1111</title>
			</g>
			<g id="shape1112-47" transform="translate(1310.98,1268.46) rotate(90)">
				<title>Sheet.1112</title>
				<path d="M0 1268.46 L1162.2 1268.46" class="st2"/>
			</g>
			<g id="shape1108-50">
				<rect x="0" y="1225.94" width="85.0394" height="42.5197" class="st1"/>
				<text x="33.04" y="1250.8" class="st3">SAI</text>			</g>
		</g>
		<g id="shape1113-53" transform="translate(-1203.19,943.303) rotate(-90)">
			<title>Activation.1475</title>
			<rect x="0" y="1259.95" width="850.394" height="8.50394" class="st4"/>
		</g>
		<g id="shape1114-55" transform="translate(65.2715,-1168.46)">
			<title>Asynchronous Message.1476</title>
			<desc>PBH_HASH_FIELD|name</desc>
			<path d="M0 1261.37 L189.92 1261.37" class="st5"/>
			<rect x="27.8118" y="1254.17" width="134.298" height="14.4001" class="st7"/>
			<text x="27.81" y="1264.97" class="st8">PBH_HASH_FIELD|name</text>		</g>
		<g id="shape1115-63" transform="translate(-1004.76,149.602) rotate(-90)">
			<title>Activation.1505</title>
			<rect x="0" y="1259.95" width="56.6931" height="8.50394" class="st4"/>
		</g>
		<g id="shape1116-65" transform="translate(256.61,-1175.55)">
			<title>Self Message.1506</title>
			<desc>process data</desc>
			<path d="M7.09 1268.46 L25.09 1268.46 L25.09 1325.15 L15.57 1325.15" class="st9"/>
			<rect x="21.3488" y="1289.6" width="70.6885" height="14.4001" class="st7"/>
			<text x="21.35" y="1300.4" class="st10">process data</text>		</g>
		<g id="shape1117-73" transform="translate(-1004.76,348.028) rotate(-90)">
			<title>Activation.1525</title>
			<rect x="0" y="1259.95" width="170.079" height="8.50394" class="st4"/>
		</g>
		<g id="shape1118-75" transform="translate(258.736,-1090.51)">
			<title>Self Message.1526</title>
			<desc>createPbhHashField</desc>
			<path d="M4.96 1268.46 L27.21 1268.46 L27.21 1296.8 L17.69 1296.8" class="st9"/>
			<rect x="24.1677" y="1275.43" width="111.822" height="14.4001" class="st7"/>
			<text x="24.17" y="1286.23" class="st10">createPbhHashField</text>		</g>
		<g id="shape1119-82" transform="translate(-1000.51,319.681) rotate(-90)">
			<title>Activation.1509</title>
			<rect x="0" y="1259.95" width="113.386" height="8.50394" class="st11"/>
		</g>
		<g id="shape1120-84" transform="translate(267.949,-1026.73)">
			<title>Message.1510</title>
			<desc>create_fine_grained_hash_field</desc>
			<path d="M0 1261.37 L375.61 1261.37" class="st9"/>
			<rect x="106.491" y="1254.17" width="171.113" height="14.4001" class="st7"/>
			<text x="106.49" y="1264.97" class="st10">create_fine_grained_hash_field</text>		</g>
		<g id="shape1121-91" transform="translate(-607.91,291.335) rotate(-90)">
			<title>Activation.1511</title>
			<rect x="0" y="1259.95" width="56.6929" height="8.50394" class="st4"/>
		</g>
		<g id="shape1122-93" transform="translate(652.043,-970.036)">
			<title>Return Message.1512</title>
			<desc>return &#60;status&#62;</desc>
			<path d="M0 1261.37 L-384.09 1261.37" class="st12"/>
			<rect x="-236.611" y="1254.17" width="89.1277" height="14.4001" class="st7"/>
			<text x="-236.61" y="1264.97" class="st10">return &#60;status&#62;</text>		</g>
		<g id="shape1123-100" transform="translate(65.2715,-884.997)">
			<title>Asynchronous Message.1531</title>
			<desc>PBH_HASH|name</desc>
			<path d="M0 1261.37 L189.92 1261.37" class="st5"/>
			<rect x="46.0081" y="1254.17" width="97.9052" height="14.4001" class="st7"/>
			<text x="46.01" y="1264.97" class="st8">PBH_HASH|name</text>		</g>
		<g id="shape1124-107" transform="translate(-1004.76,433.067) rotate(-90)">
			<title>Activation.1532</title>
			<rect x="0" y="1259.95" width="56.6931" height="8.50394" class="st4"/>
		</g>
		<g id="shape1125-109" transform="translate(256.61,-892.083)">
			<title>Self Message.1533</title>
			<desc>process data</desc>
			<path d="M7.09 1268.46 L25.09 1268.46 L25.09 1325.15 L15.57 1325.15" class="st9"/>
			<rect x="21.3488" y="1289.6" width="70.6885" height="14.4001" class="st13"/>
			<text x="21.35" y="1300.4" class="st10">process data</text>		</g>
		<g id="shape1126-116" transform="translate(-1004.76,631.492) rotate(-90)">
			<title>Activation.1516</title>
			<rect x="0" y="1259.95" width="170.079" height="8.50394" class="st4"/>
		</g>
		<g id="shape1127-118" transform="translate(258.736,-807.044)">
			<title>Self Message.1535</title>
			<desc>createPbhHash</desc>
			<path d="M4.96 1268.46 L27.21 1268.46 L27.21 1296.8 L17.69 1296.8" class="st9"/>
			<rect x="24.0529" y="1275.43" width="84.8392" height="14.4001" class="st7"/>
			<text x="24.05" y="1286.23" class="st10">createPbhHash</text>		</g>
		<g id="shape1128-125" transform="translate(-1000.51,603.146) rotate(-90)">
			<title>Activation.1536</title>
			<rect x="0" y="1259.95" width="113.386" height="8.50394" class="st11"/>
		</g>
		<g id="shape1129-127" transform="translate(267.949,-743.264)">
			<title>Message.1537</title>
			<desc>create_hash</desc>
			<path d="M0 1261.37 L375.61 1261.37" class="st9"/>
			<rect x="159.141" y="1254.17" width="65.8133" height="14.4001" class="st7"/>
			<text x="159.14" y="1264.97" class="st10">create_hash</text>		</g>
		<g id="shape1130-134" transform="translate(-607.91,574.799) rotate(-90)">
			<title>Activation.1538</title>
			<rect x="0" y="1259.95" width="56.6929" height="8.50394" class="st4"/>
		</g>
		<g id="shape1131-136" transform="translate(652.043,-686.572)">
			<title>Return Message.1539</title>
			<desc>return &#60;status&#62;</desc>
			<path d="M0 1261.37 L-384.09 1261.37" class="st12"/>
			<rect x="-236.611" y="1254.17" width="89.1277" height="14.4001" class="st13"/>
			<text x="-236.61" y="1264.97" class="st10">return &#60;status&#62;</text>		</g>
		<g id="shape1132-143" transform="translate(-1004.76,716.532) rotate(-90)">
			<title>Activation.1522</title>
			<rect x="0" y="1259.95" width="56.6931" height="8.50394" class="st4"/>
		</g>
		<g id="shape1133-145" transform="translate(256.61,-608.619)">
			<title>Self Message.1541</title>
			<desc>process data</desc>
			<path d="M7.09 1268.46 L25.09 1268.46 L25.09 1325.15 L15.57 1325.15" class="st9"/>
			<rect x="21.3488" y="1289.6" width="70.6885" height="14.4001" class="st7"/>
			<text x="21.35" y="1300.4" class="st10">process data</text>		</g>
		<g id="shape1134-152" transform="translate(-1004.76,914.957) rotate(-90)">
			<title>Activation.1524</title>
			<rect x="0" y="1259.95" width="170.079" height="8.50394" class="st4"/>
		</g>
		<g id="shape1135-154" transform="translate(258.736,-523.579)">
			<title>Self Message.1543</title>
			<desc>createPbhTable</desc>
			<path d="M4.96 1268.46 L27.21 1268.46 L27.21 1296.8 L17.69 1296.8" class="st9"/>
			<rect x="24.1309" y="1275.43" width="87.5174" height="14.4001" class="st13"/>
			<text x="24.13" y="1286.23" class="st10">createPbhTable</text>		</g>
		<g id="shape1136-161" transform="translate(-1000.51,886.61) rotate(-90)">
			<title>Activation.1544</title>
			<rect x="0" y="1259.95" width="113.386" height="8.50394" class="st11"/>
		</g>
		<g id="shape1137-163" transform="translate(-607.91,858.264) rotate(-90)">
			<title>Activation.1545</title>
			<rect x="0" y="1259.95" width="56.6929" height="8.50394" class="st4"/>
		</g>
		<g id="shape1138-165" transform="translate(267.949,-459.8)">
			<title>Message.1546</title>
			<desc>addAclTable</desc>
			<path d="M0 1261.37 L177.19 1261.37" class="st9"/>
			<rect x="57.9562" y="1254.17" width="69.7569" height="14.4001" class="st7"/>
			<text x="57.96" y="1264.97" class="st10">addAclTable</text>		</g>
		<g id="shape1139-172" transform="translate(-806.335,858.264) rotate(-90)">
			<title>Activation.1547</title>
			<rect x="0" y="1259.95" width="56.6929" height="8.50394" class="st4"/>
		</g>
		<g id="shape1140-174" transform="translate(453.618,-403.107)">
			<title>Return Message.1548</title>
			<desc>return &#60;result&#62;</desc>
			<path d="M0 1261.37 L-185.67 1261.37" class="st12"/>
			<rect x="-136.534" y="1254.17" width="87.3993" height="14.4001" class="st7"/>
			<text x="-136.53" y="1264.97" class="st10">return &#60;result&#62;</text>		</g>
		<g id="shape1141-181" transform="translate(462.122,-459.8)">
			<title>Message.1549</title>
			<desc>create_acl_table</desc>
			<path d="M0 1261.37 L181.44 1261.37" class="st9"/>
			<rect x="50.6074" y="1254.17" width="88.7066" height="14.4001" class="st7"/>
			<text x="50.61" y="1264.97" class="st10">create_acl_table</text>		</g>
		<g id="shape1142-188" transform="translate(652.043,-417.28)">
			<title>Return Message.1550</title>
			<desc>return &#60;status&#62;</desc>
			<path d="M0 1275.54 L-189.92 1275.54" class="st12"/>
			<rect x="-139.524" y="1268.34" width="89.1277" height="14.4001" class="st7"/>
			<text x="-139.52" y="1279.14" class="st10">return &#60;status&#62;</text>		</g>
		<g id="shape1143-195" transform="translate(65.2715,-615.705)">
			<title>Asynchronous Message.1551</title>
			<desc>PBH_TABLE|name</desc>
			<path d="M0 1275.54 L189.92 1275.54" class="st5"/>
			<rect x="44.9417" y="1268.34" width="100.038" height="14.4001" class="st7"/>
			<text x="44.94" y="1279.14" class="st8">PBH_TABLE|name</text>		</g>
		<g id="shape1144-202" transform="translate(-1004.76,999.996) rotate(-90)">
			<title>Activation.1552</title>
			<rect x="0" y="1259.95" width="56.6931" height="8.50394" class="st4"/>
		</g>
		<g id="shape1145-204" transform="translate(65.2715,-318.068)">
			<title>Asynchronous Message.1553</title>
			<desc>PBH_RULE|name</desc>
			<path d="M0 1261.37 L189.92 1261.37" class="st5"/>
			<rect x="48.2667" y="1254.17" width="93.3879" height="14.4001" class="st7"/>
			<text x="48.27" y="1264.97" class="st8">PBH_RULE|name</text>		</g>
		<g id="shape1146-211" transform="translate(256.61,-325.154)">
			<title>Self Message.1554</title>
			<desc>process data</desc>
			<path d="M7.09 1268.46 L25.09 1268.46 L25.09 1325.15 L15.57 1325.15" class="st9"/>
			<rect x="21.3488" y="1289.6" width="70.6885" height="14.4001" class="st13"/>
			<text x="21.35" y="1300.4" class="st10">process data</text>		</g>
		<g id="shape1147-218" transform="translate(-1004.76,1198.42) rotate(-90)">
			<title>Activation.1555</title>
			<rect x="0" y="1259.95" width="170.079" height="8.50394" class="st4"/>
		</g>
		<g id="shape1148-220" transform="translate(258.736,-240.115)">
			<title>Self Message.1556</title>
			<desc>createPbhRule</desc>
			<path d="M4.96 1268.46 L27.21 1268.46 L27.21 1296.8 L17.69 1296.8" class="st9"/>
			<rect x="24.0729" y="1275.43" width="81.6812" height="14.4001" class="st13"/>
			<text x="24.07" y="1286.23" class="st10">createPbhRule</text>		</g>
		<g id="shape1149-227" transform="translate(-1000.51,1170.07) rotate(-90)">
			<title>Activation.1557</title>
			<rect x="0" y="1259.95" width="113.386" height="8.50394" class="st11"/>
		</g>
		<g id="shape1150-229" transform="translate(-607.91,1141.73) rotate(-90)">
			<title>Activation.1558</title>
			<rect x="0" y="1259.95" width="56.6929" height="8.50394" class="st4"/>
		</g>
		<g id="shape1151-231" transform="translate(267.949,-190.508)">
			<title>Message.1559</title>
			<desc>addAclRule</desc>
			<path d="M0 1275.54 L177.19 1275.54" class="st9"/>
			<rect x="60.8743" y="1268.34" width="63.9207" height="14.4001" class="st7"/>
			<text x="60.87" y="1279.14" class="st10">addAclRule</text>		</g>
		<g id="shape1152-238" transform="translate(-806.336,1141.73) rotate(-90)">
			<title>Activation.1560</title>
			<rect x="0" y="1259.95" width="56.6929" height="8.50394" class="st4"/>
		</g>
		<g id="shape1153-240" transform="translate(453.618,-119.642)">
			<title>Return Message.1561</title>
			<desc>return &#60;result&#62;</desc>
			<path d="M0 1261.37 L-185.67 1261.37" class="st12"/>
			<rect x="-136.534" y="1254.17" width="87.3993" height="14.4001" class="st7"/>
			<text x="-136.53" y="1264.97" class="st10">return &#60;result&#62;</text>		</g>
		<g id="shape1154-247" transform="translate(462.122,-176.335)">
			<title>Message.1562</title>
			<desc>create_acl_entry</desc>
			<path d="M0 1261.37 L181.44 1261.37" class="st9"/>
			<rect x="50.0157" y="1254.17" width="89.8901" height="14.4001" class="st7"/>
			<text x="50.02" y="1264.97" class="st10">create_acl_entry</text>		</g>
		<g id="shape1155-254" transform="translate(652.043,-133.816)">
			<title>Return Message.1563</title>
			<desc>return &#60;status&#62;</desc>
			<path d="M0 1275.54 L-189.92 1275.54" class="st12"/>
			<rect x="-139.524" y="1268.34" width="89.1277" height="14.4001" class="st13"/>
			<text x="-139.52" y="1279.14" class="st10">return &#60;status&#62;</text>		</g>
	</g>
</svg>
