<?xml version="1.0" encoding="UTF-8" standalone="no"?>
<!DOCTYPE svg PUBLIC "-//W3C//DTD SVG 1.1//EN" "http://www.w3.org/Graphics/SVG/1.1/DTD/svg11.dtd">
<!-- Generated by Microsoft Visio, SVG Export pbh_remove_flow.svg Page-4 -->
<svg xmlns="http://www.w3.org/2000/svg" xmlns:xlink="http://www.w3.org/1999/xlink" xmlns:ev="http://www.w3.org/2001/xml-events"
		width="9.96271in" height="17.6175in" viewBox="0 0 717.315 1268.46" xml:space="preserve" color-interpolation-filters="sRGB"
		class="st14">
	<title>pbh remove flow</title>

	<style type="text/css">
	<![CDATA[
		.st1 {fill:#5b9bd5;stroke:#000000;stroke-linecap:round;stroke-linejoin:round;stroke-width:1}
		.st2 {stroke:#000000;stroke-dasharray:7,5;stroke-linecap:round;stroke-linejoin:round;stroke-width:1}
		.st3 {fill:#ffffff;font-family:Segoe UI;font-size:1.00001em;font-weight:bold}
		.st4 {fill:#af5200;stroke:#a54d00;stroke-linecap:round;stroke-linejoin:round;stroke-width:0.5}
		.st5 {marker-end:url(#mrkr3-62);stroke:#a54d00;stroke-linecap:round;stroke-linejoin:round;stroke-width:1}
		.st6 {fill:#a54d00;fill-opacity:1;stroke:#a54d00;stroke-opacity:1;stroke-width:0.23584905660377}
		.st7 {fill:#ffffff;stroke:none;stroke-linecap:butt;stroke-width:7.2}
		.st8 {fill:#813b00;font-family:Segoe UI;font-size:1.00001em;font-weight:bold}
		.st9 {marker-end:url(#mrkr4-70);stroke:#a54d00;stroke-linecap:round;stroke-linejoin:round;stroke-width:1}
		.st10 {fill:#803a00;font-family:Segoe UI;font-size:1.00001em;font-weight:bold}
		.st11 {fill:#70ad47;stroke:#70ad47;stroke-linecap:round;stroke-linejoin:round;stroke-width:0.5}
		.st12 {marker-end:url(#mrkr3-62);stroke:#a54d00;stroke-dasharray:7,5;stroke-linecap:round;stroke-linejoin:round;stroke-width:1}
		.st13 {fill:#ffffff;stroke:none;stroke-linecap:butt}
		.st14 {fill:none;fill-rule:evenodd;font-size:12px;overflow:visible;stroke-linecap:square;stroke-miterlimit:3}
	]]>
	</style>

	<defs id="Markers">
		<g id="lend3">
			<path d="M 2 1 L 0 0 L 2 -1 " style="stroke-linecap:round;stroke-linejoin:round;fill:none"/>
		</g>
		<marker id="mrkr3-62" class="st6" orient="auto" markerUnits="strokeWidth" overflow="visible">
			<use xlink:href="#lend3" transform="scale(-4.24,-4.24) "/>
		</marker>
		<g id="lend4">
			<path d="M 2 1 L 0 0 L 2 -1 L 2 1 " style="stroke:none"/>
		</g>
		<marker id="mrkr4-70" class="st6" refX="-8.48" orient="auto" markerUnits="strokeWidth" overflow="visible">
			<use xlink:href="#lend4" transform="scale(-4.24,-4.24) "/>
		</marker>
	</defs>
	<g>
		<title>Page-4</title>
		<g id="group1024-1" transform="translate(18.5,-1203.89)">
			<title>Actor lifeline.1551</title>
			<desc>ConfigDB</desc>
			<g id="shape1025-2" transform="translate(17.0079,-8.50394)">
				<title>Sheet.1025</title>
				<rect x="0" y="1242.95" width="51.0236" height="25.5118" class="st1"/>
			</g>
			<g id="shape1026-4" transform="translate(34.0157,-46.063)">
				<title>Sheet.1026</title>
				<path d="M8.5 1268.46 a6.99441E-15 0 0 1 1 -1.42109E-14 0 a6.99441E-15 0 0 1 1 1.42109E-14 0 Z" class="st1"/>
			</g>
			<g id="shape1027-6" transform="translate(28.3465,1185.89)">
				<title>Sheet.1027</title>
			</g>
			<g id="shape1028-8" transform="translate(1310.98,1268.46) rotate(90)">
				<title>Sheet.1028</title>
				<path d="M0 1268.46 L1162.2 1268.46" class="st2"/>
			</g>
			<g id="shape1024-11">
				<rect x="0" y="1225.94" width="85.0394" height="42.5197" class="st1"/>
				<text x="15.49" y="1250.8" class="st3">ConfigDB</text>			</g>
		</g>
		<g id="group1029-14" transform="translate(216.925,-1203.89)">
			<title>Object lifeline.1556</title>
			<desc>PbhOrch</desc>
			<g id="shape1030-15" transform="translate(17.0079,-8.50394)">
				<title>Sheet.1030</title>
				<rect x="0" y="1242.95" width="51.0236" height="25.5118" class="st1"/>
			</g>
			<g id="shape1031-17" transform="translate(34.0157,-46.063)">
				<title>Sheet.1031</title>
				<path d="M8.5 1268.46 a0 0 0 1 1 0 0 a0 0 0 1 1 0 0 Z" class="st1"/>
			</g>
			<g id="shape1032-19" transform="translate(28.3465,1185.89)">
				<title>Sheet.1032</title>
			</g>
			<g id="shape1033-21" transform="translate(1310.98,1268.46) rotate(90)">
				<title>Sheet.1033</title>
				<path d="M0 1268.46 L1162.2 1268.46" class="st2"/>
			</g>
			<g id="shape1029-24">
				<rect x="0" y="1225.94" width="85.0394" height="42.5197" class="st1"/>
				<text x="18.07" y="1250.8" class="st3">PbhOrch</text>			</g>
		</g>
		<g id="group1034-27" transform="translate(415.35,-1203.89)">
			<title>Object lifeline.1561</title>
			<desc>AclOrch</desc>
			<g id="shape1035-28" transform="translate(17.0079,-8.50394)">
				<title>Sheet.1035</title>
				<rect x="0" y="1242.95" width="51.0236" height="25.5118" class="st1"/>
			</g>
			<g id="shape1036-30" transform="translate(34.0157,-46.063)">
				<title>Sheet.1036</title>
				<path d="M8.5 1268.46 a0 0 0 1 1 0 0 a0 0 0 1 1 0 0 Z" class="st1"/>
			</g>
			<g id="shape1037-32" transform="translate(28.3465,1185.89)">
				<title>Sheet.1037</title>
			</g>
			<g id="shape1038-34" transform="translate(1310.98,1268.46) rotate(90)">
				<title>Sheet.1038</title>
				<path d="M0 1268.46 L1162.2 1268.46" class="st2"/>
			</g>
			<g id="shape1034-37">
				<rect x="0" y="1225.94" width="85.0394" height="42.5197" class="st1"/>
				<text x="20.29" y="1250.8" class="st3">AclOrch</text>			</g>
		</g>
		<g id="group1039-40" transform="translate(613.775,-1203.89)">
			<title>Object lifeline.1566</title>
			<desc>SAI</desc>
			<g id="shape1040-41" transform="translate(17.0079,-8.50394)">
				<title>Sheet.1040</title>
				<rect x="0" y="1242.95" width="51.0236" height="25.5118" class="st1"/>
			</g>
			<g id="shape1041-43" transform="translate(34.0157,-46.063)">
				<title>Sheet.1041</title>
				<path d="M8.5 1268.46 a0 0 0 1 1 0 0 a0 0 0 1 1 0 0 Z" class="st1"/>
			</g>
			<g id="shape1042-45" transform="translate(28.3465,1185.89)">
				<title>Sheet.1042</title>
			</g>
			<g id="shape1043-47" transform="translate(1310.98,1268.46) rotate(90)">
				<title>Sheet.1043</title>
				<path d="M0 1268.46 L1162.2 1268.46" class="st2"/>
			</g>
			<g id="shape1039-50">
				<rect x="0" y="1225.94" width="85.0394" height="42.5197" class="st1"/>
				<text x="33.04" y="1250.8" class="st3">SAI</text>			</g>
		</g>
		<g id="shape1044-53" transform="translate(-1004.76,149.603) rotate(-90)">
			<title>Activation.1571</title>
			<rect x="0" y="1259.95" width="56.6931" height="8.50394" class="st4"/>
		</g>
		<g id="shape1045-55" transform="translate(-1203.19,943.303) rotate(-90)">
			<title>Activation.1572</title>
			<rect x="0" y="1259.95" width="850.394" height="8.50394" class="st4"/>
		</g>
		<g id="shape1046-57" transform="translate(65.2715,-1182.63)">
			<title>Asynchronous Message.1573</title>
			<desc>PBH_RULE|name</desc>
			<path d="M0 1275.54 L189.92 1275.54" class="st5"/>
			<rect x="48.2668" y="1268.34" width="93.3879" height="14.4001" class="st7"/>
			<text x="48.27" y="1279.14" class="st8">PBH_RULE|name</text>		</g>
		<g id="shape1047-65" transform="translate(256.61,-1175.55)">
			<title>Self Message.1574</title>
			<desc>process data</desc>
			<path d="M7.09 1268.46 L25.09 1268.46 L25.09 1325.15 L15.57 1325.15" class="st9"/>
			<rect x="21.3488" y="1289.6" width="70.6885" height="14.4001" class="st7"/>
			<text x="21.35" y="1300.4" class="st10">process data</text>		</g>
		<g id="shape1048-73" transform="translate(-1004.76,348.028) rotate(-90)">
			<title>Activation.1477</title>
			<rect x="0" y="1259.95" width="170.079" height="8.50394" class="st4"/>
		</g>
		<g id="shape1049-75" transform="translate(258.736,-1090.51)">
			<title>Self Message.1478</title>
			<desc>deletePbhRule</desc>
			<path d="M4.96 1268.46 L27.21 1268.46 L27.21 1296.8 L17.69 1296.8" class="st9"/>
			<rect x="23.9527" y="1275.43" width="82.0209" height="14.4001" class="st7"/>
			<text x="23.95" y="1286.23" class="st10">deletePbhRule</text>		</g>
		<g id="shape1050-82" transform="translate(-1000.51,319.681) rotate(-90)">
			<title>Activation.1479</title>
			<rect x="0" y="1259.95" width="113.386" height="8.50394" class="st11"/>
		</g>
		<g id="shape1051-84" transform="translate(-607.91,291.335) rotate(-90)">
			<title>Activation.1481</title>
			<rect x="0" y="1259.95" width="56.6929" height="8.50394" class="st4"/>
		</g>
		<g id="shape1052-86" transform="translate(267.949,-1040.9)">
			<title>Message.1485</title>
			<desc>removeAclRule</desc>
			<path d="M0 1275.54 L177.19 1275.54" class="st9"/>
			<rect x="50.2364" y="1268.34" width="85.1965" height="14.4001" class="st7"/>
			<text x="50.24" y="1279.14" class="st10">removeAclRule</text>		</g>
		<g id="shape1053-93" transform="translate(-806.335,291.335) rotate(-90)">
			<title>Activation.1486</title>
			<rect x="0" y="1259.95" width="56.6929" height="8.50394" class="st4"/>
		</g>
		<g id="shape1054-95" transform="translate(453.618,-970.036)">
			<title>Return Message.1487</title>
			<desc>return &#60;result&#62;</desc>
			<path d="M0 1261.37 L-185.67 1261.37" class="st12"/>
			<rect x="-136.534" y="1254.17" width="87.3993" height="14.4001" class="st7"/>
			<text x="-136.53" y="1264.97" class="st10">return &#60;result&#62;</text>		</g>
		<g id="shape1055-102" transform="translate(462.122,-1026.73)">
			<title>Message.1488</title>
			<desc>remove_acl_entry</desc>
			<path d="M0 1261.37 L181.44 1261.37" class="st9"/>
			<rect x="46.043" y="1254.17" width="97.8354" height="14.4001" class="st7"/>
			<text x="46.04" y="1264.97" class="st10">remove_acl_entry</text>		</g>
		<g id="shape1056-109" transform="translate(652.043,-984.209)">
			<title>Return Message.1489</title>
			<desc>return &#60;status&#62;</desc>
			<path d="M0 1275.54 L-189.92 1275.54" class="st12"/>
			<rect x="-139.524" y="1268.34" width="89.1277" height="14.4001" class="st7"/>
			<text x="-139.52" y="1279.14" class="st10">return &#60;status&#62;</text>		</g>
		<g id="shape1057-116" transform="translate(-1004.76,433.067) rotate(-90)">
			<title>Activation.1490</title>
			<rect x="0" y="1259.95" width="56.6931" height="8.50394" class="st4"/>
		</g>
		<g id="shape1058-118" transform="translate(256.61,-892.083)">
			<title>Self Message.1491</title>
			<desc>process data</desc>
			<path d="M7.09 1268.46 L25.09 1268.46 L25.09 1325.15 L15.57 1325.15" class="st9"/>
			<rect x="21.3488" y="1289.6" width="70.6885" height="14.4001" class="st13"/>
			<text x="21.35" y="1300.4" class="st10">process data</text>		</g>
		<g id="shape1059-125" transform="translate(-1004.76,631.492) rotate(-90)">
			<title>Activation.1492</title>
			<rect x="0" y="1259.95" width="170.079" height="8.50394" class="st4"/>
		</g>
		<g id="shape1060-127" transform="translate(258.736,-807.044)">
			<title>Self Message.1493</title>
			<desc>deletePbhTable</desc>
			<path d="M4.96 1268.46 L27.21 1268.46 L27.21 1296.8 L17.69 1296.8" class="st9"/>
			<rect x="24.0225" y="1275.43" width="87.8571" height="14.4001" class="st7"/>
			<text x="24.02" y="1286.23" class="st10">deletePbhTable</text>		</g>
		<g id="shape1061-134" transform="translate(-1000.51,603.146) rotate(-90)">
			<title>Activation.1494</title>
			<rect x="0" y="1259.95" width="113.386" height="8.50394" class="st11"/>
		</g>
		<g id="shape1062-136" transform="translate(-607.91,574.799) rotate(-90)">
			<title>Activation.1495</title>
			<rect x="0" y="1259.95" width="56.6929" height="8.50394" class="st4"/>
		</g>
		<g id="shape1063-138" transform="translate(267.949,-743.264)">
			<title>Message.1496</title>
			<desc>removeAclTable</desc>
			<path d="M0 1261.37 L177.19 1261.37" class="st9"/>
			<rect x="47.3183" y="1254.17" width="91.0327" height="14.4001" class="st7"/>
			<text x="47.32" y="1264.97" class="st10">removeAclTable</text>		</g>
		<g id="shape1064-145" transform="translate(-806.335,574.799) rotate(-90)">
			<title>Activation.1497</title>
			<rect x="0" y="1259.95" width="56.6929" height="8.50394" class="st4"/>
		</g>
		<g id="shape1065-147" transform="translate(453.618,-686.572)">
			<title>Return Message.1498</title>
			<desc>return &#60;result&#62;</desc>
			<path d="M0 1261.37 L-185.67 1261.37" class="st12"/>
			<rect x="-136.534" y="1254.17" width="87.3993" height="14.4001" class="st7"/>
			<text x="-136.53" y="1264.97" class="st10">return &#60;result&#62;</text>		</g>
		<g id="shape1066-154" transform="translate(462.122,-743.264)">
			<title>Message.1499</title>
			<desc>remove_acl_table</desc>
			<path d="M0 1261.37 L181.44 1261.37" class="st9"/>
			<rect x="46.6348" y="1254.17" width="96.6519" height="14.4001" class="st7"/>
			<text x="46.63" y="1264.97" class="st10">remove_acl_table</text>		</g>
		<g id="shape1067-161" transform="translate(652.043,-700.745)">
			<title>Return Message.1500</title>
			<desc>return &#60;status&#62;</desc>
			<path d="M0 1275.54 L-189.92 1275.54" class="st12"/>
			<rect x="-139.524" y="1268.34" width="89.1277" height="14.4001" class="st13"/>
			<text x="-139.52" y="1279.14" class="st10">return &#60;status&#62;</text>		</g>
		<g id="shape1068-168" transform="translate(65.2715,-884.997)">
			<title>Asynchronous Message.1501</title>
			<desc>PBH_TABLE|name</desc>
			<path d="M0 1261.37 L189.92 1261.37" class="st5"/>
			<rect x="44.9416" y="1254.17" width="100.038" height="14.4001" class="st13"/>
			<text x="44.94" y="1264.97" class="st8">PBH_TABLE|name</text>		</g>
		<g id="shape1069-175" transform="translate(-1004.76,716.532) rotate(-90)">
			<title>Activation.1503</title>
			<rect x="0" y="1259.95" width="56.6931" height="8.50394" class="st4"/>
		</g>
		<g id="shape1070-177" transform="translate(256.61,-608.619)">
			<title>Self Message.1504</title>
			<desc>process data</desc>
			<path d="M7.09 1268.46 L25.09 1268.46 L25.09 1325.15 L15.57 1325.15" class="st9"/>
			<rect x="21.3488" y="1289.6" width="70.6885" height="14.4001" class="st7"/>
			<text x="21.35" y="1300.4" class="st10">process data</text>		</g>
		<g id="shape1071-184" transform="translate(65.2715,-615.705)">
			<title>Asynchronous Message.1505</title>
			<desc>PBH_HASH|name</desc>
			<path d="M0 1275.54 L189.92 1275.54" class="st5"/>
			<rect x="46.0081" y="1268.34" width="97.9052" height="14.4001" class="st7"/>
			<text x="46.01" y="1279.14" class="st8">PBH_HASH|name</text>		</g>
		<g id="shape1072-191" transform="translate(-1004.76,914.957) rotate(-90)">
			<title>Activation.1506</title>
			<rect x="0" y="1259.95" width="170.079" height="8.50394" class="st4"/>
		</g>
		<g id="shape1073-193" transform="translate(258.736,-523.579)">
			<title>Self Message.1507</title>
			<desc>deletePbhHash</desc>
			<path d="M4.96 1268.46 L27.21 1268.46 L27.21 1296.8 L17.69 1296.8" class="st9"/>
			<rect x="23.883" y="1275.43" width="85.1789" height="14.4001" class="st7"/>
			<text x="23.88" y="1286.23" class="st10">deletePbhHash</text>		</g>
		<g id="shape1074-200" transform="translate(-1000.51,886.61) rotate(-90)">
			<title>Activation.1508</title>
			<rect x="0" y="1259.95" width="113.386" height="8.50394" class="st11"/>
		</g>
		<g id="shape1075-202" transform="translate(267.949,-473.973)">
			<title>Message.1509</title>
			<desc>remove_hash</desc>
			<path d="M0 1275.54 L375.61 1275.54" class="st9"/>
			<rect x="155.168" y="1268.34" width="73.7586" height="14.4001" class="st7"/>
			<text x="155.17" y="1279.14" class="st10">remove_hash</text>		</g>
		<g id="shape1076-209" transform="translate(-607.91,858.264) rotate(-90)">
			<title>Activation.1510</title>
			<rect x="0" y="1259.95" width="56.6929" height="8.50394" class="st4"/>
		</g>
		<g id="shape1077-211" transform="translate(652.043,-403.107)">
			<title>Return Message.1511</title>
			<desc>return &#60;status&#62;</desc>
			<path d="M0 1261.37 L-384.09 1261.37" class="st12"/>
			<rect x="-236.611" y="1254.17" width="89.1277" height="14.4001" class="st7"/>
			<text x="-236.61" y="1264.97" class="st10">return &#60;status&#62;</text>		</g>
		<g id="shape1078-218" transform="translate(-1004.76,999.996) rotate(-90)">
			<title>Activation.1512</title>
			<rect x="0" y="1259.95" width="56.6931" height="8.50394" class="st4"/>
		</g>
		<g id="shape1079-220" transform="translate(256.61,-325.154)">
			<title>Self Message.1513</title>
			<desc>process data</desc>
			<path d="M7.09 1268.46 L25.09 1268.46 L25.09 1325.15 L15.57 1325.15" class="st9"/>
			<rect x="21.3488" y="1289.6" width="70.6885" height="14.4001" class="st7"/>
			<text x="21.35" y="1300.4" class="st10">process data</text>		</g>
		<g id="shape1080-227" transform="translate(65.2715,-318.068)">
			<title>Asynchronous Message.1514</title>
			<desc>PBH_HASH_FIELD|name</desc>
			<path d="M0 1261.37 L189.92 1261.37" class="st5"/>
			<rect x="27.8118" y="1254.17" width="134.298" height="14.4001" class="st7"/>
			<text x="27.81" y="1264.97" class="st8">PBH_HASH_FIELD|name</text>		</g>
		<g id="shape1081-234" transform="translate(-1004.76,1198.42) rotate(-90)">
			<title>Activation.1515</title>
			<rect x="0" y="1259.95" width="170.079" height="8.50394" class="st4"/>
		</g>
		<g id="shape1082-236" transform="translate(258.736,-240.115)">
			<title>Self Message.1516</title>
			<desc>deletePbhHashField</desc>
			<path d="M4.96 1268.46 L27.21 1268.46 L27.21 1296.8 L17.69 1296.8" class="st9"/>
			<rect x="23.9979" y="1275.43" width="112.162" height="14.4001" class="st7"/>
			<text x="24" y="1286.23" class="st10">deletePbhHashField</text>		</g>
		<g id="shape1083-243" transform="translate(-1000.51,1170.07) rotate(-90)">
			<title>Activation.1517</title>
			<rect x="0" y="1259.95" width="113.386" height="8.50394" class="st11"/>
		</g>
		<g id="shape1084-245" transform="translate(267.949,-190.509)">
			<title>Message.1518</title>
			<desc>remove_fine_grained_hash_field</desc>
			<path d="M0 1275.54 L375.61 1275.54" class="st9"/>
			<rect x="102.518" y="1268.34" width="179.058" height="14.4001" class="st7"/>
			<text x="102.52" y="1279.14" class="st10">remove_fine_grained_hash_field</text>		</g>
		<g id="shape1085-252" transform="translate(-607.91,1141.73) rotate(-90)">
			<title>Activation.1519</title>
			<rect x="0" y="1259.95" width="56.6929" height="8.50394" class="st4"/>
		</g>
		<g id="shape1086-254" transform="translate(652.043,-119.642)">
			<title>Return Message.1520</title>
			<desc>return &#60;status&#62;</desc>
			<path d="M0 1261.37 L-384.09 1261.37" class="st12"/>
			<rect x="-236.611" y="1254.17" width="89.1277" height="14.4001" class="st7"/>
			<text x="-236.61" y="1264.97" class="st10">return &#60;status&#62;</text>		</g>
	</g>
</svg>
