<?xml version="1.0" encoding="UTF-8" standalone="no"?>
<!DOCTYPE svg PUBLIC "-//W3C//DTD SVG 1.1//EN" "http://www.w3.org/Graphics/SVG/1.1/DTD/svg11.dtd">
<!-- Generated by Microsoft Visio, SVG Export pbh_swss_design.svg Page-4 -->
<svg xmlns="http://www.w3.org/2000/svg" xmlns:xlink="http://www.w3.org/1999/xlink" xmlns:ev="http://www.w3.org/2001/xml-events"
		width="11.7344in" height="3.86035in" viewBox="0 0 844.874 277.945" xml:space="preserve" color-interpolation-filters="sRGB"
		class="st11">
	<title>pbh swss design</title>

	<style type="text/css">
	<![CDATA[
		.st1 {fill:#5b9bd5;stroke:#000000;stroke-linecap:round;stroke-linejoin:round;stroke-width:1}
		.st2 {fill:#ffffff;font-family:Segoe UI;font-size:0.833336em;font-weight:bold}
		.st3 {fill:#70ad47;stroke:#000000;stroke-linecap:round;stroke-linejoin:round;stroke-width:1}
		.st4 {fill:#ed7d31;stroke:#000000;stroke-linecap:round;stroke-linejoin:round;stroke-width:1}
		.st5 {fill:#ffffff;font-family:Segoe UI;font-size:0.833336em}
		.st6 {marker-end:url(#mrkr4-24);stroke:#000000;stroke-linecap:round;stroke-linejoin:round;stroke-width:2}
		.st7 {fill:#000000;fill-opacity:1;stroke:#000000;stroke-opacity:1;stroke-width:0.38167938931298}
		.st8 {marker-end:url(#mrkr4-55);marker-start:url(#mrkr4-53);stroke:#000000;stroke-linecap:round;stroke-linejoin:round;stroke-width:2}
		.st9 {fill:#000000;fill-opacity:1;stroke:#000000;stroke-opacity:1;stroke-width:0.44247787610619}
		.st10 {fill:#7f7f7f;stroke:#000000;stroke-linecap:round;stroke-linejoin:round;stroke-width:1}
		.st11 {fill:none;fill-rule:evenodd;font-size:12px;overflow:visible;stroke-linecap:square;stroke-miterlimit:3}
	]]>
	</style>

	<defs id="Markers">
		<g id="lend4">
			<path d="M 2 1 L 0 0 L 2 -1 L 2 1 " style="stroke:none"/>
		</g>
		<marker id="mrkr4-24" class="st7" refX="-5.24" orient="auto" markerUnits="strokeWidth" overflow="visible">
			<use xlink:href="#lend4" transform="scale(-2.62,-2.62) "/>
		</marker>
		<marker id="mrkr4-53" class="st9" refX="4.34" orient="auto" markerUnits="strokeWidth" overflow="visible">
			<use xlink:href="#lend4" transform="scale(2.26) "/>
		</marker>
		<marker id="mrkr4-55" class="st9" refX="-4.52" orient="auto" markerUnits="strokeWidth" overflow="visible">
			<use xlink:href="#lend4" transform="scale(-2.26,-2.26) "/>
		</marker>
	</defs>
	<g>
		<title>Page-4</title>
		<g id="group1000-1" transform="translate(18.5,-18.5)">
			<title>Can.1048</title>
			<desc>CONFIG_DB</desc>
			<g id="shape1001-2">
				<title>Sheet.1001</title>
				<path d="M0 253.85 A63.7795 24.0945 -180 1 0 127.56 253.85 L127.56 61.09 L0 61.09 L0 253.85 Z" class="st1"/>
			</g>
			<g id="shape1000-4">
				<ellipse cx="63.7795" cy="61.0945" rx="63.7795" ry="24.0945" class="st1"/>
				<text x="36.21" y="100.47" class="st2">CONFIG_DB</text>			</g>
		</g>
		<g id="shape1002-7" transform="translate(188.579,-18.5)">
			<title>Rounded Rectangle.1050</title>
			<desc>Orchagent</desc>
			<path d="M12.76 277.94 L114.8 277.94 A12.7557 12.7557 -180 0 0 127.56 265.19 L127.56 49.76 A12.7557 12.7557 -180 0 0
						 114.8 37 L12.76 37 A12.7557 12.7557 -180 0 0 0 49.76 L0 265.19 A12.7557 12.7557 -180 0 0 12.76 277.94 Z"
					class="st3"/>
			<text x="33.16" y="64.47" class="st2">ORCHAGENT</text>		</g>
		<g id="shape1003-10" transform="translate(32.6732,-46.8465)">
			<title>Rounded Rectangle.1051</title>
			<desc>PBH_RULE</desc>
			<path d="M9.92 277.94 L89.29 277.94 A9.9211 9.9211 -180 0 0 99.21 268.02 L99.21 259.52 A9.9211 9.9211 -180 0 0 89.29
						 249.6 L9.92 249.6 A9.9211 9.9211 -180 0 0 0 259.52 L0 268.02 A9.9211 9.9211 -180 0 0 9.92 277.94 Z"
					class="st4"/>
			<text x="27.01" y="266.77" class="st5">PBH_RULE</text>		</g>
		<g id="shape1004-13" transform="translate(32.6732,-82.2795)">
			<title>Rounded Rectangle.1052</title>
			<desc>PBH_TABLE</desc>
			<path d="M9.92 277.94 L89.29 277.94 A9.9211 9.9211 -180 0 0 99.21 268.02 L99.21 259.52 A9.9211 9.9211 -180 0 0 89.29
						 249.6 L9.92 249.6 A9.9211 9.9211 -180 0 0 0 259.52 L0 268.02 A9.9211 9.9211 -180 0 0 9.92 277.94 Z"
					class="st4"/>
			<text x="24.72" y="266.77" class="st5">PBH_TABLE</text>		</g>
		<g id="shape1005-16" transform="translate(32.6732,-117.713)">
			<title>Rounded Rectangle.1053</title>
			<desc>PBH_HASH</desc>
			<path d="M9.92 277.94 L89.29 277.94 A9.9211 9.9211 -180 0 0 99.21 268.02 L99.21 259.52 A9.9211 9.9211 -180 0 0 89.29
						 249.6 L9.92 249.6 A9.9211 9.9211 -180 0 0 0 259.52 L0 268.02 A9.9211 9.9211 -180 0 0 9.92 277.94 Z"
					class="st4"/>
			<text x="25.33" y="266.77" class="st5">PBH_HASH</text>		</g>
		<g id="shape1006-19" transform="translate(131.886,-126.467)">
			<title>Dynamic connector.1054</title>
			<path d="M0 272.53 L46.23 269.81" class="st6"/>
		</g>
		<g id="shape1007-25" transform="translate(131.886,-96.4528)">
			<title>Dynamic connector.1055</title>
			<path d="M0 277.94 L46.81 261.42" class="st6"/>
		</g>
		<g id="shape1008-30" transform="translate(131.886,-61.0197)">
			<title>Dynamic connector.1056</title>
			<path d="M0 277.94 L47.89 246.95" class="st6"/>
		</g>
		<g id="group1009-35" transform="translate(358.657,-18.5)">
			<title>Can.1057</title>
			<desc>ASIC_DB</desc>
			<g id="shape1010-36">
				<title>Sheet.1010</title>
				<path d="M0 253.85 A63.7795 24.0945 -180 1 0 127.56 253.85 L127.56 61.09 L0 61.09 L0 253.85 Z" class="st1"/>
			</g>
			<g id="shape1009-38">
				<ellipse cx="63.7795" cy="61.0945" rx="63.7795" ry="24.0945" class="st1"/>
				<text x="43.79" y="160.47" class="st2">ASIC_DB</text>			</g>
		</g>
		<g id="shape1011-41" transform="translate(202.752,-167.319)">
			<title>Rounded Rectangle.1059</title>
			<desc>pbhorch</desc>
			<path d="M9.92 277.94 L89.29 277.94 A9.9211 9.9211 -180 0 0 99.21 268.02 L99.21 245.35 A9.9211 9.9211 -180 0 0 89.29
						 235.43 L9.92 235.43 A9.9211 9.9211 -180 0 0 -0 245.35 L0 268.02 A9.9211 9.9211 -180 0 0 9.92 277.94 Z"
					class="st4"/>
			<text x="31.09" y="259.69" class="st5">pbhorch</text>		</g>
		<g id="shape1012-44" transform="translate(202.752,-68.1063)">
			<title>Rounded Rectangle.1060</title>
			<desc>aclorch</desc>
			<path d="M9.92 277.94 L89.29 277.94 A9.9211 9.9211 -180 0 0 99.21 268.02 L99.21 245.35 A9.9211 9.9211 -180 0 0 89.29
						 235.43 L9.92 235.43 A9.9211 9.9211 -180 0 0 0 245.35 L0 268.02 A9.9211 9.9211 -180 0 0 9.92 277.94 Z"
					class="st4"/>
			<text x="33.73" y="259.69" class="st5">aclorch</text>		</g>
		<g id="shape1013-47" transform="translate(301.965,-188.579)">
			<title>Dynamic connector.1061</title>
			<path d="M8.03 281.25 L8.36 281.39 L48.33 297.85" class="st8"/>
		</g>
		<g id="shape1014-56" transform="translate(301.965,-89.3662)">
			<title>Dynamic connector.1062</title>
			<path d="M8.03 274.64 L8.36 274.5 L48.33 258.04" class="st8"/>
		</g>
		<g id="shape1015-63" transform="translate(528.736,-18.5)">
			<title>Rounded Rectangle.1063</title>
			<desc>SYNCD</desc>
			<path d="M12.76 277.94 L114.8 277.94 A12.7557 12.7557 -180 0 0 127.56 265.19 L127.56 49.76 A12.7557 12.7557 -180 0 0
						 114.8 37 L12.76 37 A12.7557 12.7557 -180 0 0 0 49.76 L0 265.19 A12.7557 12.7557 -180 0 0 12.76 277.94 Z"
					class="st3"/>
			<text x="47.19" y="160.47" class="st2">SYNCD</text>		</g>
		<g id="shape1016-66" transform="translate(486.217,-131.886)">
			<title>Dynamic connector.1064</title>
			<path d="M8.68 270.86 L9.04 270.86 L33.48 270.86" class="st8"/>
		</g>
		<g id="shape1017-73" transform="translate(698.815,-18.5)">
			<title>Rounded Rectangle.1065</title>
			<desc>ASIC</desc>
			<path d="M12.76 277.94 L114.8 277.94 A12.7557 12.7557 -180 0 0 127.56 265.19 L127.56 49.76 A12.7557 12.7557 -180 0 0
						 114.8 37 L12.76 37 A12.7557 12.7557 -180 0 0 0 49.76 L0 265.19 A12.7557 12.7557 -180 0 0 12.76 277.94 Z"
					class="st10"/>
			<text x="52.76" y="160.47" class="st2">ASIC</text>		</g>
		<g id="shape1018-76" transform="translate(656.295,-146.059)">
			<title>Dynamic connector.1066</title>
			<path d="M8.68 285.03 L9.04 285.03 L33.48 285.03" class="st8"/>
		</g>
		<g id="shape1019-83" transform="translate(259.445,-167.319)">
			<title>Dynamic connector.1067</title>
			<path d="M-7.09 286.62 L-7.09 286.98 L-7.09 325.6" class="st8"/>
		</g>
		<g id="shape1020-90" transform="translate(32.6732,-153.146)">
			<title>Rounded Rectangle.1068</title>
			<desc>PBH_HASH_FIELD</desc>
			<path d="M9.92 277.94 L89.29 277.94 A9.9211 9.9211 -180 0 0 99.21 268.02 L99.21 259.52 A9.9211 9.9211 -180 0 0 89.29
						 249.6 L9.92 249.6 A9.9211 9.9211 -180 0 0 0 259.52 L0 268.02 A9.9211 9.9211 -180 0 0 9.92 277.94 Z"
					class="st4"/>
			<text x="11.1" y="266.77" class="st5">PBH_HASH_FIELD</text>		</g>
		<g id="shape1021-93" transform="translate(131.886,-167.736)">
			<title>Dynamic connector.1058</title>
			<path d="M0 278.36 L46.49 289.3" class="st6"/>
		</g>
	</g>
</svg>
