<?xml version="1.0" encoding="UTF-8" standalone="no"?>
<!DOCTYPE svg PUBLIC "-//W3C//DTD SVG 1.1//EN" "http://www.w3.org/Graphics/SVG/1.1/DTD/svg11.dtd">
<!-- Generated by Microsoft Visio, SVG Export pbh_update_flow.svg Page-4 -->
<svg xmlns="http://www.w3.org/2000/svg" xmlns:xlink="http://www.w3.org/1999/xlink" xmlns:ev="http://www.w3.org/2001/xml-events"
		width="9.96271in" height="17.6175in" viewBox="0 0 717.315 1268.46" xml:space="preserve" color-interpolation-filters="sRGB"
		class="st14">
	<title>pbh update flow</title>

	<style type="text/css">
	<![CDATA[
		.st1 {fill:#5b9bd5;stroke:#000000;stroke-linecap:round;stroke-linejoin:round;stroke-width:1}
		.st2 {stroke:#000000;stroke-dasharray:7,5;stroke-linecap:round;stroke-linejoin:round;stroke-width:1}
		.st3 {fill:#ffffff;font-family:Segoe UI;font-size:1.00001em;font-weight:bold}
		.st4 {fill:#af5200;stroke:#a54d00;stroke-linecap:round;stroke-linejoin:round;stroke-width:0.5}
		.st5 {marker-end:url(#mrkr3-62);stroke:#a54d00;stroke-linecap:round;stroke-linejoin:round;stroke-width:1}
		.st6 {fill:#a54d00;fill-opacity:1;stroke:#a54d00;stroke-opacity:1;stroke-width:0.23584905660377}
		.st7 {fill:#ffffff;stroke:none;stroke-linecap:butt;stroke-width:7.2}
		.st8 {fill:#813b00;font-family:Segoe UI;font-size:1.00001em;font-weight:bold}
		.st9 {marker-end:url(#mrkr4-70);stroke:#a54d00;stroke-linecap:round;stroke-linejoin:round;stroke-width:1}
		.st10 {fill:#ffffff;stroke:none;stroke-linecap:butt}
		.st11 {fill:#803a00;font-family:Segoe UI;font-size:1.00001em;font-weight:bold}
		.st12 {marker-end:url(#mrkr3-62);stroke:#a54d00;stroke-dasharray:7,5;stroke-linecap:round;stroke-linejoin:round;stroke-width:1}
		.st13 {fill:#70ad47;stroke:#70ad47;stroke-linecap:round;stroke-linejoin:round;stroke-width:0.5}
		.st14 {fill:none;fill-rule:evenodd;font-size:12px;overflow:visible;stroke-linecap:square;stroke-miterlimit:3}
	]]>
	</style>

	<defs id="Markers">
		<g id="lend3">
			<path d="M 2 1 L 0 0 L 2 -1 " style="stroke-linecap:round;stroke-linejoin:round;fill:none"/>
		</g>
		<marker id="mrkr3-62" class="st6" orient="auto" markerUnits="strokeWidth" overflow="visible">
			<use xlink:href="#lend3" transform="scale(-4.24,-4.24) "/>
		</marker>
		<g id="lend4">
			<path d="M 2 1 L 0 0 L 2 -1 L 2 1 " style="stroke:none"/>
		</g>
		<marker id="mrkr4-70" class="st6" refX="-8.48" orient="auto" markerUnits="strokeWidth" overflow="visible">
			<use xlink:href="#lend4" transform="scale(-4.24,-4.24) "/>
		</marker>
	</defs>
	<g>
		<title>Page-4</title>
		<g id="group1174-1" transform="translate(18.5,-1203.89)">
			<title>Actor lifeline.1378</title>
			<desc>ConfigDB</desc>
			<g id="shape1175-2" transform="translate(17.0079,-8.50394)">
				<title>Sheet.1175</title>
				<rect x="0" y="1242.95" width="51.0236" height="25.5118" class="st1"/>
			</g>
			<g id="shape1176-4" transform="translate(34.0157,-46.063)">
				<title>Sheet.1176</title>
				<path d="M8.5 1268.46 a6.99441E-15 0 0 1 1 -1.42109E-14 0 a6.99441E-15 0 0 1 1 1.42109E-14 0 Z" class="st1"/>
			</g>
			<g id="shape1177-6" transform="translate(28.3465,1185.89)">
				<title>Sheet.1177</title>
			</g>
			<g id="shape1178-8" transform="translate(1310.98,1268.46) rotate(90)">
				<title>Sheet.1178</title>
				<path d="M0 1268.46 L1162.2 1268.46" class="st2"/>
			</g>
			<g id="shape1174-11">
				<rect x="0" y="1225.94" width="85.0394" height="42.5197" class="st1"/>
				<text x="15.49" y="1250.8" class="st3">ConfigDB</text>			</g>
		</g>
		<g id="group1179-14" transform="translate(216.925,-1203.89)">
			<title>Object lifeline.1383</title>
			<desc>PbhOrch</desc>
			<g id="shape1180-15" transform="translate(17.0079,-8.50394)">
				<title>Sheet.1180</title>
				<rect x="0" y="1242.95" width="51.0236" height="25.5118" class="st1"/>
			</g>
			<g id="shape1181-17" transform="translate(34.0157,-46.063)">
				<title>Sheet.1181</title>
				<path d="M8.5 1268.46 a0 0 0 1 1 0 0 a0 0 0 1 1 0 0 Z" class="st1"/>
			</g>
			<g id="shape1182-19" transform="translate(28.3465,1185.89)">
				<title>Sheet.1182</title>
			</g>
			<g id="shape1183-21" transform="translate(1310.98,1268.46) rotate(90)">
				<title>Sheet.1183</title>
				<path d="M0 1268.46 L1162.2 1268.46" class="st2"/>
			</g>
			<g id="shape1179-24">
				<rect x="0" y="1225.94" width="85.0394" height="42.5197" class="st1"/>
				<text x="18.07" y="1250.8" class="st3">PbhOrch</text>			</g>
		</g>
		<g id="group1184-27" transform="translate(415.35,-1203.89)">
			<title>Object lifeline.1388</title>
			<desc>AclOrch</desc>
			<g id="shape1185-28" transform="translate(17.0079,-8.50394)">
				<title>Sheet.1185</title>
				<rect x="0" y="1242.95" width="51.0236" height="25.5118" class="st1"/>
			</g>
			<g id="shape1186-30" transform="translate(34.0157,-46.063)">
				<title>Sheet.1186</title>
				<path d="M8.5 1268.46 a0 0 0 1 1 0 0 a0 0 0 1 1 0 0 Z" class="st1"/>
			</g>
			<g id="shape1187-32" transform="translate(28.3465,1185.89)">
				<title>Sheet.1187</title>
			</g>
			<g id="shape1188-34" transform="translate(1310.98,1268.46) rotate(90)">
				<title>Sheet.1188</title>
				<path d="M0 1268.46 L1162.2 1268.46" class="st2"/>
			</g>
			<g id="shape1184-37">
				<rect x="0" y="1225.94" width="85.0394" height="42.5197" class="st1"/>
				<text x="20.29" y="1250.8" class="st3">AclOrch</text>			</g>
		</g>
		<g id="group1189-40" transform="translate(613.775,-1203.89)">
			<title>Object lifeline.1393</title>
			<desc>SAI</desc>
			<g id="shape1190-41" transform="translate(17.0079,-8.50394)">
				<title>Sheet.1190</title>
				<rect x="0" y="1242.95" width="51.0236" height="25.5118" class="st1"/>
			</g>
			<g id="shape1191-43" transform="translate(34.0157,-46.063)">
				<title>Sheet.1191</title>
				<path d="M8.5 1268.46 a0 0 0 1 1 0 0 a0 0 0 1 1 0 0 Z" class="st1"/>
			</g>
			<g id="shape1192-45" transform="translate(28.3465,1185.89)">
				<title>Sheet.1192</title>
			</g>
			<g id="shape1193-47" transform="translate(1310.98,1268.46) rotate(90)">
				<title>Sheet.1193</title>
				<path d="M0 1268.46 L1162.2 1268.46" class="st2"/>
			</g>
			<g id="shape1189-50">
				<rect x="0" y="1225.94" width="85.0394" height="42.5197" class="st1"/>
				<text x="33.04" y="1250.8" class="st3">SAI</text>			</g>
		</g>
		<g id="shape1194-53" transform="translate(-1004.76,433.067) rotate(-90)">
			<title>Activation.1398</title>
			<rect x="0" y="1259.95" width="56.6931" height="8.50394" class="st4"/>
		</g>
		<g id="shape1195-55" transform="translate(-1203.19,943.303) rotate(-90)">
			<title>Activation.1399</title>
			<rect x="0" y="1259.95" width="850.394" height="8.50394" class="st4"/>
		</g>
		<g id="shape1196-57" transform="translate(65.2715,-1182.63)">
			<title>Asynchronous Message.1400</title>
			<desc>PBH_HASH_FIELD|name</desc>
			<path d="M0 1275.54 L189.92 1275.54" class="st5"/>
			<rect x="27.8118" y="1268.34" width="134.298" height="14.4001" class="st7"/>
			<text x="27.81" y="1279.14" class="st8">PBH_HASH_FIELD|name</text>		</g>
		<g id="shape1197-65" transform="translate(256.61,-892.083)">
			<title>Self Message.1401</title>
			<desc>process data</desc>
			<path d="M7.09 1268.46 L25.09 1268.46 L25.09 1325.15 L15.57 1325.15" class="st9"/>
			<rect x="21.3488" y="1289.6" width="70.6885" height="14.4001" class="st10"/>
			<text x="21.35" y="1300.4" class="st11">process data</text>		</g>
		<g id="shape1198-73" transform="translate(65.2715,-601.532)">
			<title>Asynchronous Message.1402</title>
			<desc>PBH_TABLE|name</desc>
			<path d="M0 1261.37 L189.92 1261.37" class="st5"/>
			<rect x="44.9417" y="1254.17" width="100.038" height="14.4001" class="st10"/>
			<text x="44.94" y="1264.97" class="st8">PBH_TABLE|name</text>		</g>
		<g id="shape1199-80" transform="translate(267.949,-459.8)">
			<title>Message.1412</title>
			<desc>updateAclTable</desc>
			<path d="M0 1261.37 L177.19 1261.37" class="st9"/>
			<rect x="48.7393" y="1254.17" width="88.1908" height="14.4001" class="st10"/>
			<text x="48.74" y="1264.97" class="st11">updateAclTable</text>		</g>
		<g id="shape1200-87" transform="translate(-806.335,858.264) rotate(-90)">
			<title>Activation.1413</title>
			<rect x="0" y="1259.95" width="56.6929" height="8.50394" class="st4"/>
		</g>
		<g id="shape1201-89" transform="translate(453.618,-417.28)">
			<title>Return Message.1414</title>
			<desc>return &#60;result&#62;</desc>
			<path d="M0 1275.54 L-185.67 1275.54" class="st12"/>
			<rect x="-136.534" y="1268.34" width="87.3993" height="14.4001" class="st7"/>
			<text x="-136.53" y="1279.14" class="st11">return &#60;result&#62;</text>		</g>
		<g id="shape1202-96" transform="translate(462.122,-459.8)">
			<title>Message.1418</title>
			<desc>set_acl_table_attribute</desc>
			<path d="M0 1261.37 L181.44 1261.37" class="st9"/>
			<rect x="32.2968" y="1254.17" width="125.328" height="14.4001" class="st7"/>
			<text x="32.3" y="1264.97" class="st11">set_acl_table_attribute</text>		</g>
		<g id="shape1203-103" transform="translate(652.043,-417.28)">
			<title>Return Message.1419</title>
			<desc>return &#60;status&#62;</desc>
			<path d="M0 1275.54 L-189.92 1275.54" class="st12"/>
			<rect x="-139.524" y="1268.34" width="89.1277" height="14.4001" class="st7"/>
			<text x="-139.52" y="1279.14" class="st11">return &#60;status&#62;</text>		</g>
		<g id="shape1204-110" transform="translate(-1004.76,149.603) rotate(-90)">
			<title>Activation.1430</title>
			<rect x="0" y="1259.95" width="56.6931" height="8.50394" class="st4"/>
		</g>
		<g id="shape1205-112" transform="translate(256.61,-1175.55)">
			<title>Self Message.1431</title>
			<desc>process data</desc>
			<path d="M7.09 1268.46 L25.09 1268.46 L25.09 1325.15 L15.57 1325.15" class="st9"/>
			<rect x="21.3488" y="1289.6" width="70.6885" height="14.4001" class="st7"/>
			<text x="21.35" y="1300.4" class="st11">process data</text>		</g>
		<g id="shape1206-119" transform="translate(-1004.76,348.028) rotate(-90)">
			<title>Activation.1452</title>
			<rect x="0" y="1259.95" width="170.079" height="8.50394" class="st4"/>
		</g>
		<g id="shape1207-121" transform="translate(258.736,-1090.51)">
			<title>Self Message.1453</title>
			<desc>updatePbhHashField</desc>
			<path d="M4.96 1268.46 L27.21 1268.46 L27.21 1296.8 L17.69 1296.8" class="st9"/>
			<rect x="23.8839" y="1275.43" width="116.925" height="14.4001" class="st7"/>
			<text x="23.88" y="1286.23" class="st11">updatePbhHashField</text>		</g>
		<g id="shape1208-128" transform="translate(-1000.51,319.681) rotate(-90)">
			<title>Activation.1451</title>
			<rect x="0" y="1259.95" width="113.386" height="8.50394" class="st13"/>
		</g>
		<g id="shape1209-130" transform="translate(267.949,-1026.73)">
			<title>Message.1455</title>
			<desc>set_fine_grained_hash_field_attribute</desc>
			<path d="M0 1261.37 L375.61 1261.37" class="st9"/>
			<rect x="88.1801" y="1254.17" width="207.734" height="14.4001" class="st10"/>
			<text x="88.18" y="1264.97" class="st11">set_fine_grained_hash_field_attribute</text>		</g>
		<g id="shape1210-137" transform="translate(-607.91,291.335) rotate(-90)">
			<title>Activation.1456</title>
			<rect x="0" y="1259.95" width="56.6929" height="8.50394" class="st4"/>
		</g>
		<g id="shape1211-139" transform="translate(652.043,-970.036)">
			<title>Return Message.1457</title>
			<desc>return &#60;status&#62;</desc>
			<path d="M0 1261.37 L-384.09 1261.37" class="st12"/>
			<rect x="-236.611" y="1254.17" width="89.1277" height="14.4001" class="st7"/>
			<text x="-236.61" y="1264.97" class="st11">return &#60;status&#62;</text>		</g>
		<g id="shape1212-146" transform="translate(65.2715,-884.997)">
			<title>Asynchronous Message.1458</title>
			<desc>PBH_HASH|name</desc>
			<path d="M0 1261.37 L189.92 1261.37" class="st5"/>
			<rect x="46.0082" y="1254.17" width="97.9052" height="14.4001" class="st10"/>
			<text x="46.01" y="1264.97" class="st8">PBH_HASH|name</text>		</g>
		<g id="shape1213-153" transform="translate(-1004.76,631.492) rotate(-90)">
			<title>Activation.1459</title>
			<rect x="0" y="1259.95" width="170.079" height="8.50394" class="st4"/>
		</g>
		<g id="shape1214-155" transform="translate(258.736,-807.044)">
			<title>Self Message.1460</title>
			<desc>updatePbhHash</desc>
			<path d="M4.96 1268.46 L27.21 1268.46 L27.21 1296.8 L17.69 1296.8" class="st9"/>
			<rect x="23.7688" y="1275.43" width="89.9426" height="14.4001" class="st7"/>
			<text x="23.77" y="1286.23" class="st11">updatePbhHash</text>		</g>
		<g id="shape1215-162" transform="translate(-1000.51,603.146) rotate(-90)">
			<title>Activation.1461</title>
			<rect x="0" y="1259.95" width="113.386" height="8.50394" class="st13"/>
		</g>
		<g id="shape1216-164" transform="translate(267.949,-743.264)">
			<title>Message.1462</title>
			<desc>set_hash_attribute</desc>
			<path d="M0 1261.37 L375.61 1261.37" class="st9"/>
			<rect x="140.83" y="1254.17" width="102.435" height="14.4001" class="st7"/>
			<text x="140.83" y="1264.97" class="st11">set_hash_attribute</text>		</g>
		<g id="shape1217-171" transform="translate(-607.91,574.799) rotate(-90)">
			<title>Activation.1463</title>
			<rect x="0" y="1259.95" width="56.6929" height="8.50394" class="st4"/>
		</g>
		<g id="shape1218-173" transform="translate(652.043,-686.571)">
			<title>Return Message.1464</title>
			<desc>return &#60;status&#62;</desc>
			<path d="M0 1261.37 L-384.09 1261.37" class="st12"/>
			<rect x="-236.611" y="1254.17" width="89.1277" height="14.4001" class="st7"/>
			<text x="-236.61" y="1264.97" class="st11">return &#60;status&#62;</text>		</g>
		<g id="shape1219-180" transform="translate(65.2715,-318.068)">
			<title>Asynchronous Message.1466</title>
			<desc>PBH_RULE|name</desc>
			<path d="M0 1261.37 L189.92 1261.37" class="st5"/>
			<rect x="48.2668" y="1254.17" width="93.3879" height="14.4001" class="st10"/>
			<text x="48.27" y="1264.97" class="st8">PBH_RULE|name</text>		</g>
		<g id="shape1220-187" transform="translate(263.697,-190.508)">
			<title>Message.1469</title>
			<desc>updateAclRule</desc>
			<path d="M0 1275.54 L181.44 1275.54" class="st9"/>
			<rect x="53.7834" y="1268.34" width="82.3546" height="14.4001" class="st7"/>
			<text x="53.78" y="1279.14" class="st11">updateAclRule</text>		</g>
		<g id="shape1221-194" transform="translate(-806.335,1141.73) rotate(-90)">
			<title>Activation.1470</title>
			<rect x="0" y="1259.95" width="56.6929" height="8.50394" class="st4"/>
		</g>
		<g id="shape1222-196" transform="translate(453.618,-119.642)">
			<title>Return Message.1471</title>
			<desc>return &#60;result&#62;</desc>
			<path d="M0 1261.37 L-189.92 1261.37" class="st12"/>
			<rect x="-138.66" y="1254.17" width="87.3993" height="14.4001" class="st10"/>
			<text x="-138.66" y="1264.97" class="st11">return &#60;result&#62;</text>		</g>
		<g id="shape1223-203" transform="translate(462.122,-176.335)">
			<title>Message.1472</title>
			<desc>set_acl_entry_attribute</desc>
			<path d="M0 1261.37 L181.44 1261.37" class="st9"/>
			<rect x="31.705" y="1254.17" width="126.511" height="14.4001" class="st7"/>
			<text x="31.71" y="1264.97" class="st11">set_acl_entry_attribute</text>		</g>
		<g id="shape1224-210" transform="translate(652.043,-133.816)">
			<title>Return Message.1473</title>
			<desc>return &#60;status&#62;</desc>
			<path d="M0 1275.54 L-189.92 1275.54" class="st12"/>
			<rect x="-139.524" y="1268.34" width="89.1277" height="14.4001" class="st7"/>
			<text x="-139.52" y="1279.14" class="st11">return &#60;status&#62;</text>		</g>
		<g id="shape1225-217" transform="translate(-1004.76,716.532) rotate(-90)">
			<title>Activation.1565</title>
			<rect x="0" y="1259.95" width="56.6931" height="8.50394" class="st4"/>
		</g>
		<g id="shape1226-219" transform="translate(256.61,-608.619)">
			<title>Self Message.1566</title>
			<desc>process data</desc>
			<path d="M7.09 1268.46 L25.09 1268.46 L25.09 1325.15 L15.57 1325.15" class="st9"/>
			<rect x="21.3488" y="1289.6" width="70.6885" height="14.4001" class="st7"/>
			<text x="21.35" y="1300.4" class="st11">process data</text>		</g>
		<g id="shape1227-226" transform="translate(-1004.76,914.957) rotate(-90)">
			<title>Activation.1567</title>
			<rect x="0" y="1259.95" width="170.079" height="8.50394" class="st4"/>
		</g>
		<g id="shape1228-228" transform="translate(258.736,-523.579)">
			<title>Self Message.1568</title>
			<desc>updatePbhTable</desc>
			<path d="M4.96 1268.46 L27.21 1268.46 L27.21 1296.8 L17.69 1296.8" class="st9"/>
			<rect x="23.847" y="1275.43" width="92.6208" height="14.4001" class="st7"/>
			<text x="23.85" y="1286.23" class="st11">updatePbhTable</text>		</g>
		<g id="shape1229-235" transform="translate(-1000.51,886.61) rotate(-90)">
			<title>Activation.1569</title>
			<rect x="0" y="1259.95" width="113.386" height="8.50394" class="st13"/>
		</g>
		<g id="shape1230-237" transform="translate(-607.91,858.264) rotate(-90)">
			<title>Activation.1673</title>
			<rect x="0" y="1259.95" width="56.6929" height="8.50394" class="st4"/>
		</g>
		<g id="shape1231-239" transform="translate(-1004.76,999.996) rotate(-90)">
			<title>Activation.1573</title>
			<rect x="0" y="1259.95" width="56.6931" height="8.50394" class="st4"/>
		</g>
		<g id="shape1232-241" transform="translate(256.61,-325.154)">
			<title>Self Message.1675</title>
			<desc>process data</desc>
			<path d="M7.09 1268.46 L25.09 1268.46 L25.09 1325.15 L15.57 1325.15" class="st9"/>
			<rect x="21.3488" y="1289.6" width="70.6885" height="14.4001" class="st10"/>
			<text x="21.35" y="1300.4" class="st11">process data</text>		</g>
		<g id="shape1233-248" transform="translate(-1004.76,1198.42) rotate(-90)">
			<title>Activation.1575</title>
			<rect x="0" y="1259.95" width="170.079" height="8.50394" class="st4"/>
		</g>
		<g id="shape1234-250" transform="translate(258.736,-240.115)">
			<title>Self Message.1576</title>
			<desc>updatePbhRule</desc>
			<path d="M4.96 1268.46 L27.21 1268.46 L27.21 1296.8 L17.69 1296.8" class="st9"/>
			<rect x="23.9305" y="1275.43" width="86.7846" height="14.4001" class="st7"/>
			<text x="23.93" y="1286.23" class="st11">updatePbhRule</text>		</g>
		<g id="shape1235-257" transform="translate(-1000.51,1170.07) rotate(-90)">
			<title>Activation.1577</title>
			<rect x="0" y="1259.95" width="113.386" height="8.50394" class="st13"/>
		</g>
		<g id="shape1236-259" transform="translate(-607.91,1141.73) rotate(-90)">
			<title>Activation.1579</title>
			<rect x="0" y="1259.95" width="56.6929" height="8.50394" class="st4"/>
		</g>
	</g>
</svg>
