<?xml version="1.0" encoding="UTF-8" standalone="no"?>
<!DOCTYPE svg PUBLIC "-//W3C//DTD SVG 1.1//EN" "http://www.w3.org/Graphics/SVG/1.1/DTD/svg11.dtd">
<!-- Generated by Microsoft Visio, SVG Export dpu_firmware_apis_hld.svg Page-1 -->
<svg xmlns="http://www.w3.org/2000/svg" xmlns:xlink="http://www.w3.org/1999/xlink" xmlns:ev="http://www.w3.org/2001/xml-events"
		xmlns:v="http://schemas.microsoft.com/visio/2003/SVGExtensions/" width="6.62801in" height="7.1756in"
		viewBox="0 0 477.217 516.643" xml:space="preserve" color-interpolation-filters="sRGB" class="st15">
	<v:documentProperties v:langID="1033" v:viewMarkup="false"/>

	<style type="text/css">
	<![CDATA[
		.st1 {fill:#4672c4;stroke:#c7c8c8;stroke-width:0.25}
		.st2 {stroke:#4672c4;stroke-dasharray:7,5;stroke-linecap:round;stroke-linejoin:round;stroke-width:1}
		.st3 {fill:#feffff;font-family:Calibri;font-size:0.666664em;font-weight:bold}
		.st4 {fill:#718bcc;stroke:#718bcc;stroke-linecap:round;stroke-linejoin:round;stroke-width:0.25}
		.st5 {fill:#4672c4;stroke:#4672c4;stroke-linecap:round;stroke-linejoin:round;stroke-width:1}
		.st6 {marker-end:url(#mrkr3-40);stroke:#4672c4;stroke-dasharray:7,5;stroke-linecap:round;stroke-linejoin:round;stroke-width:1}
		.st7 {fill:#4672c4;fill-opacity:1;stroke:#4672c4;stroke-opacity:1;stroke-width:0.23584905660377}
		.st8 {fill:none;stroke:none;stroke-width:0.25}
		.st9 {fill:#4672c4;font-family:Calibri;font-size:0.666664em}
		.st10 {font-size:1em}
		.st11 {marker-end:url(#mrkr4-52);stroke:#4672c4;stroke-linecap:round;stroke-linejoin:round;stroke-width:1}
		.st12 {fill:#ffffff;stroke:none;stroke-linecap:butt;stroke-width:7.2}
		.st13 {fill:#3d64ac;font-family:Calibri;font-size:0.666664em}
		.st14 {fill:#ffffff;stroke:none;stroke-linecap:butt}
		.st15 {fill:none;fill-rule:evenodd;font-size:12px;overflow:visible;stroke-linecap:square;stroke-miterlimit:3}
	]]>
	</style>

	<defs id="Markers">
		<g id="lend3">
			<path d="M 2 1 L 0 0 L 2 -1 " style="stroke-linecap:round;stroke-linejoin:round;fill:none"/>
		</g>
		<marker id="mrkr3-40" class="st7" v:arrowType="3" v:arrowSize="3" orient="auto" markerUnits="strokeWidth"
				overflow="visible">
			<use xlink:href="#lend3" transform="scale(-4.24,-4.24) "/>
		</marker>
		<g id="lend4">
			<path d="M 2 1 L 0 0 L 2 -1 L 2 1 " style="stroke:none"/>
		</g>
		<marker id="mrkr4-52" class="st7" v:arrowType="4" v:arrowSize="3" v:setback="8.48" refX="-8.48" orient="auto"
				markerUnits="strokeWidth" overflow="visible">
			<use xlink:href="#lend4" transform="scale(-4.24,-4.24) "/>
		</marker>
	</defs>
	<g v:mID="0" v:index="1" v:groupContext="foregroundPage">
		<title>Page-1</title>
		<v:pageProperties v:drawingScale="1" v:pageScale="1" v:drawingUnits="19" v:shadowOffsetX="8.50394"
				v:shadowOffsetY="-8.50394"/>
		<v:layer v:name="Common Icons" v:index="0"/>
		<v:layer v:name="Connector" v:index="1"/>
		<g id="group1-1" transform="translate(144.628,-461.101)" v:mID="1" v:groupContext="group">
			<v:userDefs>
				<v:ud v:nameU="visVersion" v:prompt="" v:val="VT0(15):26"/>
				<v:ud v:nameU="ShowActor" v:prompt="" v:val="VT0(0):5"/>
				<v:ud v:nameU="ShowDestruction" v:prompt="" v:val="VT0(0):5"/>
			</v:userDefs>
			<title>Object lifeline.415</title>
			<desc>GNOI/GNMI Server</desc>
			<g id="shape2-2" v:mID="2" v:groupContext="shape" transform="translate(17.0079,0)">
				<title>Sheet.2</title>
				<rect x="0" y="491.131" width="51.0236" height="25.5118" class="st1"/>
			</g>
			<g id="shape3-4" v:mID="3" v:groupContext="shape" transform="translate(34.0157,-29.0551)">
				<title>Sheet.3</title>
				<path d="M8.5 516.64 a0 0 0 1 1 0 0 a0 0 0 1 1 0 0 Z" class="st1"/>
			</g>
			<g id="shape4-6" v:mID="4" v:groupContext="shape" transform="translate(28.3465,459.967)">
				<title>Sheet.4</title>
			</g>
			<g id="shape5-8" v:mID="5" v:groupContext="shape" transform="translate(559.163,516.643) rotate(90)">
				<title>Sheet.5</title>
				<path d="M0 516.64 L442.35 516.64" class="st2"/>
			</g>
			<g id="shape1-11" v:mID="1" v:groupContext="groupContent">
				<v:textBlock v:margins="rect(4,4,4,4)" v:tabSpace="42.5197"/>
				<v:textRect cx="42.5197" cy="503.887" width="85.04" height="25.5118"/>
				<rect x="0" y="491.131" width="85.0394" height="25.5118" class="st1"/>
				<text x="10.54" y="506.29" class="st3" v:langID="1033"><v:paragraph v:horizAlign="1"/><v:tabList/>GNOI/GNMI Server</text>			</g>
		</g>
		<g id="group6-14" transform="translate(175.148,-490.203)" v:mID="6" v:groupContext="group" v:layerMember="0">
			<v:userDefs>
				<v:ud v:nameU="visVersion" v:prompt="" v:val="VT0(17):26"/>
				<v:ud v:nameU="visAltText" v:prompt="" v:val="VT4(Script)"/>
				<v:ud v:nameU="visAltDescription" v:prompt="" v:val="VT4(Script Icon.)"/>
				<v:ud v:nameU="Font" v:prompt="" v:val="VT0(243):26"/>
			</v:userDefs>
			<title>Script.420</title>
			<g id="shape7-15" v:mID="7" v:groupContext="shape" v:layerMember="0">
				<title>Sheet.7</title>
				<path d="M21.88 513.82 C21.88 514.21 21.56 514.53 21.18 514.53 C20.79 514.53 20.47 514.21 20.47 513.82 L20.47 496.88
							 L21.88 496.88 L21.88 513.82 ZM2.82 514.53 C2.44 514.53 2.12 514.21 2.12 513.82 L2.12 494.76 L18.35 494.76
							 L18.35 513.82 C18.35 514.07 18.39 514.31 18.46 514.53 L2.82 514.53 ZM20.47 494.76 L20.47 492.64 L0 492.64
							 L0 513.82 C0 515.37 1.27 516.64 2.82 516.64 L21.18 516.64 C22.73 516.64 24 515.37 24 513.82 L24 494.76
							 L20.47 494.76 Z" class="st4"/>
			</g>
			<g id="shape8-17" v:mID="8" v:groupContext="shape" v:layerMember="0" transform="translate(3.52941,-18.3529)">
				<title>Sheet.8</title>
				<rect x="0" y="515.231" width="13.4118" height="1.41176" class="st4"/>
			</g>
			<g id="shape9-19" v:mID="9" v:groupContext="shape" v:layerMember="0" transform="translate(10.9412,-15.5294)">
				<title>Sheet.9</title>
				<rect x="0" y="515.231" width="6" height="1.41176" class="st4"/>
			</g>
			<g id="shape10-21" v:mID="10" v:groupContext="shape" v:layerMember="0" transform="translate(10.9412,-12.7059)">
				<title>Sheet.10</title>
				<rect x="0" y="515.231" width="6" height="1.41176" class="st4"/>
			</g>
			<g id="shape11-23" v:mID="11" v:groupContext="shape" v:layerMember="0" transform="translate(3.52941,-12.7059)">
				<title>Sheet.11</title>
				<rect x="0" y="512.408" width="6" height="4.23529" class="st4"/>
			</g>
			<g id="shape12-25" v:mID="12" v:groupContext="shape" v:layerMember="0" transform="translate(3.52941,-9.88235)">
				<title>Sheet.12</title>
				<rect x="0" y="515.231" width="13.4118" height="1.41176" class="st4"/>
			</g>
			<g id="shape13-27" v:mID="13" v:groupContext="shape" v:layerMember="0" transform="translate(10.9412,-4.23529)">
				<title>Sheet.13</title>
				<rect x="0" y="512.408" width="6" height="4.23529" class="st4"/>
			</g>
			<g id="shape14-29" v:mID="14" v:groupContext="shape" v:layerMember="0" transform="translate(3.52941,-7.05882)">
				<title>Sheet.14</title>
				<rect x="0" y="515.231" width="6" height="1.41176" class="st4"/>
			</g>
			<g id="shape15-31" v:mID="15" v:groupContext="shape" v:layerMember="0" transform="translate(3.52941,-4.23529)">
				<title>Sheet.15</title>
				<rect x="0" y="515.231" width="6" height="1.41176" class="st4"/>
			</g>
		</g>
		<g id="shape16-33" v:mID="16" v:groupContext="shape" transform="translate(-325.94,91.878) rotate(-90)">
			<title>Activation.430</title>
			<v:userDefs>
				<v:ud v:nameU="visVersion" v:prompt="" v:val="VT0(15):26"/>
			</v:userDefs>
			<rect x="0" y="508.139" width="22.4583" height="8.50394" class="st5"/>
		</g>
		<g id="shape17-35" v:mID="17" v:groupContext="shape" v:layerMember="1" transform="translate(182.199,-437.403)">
			<title>Return Message.431</title>
			<v:userDefs>
				<v:ud v:nameU="IsReturn" v:prompt="" v:val="VT0(1):5"/>
				<v:ud v:nameU="IsAsync" v:prompt="" v:val="VT0(0):5"/>
				<v:ud v:nameU="IsSelfMessage" v:prompt="" v:val="VT0(0):5"/>
				<v:ud v:nameU="visVersion" v:prompt="" v:val="VT0(15):26"/>
			</v:userDefs>
			<path d="M0 524.82 L-144.14 526.46" class="st6"/>
		</g>
		<g id="shape18-41" v:mID="18" v:groupContext="shape" transform="translate(-325.243,247.595) rotate(-90)">
			<title>Activation.432</title>
			<v:userDefs>
				<v:ud v:nameU="visVersion" v:prompt="" v:val="VT0(15):26"/>
			</v:userDefs>
			<rect x="0" y="508.139" width="107.706" height="8.50394" class="st5"/>
		</g>
		<g id="shape19-43" v:mID="19" v:groupContext="shape" transform="translate(216.439,-356.077)">
			<title>Sheet.19</title>
			<desc>Download firmware from URL</desc>
			<v:textBlock v:margins="rect(0,0,0,0)"/>
			<v:textRect cx="37.1339" cy="512.643" width="74.27" height="8"/>
			<rect x="0" y="508.643" width="74.2677" height="8" class="st8"/>
			<text x="4.77" y="510.24" class="st9" v:langID="1033"><v:paragraph v:horizAlign="1"/><v:tabList/>Download firmware <tspan
						x="21.89" dy="1.2em" class="st10">from URL</tspan></text>		</g>
		<g id="shape20-47" v:mID="20" v:groupContext="shape" v:layerMember="1" transform="translate(28.8588,-419.205)">
			<title>Self Message.435</title>
			<v:userDefs>
				<v:ud v:nameU="IsReturn" v:prompt="" v:val="VT0(0):5"/>
				<v:ud v:nameU="IsAsync" v:prompt="" v:val="VT0(0):26"/>
				<v:ud v:nameU="IsSelfMessage" v:prompt="" v:val="VT0(1):5"/>
				<v:ud v:nameU="visVersion" v:prompt="" v:val="VT0(15):26"/>
			</v:userDefs>
			<path d="M8.8 516.64 L27.2 516.64 L27.2 544.27 L17.68 544.27" class="st11"/>
		</g>
		<g id="shape21-53" v:mID="21" v:groupContext="shape" transform="translate(60.0063,-397.935)">
			<title>Sheet.21</title>
			<desc>If DPU firmware != target version, need to upgrade</desc>
			<v:textBlock v:margins="rect(0,0,0,0)"/>
			<v:textRect cx="37.1339" cy="512.643" width="74.27" height="8"/>
			<rect x="0" y="508.643" width="74.2677" height="8" class="st8"/>
			<text x="6.92" y="505.44" class="st9" v:langID="1033"><v:paragraph v:horizAlign="1"/><v:tabList/>If DPU firmware != <tspan
						x="0.04" dy="1.2em" class="st10">target version, need to </tspan><tspan x="23.65" dy="1.2em" class="st10">upgrade</tspan></text>		</g>
		<g id="group22-58" transform="translate(0.25,-460.35)" v:mID="22" v:groupContext="group">
			<v:userDefs>
				<v:ud v:nameU="visVersion" v:prompt="" v:val="VT0(15):26"/>
				<v:ud v:nameU="ShowActor" v:prompt="" v:val="VT0(0):5"/>
				<v:ud v:nameU="ShowDestruction" v:prompt="" v:val="VT0(0):5"/>
			</v:userDefs>
			<title>Object lifeline.437</title>
			<desc>GNMI/GNOI client</desc>
			<g id="shape23-59" v:mID="23" v:groupContext="shape" transform="translate(8.50394,0)">
				<title>Sheet.23</title>
				<rect x="0" y="491.131" width="51.0236" height="25.5118" class="st1"/>
			</g>
			<g id="shape24-61" v:mID="24" v:groupContext="shape" transform="translate(25.5118,-29.0551)">
				<title>Sheet.24</title>
				<path d="M8.5 516.64 a0 0 0 1 1 0 0 a0 0 0 1 1 0 0 Z" class="st1"/>
			</g>
			<g id="shape25-63" v:mID="25" v:groupContext="shape" transform="translate(22.6772,457.232)">
				<title>Sheet.25</title>
			</g>
			<g id="shape26-65" v:mID="26" v:groupContext="shape" transform="translate(550.659,516.643) rotate(90)">
				<title>Sheet.26</title>
				<path d="M0 516.64 L439.62 516.64" class="st2"/>
			</g>
			<g id="shape22-68" v:mID="22" v:groupContext="groupContent">
				<v:textBlock v:margins="rect(4,4,4,4)" v:tabSpace="42.5197"/>
				<v:textRect cx="34.0157" cy="503.887" width="68.04" height="25.5118"/>
				<rect x="0" y="491.131" width="68.0315" height="25.5118" class="st1"/>
				<text x="13.6" y="501.49" class="st3" v:langID="2052"><v:paragraph v:horizAlign="1"/><v:tabList/>GNMI<tspan
							class="st10" v:langID="1033">/GNOI</tspan> <tspan x="24.83" dy="1.2em" class="st10">client</tspan></text>			</g>
		</g>
		<g id="group27-73" transform="translate(22.7657,-489.452)" v:mID="27" v:groupContext="group" v:layerMember="0">
			<v:userDefs>
				<v:ud v:nameU="visVersion" v:prompt="" v:val="VT0(17):26"/>
				<v:ud v:nameU="visAltText" v:prompt="" v:val="VT4(User)"/>
				<v:ud v:nameU="visAltDescription" v:prompt="" v:val="VT4(User Icon.)"/>
				<v:ud v:nameU="Font" v:prompt="" v:val="VT0(243):26"/>
			</v:userDefs>
			<title>User.442</title>
			<g id="group28-74" v:mID="28" v:groupContext="group" v:layerMember="0">
				<title>Sheet.28</title>
				<g id="shape29-75" v:mID="29" v:groupContext="shape" v:layerMember="0" transform="translate(5.75,-12.7059)">
					<title>Sheet.29</title>
					<ellipse cx="5.75" cy="510.996" rx="5.75" ry="5.64706" class="st4"/>
				</g>
				<g id="shape30-77" v:mID="30" v:groupContext="shape" v:layerMember="0">
					<title>Sheet.30</title>
					<path d="M23 516.64 L23 511 C23 510.15 22.57 509.3 21.85 508.74 C20.27 507.47 18.26 506.62 16.24 506.05 C14.81
								 505.63 13.22 505.35 11.5 505.35 C9.92 505.35 8.34 505.63 6.76 506.05 C4.74 506.62 2.73 507.61 1.15
								 508.74 C0.43 509.3 0 510.15 0 511 L0 516.64 L23 516.64 Z" class="st4"/>
				</g>
			</g>
		</g>
		<g id="shape31-79" v:mID="31" v:groupContext="shape" transform="translate(-478.582,483.059) rotate(-90)">
			<title>Activation.446</title>
			<v:userDefs>
				<v:ud v:nameU="visVersion" v:prompt="" v:val="VT0(15):26"/>
			</v:userDefs>
			<rect x="0" y="508.139" width="411.998" height="8.50394" class="st5"/>
		</g>
		<g id="shape32-81" v:mID="32" v:groupContext="shape" v:layerMember="1" transform="translate(38.0605,-437.403)">
			<title>Message.448</title>
			<desc>GNMI get request DPU firmware verion</desc>
			<v:userDefs>
				<v:ud v:nameU="IsReturn" v:prompt="" v:val="VT0(0):5"/>
				<v:ud v:nameU="IsAsync" v:prompt="" v:val="VT0(0):5"/>
				<v:ud v:nameU="IsSelfMessage" v:prompt="" v:val="VT0(0):5"/>
				<v:ud v:nameU="visVersion" v:prompt="" v:val="VT0(15):26"/>
			</v:userDefs>
			<v:textBlock v:margins="rect(4,4,4,4)" v:tabSpace="42.5197"/>
			<v:textRect cx="72.0692" cy="507.643" width="78.04" height="27.2035"/>
			<path d="M0 508.46 L135.66 506.92" class="st11"/>
			<rect v:rectContext="textBkgnd" x="37.9581" y="498.043" width="68.2224" height="19.1997" class="st12"/>
			<text x="43.03" y="505.24" class="st13" v:langID="1033"><v:paragraph v:horizAlign="1"/><v:tabList/>GNMI get request<v:newlineChar/><tspan
						x="37.96" dy="1.2em" class="st10">DPU firmware verion</tspan></text>		</g>
		<g id="shape33-89" v:mID="33" v:groupContext="shape" v:layerMember="1" transform="translate(42.2618,-362.334)">
			<title>Message.451</title>
			<desc>GNOI system setpackage install/activate DPU firmware</desc>
			<v:userDefs>
				<v:ud v:nameU="IsReturn" v:prompt="" v:val="VT0(0):5"/>
				<v:ud v:nameU="IsAsync" v:prompt="" v:val="VT0(0):5"/>
				<v:ud v:nameU="IsSelfMessage" v:prompt="" v:val="VT0(0):5"/>
				<v:ud v:nameU="visVersion" v:prompt="" v:val="VT0(15):26"/>
			</v:userDefs>
			<v:textBlock v:margins="rect(4,4,4,4)" v:tabSpace="42.5197"/>
			<v:textRect cx="71.3091" cy="507.643" width="105.68" height="27.2035"/>
			<path d="M0 508.73 L134.14 506.68" class="st11"/>
			<rect v:rectContext="textBkgnd" x="23.3801" y="498.043" width="95.8582" height="19.1997" class="st14"/>
			<text x="31.06" y="505.24" class="st13" v:langID="1033"><v:paragraph v:horizAlign="1"/><v:tabList/>GNOI system setpackage<v:newlineChar/><tspan
						x="23.38" dy="1.2em" class="st10">install/activate DPU firmware</tspan></text>		</g>
		<g id="group34-97" transform="translate(425.447,-489.872)" v:mID="34" v:groupContext="group" v:layerMember="0">
			<v:userDefs>
				<v:ud v:nameU="visVersion" v:prompt="" v:val="VT0(17):26"/>
				<v:ud v:nameU="visAltText" v:prompt="" v:val="VT4(Database)"/>
				<v:ud v:nameU="visAltDescription" v:prompt="" v:val="VT4(Database Icon.)"/>
				<v:ud v:nameU="Font" v:prompt="" v:val="VT0(243):26"/>
			</v:userDefs>
			<title>Database.462</title>
			<g id="group35-98" v:mID="35" v:groupContext="group" v:layerMember="0">
				<title>Sheet.35</title>
				<g id="shape36-99" v:mID="36" v:groupContext="shape" v:layerMember="0" transform="translate(0,-18.9474)">
					<title>Sheet.36</title>
					<ellipse cx="9" cy="514.117" rx="9" ry="2.52632" class="st4"/>
				</g>
				<g id="shape37-101" v:mID="37" v:groupContext="shape" v:layerMember="0" transform="translate(0,-12.6316)">
					<title>Sheet.37</title>
					<path d="M15.43 514.12 C15.04 514.12 14.79 513.86 14.79 513.49 C14.79 513.11 15.04 512.85 15.43 512.85 C15.81
								 512.85 16.07 513.11 16.07 513.49 C16.07 513.86 15.81 514.12 15.43 514.12 ZM9 511.59 C4.05 511.59
								 0 510.45 0 509.06 L0 514.12 C0 515.51 4.05 516.64 9 516.64 C13.95 516.64 18 515.51 18 514.12 L18
								 509.06 C18 510.45 13.95 511.59 9 511.59 Z" class="st4"/>
				</g>
				<g id="shape38-103" v:mID="38" v:groupContext="shape" v:layerMember="0" transform="translate(0,-6.31579)">
					<title>Sheet.38</title>
					<path d="M15.43 514.12 C15.04 514.12 14.79 513.86 14.79 513.49 C14.79 513.11 15.04 512.85 15.43 512.85 C15.81
								 512.85 16.07 513.11 16.07 513.49 C16.07 513.86 15.81 514.12 15.43 514.12 ZM9 511.59 C4.05 511.59
								 0 510.45 0 509.06 L0 514.12 C0 515.51 4.05 516.64 9 516.64 C13.95 516.64 18 515.51 18 514.12 L18
								 509.06 C18 510.45 13.95 511.59 9 511.59 Z" class="st4"/>
				</g>
				<g id="shape39-105" v:mID="39" v:groupContext="shape" v:layerMember="0">
					<title>Sheet.39</title>
					<path d="M15.43 514.12 C15.04 514.12 14.79 513.86 14.79 513.49 C14.79 513.11 15.04 512.85 15.43 512.85 C15.81
								 512.85 16.07 513.11 16.07 513.49 C16.07 513.86 15.81 514.12 15.43 514.12 ZM9 511.59 C4.05 511.59
								 0 510.45 0 509.06 L0 514.12 C0 515.51 4.05 516.64 9 516.64 C13.95 516.64 18 515.51 18 514.12 L18
								 509.06 C18 510.45 13.95 511.59 9 511.59 Z" class="st4"/>
				</g>
			</g>
		</g>
		<g id="group40-107" transform="translate(391.927,-459.636)" v:mID="40" v:groupContext="group">
			<v:userDefs>
				<v:ud v:nameU="visVersion" v:prompt="" v:val="VT0(15):26"/>
				<v:ud v:nameU="ShowActor" v:prompt="" v:val="VT0(0):5"/>
				<v:ud v:nameU="ShowDestruction" v:prompt="" v:val="VT0(0):5"/>
			</v:userDefs>
			<title>Object lifeline.468</title>
			<desc>database</desc>
			<g id="shape41-108" v:mID="41" v:groupContext="shape" transform="translate(17.0079,0)">
				<title>Sheet.41</title>
				<rect x="0" y="491.131" width="51.0236" height="25.5118" class="st1"/>
			</g>
			<g id="shape42-110" v:mID="42" v:groupContext="shape" transform="translate(34.0157,-29.0551)">
				<title>Sheet.42</title>
				<path d="M8.5 516.64 a0 0 0 1 1 0 0 a0 0 0 1 1 0 0 Z" class="st1"/>
			</g>
			<g id="shape43-112" v:mID="43" v:groupContext="shape" transform="translate(28.3465,453.683)">
				<title>Sheet.43</title>
			</g>
			<g id="shape44-114" v:mID="44" v:groupContext="shape" transform="translate(559.163,516.643) rotate(90)">
				<title>Sheet.44</title>
				<path d="M0 516.64 L436.07 516.64" class="st2"/>
			</g>
			<g id="shape40-117" v:mID="40" v:groupContext="groupContent">
				<v:textBlock v:margins="rect(4,4,4,4)" v:tabSpace="42.5197"/>
				<v:textRect cx="42.5197" cy="503.887" width="85.04" height="25.5118"/>
				<rect x="0" y="491.131" width="85.0394" height="25.5118" class="st1"/>
				<text x="27.31" y="506.29" class="st3" v:langID="1033"><v:paragraph v:horizAlign="1"/><v:tabList/>database</text>			</g>
		</g>
		<g id="shape45-120" v:mID="45" v:groupContext="shape" transform="translate(-77.1173,92.5345) rotate(-90)">
			<title>Activation.473</title>
			<v:userDefs>
				<v:ud v:nameU="visVersion" v:prompt="" v:val="VT0(15):26"/>
			</v:userDefs>
			<rect x="0" y="508.139" width="22.4583" height="8.50394" class="st5"/>
		</g>
		<g id="shape46-122" v:mID="46" v:groupContext="shape" v:layerMember="1" transform="translate(190.703,-455.895)">
			<title>Message.474</title>
			<desc>Read StateDB</desc>
			<v:userDefs>
				<v:ud v:nameU="IsReturn" v:prompt="" v:val="VT0(0):5"/>
				<v:ud v:nameU="IsAsync" v:prompt="" v:val="VT0(0):5"/>
				<v:ud v:nameU="IsSelfMessage" v:prompt="" v:val="VT0(0):5"/>
				<v:ud v:nameU="visVersion" v:prompt="" v:val="VT0(15):26"/>
			</v:userDefs>
			<v:textBlock v:margins="rect(4,4,4,4)" v:tabSpace="42.5197"/>
			<v:textRect cx="120.159" cy="525.643" width="54.11" height="17.6036"/>
			<path d="M0 525.31 L231.84 525.95" class="st11"/>
			<rect v:rectContext="textBkgnd" x="98.0154" y="520.843" width="44.2884" height="9.59985" class="st12"/>
			<text x="98.02" y="528.04" class="st13" v:langID="1033"><v:paragraph v:horizAlign="1"/><v:tabList/>Read StateDB</text>		</g>
		<g id="shape47-129" v:mID="47" v:groupContext="shape" v:layerMember="1" transform="translate(431.022,-419.895)">
			<title>Return Message.475</title>
			<v:userDefs>
				<v:ud v:nameU="IsReturn" v:prompt="" v:val="VT0(1):5"/>
				<v:ud v:nameU="IsAsync" v:prompt="" v:val="VT0(0):5"/>
				<v:ud v:nameU="IsSelfMessage" v:prompt="" v:val="VT0(0):5"/>
				<v:ud v:nameU="visVersion" v:prompt="" v:val="VT0(15):26"/>
			</v:userDefs>
			<path d="M0 507.97 L-240.32 507.31" class="st6"/>
		</g>
		<g id="shape48-134" v:mID="48" v:groupContext="shape" v:layerMember="1" transform="translate(183.392,-376.755)">
			<title>Self Message.476</title>
			<v:userDefs>
				<v:ud v:nameU="IsReturn" v:prompt="" v:val="VT0(0):5"/>
				<v:ud v:nameU="IsAsync" v:prompt="" v:val="VT0(0):26"/>
				<v:ud v:nameU="IsSelfMessage" v:prompt="" v:val="VT0(1):5"/>
				<v:ud v:nameU="visVersion" v:prompt="" v:val="VT0(15):26"/>
			</v:userDefs>
			<path d="M8.01 516.64 L27.99 516.64 L27.99 548.47 L18.47 548.47" class="st11"/>
		</g>
		<g id="group49-139" transform="translate(273.51,-461.526)" v:mID="49" v:groupContext="group">
			<v:userDefs>
				<v:ud v:nameU="visVersion" v:prompt="" v:val="VT0(15):26"/>
				<v:ud v:nameU="ShowActor" v:prompt="" v:val="VT0(0):5"/>
				<v:ud v:nameU="ShowDestruction" v:prompt="" v:val="VT0(0):5"/>
			</v:userDefs>
			<title>Object lifeline.477</title>
			<desc>SONiC host services</desc>
			<g id="shape50-140" v:mID="50" v:groupContext="shape" transform="translate(17.0079,0)">
				<title>Sheet.50</title>
				<rect x="0" y="491.131" width="51.0236" height="25.5118" class="st1"/>
			</g>
			<g id="shape51-142" v:mID="51" v:groupContext="shape" transform="translate(34.0157,-29.0551)">
				<title>Sheet.51</title>
				<path d="M8.5 516.64 a0 0 0 1 1 0 0 a0 0 0 1 1 0 0 Z" class="st1"/>
			</g>
			<g id="shape52-144" v:mID="52" v:groupContext="shape" transform="translate(28.3465,461.526)">
				<title>Sheet.52</title>
			</g>
			<g id="shape53-146" v:mID="53" v:groupContext="shape" transform="translate(559.163,516.643) rotate(90)">
				<title>Sheet.53</title>
				<path d="M0 516.64 L443.91 516.64" class="st2"/>
			</g>
			<g id="shape49-149" v:mID="49" v:groupContext="groupContent">
				<v:textBlock v:margins="rect(4,4,4,4)" v:tabSpace="42.5197"/>
				<v:textRect cx="42.5197" cy="503.887" width="85.04" height="25.5118"/>
				<rect x="0" y="491.131" width="85.0394" height="25.5118" class="st1"/>
				<text x="9.91" y="506.29" class="st3" v:langID="1033"><v:paragraph v:horizAlign="1"/><v:tabList/>SONiC host services</text>			</g>
		</g>
		<g id="group54-152" transform="translate(305.258,-492.518)" v:mID="54" v:groupContext="group" v:layerMember="0">
			<v:userDefs>
				<v:ud v:nameU="visVersion" v:prompt="" v:val="VT0(17):26"/>
				<v:ud v:nameU="visAltText" v:prompt="" v:val="VT4(Script)"/>
				<v:ud v:nameU="visAltDescription" v:prompt="" v:val="VT4(Script Icon.)"/>
				<v:ud v:nameU="Font" v:prompt="" v:val="VT0(243):26"/>
			</v:userDefs>
			<title>Script.482</title>
			<g id="shape55-153" v:mID="55" v:groupContext="shape" v:layerMember="0">
				<title>Sheet.55</title>
				<path d="M21.88 513.82 C21.88 514.21 21.56 514.53 21.18 514.53 C20.79 514.53 20.47 514.21 20.47 513.82 L20.47 496.88
							 L21.88 496.88 L21.88 513.82 ZM2.82 514.53 C2.44 514.53 2.12 514.21 2.12 513.82 L2.12 494.76 L18.35 494.76
							 L18.35 513.82 C18.35 514.07 18.39 514.31 18.46 514.53 L2.82 514.53 ZM20.47 494.76 L20.47 492.64 L0 492.64
							 L0 513.82 C0 515.37 1.27 516.64 2.82 516.64 L21.18 516.64 C22.73 516.64 24 515.37 24 513.82 L24 494.76
							 L20.47 494.76 Z" class="st4"/>
			</g>
			<g id="shape56-155" v:mID="56" v:groupContext="shape" v:layerMember="0" transform="translate(3.52941,-18.3529)">
				<title>Sheet.56</title>
				<rect x="0" y="515.231" width="13.4118" height="1.41176" class="st4"/>
			</g>
			<g id="shape57-157" v:mID="57" v:groupContext="shape" v:layerMember="0" transform="translate(10.9412,-15.5294)">
				<title>Sheet.57</title>
				<rect x="0" y="515.231" width="6" height="1.41176" class="st4"/>
			</g>
			<g id="shape58-159" v:mID="58" v:groupContext="shape" v:layerMember="0" transform="translate(10.9412,-12.7059)">
				<title>Sheet.58</title>
				<rect x="0" y="515.231" width="6" height="1.41176" class="st4"/>
			</g>
			<g id="shape59-161" v:mID="59" v:groupContext="shape" v:layerMember="0" transform="translate(3.52941,-12.7059)">
				<title>Sheet.59</title>
				<rect x="0" y="512.408" width="6" height="4.23529" class="st4"/>
			</g>
			<g id="shape60-163" v:mID="60" v:groupContext="shape" v:layerMember="0" transform="translate(3.52941,-9.88235)">
				<title>Sheet.60</title>
				<rect x="0" y="515.231" width="13.4118" height="1.41176" class="st4"/>
			</g>
			<g id="shape61-165" v:mID="61" v:groupContext="shape" v:layerMember="0" transform="translate(10.9412,-4.23529)">
				<title>Sheet.61</title>
				<rect x="0" y="512.408" width="6" height="4.23529" class="st4"/>
			</g>
			<g id="shape62-167" v:mID="62" v:groupContext="shape" v:layerMember="0" transform="translate(3.52941,-7.05882)">
				<title>Sheet.62</title>
				<rect x="0" y="515.231" width="6" height="1.41176" class="st4"/>
			</g>
			<g id="shape63-169" v:mID="63" v:groupContext="shape" v:layerMember="0" transform="translate(3.52941,-4.23529)">
				<title>Sheet.63</title>
				<rect x="0" y="515.231" width="6" height="1.41176" class="st4"/>
			</g>
		</g>
		<g id="shape64-171" v:mID="64" v:groupContext="shape" transform="translate(-196.361,242.96) rotate(-90)">
			<title>Activation.492</title>
			<v:userDefs>
				<v:ud v:nameU="visVersion" v:prompt="" v:val="VT0(15):26"/>
			</v:userDefs>
			<rect x="0" y="508.139" width="44.8347" height="8.50394" class="st5"/>
		</g>
		<g id="shape65-173" v:mID="65" v:groupContext="shape" v:layerMember="1" transform="translate(193.915,-309.303)">
			<title>Message.493</title>
			<desc>DBUS install DPU firmware</desc>
			<v:userDefs>
				<v:ud v:nameU="IsReturn" v:prompt="" v:val="VT0(0):5"/>
				<v:ud v:nameU="IsAsync" v:prompt="" v:val="VT0(0):5"/>
				<v:ud v:nameU="IsSelfMessage" v:prompt="" v:val="VT0(0):5"/>
				<v:ud v:nameU="visVersion" v:prompt="" v:val="VT0(15):26"/>
			</v:userDefs>
			<v:textBlock v:margins="rect(4,4,4,4)" v:tabSpace="42.5197"/>
			<v:textRect cx="58.9311" cy="507.643" width="76.75" height="27.2035"/>
			<path d="M0 507.86 L109.38 507.46" class="st11"/>
			<rect v:rectContext="textBkgnd" x="25.4648" y="498.043" width="66.9328" height="19.1997" class="st12"/>
			<text x="49.89" y="505.24" class="st13" v:langID="1033"><v:paragraph v:horizAlign="1"/><v:tabList/>DBUS<v:newlineChar/><tspan
						x="25.46" dy="1.2em" class="st10">install DPU firmware</tspan></text>		</g>
		<g id="shape66-181" v:mID="66" v:groupContext="shape" transform="translate(341.258,-295.794)">
			<title>Sheet.66</title>
			<desc>Install DPU firmware</desc>
			<v:textBlock v:margins="rect(0,0,0,0)"/>
			<v:textRect cx="37.1339" cy="512.643" width="74.27" height="8"/>
			<rect x="0" y="508.643" width="74.2677" height="8" class="st8"/>
			<text x="3.58" y="515.04" class="st9" v:langID="1033"><v:paragraph v:horizAlign="1"/><v:tabList/>Install DPU firmware</text>		</g>
		<g id="shape67-184" v:mID="67" v:groupContext="shape" v:layerMember="1" transform="translate(313.88,-316.471)">
			<title>Self Message.495</title>
			<v:userDefs>
				<v:ud v:nameU="IsReturn" v:prompt="" v:val="VT0(0):5"/>
				<v:ud v:nameU="IsAsync" v:prompt="" v:val="VT0(0):26"/>
				<v:ud v:nameU="IsSelfMessage" v:prompt="" v:val="VT0(1):5"/>
				<v:ud v:nameU="visVersion" v:prompt="" v:val="VT0(15):26"/>
			</v:userDefs>
			<path d="M8.01 516.64 L27.99 516.64 L27.99 548.47 L18.47 548.47" class="st11"/>
		</g>
		<g id="shape68-189" v:mID="68" v:groupContext="shape" v:layerMember="1" transform="translate(310.738,-284.24)">
			<title>Return Message.496</title>
			<v:userDefs>
				<v:ud v:nameU="IsReturn" v:prompt="" v:val="VT0(1):5"/>
				<v:ud v:nameU="IsAsync" v:prompt="" v:val="VT0(0):5"/>
				<v:ud v:nameU="IsSelfMessage" v:prompt="" v:val="VT0(0):5"/>
				<v:ud v:nameU="visVersion" v:prompt="" v:val="VT0(15):26"/>
			</v:userDefs>
			<path d="M0 525.12 L-117.67 526.17" class="st6"/>
		</g>
		<g id="shape69-194" v:mID="69" v:groupContext="shape" v:layerMember="1" transform="translate(181.159,-265.718)">
			<title>Return Message.497</title>
			<v:userDefs>
				<v:ud v:nameU="IsReturn" v:prompt="" v:val="VT0(1):5"/>
				<v:ud v:nameU="IsAsync" v:prompt="" v:val="VT0(0):5"/>
				<v:ud v:nameU="IsSelfMessage" v:prompt="" v:val="VT0(0):5"/>
				<v:ud v:nameU="visVersion" v:prompt="" v:val="VT0(15):26"/>
			</v:userDefs>
			<path d="M0 507.93 L-144.57 507.36" class="st6"/>
		</g>
		<g id="shape70-199" v:mID="70" v:groupContext="shape" v:layerMember="1" transform="translate(40.5965,-206.097)">
			<title>Message.498</title>
			<desc>GNOI os.reboot Reboot DPU</desc>
			<v:userDefs>
				<v:ud v:nameU="IsReturn" v:prompt="" v:val="VT0(0):5"/>
				<v:ud v:nameU="IsAsync" v:prompt="" v:val="VT0(0):5"/>
				<v:ud v:nameU="IsSelfMessage" v:prompt="" v:val="VT0(0):5"/>
				<v:ud v:nameU="visVersion" v:prompt="" v:val="VT0(15):26"/>
			</v:userDefs>
			<v:textBlock v:margins="rect(4,4,4,4)" v:tabSpace="42.5197"/>
			<v:textRect cx="71.0552" cy="507.643" width="60.61" height="27.2035"/>
			<path d="M0 508.37 L133.63 507" class="st11"/>
			<rect v:rectContext="textBkgnd" x="45.6608" y="498.043" width="50.789" height="19.1997" class="st12"/>
			<text x="45.66" y="505.24" class="st13" v:langID="1033"><v:paragraph v:horizAlign="1"/><v:tabList/>GNOI os.reboot<v:newlineChar/><tspan
						x="50.33" dy="1.2em" class="st10"> </tspan>Reboot DPU</text>		</g>
		<g id="shape71-207" v:mID="71" v:groupContext="shape" transform="translate(-325.166,337.682) rotate(-90.4374)">
			<title>Activation.500</title>
			<v:userDefs>
				<v:ud v:nameU="visVersion" v:prompt="" v:val="VT0(15):26"/>
			</v:userDefs>
			<rect x="0" y="508.139" width="32.9852" height="8.50394" class="st5"/>
		</g>
		<g id="shape72-209" v:mID="72" v:groupContext="shape" transform="translate(-196.68,371.185) rotate(-90)">
			<title>Activation.501</title>
			<v:userDefs>
				<v:ud v:nameU="visVersion" v:prompt="" v:val="VT0(15):26"/>
			</v:userDefs>
			<rect x="0" y="508.139" width="40.0207" height="8.50394" class="st5"/>
		</g>
		<g id="shape73-211" v:mID="73" v:groupContext="shape" v:layerMember="1" transform="translate(191.081,-173.308)">
			<title>Message.502</title>
			<desc>DBUS Reboot DPU</desc>
			<v:userDefs>
				<v:ud v:nameU="IsReturn" v:prompt="" v:val="VT0(0):5"/>
				<v:ud v:nameU="IsAsync" v:prompt="" v:val="VT0(0):5"/>
				<v:ud v:nameU="IsSelfMessage" v:prompt="" v:val="VT0(0):5"/>
				<v:ud v:nameU="visVersion" v:prompt="" v:val="VT0(15):26"/>
			</v:userDefs>
			<v:textBlock v:margins="rect(4,4,4,4)" v:tabSpace="42.5197"/>
			<v:textRect cx="59.1024" cy="507.643" width="49.46" height="27.2035"/>
			<path d="M0 507.64 L109.72 507.64" class="st11"/>
			<rect v:rectContext="textBkgnd" x="39.2823" y="498.043" width="39.6403" height="19.1997" class="st12"/>
			<text x="50.06" y="505.24" class="st13" v:langID="1033"><v:paragraph v:horizAlign="1"/><v:tabList/>DBUS<v:newlineChar/><tspan
						x="39.28" dy="1.2em" class="st10">Reboot DPU</tspan></text>		</g>
		<g id="shape74-219" v:mID="74" v:groupContext="shape" v:layerMember="1" transform="translate(329.293,-186.277)">
			<title>Self Message.503</title>
			<v:userDefs>
				<v:ud v:nameU="IsReturn" v:prompt="" v:val="VT0(0):5"/>
				<v:ud v:nameU="IsAsync" v:prompt="" v:val="VT0(0):26"/>
				<v:ud v:nameU="IsSelfMessage" v:prompt="" v:val="VT0(1):5"/>
				<v:ud v:nameU="visVersion" v:prompt="" v:val="VT0(15):26"/>
			</v:userDefs>
			<path d="M-8.67 516.64 L8.67 516.64 L8.67 553.44 L-0.85 553.44" class="st11"/>
		</g>
		<g id="shape75-224" v:mID="75" v:groupContext="shape" transform="translate(325.915,-161.71)">
			<title>Sheet.75</title>
			<desc>Reboot DPU</desc>
			<v:textBlock v:margins="rect(0,0,0,0)"/>
			<v:textRect cx="37.1339" cy="512.643" width="74.27" height="8"/>
			<rect x="0" y="508.643" width="74.2677" height="8" class="st8"/>
			<text x="17.31" y="515.04" class="st9" v:langID="1033"><v:paragraph v:horizAlign="1"/><v:tabList/>Reboot DPU</text>		</g>
		<g id="shape76-227" v:mID="76" v:groupContext="shape" v:layerMember="1" transform="translate(182.844,-189.145)">
			<title>Return Message.506</title>
			<v:userDefs>
				<v:ud v:nameU="IsReturn" v:prompt="" v:val="VT0(1):5"/>
				<v:ud v:nameU="IsAsync" v:prompt="" v:val="VT0(0):5"/>
				<v:ud v:nameU="IsSelfMessage" v:prompt="" v:val="VT0(0):5"/>
				<v:ud v:nameU="visVersion" v:prompt="" v:val="VT0(15):26"/>
			</v:userDefs>
			<path d="M0 507.96 L-144.83 507.32" class="st6"/>
		</g>
		<g id="shape77-232" v:mID="77" v:groupContext="shape" v:layerMember="1" transform="translate(36.4035,-99.4831)">
			<title>Message.511</title>
			<desc>GNMI get request DPU firmware verion</desc>
			<v:userDefs>
				<v:ud v:nameU="IsReturn" v:prompt="" v:val="VT0(0):5"/>
				<v:ud v:nameU="IsAsync" v:prompt="" v:val="VT0(0):5"/>
				<v:ud v:nameU="IsSelfMessage" v:prompt="" v:val="VT0(0):5"/>
				<v:ud v:nameU="visVersion" v:prompt="" v:val="VT0(15):26"/>
			</v:userDefs>
			<v:textBlock v:margins="rect(4,4,4,4)" v:tabSpace="42.5197"/>
			<v:textRect cx="72.0692" cy="507.643" width="78.04" height="27.2035"/>
			<path d="M0 508.46 L135.66 506.92" class="st11"/>
			<rect v:rectContext="textBkgnd" x="37.9581" y="498.043" width="68.2224" height="19.1997" class="st12"/>
			<text x="43.03" y="505.24" class="st13" v:langID="1033"><v:paragraph v:horizAlign="1"/><v:tabList/>GNMI get request<v:newlineChar/><tspan
						x="37.96" dy="1.2em" class="st10">DPU firmware verion</tspan></text>		</g>
		<g id="shape78-240" v:mID="78" v:groupContext="shape" transform="translate(-325.562,428.256) rotate(-90)">
			<title>Activation.512</title>
			<v:userDefs>
				<v:ud v:nameU="visVersion" v:prompt="" v:val="VT0(15):26"/>
			</v:userDefs>
			<rect x="0" y="508.139" width="22.4583" height="8.50394" class="st5"/>
		</g>
		<g id="shape79-242" v:mID="79" v:groupContext="shape" v:layerMember="1" transform="translate(191.081,-119.517)">
			<title>Message.513</title>
			<desc>Read StateDB</desc>
			<v:userDefs>
				<v:ud v:nameU="IsReturn" v:prompt="" v:val="VT0(0):5"/>
				<v:ud v:nameU="IsAsync" v:prompt="" v:val="VT0(0):5"/>
				<v:ud v:nameU="IsSelfMessage" v:prompt="" v:val="VT0(0):5"/>
				<v:ud v:nameU="visVersion" v:prompt="" v:val="VT0(15):26"/>
			</v:userDefs>
			<v:textBlock v:margins="rect(4,4,4,4)" v:tabSpace="42.5197"/>
			<v:textRect cx="120.159" cy="525.643" width="54.11" height="17.6036"/>
			<path d="M0 525.31 L231.84 525.95" class="st11"/>
			<rect v:rectContext="textBkgnd" x="98.0154" y="520.843" width="44.2884" height="9.59985" class="st12"/>
			<text x="98.02" y="528.04" class="st13" v:langID="1033"><v:paragraph v:horizAlign="1"/><v:tabList/>Read StateDB</text>		</g>
		<g id="shape80-249" v:mID="80" v:groupContext="shape" v:layerMember="1" transform="translate(431.4,-83.5171)">
			<title>Return Message.514</title>
			<v:userDefs>
				<v:ud v:nameU="IsReturn" v:prompt="" v:val="VT0(1):5"/>
				<v:ud v:nameU="IsAsync" v:prompt="" v:val="VT0(0):5"/>
				<v:ud v:nameU="IsSelfMessage" v:prompt="" v:val="VT0(0):5"/>
				<v:ud v:nameU="visVersion" v:prompt="" v:val="VT0(15):26"/>
			</v:userDefs>
			<path d="M0 507.97 L-240.32 507.31" class="st6"/>
		</g>
		<g id="shape81-254" v:mID="81" v:groupContext="shape" transform="translate(-78.7591,426.366) rotate(-90)">
			<title>Activation.515</title>
			<v:userDefs>
				<v:ud v:nameU="visVersion" v:prompt="" v:val="VT0(15):26"/>
			</v:userDefs>
			<rect x="0" y="508.139" width="22.4583" height="8.50394" class="st5"/>
		</g>
		<g id="shape82-256" v:mID="82" v:groupContext="shape" v:layerMember="1" transform="translate(182.577,-83.9311)">
			<title>Return Message.516</title>
			<v:userDefs>
				<v:ud v:nameU="IsReturn" v:prompt="" v:val="VT0(1):5"/>
				<v:ud v:nameU="IsAsync" v:prompt="" v:val="VT0(0):5"/>
				<v:ud v:nameU="IsSelfMessage" v:prompt="" v:val="VT0(0):5"/>
				<v:ud v:nameU="visVersion" v:prompt="" v:val="VT0(15):26"/>
			</v:userDefs>
			<path d="M0 507.73 L-145.42 507.56" class="st6"/>
		</g>
		<g id="shape83-261" v:mID="83" v:groupContext="shape" transform="translate(53.4114,-45.6783)">
			<title>Sheet.83</title>
			<desc>If DPU firmware version == target version, Upgrade Successful</desc>
			<v:textBlock v:margins="rect(0,0,0,0)"/>
			<v:textRect cx="37.1339" cy="512.643" width="74.27" height="8"/>
			<rect x="0" y="508.643" width="74.2677" height="8" class="st8"/>
			<text x="11.11" y="500.64" class="st9" v:langID="1033"><v:paragraph v:horizAlign="1"/><v:tabList/>If DPU firmware <tspan
						x="9.59" dy="1.2em" class="st10">version == target </tspan><tspan x="9.39" dy="1.2em" class="st10">version, Upgrade </tspan><tspan
						x="20.45" dy="1.2em" class="st10">Successful</tspan></text>		</g>
		<g id="shape84-267" v:mID="84" v:groupContext="shape" v:layerMember="1" transform="translate(29.2622,-67.5821)">
			<title>Self Message.518</title>
			<v:userDefs>
				<v:ud v:nameU="IsReturn" v:prompt="" v:val="VT0(0):5"/>
				<v:ud v:nameU="IsAsync" v:prompt="" v:val="VT0(0):26"/>
				<v:ud v:nameU="IsSelfMessage" v:prompt="" v:val="VT0(1):5"/>
				<v:ud v:nameU="visVersion" v:prompt="" v:val="VT0(15):26"/>
			</v:userDefs>
			<path d="M8.8 516.64 L27.2 516.64 L27.2 544.27 L17.68 544.27" class="st11"/>
		</g>
	</g>
</svg>
