<?xml version="1.0" encoding="UTF-8" standalone="no"?><!DOCTYPE svg PUBLIC "-//W3C//DTD SVG 1.1//EN" "http://www.w3.org/Graphics/SVG/1.1/DTD/svg11.dtd"><!-- Generated by graphviz version 2.40.1 (20161225.0304)
 --><!-- Title: G Pages: 1 --><svg xmlns="http://www.w3.org/2000/svg" xmlns:xlink="http://www.w3.org/1999/xlink" width="2217pt" height="1047pt" viewBox="0.00 0.00 2217.09 1047.00">
<g id="graph0" class="graph" transform="scale(1 1) rotate(0) translate(4 1043)">
<title>G</title>
<polygon fill="#ffffff" stroke="transparent" points="-4,4 -4,-1043 2213.0887,-1043 2213.0887,4 -4,4"/>
<text text-anchor="middle" x="1104.5444" y="-1017" font-family="Helvetica,Arial,sans-serif" font-size="20.00" fill="#000000">GNMI get decision tree</text>
<g id="clust1" class="cluster">
<title>cluster_other</title>
<polygon fill="none" stroke="#0000ff" points="496.5504,-891 496.5504,-975 731.4454,-975 731.4454,-891 496.5504,-891"/>
<text text-anchor="middle" x="613.9979" y="-953" font-family="Helvetica,Arial,sans-serif" font-size="20.00" fill="#000000">other</text>
</g>
<g id="clust2" class="cluster">
<title>cluster_telemetry</title>
<polygon fill="none" stroke="#0000ff" points="469.0381,-538 469.0381,-883 1402.0936,-883 1402.0936,-538 469.0381,-538"/>
<text text-anchor="middle" x="935.5658" y="-861" font-family="Helvetica,Arial,sans-serif" font-size="20.00" fill="#000000">Telemetry read</text>
</g>
<g id="clust3" class="cluster">
<title>cluster_gnmi_native</title>
<polygon fill="none" stroke="#0000ff" points="1005.6314,-100 1005.6314,-530 2201.0887,-530 2201.0887,-100 1005.6314,-100"/>
<text text-anchor="middle" x="1603.3601" y="-508" font-family="Helvetica,Arial,sans-serif" font-size="20.00" fill="#000000">GNMI native read</text>
</g>
<g id="clust4" class="cluster">
<title>cluster_translib</title>
<polygon fill="none" stroke="#0000ff" points="1073.3601,-8 1073.3601,-92 1227.8225,-92 1227.8225,-8 1073.3601,-8"/>
<text text-anchor="middle" x="1150.5913" y="-70" font-family="Helvetica,Arial,sans-serif" font-size="20.00" fill="#000000">Translib read</text>
</g>
<!-- Check target -->
<g id="node1" class="node">
<title>Check target</title>
<polygon fill="none" stroke="#000000" points="85.0018,-724 -.0018,-706 85.0018,-688 170.0055,-706 85.0018,-724"/>
<polyline fill="none" stroke="#000000" points="11.7378,-708.4859 11.7378,-703.5141 "/>
<polyline fill="none" stroke="#000000" points="73.2622,-690.4859 96.7415,-690.4859 "/>
<polyline fill="none" stroke="#000000" points="158.2658,-703.5141 158.2658,-708.4859 "/>
<polyline fill="none" stroke="#000000" points="96.7415,-721.5141 73.2622,-721.5141 "/>
<text text-anchor="middle" x="85.0018" y="-701.8" font-family="Times,serif" font-size="14.00" fill="#000000">Check target</text>
</g>
<!-- Read non database object -->
<g id="node2" class="node">
<title>Read non database object</title>
<ellipse fill="#d3d3d3" stroke="#000000" cx="613.9979" cy="-917" rx="109.3951" ry="18"/>
<text text-anchor="middle" x="613.9979" y="-912.8" font-family="Times,serif" font-size="14.00" fill="#000000">Read non database object</text>
</g>
<!-- Check target&#45;&gt;Read non database object -->
<g id="edge1" class="edge">
<title>Check target-&gt;Read non database object</title>
<path fill="none" stroke="#000000" d="M108.0163,-719.2323C166.4506,-752.2924 326.0662,-839.2629 469.0381,-887 487.098,-893.0301 506.8455,-898.0825 525.7912,-902.2181"/>
<polygon fill="#000000" stroke="#000000" points="525.1043,-905.6502 535.6124,-904.2975 526.5543,-898.802 525.1043,-905.6502"/>
<text text-anchor="middle" x="323.5209" y="-887.2" font-family="Times,serif" font-size="14.00" fill="#000000">Target is other</text>
</g>
<!-- Telemetry read -->
<g id="node3" class="node">
<title>Telemetry read</title>
<polygon fill="#d3d3d3" stroke="#000000" points="613.9979,-724 477.0782,-706 613.9979,-688 750.9176,-706 613.9979,-724"/>
<polyline fill="none" stroke="#000000" points="488.9759,-707.5641 488.9759,-704.4359 "/>
<polyline fill="none" stroke="#000000" points="602.1003,-689.5641 625.8955,-689.5641 "/>
<polyline fill="none" stroke="#000000" points="739.0199,-704.4359 739.0199,-707.5641 "/>
<polyline fill="none" stroke="#000000" points="625.8955,-722.4359 602.1003,-722.4359 "/>
<text text-anchor="middle" x="613.9979" y="-701.8" font-family="Times,serif" font-size="14.00" fill="#000000">Check GNMI element</text>
</g>
<!-- Check target&#45;&gt;Telemetry read -->
<g id="edge7" class="edge">
<title>Check target-&gt;Telemetry read</title>
<path fill="none" stroke="#000000" d="M170.288,-706C250.2354,-706 371.4241,-706 466.9582,-706"/>
<polygon fill="#000000" stroke="#000000" points="467.0015,-709.5001 477.0015,-706 467.0014,-702.5001 467.0015,-709.5001"/>
<text text-anchor="middle" x="323.5209" y="-727" font-family="Times,serif" font-size="14.00" fill="#000000">Target is SONiC database:</text>
<text text-anchor="middle" x="323.5209" y="-710.2" font-family="Times,serif" font-size="14.00" fill="#000000">CONFIG_DB, APPL_DB, COUNTERS_DB, ...</text>
</g>
<!-- Check origin -->
<g id="node9" class="node">
<title>Check origin</title>
<polygon fill="none" stroke="#000000" points="613.9979,-328 527.4296,-310 613.9979,-292 700.5662,-310 613.9979,-328"/>
<polyline fill="none" stroke="#000000" points="539.1783,-312.4429 539.1783,-307.5571 "/>
<polyline fill="none" stroke="#000000" points="602.2492,-294.4429 625.7466,-294.4429 "/>
<polyline fill="none" stroke="#000000" points="688.8175,-307.5571 688.8175,-312.4429 "/>
<polyline fill="none" stroke="#000000" points="625.7466,-325.5571 602.2492,-325.5571 "/>
<text text-anchor="middle" x="613.9979" y="-305.8" font-family="Times,serif" font-size="14.00" fill="#000000">Check origin</text>
</g>
<!-- Check target&#45;&gt;Check origin -->
<g id="edge8" class="edge">
<title>Check target-&gt;Check origin</title>
<path fill="none" stroke="#000000" d="M103.8291,-691.9062C183.5208,-632.2499 493.2777,-400.3696 586.9894,-330.2182"/>
<polygon fill="#000000" stroke="#000000" points="589.2128,-332.9259 595.1208,-324.1312 585.0178,-327.3221 589.2128,-332.9259"/>
<text text-anchor="middle" x="323.5209" y="-629.2" font-family="Times,serif" font-size="14.00" fill="#000000">Target is empty</text>
</g>
<!-- 1 element -->
<g id="node4" class="node">
<title>1 element</title>
<ellipse fill="#d3d3d3" stroke="#000000" cx="1150.5913" cy="-564" rx="56.2" ry="18"/>
<text text-anchor="middle" x="1150.5913" y="-559.8" font-family="Times,serif" font-size="14.00" fill="#000000">Table name</text>
</g>
<!-- Telemetry read&#45;&gt;1 element -->
<g id="edge2" class="edge">
<title>Telemetry read-&gt;1 element</title>
<path fill="none" stroke="#000000" d="M643.1074,-691.5827C694.8394,-666.6497 806.795,-615.7745 907.0889,-591 965.8785,-576.4779 1034.5916,-569.7575 1084.0069,-566.6528"/>
<polygon fill="#000000" stroke="#000000" points="1084.4737,-570.1313 1094.2482,-566.0436 1084.058,-563.1436 1084.4737,-570.1313"/>
<text text-anchor="middle" x="829.0233" y="-637.2" font-family="Times,serif" font-size="14.00" fill="#000000">1 element</text>
</g>
<!-- 2 element -->
<g id="node5" class="node">
<title>2 element</title>
<ellipse fill="#d3d3d3" stroke="#000000" cx="1150.5913" cy="-629" rx="117.5501" ry="29.3315"/>
<text text-anchor="middle" x="1150.5913" y="-633.2" font-family="Times,serif" font-size="14.00" fill="#000000">Table name + table key</text>
<text text-anchor="middle" x="1150.5913" y="-616.4" font-family="Times,serif" font-size="14.00" fill="#000000">Or table name + table field</text>
</g>
<!-- Telemetry read&#45;&gt;2 element -->
<g id="edge3" class="edge">
<title>Telemetry read-&gt;2 element</title>
<path fill="none" stroke="#000000" d="M679.5263,-696.5968C768.7235,-683.7972 929.666,-660.7023 1038.3074,-645.1125"/>
<polygon fill="#000000" stroke="#000000" points="1038.9241,-648.5599 1048.3256,-643.6749 1037.9298,-641.6309 1038.9241,-648.5599"/>
<text text-anchor="middle" x="829.0233" y="-687.2" font-family="Times,serif" font-size="14.00" fill="#000000">2 elements</text>
</g>
<!-- 3 element -->
<g id="node6" class="node">
<title>3 element</title>
<ellipse fill="#d3d3d3" stroke="#000000" cx="1150.5913" cy="-706" rx="199.458" ry="29.3315"/>
<text text-anchor="middle" x="1150.5913" y="-710.2" font-family="Times,serif" font-size="14.00" fill="#000000">Table name + first table key + second table key</text>
<text text-anchor="middle" x="1150.5913" y="-693.4" font-family="Times,serif" font-size="14.00" fill="#000000">Or table name + table key + table field</text>
</g>
<!-- Telemetry read&#45;&gt;3 element -->
<g id="edge4" class="edge">
<title>Telemetry read-&gt;3 element</title>
<path fill="none" stroke="#000000" d="M751.1392,-706C808.8354,-706 877.2637,-706 941.0358,-706"/>
<polygon fill="#000000" stroke="#000000" points="941.2286,-709.5001 951.2285,-706 941.2285,-702.5001 941.2286,-709.5001"/>
<text text-anchor="middle" x="829.0233" y="-710.2" font-family="Times,serif" font-size="14.00" fill="#000000">3 elements</text>
</g>
<!-- 4 element -->
<g id="node7" class="node">
<title>4 element</title>
<ellipse fill="#d3d3d3" stroke="#000000" cx="1150.5913" cy="-771" rx="243.5047" ry="18"/>
<text text-anchor="middle" x="1150.5913" y="-766.8" font-family="Times,serif" font-size="14.00" fill="#000000">Table name + first table key + second table key + table field</text>
</g>
<!-- Telemetry read&#45;&gt;4 element -->
<g id="edge5" class="edge">
<title>Telemetry read-&gt;4 element</title>
<path fill="none" stroke="#000000" d="M681.0957,-715.2754C708.3508,-718.9955 740.1484,-723.2752 768.9577,-727 830.302,-734.9312 845.653,-736.8137 907.0889,-744 938.1569,-747.6341 971.4698,-751.4084 1003.1741,-754.9425"/>
<polygon fill="#000000" stroke="#000000" points="1003.0805,-758.4536 1013.4063,-756.081 1003.8547,-751.4965 1003.0805,-758.4536"/>
<text text-anchor="middle" x="829.0233" y="-745.2" font-family="Times,serif" font-size="14.00" fill="#000000">4 elements</text>
</g>
<!-- 5 element -->
<g id="node8" class="node">
<title>5 element</title>
<ellipse fill="#d3d3d3" stroke="#000000" cx="1150.5913" cy="-825" rx="66.0347" ry="18"/>
<text text-anchor="middle" x="1150.5913" y="-820.8" font-family="Times,serif" font-size="14.00" fill="#000000">Not supported</text>
</g>
<!-- Telemetry read&#45;&gt;5 element -->
<g id="edge6" class="edge">
<title>Telemetry read-&gt;5 element</title>
<path fill="none" stroke="#000000" d="M648.4618,-719.4853C679.6623,-731.4461 727.0206,-748.9875 768.9577,-762 829.5503,-780.8009 844.7023,-786.474 907.0889,-798 963.514,-808.4246 1028.0903,-815.3601 1076.558,-819.5889"/>
<polygon fill="#000000" stroke="#000000" points="1076.3856,-823.0869 1086.6472,-820.4505 1076.9813,-816.1123 1076.3856,-823.0869"/>
<text text-anchor="middle" x="829.0233" y="-798.2" font-family="Times,serif" font-size="14.00" fill="#000000">more than 4 elements</text>
</g>
<!-- GNMI native read -->
<g id="node10" class="node">
<title>GNMI native read</title>
<polygon fill="#d3d3d3" stroke="#000000" points="1150.5913,-328 1013.6716,-310 1150.5913,-292 1287.5109,-310 1150.5913,-328"/>
<polyline fill="none" stroke="#000000" points="1025.5692,-311.5641 1025.5692,-308.4359 "/>
<polyline fill="none" stroke="#000000" points="1138.6936,-293.5641 1162.4889,-293.5641 "/>
<polyline fill="none" stroke="#000000" points="1275.6133,-308.4359 1275.6133,-311.5641 "/>
<polyline fill="none" stroke="#000000" points="1162.4889,-326.4359 1138.6936,-326.4359 "/>
<text text-anchor="middle" x="1150.5913" y="-305.8" font-family="Times,serif" font-size="14.00" fill="#000000">Check GNMI element</text>
</g>
<!-- Check origin&#45;&gt;GNMI native read -->
<g id="edge16" class="edge">
<title>Check origin-&gt;GNMI native read</title>
<path fill="none" stroke="#000000" d="M700.8073,-310C782.4535,-310 906.3122,-310 1003.3971,-310"/>
<polygon fill="#000000" stroke="#000000" points="1003.6008,-313.5001 1013.6008,-310 1003.6007,-306.5001 1003.6008,-313.5001"/>
<text text-anchor="middle" x="829.0233" y="-314.2" font-family="Times,serif" font-size="14.00" fill="#000000">Origin is sonic-db</text>
</g>
<!-- Invoke translib -->
<g id="node18" class="node">
<title>Invoke translib</title>
<ellipse fill="#d3d3d3" stroke="#000000" cx="1150.5913" cy="-34" rx="69.4631" ry="18"/>
<text text-anchor="middle" x="1150.5913" y="-29.8" font-family="Times,serif" font-size="14.00" fill="#000000">Invoke translib</text>
</g>
<!-- Check origin&#45;&gt;Invoke translib -->
<g id="edge17" class="edge">
<title>Check origin-&gt;Invoke translib</title>
<path fill="none" stroke="#000000" d="M629.7337,-295.025C671.4365,-256.1641 789.6628,-151.2816 907.0889,-96 962.3836,-69.9685 1030.0842,-53.8605 1080.052,-44.6107"/>
<polygon fill="#000000" stroke="#000000" points="1080.897,-48.0148 1090.1171,-42.7956 1079.6546,-41.1259 1080.897,-48.0148"/>
<text text-anchor="middle" x="829.0233" y="-182.2" font-family="Times,serif" font-size="14.00" fill="#000000">Origin is empty</text>
</g>
<!-- GNMI 1 element -->
<g id="node11" class="node">
<title>GNMI 1 element</title>
<ellipse fill="#d3d3d3" stroke="#000000" cx="1871.6568" cy="-126" rx="66.0347" ry="18"/>
<text text-anchor="middle" x="1871.6568" y="-121.8" font-family="Times,serif" font-size="14.00" fill="#000000">Not supported</text>
</g>
<!-- GNMI native read&#45;&gt;GNMI 1 element -->
<g id="edge9" class="edge">
<title>GNMI native read-&gt;GNMI 1 element</title>
<path fill="none" stroke="#000000" d="M1178.7513,-295.6085C1242.7866,-263.6359 1405.0335,-186.8531 1550.2248,-153 1632.5365,-133.8081 1729.5151,-127.861 1795.2574,-126.2123"/>
<polygon fill="#000000" stroke="#000000" points="1795.614,-129.7053 1805.5334,-125.9832 1795.4579,-122.707 1795.614,-129.7053"/>
<text text-anchor="middle" x="1472.1592" y="-197.2" font-family="Times,serif" font-size="14.00" fill="#000000">less than 2 elements</text>
</g>
<!-- GNMI 2 elements -->
<g id="node12" class="node">
<title>GNMI 2 elements</title>
<ellipse fill="#d3d3d3" stroke="#000000" cx="1871.6568" cy="-191" rx="131.5656" ry="29.3315"/>
<text text-anchor="middle" x="1871.6568" y="-195.2" font-family="Times,serif" font-size="14.00" fill="#000000">Database name + device name</text>
<text text-anchor="middle" x="1871.6568" y="-178.4" font-family="Times,serif" font-size="14.00" fill="#000000">Read the whole database</text>
</g>
<!-- GNMI native read&#45;&gt;GNMI 2 elements -->
<g id="edge10" class="edge">
<title>GNMI native read-&gt;GNMI 2 elements</title>
<path fill="none" stroke="#000000" d="M1200.5052,-298.5056C1275.9107,-281.4543 1423.53,-249.2933 1550.2248,-229 1612.6417,-219.0024 1682.2698,-210.4536 1740.7194,-204.0109"/>
<polygon fill="#000000" stroke="#000000" points="1741.1876,-207.4806 1750.7477,-202.914 1740.4264,-200.5221 1741.1876,-207.4806"/>
<text text-anchor="middle" x="1472.1592" y="-256.2" font-family="Times,serif" font-size="14.00" fill="#000000">2 elements</text>
</g>
<!-- GNMI 3 element -->
<g id="node13" class="node">
<title>GNMI 3 element</title>
<ellipse fill="#d3d3d3" stroke="#000000" cx="1871.6568" cy="-256" rx="180.8507" ry="18"/>
<text text-anchor="middle" x="1871.6568" y="-251.8" font-family="Times,serif" font-size="14.00" fill="#000000">Database name + device name + table name</text>
</g>
<!-- GNMI native read&#45;&gt;GNMI 3 element -->
<g id="edge11" class="edge">
<title>GNMI native read-&gt;GNMI 3 element</title>
<path fill="none" stroke="#000000" d="M1235.3739,-303.0998C1286.5452,-298.9741 1353.0573,-293.6803 1412.0936,-289.2 1512.4186,-281.5863 1625.0964,-273.4398 1713.7707,-267.122"/>
<polygon fill="#000000" stroke="#000000" points="1714.1879,-270.6012 1723.9141,-266.3998 1713.6907,-263.6189 1714.1879,-270.6012"/>
<text text-anchor="middle" x="1472.1592" y="-293.2" font-family="Times,serif" font-size="14.00" fill="#000000">3 elements</text>
</g>
<!-- GNMI 4 element -->
<g id="node14" class="node">
<title>GNMI 4 element</title>
<ellipse fill="#d3d3d3" stroke="#000000" cx="1871.6568" cy="-310" rx="226.1531" ry="18"/>
<text text-anchor="middle" x="1871.6568" y="-305.8" font-family="Times,serif" font-size="14.00" fill="#000000">Database name + device name + table name + table key</text>
</g>
<!-- GNMI native read&#45;&gt;GNMI 4 element -->
<g id="edge12" class="edge">
<title>GNMI native read-&gt;GNMI 4 element</title>
<path fill="none" stroke="#000000" d="M1287.9154,-310C1385.8856,-310 1520.109,-310 1635.148,-310"/>
<polygon fill="#000000" stroke="#000000" points="1635.1564,-313.5001 1645.1564,-310 1635.1564,-306.5001 1635.1564,-313.5001"/>
<text text-anchor="middle" x="1472.1592" y="-314.2" font-family="Times,serif" font-size="14.00" fill="#000000">4 elements</text>
</g>
<!-- GNMI 5 element -->
<g id="node15" class="node">
<title>GNMI 5 element</title>
<ellipse fill="#d3d3d3" stroke="#000000" cx="1871.6568" cy="-364" rx="275.4626" ry="18"/>
<text text-anchor="middle" x="1871.6568" y="-359.8" font-family="Times,serif" font-size="14.00" fill="#000000">Database name + device name + table name + table key + table field</text>
</g>
<!-- GNMI native read&#45;&gt;GNMI 5 element -->
<g id="edge13" class="edge">
<title>GNMI native read-&gt;GNMI 5 element</title>
<path fill="none" stroke="#000000" d="M1234.782,-316.9426C1286.0307,-321.1235 1352.8274,-326.4925 1412.0936,-331 1497.57,-337.5009 1592.017,-344.342 1672.9451,-350.0992"/>
<polygon fill="#000000" stroke="#000000" points="1673.03,-353.614 1683.253,-350.8319 1673.5263,-346.6316 1673.03,-353.614"/>
<text text-anchor="middle" x="1472.1592" y="-343.2" font-family="Times,serif" font-size="14.00" fill="#000000">5 elements</text>
</g>
<!-- GNMI 6 element -->
<g id="node16" class="node">
<title>GNMI 6 element</title>
<ellipse fill="#d3d3d3" stroke="#000000" cx="1871.6568" cy="-418" rx="321.3639" ry="18"/>
<text text-anchor="middle" x="1871.6568" y="-413.8" font-family="Times,serif" font-size="14.00" fill="#000000">Database name + device name + table name + table key + table field + list index</text>
</g>
<!-- GNMI native read&#45;&gt;GNMI 6 element -->
<g id="edge14" class="edge">
<title>GNMI native read-&gt;GNMI 6 element</title>
<path fill="none" stroke="#000000" d="M1198.8744,-321.6788C1273.6853,-339.3438 1422.3284,-372.7301 1550.2248,-391 1583.7788,-395.7932 1619.434,-399.8291 1654.3213,-403.198"/>
<polygon fill="#000000" stroke="#000000" points="1654.3415,-406.7155 1664.6275,-404.1762 1655.003,-399.7468 1654.3415,-406.7155"/>
<text text-anchor="middle" x="1472.1592" y="-391.2" font-family="Times,serif" font-size="14.00" fill="#000000">6 elements</text>
</g>
<!-- GNMI 7 element -->
<g id="node17" class="node">
<title>GNMI 7 element</title>
<ellipse fill="#d3d3d3" stroke="#000000" cx="1871.6568" cy="-472" rx="66.0347" ry="18"/>
<text text-anchor="middle" x="1871.6568" y="-467.8" font-family="Times,serif" font-size="14.00" fill="#000000">Not supported</text>
</g>
<!-- GNMI native read&#45;&gt;GNMI 7 element -->
<g id="edge15" class="edge">
<title>GNMI native read-&gt;GNMI 7 element</title>
<path fill="none" stroke="#000000" d="M1184.0756,-323.7412C1233.4666,-343.7365 1328.9876,-381.3662 1412.0936,-408 1472.6174,-427.3966 1487.615,-434.0746 1550.2248,-445 1633.4861,-459.529 1730.2947,-466.3113 1795.7374,-469.4311"/>
<polygon fill="#000000" stroke="#000000" points="1795.8142,-472.9382 1805.9643,-469.901 1796.1356,-465.9456 1795.8142,-472.9382"/>
<text text-anchor="middle" x="1472.1592" y="-445.2" font-family="Times,serif" font-size="14.00" fill="#000000">more than 6 elements</text>
</g>
</g>
</svg>