<?xml version="1.0" encoding="UTF-8" standalone="no"?>
<!DOCTYPE svg PUBLIC "-//W3C//DTD SVG 1.1//EN" "http://www.w3.org/Graphics/SVG/1.1/DTD/svg11.dtd">
<!-- Generated by Microsoft Visio, SVG Export install_sonic_image_apis_flow.svg Page-1 -->
<svg xmlns="http://www.w3.org/2000/svg" xmlns:xlink="http://www.w3.org/1999/xlink" xmlns:ev="http://www.w3.org/2001/xml-events"
		xmlns:v="http://schemas.microsoft.com/visio/2003/SVGExtensions/" width="8.5in" height="11in" viewBox="0 0 612 792"
		xml:space="preserve" color-interpolation-filters="sRGB" class="st14">
	<v:documentProperties v:langID="1033" v:viewMarkup="false">
		<v:userDefs>
			<v:ud v:nameU="msvNoAutoConnect" v:val="VT0(1):26"/>
		</v:userDefs>
	</v:documentProperties>

	<style type="text/css">
	<![CDATA[
		.st1 {fill:#4672c4;stroke:#c7c8c8;stroke-width:0.25}
		.st2 {stroke:#4672c4;stroke-dasharray:7,5;stroke-linecap:round;stroke-linejoin:round;stroke-width:1}
		.st3 {fill:#feffff;font-family:Calibri;font-size:0.666664em;font-weight:bold}
		.st4 {fill:#718bcc;stroke:#718bcc;stroke-linecap:round;stroke-linejoin:round;stroke-width:0.25}
		.st5 {fill:#4672c4;stroke:#4672c4;stroke-linecap:round;stroke-linejoin:round;stroke-width:1}
		.st6 {marker-end:url(#mrkr3-40);stroke:#4672c4;stroke-dasharray:7,5;stroke-linecap:round;stroke-linejoin:round;stroke-width:1}
		.st7 {fill:#4672c4;fill-opacity:1;stroke:#4672c4;stroke-opacity:1;stroke-width:0.23584905660377}
		.st8 {fill:none;stroke:none;stroke-width:0.25}
		.st9 {fill:#4672c4;font-family:Calibri;font-size:0.666664em}
		.st10 {font-size:1em}
		.st11 {marker-end:url(#mrkr4-52);stroke:#4672c4;stroke-linecap:round;stroke-linejoin:round;stroke-width:1}
		.st12 {fill:#ffffff;stroke:none;stroke-linecap:butt;stroke-width:7.2}
		.st13 {fill:#3d64ac;font-family:Calibri;font-size:0.666664em}
		.st14 {fill:none;fill-rule:evenodd;font-size:12px;overflow:visible;stroke-linecap:square;stroke-miterlimit:3}
	]]>
	</style>

	<defs id="Markers">
		<g id="lend3">
			<path d="M 2 1 L 0 0 L 2 -1 " style="stroke-linecap:round;stroke-linejoin:round;fill:none"/>
		</g>
		<marker id="mrkr3-40" class="st7" v:arrowType="3" v:arrowSize="3" orient="auto" markerUnits="strokeWidth"
				overflow="visible">
			<use xlink:href="#lend3" transform="scale(-4.24,-4.24) "/>
		</marker>
		<g id="lend4">
			<path d="M 2 1 L 0 0 L 2 -1 L 2 1 " style="stroke:none"/>
		</g>
		<marker id="mrkr4-52" class="st7" v:arrowType="4" v:arrowSize="3" v:setback="8.48" refX="-8.48" orient="auto"
				markerUnits="strokeWidth" overflow="visible">
			<use xlink:href="#lend4" transform="scale(-4.24,-4.24) "/>
		</marker>
	</defs>
	<g v:mID="0" v:index="1" v:groupContext="foregroundPage">
		<title>Page-1</title>
		<v:pageProperties v:drawingScale="1" v:pageScale="1" v:drawingUnits="19" v:shadowOffsetX="8.50394"
				v:shadowOffsetY="-8.50394"/>
		<v:layer v:name="Common Icons" v:index="0"/>
		<v:layer v:name="Connector" v:index="1"/>
		<g id="group1-1" transform="translate(176.02,-711.833)" v:mID="1" v:groupContext="group">
			<v:userDefs>
				<v:ud v:nameU="visVersion" v:prompt="" v:val="VT0(15):26"/>
				<v:ud v:nameU="ShowActor" v:prompt="" v:val="VT0(0):5"/>
				<v:ud v:nameU="ShowDestruction" v:prompt="" v:val="VT0(0):5"/>
			</v:userDefs>
			<title>Object lifeline.415</title>
			<desc>GNOI/GNMI Server</desc>
			<g id="shape2-2" v:mID="2" v:groupContext="shape" transform="translate(17.0079,0)">
				<title>Sheet.2</title>
				<rect x="0" y="766.488" width="51.0236" height="25.5118" class="st1"/>
			</g>
			<g id="shape3-4" v:mID="3" v:groupContext="shape" transform="translate(34.0157,-29.0551)">
				<title>Sheet.3</title>
				<path d="M8.5 792 a0 0 0 1 1 0 0 a0 0 0 1 1 0 0 Z" class="st1"/>
			</g>
			<g id="shape4-6" v:mID="4" v:groupContext="shape" transform="translate(28.3465,459.967)">
				<title>Sheet.4</title>
			</g>
			<g id="shape5-8" v:mID="5" v:groupContext="shape" transform="translate(834.52,792) rotate(90)">
				<title>Sheet.5</title>
				<path d="M0 792 L442.35 792" class="st2"/>
			</g>
			<g id="shape1-11" v:mID="1" v:groupContext="groupContent">
				<v:textBlock v:margins="rect(4,4,4,4)" v:tabSpace="42.5197"/>
				<v:textRect cx="42.5197" cy="779.244" width="85.04" height="25.5118"/>
				<rect x="0" y="766.488" width="85.0394" height="25.5118" class="st1"/>
				<text x="10.54" y="781.64" class="st3" v:langID="1033"><v:paragraph v:horizAlign="1"/><v:tabList/>GNOI/GNMI Server</text>			</g>
		</g>
		<g id="group6-14" transform="translate(206.539,-740.935)" v:mID="6" v:groupContext="group" v:layerMember="0">
			<v:userDefs>
				<v:ud v:nameU="visVersion" v:prompt="" v:val="VT0(17):26"/>
				<v:ud v:nameU="visAltText" v:prompt="" v:val="VT4(Script)"/>
				<v:ud v:nameU="visAltDescription" v:prompt="" v:val="VT4(Script Icon.)"/>
				<v:ud v:nameU="Font" v:prompt="" v:val="VT0(243):26"/>
			</v:userDefs>
			<title>Script.420</title>
			<g id="shape7-15" v:mID="7" v:groupContext="shape" v:layerMember="0">
				<title>Sheet.7</title>
				<path d="M21.88 789.18 C21.88 789.56 21.56 789.88 21.18 789.88 C20.79 789.88 20.47 789.56 20.47 789.18 L20.47 772.24
							 L21.88 772.24 L21.88 789.18 ZM2.82 789.88 C2.44 789.88 2.12 789.56 2.12 789.18 L2.12 770.12 L18.35 770.12
							 L18.35 789.18 C18.35 789.42 18.39 789.67 18.46 789.88 L2.82 789.88 ZM20.47 770.12 L20.47 768 L0 768
							 L0 789.18 C0 790.73 1.27 792 2.82 792 L21.18 792 C22.73 792 24 790.73 24 789.18 L24 770.12 L20.47 770.12
							 Z" class="st4"/>
			</g>
			<g id="shape8-17" v:mID="8" v:groupContext="shape" v:layerMember="0" transform="translate(3.52941,-18.3529)">
				<title>Sheet.8</title>
				<rect x="0" y="790.588" width="13.4118" height="1.41176" class="st4"/>
			</g>
			<g id="shape9-19" v:mID="9" v:groupContext="shape" v:layerMember="0" transform="translate(10.9412,-15.5294)">
				<title>Sheet.9</title>
				<rect x="0" y="790.588" width="6" height="1.41176" class="st4"/>
			</g>
			<g id="shape10-21" v:mID="10" v:groupContext="shape" v:layerMember="0" transform="translate(10.9412,-12.7059)">
				<title>Sheet.10</title>
				<rect x="0" y="790.588" width="6" height="1.41176" class="st4"/>
			</g>
			<g id="shape11-23" v:mID="11" v:groupContext="shape" v:layerMember="0" transform="translate(3.52941,-12.7059)">
				<title>Sheet.11</title>
				<rect x="0" y="787.765" width="6" height="4.23529" class="st4"/>
			</g>
			<g id="shape12-25" v:mID="12" v:groupContext="shape" v:layerMember="0" transform="translate(3.52941,-9.88235)">
				<title>Sheet.12</title>
				<rect x="0" y="790.588" width="13.4118" height="1.41176" class="st4"/>
			</g>
			<g id="shape13-27" v:mID="13" v:groupContext="shape" v:layerMember="0" transform="translate(10.9412,-4.23529)">
				<title>Sheet.13</title>
				<rect x="0" y="787.765" width="6" height="4.23529" class="st4"/>
			</g>
			<g id="shape14-29" v:mID="14" v:groupContext="shape" v:layerMember="0" transform="translate(3.52941,-7.05882)">
				<title>Sheet.14</title>
				<rect x="0" y="790.588" width="6" height="1.41176" class="st4"/>
			</g>
			<g id="shape15-31" v:mID="15" v:groupContext="shape" v:layerMember="0" transform="translate(3.52941,-4.23529)">
				<title>Sheet.15</title>
				<rect x="0" y="790.588" width="6" height="1.41176" class="st4"/>
			</g>
		</g>
		<g id="shape16-33" v:mID="16" v:groupContext="shape" transform="translate(-569.906,116.503) rotate(-90)">
			<title>Activation.430</title>
			<v:userDefs>
				<v:ud v:nameU="visVersion" v:prompt="" v:val="VT0(15):26"/>
			</v:userDefs>
			<rect x="0" y="783.496" width="22.4583" height="8.50394" class="st5"/>
		</g>
		<g id="shape17-35" v:mID="17" v:groupContext="shape" v:layerMember="1" transform="translate(213.591,-688.135)">
			<title>Return Message.431</title>
			<v:userDefs>
				<v:ud v:nameU="IsReturn" v:prompt="" v:val="VT0(1):5"/>
				<v:ud v:nameU="IsAsync" v:prompt="" v:val="VT0(0):5"/>
				<v:ud v:nameU="IsSelfMessage" v:prompt="" v:val="VT0(0):5"/>
				<v:ud v:nameU="visVersion" v:prompt="" v:val="VT0(15):26"/>
			</v:userDefs>
			<path d="M0 800.18 L-144.14 801.82" class="st6"/>
		</g>
		<g id="shape18-41" v:mID="18" v:groupContext="shape" transform="translate(-569.209,272.22) rotate(-90)">
			<title>Activation.432</title>
			<v:userDefs>
				<v:ud v:nameU="visVersion" v:prompt="" v:val="VT0(15):26"/>
			</v:userDefs>
			<rect x="0" y="783.496" width="107.706" height="8.50394" class="st5"/>
		</g>
		<g id="shape19-43" v:mID="19" v:groupContext="shape" transform="translate(232.74,-605.133)">
			<title>Sheet.19</title>
			<desc>Download image from URL</desc>
			<v:textBlock v:margins="rect(0,0,0,0)"/>
			<v:textRect cx="37.1339" cy="788" width="74.27" height="8"/>
			<rect x="0" y="784" width="74.2677" height="8" class="st8"/>
			<text x="9.75" y="785.6" class="st9" v:langID="1033"><v:paragraph v:horizAlign="1"/><v:tabList/>Download image<v:newlineChar/><tspan
						x="20.99" dy="1.2em" class="st10"> </tspan>from URL</text>		</g>
		<g id="shape20-47" v:mID="20" v:groupContext="shape" v:layerMember="1" transform="translate(60.2505,-669.937)">
			<title>Self Message.435</title>
			<v:userDefs>
				<v:ud v:nameU="IsReturn" v:prompt="" v:val="VT0(0):5"/>
				<v:ud v:nameU="IsAsync" v:prompt="" v:val="VT0(0):26"/>
				<v:ud v:nameU="IsSelfMessage" v:prompt="" v:val="VT0(1):5"/>
				<v:ud v:nameU="visVersion" v:prompt="" v:val="VT0(15):26"/>
			</v:userDefs>
			<path d="M8.8 792 L27.2 792 L27.2 819.62 L17.68 819.62" class="st11"/>
		</g>
		<g id="shape21-53" v:mID="21" v:groupContext="shape" transform="translate(91.398,-648.667)">
			<title>Sheet.21</title>
			<desc>If SONiC version != target version, need to upgrade</desc>
			<v:textBlock v:margins="rect(0,0,0,0)"/>
			<v:textRect cx="37.1339" cy="788" width="74.27" height="8"/>
			<rect x="0" y="784" width="74.2677" height="8" class="st8"/>
			<text x="6.89" y="780.8" class="st9" v:langID="1033"><v:paragraph v:horizAlign="1"/><v:tabList/>If SONiC version != <tspan
						x="0.04" dy="1.2em" class="st10">target version, need to </tspan><tspan x="23.65" dy="1.2em" class="st10">upgrade</tspan></text>		</g>
		<g id="group22-58" transform="translate(31.6417,-711.082)" v:mID="22" v:groupContext="group">
			<v:userDefs>
				<v:ud v:nameU="visVersion" v:prompt="" v:val="VT0(15):26"/>
				<v:ud v:nameU="ShowActor" v:prompt="" v:val="VT0(0):5"/>
				<v:ud v:nameU="ShowDestruction" v:prompt="" v:val="VT0(0):5"/>
			</v:userDefs>
			<title>Object lifeline.437</title>
			<desc>GNOI/GNMI client</desc>
			<g id="shape23-59" v:mID="23" v:groupContext="shape" transform="translate(8.50394,0)">
				<title>Sheet.23</title>
				<rect x="0" y="766.488" width="51.0236" height="25.5118" class="st1"/>
			</g>
			<g id="shape24-61" v:mID="24" v:groupContext="shape" transform="translate(25.5118,-29.0551)">
				<title>Sheet.24</title>
				<path d="M8.5 792 a0 0 0 1 1 0 0 a0 0 0 1 1 0 0 Z" class="st1"/>
			</g>
			<g id="shape25-63" v:mID="25" v:groupContext="shape" transform="translate(22.6772,457.232)">
				<title>Sheet.25</title>
			</g>
			<g id="shape26-65" v:mID="26" v:groupContext="shape" transform="translate(826.016,792) rotate(90)">
				<title>Sheet.26</title>
				<path d="M0 792 L439.62 792" class="st2"/>
			</g>
			<g id="shape22-68" v:mID="22" v:groupContext="groupContent">
				<v:textBlock v:margins="rect(4,4,4,4)" v:tabSpace="42.5197"/>
				<v:textRect cx="34.0157" cy="779.244" width="68.04" height="25.5118"/>
				<rect x="0" y="766.488" width="68.0315" height="25.5118" class="st1"/>
				<text x="13.6" y="776.84" class="st3" v:langID="1033"><v:paragraph v:horizAlign="1"/><v:tabList/>GNOI/GNMI <tspan
							x="24.83" dy="1.2em" class="st10">client</tspan></text>			</g>
		</g>
		<g id="group27-72" transform="translate(54.1575,-740.184)" v:mID="27" v:groupContext="group" v:layerMember="0">
			<v:userDefs>
				<v:ud v:nameU="visVersion" v:prompt="" v:val="VT0(17):26"/>
				<v:ud v:nameU="visAltText" v:prompt="" v:val="VT4(User)"/>
				<v:ud v:nameU="visAltDescription" v:prompt="" v:val="VT4(User Icon.)"/>
				<v:ud v:nameU="Font" v:prompt="" v:val="VT0(243):26"/>
			</v:userDefs>
			<title>User.442</title>
			<g id="group28-73" v:mID="28" v:groupContext="group" v:layerMember="0">
				<title>Sheet.28</title>
				<g id="shape29-74" v:mID="29" v:groupContext="shape" v:layerMember="0" transform="translate(5.75,-12.7059)">
					<title>Sheet.29</title>
					<ellipse cx="5.75" cy="786.353" rx="5.75" ry="5.64706" class="st4"/>
				</g>
				<g id="shape30-76" v:mID="30" v:groupContext="shape" v:layerMember="0">
					<title>Sheet.30</title>
					<path d="M23 792 L23 786.35 C23 785.51 22.57 784.66 21.85 784.09 C20.27 782.82 18.26 781.98 16.24 781.41 C14.81
								 780.99 13.22 780.71 11.5 780.71 C9.92 780.71 8.34 780.99 6.76 781.41 C4.74 781.98 2.73 782.96 1.15
								 784.09 C0.43 784.66 0 785.51 0 786.35 L0 792 L23 792 Z" class="st4"/>
				</g>
			</g>
		</g>
		<g id="shape31-78" v:mID="31" v:groupContext="shape" transform="translate(-722.548,507.684) rotate(-90)">
			<title>Activation.446</title>
			<v:userDefs>
				<v:ud v:nameU="visVersion" v:prompt="" v:val="VT0(15):26"/>
			</v:userDefs>
			<rect x="0" y="783.496" width="411.998" height="8.50394" class="st5"/>
		</g>
		<g id="shape32-80" v:mID="32" v:groupContext="shape" v:layerMember="1" transform="translate(69.4522,-688.135)">
			<title>Message.448</title>
			<desc>GNMI get request Get SONiC version</desc>
			<v:userDefs>
				<v:ud v:nameU="IsReturn" v:prompt="" v:val="VT0(0):5"/>
				<v:ud v:nameU="IsAsync" v:prompt="" v:val="VT0(0):5"/>
				<v:ud v:nameU="IsSelfMessage" v:prompt="" v:val="VT0(0):5"/>
				<v:ud v:nameU="visVersion" v:prompt="" v:val="VT0(15):26"/>
			</v:userDefs>
			<v:textBlock v:margins="rect(4,4,4,4)" v:tabSpace="42.5197"/>
			<v:textRect cx="72.0692" cy="783" width="69.15" height="27.2035"/>
			<path d="M0 783.82 L135.66 782.28" class="st11"/>
			<rect v:rectContext="textBkgnd" x="42.4034" y="773.4" width="59.3317" height="19.1997" class="st12"/>
			<text x="43.03" y="780.6" class="st13" v:langID="1033"><v:paragraph v:horizAlign="1"/><v:tabList/>GNMI get request<v:newlineChar/><tspan
						x="42.4" dy="1.2em" class="st10">Get SONiC version</tspan></text>		</g>
		<g id="shape33-88" v:mID="33" v:groupContext="shape" v:layerMember="1" transform="translate(69.4522,-632.735)">
			<title>Message.451</title>
			<desc>GNOI system.SetPackage install/activate new SONiC image</desc>
			<v:userDefs>
				<v:ud v:nameU="IsReturn" v:prompt="" v:val="VT0(0):5"/>
				<v:ud v:nameU="IsAsync" v:prompt="" v:val="VT0(0):5"/>
				<v:ud v:nameU="IsSelfMessage" v:prompt="" v:val="VT0(0):5"/>
				<v:ud v:nameU="visVersion" v:prompt="" v:val="VT0(15):26"/>
			</v:userDefs>
			<v:textBlock v:margins="rect(4,4,4,4)" v:tabSpace="42.5197"/>
			<v:textRect cx="73.4097" cy="801" width="117.46" height="27.2035"/>
			<path d="M0 800.42 L138.34 801.51" class="st11"/>
			<rect v:rectContext="textBkgnd" x="19.5864" y="791.4" width="107.647" height="19.1997" class="st12"/>
			<text x="32.82" y="798.6" class="st13" v:langID="1033"><v:paragraph v:horizAlign="1"/><v:tabList/>GNOI system.SetPackage<v:newlineChar/><tspan
						x="19.59" dy="1.2em" class="st10">install/activate new SONiC image</tspan></text>		</g>
		<g id="group34-96" transform="translate(456.839,-740.604)" v:mID="34" v:groupContext="group" v:layerMember="0">
			<v:userDefs>
				<v:ud v:nameU="visVersion" v:prompt="" v:val="VT0(17):26"/>
				<v:ud v:nameU="visAltText" v:prompt="" v:val="VT4(Database)"/>
				<v:ud v:nameU="visAltDescription" v:prompt="" v:val="VT4(Database Icon.)"/>
				<v:ud v:nameU="Font" v:prompt="" v:val="VT0(243):26"/>
			</v:userDefs>
			<title>Database.462</title>
			<g id="group35-97" v:mID="35" v:groupContext="group" v:layerMember="0">
				<title>Sheet.35</title>
				<g id="shape36-98" v:mID="36" v:groupContext="shape" v:layerMember="0" transform="translate(0,-18.9474)">
					<title>Sheet.36</title>
					<ellipse cx="9" cy="789.474" rx="9" ry="2.52632" class="st4"/>
				</g>
				<g id="shape37-100" v:mID="37" v:groupContext="shape" v:layerMember="0" transform="translate(0,-12.6316)">
					<title>Sheet.37</title>
					<path d="M15.43 789.47 C15.04 789.47 14.79 789.22 14.79 788.84 C14.79 788.46 15.04 788.21 15.43 788.21 C15.81
								 788.21 16.07 788.46 16.07 788.84 C16.07 789.22 15.81 789.47 15.43 789.47 ZM9 786.95 C4.05 786.95
								 0 785.81 0 784.42 L0 789.47 C0 790.86 4.05 792 9 792 C13.95 792 18 790.86 18 789.47 L18 784.42 C18
								 785.81 13.95 786.95 9 786.95 Z" class="st4"/>
				</g>
				<g id="shape38-102" v:mID="38" v:groupContext="shape" v:layerMember="0" transform="translate(0,-6.31579)">
					<title>Sheet.38</title>
					<path d="M15.43 789.47 C15.04 789.47 14.79 789.22 14.79 788.84 C14.79 788.46 15.04 788.21 15.43 788.21 C15.81
								 788.21 16.07 788.46 16.07 788.84 C16.07 789.22 15.81 789.47 15.43 789.47 ZM9 786.95 C4.05 786.95
								 0 785.81 0 784.42 L0 789.47 C0 790.86 4.05 792 9 792 C13.95 792 18 790.86 18 789.47 L18 784.42 C18
								 785.81 13.95 786.95 9 786.95 Z" class="st4"/>
				</g>
				<g id="shape39-104" v:mID="39" v:groupContext="shape" v:layerMember="0">
					<title>Sheet.39</title>
					<path d="M15.43 789.47 C15.04 789.47 14.79 789.22 14.79 788.84 C14.79 788.46 15.04 788.21 15.43 788.21 C15.81
								 788.21 16.07 788.46 16.07 788.84 C16.07 789.22 15.81 789.47 15.43 789.47 ZM9 786.95 C4.05 786.95
								 0 785.81 0 784.42 L0 789.47 C0 790.86 4.05 792 9 792 C13.95 792 18 790.86 18 789.47 L18 784.42 C18
								 785.81 13.95 786.95 9 786.95 Z" class="st4"/>
				</g>
			</g>
		</g>
		<g id="group40-106" transform="translate(423.319,-710.368)" v:mID="40" v:groupContext="group">
			<v:userDefs>
				<v:ud v:nameU="visVersion" v:prompt="" v:val="VT0(15):26"/>
				<v:ud v:nameU="ShowActor" v:prompt="" v:val="VT0(0):5"/>
				<v:ud v:nameU="ShowDestruction" v:prompt="" v:val="VT0(0):5"/>
			</v:userDefs>
			<title>Object lifeline.468</title>
			<desc>database</desc>
			<g id="shape41-107" v:mID="41" v:groupContext="shape" transform="translate(17.0079,0)">
				<title>Sheet.41</title>
				<rect x="0" y="766.488" width="51.0236" height="25.5118" class="st1"/>
			</g>
			<g id="shape42-109" v:mID="42" v:groupContext="shape" transform="translate(34.0157,-29.0551)">
				<title>Sheet.42</title>
				<path d="M8.5 792 a0 0 0 1 1 0 0 a0 0 0 1 1 0 0 Z" class="st1"/>
			</g>
			<g id="shape43-111" v:mID="43" v:groupContext="shape" transform="translate(28.3465,453.683)">
				<title>Sheet.43</title>
			</g>
			<g id="shape44-113" v:mID="44" v:groupContext="shape" transform="translate(834.52,792) rotate(90)">
				<title>Sheet.44</title>
				<path d="M0 792 L436.07 792" class="st2"/>
			</g>
			<g id="shape40-116" v:mID="40" v:groupContext="groupContent">
				<v:textBlock v:margins="rect(4,4,4,4)" v:tabSpace="42.5197"/>
				<v:textRect cx="42.5197" cy="779.244" width="85.04" height="25.5118"/>
				<rect x="0" y="766.488" width="85.0394" height="25.5118" class="st1"/>
				<text x="27.31" y="781.64" class="st3" v:langID="1033"><v:paragraph v:horizAlign="1"/><v:tabList/>database</text>			</g>
		</g>
		<g id="shape45-119" v:mID="45" v:groupContext="shape" transform="translate(-321.083,117.159) rotate(-90)">
			<title>Activation.473</title>
			<v:userDefs>
				<v:ud v:nameU="visVersion" v:prompt="" v:val="VT0(15):26"/>
			</v:userDefs>
			<rect x="0" y="783.496" width="22.4583" height="8.50394" class="st5"/>
		</g>
		<g id="shape46-121" v:mID="46" v:groupContext="shape" v:layerMember="1" transform="translate(222.094,-706.627)">
			<title>Message.474</title>
			<desc>Read StateDB</desc>
			<v:userDefs>
				<v:ud v:nameU="IsReturn" v:prompt="" v:val="VT0(0):5"/>
				<v:ud v:nameU="IsAsync" v:prompt="" v:val="VT0(0):5"/>
				<v:ud v:nameU="IsSelfMessage" v:prompt="" v:val="VT0(0):5"/>
				<v:ud v:nameU="visVersion" v:prompt="" v:val="VT0(15):26"/>
			</v:userDefs>
			<v:textBlock v:margins="rect(4,4,4,4)" v:tabSpace="42.5197"/>
			<v:textRect cx="120.159" cy="801" width="54.11" height="17.6036"/>
			<path d="M0 800.67 L231.84 801.31" class="st11"/>
			<rect v:rectContext="textBkgnd" x="98.0154" y="796.2" width="44.2884" height="9.59985" class="st12"/>
			<text x="98.02" y="803.4" class="st13" v:langID="1033"><v:paragraph v:horizAlign="1"/><v:tabList/>Read StateDB</text>		</g>
		<g id="shape47-128" v:mID="47" v:groupContext="shape" v:layerMember="1" transform="translate(462.413,-670.627)">
			<title>Return Message.475</title>
			<v:userDefs>
				<v:ud v:nameU="IsReturn" v:prompt="" v:val="VT0(1):5"/>
				<v:ud v:nameU="IsAsync" v:prompt="" v:val="VT0(0):5"/>
				<v:ud v:nameU="IsSelfMessage" v:prompt="" v:val="VT0(0):5"/>
				<v:ud v:nameU="visVersion" v:prompt="" v:val="VT0(15):26"/>
			</v:userDefs>
			<path d="M0 783.33 L-240.32 782.67" class="st6"/>
		</g>
		<g id="shape48-133" v:mID="48" v:groupContext="shape" v:layerMember="1" transform="translate(211.665,-621.833)">
			<title>Self Message.476</title>
			<v:userDefs>
				<v:ud v:nameU="IsReturn" v:prompt="" v:val="VT0(0):5"/>
				<v:ud v:nameU="IsAsync" v:prompt="" v:val="VT0(0):26"/>
				<v:ud v:nameU="IsSelfMessage" v:prompt="" v:val="VT0(1):5"/>
				<v:ud v:nameU="visVersion" v:prompt="" v:val="VT0(15):26"/>
			</v:userDefs>
			<path d="M6.87 792 L29.13 792 L29.13 822.35 L19.61 822.35" class="st11"/>
		</g>
		<g id="group49-138" transform="translate(304.902,-712.258)" v:mID="49" v:groupContext="group">
			<v:userDefs>
				<v:ud v:nameU="visVersion" v:prompt="" v:val="VT0(15):26"/>
				<v:ud v:nameU="ShowActor" v:prompt="" v:val="VT0(0):5"/>
				<v:ud v:nameU="ShowDestruction" v:prompt="" v:val="VT0(0):5"/>
			</v:userDefs>
			<title>Object lifeline.477</title>
			<desc>SONiC host services</desc>
			<g id="shape50-139" v:mID="50" v:groupContext="shape" transform="translate(17.0079,0)">
				<title>Sheet.50</title>
				<rect x="0" y="766.488" width="51.0236" height="25.5118" class="st1"/>
			</g>
			<g id="shape51-141" v:mID="51" v:groupContext="shape" transform="translate(34.0157,-29.0551)">
				<title>Sheet.51</title>
				<path d="M8.5 792 a0 0 0 1 1 0 0 a0 0 0 1 1 0 0 Z" class="st1"/>
			</g>
			<g id="shape52-143" v:mID="52" v:groupContext="shape" transform="translate(28.3465,461.526)">
				<title>Sheet.52</title>
			</g>
			<g id="shape53-145" v:mID="53" v:groupContext="shape" transform="translate(834.52,792) rotate(90)">
				<title>Sheet.53</title>
				<path d="M0 792 L443.91 792" class="st2"/>
			</g>
			<g id="shape49-148" v:mID="49" v:groupContext="groupContent">
				<v:textBlock v:margins="rect(4,4,4,4)" v:tabSpace="42.5197"/>
				<v:textRect cx="42.5197" cy="779.244" width="85.04" height="25.5118"/>
				<rect x="0" y="766.488" width="85.0394" height="25.5118" class="st1"/>
				<text x="9.91" y="781.64" class="st3" v:langID="1033"><v:paragraph v:horizAlign="1"/><v:tabList/>SONiC host services</text>			</g>
		</g>
		<g id="group54-151" transform="translate(336.65,-743.25)" v:mID="54" v:groupContext="group" v:layerMember="0">
			<v:userDefs>
				<v:ud v:nameU="visVersion" v:prompt="" v:val="VT0(17):26"/>
				<v:ud v:nameU="visAltText" v:prompt="" v:val="VT4(Script)"/>
				<v:ud v:nameU="visAltDescription" v:prompt="" v:val="VT4(Script Icon.)"/>
				<v:ud v:nameU="Font" v:prompt="" v:val="VT0(243):26"/>
			</v:userDefs>
			<title>Script.482</title>
			<g id="shape55-152" v:mID="55" v:groupContext="shape" v:layerMember="0">
				<title>Sheet.55</title>
				<path d="M21.88 789.18 C21.88 789.56 21.56 789.88 21.18 789.88 C20.79 789.88 20.47 789.56 20.47 789.18 L20.47 772.24
							 L21.88 772.24 L21.88 789.18 ZM2.82 789.88 C2.44 789.88 2.12 789.56 2.12 789.18 L2.12 770.12 L18.35 770.12
							 L18.35 789.18 C18.35 789.42 18.39 789.67 18.46 789.88 L2.82 789.88 ZM20.47 770.12 L20.47 768 L0 768
							 L0 789.18 C0 790.73 1.27 792 2.82 792 L21.18 792 C22.73 792 24 790.73 24 789.18 L24 770.12 L20.47 770.12
							 Z" class="st4"/>
			</g>
			<g id="shape56-154" v:mID="56" v:groupContext="shape" v:layerMember="0" transform="translate(3.52941,-18.3529)">
				<title>Sheet.56</title>
				<rect x="0" y="790.588" width="13.4118" height="1.41176" class="st4"/>
			</g>
			<g id="shape57-156" v:mID="57" v:groupContext="shape" v:layerMember="0" transform="translate(10.9412,-15.5294)">
				<title>Sheet.57</title>
				<rect x="0" y="790.588" width="6" height="1.41176" class="st4"/>
			</g>
			<g id="shape58-158" v:mID="58" v:groupContext="shape" v:layerMember="0" transform="translate(10.9412,-12.7059)">
				<title>Sheet.58</title>
				<rect x="0" y="790.588" width="6" height="1.41176" class="st4"/>
			</g>
			<g id="shape59-160" v:mID="59" v:groupContext="shape" v:layerMember="0" transform="translate(3.52941,-12.7059)">
				<title>Sheet.59</title>
				<rect x="0" y="787.765" width="6" height="4.23529" class="st4"/>
			</g>
			<g id="shape60-162" v:mID="60" v:groupContext="shape" v:layerMember="0" transform="translate(3.52941,-9.88235)">
				<title>Sheet.60</title>
				<rect x="0" y="790.588" width="13.4118" height="1.41176" class="st4"/>
			</g>
			<g id="shape61-164" v:mID="61" v:groupContext="shape" v:layerMember="0" transform="translate(10.9412,-4.23529)">
				<title>Sheet.61</title>
				<rect x="0" y="787.765" width="6" height="4.23529" class="st4"/>
			</g>
			<g id="shape62-166" v:mID="62" v:groupContext="shape" v:layerMember="0" transform="translate(3.52941,-7.05882)">
				<title>Sheet.62</title>
				<rect x="0" y="790.588" width="6" height="1.41176" class="st4"/>
			</g>
			<g id="shape63-168" v:mID="63" v:groupContext="shape" v:layerMember="0" transform="translate(3.52941,-4.23529)">
				<title>Sheet.63</title>
				<rect x="0" y="790.588" width="6" height="1.41176" class="st4"/>
			</g>
		</g>
		<g id="shape64-170" v:mID="64" v:groupContext="shape" transform="translate(-440.327,267.585) rotate(-90)">
			<title>Activation.492</title>
			<v:userDefs>
				<v:ud v:nameU="visVersion" v:prompt="" v:val="VT0(15):26"/>
			</v:userDefs>
			<rect x="0" y="783.496" width="44.8347" height="8.50394" class="st5"/>
		</g>
		<g id="shape65-172" v:mID="65" v:groupContext="shape" v:layerMember="1" transform="translate(225.307,-560.035)">
			<title>Message.493</title>
			<desc>DBUS install SONiC image</desc>
			<v:userDefs>
				<v:ud v:nameU="IsReturn" v:prompt="" v:val="VT0(0):5"/>
				<v:ud v:nameU="IsAsync" v:prompt="" v:val="VT0(0):5"/>
				<v:ud v:nameU="IsSelfMessage" v:prompt="" v:val="VT0(0):5"/>
				<v:ud v:nameU="visVersion" v:prompt="" v:val="VT0(15):26"/>
			</v:userDefs>
			<v:textBlock v:margins="rect(4,4,4,4)" v:tabSpace="42.5197"/>
			<v:textRect cx="58.9311" cy="783" width="72.83" height="27.2035"/>
			<path d="M0 783.22 L109.38 782.82" class="st11"/>
			<rect v:rectContext="textBkgnd" x="27.4259" y="773.4" width="63.0107" height="19.1997" class="st12"/>
			<text x="49.89" y="780.6" class="st13" v:langID="1033"><v:paragraph v:horizAlign="1"/><v:tabList/>DBUS<v:newlineChar/><tspan
						x="27.43" dy="1.2em" class="st10">install SONiC image</tspan></text>		</g>
		<g id="shape66-180" v:mID="66" v:groupContext="shape" transform="translate(369.972,-546.133)">
			<title>Sheet.66</title>
			<desc>Install SONiC image</desc>
			<v:textBlock v:margins="rect(0,0,0,0)"/>
			<v:textRect cx="37.1339" cy="788" width="74.27" height="8"/>
			<rect x="0" y="784" width="74.2677" height="8" class="st8"/>
			<text x="5.54" y="790.4" class="st9" v:langID="1033"><v:paragraph v:horizAlign="1"/><v:tabList/>Install SONiC image</text>		</g>
		<g id="shape67-183" v:mID="67" v:groupContext="shape" v:layerMember="1" transform="translate(361.476,-567.203)">
			<title>Self Message.495</title>
			<v:userDefs>
				<v:ud v:nameU="IsReturn" v:prompt="" v:val="VT0(0):5"/>
				<v:ud v:nameU="IsAsync" v:prompt="" v:val="VT0(0):26"/>
				<v:ud v:nameU="IsSelfMessage" v:prompt="" v:val="VT0(1):5"/>
				<v:ud v:nameU="visVersion" v:prompt="" v:val="VT0(15):26"/>
			</v:userDefs>
			<path d="M-8.2 792 L8.2 792 L8.2 834.79 L-1.32 834.79" class="st11"/>
		</g>
		<g id="shape68-188" v:mID="68" v:groupContext="shape" v:layerMember="1" transform="translate(342.13,-534.972)">
			<title>Return Message.496</title>
			<v:userDefs>
				<v:ud v:nameU="IsReturn" v:prompt="" v:val="VT0(1):5"/>
				<v:ud v:nameU="IsAsync" v:prompt="" v:val="VT0(0):5"/>
				<v:ud v:nameU="IsSelfMessage" v:prompt="" v:val="VT0(0):5"/>
				<v:ud v:nameU="visVersion" v:prompt="" v:val="VT0(15):26"/>
			</v:userDefs>
			<path d="M0 800.48 L-117.67 801.52" class="st6"/>
		</g>
		<g id="shape69-193" v:mID="69" v:groupContext="shape" v:layerMember="1" transform="translate(212.551,-516.45)">
			<title>Return Message.497</title>
			<v:userDefs>
				<v:ud v:nameU="IsReturn" v:prompt="" v:val="VT0(1):5"/>
				<v:ud v:nameU="IsAsync" v:prompt="" v:val="VT0(0):5"/>
				<v:ud v:nameU="IsSelfMessage" v:prompt="" v:val="VT0(0):5"/>
				<v:ud v:nameU="visVersion" v:prompt="" v:val="VT0(15):26"/>
			</v:userDefs>
			<path d="M0 783.28 L-144.57 782.72" class="st6"/>
		</g>
		<g id="shape70-198" v:mID="70" v:groupContext="shape" v:layerMember="1" transform="translate(71.9882,-456.829)">
			<title>Message.498</title>
			<desc>GNOI os.reboot Reboot SONiC</desc>
			<v:userDefs>
				<v:ud v:nameU="IsReturn" v:prompt="" v:val="VT0(0):5"/>
				<v:ud v:nameU="IsAsync" v:prompt="" v:val="VT0(0):5"/>
				<v:ud v:nameU="IsSelfMessage" v:prompt="" v:val="VT0(0):5"/>
				<v:ud v:nameU="visVersion" v:prompt="" v:val="VT0(15):26"/>
			</v:userDefs>
			<v:textBlock v:margins="rect(4,4,4,4)" v:tabSpace="42.5197"/>
			<v:textRect cx="71.0552" cy="783" width="60.61" height="27.2035"/>
			<path d="M0 783.73 L133.63 782.36" class="st11"/>
			<rect v:rectContext="textBkgnd" x="45.6608" y="773.4" width="50.789" height="19.1997" class="st12"/>
			<text x="45.66" y="780.6" class="st13" v:langID="1033"><v:paragraph v:horizAlign="1"/><v:tabList/>GNOI os.reboot<v:newlineChar/><tspan
						x="47.31" dy="1.2em" class="st10"> </tspan>Reboot SONiC</text>		</g>
		<g id="shape71-206" v:mID="71" v:groupContext="shape" transform="translate(-569.123,364.409) rotate(-90.4374)">
			<title>Activation.500</title>
			<v:userDefs>
				<v:ud v:nameU="visVersion" v:prompt="" v:val="VT0(15):26"/>
			</v:userDefs>
			<rect x="0" y="783.496" width="32.9852" height="8.50394" class="st5"/>
		</g>
		<g id="shape72-208" v:mID="72" v:groupContext="shape" transform="translate(-440.646,395.81) rotate(-90)">
			<title>Activation.501</title>
			<v:userDefs>
				<v:ud v:nameU="visVersion" v:prompt="" v:val="VT0(15):26"/>
			</v:userDefs>
			<rect x="0" y="783.496" width="40.0207" height="8.50394" class="st5"/>
		</g>
		<g id="shape73-210" v:mID="73" v:groupContext="shape" v:layerMember="1" transform="translate(222.472,-424.04)">
			<title>Message.502</title>
			<desc>DBUS Reboot SONiC</desc>
			<v:userDefs>
				<v:ud v:nameU="IsReturn" v:prompt="" v:val="VT0(0):5"/>
				<v:ud v:nameU="IsAsync" v:prompt="" v:val="VT0(0):5"/>
				<v:ud v:nameU="IsSelfMessage" v:prompt="" v:val="VT0(0):5"/>
				<v:ud v:nameU="visVersion" v:prompt="" v:val="VT0(15):26"/>
			</v:userDefs>
			<v:textBlock v:margins="rect(4,4,4,4)" v:tabSpace="42.5197"/>
			<v:textRect cx="59.1024" cy="783" width="55.51" height="27.2035"/>
			<path d="M0 783 L109.72 783" class="st11"/>
			<rect v:rectContext="textBkgnd" x="36.257" y="773.4" width="45.691" height="19.1997" class="st12"/>
			<text x="50.06" y="780.6" class="st13" v:langID="1033"><v:paragraph v:horizAlign="1"/><v:tabList/>DBUS<v:newlineChar/><tspan
						x="36.26" dy="1.2em" class="st10">Reboot SONiC</tspan></text>		</g>
		<g id="shape74-218" v:mID="74" v:groupContext="shape" v:layerMember="1" transform="translate(360.685,-437.009)">
			<title>Self Message.503</title>
			<v:userDefs>
				<v:ud v:nameU="IsReturn" v:prompt="" v:val="VT0(0):5"/>
				<v:ud v:nameU="IsAsync" v:prompt="" v:val="VT0(0):26"/>
				<v:ud v:nameU="IsSelfMessage" v:prompt="" v:val="VT0(1):5"/>
				<v:ud v:nameU="visVersion" v:prompt="" v:val="VT0(15):26"/>
			</v:userDefs>
			<path d="M-8.67 792 L8.67 792 L8.67 828.8 L-0.85 828.8" class="st11"/>
		</g>
		<g id="shape75-223" v:mID="75" v:groupContext="shape" transform="translate(357.307,-412.442)">
			<title>Sheet.75</title>
			<desc>Reboot SONiC</desc>
			<v:textBlock v:margins="rect(0,0,0,0)"/>
			<v:textRect cx="37.1339" cy="788" width="74.27" height="8"/>
			<rect x="0" y="784" width="74.2677" height="8" class="st8"/>
			<text x="14.29" y="790.4" class="st9" v:langID="1033"><v:paragraph v:horizAlign="1"/><v:tabList/>Reboot SONiC</text>		</g>
		<g id="shape76-226" v:mID="76" v:groupContext="shape" v:layerMember="1" transform="translate(214.236,-439.877)">
			<title>Return Message.506</title>
			<v:userDefs>
				<v:ud v:nameU="IsReturn" v:prompt="" v:val="VT0(1):5"/>
				<v:ud v:nameU="IsAsync" v:prompt="" v:val="VT0(0):5"/>
				<v:ud v:nameU="IsSelfMessage" v:prompt="" v:val="VT0(0):5"/>
				<v:ud v:nameU="visVersion" v:prompt="" v:val="VT0(15):26"/>
			</v:userDefs>
			<path d="M0 783.32 L-144.83 782.68" class="st6"/>
		</g>
		<g id="shape77-231" v:mID="77" v:groupContext="shape" v:layerMember="1" transform="translate(67.7953,-350.215)">
			<title>Message.511</title>
			<desc>GNMI get request Get SONiC version</desc>
			<v:userDefs>
				<v:ud v:nameU="IsReturn" v:prompt="" v:val="VT0(0):5"/>
				<v:ud v:nameU="IsAsync" v:prompt="" v:val="VT0(0):5"/>
				<v:ud v:nameU="IsSelfMessage" v:prompt="" v:val="VT0(0):5"/>
				<v:ud v:nameU="visVersion" v:prompt="" v:val="VT0(15):26"/>
			</v:userDefs>
			<v:textBlock v:margins="rect(4,4,4,4)" v:tabSpace="42.5197"/>
			<v:textRect cx="72.0692" cy="783" width="69.15" height="27.2035"/>
			<path d="M0 783.82 L135.66 782.28" class="st11"/>
			<rect v:rectContext="textBkgnd" x="42.4034" y="773.4" width="59.3317" height="19.1997" class="st12"/>
			<text x="43.03" y="780.6" class="st13" v:langID="1033"><v:paragraph v:horizAlign="1"/><v:tabList/>GNMI get request<v:newlineChar/><tspan
						x="42.4" dy="1.2em" class="st10">Get SONiC version</tspan></text>		</g>
		<g id="shape78-239" v:mID="78" v:groupContext="shape" transform="translate(-569.528,452.881) rotate(-90)">
			<title>Activation.512</title>
			<v:userDefs>
				<v:ud v:nameU="visVersion" v:prompt="" v:val="VT0(15):26"/>
			</v:userDefs>
			<rect x="0" y="783.496" width="22.4583" height="8.50394" class="st5"/>
		</g>
		<g id="shape79-241" v:mID="79" v:groupContext="shape" v:layerMember="1" transform="translate(222.472,-370.249)">
			<title>Message.513</title>
			<desc>Read StateDB</desc>
			<v:userDefs>
				<v:ud v:nameU="IsReturn" v:prompt="" v:val="VT0(0):5"/>
				<v:ud v:nameU="IsAsync" v:prompt="" v:val="VT0(0):5"/>
				<v:ud v:nameU="IsSelfMessage" v:prompt="" v:val="VT0(0):5"/>
				<v:ud v:nameU="visVersion" v:prompt="" v:val="VT0(15):26"/>
			</v:userDefs>
			<v:textBlock v:margins="rect(4,4,4,4)" v:tabSpace="42.5197"/>
			<v:textRect cx="120.159" cy="801" width="54.11" height="17.6036"/>
			<path d="M0 800.67 L231.84 801.31" class="st11"/>
			<rect v:rectContext="textBkgnd" x="98.0154" y="796.2" width="44.2884" height="9.59985" class="st12"/>
			<text x="98.02" y="803.4" class="st13" v:langID="1033"><v:paragraph v:horizAlign="1"/><v:tabList/>Read StateDB</text>		</g>
		<g id="shape80-248" v:mID="80" v:groupContext="shape" v:layerMember="1" transform="translate(462.791,-334.249)">
			<title>Return Message.514</title>
			<v:userDefs>
				<v:ud v:nameU="IsReturn" v:prompt="" v:val="VT0(1):5"/>
				<v:ud v:nameU="IsAsync" v:prompt="" v:val="VT0(0):5"/>
				<v:ud v:nameU="IsSelfMessage" v:prompt="" v:val="VT0(0):5"/>
				<v:ud v:nameU="visVersion" v:prompt="" v:val="VT0(15):26"/>
			</v:userDefs>
			<path d="M0 783.33 L-240.32 782.67" class="st6"/>
		</g>
		<g id="shape81-253" v:mID="81" v:groupContext="shape" transform="translate(-322.724,450.991) rotate(-90)">
			<title>Activation.515</title>
			<v:userDefs>
				<v:ud v:nameU="visVersion" v:prompt="" v:val="VT0(15):26"/>
			</v:userDefs>
			<rect x="0" y="783.496" width="22.4583" height="8.50394" class="st5"/>
		</g>
		<g id="shape82-255" v:mID="82" v:groupContext="shape" v:layerMember="1" transform="translate(213.968,-334.663)">
			<title>Return Message.516</title>
			<v:userDefs>
				<v:ud v:nameU="IsReturn" v:prompt="" v:val="VT0(1):5"/>
				<v:ud v:nameU="IsAsync" v:prompt="" v:val="VT0(0):5"/>
				<v:ud v:nameU="IsSelfMessage" v:prompt="" v:val="VT0(0):5"/>
				<v:ud v:nameU="visVersion" v:prompt="" v:val="VT0(15):26"/>
			</v:userDefs>
			<path d="M0 783.09 L-145.42 782.91" class="st6"/>
		</g>
		<g id="shape83-260" v:mID="83" v:groupContext="shape" transform="translate(84.8031,-296.41)">
			<title>Sheet.83</title>
			<desc>If SONiC version == target version, Upgrade Successful</desc>
			<v:textBlock v:margins="rect(0,0,0,0)"/>
			<v:textRect cx="37.1339" cy="788" width="74.27" height="8"/>
			<rect x="0" y="784" width="74.2677" height="8" class="st8"/>
			<text x="6.2" y="780.8" class="st9" v:langID="1033"><v:paragraph v:horizAlign="1"/><v:tabList/>If SONiC version == <tspan
						x="13.48" dy="1.2em" class="st10">target version, </tspan><tspan x="5.6" dy="1.2em" class="st10">Upgrade Successful</tspan></text>		</g>
		<g id="shape84-265" v:mID="84" v:groupContext="shape" v:layerMember="1" transform="translate(60.6539,-318.314)">
			<title>Self Message.518</title>
			<v:userDefs>
				<v:ud v:nameU="IsReturn" v:prompt="" v:val="VT0(0):5"/>
				<v:ud v:nameU="IsAsync" v:prompt="" v:val="VT0(0):26"/>
				<v:ud v:nameU="IsSelfMessage" v:prompt="" v:val="VT0(1):5"/>
				<v:ud v:nameU="visVersion" v:prompt="" v:val="VT0(15):26"/>
			</v:userDefs>
			<path d="M8.8 792 L27.2 792 L27.2 819.62 L17.68 819.62" class="st11"/>
		</g>
	</g>
</svg>
