<?xml version="1.0" encoding="UTF-8" standalone="no"?>
<!DOCTYPE svg PUBLIC "-//W3C//DTD SVG 1.1//EN" "http://www.w3.org/Graphics/SVG/1.1/DTD/svg11.dtd">
<!-- Generated by Microsoft Visio, SVG Export set_lock.svg Page-1 -->
<svg xmlns="http://www.w3.org/2000/svg" xmlns:xlink="http://www.w3.org/1999/xlink" xmlns:ev="http://www.w3.org/2001/xml-events"
		xmlns:v="http://schemas.microsoft.com/visio/2003/SVGExtensions/" width="11.6929in" height="8.26772in"
		viewBox="0 0 841.89 595.276" xml:space="preserve" color-interpolation-filters="sRGB" class="st12">
	<v:documentProperties v:langID="1033" v:metric="true" v:viewMarkup="false">
		<v:userDefs>
			<v:ud v:nameU="msvNoAutoConnect" v:val="VT0(1):26"/>
			<v:ud v:nameU="msvNoApplyDataGraphicAfterLink" v:val="VT0(1):5"/>
			<v:ud v:nameU="msvNoSubprocess" v:prompt="" v:val="VT0(1):26"/>
		</v:userDefs>
	</v:documentProperties>

	<style type="text/css">
	<![CDATA[
		.st1 {fill:#4672c4;stroke:#c7c8c8;stroke-width:0.25}
		.st2 {stroke:#4672c4;stroke-dasharray:7,5;stroke-linecap:round;stroke-linejoin:round;stroke-width:1}
		.st3 {fill:#feffff;font-family:Calibri;font-size:0.666664em;font-weight:bold}
		.st4 {fill:#4672c4;stroke:#4672c4;stroke-linecap:round;stroke-linejoin:round;stroke-width:1}
		.st5 {marker-end:url(#mrkr4-34);stroke:#4672c4;stroke-linecap:round;stroke-linejoin:round;stroke-width:1}
		.st6 {fill:#4672c4;fill-opacity:1;stroke:#4672c4;stroke-opacity:1;stroke-width:0.23584905660377}
		.st7 {fill:#ffffff;stroke:none;stroke-linecap:butt;stroke-width:7.2}
		.st8 {fill:#3d64ac;font-family:Calibri;font-size:0.666664em}
		.st9 {font-size:1em}
		.st10 {fill:#718bcc;stroke:#718bcc;stroke-linecap:round;stroke-linejoin:round;stroke-width:0.25}
		.st11 {marker-end:url(#mrkr3-174);stroke:#4672c4;stroke-dasharray:7,5;stroke-linecap:round;stroke-linejoin:round;stroke-width:1}
		.st12 {fill:none;fill-rule:evenodd;font-size:12px;overflow:visible;stroke-linecap:square;stroke-miterlimit:3}
	]]>
	</style>

	<defs id="Markers">
		<g id="lend4">
			<path d="M 2 1 L 0 0 L 2 -1 L 2 1 " style="stroke:none"/>
		</g>
		<marker id="mrkr4-34" class="st6" v:arrowType="4" v:arrowSize="3" v:setback="8.48" refX="-8.48" orient="auto"
				markerUnits="strokeWidth" overflow="visible">
			<use xlink:href="#lend4" transform="scale(-4.24,-4.24) "/>
		</marker>
		<g id="lend3">
			<path d="M 2 1 L 0 0 L 2 -1 " style="stroke-linecap:round;stroke-linejoin:round;fill:none"/>
		</g>
		<marker id="mrkr3-174" class="st6" v:arrowType="3" v:arrowSize="3" orient="auto" markerUnits="strokeWidth"
				overflow="visible">
			<use xlink:href="#lend3" transform="scale(-4.24,-4.24) "/>
		</marker>
	</defs>
	<g v:mID="0" v:index="1" v:groupContext="foregroundPage">
		<v:custProps>
			<v:cp v:nameU="SymbolHeight" v:lbl="Time Symbol Height" v:type="2" v:format="" v:sortKey="" v:langID="0" v:cal="0"
					v:val="VT0(0.11811023622047):24"/>
			<v:cp v:nameU="NormalHeight" v:lbl="Normal Task Bar Height" v:type="2" v:format="" v:sortKey="" v:langID="0" v:cal="0"
					v:val="VT0(0.11811023622047):24"/>
			<v:cp v:nameU="SummaryHeight" v:lbl="Summary Task Bar Height" v:type="2" v:format="" v:sortKey="" v:langID="0"
					v:cal="0" v:val="VT0(0.078740157480315):24"/>
			<v:cp v:nameU="NormalPercentHeight" v:lbl="Normal Task Bar Percent Complete Height" v:type="2" v:format="" v:sortKey=""
					v:langID="0" v:cal="0" v:val="VT0(0.078740157480315):24"/>
			<v:cp v:nameU="SummaryPercentHeight" v:lbl="Summary Task Bar Percent Complete Height" v:type="2" v:format=""
					v:sortKey="" v:langID="0" v:cal="0" v:val="VT0(0.078740157480315):24"/>
			<v:cp v:nameU="TaskLeftText" v:lbl="Task Left Text" v:type="1"
					v:format="None;Start Date;End Date;Duration;Resource;Percent Complete" v:sortKey="" v:invis="true" v:langID="0"
					v:cal="0" v:val="VT4(None)"/>
			<v:cp v:nameU="TaskRightText" v:lbl="Task Right Text" v:type="1"
					v:format="None;Start Date;End Date;Duration;Resource;Percent Complete" v:sortKey="" v:invis="true" v:langID="0"
					v:cal="0" v:val="VT4(None)"/>
			<v:cp v:nameU="TaskInnerText" v:lbl="Task Inner Text" v:type="1"
					v:format="None;Start Date;End Date;Duration;Resource;Percent Complete" v:sortKey="" v:invis="true" v:langID="0"
					v:cal="0" v:val="VT4(None)"/>
			<v:cp v:nameU="MilestoneShape" v:lbl="Milestone Symbol" v:type="1"
					v:format="Diamond;Triangle Down;Triangle Up;Arrow Down;Arrow Up;Star;Circle" v:sortKey="" v:invis="true"
					v:langID="0" v:cal="0" v:val="VT4(Diamond)"/>
			<v:cp v:nameU="NormalTaskStartSym" v:lbl="Normal Task Start Symbol" v:type="1"
					v:format="Diamond;Triangle Down;Triangle Up;Arrow Down;Arrow Up;Star;Circle" v:sortKey="" v:invis="true"
					v:langID="0" v:cal="0" v:val="VT4(None)"/>
			<v:cp v:nameU="NormalTaskEndSym" v:lbl="Normal Task End Symbol" v:type="1"
					v:format="Diamond;Triangle Down;Triangle Up;Arrow Down;Arrow Up;Star;Circle" v:sortKey="" v:invis="true"
					v:langID="0" v:cal="0" v:val="VT4(None)"/>
			<v:cp v:nameU="SummaryTaskStartSym" v:lbl="Summary Task Start Symbol" v:type="1"
					v:format="Diamond;Triangle Down;Triangle Up;Arrow Down;Arrow Up;Star;Circle" v:sortKey="" v:invis="true"
					v:langID="0" v:cal="0" v:val="VT4(Triangle Down)"/>
			<v:cp v:nameU="SummaryTaskEndSym" v:lbl="Summary Task End Symbol" v:type="1"
					v:format="Diamond;Triangle Down;Triangle Up;Arrow Down;Arrow Up;Star;Circle" v:sortKey="" v:invis="true"
					v:langID="0" v:cal="0" v:val="VT4(Triangle Down)"/>
		</v:custProps>
		<v:userDefs>
			<v:ud v:nameU="TaskTextLeft" v:prompt="Determines the default text to the left of the task bar" v:val="VT0(0):26"/>
			<v:ud v:nameU="TaskTextRight" v:prompt="Determines the default text to the right of the task bar" v:val="VT0(0):26"/>
			<v:ud v:nameU="TaskTextInner" v:prompt="Determines the default text inside of the task bar" v:val="VT0(0):26"/>
			<v:ud v:nameU="MilestoneShape" v:prompt="Determines the default Milestone shape" v:val="VT0(0):26"/>
			<v:ud v:nameU="NormalTaskStartSym" v:prompt="Determines the Normal task start symbol shape" v:val="VT0(-1):26"/>
			<v:ud v:nameU="NormalTaskEndSym" v:prompt="Determines the Normal task end symbol shape" v:val="VT0(-1):26"/>
			<v:ud v:nameU="SummaryTaskStartSym" v:prompt="Determines the Summary task start symbol shape" v:val="VT0(1):26"/>
			<v:ud v:nameU="SummaryTaskEndSym" v:prompt="Determines the Summary task end symbol shape" v:val="VT0(1):26"/>
			<v:ud v:nameU="ConnectorType" v:prompt="Connector type, 0 = S, 1 = L" v:val="VT0(0):5"/>
			<v:ud v:nameU="PropertyFilter"
					v:prompt="Indicates which properties to show: 0 = All, 1 = Configure Timeline Symbols, 2 = Configure Task Bar Text, 3 = Configure Task Bar Sizes"
					v:val="VT0(1):26"/>
			<v:ud v:nameU="msvSDStructureDisabled" v:val="VT0(1):26"/>
			<v:ud v:nameU="msvThemeOrder" v:val="VT0(0):26"/>
		</v:userDefs>
		<title>Page-1</title>
		<v:pageProperties v:drawingScale="0.0393701" v:pageScale="0.0393701" v:drawingUnits="24" v:shadowOffsetX="8.50394"
				v:shadowOffsetY="-8.50394"/>
		<v:layer v:name="Connector" v:index="0"/>
		<v:layer v:name="Common Icons" v:index="1"/>
		<g id="group1-1" transform="translate(221.102,-454.961)" v:mID="1" v:groupContext="group">
			<v:userDefs>
				<v:ud v:nameU="visVersion" v:prompt="" v:val="VT0(15):26"/>
				<v:ud v:nameU="ShowActor" v:prompt="" v:val="VT0(0):5"/>
				<v:ud v:nameU="ShowDestruction" v:prompt="" v:val="VT0(0):5"/>
			</v:userDefs>
			<title>Object lifeline</title>
			<desc>GNMI client</desc>
			<g id="shape2-2" v:mID="2" v:groupContext="shape" transform="translate(8.50394,0)">
				<title>Sheet.2</title>
				<rect x="0" y="569.764" width="51.0236" height="25.5118" class="st1"/>
			</g>
			<g id="shape3-4" v:mID="3" v:groupContext="shape" transform="translate(25.5118,-29.0551)">
				<title>Sheet.3</title>
				<path d="M8.5 595.28 a0 0 0 1 1 0 0 a0 0 0 1 1 0 0 Z" class="st1"/>
			</g>
			<g id="shape4-6" v:mID="4" v:groupContext="shape" transform="translate(22.6772,292.576)">
				<title>Sheet.4</title>
			</g>
			<g id="shape5-8" v:mID="5" v:groupContext="shape" transform="translate(629.291,595.276) rotate(90)">
				<title>Sheet.5</title>
				<path d="M0 595.28 L274.96 595.28" class="st2"/>
			</g>
			<g id="shape1-11" v:mID="1" v:groupContext="groupContent">
				<v:textBlock v:margins="rect(4,4,4,4)" v:tabSpace="42.5197"/>
				<v:textRect cx="34.0157" cy="582.52" width="68.04" height="25.5118"/>
				<rect x="0" y="569.764" width="68.0315" height="25.5118" class="st1"/>
				<text x="14.18" y="584.92" class="st3" v:langID="2052"><v:paragraph v:horizAlign="1"/><v:tabList/>GNMI client</text>			</g>
		</g>
		<g id="group6-14" transform="translate(334.488,-454.961)" v:mID="6" v:groupContext="group">
			<v:userDefs>
				<v:ud v:nameU="visVersion" v:prompt="" v:val="VT0(15):26"/>
				<v:ud v:nameU="ShowActor" v:prompt="" v:val="VT0(0):5"/>
				<v:ud v:nameU="ShowDestruction" v:prompt="" v:val="VT0(0):5"/>
			</v:userDefs>
			<title>Object lifeline.6</title>
			<desc>GNMI Server</desc>
			<g id="shape7-15" v:mID="7" v:groupContext="shape" transform="translate(8.50394,0)">
				<title>Sheet.7</title>
				<rect x="0" y="569.764" width="51.0236" height="25.5118" class="st1"/>
			</g>
			<g id="shape8-17" v:mID="8" v:groupContext="shape" transform="translate(25.5118,-29.0551)">
				<title>Sheet.8</title>
				<path d="M8.5 595.28 a0 0 0 1 1 0 0 a0 0 0 1 1 0 0 Z" class="st1"/>
			</g>
			<g id="shape9-19" v:mID="9" v:groupContext="shape" transform="translate(22.6772,291.159)">
				<title>Sheet.9</title>
			</g>
			<g id="shape10-21" v:mID="10" v:groupContext="shape" transform="translate(629.291,595.276) rotate(90)">
				<title>Sheet.10</title>
				<path d="M0 595.28 L273.54 595.28" class="st2"/>
			</g>
			<g id="shape6-24" v:mID="6" v:groupContext="groupContent">
				<v:textBlock v:margins="rect(4,4,4,4)" v:tabSpace="42.5197"/>
				<v:textRect cx="34.0157" cy="582.52" width="68.04" height="25.5118"/>
				<rect x="0" y="569.764" width="68.0315" height="25.5118" class="st1"/>
				<text x="12.71" y="584.92" class="st3" v:langID="2052"><v:paragraph v:horizAlign="1"/><v:tabList/>GNMI Server</text>			</g>
		</g>
		<g id="shape11-27" v:mID="11" v:groupContext="shape" transform="translate(-222.52,169.622) rotate(-90)">
			<title>Activation</title>
			<v:userDefs>
				<v:ud v:nameU="visVersion" v:prompt="" v:val="VT0(15):26"/>
			</v:userDefs>
			<rect x="0" y="586.772" width="20.3119" height="8.50394" class="st4"/>
		</g>
		<g id="shape12-29" v:mID="12" v:groupContext="shape" v:layerMember="0" transform="translate(256.252,-436.535)">
			<title>Message</title>
			<desc>SetRequest 1</desc>
			<v:userDefs>
				<v:ud v:nameU="IsReturn" v:prompt="" v:val="VT0(0):5"/>
				<v:ud v:nameU="IsAsync" v:prompt="" v:val="VT0(0):5"/>
				<v:ud v:nameU="IsSelfMessage" v:prompt="" v:val="VT0(0):5"/>
				<v:ud v:nameU="visVersion" v:prompt="" v:val="VT0(15):26"/>
			</v:userDefs>
			<v:textBlock v:margins="rect(4,4,4,4)" v:tabSpace="42.5197"/>
			<v:textRect cx="54.0064" cy="588.189" width="52.54" height="17.6036"/>
			<path d="M0 588.19 L99.53 588.19" class="st5"/>
			<rect v:rectContext="textBkgnd" x="32.6474" y="583.389" width="42.7181" height="9.59985" class="st7"/>
			<text x="32.65" y="590.59" class="st8" v:langID="2052"><v:paragraph v:horizAlign="1"/><v:tabList/>Set<tspan class="st9"
						v:langID="1033">Request</tspan> 1</text>		</g>
		<g id="group16-38" transform="translate(243.618,-484.063)" v:mID="16" v:groupContext="group" v:layerMember="1">
			<v:userDefs>
				<v:ud v:nameU="visVersion" v:prompt="" v:val="VT0(17):26"/>
				<v:ud v:nameU="visAltText" v:prompt="" v:val="VT4(User)"/>
				<v:ud v:nameU="visAltDescription" v:prompt="" v:val="VT4(User Icon.)"/>
				<v:ud v:nameU="Font" v:prompt="" v:val="VT0(243):26"/>
			</v:userDefs>
			<title>User</title>
			<g id="group17-39" v:mID="17" v:groupContext="group" v:layerMember="1">
				<title>Sheet.17</title>
				<g id="shape18-40" v:mID="18" v:groupContext="shape" v:layerMember="1" transform="translate(5.75,-12.7059)">
					<title>Sheet.18</title>
					<ellipse cx="5.75" cy="589.629" rx="5.75" ry="5.64706" class="st10"/>
				</g>
				<g id="shape19-42" v:mID="19" v:groupContext="shape" v:layerMember="1">
					<title>Sheet.19</title>
					<path d="M23 595.28 L23 589.63 C23 588.78 22.57 587.93 21.85 587.37 C20.27 586.1 18.26 585.25 16.24 584.69 C14.81
								 584.26 13.22 583.98 11.5 583.98 C9.92 583.98 8.34 584.26 6.76 584.69 C4.74 585.25 2.73 586.24 1.15
								 587.37 C0.43 587.93 0 588.78 0 589.63 L0 595.28 L23 595.28 Z" class="st10"/>
				</g>
			</g>
		</g>
		<g id="group20-44" transform="translate(356.504,-484.063)" v:mID="20" v:groupContext="group" v:layerMember="1">
			<v:userDefs>
				<v:ud v:nameU="visVersion" v:prompt="" v:val="VT0(17):26"/>
				<v:ud v:nameU="visAltText" v:prompt="" v:val="VT4(Script)"/>
				<v:ud v:nameU="visAltDescription" v:prompt="" v:val="VT4(Script Icon.)"/>
				<v:ud v:nameU="Font" v:prompt="" v:val="VT0(243):26"/>
			</v:userDefs>
			<title>Script</title>
			<g id="shape21-45" v:mID="21" v:groupContext="shape" v:layerMember="1">
				<title>Sheet.21</title>
				<path d="M21.88 592.45 C21.88 592.84 21.56 593.16 21.18 593.16 C20.79 593.16 20.47 592.84 20.47 592.45 L20.47 575.51
							 L21.88 575.51 L21.88 592.45 ZM2.82 593.16 C2.44 593.16 2.12 592.84 2.12 592.45 L2.12 573.39 L18.35 573.39
							 L18.35 592.45 C18.35 592.7 18.39 592.95 18.46 593.16 L2.82 593.16 ZM20.47 573.39 L20.47 571.28 L0 571.28
							 L0 592.45 C0 594.01 1.27 595.28 2.82 595.28 L21.18 595.28 C22.73 595.28 24 594.01 24 592.45 L24 573.39
							 L20.47 573.39 Z" class="st10"/>
			</g>
			<g id="shape22-47" v:mID="22" v:groupContext="shape" v:layerMember="1" transform="translate(3.52941,-18.3529)">
				<title>Sheet.22</title>
				<rect x="0" y="593.864" width="13.4118" height="1.41176" class="st10"/>
			</g>
			<g id="shape23-49" v:mID="23" v:groupContext="shape" v:layerMember="1" transform="translate(10.9412,-15.5294)">
				<title>Sheet.23</title>
				<rect x="0" y="593.864" width="6" height="1.41176" class="st10"/>
			</g>
			<g id="shape24-51" v:mID="24" v:groupContext="shape" v:layerMember="1" transform="translate(10.9412,-12.7059)">
				<title>Sheet.24</title>
				<rect x="0" y="593.864" width="6" height="1.41176" class="st10"/>
			</g>
			<g id="shape25-53" v:mID="25" v:groupContext="shape" v:layerMember="1" transform="translate(3.52941,-12.7059)">
				<title>Sheet.25</title>
				<rect x="0" y="591.04" width="6" height="4.23529" class="st10"/>
			</g>
			<g id="shape26-55" v:mID="26" v:groupContext="shape" v:layerMember="1" transform="translate(3.52941,-9.88235)">
				<title>Sheet.26</title>
				<rect x="0" y="593.864" width="13.4118" height="1.41176" class="st10"/>
			</g>
			<g id="shape27-57" v:mID="27" v:groupContext="shape" v:layerMember="1" transform="translate(10.9412,-4.23529)">
				<title>Sheet.27</title>
				<rect x="0" y="591.04" width="6" height="4.23529" class="st10"/>
			</g>
			<g id="shape28-59" v:mID="28" v:groupContext="shape" v:layerMember="1" transform="translate(3.52941,-7.05882)">
				<title>Sheet.28</title>
				<rect x="0" y="593.864" width="6" height="1.41176" class="st10"/>
			</g>
			<g id="shape29-61" v:mID="29" v:groupContext="shape" v:layerMember="1" transform="translate(3.52941,-4.23529)">
				<title>Sheet.29</title>
				<rect x="0" y="593.864" width="6" height="1.41176" class="st10"/>
			</g>
		</g>
		<g id="group76-63" transform="translate(674.646,-454.961)" v:mID="76" v:groupContext="group">
			<v:userDefs>
				<v:ud v:nameU="visVersion" v:prompt="" v:val="VT0(15):26"/>
				<v:ud v:nameU="ShowActor" v:prompt="" v:val="VT0(0):5"/>
				<v:ud v:nameU="ShowDestruction" v:prompt="" v:val="VT0(0):5"/>
			</v:userDefs>
			<title>Object lifeline.76</title>
			<desc>Database</desc>
			<g id="shape77-64" v:mID="77" v:groupContext="shape" transform="translate(8.50394,0)">
				<title>Sheet.77</title>
				<rect x="0" y="569.764" width="51.0236" height="25.5118" class="st1"/>
			</g>
			<g id="shape78-66" v:mID="78" v:groupContext="shape" transform="translate(25.5118,-29.0551)">
				<title>Sheet.78</title>
				<path d="M8.5 595.28 a0 0 0 1 1 0 0 a0 0 0 1 1 0 0 Z" class="st1"/>
			</g>
			<g id="shape79-68" v:mID="79" v:groupContext="shape" transform="translate(22.6772,293.426)">
				<title>Sheet.79</title>
			</g>
			<g id="shape80-70" v:mID="80" v:groupContext="shape" transform="translate(629.291,595.276) rotate(90)">
				<title>Sheet.80</title>
				<path d="M0 595.28 L275.81 595.28" class="st2"/>
			</g>
			<g id="shape76-73" v:mID="76" v:groupContext="groupContent">
				<v:textBlock v:margins="rect(4,4,4,4)" v:tabSpace="42.5197"/>
				<v:textRect cx="34.0157" cy="582.52" width="68.04" height="25.5118"/>
				<rect x="0" y="569.764" width="68.0315" height="25.5118" class="st1"/>
				<text x="18.43" y="584.92" class="st3" v:langID="2052"><v:paragraph v:horizAlign="1"/><v:tabList/>Database</text>			</g>
		</g>
		<g id="group97-76" transform="translate(699.661,-484.063)" v:mID="97" v:groupContext="group" v:layerMember="1">
			<v:userDefs>
				<v:ud v:nameU="visVersion" v:prompt="" v:val="VT0(17):26"/>
				<v:ud v:nameU="visAltText" v:prompt="" v:val="VT4(Database)"/>
				<v:ud v:nameU="visAltDescription" v:prompt="" v:val="VT4(Database Icon.)"/>
				<v:ud v:nameU="Font" v:prompt="" v:val="VT0(243):26"/>
			</v:userDefs>
			<title>Database</title>
			<g id="group98-77" v:mID="98" v:groupContext="group" v:layerMember="1">
				<title>Sheet.98</title>
				<g id="shape99-78" v:mID="99" v:groupContext="shape" v:layerMember="1" transform="translate(0,-18.9474)">
					<title>Sheet.99</title>
					<ellipse cx="9" cy="592.749" rx="9" ry="2.52632" class="st10"/>
				</g>
				<g id="shape100-80" v:mID="100" v:groupContext="shape" v:layerMember="1" transform="translate(0,-12.6316)">
					<title>Sheet.100</title>
					<path d="M15.43 592.75 C15.04 592.75 14.79 592.5 14.79 592.12 C14.79 591.74 15.04 591.49 15.43 591.49 C15.81
								 591.49 16.07 591.74 16.07 592.12 C16.07 592.5 15.81 592.75 15.43 592.75 ZM9 590.22 C4.05 590.22
								 0 589.09 0 587.7 L0 592.75 C0 594.14 4.05 595.28 9 595.28 C13.95 595.28 18 594.14 18 592.75 L18
								 587.7 C18 589.09 13.95 590.22 9 590.22 Z" class="st10"/>
				</g>
				<g id="shape101-82" v:mID="101" v:groupContext="shape" v:layerMember="1" transform="translate(0,-6.31579)">
					<title>Sheet.101</title>
					<path d="M15.43 592.75 C15.04 592.75 14.79 592.5 14.79 592.12 C14.79 591.74 15.04 591.49 15.43 591.49 C15.81
								 591.49 16.07 591.74 16.07 592.12 C16.07 592.5 15.81 592.75 15.43 592.75 ZM9 590.22 C4.05 590.22
								 0 589.09 0 587.7 L0 592.75 C0 594.14 4.05 595.28 9 595.28 C13.95 595.28 18 594.14 18 592.75 L18
								 587.7 C18 589.09 13.95 590.22 9 590.22 Z" class="st10"/>
				</g>
				<g id="shape102-84" v:mID="102" v:groupContext="shape" v:layerMember="1">
					<title>Sheet.102</title>
					<path d="M15.43 592.75 C15.04 592.75 14.79 592.5 14.79 592.12 C14.79 591.74 15.04 591.49 15.43 591.49 C15.81
								 591.49 16.07 591.74 16.07 592.12 C16.07 592.5 15.81 592.75 15.43 592.75 ZM9 590.22 C4.05 590.22
								 0 589.09 0 587.7 L0 592.75 C0 594.14 4.05 595.28 9 595.28 C13.95 595.28 18 594.14 18 592.75 L18
								 587.7 C18 589.09 13.95 590.22 9 590.22 Z" class="st10"/>
				</g>
			</g>
		</g>
		<g id="group169-86" transform="translate(561.26,-454.961)" v:mID="169" v:groupContext="group">
			<v:userDefs>
				<v:ud v:nameU="visVersion" v:prompt="" v:val="VT0(15):26"/>
				<v:ud v:nameU="ShowActor" v:prompt="" v:val="VT0(0):5"/>
				<v:ud v:nameU="ShowDestruction" v:prompt="" v:val="VT0(0):5"/>
			</v:userDefs>
			<title>Object lifeline.169</title>
			<desc>GNMI Write Thread</desc>
			<g id="shape170-87" v:mID="170" v:groupContext="shape" transform="translate(8.50394,0)">
				<title>Sheet.170</title>
				<rect x="0" y="569.764" width="51.0236" height="25.5118" class="st1"/>
			</g>
			<g id="shape171-89" v:mID="171" v:groupContext="shape" transform="translate(25.5118,-29.0551)">
				<title>Sheet.171</title>
				<path d="M8.5 595.28 a0 0 0 1 1 0 0 a0 0 0 1 1 0 0 Z" class="st1"/>
			</g>
			<g id="shape172-91" v:mID="172" v:groupContext="shape" transform="translate(22.6772,292.576)">
				<title>Sheet.172</title>
			</g>
			<g id="shape173-93" v:mID="173" v:groupContext="shape" transform="translate(629.291,595.276) rotate(90)">
				<title>Sheet.173</title>
				<path d="M0 595.28 L274.96 595.28" class="st2"/>
			</g>
			<g id="shape169-96" v:mID="169" v:groupContext="groupContent">
				<v:textBlock v:margins="rect(4,4,4,4)" v:tabSpace="42.5197"/>
				<v:textRect cx="34.0157" cy="582.52" width="68.04" height="25.5118"/>
				<rect x="0" y="569.764" width="68.0315" height="25.5118" class="st1"/>
				<text x="13.94" y="580.12" class="st3" v:langID="2052"><v:paragraph v:horizAlign="1"/><v:tabList/>GNMI Write <tspan
							x="22.33" dy="1.2em" class="st9">Thread</tspan></text>			</g>
		</g>
		<g id="group174-100" transform="translate(583.276,-484.063)" v:mID="174" v:groupContext="group" v:layerMember="1">
			<v:userDefs>
				<v:ud v:nameU="visVersion" v:prompt="" v:val="VT0(17):26"/>
				<v:ud v:nameU="visAltText" v:prompt="" v:val="VT4(Script)"/>
				<v:ud v:nameU="visAltDescription" v:prompt="" v:val="VT4(Script Icon.)"/>
				<v:ud v:nameU="Font" v:prompt="" v:val="VT0(243):26"/>
			</v:userDefs>
			<title>Script.174</title>
			<g id="shape175-101" v:mID="175" v:groupContext="shape" v:layerMember="1">
				<title>Sheet.175</title>
				<path d="M21.88 592.45 C21.88 592.84 21.56 593.16 21.18 593.16 C20.79 593.16 20.47 592.84 20.47 592.45 L20.47 575.51
							 L21.88 575.51 L21.88 592.45 ZM2.82 593.16 C2.44 593.16 2.12 592.84 2.12 592.45 L2.12 573.39 L18.35 573.39
							 L18.35 592.45 C18.35 592.7 18.39 592.95 18.46 593.16 L2.82 593.16 ZM20.47 573.39 L20.47 571.28 L0 571.28
							 L0 592.45 C0 594.01 1.27 595.28 2.82 595.28 L21.18 595.28 C22.73 595.28 24 594.01 24 592.45 L24 573.39
							 L20.47 573.39 Z" class="st10"/>
			</g>
			<g id="shape176-103" v:mID="176" v:groupContext="shape" v:layerMember="1" transform="translate(3.52941,-18.3529)">
				<title>Sheet.176</title>
				<rect x="0" y="593.864" width="13.4118" height="1.41176" class="st10"/>
			</g>
			<g id="shape177-105" v:mID="177" v:groupContext="shape" v:layerMember="1" transform="translate(10.9412,-15.5294)">
				<title>Sheet.177</title>
				<rect x="0" y="593.864" width="6" height="1.41176" class="st10"/>
			</g>
			<g id="shape178-107" v:mID="178" v:groupContext="shape" v:layerMember="1" transform="translate(10.9412,-12.7059)">
				<title>Sheet.178</title>
				<rect x="0" y="593.864" width="6" height="1.41176" class="st10"/>
			</g>
			<g id="shape179-109" v:mID="179" v:groupContext="shape" v:layerMember="1" transform="translate(3.52941,-12.7059)">
				<title>Sheet.179</title>
				<rect x="0" y="591.04" width="6" height="4.23529" class="st10"/>
			</g>
			<g id="shape180-111" v:mID="180" v:groupContext="shape" v:layerMember="1" transform="translate(3.52941,-9.88235)">
				<title>Sheet.180</title>
				<rect x="0" y="593.864" width="13.4118" height="1.41176" class="st10"/>
			</g>
			<g id="shape181-113" v:mID="181" v:groupContext="shape" v:layerMember="1" transform="translate(10.9412,-4.23529)">
				<title>Sheet.181</title>
				<rect x="0" y="591.04" width="6" height="4.23529" class="st10"/>
			</g>
			<g id="shape182-115" v:mID="182" v:groupContext="shape" v:layerMember="1" transform="translate(3.52941,-7.05882)">
				<title>Sheet.182</title>
				<rect x="0" y="593.864" width="6" height="1.41176" class="st10"/>
			</g>
			<g id="shape183-117" v:mID="183" v:groupContext="shape" v:layerMember="1" transform="translate(3.52941,-4.23529)">
				<title>Sheet.183</title>
				<rect x="0" y="593.864" width="6" height="1.41176" class="st10"/>
			</g>
		</g>
		<g id="shape184-119" v:mID="184" v:groupContext="shape" v:layerMember="0" transform="translate(373.144,-429.874)">
			<title>Message.184</title>
			<desc>Enqueue</desc>
			<v:userDefs>
				<v:ud v:nameU="IsReturn" v:prompt="" v:val="VT0(0):5"/>
				<v:ud v:nameU="IsAsync" v:prompt="" v:val="VT0(0):5"/>
				<v:ud v:nameU="IsSelfMessage" v:prompt="" v:val="VT0(0):5"/>
				<v:ud v:nameU="visVersion" v:prompt="" v:val="VT0(15):26"/>
			</v:userDefs>
			<v:textBlock v:margins="rect(4,4,4,4)" v:tabSpace="42.5197"/>
			<v:textRect cx="54.3734" cy="588.189" width="40" height="17.6036"/>
			<path d="M0 588.19 L100.27 588.19" class="st5"/>
			<rect v:rectContext="textBkgnd" x="40.0339" y="583.389" width="28.6793" height="9.59985" class="st7"/>
			<text x="40.03" y="590.59" class="st8" v:langID="2052"><v:paragraph v:horizAlign="1"/><v:tabList/>Enqueue</text>		</g>
		<g id="shape195-126" v:mID="195" v:groupContext="shape" transform="translate(-222.642,194.768) rotate(-90)">
			<title>Activation.195</title>
			<v:userDefs>
				<v:ud v:nameU="visVersion" v:prompt="" v:val="VT0(15):26"/>
			</v:userDefs>
			<rect x="0" y="586.772" width="20.3119" height="8.50394" class="st4"/>
		</g>
		<g id="shape196-128" v:mID="196" v:groupContext="shape" v:layerMember="0" transform="translate(255.118,-411.874)">
			<title>Message.196</title>
			<desc>SetRequest 2</desc>
			<v:userDefs>
				<v:ud v:nameU="IsReturn" v:prompt="" v:val="VT0(0):5"/>
				<v:ud v:nameU="IsAsync" v:prompt="" v:val="VT0(0):5"/>
				<v:ud v:nameU="IsSelfMessage" v:prompt="" v:val="VT0(0):5"/>
				<v:ud v:nameU="visVersion" v:prompt="" v:val="VT0(15):26"/>
			</v:userDefs>
			<v:textBlock v:margins="rect(4,4,4,4)" v:tabSpace="42.5197"/>
			<v:textRect cx="54.5106" cy="588.189" width="52.54" height="17.6036"/>
			<path d="M0 588.19 L100.54 588.19" class="st5"/>
			<rect v:rectContext="textBkgnd" x="33.1516" y="583.389" width="42.7181" height="9.59985" class="st7"/>
			<text x="33.15" y="590.59" class="st8" v:langID="2052"><v:paragraph v:horizAlign="1"/><v:tabList/>Set<tspan class="st9"
						v:langID="1033">Request</tspan> 2</text>		</g>
		<g id="shape197-136" v:mID="197" v:groupContext="shape" v:layerMember="0" transform="translate(373.021,-404.728)">
			<title>Message.197</title>
			<desc>Enqueue</desc>
			<v:userDefs>
				<v:ud v:nameU="IsReturn" v:prompt="" v:val="VT0(0):5"/>
				<v:ud v:nameU="IsAsync" v:prompt="" v:val="VT0(0):5"/>
				<v:ud v:nameU="IsSelfMessage" v:prompt="" v:val="VT0(0):5"/>
				<v:ud v:nameU="visVersion" v:prompt="" v:val="VT0(15):26"/>
			</v:userDefs>
			<v:textBlock v:margins="rect(4,4,4,4)" v:tabSpace="42.5197"/>
			<v:textRect cx="54.4345" cy="588.189" width="40" height="17.6036"/>
			<path d="M0 588.19 L100.39 588.19" class="st5"/>
			<rect v:rectContext="textBkgnd" x="40.0949" y="583.389" width="28.6793" height="9.59985" class="st7"/>
			<text x="40.09" y="590.59" class="st8" v:langID="2052"><v:paragraph v:horizAlign="1"/><v:tabList/>Enqueue</text>		</g>
		<g id="shape198-143" v:mID="198" v:groupContext="shape" transform="translate(-222.259,221.71) rotate(-90)">
			<title>Activation.198</title>
			<v:userDefs>
				<v:ud v:nameU="visVersion" v:prompt="" v:val="VT0(15):26"/>
			</v:userDefs>
			<rect x="0" y="586.772" width="20.3119" height="8.50394" class="st4"/>
		</g>
		<g id="shape199-145" v:mID="199" v:groupContext="shape" v:layerMember="0" transform="translate(256.252,-384.661)">
			<title>Message.199</title>
			<desc>SetRequest 3</desc>
			<v:userDefs>
				<v:ud v:nameU="IsReturn" v:prompt="" v:val="VT0(0):5"/>
				<v:ud v:nameU="IsAsync" v:prompt="" v:val="VT0(0):5"/>
				<v:ud v:nameU="IsSelfMessage" v:prompt="" v:val="VT0(0):5"/>
				<v:ud v:nameU="visVersion" v:prompt="" v:val="VT0(15):26"/>
			</v:userDefs>
			<v:textBlock v:margins="rect(4,4,4,4)" v:tabSpace="42.5197"/>
			<v:textRect cx="54.1361" cy="588.189" width="52.54" height="17.6036"/>
			<path d="M0 588.19 L99.79 588.19" class="st5"/>
			<rect v:rectContext="textBkgnd" x="32.7772" y="583.389" width="42.7181" height="9.59985" class="st7"/>
			<text x="32.78" y="590.59" class="st8" v:langID="2052"><v:paragraph v:horizAlign="1"/><v:tabList/>Set<tspan class="st9"
						v:langID="1033">Request</tspan> 3</text>		</g>
		<g id="shape200-153" v:mID="200" v:groupContext="shape" v:layerMember="0" transform="translate(374.173,-377.008)">
			<title>Message.200</title>
			<desc>Enqueue</desc>
			<v:userDefs>
				<v:ud v:nameU="IsReturn" v:prompt="" v:val="VT0(0):5"/>
				<v:ud v:nameU="IsAsync" v:prompt="" v:val="VT0(0):5"/>
				<v:ud v:nameU="IsSelfMessage" v:prompt="" v:val="VT0(0):5"/>
				<v:ud v:nameU="visVersion" v:prompt="" v:val="VT0(15):26"/>
			</v:userDefs>
			<v:textBlock v:margins="rect(4,4,4,4)" v:tabSpace="42.5197"/>
			<v:textRect cx="53.8595" cy="588.189" width="40" height="17.6036"/>
			<path d="M0 588.19 L99.24 588.19" class="st5"/>
			<rect v:rectContext="textBkgnd" x="39.5199" y="583.389" width="28.6793" height="9.59985" class="st7"/>
			<text x="39.52" y="590.59" class="st8" v:langID="2052"><v:paragraph v:horizAlign="1"/><v:tabList/>Enqueue</text>		</g>
		<g id="shape147-160" v:mID="147" v:groupContext="shape" transform="translate(4.25197,230.315) rotate(-90)">
			<title>Activation.147</title>
			<v:userDefs>
				<v:ud v:nameU="visVersion" v:prompt="" v:val="VT0(15):26"/>
			</v:userDefs>
			<rect x="0" y="586.772" width="72" height="8.50394" class="st4"/>
		</g>
		<g id="shape192-162" v:mID="192" v:groupContext="shape" v:layerMember="0" transform="translate(600.945,-382.677)">
			<title>Message.192</title>
			<desc>Write database</desc>
			<v:userDefs>
				<v:ud v:nameU="IsReturn" v:prompt="" v:val="VT0(0):5"/>
				<v:ud v:nameU="IsAsync" v:prompt="" v:val="VT0(0):5"/>
				<v:ud v:nameU="IsSelfMessage" v:prompt="" v:val="VT0(0):5"/>
				<v:ud v:nameU="visVersion" v:prompt="" v:val="VT0(15):26"/>
			</v:userDefs>
			<v:textBlock v:margins="rect(4,4,4,4)" v:tabSpace="42.5197"/>
			<v:textRect cx="53.2913" cy="588.189" width="59.72" height="17.6036"/>
			<path d="M0 588.19 L98.1 588.19" class="st5"/>
			<rect v:rectContext="textBkgnd" x="28.3405" y="583.389" width="49.9018" height="9.59985" class="st7"/>
			<text x="28.34" y="590.59" class="st8" v:langID="2052"><v:paragraph v:horizAlign="1"/><v:tabList/>Write database</text>		</g>
		<g id="shape202-169" v:mID="202" v:groupContext="shape" v:layerMember="0" transform="translate(591.024,-357.874)">
			<title>Return Message.202</title>
			<desc>SetResponse 1</desc>
			<v:userDefs>
				<v:ud v:nameU="IsReturn" v:prompt="" v:val="VT0(1):5"/>
				<v:ud v:nameU="IsAsync" v:prompt="" v:val="VT0(0):5"/>
				<v:ud v:nameU="IsSelfMessage" v:prompt="" v:val="VT0(0):5"/>
				<v:ud v:nameU="visVersion" v:prompt="" v:val="VT0(15):26"/>
			</v:userDefs>
			<v:textBlock v:margins="rect(4,4,4,4)" v:tabSpace="42.5197"/>
			<v:textRect cx="-167.953" cy="588.189" width="57.2" height="17.6036"/>
			<path d="M0 588.19 L-335.91 588.19" class="st11"/>
			<rect v:rectContext="textBkgnd" x="-191.646" y="583.389" width="47.3862" height="9.59985" class="st7"/>
			<text x="-191.65" y="590.59" class="st8" v:langID="2052"><v:paragraph v:horizAlign="1"/><v:tabList/>SetResponse 1</text>		</g>
		<g id="group225-177" transform="translate(447.874,-454.961)" v:mID="225" v:groupContext="group">
			<v:userDefs>
				<v:ud v:nameU="visVersion" v:prompt="" v:val="VT0(15):26"/>
				<v:ud v:nameU="ShowActor" v:prompt="" v:val="VT0(0):5"/>
				<v:ud v:nameU="ShowDestruction" v:prompt="" v:val="VT0(0):5"/>
			</v:userDefs>
			<title>Object lifeline.225</title>
			<desc>GNMI Write Qeue</desc>
			<g id="shape226-178" v:mID="226" v:groupContext="shape" transform="translate(8.50394,0)">
				<title>Sheet.226</title>
				<rect x="0" y="569.764" width="51.0236" height="25.5118" class="st1"/>
			</g>
			<g id="shape227-180" v:mID="227" v:groupContext="shape" transform="translate(25.5118,-29.0551)">
				<title>Sheet.227</title>
				<path d="M8.5 595.28 a0 0 0 1 1 0 0 a0 0 0 1 1 0 0 Z" class="st1"/>
			</g>
			<g id="shape228-182" v:mID="228" v:groupContext="shape" transform="translate(22.6772,292.576)">
				<title>Sheet.228</title>
			</g>
			<g id="shape229-184" v:mID="229" v:groupContext="shape" transform="translate(629.291,595.276) rotate(90)">
				<title>Sheet.229</title>
				<path d="M0 595.28 L274.96 595.28" class="st2"/>
			</g>
			<g id="shape225-187" v:mID="225" v:groupContext="groupContent">
				<v:textBlock v:margins="rect(4,4,4,4)" v:tabSpace="42.5197"/>
				<v:textRect cx="34.0157" cy="582.52" width="68.04" height="25.5118"/>
				<rect x="0" y="569.764" width="68.0315" height="25.5118" class="st1"/>
				<text x="4.11" y="584.92" class="st3" v:langID="2052"><v:paragraph v:horizAlign="1"/><v:tabList/>GNMI Write Qeue</text>			</g>
		</g>
		<g id="group230-190" transform="translate(469.89,-484.063)" v:mID="230" v:groupContext="group" v:layerMember="1">
			<v:userDefs>
				<v:ud v:nameU="visVersion" v:prompt="" v:val="VT0(17):26"/>
				<v:ud v:nameU="visAltText" v:prompt="" v:val="VT4(Script)"/>
				<v:ud v:nameU="visAltDescription" v:prompt="" v:val="VT4(Script Icon.)"/>
				<v:ud v:nameU="Font" v:prompt="" v:val="VT0(243):26"/>
			</v:userDefs>
			<title>Script.230</title>
			<g id="shape231-191" v:mID="231" v:groupContext="shape" v:layerMember="1">
				<title>Sheet.231</title>
				<path d="M21.88 592.45 C21.88 592.84 21.56 593.16 21.18 593.16 C20.79 593.16 20.47 592.84 20.47 592.45 L20.47 575.51
							 L21.88 575.51 L21.88 592.45 ZM2.82 593.16 C2.44 593.16 2.12 592.84 2.12 592.45 L2.12 573.39 L18.35 573.39
							 L18.35 592.45 C18.35 592.7 18.39 592.95 18.46 593.16 L2.82 593.16 ZM20.47 573.39 L20.47 571.28 L0 571.28
							 L0 592.45 C0 594.01 1.27 595.28 2.82 595.28 L21.18 595.28 C22.73 595.28 24 594.01 24 592.45 L24 573.39
							 L20.47 573.39 Z" class="st10"/>
			</g>
			<g id="shape232-193" v:mID="232" v:groupContext="shape" v:layerMember="1" transform="translate(3.52941,-18.3529)">
				<title>Sheet.232</title>
				<rect x="0" y="593.864" width="13.4118" height="1.41176" class="st10"/>
			</g>
			<g id="shape233-195" v:mID="233" v:groupContext="shape" v:layerMember="1" transform="translate(10.9412,-15.5294)">
				<title>Sheet.233</title>
				<rect x="0" y="593.864" width="6" height="1.41176" class="st10"/>
			</g>
			<g id="shape234-197" v:mID="234" v:groupContext="shape" v:layerMember="1" transform="translate(10.9412,-12.7059)">
				<title>Sheet.234</title>
				<rect x="0" y="593.864" width="6" height="1.41176" class="st10"/>
			</g>
			<g id="shape235-199" v:mID="235" v:groupContext="shape" v:layerMember="1" transform="translate(3.52941,-12.7059)">
				<title>Sheet.235</title>
				<rect x="0" y="591.04" width="6" height="4.23529" class="st10"/>
			</g>
			<g id="shape236-201" v:mID="236" v:groupContext="shape" v:layerMember="1" transform="translate(3.52941,-9.88235)">
				<title>Sheet.236</title>
				<rect x="0" y="593.864" width="13.4118" height="1.41176" class="st10"/>
			</g>
			<g id="shape237-203" v:mID="237" v:groupContext="shape" v:layerMember="1" transform="translate(10.9412,-4.23529)">
				<title>Sheet.237</title>
				<rect x="0" y="591.04" width="6" height="4.23529" class="st10"/>
			</g>
			<g id="shape238-205" v:mID="238" v:groupContext="shape" v:layerMember="1" transform="translate(3.52941,-7.05882)">
				<title>Sheet.238</title>
				<rect x="0" y="593.864" width="6" height="1.41176" class="st10"/>
			</g>
			<g id="shape239-207" v:mID="239" v:groupContext="shape" v:layerMember="1" transform="translate(3.52941,-4.23529)">
				<title>Sheet.239</title>
				<rect x="0" y="593.864" width="6" height="1.41176" class="st10"/>
			</g>
		</g>
		<g id="shape240-209" v:mID="240" v:groupContext="shape" v:layerMember="0" transform="translate(590.246,-422.682)">
			<title>Message.240</title>
			<desc>Deque</desc>
			<v:userDefs>
				<v:ud v:nameU="IsReturn" v:prompt="" v:val="VT0(0):5"/>
				<v:ud v:nameU="IsAsync" v:prompt="" v:val="VT0(0):5"/>
				<v:ud v:nameU="IsSelfMessage" v:prompt="" v:val="VT0(0):5"/>
				<v:ud v:nameU="visVersion" v:prompt="" v:val="VT0(15):26"/>
			</v:userDefs>
			<v:textBlock v:margins="rect(4,4,4,4)" v:tabSpace="42.5197"/>
			<v:textRect cx="-54.5669" cy="588.189" width="40" height="17.6036"/>
			<path d="M0 588.19 L-100.65 588.19" class="st5"/>
			<rect v:rectContext="textBkgnd" x="-65.2112" y="583.389" width="21.2888" height="9.59985" class="st7"/>
			<text x="-65.21" y="590.59" class="st8" v:langID="2052"><v:paragraph v:horizAlign="1"/><v:tabList/>Deque</text>		</g>
		<g id="shape241-216" v:mID="241" v:groupContext="shape" v:layerMember="0" transform="translate(483.024,-402.52)">
			<title>Return Message.241</title>
			<v:userDefs>
				<v:ud v:nameU="IsReturn" v:prompt="" v:val="VT0(1):5"/>
				<v:ud v:nameU="IsAsync" v:prompt="" v:val="VT0(0):5"/>
				<v:ud v:nameU="IsSelfMessage" v:prompt="" v:val="VT0(0):5"/>
				<v:ud v:nameU="visVersion" v:prompt="" v:val="VT0(15):26"/>
			</v:userDefs>
			<path d="M0 588.19 L107.04 588.19" class="st11"/>
		</g>
		<g id="shape242-221" v:mID="242" v:groupContext="shape" transform="translate(4.25197,320.315) rotate(-90)">
			<title>Activation.242</title>
			<v:userDefs>
				<v:ud v:nameU="visVersion" v:prompt="" v:val="VT0(15):26"/>
			</v:userDefs>
			<rect x="0" y="586.772" width="72" height="8.50394" class="st4"/>
		</g>
		<g id="shape243-223" v:mID="243" v:groupContext="shape" v:layerMember="0" transform="translate(589.789,-334.442)">
			<title>Message.243</title>
			<desc>Deque</desc>
			<v:userDefs>
				<v:ud v:nameU="IsReturn" v:prompt="" v:val="VT0(0):5"/>
				<v:ud v:nameU="IsAsync" v:prompt="" v:val="VT0(0):5"/>
				<v:ud v:nameU="IsSelfMessage" v:prompt="" v:val="VT0(0):5"/>
				<v:ud v:nameU="visVersion" v:prompt="" v:val="VT0(15):26"/>
			</v:userDefs>
			<v:textBlock v:margins="rect(4,4,4,4)" v:tabSpace="42.5197"/>
			<v:textRect cx="-54.5669" cy="588.189" width="40" height="17.6036"/>
			<path d="M0 588.19 L-100.65 588.19" class="st5"/>
			<rect v:rectContext="textBkgnd" x="-65.2112" y="583.389" width="21.2888" height="9.59985" class="st7"/>
			<text x="-65.21" y="590.59" class="st8" v:langID="2052"><v:paragraph v:horizAlign="1"/><v:tabList/>Deque</text>		</g>
		<g id="shape244-230" v:mID="244" v:groupContext="shape" v:layerMember="0" transform="translate(482.347,-310.668)">
			<title>Return Message.244</title>
			<v:userDefs>
				<v:ud v:nameU="IsReturn" v:prompt="" v:val="VT0(1):5"/>
				<v:ud v:nameU="IsAsync" v:prompt="" v:val="VT0(0):5"/>
				<v:ud v:nameU="IsSelfMessage" v:prompt="" v:val="VT0(0):5"/>
				<v:ud v:nameU="visVersion" v:prompt="" v:val="VT0(15):26"/>
			</v:userDefs>
			<path d="M0 588.19 L109.13 588.19" class="st11"/>
		</g>
		<g id="shape245-235" v:mID="245" v:groupContext="shape" v:layerMember="0" transform="translate(599.528,-285.874)">
			<title>Message.245</title>
			<desc>Write database</desc>
			<v:userDefs>
				<v:ud v:nameU="IsReturn" v:prompt="" v:val="VT0(0):5"/>
				<v:ud v:nameU="IsAsync" v:prompt="" v:val="VT0(0):5"/>
				<v:ud v:nameU="IsSelfMessage" v:prompt="" v:val="VT0(0):5"/>
				<v:ud v:nameU="visVersion" v:prompt="" v:val="VT0(15):26"/>
			</v:userDefs>
			<v:textBlock v:margins="rect(4,4,4,4)" v:tabSpace="42.5197"/>
			<v:textRect cx="54.5669" cy="588.189" width="59.72" height="17.6036"/>
			<path d="M0 588.19 L100.65 588.19" class="st5"/>
			<rect v:rectContext="textBkgnd" x="29.6161" y="583.389" width="49.9018" height="9.59985" class="st7"/>
			<text x="29.62" y="590.59" class="st8" v:langID="2052"><v:paragraph v:horizAlign="1"/><v:tabList/>Write database</text>		</g>
		<g id="shape246-242" v:mID="246" v:groupContext="shape" v:layerMember="0" transform="translate(591.024,-267.874)">
			<title>Return Message.246</title>
			<desc>SetResponse 2</desc>
			<v:userDefs>
				<v:ud v:nameU="IsReturn" v:prompt="" v:val="VT0(1):5"/>
				<v:ud v:nameU="IsAsync" v:prompt="" v:val="VT0(0):5"/>
				<v:ud v:nameU="IsSelfMessage" v:prompt="" v:val="VT0(0):5"/>
				<v:ud v:nameU="visVersion" v:prompt="" v:val="VT0(15):26"/>
			</v:userDefs>
			<v:textBlock v:margins="rect(4,4,4,4)" v:tabSpace="42.5197"/>
			<v:textRect cx="-167.953" cy="588.189" width="57.2" height="17.6036"/>
			<path d="M0 588.19 L-335.91 588.19" class="st11"/>
			<rect v:rectContext="textBkgnd" x="-191.646" y="583.389" width="47.3862" height="9.59985" class="st7"/>
			<text x="-191.65" y="590.59" class="st8" v:langID="2052"><v:paragraph v:horizAlign="1"/><v:tabList/>SetResponse 2</text>		</g>
		<g id="shape247-249" v:mID="247" v:groupContext="shape" transform="translate(5.16638,401.331) rotate(-90)">
			<title>Activation.247</title>
			<v:userDefs>
				<v:ud v:nameU="visVersion" v:prompt="" v:val="VT0(15):26"/>
			</v:userDefs>
			<rect x="0" y="586.772" width="72" height="8.50394" class="st4"/>
		</g>
		<g id="shape248-251" v:mID="248" v:groupContext="shape" v:layerMember="0" transform="translate(590.704,-253.426)">
			<title>Message.248</title>
			<desc>Deque</desc>
			<v:userDefs>
				<v:ud v:nameU="IsReturn" v:prompt="" v:val="VT0(0):5"/>
				<v:ud v:nameU="IsAsync" v:prompt="" v:val="VT0(0):5"/>
				<v:ud v:nameU="IsSelfMessage" v:prompt="" v:val="VT0(0):5"/>
				<v:ud v:nameU="visVersion" v:prompt="" v:val="VT0(15):26"/>
			</v:userDefs>
			<v:textBlock v:margins="rect(4,4,4,4)" v:tabSpace="42.5197"/>
			<v:textRect cx="-54.5669" cy="588.189" width="40" height="17.6036"/>
			<path d="M0 588.19 L-100.65 588.19" class="st5"/>
			<rect v:rectContext="textBkgnd" x="-65.2112" y="583.389" width="21.2888" height="9.59985" class="st7"/>
			<text x="-65.21" y="590.59" class="st8" v:langID="2052"><v:paragraph v:horizAlign="1"/><v:tabList/>Deque</text>		</g>
		<g id="shape249-258" v:mID="249" v:groupContext="shape" v:layerMember="0" transform="translate(483.261,-229.652)">
			<title>Return Message.249</title>
			<v:userDefs>
				<v:ud v:nameU="IsReturn" v:prompt="" v:val="VT0(1):5"/>
				<v:ud v:nameU="IsAsync" v:prompt="" v:val="VT0(0):5"/>
				<v:ud v:nameU="IsSelfMessage" v:prompt="" v:val="VT0(0):5"/>
				<v:ud v:nameU="visVersion" v:prompt="" v:val="VT0(15):26"/>
			</v:userDefs>
			<path d="M0 588.19 L109.13 588.19" class="st11"/>
		</g>
		<g id="shape250-263" v:mID="250" v:groupContext="shape" v:layerMember="0" transform="translate(600.442,-204.858)">
			<title>Message.250</title>
			<desc>Write database</desc>
			<v:userDefs>
				<v:ud v:nameU="IsReturn" v:prompt="" v:val="VT0(0):5"/>
				<v:ud v:nameU="IsAsync" v:prompt="" v:val="VT0(0):5"/>
				<v:ud v:nameU="IsSelfMessage" v:prompt="" v:val="VT0(0):5"/>
				<v:ud v:nameU="visVersion" v:prompt="" v:val="VT0(15):26"/>
			</v:userDefs>
			<v:textBlock v:margins="rect(4,4,4,4)" v:tabSpace="42.5197"/>
			<v:textRect cx="54.5669" cy="588.189" width="59.72" height="17.6036"/>
			<path d="M0 588.19 L100.65 588.19" class="st5"/>
			<rect v:rectContext="textBkgnd" x="29.6161" y="583.389" width="49.9018" height="9.59985" class="st7"/>
			<text x="29.62" y="590.59" class="st8" v:langID="2052"><v:paragraph v:horizAlign="1"/><v:tabList/>Write database</text>		</g>
		<g id="shape251-270" v:mID="251" v:groupContext="shape" v:layerMember="0" transform="translate(591.938,-186.858)">
			<title>Return Message.251</title>
			<desc>SetResponse 3</desc>
			<v:userDefs>
				<v:ud v:nameU="IsReturn" v:prompt="" v:val="VT0(1):5"/>
				<v:ud v:nameU="IsAsync" v:prompt="" v:val="VT0(0):5"/>
				<v:ud v:nameU="IsSelfMessage" v:prompt="" v:val="VT0(0):5"/>
				<v:ud v:nameU="visVersion" v:prompt="" v:val="VT0(15):26"/>
			</v:userDefs>
			<v:textBlock v:margins="rect(4,4,4,4)" v:tabSpace="42.5197"/>
			<v:textRect cx="-167.953" cy="588.189" width="57.2" height="17.6036"/>
			<path d="M0 588.19 L-335.91 588.19" class="st11"/>
			<rect v:rectContext="textBkgnd" x="-191.646" y="583.389" width="47.3862" height="9.59985" class="st7"/>
			<text x="-191.65" y="590.59" class="st8" v:langID="2052"><v:paragraph v:horizAlign="1"/><v:tabList/>SetResponse 3</text>		</g>
	</g>
</svg>
