<svg version="1.1" xmlns="http://www.w3.org/2000/svg" xmlns:xlink="http://www.w3.org/1999/xlink" width="955" height="414"><defs/><g><g transform="translate(-62,-150) scale(1,1)"><path fill="#ffffff" stroke="none" d="M 88.5 168 L 143.13720703125 168 Q 159.63720703125 168 159.63720703125 184.5 L 159.63720703125 183.5 Q 159.63720703125 200 143.13720703125 200 L 88.5 200 Q 72 200 72 183.5 L 72 184.5 Q 72 168 88.5 168 Z"/></g><g transform="translate(-62,-150) scale(1,1)"><path fill="none" stroke="#000000" d="M 88.5 168 L 143.13720703125 168 Q 159.63720703125 168 159.63720703125 184.5 L 159.63720703125 183.5 Q 159.63720703125 200 143.13720703125 200 L 88.5 200 Q 72 200 72 183.5 L 72 184.5 Q 72 168 88.5 168 Z" stroke-miterlimit="10"/></g><g transform="translate(-62,-150) scale(1,1)"><g><path fill="none" stroke="none"/><text fill="#000000" stroke="none" font-family="Arial" font-size="13px" font-style="normal" font-weight="normal" text-decoration="none" x="102.091796875" y="190.5">Start</text></g></g><g transform="translate(-62,-150) scale(1,1)"><rect fill="#d8ffd8" stroke="none" x="192" y="160" width="103" height="45"/></g><g transform="translate(-62,-150) scale(1,1)"><path fill="none" stroke="#000000" d="M 192 160 L 295 160 L 295 205 L 192 205 L 192 160 Z Z" stroke-miterlimit="10"/></g><g transform="translate(-62,-150) scale(1,1)"><g><path fill="none" stroke="none"/><text fill="#000000" stroke="none" font-family="Arial" font-size="13px" font-style="normal" font-weight="normal" text-decoration="none" x="202.313232421875" y="182.5">Resolve origin</text><text fill="#000000" stroke="none" font-family="Arial" font-size="13px" font-style="normal" font-weight="normal" text-decoration="none" x="227.9609375" y="195.5">value</text></g></g><g transform="translate(-62,-150) scale(1,1)"><path fill="none" stroke="#000000" d="M 160 183 L 192 183" stroke-miterlimit="10"/></g><g transform="translate(-62,-150) scale(1,1)"><path fill="#000000" stroke="none" d="M 181.83732514237585 187.209517756016 L 192 183 L 181.83732514237585 178.790482243984"/></g><g transform="translate(-62,-150) scale(1,1)"><path fill="none" stroke="#000000" d="M 181.83732514237585 187.209517756016 L 192 183 L 181.83732514237585 178.790482243984 L 181.83732514237585 187.209517756016" stroke-miterlimit="10"/></g><g transform="translate(-62,-150) scale(1,1)"><path fill="#d8ffd8" stroke="none" d="M 336 185.5 L 408.33935546875 160 L 480.6787109375 185.5 L 408.33935546875 211 L 336 185.5"/></g><g transform="translate(-62,-150) scale(1,1)"><path fill="none" stroke="#000000" d="M 336 185.5 L 408.33935546875 160 L 480.6787109375 185.5 L 408.33935546875 211 L 336 185.5 L 336 185.5" stroke-miterlimit="10"/></g><g transform="translate(-62,-150) scale(1,1)"><g><path fill="none" stroke="none"/><text fill="#000000" stroke="none" font-family="Arial" font-size="13px" font-style="normal" font-weight="normal" text-decoration="none" x="383.0439453125" y="185.5">origin ==</text><text fill="#000000" stroke="none" font-family="Arial" font-size="13px" font-style="normal" font-weight="normal" text-decoration="none" x="371.919677734375" y="198.5">"openconfig"</text></g></g><g transform="translate(-62,-150) scale(1,1)"><path fill="none" stroke="#000000" d="M 295 184 L 336 184" stroke-miterlimit="10"/></g><g transform="translate(-62,-150) scale(1,1)"><path fill="#000000" stroke="none" d="M 325.83732514237585 188.209517756016 L 336 184 L 325.83732514237585 179.790482243984"/></g><g transform="translate(-62,-150) scale(1,1)"><path fill="none" stroke="#000000" d="M 325.83732514237585 188.209517756016 L 336 184 L 325.83732514237585 179.790482243984 L 325.83732514237585 188.209517756016" stroke-miterlimit="10"/></g><g transform="translate(-62,-150) scale(1,1)"><rect fill="#d8ffd8" stroke="none" x="536" y="160" width="135" height="47"/></g><g transform="translate(-62,-150) scale(1,1)"><path fill="none" stroke="#000000" d="M 536 160 L 671 160 L 671 207 L 536 207 L 536 160 Z Z" stroke-miterlimit="10"/></g><g transform="translate(-62,-150) scale(1,1)"><g><path fill="none" stroke="none"/><text fill="#000000" stroke="none" font-family="Arial" font-size="13px" font-style="normal" font-weight="normal" text-decoration="none" x="562.675048828125" y="182.5">Process using</text><text fill="#000000" stroke="none" font-family="Arial" font-size="13px" font-style="normal" font-weight="normal" text-decoration="none" x="569.06396484375" y="195.5">TranslClient</text></g></g><g transform="translate(-62,-150) scale(1,1)"><path fill="none" stroke="#000000" d="M 481 184 L 536 184" stroke-miterlimit="10"/></g><g transform="translate(-62,-150) scale(1,1)"><path fill="#000000" stroke="none" d="M 525.8373251423759 188.209517756016 L 536 184 L 525.8373251423758 179.790482243984"/></g><g transform="translate(-62,-150) scale(1,1)"><path fill="none" stroke="#000000" d="M 525.8373251423759 188.209517756016 L 536 184 L 525.8373251423758 179.790482243984 L 525.8373251423759 188.209517756016" stroke-miterlimit="10"/></g><g transform="translate(-62,-150) scale(1,1)"><g><path fill="none" stroke="none"/><text fill="#000000" stroke="none" font-family="Arial" font-size="13px" font-style="normal" font-weight="normal" text-decoration="none" x="497.5" y="175.5">yes</text></g></g><g transform="translate(-62,-150) scale(1,1)"><path fill="#d8ffd8" stroke="none" d="M 336 265.5 L 408 240 L 480 265.5 L 408 291 L 336 265.5"/></g><g transform="translate(-62,-150) scale(1,1)"><path fill="none" stroke="#000000" d="M 336 265.5 L 408 240 L 480 265.5 L 408 291 L 336 265.5 L 336 265.5" stroke-miterlimit="10"/></g><g transform="translate(-62,-150) scale(1,1)"><g><path fill="none" stroke="none"/><text fill="#000000" stroke="none" font-family="Arial" font-size="13px" font-style="normal" font-weight="normal" text-decoration="none" x="385.602294921875" y="265.5">origin is</text><text fill="#000000" stroke="none" font-family="Arial" font-size="13px" font-style="normal" font-weight="normal" text-decoration="none" x="390.299560546875" y="278.5">empty</text></g></g><g transform="translate(-62,-150) scale(1,1)"><path fill="none" stroke="#000000" d="M 408 211 L 408 240" stroke-miterlimit="10"/></g><g transform="translate(-62,-150) scale(1,1)"><path fill="#000000" stroke="none" d="M 403.790482243984 229.83732514237585 L 408 240 L 412.209517756016 229.83732514237585"/></g><g transform="translate(-62,-150) scale(1,1)"><path fill="none" stroke="#000000" d="M 403.790482243984 229.83732514237585 L 408 240 L 412.209517756016 229.83732514237585 L 403.790482243984 229.83732514237585" stroke-miterlimit="10"/></g><g transform="translate(-62,-150) scale(1,1)"><g><path fill="none" stroke="none"/><text fill="#000000" stroke="none" font-family="Arial" font-size="13px" font-style="normal" font-weight="normal" text-decoration="none" x="414.5" y="230.5">no</text></g></g><g transform="translate(-62,-150) scale(1,1)"><rect fill="#d8f2ff" stroke="none" x="536" y="240" width="96" height="47"/></g><g transform="translate(-62,-150) scale(1,1)"><path fill="none" stroke="#000000" d="M 536 240 L 632 240 L 632 287 L 536 287 L 536 240 Z Z" stroke-miterlimit="10"/></g><g transform="translate(-62,-150) scale(1,1)"><g><path fill="none" stroke="none"/><text fill="#000000" stroke="none" font-family="Arial" font-size="13px" font-style="normal" font-weight="normal" text-decoration="none" x="560.516845703125" y="262.5">Resolve</text><text fill="#000000" stroke="none" font-family="Arial" font-size="13px" font-style="normal" font-weight="normal" text-decoration="none" x="550.03369140625" y="275.5">target value</text></g></g><g transform="translate(-62,-150) scale(1,1)"><path fill="none" stroke="#000000" d="M 480 264 L 536 264" stroke-miterlimit="10"/></g><g transform="translate(-62,-150) scale(1,1)"><path fill="#000000" stroke="none" d="M 525.8373251423759 268.209517756016 L 536 264 L 525.8373251423758 259.790482243984"/></g><g transform="translate(-62,-150) scale(1,1)"><path fill="none" stroke="#000000" d="M 525.8373251423759 268.209517756016 L 536 264 L 525.8373251423758 259.790482243984 L 525.8373251423759 268.209517756016" stroke-miterlimit="10"/></g><g transform="translate(-62,-150) scale(1,1)"><g><path fill="none" stroke="none"/><text fill="#000000" stroke="none" font-family="Arial" font-size="13px" font-style="normal" font-weight="normal" text-decoration="none" x="497.5" y="255.5">yes</text></g></g><g transform="translate(-62,-150) scale(1,1)"><path fill="#d8f2ff" stroke="none" d="M 672 262.5 L 760.18310546875 224 L 848.3662109375 262.5 L 760.18310546875 301 L 672 262.5"/></g><g transform="translate(-62,-150) scale(1,1)"><path fill="none" stroke="#000000" d="M 672 262.5 L 760.18310546875 224 L 848.3662109375 262.5 L 760.18310546875 301 L 672 262.5 L 672 262.5" stroke-miterlimit="10"/></g><g transform="translate(-62,-150) scale(1,1)"><g><path fill="none" stroke="none"/><text fill="#000000" stroke="none" font-family="Arial" font-size="13px" font-style="normal" font-weight="normal" text-decoration="none" x="734.1640625" y="256">target ==</text><text fill="#000000" stroke="none" font-family="Arial" font-size="13px" font-style="normal" font-weight="normal" text-decoration="none" x="715.841552734375" y="269">"CONFIG_DB",</text><text fill="#000000" stroke="none" font-family="Arial" font-size="13px" font-style="normal" font-weight="normal" text-decoration="none" x="720.884765625" y="282">"APPL_DB"...</text></g></g><g transform="translate(-62,-150) scale(1,1)"><path fill="none" stroke="#000000" d="M 632 263 L 672 263" stroke-miterlimit="10"/></g><g transform="translate(-62,-150) scale(1,1)"><path fill="#000000" stroke="none" d="M 661.8373251423759 267.209517756016 L 672 263 L 661.8373251423758 258.790482243984"/></g><g transform="translate(-62,-150) scale(1,1)"><path fill="none" stroke="#000000" d="M 661.8373251423759 267.209517756016 L 672 263 L 661.8373251423758 258.790482243984 L 661.8373251423759 267.209517756016" stroke-miterlimit="10"/></g><g transform="translate(-62,-150) scale(1,1)"><rect fill="#d8f2ff" stroke="none" x="888" y="240" width="119" height="48"/></g><g transform="translate(-62,-150) scale(1,1)"><path fill="none" stroke="#000000" d="M 888 240 L 1007 240 L 1007 288 L 888 288 L 888 240 Z Z" stroke-miterlimit="10"/></g><g transform="translate(-62,-150) scale(1,1)"><g><path fill="none" stroke="none"/><text fill="#000000" stroke="none" font-family="Arial" font-size="13px" font-style="normal" font-weight="normal" text-decoration="none" x="906.675048828125" y="262.5">Process using</text><text fill="#000000" stroke="none" font-family="Arial" font-size="13px" font-style="normal" font-weight="normal" text-decoration="none" x="922.57275390625" y="275.5">DbClient</text></g></g><g transform="translate(-62,-150) scale(1,1)"><path fill="none" stroke="#000000" d="M 848 263 L 888 263" stroke-miterlimit="10"/></g><g transform="translate(-62,-150) scale(1,1)"><path fill="#000000" stroke="none" d="M 877.8373251423759 267.209517756016 L 888 263 L 877.8373251423758 258.790482243984"/></g><g transform="translate(-62,-150) scale(1,1)"><path fill="none" stroke="#000000" d="M 877.8373251423759 267.209517756016 L 888 263 L 877.8373251423758 258.790482243984 L 877.8373251423759 267.209517756016" stroke-miterlimit="10"/></g><g transform="translate(-62,-150) scale(1,1)"><g><path fill="none" stroke="none"/><text fill="#000000" stroke="none" font-family="Arial" font-size="13px" font-style="normal" font-weight="normal" text-decoration="none" x="857.5" y="254.5">yes</text></g></g><g transform="translate(-62,-150) scale(1,1)"><path fill="#d8f2ff" stroke="none" d="M 672 353.5 L 759.5 328 L 847 353.5 L 759.5 379 L 672 353.5"/></g><g transform="translate(-62,-150) scale(1,1)"><path fill="none" stroke="#000000" d="M 672 353.5 L 759.5 328 L 847 353.5 L 759.5 379 L 672 353.5 L 672 353.5" stroke-miterlimit="10"/></g><g transform="translate(-62,-150) scale(1,1)"><g><path fill="none" stroke="none"/><text fill="#000000" stroke="none" font-family="Arial" font-size="13px" font-style="normal" font-weight="normal" text-decoration="none" x="733.48095703125" y="353.5">target ==</text><text fill="#000000" stroke="none" font-family="Arial" font-size="13px" font-style="normal" font-weight="normal" text-decoration="none" x="727.7998046875" y="366.5">"OTHERS"</text></g></g><g transform="translate(-62,-150) scale(1,1)"><path fill="none" stroke="#000000" d="M 760 301 L 760 328" stroke-miterlimit="10"/></g><g transform="translate(-62,-150) scale(1,1)"><path fill="#000000" stroke="none" d="M 755.790482243984 317.83732514237585 L 760 328 L 764.209517756016 317.83732514237585"/></g><g transform="translate(-62,-150) scale(1,1)"><path fill="none" stroke="#000000" d="M 755.790482243984 317.83732514237585 L 760 328 L 764.209517756016 317.83732514237585 L 755.790482243984 317.83732514237585" stroke-miterlimit="10"/></g><g transform="translate(-62,-150) scale(1,1)"><g><path fill="none" stroke="none"/><text fill="#000000" stroke="none" font-family="Arial" font-size="13px" font-style="normal" font-weight="normal" text-decoration="none" x="766.299560546875" y="319.5">no</text></g></g><g transform="translate(-62,-150) scale(1,1)"><rect fill="#d8f2ff" stroke="none" x="888" y="328" width="119" height="45"/></g><g transform="translate(-62,-150) scale(1,1)"><path fill="none" stroke="#000000" d="M 888 328 L 1007 328 L 1007 373 L 888 373 L 888 328 Z Z" stroke-miterlimit="10"/></g><g transform="translate(-62,-150) scale(1,1)"><g><path fill="none" stroke="none"/><text fill="#000000" stroke="none" font-family="Arial" font-size="13px" font-style="normal" font-weight="normal" text-decoration="none" x="906.675048828125" y="350.5">Process using</text><text fill="#000000" stroke="none" font-family="Arial" font-size="13px" font-style="normal" font-weight="normal" text-decoration="none" x="910.648681640625" y="363.5">NonDbClient</text></g></g><g transform="translate(-62,-150) scale(1,1)"><path fill="none" stroke="#000000" d="M 847 352 L 888 352" stroke-miterlimit="10"/></g><g transform="translate(-62,-150) scale(1,1)"><path fill="#000000" stroke="none" d="M 877.8373251423759 356.209517756016 L 888 352 L 877.8373251423758 347.790482243984"/></g><g transform="translate(-62,-150) scale(1,1)"><path fill="none" stroke="#000000" d="M 877.8373251423759 356.209517756016 L 888 352 L 877.8373251423758 347.790482243984 L 877.8373251423759 356.209517756016" stroke-miterlimit="10"/></g><g transform="translate(-62,-150) scale(1,1)"><g><path fill="none" stroke="none"/><text fill="#000000" stroke="none" font-family="Arial" font-size="13px" font-style="normal" font-weight="normal" text-decoration="none" x="856.5" y="343.5">yes</text></g></g><g transform="translate(-62,-150) scale(1,1)"><path fill="#d8f2ff" stroke="none" d="M 672 441.5 L 760 416 L 848 441.5 L 760 467 L 672 441.5"/></g><g transform="translate(-62,-150) scale(1,1)"><path fill="none" stroke="#000000" d="M 672 441.5 L 760 416 L 848 441.5 L 760 467 L 672 441.5 L 672 441.5" stroke-miterlimit="10"/></g><g transform="translate(-62,-150) scale(1,1)"><g><path fill="none" stroke="none"/><text fill="#000000" stroke="none" font-family="Arial" font-size="13px" font-style="normal" font-weight="normal" text-decoration="none" x="733.98095703125" y="441.5">target ==</text><text fill="#000000" stroke="none" font-family="Arial" font-size="13px" font-style="normal" font-weight="normal" text-decoration="none" x="729.37890625" y="454.5">"EVENTS"</text></g></g><g transform="translate(-62,-150) scale(1,1)"><path fill="none" stroke="#000000" d="M 760 379 L 760 416" stroke-miterlimit="10"/></g><g transform="translate(-62,-150) scale(1,1)"><path fill="#000000" stroke="none" d="M 755.790482243984 405.83732514237585 L 760 416 L 764.209517756016 405.83732514237585"/></g><g transform="translate(-62,-150) scale(1,1)"><path fill="none" stroke="#000000" d="M 755.790482243984 405.83732514237585 L 760 416 L 764.209517756016 405.83732514237585 L 755.790482243984 405.83732514237585" stroke-miterlimit="10"/></g><g transform="translate(-62,-150) scale(1,1)"><g><path fill="none" stroke="none"/><text fill="#000000" stroke="none" font-family="Arial" font-size="13px" font-style="normal" font-weight="normal" text-decoration="none" x="766.5" y="402.5">no</text></g></g><g transform="translate(-62,-150) scale(1,1)"><rect fill="#d8f2ff" stroke="none" x="888" y="416" width="119" height="47"/></g><g transform="translate(-62,-150) scale(1,1)"><path fill="none" stroke="#000000" d="M 888 416 L 1007 416 L 1007 463 L 888 463 L 888 416 Z Z" stroke-miterlimit="10"/></g><g transform="translate(-62,-150) scale(1,1)"><g><path fill="none" stroke="none"/><text fill="#000000" stroke="none" font-family="Arial" font-size="13px" font-style="normal" font-weight="normal" text-decoration="none" x="906.675048828125" y="438.5">Process using</text><text fill="#000000" stroke="none" font-family="Arial" font-size="13px" font-style="normal" font-weight="normal" text-decoration="none" x="914.260498046875" y="451.5">EventClient</text></g></g><g transform="translate(-62,-150) scale(1,1)"><path fill="none" stroke="#000000" d="M 848 441 L 888 441" stroke-miterlimit="10"/></g><g transform="translate(-62,-150) scale(1,1)"><path fill="#000000" stroke="none" d="M 877.8373251423759 445.209517756016 L 888 441 L 877.8373251423758 436.790482243984"/></g><g transform="translate(-62,-150) scale(1,1)"><path fill="none" stroke="#000000" d="M 877.8373251423759 445.209517756016 L 888 441 L 877.8373251423758 436.790482243984 L 877.8373251423759 445.209517756016" stroke-miterlimit="10"/></g><g transform="translate(-62,-150) scale(1,1)"><g><path fill="none" stroke="none"/><text fill="#000000" stroke="none" font-family="Arial" font-size="13px" font-style="normal" font-weight="normal" text-decoration="none" x="857.5" y="432.5">yes</text></g></g><g transform="translate(-62,-150) scale(1,1)"><path fill="#d8ffd8" stroke="none" d="M 381.5 328 L 425.5 328 Q 455 328 455 357.5 L 455 356.5 Q 455 386 425.5 386 L 381.5 386 Q 352 386 352 356.5 L 352 357.5 Q 352 328 381.5 328 Z"/></g><g transform="translate(-62,-150) scale(1,1)"><path fill="none" stroke="#000000" d="M 381.5 328 L 425.5 328 Q 455 328 455 357.5 L 455 356.5 Q 455 386 425.5 386 L 381.5 386 Q 352 386 352 356.5 L 352 357.5 Q 352 328 381.5 328 Z" stroke-miterlimit="10"/></g><g transform="translate(-62,-150) scale(1,1)"><g><path fill="none" stroke="none"/><text fill="#000000" stroke="none" font-family="Arial" font-size="13px" font-style="normal" font-weight="normal" text-decoration="none" x="387.25" y="350.5">Error:</text><text fill="#000000" stroke="none" font-family="Arial" font-size="13px" font-style="normal" font-weight="normal" text-decoration="none" x="367.359619140625" y="363.5">unsupported</text><text fill="#000000" stroke="none" font-family="Arial" font-size="13px" font-style="normal" font-weight="normal" text-decoration="none" x="387.602294921875" y="376.5">origin</text></g></g><g transform="translate(-62,-150) scale(1,1)"><path fill="none" stroke="#000000" d="M 407 291 L 407 328" stroke-miterlimit="10"/></g><g transform="translate(-62,-150) scale(1,1)"><path fill="#000000" stroke="none" d="M 402.790482243984 317.83732514237585 L 407 328 L 411.209517756016 317.83732514237585"/></g><g transform="translate(-62,-150) scale(1,1)"><path fill="none" stroke="#000000" d="M 402.790482243984 317.83732514237585 L 407 328 L 411.209517756016 317.83732514237585 L 402.790482243984 317.83732514237585" stroke-miterlimit="10"/></g><g transform="translate(-62,-150) scale(1,1)"><g><path fill="none" stroke="none"/><text fill="#000000" stroke="none" font-family="Arial" font-size="13px" font-style="normal" font-weight="normal" text-decoration="none" x="413.5" y="314.5">no</text></g></g><g transform="translate(-62,-150) scale(1,1)"><path fill="#d8f2ff" stroke="none" d="M 741.5 496 L 777.5 496 Q 807 496 807 525.5 L 807 524.5 Q 807 554 777.5 554 L 741.5 554 Q 712 554 712 524.5 L 712 525.5 Q 712 496 741.5 496 Z"/></g><g transform="translate(-62,-150) scale(1,1)"><path fill="none" stroke="#000000" d="M 741.5 496 L 777.5 496 Q 807 496 807 525.5 L 807 524.5 Q 807 554 777.5 554 L 741.5 554 Q 712 554 712 524.5 L 712 525.5 Q 712 496 741.5 496 Z" stroke-miterlimit="10"/></g><g transform="translate(-62,-150) scale(1,1)"><g><path fill="none" stroke="none"/><text fill="#000000" stroke="none" font-family="Arial" font-size="13px" font-style="normal" font-weight="normal" text-decoration="none" x="743.25" y="518.5">Error:</text><text fill="#000000" stroke="none" font-family="Arial" font-size="13px" font-style="normal" font-weight="normal" text-decoration="none" x="723.359619140625" y="531.5">unsupported</text><text fill="#000000" stroke="none" font-family="Arial" font-size="13px" font-style="normal" font-weight="normal" text-decoration="none" x="742.878662109375" y="544.5">target</text></g></g><g transform="translate(-62,-150) scale(1,1)"><path fill="none" stroke="#000000" d="M 760 467 L 760 496" stroke-miterlimit="10"/></g><g transform="translate(-62,-150) scale(1,1)"><path fill="#000000" stroke="none" d="M 755.790482243984 485.83732514237585 L 760 496 L 764.209517756016 485.83732514237585"/></g><g transform="translate(-62,-150) scale(1,1)"><path fill="none" stroke="#000000" d="M 755.790482243984 485.83732514237585 L 760 496 L 764.209517756016 485.83732514237585 L 755.790482243984 485.83732514237585" stroke-miterlimit="10"/></g><g transform="translate(-62,-150) scale(1,1)"><g><path fill="none" stroke="none"/><text fill="#000000" stroke="none" font-family="Arial" font-size="13px" font-style="normal" font-weight="normal" text-decoration="none" x="766.5" y="486.5">no</text></g></g><g transform="translate(-62,-150) scale(1,1)"><g><path fill="none" stroke="none"/><text fill="#000000" stroke="none" font-family="Arial" font-size="13px" font-style="normal" font-weight="normal" text-decoration="none" x="149" y="482">New code</text></g></g><g transform="translate(-62,-150) scale(1,1)"><g><path fill="none" stroke="none"/><text fill="#000000" stroke="none" font-family="Arial" font-size="13px" font-style="normal" font-weight="normal" text-decoration="none" x="149" y="522">Existing code</text></g></g><g transform="translate(-62,-150) scale(1,1)"><rect fill="#d8ffd8" stroke="none" x="96" y="464" width="49" height="24"/></g><g transform="translate(-62,-150) scale(1,1)"><path fill="none" stroke="#d8ffd8" d="M 96 464 L 145 464 L 145 488 L 96 488 L 96 464 Z Z" stroke-miterlimit="10"/></g><g transform="translate(-62,-150) scale(1,1)"><rect fill="#d8f2ff" stroke="none" x="96" y="504" width="49" height="24"/></g><g transform="translate(-62,-150) scale(1,1)"><path fill="none" stroke="#d8f2ff" d="M 96 504 L 145 504 L 145 528 L 96 528 L 96 504 Z Z" stroke-miterlimit="10"/></g></g></svg>