<svg version="1.1" xmlns="http://www.w3.org/2000/svg" xmlns:xlink="http://www.w3.org/1999/xlink" width="1805" height="1935"><desc>title%20New%20Flow%0A%0A%0Aparticipant%20%22Xcvrd%20(Cmis%20thread)%22%20as%20cmis%20%23PowderBlue%0Aparticipant%20%22Xcvrd%20(Sfp%20thread)%22%20as%20sfp%20%23PowderBlue%0Adatabase%20%22State%20DB%22%20as%20statedb%20%23PowderBlue%0Aparticipant%20%22PortsOrch%22%20as%20portsorch%20%23PowderBlue%0Aparticipant%20%22SAI%22%20as%20sai%20%23PowderBlue%0Aparticipant%20%22SDK%22%20as%20sdk%20%23PowderBlue%0Aparticipant%20%22FW%22%20as%20fw%20%23PowderBlue%0Aparticipant%20%22Module%22%20as%20module%20%23PowderBlue%0A%0A%0A%23%20initialization%0A%0A%0Aportsorch-%3Esai%3Asai_query_attribute_capabilities%5Cn(SAI_PORT_ATTR_HOST_TX_SIGNAL_ENABLE)%0Asai-%3Eportsorch%3A%20enable%2Fdisable%0A%0Anote%20over%20portsorch%3Asave%20to%20**saiHwTxSignalEnabled**%0A%0Aportsorch-%3Esai%3Asai_query_attribute_capabilities%5Cn(SAI_SWITCH_ATTR_PORT_HOST_TX_READY_NOTIFY)%0Asai-%3Eportsorch%3A%20enable%2Fdisable%0A%0Anote%20over%20portsorch%3A%20save%20to%20**saiTxReadyNotifySupported**%0A%0Aabox%20over%20portsorch%3A%20if%20saiHwTxSignalEnabled%3A%0Arbox%20right%20of%20portsorch%3A%20Register%20to%20TRANSCEIVER_INFO_TABLE%20changes%0A%0Aabox%20over%20portsorch%3A%20if%20saiTxReadyNotifySupported%3A%0Arbox%20right%20of%20portsorch%3A%20Initialize%20SAI%20notification%20consumer%0A%0A%3D%3D%3D%3D%0A%0A%23%20admin%20up%0Anote%20over%20portsorch%3A%20Set%20port%20admin%20status%20-%3E%20up%0Aportsorch-%3Esai%3Astatus%20%3D%20sai_port_api-%3E%5Cnset_port_attribute(port.m_port_id%2C%20%26attr)%3B%0Asai-%3Esdk%3A%0Asdk-%3Efw%3A%0A%0A%3D%3D%3D%3D%0A%0A%23%20plug%20event%20%26%20signal%0Anote%20over%20sfp%3A%20Module%20plug%20event%20occur%0Asfp-%3Estatedb%3A%20TRANSCIEVER_INFO%20update%20with%20module%0Astatedb-%3Eportsorch%3A%20change%20in%20TRANSCIEVER_INFO%20table%0Aportsorch-%3Esai%3A%20SAI_PORT_ATTR_HOST_TX_SIGNAL_ENABLE%5Cnenable%2Fdisable%20(for%20specific%20port)%0Asai-%3Esdk%3A%0Asdk-%3Efw%3A%0Arbox%20over%20fw%3A%20admin%20up%20%26%20high-speed%20signal%20allowed%0Afw-%3Emodule%3A%20send%20signal%0Arbox%20over%20module%3A%20signal%20OK%0Amodule--%3Efw%3A%0Afw--%3Esdk%3A%0Asdk--%3Esai%3A%0Asai--%3Eportsorch%3A%20%20SAI_SWITCH_ATTR_PORT_HOST_TX_READY_NOTIFY%0Aportsorch-%3Estatedb%3A%20set%20host_tx_ready%20%3D%20true%2Ffalse%0Astatedb-%3Ecmis%3Ahost_tx_ready%20changed%0Arbox%20over%20cmis%3A%20if%20true%20-%3E%20configure%20the%20module%0A%0A</desc><defs/><g><g/><g/><g/><g/><g/><g/><g/><g/><g/><g/><g/><g/><g/><g/><g/><g/><g/><g/><g/><g/><g/><g/><g/><g/><g/><g/><g/><g/><g/><g/><g/><g/><g/><g/><g/><g/><g/><g/><g/><g/><g/><g/><g/><g/><g/><g/><g><rect fill="white" stroke="none" x="0" y="0" width="1805" height="1935"/></g><g><text fill="black" stroke="none" font-family="sans-serif" font-size="16.5pt" font-style="normal" font-weight="normal" text-decoration="normal" x="854.4470314278066" y="24.50280495" text-anchor="start" dominant-baseline="alphabetic" xml:space="preserve">New Flow</text></g><g/><g><path fill="none" stroke="black" paint-order="fill stroke markers" d=" M 128.62095456833984 128.884754037 L 128.62095456833984 1935.558239017" stroke-miterlimit="10" stroke-width="1.3612669416666667" stroke-dasharray="12.565541,5.445067766666667"/><path fill="none" stroke="black" paint-order="fill stroke markers" d=" M 305.0491483945742 128.884754037 L 305.0491483945742 1935.558239017" stroke-miterlimit="10" stroke-width="1.3612669416666667" stroke-dasharray="12.565541,5.445067766666667"/><path fill="none" stroke="black" paint-order="fill stroke markers" d=" M 627.2567852544701 128.884754037 L 627.2567852544701 1935.558239017" stroke-miterlimit="10" stroke-width="1.3612669416666667" stroke-dasharray="12.565541,5.445067766666667"/><path fill="none" stroke="black" paint-order="fill stroke markers" d=" M 921.7693384962018 128.884754037 L 921.7693384962018 1935.558239017" stroke-miterlimit="10" stroke-width="1.3612669416666667" stroke-dasharray="12.565541,5.445067766666667"/><path fill="none" stroke="black" paint-order="fill stroke markers" d=" M 1354.971909438129 128.884754037 L 1354.971909438129 1935.558239017" stroke-miterlimit="10" stroke-width="1.3612669416666667" stroke-dasharray="12.565541,5.445067766666667"/><path fill="none" stroke="black" paint-order="fill stroke markers" d=" M 1433.6406809621171 128.884754037 L 1433.6406809621171 1935.558239017" stroke-miterlimit="10" stroke-width="1.3612669416666667" stroke-dasharray="12.565541,5.445067766666667"/><path fill="none" stroke="black" paint-order="fill stroke markers" d=" M 1588.1456611041874 128.884754037 L 1588.1456611041874 1935.558239017" stroke-miterlimit="10" stroke-width="1.3612669416666667" stroke-dasharray="12.565541,5.445067766666667"/><path fill="none" stroke="black" paint-order="fill stroke markers" d=" M 1742.6506412462577 128.884754037 L 1742.6506412462577 1935.558239017" stroke-miterlimit="10" stroke-width="1.3612669416666667" stroke-dasharray="12.565541,5.445067766666667"/></g><g><path fill="none" stroke="none"/><g><path fill="PowderBlue" stroke="black" paint-order="fill stroke markers" d=" M 45.72907661479296 84.94305716000001 L 211.5128325218867 84.94305716000001 L 211.5128325218867 128.884754037 L 45.72907661479296 128.884754037 L 45.72907661479296 84.94305716000001 Z" stroke-miterlimit="10" stroke-width="2.613632528" stroke-dasharray=""/></g><g><text fill="black" stroke="none" font-family="sans-serif" font-size="11pt" font-style="normal" font-weight="normal" text-decoration="normal" x="63.452772195292965" y="112.54955073700002" text-anchor="start" dominant-baseline="alphabetic" xml:space="preserve">Xcvrd (Cmis thread)</text></g><path fill="none" stroke="none"/><g><path fill="PowderBlue" stroke="black" paint-order="fill stroke markers" d=" M 227.8480358218867 84.94305716000001 L 382.25026096726174 84.94305716000001 L 382.25026096726174 128.884754037 L 227.8480358218867 128.884754037 L 227.8480358218867 84.94305716000001 Z" stroke-miterlimit="10" stroke-width="2.613632528" stroke-dasharray=""/></g><g><text fill="black" stroke="none" font-family="sans-serif" font-size="11pt" font-style="normal" font-weight="normal" text-decoration="normal" x="245.57173140238672" y="112.54955073700002" text-anchor="start" dominant-baseline="alphabetic" xml:space="preserve">Xcvrd (Sfp thread)</text></g><g><path fill="PowderBlue" stroke="black" paint-order="fill stroke markers" d=" M 603.4073884364701 96.867755569 L 603.4073884364701 62.563828639 L 651.10618207247 62.563828639 L 651.10618207247 96.867755569" stroke-miterlimit="10" stroke-width="2.7769845610000004" stroke-dasharray=""/><path fill="PowderBlue" stroke="black" paint-order="fill stroke markers" d=" M 651.10618207247 61.3713587981 L 651.1049896125663 61.47916934301662 L 651.1014123521003 61.58696910696859 L 651.095450648795 61.69474731006935 L 651.0871050988156 61.8024931745884 L 651.0763765367104 61.91019592602908 L 651.0632660353266 62.017844794206 L 651.0477749057034 62.125429014322044 L 651.0299046969408 62.232937828044854 L 651.0096571960447 62.34036048458265 L 650.9870344277485 62.44768624175929 L 650.9620386543102 62.55490436708851 L 650.9346723752861 62.66200413884712 L 650.9049383272816 62.76897484714718 L 650.8728394836764 62.87580579500701 L 650.8383790543284 62.982486299420856 L 650.8015604852516 63.08900569242717 L 650.7623874582722 63.19535332217542 L 650.7208638906604 63.30151855399125 L 650.6769939347384 63.40749077143996 L 650.6307819774651 63.5132593773881 L 650.5822326399978 63.618813795063225 L 650.5313507772297 63.724143469111524 L 650.4781414773048 63.82923786665337 L 650.4226100611086 63.93408647833659 L 650.3647620817366 64.03867881938739 L 650.3046033239384 64.1430044306588 L 650.2421398035398 64.24705287967667 L 650.1773777668406 64.35081376168277 L 650.1103236899905 64.45427670067541 L 650.0409842783416 64.55743135044686 L 649.969366465777 64.66026739561813 L 649.8954774140183 64.7627745526704 L 649.8193245119093 64.86494257097338 L 649.7409153746764 64.96676123381039 L 649.6602578431683 65.06822035939997 L 649.5773599830709 65.16930980191414 L 649.492230084101 65.27001945249287 L 649.4048766591776 65.37033924025505 L 649.3153084435704 65.47025913330548 L 649.2235343940264 65.56976913973813 L 649.129563687874 65.66885930863528 L 649.0334057221054 65.7675197310626 L 648.9350701124373 65.86574054106009 L 648.8345666923485 65.96351191662859 L 648.7319055120973 66.06082408071202 L 648.6270968377163 66.15766730217506 L 648.5201511499854 66.25403189677627 L 648.4110791433844 66.3499082281365 L 648.2998917250231 66.4452867087025 L 648.1866000135506 66.54015780070569 L 648.0712153380437 66.63451201711595 L 647.9537492368736 66.72833992259025 L 647.8342134565527 66.82163213441623 L 647.7126199505594 66.91437932345046 L 647.588980878143 67.00657221505134 L 647.4633086031076 67.0982015900065 L 647.3356156925762 67.18925828545483 L 647.2059149157332 67.27973319580266 L 647.0742192425482 67.36961727363435 L 646.940541842479 67.45890153061701 L 646.8048960831541 67.54757703839935 L 646.6672955290362 67.6356349295045 L 646.5277539400663 67.72306639821673 L 646.386285270287 67.80986270146201 L 646.2429036664472 67.89601515968236 L 646.0976234665881 67.98151515770375 L 645.9504591986082 68.06635414559763 L 645.8014255788121 68.15052363953589 L 645.6505375104372 68.2340152226393 L 645.4978100821648 68.31682054581911 L 645.3432585666105 68.39893132861202 L 645.1868984187971 68.48033936000816 L 645.0287452746088 68.56103649927225 L 644.8688149492285 68.6410146767576 L 644.7071234355553 68.72026589471311 L 644.543686902606 68.79878222808303 L 644.3785216938975 68.87655582529945 L 644.2116443258132 68.95357890906746 L 644.0430714859507 69.02984377714286 L 643.8728200314536 69.10534280310242 L 643.7009069873254 69.18006843710643 L 643.5273495447274 69.25401320665378 L 643.352165059259 69.32716971732913 L 643.175371049223 69.39953065354239 L 642.996985193873 69.47108877926021 L 642.8170253316457 69.54183693872967 L 642.6355094583777 69.61176805719379 L 642.4524557255047 69.68087514159897 L 642.2678824382477 69.74915128129439 L 642.0818080537815 69.81658964872294 L 641.8942511793896 69.88318350010411 L 641.7052305706029 69.94892617610824 L 641.514765129325 70.01381110252252 L 641.3228739019412 70.07783179090838 L 641.1295760774144 70.14098183925032 L 640.9348909853659 70.20325493259614 L 640.7388380941427 70.26464484368842 L 640.5414370088705 70.32514543358717 L 640.3427074694935 70.38475065228383 L 640.1426693487997 70.44345453930622 L 639.9413426504348 70.50125122431453 L 639.7387475069007 70.55813492768844 L 639.5349041775429 70.61409996110503 L 639.3298330465246 70.66914072810756 L 639.1235546207879 70.72325172466522 L 638.9160895280036 70.77642753972344 L 638.7074585145078 70.82866285574504 L 638.4976824432284 70.87995244924193 L 638.2867822915974 70.9302911912975 L 638.0747791494543 70.9796740480795 L 637.8616942169367 71.0280960813434 L 637.6475488023603 71.07555244892625 L 637.432364320088 71.12203840523081 L 637.2161622883888 71.16754930170019 L 636.9989643272856 71.21208058728268 L 636.7807921563937 71.25562780888683 L 636.5616675927481 71.29818661182675 L 636.3416125486227 71.33975274025764 L 636.1206490293387 71.38032203760127 L 635.8987991310637 71.41989044696174 L 635.6760850386027 71.45845401153106 L 635.4525290231792 71.49600887498494 L 635.2281534402088 71.5325512818683 L 635.0029807270624 71.56807757797091 L 634.777033400824 71.60258421069277 L 634.5503340560379 71.63606772939937 L 634.3229053624494 71.66852478576672 L 634.0947700627386 71.69995213411627 L 633.8659509702453 71.73034663173934 L 633.636470966688 71.7597052392115 L 633.4063529998759 71.78802502069648 L 633.1756200814139 71.81530314423973 L 632.9442952844015 71.84153688205163 L 632.7124017411256 71.86672361078024 L 632.4799626407475 71.8908608117737 L 632.2470012269835 71.913946071332 L 632.0135407957805 71.93597708094846 L 631.7796046929875 71.95695163754044 L 631.5452163120195 71.97686764366978 L 631.3103990915196 71.99572310775245 L 631.075176513014 72.01351614425778 L 630.8395720985643 72.03024497389691 L 630.603609408416 72.04590792380084 L 630.3673120386413 72.06050342768764 L 630.1307036187803 72.07403002601906 L 629.8938078094777 72.08648636614654 L 629.6566483001172 72.09787120244648 L 629.4192488064521 72.1081833964447 L 629.1816330682336 72.11742191693043 L 628.943824846838 72.12558584005929 L 628.7058479228889 72.13267434944576 L 628.4677260938805 72.13868673624485 L 628.2294831717974 72.14362239922286 L 627.991142980733 72.14748084481762 L 627.752729354508 72.1502616871878 L 627.5142661342862 72.15196464825142 L 627.2757771661911 72.15258955771385 L 627.0372862989205 72.15213635308466 L 626.7988173813627 72.15060507968391 L 626.5603942602105 72.14799589063767 L 626.3220407775775 72.1443090468627 L 626.0837807686131 72.13954491704027 L 625.8456380591199 72.1337039775794 L 625.6076364631703 72.12678681256918 L 625.3697997807254 72.11879411372033 L 625.1321517952555 72.10972668029609 L 624.894716271361 72.09958541903224 L 624.6575169523962 72.08837134404646 L 624.4205775580958 72.07608557673689 L 624.1839217822015 72.06272934567005 L 623.9475732900937 72.04830398645788 L 623.7115557164246 72.0328109416243 L 623.4758926627551 72.01625176046089 L 623.240607695194 71.99862809887196 L 623.005724342042 71.97994171920898 L 622.7712660914386 71.96019449009434 L 622.5372563890138 71.9393883862345 L 622.3037186355424 71.91752548822251 L 622.0706761846055 71.89460798232996 L 621.8381523402538 71.87063816028832 L 621.6061703546779 71.84561841905983 L 621.3747534258833 71.81955126059778 L 621.1439246953698 71.79243929159627 L 620.9137072458183 71.7642852232296 L 620.6841240987817 71.73509187088118 L 620.4551982123834 71.7048621538619 L 620.2269524790214 71.67359909511825 L 619.9994097230788 71.64130582093009 L 619.7725926986415 71.6079855605979 L 619.546524087223 71.57364164611994 L 619.321226495496 71.53827751185906 L 619.0967224530319 71.50189669419922 L 618.873034410048 71.46450283119185 L 618.6501847351622 71.42609966219209 L 618.428195713156 71.38669102748484 L 618.207089542747 71.34628086790075 L 617.9868883343676 71.30487322442208 L 617.7676141079554 71.26247223777868 L 617.5492887907502 71.21908214803388 L 617.3319342151018 71.17470729416048 L 617.1155721162868 71.12935211360693 L 616.9002241303344 71.08302114185344 L 616.6859117918642 71.0357190119586 L 616.4726565319311 70.987450454096 L 616.2604796758836 70.93822029508118 L 616.0494024412303 70.88803345788901 L 615.8394459355189 70.8368949611614 L 615.6306311542251 70.7848099187054 L 615.4229789786527 70.73178353898187 L 615.2165101738466 70.67782112458457 L 615.0112453865149 70.62292807170999 L 614.8072051429655 70.56710986961765 L 614.6044098470525 70.51037210008127 L 614.4028797781367 70.4527204368305 L 614.202635089057 70.39416064498364 L 614.0036958041154 70.33469858047107 L 613.8060818170746 70.27434018944969 L 613.6098128891688 70.2130915077083 L 613.4149086471269 70.15095866006402 L 613.221388581211 70.08794785974987 L 613.0292720432662 70.02406540779336 L 612.8385782447865 69.95931769238642 L 612.6493262549925 69.89371118824668 L 612.4615349989256 69.82725245596986 L 612.2752232555549 69.7599481413738 L 612.0904096558995 69.69180497483389 L 611.9071126811655 69.62282977060998 L 611.7253506608972 69.55302942616503 L 611.5451417711457 69.4824109214753 L 611.3665040326495 69.41098131833243 L 611.1894553090335 69.3387477596372 L 611.0140133050227 69.26571746868528 L 610.8401955646713 69.19189774844492 L 610.6680194696083 69.1172959808266 L 610.4975022373 69.04191962594494 L 610.3286609193274 68.96577622137262 L 610.1615123996814 68.88887338138663 L 609.9960733930751 68.81121879620689 L 609.8323604432709 68.73282023122718 L 609.6703899214276 68.6536855262387 L 609.5101780244623 68.573822594646 L 609.3517407734312 68.49323942267567 L 609.1950940119274 68.41194406857777 L 609.0402534044965 68.32994466181995 L 608.8872344350702 68.24724940227456 L 608.7360524054179 68.16386655939866 L 608.5867224336166 68.07980447140702 L 608.4392594525391 67.99507154443839 L 608.2936782083606 67.90967625171488 L 608.1499932590841 67.8236271326946 L 608.0082189730849 67.73693279221771 L 607.8683695276735 67.64960189964606 L 607.7304589076778 67.56164318799608 L 607.5945009040447 67.47306545306569 L 607.4605091124616 67.38387755255452 L 607.3284969319959 67.29408840517834 L 607.1984775637555 67.20370698977703 L 607.070464009569 67.11274234441683 L 606.9444690706852 67.02120356548647 L 606.8205053464928 66.92909980678756 L 606.6985852332612 66.83644027861922 L 606.5787209228997 66.74323424685704 L 606.4609244017398 66.64949103202653 L 606.3452074493354 66.55522000837107 L 606.2315816372851 66.46043060291444 L 606.1200583280757 66.3651322945182 L 606.0106486739451 66.2693346129338 L 605.9033636157674 66.17304713784955 L 605.7982138819591 66.07627949793272 L 605.6952099874061 65.97904136986665 L 605.5943622324118 65.88134247738313 L 605.4956807016677 65.78319259028999 L 605.3991752632447 65.68460152349414 L 605.3048555676063 65.58557913602012 L 605.2127310466433 65.48613533002413 L 605.1228109127311 65.38628004980393 L 605.0351041578082 65.2860232808043 L 604.9496195524769 65.18537504861862 L 604.8663656451266 65.08434541798623 L 604.7853507610786 64.982944491786 L 604.7065830017538 64.88118241002603 L 604.6300702438625 64.77906934882972 L 604.5558201386167 64.67661551941809 L 604.4838401109652 64.5738311670887 L 604.4141373588504 64.47072657019112 L 604.34671885249 64.36731203909913 L 604.281591333678 64.26359791517966 L 604.218761315112 64.15959456975868 L 604.1582350797419 64.05531240308405 L 604.1000186801404 63.95076184328555 L 604.0441179378992 63.84595334533201 L 603.9905384430457 63.74089738998592 L 603.9392855534849 63.63560448275524 L 603.8903643944631 63.530085152842965 L 603.8437798580552 63.42434995209415 L 603.7995366026763 63.318409453940745 L 603.7576390526149 63.2122742523443 L 603.7180913975911 63.105954960736526 L 603.6808975923375 62.99946221095797 L 603.6460613562036 62.892806652194885 L 603.6135861727839 62.78599894991426 L 603.58347528957 62.679049784797314 L 603.5557317176247 62.57196985167143 L 603.5303582312823 62.464769858440704 L 603.5073573678703 62.357460525015114 L 603.4867314274559 62.25005258223858 L 603.4684824726157 62.14255677081588 L 603.4526123282303 62.03498384023857 L 603.4391225813008 61.92734454771006 L 603.4280145807905 61.81964965706991 L 603.4192894374905 61.71190993771744 L 603.4129480239076 61.6041361635348 L 603.408990974178 61.49633911180959 L 603.4074186840032 61.38852956215717 L 603.4082313106112 61.28071829544265 L 603.4114287727398 61.172916092702856 L 603.4170107506454 61.06513373406823 L 603.4249766861351 60.957381997684834 L 603.4353257826218 60.84967165863649 L 603.4480570052046 60.74201348786736 L 603.4631690807718 60.6344182511048 L 603.4806604981284 60.526896707782825 L 603.5005295081471 60.41945960996616 L 603.5227741239438 60.31211770127506 L 603.5473921210753 60.204881715810956 L 603.5743810377622 60.097762377083015 L 603.6037381751356 59.99077039693585 L 603.6354605975062 59.88391647447831 L 603.6695451326581 59.7772112950136 L 603.7059883721661 59.67066552897075 L 603.7447866717368 59.56428983083758 L 603.7859361515725 59.45809483809524 L 603.8294326967596 59.35209117015452 L 603.8752719576796 59.24628942729389 L 603.9234493504448 59.14070018959944 L 603.9739600573561 59.03533401590697 L 604.0267990273846 58.93020144274604 L 604.0819609766778 58.82531298328635 L 604.1394403890864 58.72067912628645 L 604.1992315167172 58.61631033504484 L 604.261328380507 58.51221704635366 L 604.3257247708216 58.40840966945505 L 604.3924142480754 58.30489858500019 L 604.4613901433762 58.20169414401126 L 604.532645559192 58.098806666846365 L 604.6061733700407 57.996246442167475 L 604.6819662232023 57.894023725911595 L 604.7600165394547 57.79214874026516 L 604.8403165138315 57.69063167264185 L 604.9228581164018 57.58948267466382 L 605.0076330930746 57.488711861146584 L 605.0946329664225 57.38832930908751 L 605.1838490365309 57.28834505665816 L 605.275272381867 57.18876910220045 L 605.3688938601725 57.08961140322686 L 605.4647041093775 56.99088187542464 L 605.5626935485371 56.8925903916643 L 605.662852378789 56.794746781012314 L 605.7651705843335 56.6973608277482 L 605.8696379334353 56.60044227038614 L 605.9762439794468 56.5040008007011 L 606.0849780618521 56.40804606275968 L 606.1958293073334 56.31258765195572 L 606.3087866308588 56.217635114050736 L 606.4238387367899 56.12319794421941 L 606.540974120012 56.029285586100016 L 606.6601810670844 55.93590743085011 L 606.7814476574118 55.8430728162074 L 606.9047617644362 55.75079102555599 L 607.0301110568497 55.65907128699804 L 607.1574829998274 55.56792277243099 L 607.2868648562812 55.47735459663031 L 607.4182436881333 55.387375816338135 L 607.5516063576099 55.29799542935749 L 607.6869395285553 55.20922237365261 L 607.8242296677652 55.12106552645507 L 607.9634630463399 55.033533703376136 L 608.1046257410578 54.94663565752517 L 608.2477036357669 54.86038007863435 L 608.3926824227971 54.77477559218967 L 608.5395476043903 54.689830758568455 L 608.688284494151 54.60555407218327 L 608.838878218514 54.52195396063252 L 608.9913137182324 54.439038783857704 L 609.1455757498832 54.35681683330739 L 609.3016488873918 54.27529633110813 L 609.4595175235746 54.19448542924221 L 609.6191658716996 54.114392208732454 L 609.7805779670647 54.03502467883419 L 609.9437376685952 53.95639077623426 L 610.1086286604567 53.878498364257396 L 610.2752344536876 53.801355232079885 L 610.4435383878474 53.72496909395066 L 610.6135236326827 53.649347588419886 L 610.785173189811 53.57449827757509 L 610.9584698944194 53.50042864628498 L 611.1333964169819 53.42714610145097 L 611.3099352649921 53.35465797126647 L 611.4880687847121 53.28297150448409 L 611.6677791629387 53.21209386969077 L 611.8490484287836 53.14203215459092 L 612.0318584554713 53.072793365297684 L 612.2161909621515 53.00438442563227 L 612.4020275157272 52.93681217643165 L 612.5893495326978 52.870083374864436 L 612.7781382810177 52.80420469375517 L 612.9683748819696 52.739182720917064 L 613.1600403120517 52.67502395849323 L 613.3531154048808 52.611734822306424 L 613.5475808531085 52.54932164121754 L 613.743417210352 52.48779065649267 L 613.9406048931388 52.427148021179015 L 614.1391241828651 52.36739979948956 L 614.3389552277671 52.3085519661967 L 614.5400780449069 52.25061040603471 L 614.7424725221705 52.19358091311133 L 614.9461184202788 52.13746919032833 L 615.1509953748116 52.08228084881122 L 615.3570828982442 52.02802140734818 L 615.5643603819962 51.974696291838114 L 615.7728070984916 51.922310834748146 L 615.9824022032328 51.87087027458034 L 616.1931247368838 51.82037975534783 L 616.4049536273668 51.770844326060484 L 616.6178676919694 51.72226894021993 L 616.8318456394626 51.674658455324284 L 617.0468660722298 51.62801763238236 L 617.262907488407 51.58235113543759 L 617.4799482840325 51.5376635311016 L 617.6979667552079 51.49395928809759 L 617.9169411002674 51.451242776813444 L 618.1368494219591 51.409518268864694 L 618.3576697296344 51.368789936667355 L 618.5793799414461 51.32906185302072 L 618.801957886558 51.29033799070003 L 619.0253813073609 51.252622222059266 L 619.2496278616991 51.21591831864385 L 619.474675125104 51.18022995081354 L 619.7005005930367 51.14556068737539 L 619.9270816831388 51.11191399522683 L 620.15439573749 51.079293239009054 L 620.382420024874 51.047701680770494 L 620.6111317430525 51.01714247964064 L 620.8405080210441 50.98761869151416 L 621.0705259214122 50.95913326874524 L 621.3011624425584 50.93168905985244 L 621.5323945210228 50.90528880923376 L 621.7641990337901 50.87993515689227 L 621.9965528006024 50.85563063817208 L 622.2294325862766 50.83237768350481 L 622.4628151030282 50.81017861816654 L 622.6966770128 50.78903566204531 L 622.9309949295958 50.768950929419105 L 623.1657454218193 50.749926428744466 L 623.4009050146169 50.7319640624556 L 623.6364501922253 50.71506562677416 L 623.8723574003229 50.69923281152964 L 624.1086030483857 50.684467199990365 L 624.3451635120455 50.6707702687052 L 624.5820151354533 50.658143387355835 L 624.8191342336439 50.64658781861989 L 625.0564970949054 50.63610471804463 L 625.2940799831491 50.62669513393135 L 625.5318591402844 50.61836000723063 L 625.7698107885938 50.61110017144819 L 626.0079111331105 50.604916352561574 L 626.2461363639986 50.5998091689475 L 626.4844626589337 50.595779131320086 L 626.7228661854847 50.592826642679725 L 626.9613231034975 50.59095199827282 L 627.1998095674794 50.59015538556226 L 627.4383017289824 50.59043688420866 L 627.6767757389892 50.59179646606236 L 627.9152077502977 50.594233995166334 L 628.1535739199052 50.59774922776969 L 628.3918504113934 50.6023418123521 L 628.6300133973119 50.60801128965893 L 628.8680390615605 50.61475709274719 L 629.1059036017709 50.622578547042174 L 629.3435832316876 50.63147487040497 L 629.5810541835457 50.64144517321068 L 629.8182927104476 50.6524884584373 L 630.0552750887385 50.66460362176552 L 630.2919776203781 50.67778945168912 L 630.5283766353105 50.69204462963607 L 630.7644484938311 50.70736773010048 L 631.0001695889507 50.72375722078505 L 631.2355163487564 50.74121146275439 L 631.4704652387683 50.759728710598836 L 631.704992764293 50.77930711260903 L 631.9390754727738 50.79994471096109 L 632.1726899561345 50.821639441912396 L 632.4058128531216 50.844389136007905 L 632.6384208516397 50.86819151829718 L 632.8704906910828 50.893044208561825 L 633.1019991646602 50.91894472155353 L 633.3329231217177 50.94589046724256 L 633.5632394700519 50.973878751076825 L 633.7929251782199 51.00290677425126 L 634.0219572778423 51.03297163398772 L 634.2503128658999 51.064070323825305 L 634.4779691070244 51.09619973392093 L 634.7049032357811 51.129356651360375 L 634.9310925589465 51.16353776047952 L 635.1565144577768 51.198739643195935 L 635.3811463902697 51.23495877935069 L 635.6049658934194 51.27219154706035 L 635.827950585462 51.31043422307917 L 636.0500781681139 51.349682983171405 L 636.2713264288025 51.38993390249377 L 636.4916732428856 51.43118295598788 L 636.7110965758654 51.47342601878273 L 636.9295744855918 51.51665886660727 L 637.1470851244558 51.56087717621274 L 637.3636067415746 51.60607652580503 L 637.579117684967 51.65225239548683 L 637.7935964037182 51.69940016770967 L 638.0070214501352 51.74751512773561 L 638.2193714818911 51.79659246410874 L 638.4306252641599 51.84662726913632 L 638.640761671739 51.89761453937955 L 638.8497596911631 51.949549176153894 L 639.0575984228043 52.00242598603895 L 639.2642570829626 52.0562396813978 L 639.4697150059443 52.11098488090573 L 639.6739516461282 52.16665611008844 L 639.8769465800206 52.22324780186939 L 640.0786795082971 52.28075429712656 L 640.2791302578332 52.339169845258354 L 640.4782787837208 52.398488604758626 L 640.6761051712734 52.458704643800864 L 640.8725896380171 52.51981194083135 L 641.0677125356689 52.581804385171296 L 641.2614543521016 52.64467577762793 L 641.453795713295 52.708419831114405 L 641.6447173852735 52.77303017127848 L 641.8342002760286 52.83850033713999 L 642.0222254374295 52.90482378173691 L 642.2087740671166 52.97199387278003 L 642.3938275103823 53.040003893316246 L 642.5773672620365 53.108847042400164 L 642.7593749682572 53.17851643577425 L 642.9398324284253 53.24900510655722 L 643.1187215969452 53.32030600594074 L 643.2960245850489 53.39241200389429 L 643.4717236625858 53.465315889878156 L 643.6458012597941 53.5390103735645 L 643.8182399690594 53.61348808556637 L 643.9890225466544 53.68874157817461 L 644.1581319144636 53.76476332610268 L 644.3255511616912 53.84154572723915 L 644.4912635465521 53.91908110340788 L 644.6552524979458 53.99736170113587 L 644.8175016171137 54.07637969242858 L 644.9779946792794 54.156127175552726 L 645.1367156352702 54.236596175826456 L 645.2936486131227 54.3177786464168 L 645.4487779196701 54.39966646914434 L 645.602088042111 54.48225145529506 L 645.7535636495606 54.56552534643915 L 645.9031895945848 54.6494798152569 L 646.0509509147136 54.73410646637139 L 646.1968328339381 54.81939683718802 L 646.3408207641879 54.9053423987408 L 646.4829003067902 54.99193455654518 L 646.6230572539089 55.079164651457546 L 646.7612775899661 55.16702396054111 L 646.8975474930435 55.25550369793815 L 647.0318533362642 55.344595015748695 L 647.1641816891561 55.43428900491518 L 647.2945193189937 55.52457669611344 L 647.4228531921231 55.615449060649595 L 647.5491704752637 55.706897011362926 L 647.6734585367924 55.79891140353456 L 647.7957049480068 55.891483035801954 L 647.9158974843675 55.98460265107904 L 648.0340241267212 56.07826093748187 L 648.1500730625019 56.17244852925987 L 648.2640326869127 56.26715600773234 L 648.3758916040864 56.36237390223035 L 648.4856386282243 56.45809269104382 L 648.5932627847154 56.55430280237361 L 648.6987533112339 56.65099461528878 L 648.8020996588149 56.74815846068861 L 648.9032914929098 56.84578462226952 L 649.0023186944197 56.943863337496715 L 649.0991713607067 57.0423847985804 L 649.1938398065851 57.14133915345658 L 649.286314565289 57.240716506772216 L 649.3765863894198 57.34050692087479 L 649.4646462518701 57.44070041680606 L 649.5504853467272 57.54128697529992 L 649.6340950901532 57.64225653778434 L 649.7154671212431 57.74359900738722 L 649.794593302862 57.84530424994605 L 649.8714657224575 57.94736209502132 L 649.9460766928516 58.04976233691358 L 650.0184187530097 58.15249473568397 L 650.0884846687859 58.25554901817823 L 650.1562674336469 58.35891487905398 L 650.2217602693729 58.46258198181127 L 650.2849566267348 58.566539959826216 L 650.3458501861495 58.67077841738765 L 650.4044348583119 58.77528693073668 L 650.4607047848035 58.88005504910905 L 650.5146543386787 58.985072295780256 L 650.566278125027 59.09032816911312 L 650.6155709815126 59.19581214360803 L 650.6625279788913 59.301513670955444 L 650.7071444215021 59.4074221810907 L 650.7494158477382 59.513527083251056 L 650.789338030492 59.619817767034704 L 650.8269069775787 59.72628360346185 L 650.8621189321346 59.832913946037564 L 650.8949703729941 59.939698131816456 L 650.9254580150399 60.046625482468926 L 650.9535788095336 60.153685305349015 L 650.979329944419 60.26086689456366 L 651.0027088446042 60.36815953204325 L 651.0237131722184 60.47555248861345 L 651.0423408268467 60.5830350250681 L 651.058589945739 60.69059639324311 L 651.0724589039969 60.79822583709131 L 651.0839463147362 60.905912593758 L 651.0930510292253 61.01364589465726 L 651.0997721370005 61.12141496654876 L 651.1041089659565 61.22920903261514 L 651.106061082414 61.337017313539604 M 651.10618207247 95.6752857281 L 651.1049896125663 95.78309627301661 L 651.1014123521003 95.89089603696858 L 651.095450648795 95.99867424006935 L 651.0871050988156 96.1064201045884 L 651.0763765367104 96.21412285602908 L 651.0632660353266 96.321771724206 L 651.0477749057034 96.42935594432204 L 651.0299046969408 96.53686475804484 L 651.0096571960447 96.64428741458265 L 650.9870344277485 96.75161317175929 L 650.9620386543102 96.85883129708851 L 650.9346723752861 96.96593106884711 L 650.9049383272816 97.07290177714718 L 650.8728394836764 97.17973272500701 L 650.8383790543284 97.28641322942086 L 650.8015604852516 97.39293262242717 L 650.7623874582722 97.49928025217542 L 650.7208638906604 97.60544548399125 L 650.6769939347384 97.71141770143996 L 650.6307819774651 97.8171863073881 L 650.5822326399978 97.92274072506322 L 650.5313507772297 98.02807039911151 L 650.4781414773048 98.13316479665336 L 650.4226100611086 98.23801340833658 L 650.3647620817366 98.34260574938737 L 650.3046033239384 98.4469313606588 L 650.2421398035398 98.55097980967666 L 650.1773777668406 98.65474069168278 L 650.1103236899905 98.7582036306754 L 650.0409842783416 98.86135828044685 L 649.969366465777 98.96419432561812 L 649.8954774140183 99.0667014826704 L 649.8193245119093 99.16886950097337 L 649.7409153746764 99.27068816381038 L 649.6602578431683 99.37214728939998 L 649.5773599830709 99.47323673191414 L 649.492230084101 99.57394638249288 L 649.4048766591776 99.67426617025505 L 649.3153084435704 99.77418606330548 L 649.2235343940264 99.87369606973812 L 649.129563687874 99.97278623863527 L 649.0334057221054 100.0714466610626 L 648.9350701124373 100.1696674710601 L 648.8345666923485 100.2674388466286 L 648.7319055120973 100.36475101071201 L 648.6270968377163 100.46159423217506 L 648.5201511499854 100.55795882677627 L 648.4110791433844 100.65383515813649 L 648.2998917250231 100.74921363870249 L 648.1866000135506 100.84408473070569 L 648.0712153380437 100.93843894711594 L 647.9537492368736 101.03226685259024 L 647.8342134565527 101.12555906441622 L 647.7126199505594 101.21830625345046 L 647.588980878143 101.31049914505132 L 647.4633086031076 101.4021285200065 L 647.3356156925762 101.49318521545483 L 647.2059149157332 101.58366012580265 L 647.0742192425482 101.67354420363434 L 646.940541842479 101.762828460617 L 646.8048960831541 101.85150396839936 L 646.6672955290362 101.93956185950451 L 646.5277539400663 102.02699332821673 L 646.386285270287 102.11378963146201 L 646.2429036664472 102.19994208968237 L 646.0976234665881 102.28544208770374 L 645.9504591986082 102.37028107559762 L 645.8014255788121 102.45445056953588 L 645.6505375104372 102.53794215263929 L 645.4978100821648 102.6207474758191 L 645.3432585666105 102.70285825861201 L 645.1868984187971 102.78426629000816 L 645.0287452746088 102.86496342927225 L 644.8688149492285 102.9449416067576 L 644.7071234355553 103.02419282471311 L 644.543686902606 103.10270915808303 L 644.3785216938975 103.18048275529944 L 644.2116443258132 103.25750583906745 L 644.0430714859507 103.33377070714286 L 643.8728200314536 103.4092697331024 L 643.7009069873254 103.48399536710642 L 643.5273495447274 103.55794013665377 L 643.352165059259 103.63109664732913 L 643.175371049223 103.70345758354237 L 642.996985193873 103.7750157092602 L 642.8170253316457 103.84576386872968 L 642.6355094583777 103.91569498719377 L 642.4524557255047 103.98480207159896 L 642.2678824382477 104.05307821129438 L 642.0818080537815 104.12051657872294 L 641.8942511793896 104.1871104301041 L 641.7052305706029 104.25285310610823 L 641.514765129325 104.31773803252251 L 641.3228739019412 104.38175872090837 L 641.1295760774144 104.44490876925032 L 640.9348909853659 104.50718186259614 L 640.7388380941427 104.5685717736884 L 640.5414370088705 104.62907236358716 L 640.3427074694935 104.68867758228383 L 640.1426693487997 104.7473814693062 L 639.9413426504348 104.80517815431453 L 639.7387475069007 104.86206185768845 L 639.5349041775429 104.91802689110501 L 639.3298330465246 104.97306765810755 L 639.1235546207879 105.02717865466522 L 638.9160895280036 105.08035446972343 L 638.7074585145078 105.13258978574503 L 638.4976824432284 105.18387937924192 L 638.2867822915974 105.23421812129749 L 638.0747791494543 105.28360097807949 L 637.8616942169367 105.33202301134341 L 637.6475488023603 105.37947937892625 L 637.432364320088 105.4259653352308 L 637.2161622883888 105.4714762317002 L 636.9989643272856 105.51600751728267 L 636.7807921563937 105.55955473888682 L 636.5616675927481 105.60211354182675 L 636.3416125486227 105.64367967025764 L 636.1206490293387 105.68424896760128 L 635.8987991310637 105.72381737696173 L 635.6760850386027 105.76238094153106 L 635.4525290231792 105.79993580498493 L 635.2281534402088 105.83647821186828 L 635.0029807270624 105.8720045079709 L 634.777033400824 105.90651114069276 L 634.5503340560379 105.93999465939936 L 634.3229053624494 105.97245171576672 L 634.0947700627386 106.00387906411626 L 633.8659509702453 106.03427356173933 L 633.636470966688 106.0636321692115 L 633.4063529998759 106.09195195069648 L 633.1756200814139 106.11923007423972 L 632.9442952844015 106.14546381205162 L 632.7124017411256 106.17065054078024 L 632.4799626407475 106.1947877417737 L 632.2470012269835 106.21787300133201 L 632.0135407957805 106.23990401094846 L 631.7796046929875 106.26087856754044 L 631.5452163120195 106.28079457366978 L 631.3103990915196 106.29965003775246 L 631.075176513014 106.31744307425777 L 630.8395720985643 106.3341719038969 L 630.603609408416 106.34983485380084 L 630.3673120386413 106.36443035768762 L 630.1307036187803 106.37795695601905 L 629.8938078094777 106.39041329614655 L 629.6566483001172 106.40179813244647 L 629.4192488064521 106.4121103264447 L 629.1816330682336 106.42134884693041 L 628.943824846838 106.42951277005928 L 628.7058479228889 106.43660127944577 L 628.4677260938805 106.44261366624485 L 628.2294831717974 106.44754932922287 L 627.991142980733 106.45140777481762 L 627.752729354508 106.45418861718778 L 627.5142661342862 106.45589157825142 L 627.2757771661911 106.45651648771386 L 627.0372862989205 106.45606328308465 L 626.7988173813627 106.4545320096839 L 626.5603942602105 106.45192282063768 L 626.3220407775775 106.44823597686269 L 626.0837807686131 106.44347184704026 L 625.8456380591199 106.43763090757939 L 625.6076364631703 106.43071374256917 L 625.3697997807254 106.42272104372033 L 625.1321517952555 106.41365361029608 L 624.894716271361 106.40351234903224 L 624.6575169523962 106.39229827404645 L 624.4205775580958 106.38001250673689 L 624.1839217822015 106.36665627567004 L 623.9475732900937 106.35223091645787 L 623.7115557164246 106.33673787162431 L 623.4758926627551 106.32017869046089 L 623.240607695194 106.30255502887195 L 623.005724342042 106.28386864920897 L 622.7712660914386 106.26412142009434 L 622.5372563890138 106.2433153162345 L 622.3037186355424 106.22145241822251 L 622.0706761846055 106.19853491232995 L 621.8381523402538 106.17456509028831 L 621.6061703546779 106.14954534905984 L 621.3747534258833 106.12347819059778 L 621.1439246953698 106.09636622159626 L 620.9137072458183 106.06821215322961 L 620.6841240987817 106.03901880088118 L 620.4551982123834 106.0087890838619 L 620.2269524790214 105.97752602511825 L 619.9994097230788 105.94523275093007 L 619.7725926986415 105.91191249059789 L 619.546524087223 105.87756857611994 L 619.321226495496 105.84220444185907 L 619.0967224530319 105.8058236241992 L 618.873034410048 105.76842976119184 L 618.6501847351622 105.73002659219209 L 618.428195713156 105.69061795748485 L 618.207089542747 105.65020779790075 L 617.9868883343676 105.60880015442207 L 617.7676141079554 105.56639916777867 L 617.5492887907502 105.52300907803387 L 617.3319342151018 105.47863422416049 L 617.1155721162868 105.43327904360692 L 616.9002241303344 105.38694807185344 L 616.6859117918642 105.33964594195861 L 616.4726565319311 105.291377384096 L 616.2604796758836 105.24214722508117 L 616.0494024412303 105.19196038788901 L 615.8394459355189 105.1408218911614 L 615.6306311542251 105.08873684870541 L 615.4229789786527 105.03571046898188 L 615.2165101738466 104.98174805458457 L 615.0112453865149 104.92685500170998 L 614.8072051429655 104.87103679961766 L 614.6044098470525 104.81429903008126 L 614.4028797781367 104.75664736683049 L 614.202635089057 104.69808757498365 L 614.0036958041154 104.63862551047107 L 613.8060818170746 104.57826711944969 L 613.6098128891688 104.51701843770829 L 613.4149086471269 104.45488559006402 L 613.221388581211 104.39187478974986 L 613.0292720432662 104.32799233779335 L 612.8385782447865 104.26324462238642 L 612.6493262549925 104.19763811824667 L 612.4615349989256 104.13117938596986 L 612.2752232555549 104.0638750713738 L 612.0904096558995 103.99573190483389 L 611.9071126811655 103.92675670060999 L 611.7253506608972 103.85695635616503 L 611.5451417711457 103.7863378514753 L 611.3665040326495 103.71490824833242 L 611.1894553090335 103.64267468963719 L 611.0140133050227 103.56964439868527 L 610.8401955646713 103.4958246784449 L 610.6680194696083 103.4212229108266 L 610.4975022373 103.34584655594495 L 610.3286609193274 103.26970315137261 L 610.1615123996814 103.19280031138662 L 609.9960733930751 103.11514572620688 L 609.8323604432709 103.03674716122718 L 609.6703899214276 102.9576124562387 L 609.5101780244623 102.87774952464599 L 609.3517407734312 102.79716635267567 L 609.1950940119274 102.71587099857777 L 609.0402534044965 102.63387159181995 L 608.8872344350702 102.55117633227457 L 608.7360524054179 102.46779348939864 L 608.5867224336166 102.383731401407 L 608.4392594525391 102.29899847443839 L 608.2936782083606 102.21360318171489 L 608.1499932590841 102.12755406269459 L 608.0082189730849 102.04085972221772 L 607.8683695276735 101.95352882964605 L 607.7304589076778 101.86557011799609 L 607.5945009040447 101.77699238306569 L 607.4605091124616 101.68780448255453 L 607.3284969319959 101.59801533517833 L 607.1984775637555 101.50763391977702 L 607.070464009569 101.41666927441683 L 606.9444690706852 101.32513049548646 L 606.8205053464928 101.23302673678755 L 606.6985852332612 101.14036720861921 L 606.5787209228997 101.04716117685703 L 606.4609244017398 100.95341796202653 L 606.3452074493354 100.85914693837105 L 606.2315816372851 100.76435753291443 L 606.1200583280757 100.66905922451821 L 606.0106486739451 100.5732615429338 L 605.9033636157674 100.47697406784954 L 605.7982138819591 100.3802064279327 L 605.6952099874061 100.28296829986664 L 605.5943622324118 100.18526940738312 L 605.4956807016677 100.08711952028997 L 605.3991752632447 99.98852845349413 L 605.3048555676063 99.8895060660201 L 605.2127310466433 99.79006226002413 L 605.1228109127311 99.69020697980392 L 605.0351041578082 99.5899502108043 L 604.9496195524769 99.48930197861863 L 604.8663656451266 99.38827234798623 L 604.7853507610786 99.28687142178599 L 604.7065830017538 99.18510934002603 L 604.6300702438625 99.08299627882971 L 604.5558201386167 98.98054244941808 L 604.4838401109652 98.87775809708869 L 604.4141373588504 98.7746535001911 L 604.34671885249 98.67123896909912 L 604.281591333678 98.56752484517966 L 604.218761315112 98.46352149975867 L 604.1582350797419 98.35923933308405 L 604.1000186801404 98.25468877328554 L 604.0441179378992 98.14988027533201 L 603.9905384430457 98.04482431998592 L 603.9392855534849 97.93953141275524 L 603.8903643944631 97.83401208284296 L 603.8437798580552 97.72827688209414 L 603.7995366026763 97.62233638394075 L 603.7576390526149 97.5162011823443 L 603.7180913975911 97.40988189073651 L 603.6808975923375 97.30338914095798 L 603.6460613562036 97.19673358219488 L 603.6135861727839 97.08992587991426 L 603.58347528957 96.9829767147973 L 603.5557317176247 96.87589678167143 L 603.5303582312823 96.7686967884407 L 603.5073573678703 96.66138745501512 L 603.4867314274559 96.55397951223858 L 603.4684824726157 96.44648370081588 L 603.4526123282303 96.33891077023856 L 603.4391225813008 96.23127147771005 L 603.4280145807905 96.1235765870699 L 603.4192894374905 96.01583686771744 L 603.4129480239076 95.90806309353479 L 603.408990974178 95.80026604180959 L 603.4074186840032 95.69245649215716" stroke-miterlimit="10" stroke-width="2.7769845610000004" stroke-dasharray=""/></g><g><text fill="black" stroke="none" font-family="sans-serif" font-size="11pt" font-style="normal" font-weight="normal" text-decoration="normal" x="597.9225033330833" y="123.984193047" text-anchor="start" dominant-baseline="alphabetic" xml:space="preserve">State DB</text></g><path fill="none" stroke="none"/><g><path fill="PowderBlue" stroke="black" paint-order="fill stroke markers" d=" M 871.0535317096471 84.94305716000001 L 972.4851452827565 84.94305716000001 L 972.4851452827565 128.884754037 L 871.0535317096471 128.884754037 L 871.0535317096471 84.94305716000001 Z" stroke-miterlimit="10" stroke-width="2.613632528" stroke-dasharray=""/></g><g><text fill="black" stroke="none" font-family="sans-serif" font-size="11pt" font-style="normal" font-weight="normal" text-decoration="normal" x="888.7772272901472" y="112.54955073700002" text-anchor="start" dominant-baseline="alphabetic" xml:space="preserve">PortsOrch</text></g><path fill="none" stroke="none"/><g><path fill="PowderBlue" stroke="black" paint-order="fill stroke markers" d=" M 1325.433615774133 84.94305716000001 L 1384.5102031021252 84.94305716000001 L 1384.5102031021252 128.884754037 L 1325.433615774133 128.884754037 L 1325.433615774133 84.94305716000001 Z" stroke-miterlimit="10" stroke-width="2.613632528" stroke-dasharray=""/></g><g><text fill="black" stroke="none" font-family="sans-serif" font-size="11pt" font-style="normal" font-weight="normal" text-decoration="normal" x="1343.1573113546328" y="112.54955073700002" text-anchor="start" dominant-baseline="alphabetic" xml:space="preserve">SAI</text></g><path fill="none" stroke="none"/><g><path fill="PowderBlue" stroke="black" paint-order="fill stroke markers" d=" M 1400.845406402125 84.94305716000001 L 1466.4359555221095 84.94305716000001 L 1466.4359555221095 128.884754037 L 1400.845406402125 128.884754037 L 1400.845406402125 84.94305716000001 Z" stroke-miterlimit="10" stroke-width="2.613632528" stroke-dasharray=""/></g><g><text fill="black" stroke="none" font-family="sans-serif" font-size="11pt" font-style="normal" font-weight="normal" text-decoration="normal" x="1418.569101982625" y="112.54955073700002" text-anchor="start" dominant-baseline="alphabetic" xml:space="preserve">SDK</text></g><path fill="none" stroke="none"/><g><path fill="PowderBlue" stroke="black" paint-order="fill stroke markers" d=" M 1559.0261143884336 84.94305716000001 L 1617.2652078199415 84.94305716000001 L 1617.2652078199415 128.884754037 L 1559.0261143884336 128.884754037 L 1559.0261143884336 84.94305716000001 Z" stroke-miterlimit="10" stroke-width="2.613632528" stroke-dasharray=""/></g><g><text fill="black" stroke="none" font-family="sans-serif" font-size="11pt" font-style="normal" font-weight="normal" text-decoration="normal" x="1576.7498099689335" y="112.54955073700002" text-anchor="start" dominant-baseline="alphabetic" xml:space="preserve">FW</text></g><path fill="none" stroke="none"/><g><path fill="PowderBlue" stroke="black" paint-order="fill stroke markers" d=" M 1700.8861512931992 84.94305716000001 L 1784.4151311993164 84.94305716000001 L 1784.4151311993164 128.884754037 L 1700.8861512931992 128.884754037 L 1700.8861512931992 84.94305716000001 Z" stroke-miterlimit="10" stroke-width="2.613632528" stroke-dasharray=""/></g><g><text fill="black" stroke="none" font-family="sans-serif" font-size="11pt" font-style="normal" font-weight="normal" text-decoration="normal" x="1718.609846873699" y="112.54955073700002" text-anchor="start" dominant-baseline="alphabetic" xml:space="preserve">Module</text></g></g><g><g><g><rect fill="white" stroke="none" x="970.4013920561497" y="161.55516063699997" width="210.2690912634375" height="21.23576429"/></g><g><rect fill="white" stroke="none" x="970.4013920561497" y="177.89036393699996" width="335.9384638220312" height="21.23576429"/></g><text fill="black" stroke="none" font-family="sans-serif" font-size="11pt" font-style="normal" font-weight="normal" text-decoration="normal" x="972.8516725511497" y="176.25684360699995" text-anchor="start" dominant-baseline="alphabetic" xml:space="preserve">sai_query_attribute_capabilities</text><text fill="black" stroke="none" font-family="sans-serif" font-size="11pt" font-style="normal" font-weight="normal" text-decoration="normal" x="972.8516725511497" y="192.59204690699994" text-anchor="start" dominant-baseline="alphabetic" xml:space="preserve">(SAI_PORT_ATTR_HOST_TX_SIGNAL_ENABLE)</text></g><g><path fill="none" stroke="black" paint-order="fill stroke markers" d=" M 921.7693384962018 199.12612822699998 L 1341.5225920544622 199.12612822699998" stroke-miterlimit="10" stroke-width="1.3612669416666667" stroke-dasharray=""/><g transform="translate(1354.971909438129,199.12612822699998) translate(-1354.971909438129,-199.12612822699998)"><path fill="black" stroke="none" paint-order="stroke fill markers" d=" M 1341.3592400214623 192.31979351866664 L 1354.971909438129 199.12612822699998 L 1341.3592400214623 205.93246293533332 Z"/></g></g><g><g><rect fill="white" stroke="none" x="1088.6440602080052" y="223.628933177" width="99.45312751832031" height="21.23576429"/></g><text fill="black" stroke="none" font-family="sans-serif" font-size="11pt" font-style="normal" font-weight="normal" text-decoration="normal" x="1091.0943407030052" y="238.33061614699997" text-anchor="start" dominant-baseline="alphabetic" xml:space="preserve">enable/disable</text></g><g><path fill="none" stroke="black" paint-order="fill stroke markers" d=" M 1354.971909438129 244.86469746699998 L 935.2186558798685 244.86469746699998" stroke-miterlimit="10" stroke-width="1.3612669416666667" stroke-dasharray=""/><g transform="translate(921.7693384962018,244.86469746699998) translate(-921.7693384962018,-244.86469746699998)"><path fill="black" stroke="none" paint-order="stroke fill markers" d=" M 935.3820079128685 238.05836275866665 L 921.7693384962018 244.86469746699998 L 935.3820079128685 251.67103217533332 Z"/></g></g><path fill="white" stroke="black" paint-order="fill stroke markers" d=" M 792.9873799260066 269.36750241699997 L 1035.849614096397 269.36750241699997 L 1050.5512970663972 284.06918538699995 L 1050.5512970663972 306.938470007 L 792.9873799260066 306.938470007 L 792.9873799260066 269.36750241699997 M 1035.849614096397 269.36750241699997 L 1035.849614096397 284.06918538699995 L 1050.5512970663972 284.06918538699995" stroke-miterlimit="10" stroke-width="1.3612669416666667" stroke-dasharray=""/><g><text fill="black" stroke="none" font-family="sans-serif" font-size="11pt" font-style="normal" font-weight="normal" text-decoration="normal" x="815.8566645460065" y="292.23678703699994" text-anchor="start" dominant-baseline="alphabetic" xml:space="preserve">save to </text><text fill="black" stroke="none" font-family="sans-serif" font-size="11pt" font-style="normal" font-weight="bold" text-decoration="normal" x="867.1952265577253" y="292.23678703699994" text-anchor="start" dominant-baseline="alphabetic" xml:space="preserve">saiHwTxSignalEnabled</text></g><g><g><rect fill="white" stroke="none" x="941.0993290678684" y="331.44127495699996" width="210.2690912634375" height="21.23576429"/></g><g><rect fill="white" stroke="none" x="941.0993290678684" y="347.77647825699995" width="394.5425897985937" height="21.23576429"/></g><text fill="black" stroke="none" font-family="sans-serif" font-size="11pt" font-style="normal" font-weight="normal" text-decoration="normal" x="943.5496095628685" y="346.14295792699994" text-anchor="start" dominant-baseline="alphabetic" xml:space="preserve">sai_query_attribute_capabilities</text><text fill="black" stroke="none" font-family="sans-serif" font-size="11pt" font-style="normal" font-weight="normal" text-decoration="normal" x="943.5496095628685" y="362.47816122699993" text-anchor="start" dominant-baseline="alphabetic" xml:space="preserve">(SAI_SWITCH_ATTR_PORT_HOST_TX_READY_NOTIFY)</text></g><g><path fill="none" stroke="black" paint-order="fill stroke markers" d=" M 921.7693384962018 369.01224254699997 L 1341.5225920544622 369.01224254699997" stroke-miterlimit="10" stroke-width="1.3612669416666667" stroke-dasharray=""/><g transform="translate(1354.971909438129,369.01224254699997) translate(-1354.971909438129,-369.01224254699997)"><path fill="black" stroke="none" paint-order="stroke fill markers" d=" M 1341.3592400214623 362.20590783866663 L 1354.971909438129 369.01224254699997 L 1341.3592400214623 375.8185772553333 Z"/></g></g><g><g><rect fill="white" stroke="none" x="1088.6440602080052" y="393.51504749699996" width="99.45312751832031" height="21.23576429"/></g><text fill="black" stroke="none" font-family="sans-serif" font-size="11pt" font-style="normal" font-weight="normal" text-decoration="normal" x="1091.0943407030052" y="408.21673046699993" text-anchor="start" dominant-baseline="alphabetic" xml:space="preserve">enable/disable</text></g><g><path fill="none" stroke="black" paint-order="fill stroke markers" d=" M 1354.971909438129 414.750811787 L 935.2186558798685 414.750811787" stroke-miterlimit="10" stroke-width="1.3612669416666667" stroke-dasharray=""/><g transform="translate(921.7693384962018,414.750811787) translate(-921.7693384962018,-414.750811787)"><path fill="black" stroke="none" paint-order="stroke fill markers" d=" M 935.3820079128685 407.94447707866664 L 921.7693384962018 414.750811787 L 935.3820079128685 421.5571464953333 Z"/></g></g><path fill="white" stroke="black" paint-order="fill stroke markers" d=" M 775.0740040715144 439.25361673699996 L 1053.7629899508893 439.25361673699996 L 1068.4646729208894 453.95529970699994 L 1068.4646729208894 476.82458432699997 L 775.0740040715144 476.82458432699997 L 775.0740040715144 439.25361673699996 M 1053.7629899508893 439.25361673699996 L 1053.7629899508893 453.95529970699994 L 1068.4646729208894 453.95529970699994" stroke-miterlimit="10" stroke-width="1.3612669416666667" stroke-dasharray=""/><g><text fill="black" stroke="none" font-family="sans-serif" font-size="11pt" font-style="normal" font-weight="normal" text-decoration="normal" x="797.9432886915143" y="462.12290135699993" text-anchor="start" dominant-baseline="alphabetic" xml:space="preserve">save to </text><text fill="black" stroke="none" font-family="sans-serif" font-size="11pt" font-style="normal" font-weight="bold" text-decoration="normal" x="849.2818507032331" y="462.12290135699993" text-anchor="start" dominant-baseline="alphabetic" xml:space="preserve">saiTxReadyNotifySupported</text></g><path fill="white" stroke="black" paint-order="fill stroke markers" d=" M 830.4879520561628 501.32738927699995 L 1013.050724936241 501.32738927699995 L 1027.752407906241 520.112873072 L 1013.050724936241 538.898356867 L 830.4879520561628 538.898356867 L 815.7862690861629 520.112873072 L 830.4879520561628 501.32738927699995" stroke-miterlimit="10" stroke-width="1.3612669416666667" stroke-dasharray=""/><g><text fill="black" stroke="none" font-family="sans-serif" font-size="11pt" font-style="normal" font-weight="normal" text-decoration="normal" x="838.6555537061628" y="524.196673897" text-anchor="start" dominant-baseline="alphabetic" xml:space="preserve">if saiHwTxSignalEnabled:</text></g><path fill="white" stroke="black" paint-order="fill stroke markers" d=" M 921.7693384962018 582.186645612 L 929.9369401462019 582.186645612 M 929.9369401462019 578.102844787 L 929.9369401462019 578.102844787 A 14.70168297 14.70168297 0 0 1 944.6386231162019 563.401161817 L 1296.3782453615142 563.401161817 L 1296.3782453615142 563.401161817 A 14.70168297 14.70168297 0 0 1 1311.0799283315143 578.102844787 L 1311.0799283315143 586.270446437 L 1311.0799283315143 586.270446437 A 14.70168297 14.70168297 0 0 1 1296.3782453615142 600.972129407 L 944.6386231162019 600.972129407 L 944.6386231162019 600.972129407 A 14.70168297 14.70168297 0 0 1 929.9369401462019 586.270446437 L 929.9369401462019 578.102844787" stroke-miterlimit="10" stroke-width="1.3612669416666667" stroke-dasharray=""/><g><text fill="black" stroke="none" font-family="sans-serif" font-size="11pt" font-style="normal" font-weight="normal" text-decoration="normal" x="952.8062247662019" y="586.270446437" text-anchor="start" dominant-baseline="alphabetic" xml:space="preserve">Register to TRANSCEIVER_INFO_TABLE changes</text></g><path fill="white" stroke="black" paint-order="fill stroke markers" d=" M 814.6003406670027 625.4749343569999 L 1028.938336325401 625.4749343569999 L 1043.640019295401 644.2604181519999 L 1028.938336325401 663.045901947 L 814.6003406670027 663.045901947 L 799.8986576970027 644.2604181519999 L 814.6003406670027 625.4749343569999" stroke-miterlimit="10" stroke-width="1.3612669416666667" stroke-dasharray=""/><g><text fill="black" stroke="none" font-family="sans-serif" font-size="11pt" font-style="normal" font-weight="normal" text-decoration="normal" x="822.7679423170026" y="648.344218977" text-anchor="start" dominant-baseline="alphabetic" xml:space="preserve">if saiTxReadyNotifySupported:</text></g><path fill="white" stroke="black" paint-order="fill stroke markers" d=" M 921.7693384962018 706.3341906919999 L 929.9369401462019 706.3341906919999 M 929.9369401462019 702.2503898669999 L 929.9369401462019 702.2503898669999 A 14.70168297 14.70168297 0 0 1 944.6386231162019 687.5487068969999 L 1184.2378492433502 687.5487068969999 L 1184.2378492433502 687.5487068969999 A 14.70168297 14.70168297 0 0 1 1198.9395322133503 702.2503898669999 L 1198.9395322133503 710.4179915169999 L 1198.9395322133503 710.4179915169999 A 14.70168297 14.70168297 0 0 1 1184.2378492433502 725.1196744869999 L 944.6386231162019 725.1196744869999 L 944.6386231162019 725.1196744869999 A 14.70168297 14.70168297 0 0 1 929.9369401462019 710.4179915169999 L 929.9369401462019 702.2503898669999" stroke-miterlimit="10" stroke-width="1.3612669416666667" stroke-dasharray=""/><g><text fill="black" stroke="none" font-family="sans-serif" font-size="11pt" font-style="normal" font-weight="normal" text-decoration="normal" x="952.8062247662019" y="710.4179915169999" text-anchor="start" dominant-baseline="alphabetic" xml:space="preserve">Initialize SAI notification consumer</text></g><path fill="none" stroke="black" paint-order="fill stroke markers" d=" M 8.16760165 762.9628954653332 L 1796.83239835 762.9628954653332 M 8.16760165 768.4079632319998 L 1796.83239835 768.4079632319998 M 8.16760165 773.8530309986664 L 1796.83239835 773.8530309986664" stroke-miterlimit="10" stroke-width="1.3612669416666667" stroke-dasharray=""/><path fill="white" stroke="black" paint-order="fill stroke markers" d=" M 810.68963517503 811.6962519769997 L 1018.1473588473738 811.6962519769997 L 1032.8490418173737 826.3979349469997 L 1032.8490418173737 849.2672195669998 L 810.68963517503 849.2672195669998 L 810.68963517503 811.6962519769997 M 1018.1473588473738 811.6962519769997 L 1018.1473588473738 826.3979349469997 L 1032.8490418173737 826.3979349469997" stroke-miterlimit="10" stroke-width="1.3612669416666667" stroke-dasharray=""/><g><text fill="black" stroke="none" font-family="sans-serif" font-size="11pt" font-style="normal" font-weight="normal" text-decoration="normal" x="833.55891979503" y="834.5655365969998" text-anchor="start" dominant-baseline="alphabetic" xml:space="preserve">Set port admin status -&gt; up</text></g><g><g><rect fill="white" stroke="none" x="1005.1401615873997" y="873.7700245169998" width="154.0343500525" height="21.23576429"/></g><g><rect fill="white" stroke="none" x="1005.1401615873997" y="890.1052278169998" width="266.4609247595312" height="21.23576429"/></g><text fill="black" stroke="none" font-family="sans-serif" font-size="11pt" font-style="normal" font-weight="normal" text-decoration="normal" x="1007.5904420823997" y="888.4717074869998" text-anchor="start" dominant-baseline="alphabetic" xml:space="preserve">status = sai_port_api-&gt;</text><text fill="black" stroke="none" font-family="sans-serif" font-size="11pt" font-style="normal" font-weight="normal" text-decoration="normal" x="1007.5904420823997" y="904.8069107869998" text-anchor="start" dominant-baseline="alphabetic" xml:space="preserve">set_port_attribute(port.m_port_id, &amp;attr);</text></g><g><path fill="none" stroke="black" paint-order="fill stroke markers" d=" M 921.7693384962018 911.3409921069998 L 1341.5225920544622 911.3409921069998" stroke-miterlimit="10" stroke-width="1.3612669416666667" stroke-dasharray=""/><g transform="translate(1354.971909438129,911.3409921069998) translate(-1354.971909438129,-911.3409921069998)"><path fill="black" stroke="none" paint-order="stroke fill markers" d=" M 1341.3592400214623 904.5346573986665 L 1354.971909438129 911.3409921069998 L 1341.3592400214623 918.1473268153331 Z"/></g></g><g><g><rect fill="white" stroke="none" x="1391.856014705123" y="935.8437970569997" width="4.90056099" height="21.23576429"/></g><text fill="black" stroke="none" font-family="sans-serif" font-size="11pt" font-style="normal" font-weight="normal" text-decoration="normal" x="1394.306295200123" y="950.5454800269997" text-anchor="start" dominant-baseline="alphabetic" xml:space="preserve"></text></g><g><path fill="none" stroke="black" paint-order="fill stroke markers" d=" M 1354.971909438129 957.0795613469998 L 1420.1913635784504 957.0795613469998" stroke-miterlimit="10" stroke-width="1.3612669416666667" stroke-dasharray=""/><g transform="translate(1433.6406809621171,957.0795613469998) translate(-1433.6406809621171,-957.0795613469998)"><path fill="black" stroke="none" paint-order="stroke fill markers" d=" M 1420.0280115454505 950.2732266386664 L 1433.6406809621171 957.0795613469998 L 1420.0280115454505 963.8858960553331 Z"/></g></g><g><g><rect fill="white" stroke="none" x="1508.4428905381521" y="981.5823662969997" width="4.90056099" height="21.23576429"/></g><text fill="black" stroke="none" font-family="sans-serif" font-size="11pt" font-style="normal" font-weight="normal" text-decoration="normal" x="1510.8931710331522" y="996.2840492669997" text-anchor="start" dominant-baseline="alphabetic" xml:space="preserve"></text></g><g><path fill="none" stroke="black" paint-order="fill stroke markers" d=" M 1433.6406809621171 1002.8181305869997 L 1574.6963437205206 1002.8181305869997" stroke-miterlimit="10" stroke-width="1.3612669416666667" stroke-dasharray=""/><g transform="translate(1588.1456611041874,1002.8181305869997) translate(-1588.1456611041874,-1002.8181305869997)"><path fill="black" stroke="none" paint-order="stroke fill markers" d=" M 1574.5329916875207 996.0117958786664 L 1588.1456611041874 1002.8181305869997 L 1574.5329916875207 1009.624465295333 Z"/></g></g><path fill="none" stroke="black" paint-order="fill stroke markers" d=" M 8.16760165 1040.6613515653332 L 1796.83239835 1040.6613515653332 M 8.16760165 1046.1064193319999 L 1796.83239835 1046.1064193319999 M 8.16760165 1051.5514870986665 L 1796.83239835 1051.5514870986665" stroke-miterlimit="10" stroke-width="1.3612669416666667" stroke-dasharray=""/><path fill="white" stroke="black" paint-order="fill stroke markers" d=" M 202.31590350846093 1089.3947080769997 L 393.08071031068755 1089.3947080769997 L 407.78239328068753 1104.0963910469998 L 407.78239328068753 1126.9656756669997 L 202.31590350846093 1126.9656756669997 L 202.31590350846093 1089.3947080769997 M 393.08071031068755 1089.3947080769997 L 393.08071031068755 1104.0963910469998 L 407.78239328068753 1104.0963910469998" stroke-miterlimit="10" stroke-width="1.3612669416666667" stroke-dasharray=""/><g><text fill="black" stroke="none" font-family="sans-serif" font-size="11pt" font-style="normal" font-weight="normal" text-decoration="normal" x="225.18518812846094" y="1112.2639926969998" text-anchor="start" dominant-baseline="alphabetic" xml:space="preserve">Module plug event occur</text></g><g><g><rect fill="white" stroke="none" x="324.3791389662409" y="1151.4684806169998" width="283.5476557165625" height="21.23576429"/></g><text fill="black" stroke="none" font-family="sans-serif" font-size="11pt" font-style="normal" font-weight="normal" text-decoration="normal" x="326.8294194612409" y="1166.170163587" text-anchor="start" dominant-baseline="alphabetic" xml:space="preserve">TRANSCIEVER_INFO update with module</text></g><g><path fill="none" stroke="black" paint-order="fill stroke markers" d=" M 305.0491483945742 1172.7042449069997 L 613.8074678708034 1172.7042449069997" stroke-miterlimit="10" stroke-width="1.3612669416666667" stroke-dasharray=""/><g transform="translate(627.2567852544701,1172.7042449069997) translate(-627.2567852544701,-1172.7042449069997)"><path fill="black" stroke="none" paint-order="stroke fill markers" d=" M 613.6441158378034 1165.8979101986665 L 627.2567852544701 1172.7042449069997 L 613.6441158378034 1179.510579615333 Z"/></g></g><g><g><rect fill="white" stroke="none" x="646.5867758261368" y="1197.207049857" width="255.85257209839844" height="21.23576429"/></g><text fill="black" stroke="none" font-family="sans-serif" font-size="11pt" font-style="normal" font-weight="normal" text-decoration="normal" x="649.0370563211368" y="1211.908732827" text-anchor="start" dominant-baseline="alphabetic" xml:space="preserve">change in TRANSCIEVER_INFO table</text></g><g><path fill="none" stroke="black" paint-order="fill stroke markers" d=" M 627.2567852544701 1218.4428141469998 L 908.3200211125352 1218.4428141469998" stroke-miterlimit="10" stroke-width="1.3612669416666667" stroke-dasharray=""/><g transform="translate(921.7693384962018,1218.4428141469998) translate(-921.7693384962018,-1218.4428141469998)"><path fill="black" stroke="none" paint-order="stroke fill markers" d=" M 908.1566690795352 1211.6364794386666 L 921.7693384962018 1218.4428141469998 L 908.1566690795352 1225.249148855333 Z"/></g></g><g><g><rect fill="white" stroke="none" x="975.2832890288059" y="1242.9456190969997" width="326.1746698767187" height="21.23576429"/></g><g><rect fill="white" stroke="none" x="975.2832890288059" y="1259.2808223969998" width="212.68855537476563" height="21.23576429"/></g><text fill="black" stroke="none" font-family="sans-serif" font-size="11pt" font-style="normal" font-weight="normal" text-decoration="normal" x="977.733569523806" y="1257.6473020669998" text-anchor="start" dominant-baseline="alphabetic" xml:space="preserve">SAI_PORT_ATTR_HOST_TX_SIGNAL_ENABLE</text><text fill="black" stroke="none" font-family="sans-serif" font-size="11pt" font-style="normal" font-weight="normal" text-decoration="normal" x="977.733569523806" y="1273.982505367" text-anchor="start" dominant-baseline="alphabetic" xml:space="preserve">enable/disable (for specific port)</text></g><g><path fill="none" stroke="black" paint-order="fill stroke markers" d=" M 921.7693384962018 1280.5165866869997 L 1341.5225920544622 1280.5165866869997" stroke-miterlimit="10" stroke-width="1.3612669416666667" stroke-dasharray=""/><g transform="translate(1354.971909438129,1280.5165866869997) translate(-1354.971909438129,-1280.5165866869997)"><path fill="black" stroke="none" paint-order="stroke fill markers" d=" M 1341.3592400214623 1273.7102519786665 L 1354.971909438129 1280.5165866869997 L 1341.3592400214623 1287.322921395333 Z"/></g></g><g><g><rect fill="white" stroke="none" x="1391.856014705123" y="1305.019391637" width="4.90056099" height="21.23576429"/></g><text fill="black" stroke="none" font-family="sans-serif" font-size="11pt" font-style="normal" font-weight="normal" text-decoration="normal" x="1394.306295200123" y="1319.721074607" text-anchor="start" dominant-baseline="alphabetic" xml:space="preserve"></text></g><g><path fill="none" stroke="black" paint-order="fill stroke markers" d=" M 1354.971909438129 1326.2551559269998 L 1420.1913635784504 1326.2551559269998" stroke-miterlimit="10" stroke-width="1.3612669416666667" stroke-dasharray=""/><g transform="translate(1433.6406809621171,1326.2551559269998) translate(-1433.6406809621171,-1326.2551559269998)"><path fill="black" stroke="none" paint-order="stroke fill markers" d=" M 1420.0280115454505 1319.4488212186666 L 1433.6406809621171 1326.2551559269998 L 1420.0280115454505 1333.061490635333 Z"/></g></g><g><g><rect fill="white" stroke="none" x="1508.4428905381521" y="1350.757960877" width="4.90056099" height="21.23576429"/></g><text fill="black" stroke="none" font-family="sans-serif" font-size="11pt" font-style="normal" font-weight="normal" text-decoration="normal" x="1510.8931710331522" y="1365.459643847" text-anchor="start" dominant-baseline="alphabetic" xml:space="preserve"></text></g><g><path fill="none" stroke="black" paint-order="fill stroke markers" d=" M 1433.6406809621171 1371.9937251669999 L 1574.6963437205206 1371.9937251669999" stroke-miterlimit="10" stroke-width="1.3612669416666667" stroke-dasharray=""/><g transform="translate(1588.1456611041874,1371.9937251669999) translate(-1588.1456611041874,-1371.9937251669999)"><path fill="black" stroke="none" paint-order="stroke fill markers" d=" M 1574.5329916875207 1365.1873904586666 L 1588.1456611041874 1371.9937251669999 L 1574.5329916875207 1378.800059875333 Z"/></g></g><path fill="white" stroke="black" paint-order="fill stroke markers" d=" M 1441.8082826121172 1411.1982130869999 L 1441.8082826121172 1411.1982130869999 A 14.70168297 14.70168297 0 0 1 1456.5099655821173 1396.4965301169998 L 1719.7813566262578 1396.4965301169998 L 1719.7813566262578 1396.4965301169998 A 14.70168297 14.70168297 0 0 1 1734.4830395962579 1411.1982130869999 L 1734.4830395962579 1419.3658147369997 L 1734.4830395962579 1419.3658147369997 A 14.70168297 14.70168297 0 0 1 1719.7813566262578 1434.0674977069998 L 1456.5099655821173 1434.0674977069998 L 1456.5099655821173 1434.0674977069998 A 14.70168297 14.70168297 0 0 1 1441.8082826121172 1419.3658147369997 L 1441.8082826121172 1411.1982130869999" stroke-miterlimit="10" stroke-width="1.3612669416666667" stroke-dasharray=""/><g><text fill="black" stroke="none" font-family="sans-serif" font-size="11pt" font-style="normal" font-weight="normal" text-decoration="normal" x="1464.677567232117" y="1419.365814737" text-anchor="start" dominant-baseline="alphabetic" xml:space="preserve">admin up &amp; high-speed signal allowed</text></g><g><g><rect fill="white" stroke="none" x="1625.8648552383281" y="1458.570302657" width="79.06659187378906" height="21.23576429"/></g><text fill="black" stroke="none" font-family="sans-serif" font-size="11pt" font-style="normal" font-weight="normal" text-decoration="normal" x="1628.3151357333281" y="1473.271985627" text-anchor="start" dominant-baseline="alphabetic" xml:space="preserve">send signal</text></g><g><path fill="none" stroke="black" paint-order="fill stroke markers" d=" M 1588.1456611041874 1479.8060669469999 L 1729.201323862591 1479.8060669469999" stroke-miterlimit="10" stroke-width="1.3612669416666667" stroke-dasharray=""/><g transform="translate(1742.6506412462577,1479.8060669469999) translate(-1742.6506412462577,-1479.8060669469999)"><path fill="black" stroke="none" paint-order="stroke fill markers" d=" M 1729.037971829591 1472.9997322386666 L 1742.6506412462577 1479.8060669469999 L 1729.037971829591 1486.612401655333 Z"/></g></g><path fill="white" stroke="black" paint-order="fill stroke markers" d=" M 1688.0025556619023 1519.0105548669999 L 1688.0025556619023 1519.0105548669999 A 14.70168297 14.70168297 0 0 1 1702.7042386319024 1504.3088718969998 L 1782.5970438606132 1504.3088718969998 L 1782.5970438606132 1504.3088718969998 A 14.70168297 14.70168297 0 0 1 1797.2987268306133 1519.0105548669999 L 1797.2987268306133 1527.1781565169997 L 1797.2987268306133 1527.1781565169997 A 14.70168297 14.70168297 0 0 1 1782.5970438606132 1541.8798394869998 L 1702.7042386319024 1541.8798394869998 L 1702.7042386319024 1541.8798394869998 A 14.70168297 14.70168297 0 0 1 1688.0025556619023 1527.1781565169997 L 1688.0025556619023 1519.0105548669999" stroke-miterlimit="10" stroke-width="1.3612669416666667" stroke-dasharray=""/><g><text fill="black" stroke="none" font-family="sans-serif" font-size="11pt" font-style="normal" font-weight="normal" text-decoration="normal" x="1710.8718402819022" y="1527.178156517" text-anchor="start" dominant-baseline="alphabetic" xml:space="preserve">signal OK</text></g><g><g><rect fill="white" stroke="none" x="1662.9478706802226" y="1566.382644437" width="4.90056099" height="21.23576429"/></g><text fill="black" stroke="none" font-family="sans-serif" font-size="11pt" font-style="normal" font-weight="normal" text-decoration="normal" x="1665.3981511752227" y="1581.084327407" text-anchor="start" dominant-baseline="alphabetic" xml:space="preserve"></text></g><g><path fill="none" stroke="black" paint-order="fill stroke markers" d=" M 1742.6506412462577 1587.6184087269999 L 1601.5949784878542 1587.6184087269999" stroke-miterlimit="10" stroke-width="1.3612669416666667" stroke-dasharray="6.53408132"/><g transform="translate(1588.1456611041874,1587.6184087269999) translate(-1588.1456611041874,-1587.6184087269999)"><path fill="black" stroke="none" paint-order="stroke fill markers" d=" M 1601.758330520854 1580.8120740186666 L 1588.1456611041874 1587.6184087269999 L 1601.758330520854 1594.424743435333 Z"/></g></g><g><g><rect fill="white" stroke="none" x="1508.4428905381521" y="1612.121213677" width="4.90056099" height="21.23576429"/></g><text fill="black" stroke="none" font-family="sans-serif" font-size="11pt" font-style="normal" font-weight="normal" text-decoration="normal" x="1510.8931710331522" y="1626.822896647" text-anchor="start" dominant-baseline="alphabetic" xml:space="preserve"></text></g><g><path fill="none" stroke="black" paint-order="fill stroke markers" d=" M 1588.1456611041874 1633.356977967 L 1447.089998345784 1633.356977967" stroke-miterlimit="10" stroke-width="1.3612669416666667" stroke-dasharray="6.53408132"/><g transform="translate(1433.6406809621171,1633.356977967) translate(-1433.6406809621171,-1633.356977967)"><path fill="black" stroke="none" paint-order="stroke fill markers" d=" M 1447.2533503787838 1626.5506432586667 L 1433.6406809621171 1633.356977967 L 1447.2533503787838 1640.1633126753331 Z"/></g></g><g><g><rect fill="white" stroke="none" x="1391.856014705123" y="1657.859782917" width="4.90056099" height="21.23576429"/></g><text fill="black" stroke="none" font-family="sans-serif" font-size="11pt" font-style="normal" font-weight="normal" text-decoration="normal" x="1394.306295200123" y="1672.5614658870002" text-anchor="start" dominant-baseline="alphabetic" xml:space="preserve"></text></g><g><path fill="none" stroke="black" paint-order="fill stroke markers" d=" M 1433.6406809621171 1679.095547207 L 1368.4212268217957 1679.095547207" stroke-miterlimit="10" stroke-width="1.3612669416666667" stroke-dasharray="6.53408132"/><g transform="translate(1354.971909438129,1679.095547207) translate(-1354.971909438129,-1679.095547207)"><path fill="black" stroke="none" paint-order="stroke fill markers" d=" M 1368.5845788547956 1672.2892124986668 L 1354.971909438129 1679.095547207 L 1368.5845788547956 1685.9018819153332 Z"/></g></g><g><g><rect fill="white" stroke="none" x="943.9446964995091" y="1703.5983521570001" width="388.8518549353125" height="21.23576429"/></g><text fill="black" stroke="none" font-family="sans-serif" font-size="11pt" font-style="normal" font-weight="normal" text-decoration="normal" x="946.3949769945091" y="1718.3000351270002" text-anchor="start" dominant-baseline="alphabetic" xml:space="preserve"> SAI_SWITCH_ATTR_PORT_HOST_TX_READY_NOTIFY</text></g><g><path fill="none" stroke="black" paint-order="fill stroke markers" d=" M 1354.971909438129 1724.834116447 L 935.2186558798685 1724.834116447" stroke-miterlimit="10" stroke-width="1.3612669416666667" stroke-dasharray="6.53408132"/><g transform="translate(921.7693384962018,1724.834116447) translate(-921.7693384962018,-1724.834116447)"><path fill="black" stroke="none" paint-order="stroke fill markers" d=" M 935.3820079128685 1718.0277817386668 L 921.7693384962018 1724.834116447 L 935.3820079128685 1731.6404511553333 Z"/></g></g><g><g><rect fill="white" stroke="none" x="675.6991873251602" y="1749.3369213970002" width="197.62774910035156" height="21.23576429"/></g><text fill="black" stroke="none" font-family="sans-serif" font-size="11pt" font-style="normal" font-weight="normal" text-decoration="normal" x="678.1494678201602" y="1764.0386043670003" text-anchor="start" dominant-baseline="alphabetic" xml:space="preserve">set host_tx_ready = true/false</text></g><g><path fill="none" stroke="black" paint-order="fill stroke markers" d=" M 921.7693384962018 1770.572685687 L 640.7061026381367 1770.572685687" stroke-miterlimit="10" stroke-width="1.3612669416666667" stroke-dasharray=""/><g transform="translate(627.2567852544701,1770.572685687) translate(-627.2567852544701,-1770.572685687)"><path fill="black" stroke="none" paint-order="stroke fill markers" d=" M 640.8694546711367 1763.7663509786669 L 627.2567852544701 1770.572685687 L 640.8694546711367 1777.3790203953333 Z"/></g></g><g><g><rect fill="white" stroke="none" x="299.28246606435414" y="1795.0754906370003" width="157.31280769410156" height="21.23576429"/></g><text fill="black" stroke="none" font-family="sans-serif" font-size="11pt" font-style="normal" font-weight="normal" text-decoration="normal" x="301.73274655935415" y="1809.7771736070003" text-anchor="start" dominant-baseline="alphabetic" xml:space="preserve">host_tx_ready changed</text></g><g><path fill="none" stroke="black" paint-order="fill stroke markers" d=" M 627.2567852544701 1816.3112549270002 L 142.07027195200652 1816.3112549270002" stroke-miterlimit="10" stroke-width="1.3612669416666667" stroke-dasharray=""/><g transform="translate(128.62095456833984,1816.3112549270002) translate(-128.62095456833984,-1816.3112549270002)"><path fill="black" stroke="none" paint-order="stroke fill markers" d=" M 142.23362398500652 1809.504920218667 L 128.62095456833984 1816.3112549270002 L 142.23362398500652 1823.1175896353334 Z"/></g></g><path fill="white" stroke="black" paint-order="fill stroke markers" d=" M 8.16760165 1855.5157428470002 L 8.167601650000002 1855.5157428470002 A 14.70168297 14.70168297 0 0 1 22.869284620000002 1840.814059877 L 234.37262451667968 1840.814059877 L 234.37262451667968 1840.814059877 A 14.70168297 14.70168297 0 0 1 249.0743074866797 1855.5157428470002 L 249.0743074866797 1863.683344497 L 249.0743074866797 1863.683344497 A 14.70168297 14.70168297 0 0 1 234.37262451667968 1878.385027467 L 22.869284620000002 1878.385027467 L 22.869284620000002 1878.385027467 A 14.70168297 14.70168297 0 0 1 8.167601650000002 1863.683344497 L 8.16760165 1855.5157428470002" stroke-miterlimit="10" stroke-width="1.3612669416666667" stroke-dasharray=""/><g><text fill="black" stroke="none" font-family="sans-serif" font-size="11pt" font-style="normal" font-weight="normal" text-decoration="normal" x="31.036886269999997" y="1863.6833444970002" text-anchor="start" dominant-baseline="alphabetic" xml:space="preserve">if true -&gt; configure the module</text></g></g></g></svg>