<?xml version="1.0" encoding="UTF-8" standalone="no"?>
<!DOCTYPE svg PUBLIC "-//W3C//DTD SVG 1.1//EN" "http://www.w3.org/Graphics/SVG/1.1/DTD/svg11.dtd">
<!-- Generated by Microsoft Visio, SVG Export pt_swss_design.svg Page-16 -->
<svg xmlns="http://www.w3.org/2000/svg" xmlns:xlink="http://www.w3.org/1999/xlink" xmlns:ev="http://www.w3.org/2001/xml-events"
		width="15.4745in" height="7.00995in" viewBox="0 0 1114.17 504.717" xml:space="preserve" color-interpolation-filters="sRGB"
		class="st12">
	<title>pt swss design</title>

	<style type="text/css">
	<![CDATA[
		.st1 {fill:#5b9bd5;stroke:#000000;stroke-linecap:round;stroke-linejoin:round;stroke-width:1}
		.st2 {fill:#ffffff;font-family:Segoe UI;font-size:0.833336em;font-weight:bold}
		.st3 {fill:#70ad47;stroke:#000000;stroke-linecap:round;stroke-linejoin:round;stroke-width:1}
		.st4 {marker-end:url(#mrkr4-24);marker-start:url(#mrkr4-22);stroke:#000000;stroke-linecap:round;stroke-linejoin:round;stroke-width:2}
		.st5 {fill:#000000;fill-opacity:1;stroke:#000000;stroke-opacity:1;stroke-width:0.44247787610619}
		.st6 {fill:#7f7f7f;stroke:#000000;stroke-linecap:round;stroke-linejoin:round;stroke-width:1}
		.st7 {fill:#ed7d31;stroke:#000000;stroke-linecap:round;stroke-linejoin:round;stroke-width:1}
		.st8 {fill:#ffffff;font-family:Segoe UI;font-size:1.00001em}
		.st9 {fill:#ffffff;font-family:Segoe UI;font-size:0.833336em}
		.st10 {marker-end:url(#mrkr4-56);stroke:#000000;stroke-linecap:round;stroke-linejoin:round;stroke-width:2}
		.st11 {fill:#000000;fill-opacity:1;stroke:#000000;stroke-opacity:1;stroke-width:0.38167938931298}
		.st12 {fill:none;fill-rule:evenodd;font-size:12px;overflow:visible;stroke-linecap:square;stroke-miterlimit:3}
	]]>
	</style>

	<defs id="Markers">
		<g id="lend4">
			<path d="M 2 1 L 0 0 L 2 -1 L 2 1 " style="stroke:none"/>
		</g>
		<marker id="mrkr4-22" class="st5" refX="4.34" orient="auto" markerUnits="strokeWidth" overflow="visible">
			<use xlink:href="#lend4" transform="scale(2.26) "/>
		</marker>
		<marker id="mrkr4-24" class="st5" refX="-4.52" orient="auto" markerUnits="strokeWidth" overflow="visible">
			<use xlink:href="#lend4" transform="scale(-2.26,-2.26) "/>
		</marker>
		<marker id="mrkr4-56" class="st11" refX="-5.24" orient="auto" markerUnits="strokeWidth" overflow="visible">
			<use xlink:href="#lend4" transform="scale(-2.62,-2.62) "/>
		</marker>
	</defs>
	<g>
		<title>Page-16</title>
		<g id="group1000-1" transform="translate(18.5,-18.5002)">
			<title>Can.1206</title>
			<desc>CONFIG_DB</desc>
			<g id="shape1001-2">
				<title>Sheet.1001</title>
				<path d="M0 486.73 A70.8661 17.9891 -180 1 0 141.73 486.73 L141.73 54.99 L0 54.99 L0 486.73 Z" class="st1"/>
			</g>
			<g id="shape1000-4">
				<ellipse cx="70.8661" cy="54.9893" rx="70.8661" ry="17.9891" class="st1"/>
				<text x="43.3" y="93.86" class="st2">CONFIG_DB</text>			</g>
		</g>
		<g id="shape1002-7" transform="translate(500.39,-18.5)">
			<title>Rounded Rectangle.1208</title>
			<desc>Orchagent</desc>
			<path d="M12.76 504.72 L114.8 504.72 A12.7557 12.7557 -180 0 0 127.56 491.96 L127.56 49.76 A12.7557 12.7557 -180 0 0
						 114.8 37 L12.76 37 A12.7557 12.7557 -180 0 0 0 49.76 L0 491.96 A12.7557 12.7557 -180 0 0 12.76 504.72 Z"
					class="st3"/>
			<text x="33.16" y="63.86" class="st2">ORCHAGENT</text>		</g>
		<g id="group1003-10" transform="translate(656.295,-18.5002)">
			<title>Can.1209</title>
			<desc>ASIC_DB</desc>
			<g id="shape1004-11">
				<title>Sheet.1004</title>
				<path d="M0 483.46 A63.7795 21.2599 -180 1 0 127.56 483.46 L127.56 58.26 L0 58.26 L0 483.46 Z" class="st1"/>
			</g>
			<g id="shape1003-13">
				<ellipse cx="63.7795" cy="58.26" rx="63.7795" ry="21.2599" class="st1"/>
				<text x="43.79" y="273.86" class="st2">ASIC_DB</text>			</g>
		</g>
		<g id="shape1005-16" transform="translate(627.949,-245.272)">
			<title>Dynamic connector.1211</title>
			<path d="M8.68 497.63 L9.04 497.63 L19.31 497.63" class="st4"/>
		</g>
		<g id="shape1006-25" transform="translate(812.201,-18.5002)">
			<title>Rounded Rectangle.1212</title>
			<desc>SYNCD</desc>
			<path d="M12.76 504.72 L114.8 504.72 A12.7557 12.7557 -180 0 0 127.56 491.96 L127.56 49.76 A12.7557 12.7557 -180 0 0
						 114.8 37 L12.76 37 A12.7557 12.7557 -180 0 0 0 49.76 L0 491.96 A12.7557 12.7557 -180 0 0 12.76 504.72 Z"
					class="st3"/>
			<text x="47.19" y="273.86" class="st2">SYNCD</text>		</g>
		<g id="shape1007-28" transform="translate(783.854,-259.445)">
			<title>Dynamic connector.1213</title>
			<path d="M8.68 511.8 L9.04 511.8 L19.31 511.8" class="st4"/>
		</g>
		<g id="shape1008-35" transform="translate(968.106,-18.5002)">
			<title>Rounded Rectangle.1214</title>
			<desc>ASIC</desc>
			<path d="M12.76 504.72 L114.8 504.72 A12.7557 12.7557 -180 0 0 127.56 491.96 L127.56 49.76 A12.7557 12.7557 -180 0 0
						 114.8 37 L12.76 37 A12.7557 12.7557 -180 0 0 0 49.76 L0 491.96 A12.7557 12.7557 -180 0 0 12.76 504.72 Z"
					class="st6"/>
			<text x="52.76" y="273.86" class="st2">ASIC</text>		</g>
		<g id="shape1009-38" transform="translate(939.76,-259.445)">
			<title>Dynamic connector.1215</title>
			<path d="M8.68 511.8 L9.04 511.8 L19.31 511.8" class="st4"/>
		</g>
		<g id="shape1010-45" transform="translate(514.563,-401.177)">
			<title>Rounded Rectangle.1216</title>
			<desc>switchorch</desc>
			<path d="M9.92 504.72 L89.29 504.72 A9.9211 9.9211 -180 0 0 99.21 494.8 L99.21 472.12 A9.9211 9.9211 -180 0 0 89.29 462.2
						 L9.92 462.2 A9.9211 9.9211 -180 0 0 -0 472.12 L0 494.8 A9.9211 9.9211 -180 0 0 9.92 504.72 Z" class="st7"/>
			<text x="21.3" y="487.06" class="st8">switchorch</text>		</g>
		<g id="shape1011-48" transform="translate(32.6732,-387.004)">
			<title>Rounded Rectangle.1229</title>
			<desc>SWITCH_TRIMMING</desc>
			<path d="M11.34 504.72 L102.05 504.72 A11.3384 11.3384 -180 0 0 113.39 493.38 L113.39 487.71 A11.3384 11.3384 -180 0
						 0 102.05 476.37 L11.34 476.37 A11.3384 11.3384 -180 0 0 0 487.71 L0 493.38 A11.3384 11.3384 -180 0 0 11.34
						 504.72 Z" class="st7"/>
			<text x="12.27" y="493.54" class="st9">SWITCH_TRIMMING</text>		</g>
		<g id="shape1012-51" transform="translate(146.059,-401.177)">
			<title>Dynamic connector.1230</title>
			<path d="M0 504.72 L358.04 484.06" class="st10"/>
		</g>
		<g id="shape1013-57" transform="translate(32.6732,-344.484)">
			<title>Rounded Rectangle.1231</title>
			<desc>ACL_TABLE_TYPE</desc>
			<path d="M11.34 504.72 L102.05 504.72 A11.3384 11.3384 -180 0 0 113.39 493.38 L113.39 487.71 A11.3384 11.3384 -180 0
						 0 102.05 476.37 L11.34 476.37 A11.3384 11.3384 -180 0 0 0 487.71 L0 493.38 A11.3384 11.3384 -180 0 0 11.34
						 504.72 Z" class="st7"/>
			<text x="19.56" y="493.54" class="st9">ACL_TABLE_TYPE</text>		</g>
		<g id="shape1014-60" transform="translate(514.563,-344.484)">
			<title>Rounded Rectangle.1232</title>
			<desc>aclorch</desc>
			<path d="M9.92 504.72 L89.29 504.72 A9.9211 9.9211 -180 0 0 99.21 494.8 L99.21 472.12 A9.9211 9.9211 -180 0 0 89.29 462.2
						 L9.92 462.2 A9.9211 9.9211 -180 0 0 -0 472.12 L0 494.8 A9.9211 9.9211 -180 0 0 9.92 504.72 Z" class="st7"/>
			<text x="30.56" y="487.06" class="st8">aclorch</text>		</g>
		<g id="shape1015-63" transform="translate(514.563,-287.791)">
			<title>Rounded Rectangle.1233</title>
			<desc>flexcounterorch</desc>
			<path d="M9.92 504.72 L89.29 504.72 A9.9211 9.9211 -180 0 0 99.21 494.8 L99.21 472.12 A9.9211 9.9211 -180 0 0 89.29 462.2
						 L9.92 462.2 A9.9211 9.9211 -180 0 0 -0 472.12 L0 494.8 A9.9211 9.9211 -180 0 0 9.92 504.72 Z" class="st7"/>
			<text x="8.28" y="487.06" class="st8">flexcounterorch</text>		</g>
		<g id="shape1016-66" transform="translate(32.6732,-259.445)">
			<title>Rounded Rectangle.1234</title>
			<desc>ACL_RULE</desc>
			<path d="M11.34 504.72 L102.05 504.72 A11.3384 11.3384 -180 0 0 113.39 493.38 L113.39 487.71 A11.3384 11.3384 -180 0
						 0 102.05 476.37 L11.34 476.37 A11.3384 11.3384 -180 0 0 0 487.71 L0 493.38 A11.3384 11.3384 -180 0 0 11.34
						 504.72 Z" class="st7"/>
			<text x="34.63" y="493.54" class="st9">ACL_RULE</text>		</g>
		<g id="shape1017-69" transform="translate(32.6732,-301.965)">
			<title>Rounded Rectangle.1235</title>
			<desc>ACL_TABLE</desc>
			<path d="M11.34 504.72 L102.05 504.72 A11.3384 11.3384 -180 0 0 113.39 493.38 L113.39 487.71 A11.3384 11.3384 -180 0
						 0 102.05 476.37 L11.34 476.37 A11.3384 11.3384 -180 0 0 0 487.71 L0 493.38 A11.3384 11.3384 -180 0 0 11.34
						 504.72 Z" class="st7"/>
			<text x="32.35" y="493.54" class="st9">ACL_TABLE</text>		</g>
		<g id="shape1018-72" transform="translate(146.059,-358.658)">
			<title>Dynamic connector.1236</title>
			<path d="M0 504.72 L360.95 479.99" class="st10"/>
		</g>
		<g id="shape1019-77" transform="translate(146.059,-316.138)">
			<title>Dynamic connector.1237</title>
			<path d="M0 504.72 L358.12 456.51" class="st10"/>
		</g>
		<g id="shape1020-82" transform="translate(146.059,-273.618)">
			<title>Dynamic connector.1238</title>
			<path d="M0 504.72 L361.13 432.99" class="st10"/>
		</g>
		<g id="shape1021-87" transform="translate(32.6732,-216.925)">
			<title>Rounded Rectangle.1239</title>
			<desc>FLEX_COUNTER_TABLE</desc>
			<path d="M11.34 504.72 L102.05 504.72 A11.3384 11.3384 -180 0 0 113.39 493.38 L113.39 487.71 A11.3384 11.3384 -180 0
						 0 102.05 476.37 L11.34 476.37 A11.3384 11.3384 -180 0 0 0 487.71 L0 493.38 A11.3384 11.3384 -180 0 0 11.34
						 504.72 Z" class="st7"/>
			<text x="6.49" y="493.54" class="st9">FLEX_COUNTER_TABLE</text>		</g>
		<g id="shape1022-90" transform="translate(146.059,-231.099)">
			<title>Dynamic connector.1240</title>
			<path d="M0 504.72 L358.25 428.93" class="st10"/>
		</g>
		<g id="shape1023-95" transform="translate(32.6732,-89.3663)">
			<title>Rounded Rectangle.1241</title>
			<desc>BUFFER_PROFILE</desc>
			<path d="M11.34 504.72 L102.05 504.72 A11.3384 11.3384 -180 0 0 113.39 493.38 L113.39 487.71 A11.3384 11.3384 -180 0
						 0 102.05 476.37 L11.34 476.37 A11.3384 11.3384 -180 0 0 0 487.71 L0 493.38 A11.3384 11.3384 -180 0 0 11.34
						 504.72 Z" class="st7"/>
			<text x="19.7" y="493.54" class="st9">BUFFER_PROFILE</text>		</g>
		<g id="shape1024-98" transform="translate(188.579,-18.5002)">
			<title>Rounded Rectangle.1242</title>
			<desc>BUFFERMGRD</desc>
			<path d="M12.76 504.72 L114.8 504.72 A12.7557 12.7557 -180 0 0 127.56 491.96 L127.56 404.09 A12.7557 12.7557 -180 0 0
						 114.8 391.33 L12.76 391.33 A12.7557 12.7557 -180 0 0 -0 404.09 L0 491.96 A12.7557 12.7557 -180 0 0 12.76
						 504.72 Z" class="st3"/>
			<text x="30.54" y="409.02" class="st2">BUFFERMGRD</text>		</g>
		<g id="shape1025-101" transform="translate(202.752,-75.1929)">
			<title>Rounded Rectangle.1243</title>
			<desc>buffermgr</desc>
			<path d="M9.92 504.72 L89.29 504.72 A9.9211 9.9211 -180 0 0 99.21 494.8 L99.21 486.29 A9.9211 9.9211 -180 0 0 89.29 476.37
						 L9.92 476.37 A9.9211 9.9211 -180 0 0 -0 486.29 L0 494.8 A9.9211 9.9211 -180 0 0 9.92 504.72 Z" class="st7"/>
			<text x="22.92" y="494.14" class="st8">buffermgr</text>		</g>
		<g id="shape1026-104" transform="translate(202.752,-32.6732)">
			<title>Rounded Rectangle.1244</title>
			<desc>buffermgrdyn</desc>
			<path d="M9.92 504.72 L89.29 504.72 A9.9211 9.9211 -180 0 0 99.21 494.8 L99.21 486.29 A9.9211 9.9211 -180 0 0 89.29 476.37
						 L9.92 476.37 A9.9211 9.9211 -180 0 0 -0 486.29 L0 494.8 A9.9211 9.9211 -180 0 0 9.92 504.72 Z" class="st7"/>
			<text x="13.08" y="494.14" class="st8">buffermgrdyn</text>		</g>
		<g id="group1027-107" transform="translate(344.484,-18.5002)">
			<title>Can.1245</title>
			<desc>APP_DB</desc>
			<g id="shape1028-108">
				<title>Sheet.1028</title>
				<path d="M0 493.38 A63.7795 11.3386 -180 1 0 127.56 493.38 L127.56 402.67 L0 402.67 L0 493.38 Z" class="st1"/>
			</g>
			<g id="shape1027-110">
				<ellipse cx="63.7795" cy="402.669" rx="63.7795" ry="11.3386" class="st1"/>
				<text x="45.15" y="433.02" class="st2">APP_DB</text>			</g>
		</g>
		<g id="shape1029-113" transform="translate(301.965,-89.3661)">
			<title>Dynamic connector.1247</title>
			<path d="M0 504.72 L49.58 519.92" class="st10"/>
		</g>
		<g id="shape1030-118" transform="translate(358.657,-45.6475)">
			<title>Rounded Rectangle.1248</title>
			<desc>BUFFER_PROFILE</desc>
			<path d="M9.92 504.72 L89.29 504.72 A9.9211 9.9211 -180 0 0 99.21 494.8 L99.21 486.29 A9.9211 9.9211 -180 0 0 89.29 476.37
						 L9.92 476.37 A9.9211 9.9211 -180 0 0 0 486.29 L0 494.8 A9.9211 9.9211 -180 0 0 9.92 504.72 Z" class="st7"/>
			<text x="12.61" y="493.54" class="st9">BUFFER_PROFILE</text>		</g>
		<g id="shape1031-121" transform="translate(457.87,-59.8207)">
			<title>Dynamic connector.1249</title>
			<path d="M0 504.72 L52.66 378.54" class="st10"/>
		</g>
		<g id="shape1032-126" transform="translate(514.563,-174.406)">
			<title>Rounded Rectangle.1250</title>
			<desc>bufferorch</desc>
			<path d="M9.92 504.72 L89.29 504.72 A9.9211 9.9211 -180 0 0 99.21 494.8 L99.21 472.12 A9.9211 9.9211 -180 0 0 89.29 462.2
						 L9.92 462.2 A9.9211 9.9211 -180 0 0 -0 472.12 L0 494.8 A9.9211 9.9211 -180 0 0 9.92 504.72 Z" class="st7"/>
			<text x="21.94" y="487.06" class="st8">bufferorch</text>		</g>
		<g id="shape1033-129" transform="translate(142.738,-114.392)">
			<title>Dynamic connector.1255</title>
			<path d="M0 504.72 L50.34 525.71" class="st10"/>
		</g>
		<g id="shape1034-134" transform="translate(142.738,-92.6874)">
			<title>Dynamic connector.1256</title>
			<path d="M0 504.72 L51.69 544.2" class="st10"/>
		</g>
		<g id="shape1035-139" transform="translate(301.965,-40.6133)">
			<title>Dynamic connector.1257</title>
			<path d="M0 498.48 L49.12 497.08" class="st10"/>
		</g>
		<g id="shape1036-144" transform="translate(514.563,-231.098)">
			<title>Rounded Rectangle.1261</title>
			<desc>qosorch</desc>
			<path d="M9.92 504.72 L89.29 504.72 A9.9211 9.9211 -180 0 0 99.21 494.8 L99.21 472.12 A9.9211 9.9211 -180 0 0 89.29 462.2
						 L9.92 462.2 A9.9211 9.9211 -180 0 0 -0 472.12 L0 494.8 A9.9211 9.9211 -180 0 0 9.92 504.72 Z" class="st7"/>
			<text x="28.24" y="487.06" class="st8">qosorch</text>		</g>
		<g id="shape1037-147" transform="translate(32.6732,-131.886)">
			<title>Rounded Rectangle.1262</title>
			<desc>PORT_QOS_MAP</desc>
			<path d="M11.34 504.72 L102.05 504.72 A11.3384 11.3384 -180 0 0 113.39 493.38 L113.39 487.71 A11.3384 11.3384 -180 0
						 0 102.05 476.37 L11.34 476.37 A11.3384 11.3384 -180 0 0 0 487.71 L0 493.38 A11.3384 11.3384 -180 0 0 11.34
						 504.72 Z" class="st7"/>
			<text x="19.65" y="493.54" class="st9">PORT_QOS_MAP</text>		</g>
		<g id="shape1038-150" transform="translate(32.6732,-174.406)">
			<title>Rounded Rectangle.1263</title>
			<desc>TC_TO_DSCP_MAP</desc>
			<path d="M11.34 504.72 L102.05 504.72 A11.3384 11.3384 -180 0 0 113.39 493.38 L113.39 487.71 A11.3384 11.3384 -180 0
						 0 102.05 476.37 L11.34 476.37 A11.3384 11.3384 -180 0 0 0 487.71 L0 493.38 A11.3384 11.3384 -180 0 0 11.34
						 504.72 Z" class="st7"/>
			<text x="15.79" y="493.54" class="st9">TC_TO_DSCP_MAP</text>		</g>
		<g id="shape1039-153" transform="translate(146.059,-188.579)">
			<title>Dynamic connector.1264</title>
			<path d="M0 504.72 L361.18 424.85" class="st10"/>
		</g>
		<g id="shape1040-158" transform="translate(146.059,-146.059)">
			<title>Dynamic connector.1265</title>
			<path d="M0 504.72 L361.21 419.19" class="st10"/>
		</g>
	</g>
</svg>
