<svg id="mermaid-svg" width="100%" xmlns="http://www.w3.org/2000/svg" style="max-width: 1679px;" viewBox="-50 -10 1679 2401" role="graphics-document document" aria-roledescription="sequence" xmlns:xlink="http://www.w3.org/1999/xlink"><style xmlns="http://www.w3.org/1999/xhtml">@import url("https://cdnjs.cloudflare.com/ajax/libs/font-awesome/6.7.2/css/all.min.css");</style><g><rect x="1429" y="2315" fill="#eaeaea" stroke="#666" width="150" height="65" name="SAI" rx="3" ry="3" class="actor actor-bottom"/><text x="1504" y="2347.5" dominant-baseline="central" alignment-baseline="central" class="actor actor-box" style="text-anchor: middle; font-size: 16px; font-weight: 400;"><tspan x="1504" dy="0">SAI</tspan></text></g><g><rect x="856" y="2315" fill="#eaeaea" stroke="#666" width="150" height="65" name="SwitchOrch" rx="3" ry="3" class="actor actor-bottom"/><text x="931" y="2347.5" dominant-baseline="central" alignment-baseline="central" class="actor actor-box" style="text-anchor: middle; font-size: 16px; font-weight: 400;"><tspan x="931" dy="0">SwitchOrch</tspan></text></g><g><rect x="534" y="2315" fill="#eaeaea" stroke="#666" width="150" height="65" name="StateDB" rx="3" ry="3" class="actor actor-bottom"/><text x="609" y="2347.5" dominant-baseline="central" alignment-baseline="central" class="actor actor-box" style="text-anchor: middle; font-size: 16px; font-weight: 400;"><tspan x="609" dy="0">StateDB</tspan></text></g><g><rect x="334" y="2315" fill="#eaeaea" stroke="#666" width="150" height="65" name="ConfigDB" rx="3" ry="3" class="actor actor-bottom"/><text x="409" y="2347.5" dominant-baseline="central" alignment-baseline="central" class="actor actor-box" style="text-anchor: middle; font-size: 16px; font-weight: 400;"><tspan x="409" dy="0">ConfigDB</tspan></text></g><g/><g><line id="actor4" x1="1504" y1="65" x2="1504" y2="2315" class="actor-line 200" stroke-width="0.5px" stroke="#999" name="SAI"/><g id="root-4"><rect x="1429" y="0" fill="#eaeaea" stroke="#666" width="150" height="65" name="SAI" rx="3" ry="3" class="actor actor-top"/><text x="1504" y="32.5" dominant-baseline="central" alignment-baseline="central" class="actor actor-box" style="text-anchor: middle; font-size: 16px; font-weight: 400;"><tspan x="1504" dy="0">SAI</tspan></text></g></g><g><line id="actor3" x1="931" y1="65" x2="931" y2="2315" class="actor-line 200" stroke-width="0.5px" stroke="#999" name="SwitchOrch"/><g id="root-3"><rect x="856" y="0" fill="#eaeaea" stroke="#666" width="150" height="65" name="SwitchOrch" rx="3" ry="3" class="actor actor-top"/><text x="931" y="32.5" dominant-baseline="central" alignment-baseline="central" class="actor actor-box" style="text-anchor: middle; font-size: 16px; font-weight: 400;"><tspan x="931" dy="0">SwitchOrch</tspan></text></g></g><g><line id="actor2" x1="609" y1="65" x2="609" y2="2315" class="actor-line 200" stroke-width="0.5px" stroke="#999" name="StateDB"/><g id="root-2"><rect x="534" y="0" fill="#eaeaea" stroke="#666" width="150" height="65" name="StateDB" rx="3" ry="3" class="actor actor-top"/><text x="609" y="32.5" dominant-baseline="central" alignment-baseline="central" class="actor actor-box" style="text-anchor: middle; font-size: 16px; font-weight: 400;"><tspan x="609" dy="0">StateDB</tspan></text></g></g><g><line id="actor1" x1="409" y1="65" x2="409" y2="2315" class="actor-line 200" stroke-width="0.5px" stroke="#999" name="ConfigDB"/><g id="root-1"><rect x="334" y="0" fill="#eaeaea" stroke="#666" width="150" height="65" name="ConfigDB" rx="3" ry="3" class="actor actor-top"/><text x="409" y="32.5" dominant-baseline="central" alignment-baseline="central" class="actor actor-box" style="text-anchor: middle; font-size: 16px; font-weight: 400;"><tspan x="409" dy="0">ConfigDB</tspan></text></g></g><g><line id="actor0" x1="75" y1="80" x2="75" y2="2315" class="actor-line 200" stroke-width="0.5px" stroke="#999" name="CLI"/></g><style>#mermaid-svg{font-family:"trebuchet ms",verdana,arial,sans-serif;font-size:16px;fill:#000000;}#mermaid-svg .error-icon{fill:#552222;}#mermaid-svg .error-text{fill:#552222;stroke:#552222;}#mermaid-svg .edge-thickness-normal{stroke-width:1px;}#mermaid-svg .edge-thickness-thick{stroke-width:3.5px;}#mermaid-svg .edge-pattern-solid{stroke-dasharray:0;}#mermaid-svg .edge-thickness-invisible{stroke-width:0;fill:none;}#mermaid-svg .edge-pattern-dashed{stroke-dasharray:3;}#mermaid-svg .edge-pattern-dotted{stroke-dasharray:2;}#mermaid-svg .marker{fill:#000000;stroke:#000000;}#mermaid-svg .marker.cross{stroke:#000000;}#mermaid-svg svg{font-family:"trebuchet ms",verdana,arial,sans-serif;font-size:16px;}#mermaid-svg p{margin:0;}#mermaid-svg .actor{stroke:hsl(78.1578947368, 58.4615384615%, 54.5098039216%);fill:#cde498;}#mermaid-svg text.actor&gt;tspan{fill:black;stroke:none;}#mermaid-svg .actor-line{stroke:hsl(78.1578947368, 58.4615384615%, 54.5098039216%);}#mermaid-svg .messageLine0{stroke-width:1.5;stroke-dasharray:none;stroke:#333;}#mermaid-svg .messageLine1{stroke-width:1.5;stroke-dasharray:2,2;stroke:#333;}#mermaid-svg #arrowhead path{fill:#333;stroke:#333;}#mermaid-svg .sequenceNumber{fill:white;}#mermaid-svg #sequencenumber{fill:#333;}#mermaid-svg #crosshead path{fill:#333;stroke:#333;}#mermaid-svg .messageText{fill:#333;stroke:none;}#mermaid-svg .labelBox{stroke:#326932;fill:#cde498;}#mermaid-svg .labelText,#mermaid-svg .labelText&gt;tspan{fill:black;stroke:none;}#mermaid-svg .loopText,#mermaid-svg .loopText&gt;tspan{fill:black;stroke:none;}#mermaid-svg .loopLine{stroke-width:2px;stroke-dasharray:2,2;stroke:#326932;fill:#326932;}#mermaid-svg .note{stroke:#6eaa49;fill:#fff5ad;}#mermaid-svg .noteText,#mermaid-svg .noteText&gt;tspan{fill:black;stroke:none;}#mermaid-svg .activation0{fill:#f4f4f4;stroke:#666;}#mermaid-svg .activation1{fill:#f4f4f4;stroke:#666;}#mermaid-svg .activation2{fill:#f4f4f4;stroke:#666;}#mermaid-svg .actorPopupMenu{position:absolute;}#mermaid-svg .actorPopupMenuPanel{position:absolute;fill:#cde498;box-shadow:0px 8px 16px 0px rgba(0,0,0,0.2);filter:drop-shadow(3px 5px 2px rgb(0 0 0 / 0.4));}#mermaid-svg .actor-man line{stroke:hsl(78.1578947368, 58.4615384615%, 54.5098039216%);fill:#cde498;}#mermaid-svg .actor-man circle,#mermaid-svg line{stroke:hsl(78.1578947368, 58.4615384615%, 54.5098039216%);fill:#cde498;stroke-width:2px;}#mermaid-svg :root{--mermaid-font-family:"trebuchet ms",verdana,arial,sans-serif;}</style><g/><defs><symbol id="computer" width="24" height="24"><path transform="scale(.5)" d="M2 2v13h20v-13h-20zm18 11h-16v-9h16v9zm-10.228 6l.466-1h3.524l.467 1h-4.457zm14.228 3h-24l2-6h2.104l-1.33 4h18.45l-1.297-4h2.073l2 6zm-5-10h-14v-7h14v7z"/></symbol></defs><defs><symbol id="database" fill-rule="evenodd" clip-rule="evenodd"><path transform="scale(.5)" d="M12.258.001l.256.004.255.005.253.008.251.01.249.012.247.015.246.016.242.019.241.02.239.023.236.024.233.027.231.028.229.031.225.032.223.034.22.036.217.038.214.04.211.041.208.043.205.045.201.046.198.048.194.05.191.051.187.053.183.054.18.056.175.057.172.059.168.06.163.061.16.063.155.064.15.066.074.033.073.033.071.034.07.034.069.035.068.035.067.035.066.035.064.036.064.036.062.036.06.036.06.037.058.037.058.037.055.038.055.038.053.038.052.038.051.039.05.039.048.039.047.039.045.04.044.04.043.04.041.04.04.041.039.041.037.041.036.041.034.041.033.042.032.042.03.042.029.042.027.042.026.043.024.043.023.043.021.043.02.043.018.044.017.043.015.044.013.044.012.044.011.045.009.044.007.045.006.045.004.045.002.045.001.045v17l-.001.045-.002.045-.004.045-.006.045-.007.045-.009.044-.011.045-.012.044-.013.044-.015.044-.017.043-.018.044-.02.043-.021.043-.023.043-.024.043-.026.043-.027.042-.029.042-.03.042-.032.042-.033.042-.034.041-.036.041-.037.041-.039.041-.04.041-.041.04-.043.04-.044.04-.045.04-.047.039-.048.039-.05.039-.051.039-.052.038-.053.038-.055.038-.055.038-.058.037-.058.037-.06.037-.06.036-.062.036-.064.036-.064.036-.066.035-.067.035-.068.035-.069.035-.07.034-.071.034-.073.033-.074.033-.15.066-.155.064-.16.063-.163.061-.168.06-.172.059-.175.057-.18.056-.183.054-.187.053-.191.051-.194.05-.198.048-.201.046-.205.045-.208.043-.211.041-.214.04-.217.038-.22.036-.223.034-.225.032-.229.031-.231.028-.233.027-.236.024-.239.023-.241.02-.242.019-.246.016-.247.015-.249.012-.251.01-.253.008-.255.005-.256.004-.258.001-.258-.001-.256-.004-.255-.005-.253-.008-.251-.01-.249-.012-.247-.015-.245-.016-.243-.019-.241-.02-.238-.023-.236-.024-.234-.027-.231-.028-.228-.031-.226-.032-.223-.034-.22-.036-.217-.038-.214-.04-.211-.041-.208-.043-.204-.045-.201-.046-.198-.048-.195-.05-.19-.051-.187-.053-.184-.054-.179-.056-.176-.057-.172-.059-.167-.06-.164-.061-.159-.063-.155-.064-.151-.066-.074-.033-.072-.033-.072-.034-.07-.034-.069-.035-.068-.035-.067-.035-.066-.035-.064-.036-.063-.036-.062-.036-.061-.036-.06-.037-.058-.037-.057-.037-.056-.038-.055-.038-.053-.038-.052-.038-.051-.039-.049-.039-.049-.039-.046-.039-.046-.04-.044-.04-.043-.04-.041-.04-.04-.041-.039-.041-.037-.041-.036-.041-.034-.041-.033-.042-.032-.042-.03-.042-.029-.042-.027-.042-.026-.043-.024-.043-.023-.043-.021-.043-.02-.043-.018-.044-.017-.043-.015-.044-.013-.044-.012-.044-.011-.045-.009-.044-.007-.045-.006-.045-.004-.045-.002-.045-.001-.045v-17l.001-.045.002-.045.004-.045.006-.045.007-.045.009-.044.011-.045.012-.044.013-.044.015-.044.017-.043.018-.044.02-.043.021-.043.023-.043.024-.043.026-.043.027-.042.029-.042.03-.042.032-.042.033-.042.034-.041.036-.041.037-.041.039-.041.04-.041.041-.04.043-.04.044-.04.046-.04.046-.039.049-.039.049-.039.051-.039.052-.038.053-.038.055-.038.056-.038.057-.037.058-.037.06-.037.061-.036.062-.036.063-.036.064-.036.066-.035.067-.035.068-.035.069-.035.07-.034.072-.034.072-.033.074-.033.151-.066.155-.064.159-.063.164-.061.167-.06.172-.059.176-.057.179-.056.184-.054.187-.053.19-.051.195-.05.198-.048.201-.046.204-.045.208-.043.211-.041.214-.04.217-.038.22-.036.223-.034.226-.032.228-.031.231-.028.234-.027.236-.024.238-.023.241-.02.243-.019.245-.016.247-.015.249-.012.251-.01.253-.008.255-.005.256-.004.258-.001.258.001zm-9.258 20.499v.01l.001.021.003.021.004.022.005.021.006.022.007.022.009.023.01.022.011.023.012.023.013.023.015.023.016.024.017.023.018.024.019.024.021.024.022.025.023.024.024.025.052.049.056.05.061.051.066.051.07.051.075.051.079.052.084.052.088.052.092.052.097.052.102.051.105.052.11.052.114.051.119.051.123.051.127.05.131.05.135.05.139.048.144.049.147.047.152.047.155.047.16.045.163.045.167.043.171.043.176.041.178.041.183.039.187.039.19.037.194.035.197.035.202.033.204.031.209.03.212.029.216.027.219.025.222.024.226.021.23.02.233.018.236.016.24.015.243.012.246.01.249.008.253.005.256.004.259.001.26-.001.257-.004.254-.005.25-.008.247-.011.244-.012.241-.014.237-.016.233-.018.231-.021.226-.021.224-.024.22-.026.216-.027.212-.028.21-.031.205-.031.202-.034.198-.034.194-.036.191-.037.187-.039.183-.04.179-.04.175-.042.172-.043.168-.044.163-.045.16-.046.155-.046.152-.047.148-.048.143-.049.139-.049.136-.05.131-.05.126-.05.123-.051.118-.052.114-.051.11-.052.106-.052.101-.052.096-.052.092-.052.088-.053.083-.051.079-.052.074-.052.07-.051.065-.051.06-.051.056-.05.051-.05.023-.024.023-.025.021-.024.02-.024.019-.024.018-.024.017-.024.015-.023.014-.024.013-.023.012-.023.01-.023.01-.022.008-.022.006-.022.006-.022.004-.022.004-.021.001-.021.001-.021v-4.127l-.077.055-.08.053-.083.054-.085.053-.087.052-.09.052-.093.051-.095.05-.097.05-.1.049-.102.049-.105.048-.106.047-.109.047-.111.046-.114.045-.115.045-.118.044-.12.043-.122.042-.124.042-.126.041-.128.04-.13.04-.132.038-.134.038-.135.037-.138.037-.139.035-.142.035-.143.034-.144.033-.147.032-.148.031-.15.03-.151.03-.153.029-.154.027-.156.027-.158.026-.159.025-.161.024-.162.023-.163.022-.165.021-.166.02-.167.019-.169.018-.169.017-.171.016-.173.015-.173.014-.175.013-.175.012-.177.011-.178.01-.179.008-.179.008-.181.006-.182.005-.182.004-.184.003-.184.002h-.37l-.184-.002-.184-.003-.182-.004-.182-.005-.181-.006-.179-.008-.179-.008-.178-.01-.176-.011-.176-.012-.175-.013-.173-.014-.172-.015-.171-.016-.17-.017-.169-.018-.167-.019-.166-.02-.165-.021-.163-.022-.162-.023-.161-.024-.159-.025-.157-.026-.156-.027-.155-.027-.153-.029-.151-.03-.15-.03-.148-.031-.146-.032-.145-.033-.143-.034-.141-.035-.14-.035-.137-.037-.136-.037-.134-.038-.132-.038-.13-.04-.128-.04-.126-.041-.124-.042-.122-.042-.12-.044-.117-.043-.116-.045-.113-.045-.112-.046-.109-.047-.106-.047-.105-.048-.102-.049-.1-.049-.097-.05-.095-.05-.093-.052-.09-.051-.087-.052-.085-.053-.083-.054-.08-.054-.077-.054v4.127zm0-5.654v.011l.001.021.003.021.004.021.005.022.006.022.007.022.009.022.01.022.011.023.012.023.013.023.015.024.016.023.017.024.018.024.019.024.021.024.022.024.023.025.024.024.052.05.056.05.061.05.066.051.07.051.075.052.079.051.084.052.088.052.092.052.097.052.102.052.105.052.11.051.114.051.119.052.123.05.127.051.131.05.135.049.139.049.144.048.147.048.152.047.155.046.16.045.163.045.167.044.171.042.176.042.178.04.183.04.187.038.19.037.194.036.197.034.202.033.204.032.209.03.212.028.216.027.219.025.222.024.226.022.23.02.233.018.236.016.24.014.243.012.246.01.249.008.253.006.256.003.259.001.26-.001.257-.003.254-.006.25-.008.247-.01.244-.012.241-.015.237-.016.233-.018.231-.02.226-.022.224-.024.22-.025.216-.027.212-.029.21-.03.205-.032.202-.033.198-.035.194-.036.191-.037.187-.039.183-.039.179-.041.175-.042.172-.043.168-.044.163-.045.16-.045.155-.047.152-.047.148-.048.143-.048.139-.05.136-.049.131-.05.126-.051.123-.051.118-.051.114-.052.11-.052.106-.052.101-.052.096-.052.092-.052.088-.052.083-.052.079-.052.074-.051.07-.052.065-.051.06-.05.056-.051.051-.049.023-.025.023-.024.021-.025.02-.024.019-.024.018-.024.017-.024.015-.023.014-.023.013-.024.012-.022.01-.023.01-.023.008-.022.006-.022.006-.022.004-.021.004-.022.001-.021.001-.021v-4.139l-.077.054-.08.054-.083.054-.085.052-.087.053-.09.051-.093.051-.095.051-.097.05-.1.049-.102.049-.105.048-.106.047-.109.047-.111.046-.114.045-.115.044-.118.044-.12.044-.122.042-.124.042-.126.041-.128.04-.13.039-.132.039-.134.038-.135.037-.138.036-.139.036-.142.035-.143.033-.144.033-.147.033-.148.031-.15.03-.151.03-.153.028-.154.028-.156.027-.158.026-.159.025-.161.024-.162.023-.163.022-.165.021-.166.02-.167.019-.169.018-.169.017-.171.016-.173.015-.173.014-.175.013-.175.012-.177.011-.178.009-.179.009-.179.007-.181.007-.182.005-.182.004-.184.003-.184.002h-.37l-.184-.002-.184-.003-.182-.004-.182-.005-.181-.007-.179-.007-.179-.009-.178-.009-.176-.011-.176-.012-.175-.013-.173-.014-.172-.015-.171-.016-.17-.017-.169-.018-.167-.019-.166-.02-.165-.021-.163-.022-.162-.023-.161-.024-.159-.025-.157-.026-.156-.027-.155-.028-.153-.028-.151-.03-.15-.03-.148-.031-.146-.033-.145-.033-.143-.033-.141-.035-.14-.036-.137-.036-.136-.037-.134-.038-.132-.039-.13-.039-.128-.04-.126-.041-.124-.042-.122-.043-.12-.043-.117-.044-.116-.044-.113-.046-.112-.046-.109-.046-.106-.047-.105-.048-.102-.049-.1-.049-.097-.05-.095-.051-.093-.051-.09-.051-.087-.053-.085-.052-.083-.054-.08-.054-.077-.054v4.139zm0-5.666v.011l.001.02.003.022.004.021.005.022.006.021.007.022.009.023.01.022.011.023.012.023.013.023.015.023.016.024.017.024.018.023.019.024.021.025.022.024.023.024.024.025.052.05.056.05.061.05.066.051.07.051.075.052.079.051.084.052.088.052.092.052.097.052.102.052.105.051.11.052.114.051.119.051.123.051.127.05.131.05.135.05.139.049.144.048.147.048.152.047.155.046.16.045.163.045.167.043.171.043.176.042.178.04.183.04.187.038.19.037.194.036.197.034.202.033.204.032.209.03.212.028.216.027.219.025.222.024.226.021.23.02.233.018.236.017.24.014.243.012.246.01.249.008.253.006.256.003.259.001.26-.001.257-.003.254-.006.25-.008.247-.01.244-.013.241-.014.237-.016.233-.018.231-.02.226-.022.224-.024.22-.025.216-.027.212-.029.21-.03.205-.032.202-.033.198-.035.194-.036.191-.037.187-.039.183-.039.179-.041.175-.042.172-.043.168-.044.163-.045.16-.045.155-.047.152-.047.148-.048.143-.049.139-.049.136-.049.131-.051.126-.05.123-.051.118-.052.114-.051.11-.052.106-.052.101-.052.096-.052.092-.052.088-.052.083-.052.079-.052.074-.052.07-.051.065-.051.06-.051.056-.05.051-.049.023-.025.023-.025.021-.024.02-.024.019-.024.018-.024.017-.024.015-.023.014-.024.013-.023.012-.023.01-.022.01-.023.008-.022.006-.022.006-.022.004-.022.004-.021.001-.021.001-.021v-4.153l-.077.054-.08.054-.083.053-.085.053-.087.053-.09.051-.093.051-.095.051-.097.05-.1.049-.102.048-.105.048-.106.048-.109.046-.111.046-.114.046-.115.044-.118.044-.12.043-.122.043-.124.042-.126.041-.128.04-.13.039-.132.039-.134.038-.135.037-.138.036-.139.036-.142.034-.143.034-.144.033-.147.032-.148.032-.15.03-.151.03-.153.028-.154.028-.156.027-.158.026-.159.024-.161.024-.162.023-.163.023-.165.021-.166.02-.167.019-.169.018-.169.017-.171.016-.173.015-.173.014-.175.013-.175.012-.177.01-.178.01-.179.009-.179.007-.181.006-.182.006-.182.004-.184.003-.184.001-.185.001-.185-.001-.184-.001-.184-.003-.182-.004-.182-.006-.181-.006-.179-.007-.179-.009-.178-.01-.176-.01-.176-.012-.175-.013-.173-.014-.172-.015-.171-.016-.17-.017-.169-.018-.167-.019-.166-.02-.165-.021-.163-.023-.162-.023-.161-.024-.159-.024-.157-.026-.156-.027-.155-.028-.153-.028-.151-.03-.15-.03-.148-.032-.146-.032-.145-.033-.143-.034-.141-.034-.14-.036-.137-.036-.136-.037-.134-.038-.132-.039-.13-.039-.128-.041-.126-.041-.124-.041-.122-.043-.12-.043-.117-.044-.116-.044-.113-.046-.112-.046-.109-.046-.106-.048-.105-.048-.102-.048-.1-.05-.097-.049-.095-.051-.093-.051-.09-.052-.087-.052-.085-.053-.083-.053-.08-.054-.077-.054v4.153zm8.74-8.179l-.257.004-.254.005-.25.008-.247.011-.244.012-.241.014-.237.016-.233.018-.231.021-.226.022-.224.023-.22.026-.216.027-.212.028-.21.031-.205.032-.202.033-.198.034-.194.036-.191.038-.187.038-.183.04-.179.041-.175.042-.172.043-.168.043-.163.045-.16.046-.155.046-.152.048-.148.048-.143.048-.139.049-.136.05-.131.05-.126.051-.123.051-.118.051-.114.052-.11.052-.106.052-.101.052-.096.052-.092.052-.088.052-.083.052-.079.052-.074.051-.07.052-.065.051-.06.05-.056.05-.051.05-.023.025-.023.024-.021.024-.02.025-.019.024-.018.024-.017.023-.015.024-.014.023-.013.023-.012.023-.01.023-.01.022-.008.022-.006.023-.006.021-.004.022-.004.021-.001.021-.001.021.001.021.001.021.004.021.004.022.006.021.006.023.008.022.01.022.01.023.012.023.013.023.014.023.015.024.017.023.018.024.019.024.02.025.021.024.023.024.023.025.051.05.056.05.06.05.065.051.07.052.074.051.079.052.083.052.088.052.092.052.096.052.101.052.106.052.11.052.114.052.118.051.123.051.126.051.131.05.136.05.139.049.143.048.148.048.152.048.155.046.16.046.163.045.168.043.172.043.175.042.179.041.183.04.187.038.191.038.194.036.198.034.202.033.205.032.21.031.212.028.216.027.22.026.224.023.226.022.231.021.233.018.237.016.241.014.244.012.247.011.25.008.254.005.257.004.26.001.26-.001.257-.004.254-.005.25-.008.247-.011.244-.012.241-.014.237-.016.233-.018.231-.021.226-.022.224-.023.22-.026.216-.027.212-.028.21-.031.205-.032.202-.033.198-.034.194-.036.191-.038.187-.038.183-.04.179-.041.175-.042.172-.043.168-.043.163-.045.16-.046.155-.046.152-.048.148-.048.143-.048.139-.049.136-.05.131-.05.126-.051.123-.051.118-.051.114-.052.11-.052.106-.052.101-.052.096-.052.092-.052.088-.052.083-.052.079-.052.074-.051.07-.052.065-.051.06-.05.056-.05.051-.05.023-.025.023-.024.021-.024.02-.025.019-.024.018-.024.017-.023.015-.024.014-.023.013-.023.012-.023.01-.023.01-.022.008-.022.006-.023.006-.021.004-.022.004-.021.001-.021.001-.021-.001-.021-.001-.021-.004-.021-.004-.022-.006-.021-.006-.023-.008-.022-.01-.022-.01-.023-.012-.023-.013-.023-.014-.023-.015-.024-.017-.023-.018-.024-.019-.024-.02-.025-.021-.024-.023-.024-.023-.025-.051-.05-.056-.05-.06-.05-.065-.051-.07-.052-.074-.051-.079-.052-.083-.052-.088-.052-.092-.052-.096-.052-.101-.052-.106-.052-.11-.052-.114-.052-.118-.051-.123-.051-.126-.051-.131-.05-.136-.05-.139-.049-.143-.048-.148-.048-.152-.048-.155-.046-.16-.046-.163-.045-.168-.043-.172-.043-.175-.042-.179-.041-.183-.04-.187-.038-.191-.038-.194-.036-.198-.034-.202-.033-.205-.032-.21-.031-.212-.028-.216-.027-.22-.026-.224-.023-.226-.022-.231-.021-.233-.018-.237-.016-.241-.014-.244-.012-.247-.011-.25-.008-.254-.005-.257-.004-.26-.001-.26.001z"/></symbol></defs><defs><symbol id="clock" width="24" height="24"><path transform="scale(.5)" d="M12 2c5.514 0 10 4.486 10 10s-4.486 10-10 10-10-4.486-10-10 4.486-10 10-10zm0-2c-6.627 0-12 5.373-12 12s5.373 12 12 12 12-5.373 12-12-5.373-12-12-12zm5.848 12.459c.202.038.202.333.001.372-1.907.361-6.045 1.111-6.547 1.111-.719 0-1.301-.582-1.301-1.301 0-.512.77-5.447 1.125-7.445.034-.192.312-.181.343.014l.985 6.238 5.394 1.011z"/></symbol></defs><defs><marker id="arrowhead" refX="7.9" refY="5" markerUnits="userSpaceOnUse" markerWidth="12" markerHeight="12" orient="auto-start-reverse"><path d="M -1 0 L 10 5 L 0 10 z"/></marker></defs><defs><marker id="crosshead" markerWidth="15" markerHeight="8" orient="auto" refX="4" refY="4.5"><path fill="none" stroke="#000000" stroke-width="1pt" d="M 1,2 L 6,7 M 6,2 L 1,7" style="stroke-dasharray: 0, 0;"/></marker></defs><defs><marker id="filled-head" refX="15.5" refY="7" markerWidth="20" markerHeight="28" orient="auto"><path d="M 18,7 L9,13 L14,7 L9,1 Z"/></marker></defs><defs><marker id="sequencenumber" refX="15" refY="15" markerWidth="60" markerHeight="40" orient="auto"><circle cx="15" cy="15" r="6"/></marker></defs><g><rect x="956" y="75" fill="#EDF2AE" stroke="#666" width="181" height="37" class="note"/><text x="1047" y="80" text-anchor="middle" dominant-baseline="middle" alignment-baseline="middle" class="noteText" dy="1em" style="font-size: 16px; font-weight: 400;"><tspan x="1047">Capabilities initialization</tspan></text></g><g><rect x="956" y="167" fill="#EDF2AE" stroke="#666" width="523" height="128" class="note"/><text x="1218" y="172" text-anchor="middle" dominant-baseline="middle" alignment-baseline="middle" class="noteText" dy="1em" style="font-size: 16px; font-weight: 400;"><tspan x="1218">SAI_SWITCH_ATTR_PACKET_TRIM_SIZE </tspan></text><text x="1218" y="190" text-anchor="middle" dominant-baseline="middle" alignment-baseline="middle" class="noteText" dy="1em" style="font-size: 16px; font-weight: 400;"><tspan x="1218"> SAI_SWITCH_ATTR_PACKET_TRIM_DSCP_RESOLUTION_MODE </tspan></text><text x="1218" y="208" text-anchor="middle" dominant-baseline="middle" alignment-baseline="middle" class="noteText" dy="1em" style="font-size: 16px; font-weight: 400;"><tspan x="1218"> SAI_SWITCH_ATTR_PACKET_TRIM_DSCP_VALUE </tspan></text><text x="1218" y="226" text-anchor="middle" dominant-baseline="middle" alignment-baseline="middle" class="noteText" dy="1em" style="font-size: 16px; font-weight: 400;"><tspan x="1218"> SAI_SWITCH_ATTR_PACKET_TRIM_TC_VALUE </tspan></text><text x="1218" y="244" text-anchor="middle" dominant-baseline="middle" alignment-baseline="middle" class="noteText" dy="1em" style="font-size: 16px; font-weight: 400;"><tspan x="1218"> SAI_SWITCH_ATTR_PACKET_TRIM_QUEUE_RESOLUTION_MODE </tspan></text><text x="1218" y="262" text-anchor="middle" dominant-baseline="middle" alignment-baseline="middle" class="noteText" dy="1em" style="font-size: 16px; font-weight: 400;"><tspan x="1218"> SAI_SWITCH_ATTR_PACKET_TRIM_QUEUE_INDEX</tspan></text></g><g><rect x="1499" y="341" fill="#EDF2AE" stroke="#666" width="10" height="44" class="activation0"/></g><g><rect x="926" y="343" fill="#EDF2AE" stroke="#666" width="10" height="42" class="activation0"/></g><g><rect x="926" y="430" fill="#EDF2AE" stroke="#666" width="10" height="76" class="activation0"/></g><g><line x1="850.5" y1="122" x2="1519" y2="122" class="loopLine"/><line x1="1519" y1="122" x2="1519" y2="546" class="loopLine"/><line x1="850.5" y1="546" x2="1519" y2="546" class="loopLine"/><line x1="850.5" y1="122" x2="850.5" y2="546" class="loopLine"/><line x1="850.5" y1="400" x2="1519" y2="400" class="loopLine" style="stroke-dasharray: 3, 3;"/><polygon points="850.5,122 900.5,122 900.5,135 892.1,142 850.5,142" class="labelBox"/><text x="876" y="135" text-anchor="middle" dominant-baseline="middle" alignment-baseline="middle" class="labelText" style="font-size: 16px; font-weight: 400;">critical</text><text x="1209.75" y="140" text-anchor="middle" class="loopText" style="font-size: 16px; font-weight: 400;"><tspan x="1209.75">[verify trimming supported]</tspan></text><text x="1184.75" y="418" text-anchor="middle" class="loopText" style="font-size: 16px; font-weight: 400;">[status != SAI_STATUS_SUCCESS]</text></g><g><rect x="735" y="556" fill="#EDF2AE" stroke="#666" width="171" height="37" class="note"/><text x="821" y="561" text-anchor="middle" dominant-baseline="middle" alignment-baseline="middle" class="noteText" dy="1em" style="font-size: 16px; font-weight: 400;"><tspan x="821">Push capabilities to DB</tspan></text></g><g><rect x="604" y="639" fill="#EDF2AE" stroke="#666" width="10" height="44" class="activation0"/></g><g><rect x="926" y="641" fill="#EDF2AE" stroke="#666" width="10" height="42" class="activation0"/></g><g><rect x="70" y="683" fill="#EDF2AE" stroke="#666" width="10" height="76" class="activation0"/></g><g><rect x="100" y="769" fill="#EDF2AE" stroke="#666" width="198" height="37" class="note"/><text x="199" y="774" text-anchor="middle" dominant-baseline="middle" alignment-baseline="middle" class="noteText" dy="1em" style="font-size: 16px; font-weight: 400;"><tspan x="199">Query capabilities from DB</tspan></text></g><g><rect x="604" y="852" fill="#EDF2AE" stroke="#666" width="10" height="44" class="activation0"/></g><g><rect x="70" y="854" fill="#EDF2AE" stroke="#666" width="10" height="42" class="activation0"/></g><g><rect x="100" y="906" fill="#EDF2AE" stroke="#666" width="164" height="37" class="note"/><text x="182" y="911" text-anchor="middle" dominant-baseline="middle" alignment-baseline="middle" class="noteText" dy="1em" style="font-size: 16px; font-weight: 400;"><tspan x="182">Capabilities validation</tspan></text></g><g><rect x="70" y="943" fill="#EDF2AE" stroke="#666" width="10" height="76" class="activation0"/></g><g><rect x="100" y="1029" fill="#EDF2AE" stroke="#666" width="161" height="37" class="note"/><text x="181" y="1034" text-anchor="middle" dominant-baseline="middle" alignment-baseline="middle" class="noteText" dy="1em" style="font-size: 16px; font-weight: 400;"><tspan x="181">Configuration request</tspan></text></g><g><rect x="404" y="1114" fill="#EDF2AE" stroke="#666" width="10" height="211" class="activation0"/></g><g><rect x="70" y="1114" fill="#EDF2AE" stroke="#666" width="10" height="211" class="activation0"/></g><g><rect x="434" y="1122" fill="#EDF2AE" stroke="#666" width="150" height="37" class="note"/><text x="509" y="1127" text-anchor="middle" dominant-baseline="middle" alignment-baseline="middle" class="noteText" dy="1em" style="font-size: 16px; font-weight: 400;"><tspan x="509">Generate event</tspan></text></g><g><rect x="926" y="1207" fill="#EDF2AE" stroke="#666" width="10" height="74" class="activation0"/></g><g><rect x="956" y="1335" fill="#EDF2AE" stroke="#666" width="157" height="37" class="note"/><text x="1035" y="1340" text-anchor="middle" dominant-baseline="middle" alignment-baseline="middle" class="noteText" dy="1em" style="font-size: 16px; font-weight: 400;"><tspan x="1035">Deploy configuration</tspan></text></g><g><rect x="956" y="1472" fill="#EDF2AE" stroke="#666" width="331" height="38" class="note"/><text x="1122" y="1477" text-anchor="middle" dominant-baseline="middle" alignment-baseline="middle" class="noteText" dy="1em" style="font-size: 16px; font-weight: 400;"><tspan x="1122">SAI_SWITCH_ATTR_PACKET_TRIM_SIZE</tspan></text></g><g><rect x="1499" y="1556" fill="#EDF2AE" stroke="#666" width="10" height="44" class="activation0"/></g><g><rect x="926" y="1558" fill="#EDF2AE" stroke="#666" width="10" height="42" class="activation0"/></g><g><line x1="916" y1="1427" x2="1519" y2="1427" class="loopLine"/><line x1="1519" y1="1427" x2="1519" y2="1610" class="loopLine"/><line x1="916" y1="1610" x2="1519" y2="1610" class="loopLine"/><line x1="916" y1="1427" x2="916" y2="1610" class="loopLine"/><polygon points="916,1427 966,1427 966,1440 957.6,1447 916,1447" class="labelBox"/><text x="941" y="1440" text-anchor="middle" dominant-baseline="middle" alignment-baseline="middle" class="labelText" style="font-size: 16px; font-weight: 400;">opt</text><text x="1242.5" y="1445" text-anchor="middle" class="loopText" style="font-size: 16px; font-weight: 400;"><tspan x="1242.5">[size is present]</tspan></text></g><g><rect x="956" y="1665" fill="#EDF2AE" stroke="#666" width="510" height="38" class="note"/><text x="1211" y="1670" text-anchor="middle" dominant-baseline="middle" alignment-baseline="middle" class="noteText" dy="1em" style="font-size: 16px; font-weight: 400;"><tspan x="1211">SAI_SWITCH_ATTR_PACKET_TRIM_DSCP_RESOLUTION_MODE</tspan></text></g><g><rect x="956" y="1713" fill="#EDF2AE" stroke="#666" width="401" height="38" class="note"/><text x="1157" y="1718" text-anchor="middle" dominant-baseline="middle" alignment-baseline="middle" class="noteText" dy="1em" style="font-size: 16px; font-weight: 400;"><tspan x="1157">SAI_SWITCH_ATTR_PACKET_TRIM_DSCP_VALUE</tspan></text></g><g><rect x="1499" y="1797" fill="#EDF2AE" stroke="#666" width="10" height="44" class="activation0"/></g><g><rect x="926" y="1799" fill="#EDF2AE" stroke="#666" width="10" height="42" class="activation0"/></g><g><line x1="916" y1="1620" x2="1519" y2="1620" class="loopLine"/><line x1="1519" y1="1620" x2="1519" y2="1851" class="loopLine"/><line x1="916" y1="1851" x2="1519" y2="1851" class="loopLine"/><line x1="916" y1="1620" x2="916" y2="1851" class="loopLine"/><polygon points="916,1620 966,1620 966,1633 957.6,1640 916,1640" class="labelBox"/><text x="941" y="1633" text-anchor="middle" dominant-baseline="middle" alignment-baseline="middle" class="labelText" style="font-size: 16px; font-weight: 400;">opt</text><text x="1242.5" y="1638" text-anchor="middle" class="loopText" style="font-size: 16px; font-weight: 400;"><tspan x="1242.5">[dscp_value is present]</tspan></text></g><g><rect x="956" y="1906" fill="#EDF2AE" stroke="#666" width="377" height="38" class="note"/><text x="1145" y="1911" text-anchor="middle" dominant-baseline="middle" alignment-baseline="middle" class="noteText" dy="1em" style="font-size: 16px; font-weight: 400;"><tspan x="1145">SAI_SWITCH_ATTR_PACKET_TRIM_TC_VALUE</tspan></text></g><g><rect x="1499" y="1990" fill="#EDF2AE" stroke="#666" width="10" height="44" class="activation0"/></g><g><rect x="926" y="1992" fill="#EDF2AE" stroke="#666" width="10" height="42" class="activation0"/></g><g><line x1="916" y1="1861" x2="1519" y2="1861" class="loopLine"/><line x1="1519" y1="1861" x2="1519" y2="2044" class="loopLine"/><line x1="916" y1="2044" x2="1519" y2="2044" class="loopLine"/><line x1="916" y1="1861" x2="916" y2="2044" class="loopLine"/><polygon points="916,1861 966,1861 966,1874 957.6,1881 916,1881" class="labelBox"/><text x="941" y="1874" text-anchor="middle" dominant-baseline="middle" alignment-baseline="middle" class="labelText" style="font-size: 16px; font-weight: 400;">opt</text><text x="1242.5" y="1879" text-anchor="middle" class="loopText" style="font-size: 16px; font-weight: 400;"><tspan x="1242.5">[tc_value is present]</tspan></text></g><g><rect x="956" y="2099" fill="#EDF2AE" stroke="#666" width="523" height="38" class="note"/><text x="1218" y="2104" text-anchor="middle" dominant-baseline="middle" alignment-baseline="middle" class="noteText" dy="1em" style="font-size: 16px; font-weight: 400;"><tspan x="1218">SAI_SWITCH_ATTR_PACKET_TRIM_QUEUE_RESOLUTION_MODE</tspan></text></g><g><rect x="956" y="2147" fill="#EDF2AE" stroke="#666" width="411" height="38" class="note"/><text x="1162" y="2152" text-anchor="middle" dominant-baseline="middle" alignment-baseline="middle" class="noteText" dy="1em" style="font-size: 16px; font-weight: 400;"><tspan x="1162">SAI_SWITCH_ATTR_PACKET_TRIM_QUEUE_INDEX</tspan></text></g><g><rect x="1499" y="2231" fill="#EDF2AE" stroke="#666" width="10" height="44" class="activation0"/></g><g><rect x="926" y="2233" fill="#EDF2AE" stroke="#666" width="10" height="42" class="activation0"/></g><g><line x1="916" y1="2054" x2="1519" y2="2054" class="loopLine"/><line x1="1519" y1="2054" x2="1519" y2="2285" class="loopLine"/><line x1="916" y1="2285" x2="1519" y2="2285" class="loopLine"/><line x1="916" y1="2054" x2="916" y2="2285" class="loopLine"/><polygon points="916,2054 966,2054 966,2067 957.6,2074 916,2074" class="labelBox"/><text x="941" y="2067" text-anchor="middle" dominant-baseline="middle" alignment-baseline="middle" class="labelText" style="font-size: 16px; font-weight: 400;">opt</text><text x="1242.5" y="2072" text-anchor="middle" class="loopText" style="font-size: 16px; font-weight: 400;"><tspan x="1242.5">[queue_index is present]</tspan></text></g><g><line x1="906" y1="1382" x2="1529" y2="1382" class="loopLine"/><line x1="1529" y1="1382" x2="1529" y2="2295" class="loopLine"/><line x1="906" y1="2295" x2="1529" y2="2295" class="loopLine"/><line x1="906" y1="1382" x2="906" y2="2295" class="loopLine"/><polygon points="906,1382 956,1382 956,1395 947.6,1402 906,1402" class="labelBox"/><text x="931" y="1395" text-anchor="middle" dominant-baseline="middle" alignment-baseline="middle" class="labelText" style="font-size: 16px; font-weight: 400;">opt</text><text x="1242.5" y="1400" text-anchor="middle" class="loopText" style="font-size: 16px; font-weight: 400;"><tspan x="1242.5">[capability is validated]</tspan></text></g><g class="actor-man actor-top" name="CLI"><line id="actor-man-torso0" x1="75" y1="25" x2="75" y2="45"/><line id="actor-man-arms0" x1="57" y1="33" x2="93" y2="33"/><line x1="57" y1="60" x2="75" y2="45"/><line x1="75" y1="45" x2="91" y2="60"/><circle cx="75" cy="10" r="15" width="150" height="65"/><text x="75" y="67.5" dominant-baseline="central" alignment-baseline="central" class="actor actor-man" style="text-anchor: middle; font-size: 16px; font-weight: 400;"><tspan x="75" dy="0">CLI</tspan></text></g><text x="1214" y="310" text-anchor="middle" dominant-baseline="middle" alignment-baseline="middle" class="messageText" dy="1em" style="font-size: 16px; font-weight: 400;">sai_query_attribute_capability</text><line x1="932" y1="341" x2="1496" y2="341" class="messageLine0" stroke-width="2" stroke="none" marker-end="url(#arrowhead)" marker-start="url(#sequencenumber)" style="fill: none;"/><text x="932" y="345" font-family="sans-serif" font-size="12px" text-anchor="middle" class="sequenceNumber">1</text><text x="1219" y="356" text-anchor="middle" dominant-baseline="middle" alignment-baseline="middle" class="messageText" dy="1em" style="font-size: 16px; font-weight: 400;">status</text><line x1="1499" y1="385" x2="939" y2="385" class="messageLine1" stroke-width="2" stroke="none" marker-end="url(#arrowhead)" marker-start="url(#sequencenumber)" style="stroke-dasharray: 3, 3; fill: none;"/><text x="1499" y="389" font-family="sans-serif" font-size="12px" text-anchor="middle" class="sequenceNumber">2</text><text x="936" y="445" text-anchor="middle" dominant-baseline="middle" alignment-baseline="middle" class="messageText" dy="1em" style="font-size: 16px; font-weight: 400;">trimming not supported</text><path d="M 936,476 C 996,466 996,506 936,496" class="messageLine0" stroke-width="2" stroke="none" marker-end="url(#arrowhead)" marker-start="url(#sequencenumber)" style="fill: none;"/><text x="936" y="480" font-family="sans-serif" font-size="12px" text-anchor="middle" class="sequenceNumber">3</text><text x="774" y="608" text-anchor="middle" dominant-baseline="middle" alignment-baseline="middle" class="messageText" dy="1em" style="font-size: 16px; font-weight: 400;">HSET SWITCH_CAPABILITY|switch</text><line x1="930" y1="639" x2="617" y2="639" class="messageLine0" stroke-width="2" stroke="none" marker-end="url(#arrowhead)" marker-start="url(#sequencenumber)" style="fill: none;"/><text x="930" y="643" font-family="sans-serif" font-size="12px" text-anchor="middle" class="sequenceNumber">4</text><text x="769" y="654" text-anchor="middle" dominant-baseline="middle" alignment-baseline="middle" class="messageText" dy="1em" style="font-size: 16px; font-weight: 400;">result</text><line x1="614" y1="683" x2="923" y2="683" class="messageLine1" stroke-width="2" stroke="none" marker-end="url(#arrowhead)" marker-start="url(#sequencenumber)" style="stroke-dasharray: 3, 3; fill: none;"/><text x="614" y="687" font-family="sans-serif" font-size="12px" text-anchor="middle" class="sequenceNumber">5</text><text x="80" y="698" text-anchor="middle" dominant-baseline="middle" alignment-baseline="middle" class="messageText" dy="1em" style="font-size: 16px; font-weight: 400;">parse input</text><path d="M 80,729 C 140,719 140,759 80,749" class="messageLine0" stroke-width="2" stroke="none" marker-end="url(#arrowhead)" marker-start="url(#sequencenumber)" style="fill: none;"/><text x="80" y="733" font-family="sans-serif" font-size="12px" text-anchor="middle" class="sequenceNumber">6</text><text x="339" y="821" text-anchor="middle" dominant-baseline="middle" alignment-baseline="middle" class="messageText" dy="1em" style="font-size: 16px; font-weight: 400;">HGET SWITCH_CAPABILITY|switch</text><line x1="76" y1="852" x2="601" y2="852" class="messageLine0" stroke-width="2" stroke="none" marker-end="url(#arrowhead)" marker-start="url(#sequencenumber)" style="fill: none;"/><text x="76" y="856" font-family="sans-serif" font-size="12px" text-anchor="middle" class="sequenceNumber">7</text><text x="344" y="867" text-anchor="middle" dominant-baseline="middle" alignment-baseline="middle" class="messageText" dy="1em" style="font-size: 16px; font-weight: 400;">result</text><line x1="604" y1="896" x2="83" y2="896" class="messageLine1" stroke-width="2" stroke="none" marker-end="url(#arrowhead)" marker-start="url(#sequencenumber)" style="stroke-dasharray: 3, 3; fill: none;"/><text x="604" y="900" font-family="sans-serif" font-size="12px" text-anchor="middle" class="sequenceNumber">8</text><text x="80" y="958" text-anchor="middle" dominant-baseline="middle" alignment-baseline="middle" class="messageText" dy="1em" style="font-size: 16px; font-weight: 400;">validate capabilities</text><path d="M 80,989 C 140,979 140,1019 80,1009" class="messageLine0" stroke-width="2" stroke="none" marker-end="url(#arrowhead)" marker-start="url(#sequencenumber)" style="fill: none;"/><text x="80" y="993" font-family="sans-serif" font-size="12px" text-anchor="middle" class="sequenceNumber">9</text><text x="239" y="1081" text-anchor="middle" dominant-baseline="middle" alignment-baseline="middle" class="messageText" dy="1em" style="font-size: 16px; font-weight: 400;">HSET SWITCH_TRIMMING|GLOBAL</text><line x1="76" y1="1112" x2="401" y2="1112" class="messageLine0" stroke-width="2" stroke="none" marker-end="url(#arrowhead)" marker-start="url(#sequencenumber)" style="fill: none;"/><text x="76" y="1116" font-family="sans-serif" font-size="12px" text-anchor="middle" class="sequenceNumber">10</text><text x="671" y="1174" text-anchor="middle" dominant-baseline="middle" alignment-baseline="middle" class="messageText" dy="1em" style="font-size: 16px; font-weight: 400;">SWITCH_TRIMMING|GLOBAL notification</text><line x1="414" y1="1205" x2="927" y2="1205" class="messageLine0" stroke-width="2" stroke="none" marker-end="url(#filled-head)" marker-start="url(#sequencenumber)" style="fill: none;"/><text x="414" y="1209" font-family="sans-serif" font-size="12px" text-anchor="middle" class="sequenceNumber">11</text><text x="936" y="1220" text-anchor="middle" dominant-baseline="middle" alignment-baseline="middle" class="messageText" dy="1em" style="font-size: 16px; font-weight: 400;">parse data</text><path d="M 936,1251 C 996,1241 996,1281 936,1271" class="messageLine0" stroke-width="2" stroke="none" marker-end="url(#arrowhead)" marker-start="url(#sequencenumber)" style="fill: none;"/><text x="936" y="1255" font-family="sans-serif" font-size="12px" text-anchor="middle" class="sequenceNumber">12</text><text x="244" y="1296" text-anchor="middle" dominant-baseline="middle" alignment-baseline="middle" class="messageText" dy="1em" style="font-size: 16px; font-weight: 400;">result</text><line x1="404" y1="1325" x2="83" y2="1325" class="messageLine1" stroke-width="2" stroke="none" marker-end="url(#arrowhead)" marker-start="url(#sequencenumber)" style="stroke-dasharray: 3, 3; fill: none;"/><text x="404" y="1329" font-family="sans-serif" font-size="12px" text-anchor="middle" class="sequenceNumber">13</text><text x="1214" y="1525" text-anchor="middle" dominant-baseline="middle" alignment-baseline="middle" class="messageText" dy="1em" style="font-size: 16px; font-weight: 400;">set_switch_attribute</text><line x1="932" y1="1556" x2="1496" y2="1556" class="messageLine0" stroke-width="2" stroke="none" marker-end="url(#arrowhead)" marker-start="url(#sequencenumber)" style="fill: none;"/><text x="932" y="1560" font-family="sans-serif" font-size="12px" text-anchor="middle" class="sequenceNumber">14</text><text x="1219" y="1571" text-anchor="middle" dominant-baseline="middle" alignment-baseline="middle" class="messageText" dy="1em" style="font-size: 16px; font-weight: 400;">status</text><line x1="1499" y1="1600" x2="939" y2="1600" class="messageLine1" stroke-width="2" stroke="none" marker-end="url(#arrowhead)" marker-start="url(#sequencenumber)" style="stroke-dasharray: 3, 3; fill: none;"/><text x="1499" y="1604" font-family="sans-serif" font-size="12px" text-anchor="middle" class="sequenceNumber">15</text><text x="1214" y="1766" text-anchor="middle" dominant-baseline="middle" alignment-baseline="middle" class="messageText" dy="1em" style="font-size: 16px; font-weight: 400;">set_switch_attribute</text><line x1="932" y1="1797" x2="1496" y2="1797" class="messageLine0" stroke-width="2" stroke="none" marker-end="url(#arrowhead)" marker-start="url(#sequencenumber)" style="fill: none;"/><text x="932" y="1801" font-family="sans-serif" font-size="12px" text-anchor="middle" class="sequenceNumber">16</text><text x="1219" y="1812" text-anchor="middle" dominant-baseline="middle" alignment-baseline="middle" class="messageText" dy="1em" style="font-size: 16px; font-weight: 400;">status</text><line x1="1499" y1="1841" x2="939" y2="1841" class="messageLine1" stroke-width="2" stroke="none" marker-end="url(#arrowhead)" marker-start="url(#sequencenumber)" style="stroke-dasharray: 3, 3; fill: none;"/><text x="1499" y="1845" font-family="sans-serif" font-size="12px" text-anchor="middle" class="sequenceNumber">17</text><text x="1214" y="1959" text-anchor="middle" dominant-baseline="middle" alignment-baseline="middle" class="messageText" dy="1em" style="font-size: 16px; font-weight: 400;">set_switch_attribute</text><line x1="932" y1="1990" x2="1496" y2="1990" class="messageLine0" stroke-width="2" stroke="none" marker-end="url(#arrowhead)" marker-start="url(#sequencenumber)" style="fill: none;"/><text x="932" y="1994" font-family="sans-serif" font-size="12px" text-anchor="middle" class="sequenceNumber">18</text><text x="1219" y="2005" text-anchor="middle" dominant-baseline="middle" alignment-baseline="middle" class="messageText" dy="1em" style="font-size: 16px; font-weight: 400;">status</text><line x1="1499" y1="2034" x2="939" y2="2034" class="messageLine1" stroke-width="2" stroke="none" marker-end="url(#arrowhead)" marker-start="url(#sequencenumber)" style="stroke-dasharray: 3, 3; fill: none;"/><text x="1499" y="2038" font-family="sans-serif" font-size="12px" text-anchor="middle" class="sequenceNumber">19</text><text x="1214" y="2200" text-anchor="middle" dominant-baseline="middle" alignment-baseline="middle" class="messageText" dy="1em" style="font-size: 16px; font-weight: 400;">set_switch_attribute</text><line x1="932" y1="2231" x2="1496" y2="2231" class="messageLine0" stroke-width="2" stroke="none" marker-end="url(#arrowhead)" marker-start="url(#sequencenumber)" style="fill: none;"/><text x="932" y="2235" font-family="sans-serif" font-size="12px" text-anchor="middle" class="sequenceNumber">20</text><text x="1219" y="2246" text-anchor="middle" dominant-baseline="middle" alignment-baseline="middle" class="messageText" dy="1em" style="font-size: 16px; font-weight: 400;">status</text><line x1="1499" y1="2275" x2="939" y2="2275" class="messageLine1" stroke-width="2" stroke="none" marker-end="url(#arrowhead)" marker-start="url(#sequencenumber)" style="stroke-dasharray: 3, 3; fill: none;"/><text x="1499" y="2279" font-family="sans-serif" font-size="12px" text-anchor="middle" class="sequenceNumber">21</text><g class="actor-man actor-bottom" name="CLI"><line id="actor-man-torso4" x1="75" y1="2340" x2="75" y2="2360"/><line id="actor-man-arms4" x1="57" y1="2348" x2="93" y2="2348"/><line x1="57" y1="2375" x2="75" y2="2360"/><line x1="75" y1="2360" x2="91" y2="2375"/><circle cx="75" cy="2325" r="15" width="150" height="65"/><text x="75" y="2382.5" dominant-baseline="central" alignment-baseline="central" class="actor actor-man" style="text-anchor: middle; font-size: 16px; font-weight: 400;"><tspan x="75" dy="0">CLI</tspan></text></g></svg>