<?xml version="1.0" encoding="UTF-8" standalone="no"?>
<!DOCTYPE svg PUBLIC "-//W3C//DTD SVG 1.1//EN" "http://www.w3.org/Graphics/SVG/1.1/DTD/svg11.dtd">
<!-- Generated by Microsoft Visio, SVG Export pt_swss_design.svg Page-12 -->
<svg xmlns="http://www.w3.org/2000/svg" xmlns:xlink="http://www.w3.org/1999/xlink" xmlns:ev="http://www.w3.org/2001/xml-events"
		width="15.4745in" height="6.0257in" viewBox="0 0 1114.17 433.851" xml:space="preserve" color-interpolation-filters="sRGB"
		class="st11">
	<title>pt swss design</title>

	<style type="text/css">
	<![CDATA[
		.st1 {fill:#5b9bd5;stroke:#000000;stroke-linecap:round;stroke-linejoin:round;stroke-width:1}
		.st2 {fill:#ffffff;font-family:Segoe UI;font-size:0.833336em;font-weight:bold}
		.st3 {fill:#70ad47;stroke:#000000;stroke-linecap:round;stroke-linejoin:round;stroke-width:1}
		.st4 {marker-end:url(#mrkr4-24);marker-start:url(#mrkr4-22);stroke:#000000;stroke-linecap:round;stroke-linejoin:round;stroke-width:2}
		.st5 {fill:#000000;fill-opacity:1;stroke:#000000;stroke-opacity:1;stroke-width:0.44247787610619}
		.st6 {fill:#7f7f7f;stroke:#000000;stroke-linecap:round;stroke-linejoin:round;stroke-width:1}
		.st7 {fill:#ed7d31;stroke:#000000;stroke-linecap:round;stroke-linejoin:round;stroke-width:1}
		.st8 {fill:#ffffff;font-family:Segoe UI;font-size:0.833336em}
		.st9 {marker-end:url(#mrkr4-56);stroke:#000000;stroke-linecap:round;stroke-linejoin:round;stroke-width:2}
		.st10 {fill:#000000;fill-opacity:1;stroke:#000000;stroke-opacity:1;stroke-width:0.38167938931298}
		.st11 {fill:none;fill-rule:evenodd;font-size:12px;overflow:visible;stroke-linecap:square;stroke-miterlimit:3}
	]]>
	</style>

	<defs id="Markers">
		<g id="lend4">
			<path d="M 2 1 L 0 0 L 2 -1 L 2 1 " style="stroke:none"/>
		</g>
		<marker id="mrkr4-22" class="st5" refX="4.34" orient="auto" markerUnits="strokeWidth" overflow="visible">
			<use xlink:href="#lend4" transform="scale(2.26) "/>
		</marker>
		<marker id="mrkr4-24" class="st5" refX="-4.52" orient="auto" markerUnits="strokeWidth" overflow="visible">
			<use xlink:href="#lend4" transform="scale(-2.26,-2.26) "/>
		</marker>
		<marker id="mrkr4-56" class="st10" refX="-5.24" orient="auto" markerUnits="strokeWidth" overflow="visible">
			<use xlink:href="#lend4" transform="scale(-2.62,-2.62) "/>
		</marker>
	</defs>
	<g>
		<title>Page-12</title>
		<g id="group1036-1" transform="translate(18.5,-18.5001)">
			<title>Can.1206</title>
			<desc>CONFIG_DB</desc>
			<g id="shape1037-2">
				<title>Sheet.1037</title>
				<path d="M0 418.59 A70.8661 15.2635 -180 0 0 141.73 418.59 L141.73 52.26 L0 52.26 L0 418.59 Z" class="st1"/>
			</g>
			<g id="shape1036-4">
				<ellipse cx="70.8661" cy="52.2636" rx="70.8661" ry="15.2635" class="st1"/>
				<text x="43.3" y="82.43" class="st2">CONFIG_DB</text>			</g>
		</g>
		<g id="shape1038-7" transform="translate(500.39,-18.5)">
			<title>Rounded Rectangle.1208</title>
			<desc>Orchagent</desc>
			<path d="M12.76 433.85 L114.8 433.85 A12.7557 12.7557 -180 0 0 127.56 421.09 L127.56 49.76 A12.7557 12.7557 -180 0 0
						 114.8 37 L12.76 37 A12.7557 12.7557 -180 0 0 0 49.76 L0 421.09 A12.7557 12.7557 -180 0 0 12.76 433.85 Z"
					class="st3"/>
			<text x="33.16" y="64.43" class="st2">ORCHAGENT</text>		</g>
		<g id="group1039-10" transform="translate(656.295,-18.5001)">
			<title>Can.1209</title>
			<desc>ASIC_DB</desc>
			<g id="shape1040-11">
				<title>Sheet.1040</title>
				<path d="M0 415.81 A63.7795 18.0387 -180 1 0 127.56 415.81 L127.56 55.04 L0 55.04 L0 415.81 Z" class="st1"/>
			</g>
			<g id="shape1039-13">
				<ellipse cx="63.7795" cy="55.0388" rx="63.7795" ry="18.0387" class="st1"/>
				<text x="43.79" y="238.43" class="st2">ASIC_DB</text>			</g>
		</g>
		<g id="shape1041-16" transform="translate(627.949,-209.839)">
			<title>Dynamic connector.1211</title>
			<path d="M8.68 426.76 L9.04 426.76 L19.31 426.76" class="st4"/>
		</g>
		<g id="shape1042-25" transform="translate(812.201,-18.5001)">
			<title>Rounded Rectangle.1212</title>
			<desc>SYNCD</desc>
			<path d="M12.76 433.85 L114.8 433.85 A12.7557 12.7557 -180 0 0 127.56 421.09 L127.56 49.76 A12.7557 12.7557 -180 0 0
						 114.8 37 L12.76 37 A12.7557 12.7557 -180 0 0 0 49.76 L0 421.09 A12.7557 12.7557 -180 0 0 12.76 433.85 Z"
					class="st3"/>
			<text x="47.19" y="238.43" class="st2">SYNCD</text>		</g>
		<g id="shape1043-28" transform="translate(783.854,-209.839)">
			<title>Dynamic connector.1213</title>
			<path d="M8.68 426.76 L9.04 426.76 L19.31 426.76" class="st4"/>
		</g>
		<g id="shape1044-35" transform="translate(968.106,-18.5)">
			<title>Rounded Rectangle.1214</title>
			<desc>ASIC</desc>
			<path d="M12.76 433.85 L114.8 433.85 A12.7557 12.7557 -180 0 0 127.56 421.09 L127.56 49.76 A12.7557 12.7557 -180 0 0
						 114.8 37 L12.76 37 A12.7557 12.7557 -180 0 0 0 49.76 L0 421.09 A12.7557 12.7557 -180 0 0 12.76 433.85 Z"
					class="st6"/>
			<text x="52.76" y="238.43" class="st2">ASIC</text>		</g>
		<g id="shape1045-38" transform="translate(939.76,-224.012)">
			<title>Dynamic connector.1215</title>
			<path d="M8.68 440.94 L9.04 440.94 L19.31 440.94" class="st4"/>
		</g>
		<g id="shape1046-45" transform="translate(514.563,-330.311)">
			<title>Rounded Rectangle.1216</title>
			<desc>switchorch</desc>
			<path d="M9.92 433.85 L89.29 433.85 A9.9211 9.9211 -180 0 0 99.21 423.93 L99.21 401.25 A9.9211 9.9211 -180 0 0 89.29
						 391.33 L9.92 391.33 A9.9211 9.9211 -180 0 0 -0 401.25 L0 423.93 A9.9211 9.9211 -180 0 0 9.92 433.85 Z"
					class="st7"/>
			<text x="26.02" y="415.59" class="st8">switchorch</text>		</g>
		<g id="shape1047-48" transform="translate(32.6734,-330.311)">
			<title>Rounded Rectangle.1229</title>
			<desc>SWITCH_TRIMMING</desc>
			<path d="M11.34 433.85 L102.05 433.85 A11.3384 11.3384 -180 0 0 113.39 422.51 L113.39 416.84 A11.3384 11.3384 -180 0
						 0 102.05 405.5 L11.34 405.5 A11.3384 11.3384 -180 0 0 0 416.84 L0 422.51 A11.3384 11.3384 -180 0 0 11.34
						 433.85 Z" class="st7"/>
			<text x="12.27" y="422.68" class="st8">SWITCH_TRIMMING</text>		</g>
		<g id="shape1048-51" transform="translate(146.059,-340.941)">
			<title>Dynamic connector.1230</title>
			<path d="M0 430.31 L358.03 423.42" class="st9"/>
		</g>
		<g id="shape1049-57" transform="translate(32.6734,-287.792)">
			<title>Rounded Rectangle.1231</title>
			<desc>ACL_TABLE_TYPE</desc>
			<path d="M11.34 433.85 L102.05 433.85 A11.3384 11.3384 -180 0 0 113.39 422.51 L113.39 416.84 A11.3384 11.3384 -180 0
						 0 102.05 405.5 L11.34 405.5 A11.3384 11.3384 -180 0 0 0 416.84 L0 422.51 A11.3384 11.3384 -180 0 0 11.34
						 433.85 Z" class="st7"/>
			<text x="19.56" y="422.68" class="st8">ACL_TABLE_TYPE</text>		</g>
		<g id="shape1050-60" transform="translate(514.563,-273.618)">
			<title>Rounded Rectangle.1232</title>
			<desc>aclorch</desc>
			<path d="M9.92 433.85 L89.29 433.85 A9.9211 9.9211 -180 0 0 99.21 423.93 L99.21 401.25 A9.9211 9.9211 -180 0 0 89.29
						 391.33 L9.92 391.33 A9.9211 9.9211 -180 0 0 -0 401.25 L0 423.93 A9.9211 9.9211 -180 0 0 9.92 433.85 Z"
					class="st7"/>
			<text x="33.73" y="415.59" class="st8">aclorch</text>		</g>
		<g id="shape1051-63" transform="translate(514.563,-216.925)">
			<title>Rounded Rectangle.1233</title>
			<desc>flexcounterorch</desc>
			<path d="M9.92 433.85 L89.29 433.85 A9.9211 9.9211 -180 0 0 99.21 423.93 L99.21 401.25 A9.9211 9.9211 -180 0 0 89.29
						 391.33 L9.92 391.33 A9.9211 9.9211 -180 0 0 -0 401.25 L0 423.93 A9.9211 9.9211 -180 0 0 9.92 433.85 Z"
					class="st7"/>
			<text x="15.17" y="415.59" class="st8">flexcounterorch</text>		</g>
		<g id="shape1052-66" transform="translate(32.6734,-202.752)">
			<title>Rounded Rectangle.1234</title>
			<desc>ACL_RULE</desc>
			<path d="M11.34 433.85 L102.05 433.85 A11.3384 11.3384 -180 0 0 113.39 422.51 L113.39 416.84 A11.3384 11.3384 -180 0
						 0 102.05 405.5 L11.34 405.5 A11.3384 11.3384 -180 0 0 0 416.84 L0 422.51 A11.3384 11.3384 -180 0 0 11.34
						 433.85 Z" class="st7"/>
			<text x="34.63" y="422.68" class="st8">ACL_RULE</text>		</g>
		<g id="shape1053-69" transform="translate(32.6734,-245.272)">
			<title>Rounded Rectangle.1235</title>
			<desc>ACL_TABLE</desc>
			<path d="M11.34 433.85 L102.05 433.85 A11.3384 11.3384 -180 0 0 113.39 422.51 L113.39 416.84 A11.3384 11.3384 -180 0
						 0 102.05 405.5 L11.34 405.5 A11.3384 11.3384 -180 0 0 0 416.84 L0 422.51 A11.3384 11.3384 -180 0 0 11.34
						 433.85 Z" class="st7"/>
			<text x="32.35" y="422.68" class="st8">ACL_TABLE</text>		</g>
		<g id="shape1054-72" transform="translate(146.059,-300.512)">
			<title>Dynamic connector.1236</title>
			<path d="M0 432.4 L360.93 421.45" class="st9"/>
		</g>
		<g id="shape1055-77" transform="translate(146.059,-259.445)">
			<title>Dynamic connector.1237</title>
			<path d="M0 433.85 L358.07 399.42" class="st9"/>
		</g>
		<g id="shape1056-82" transform="translate(146.059,-216.925)">
			<title>Dynamic connector.1238</title>
			<path d="M0 433.85 L361.06 375.91" class="st9"/>
		</g>
		<g id="shape1057-87" transform="translate(32.6732,-160.232)">
			<title>Rounded Rectangle.1239</title>
			<desc>FLEX_COUNTER_TABLE</desc>
			<path d="M11.34 433.85 L102.05 433.85 A11.3384 11.3384 -180 0 0 113.39 422.51 L113.39 416.84 A11.3384 11.3384 -180 0
						 0 102.05 405.5 L11.34 405.5 A11.3384 11.3384 -180 0 0 0 416.84 L0 422.51 A11.3384 11.3384 -180 0 0 11.34
						 433.85 Z" class="st7"/>
			<text x="6.49" y="422.68" class="st8">FLEX_COUNTER_TABLE</text>		</g>
		<g id="shape1058-90" transform="translate(146.059,-174.406)">
			<title>Dynamic connector.1240</title>
			<path d="M0 433.85 L358.18 371.86" class="st9"/>
		</g>
		<g id="shape1059-95" transform="translate(32.6732,-117.713)">
			<title>Rounded Rectangle.1241</title>
			<desc>BUFFER_PROFILE</desc>
			<path d="M11.34 433.85 L102.05 433.85 A11.3384 11.3384 -180 0 0 113.39 422.51 L113.39 416.84 A11.3384 11.3384 -180 0
						 0 102.05 405.5 L11.34 405.5 A11.3384 11.3384 -180 0 0 0 416.84 L0 422.51 A11.3384 11.3384 -180 0 0 11.34
						 433.85 Z" class="st7"/>
			<text x="19.7" y="422.68" class="st8">BUFFER_PROFILE</text>		</g>
		<g id="shape1060-98" transform="translate(188.579,-19.6992)">
			<title>Rounded Rectangle.1242</title>
			<desc>BUFFERMGRD</desc>
			<path d="M12.76 433.85 L114.8 433.85 A12.7557 12.7557 -180 0 0 127.56 421.09 L127.56 304.87 A12.7557 12.7557 -180 0 0
						 114.8 292.12 L12.76 292.12 A12.7557 12.7557 -180 0 0 -0 304.87 L0 421.09 A12.7557 12.7557 -180 0 0 12.76
						 433.85 Z" class="st3"/>
			<text x="30.54" y="311.98" class="st2">BUFFERMGRD</text>		</g>
		<g id="shape1061-101" transform="translate(202.752,-103.54)">
			<title>Rounded Rectangle.1243</title>
			<desc>buffermgr</desc>
			<path d="M9.92 433.85 L89.29 433.85 A9.9211 9.9211 -180 0 0 99.21 423.93 L99.21 415.43 A9.9211 9.9211 -180 0 0 89.29
						 405.5 L9.92 405.5 A9.9211 9.9211 -180 0 0 -0 415.43 L0 423.93 A9.9211 9.9211 -180 0 0 9.92 433.85 Z"
					class="st7"/>
			<text x="27.36" y="422.68" class="st8">buffermgr</text>		</g>
		<g id="shape1062-104" transform="translate(202.752,-61.0199)">
			<title>Rounded Rectangle.1244</title>
			<desc>buffermgrdyn</desc>
			<path d="M9.92 433.85 L89.29 433.85 A9.9211 9.9211 -180 0 0 99.21 423.93 L99.21 415.43 A9.9211 9.9211 -180 0 0 89.29
						 405.5 L9.92 405.5 A9.9211 9.9211 -180 0 0 -0 415.43 L0 423.93 A9.9211 9.9211 -180 0 0 9.92 433.85 Z"
					class="st7"/>
			<text x="19.17" y="422.68" class="st8">buffermgrdyn</text>		</g>
		<g id="group1063-107" transform="translate(344.484,-18.5001)">
			<title>Can.1245</title>
			<desc>APP_DB</desc>
			<g id="shape1064-108">
				<title>Sheet.1064</title>
				<path d="M0 419.68 A63.7795 14.1732 -180 0 0 127.56 419.68 L127.56 306.29 L0 306.29 L0 419.68 Z" class="st1"/>
			</g>
			<g id="shape1063-110">
				<ellipse cx="63.7795" cy="306.291" rx="63.7795" ry="14.1732" class="st1"/>
				<text x="45.15" y="335.98" class="st2">APP_DB</text>			</g>
		</g>
		<g id="shape1065-113" transform="translate(301.964,-117.713)">
			<title>Dynamic connector.1247</title>
			<path d="M0 433.85 L49.52 448.04" class="st9"/>
		</g>
		<g id="shape1066-118" transform="translate(358.657,-75.1931)">
			<title>Rounded Rectangle.1248</title>
			<desc>BUFFER_PROFILE</desc>
			<path d="M9.92 433.85 L89.29 433.85 A9.9211 9.9211 -180 0 0 99.21 423.93 L99.21 415.43 A9.9211 9.9211 -180 0 0 89.29
						 405.5 L9.92 405.5 A9.9211 9.9211 -180 0 0 0 415.43 L0 423.93 A9.9211 9.9211 -180 0 0 9.92 433.85 Z"
					class="st7"/>
			<text x="12.61" y="422.68" class="st8">BUFFER_PROFILE</text>		</g>
		<g id="shape1067-121" transform="translate(457.87,-89.3663)">
			<title>Dynamic connector.1249</title>
			<path d="M0 433.85 L51.2 350.65" class="st9"/>
		</g>
		<g id="shape1068-126" transform="translate(514.563,-160.232)">
			<title>Rounded Rectangle.1250</title>
			<desc>bufferorch</desc>
			<path d="M9.92 433.85 L89.29 433.85 A9.9211 9.9211 -180 0 0 99.21 423.93 L99.21 401.25 A9.9211 9.9211 -180 0 0 89.29
						 391.33 L9.92 391.33 A9.9211 9.9211 -180 0 0 -0 401.25 L0 423.93 A9.9211 9.9211 -180 0 0 9.92 433.85 Z"
					class="st7"/>
			<text x="26.55" y="415.59" class="st8">bufferorch</text>		</g>
		<g id="shape1069-129" transform="translate(142.738,-142.738)">
			<title>Dynamic connector.1255</title>
			<path d="M0 433.85 L50.34 454.84" class="st9"/>
		</g>
		<g id="shape1070-134" transform="translate(142.738,-121.034)">
			<title>Dynamic connector.1256</title>
			<path d="M0 433.85 L51.69 473.33" class="st9"/>
		</g>
		<g id="shape1071-139" transform="translate(301.964,-69.5595)">
			<title>Dynamic connector.1257</title>
			<path d="M0 428.22 L49.13 425.82" class="st9"/>
		</g>
	</g>
</svg>
