<svg version="1.1" xmlns="http://www.w3.org/2000/svg" xmlns:xlink="http://www.w3.org/1999/xlink" width="1017" height="1301"><desc>title%20Current%20Flow%0A%0Adatabase%20%22Config%20DB%22%20as%20cfg%20%23LightCyan%0Aparticipant%20%22PortSyncd%22%20as%20syncd%20%23LightCyan%0Adatabase%20%22App%20DB%22%20as%20app%20%23LightCyan%0Aparticipant%20%22PortsOrch%22%20as%20orch%20%23LightCyan%0Aparticipant%20%22SAI%22%20as%20sai%20%23LightCyan%0A%0Arbox%20over%20sai%23LightSteelBlue%3AParse%20SAI%20profile%20file%0Aloop%20%23Thistle%20for%20each%20port%0Anote%20over%20sai%23LightSteelBlue%3A%20Create%20Port%0Aend%20%0A%0Acfg--%3Esyncd%3ANew%20port%20in%20PORT%20table%0Asyncd-%3Eapp%3A%20Add%20new%20port%20to%20PORT%20table%0Aapp--%3Eorch%3A%20New%20port%20in%20PORT%20table%0A%0Aloop%20%23Thistle%20for%20each%20port%20in%20PORT%20table%0Aabox%20over%20orch%23LightSteelBlue%3A%20If%20port%20not%20created%20or%20mismatch%3A%0Aorch--%3E%3Esai%3A%20sai_port_api-%3Eremove_port()%0Anote%20over%20sai%23LightSteelBlue%3ARemove%20Port%0Aorch--%3E%3Esai%3A%20sai_port_api-%3Ecreate_port()%0Anote%20over%20sai%23LightSteelBlue%3ACreate%20Port%0Aabox%20over%20orch%23LightSteelBlue%3A%20end%20if%0A%0A%0Aorch-%3Esai%3A%20sai_hostif_api-%3Ecreate_hostif()%0Anote%20over%20sai%23LightSteelBlue%3ACreate%20Linux%20netdev%0A%0Arbox%20over%20orch%23LightSteelBlue%3A%20Init%20GB%2C%20config%20PG%2FQueue%2C%5Cnnotify%20SUBJECT_TYPE_PORT_CHANGE%0A%0Aorch-%3Esai%3Aset_port_attribute(AN)%0Aorch-%3Esai%3Aset_port_attribute(speed)%0Aorch-%3Esai%3Aset_port_attribute(MTU)%0Aorch-%3Esai%3A**.%20.%20.**%0Aend%0A%0A</desc><defs/><g><g/><g/><g/><g/><g/><g/><g/><g/><g/><g/><g/><g/><g/><g/><g/><g/><g/><g/><g/><g/><g/><g/><g/><g/><g><rect fill="white" stroke="none" x="0" y="0" width="1017" height="1301"/></g><g><text fill="black" stroke="none" font-family="sans-serif" font-size="16.5pt" font-style="normal" font-weight="normal" text-decoration="normal" x="445.9108311523014" y="24.50280495" text-anchor="start" dominant-baseline="alphabetic" xml:space="preserve">Current Flow</text></g><g><rect fill="rgb(247,242,247)" stroke="none" x="836.2474642966341" y="223.62893317699996" width="137.03437434664056" height="106.17882144999999"/><rect fill="rgb(247,242,247)" stroke="none" x="497.45796403341797" y="491.52626729699995" width="503.94841684618484" height="753.05287213"/></g><g><path fill="none" stroke="black" paint-order="fill stroke markers" d=" M 41.57489687705078 128.884754037 L 41.57489687705078 1301.7523509769999" stroke-miterlimit="10" stroke-width="1.3612669416666667" stroke-dasharray="12.565541,5.445067766666667"/><path fill="none" stroke="black" paint-order="fill stroke markers" d=" M 239.6737233121419 128.884754037 L 239.6737233121419 1301.7523509769999" stroke-miterlimit="10" stroke-width="1.3612669416666667" stroke-dasharray="12.565541,5.445067766666667"/><path fill="none" stroke="black" paint-order="fill stroke markers" d=" M 466.3122683751627 128.884754037 L 466.3122683751627 1301.7523509769999" stroke-miterlimit="10" stroke-width="1.3612669416666667" stroke-dasharray="12.565541,5.445067766666667"/><path fill="none" stroke="black" paint-order="fill stroke markers" d=" M 664.4110948102539 128.884754037 L 664.4110948102539 1301.7523509769999" stroke-miterlimit="10" stroke-width="1.3612669416666667" stroke-dasharray="12.565541,5.445067766666667"/><path fill="none" stroke="black" paint-order="fill stroke markers" d=" M 904.7646514699544 128.884754037 L 904.7646514699544 1301.7523509769999" stroke-miterlimit="10" stroke-width="1.3612669416666667" stroke-dasharray="12.565541,5.445067766666667"/></g><g><g><path fill="LightCyan" stroke="black" paint-order="fill stroke markers" d=" M 17.725500059050784 96.867755569 L 17.725500059050784 62.563828639 L 65.42429369505078 62.563828639 L 65.42429369505078 96.867755569" stroke-miterlimit="10" stroke-width="2.7769845610000004" stroke-dasharray=""/><path fill="LightCyan" stroke="black" paint-order="fill stroke markers" d=" M 65.42429369505078 61.3713587981 L 65.4231012351471 61.47916934301662 L 65.41952397468104 61.58696910696859 L 65.41356227137568 61.69474731006935 L 65.40521672139637 61.8024931745884 L 65.39448815929116 61.91019592602908 L 65.38137765790732 62.017844794206 L 65.36588652828407 62.125429014322044 L 65.34801631952145 62.232937828044854 L 65.32776881862544 62.34036048458265 L 65.30514605032928 62.44768624175929 L 65.28015027689092 62.55490436708851 L 65.2527839978669 62.66200413884712 L 65.2230499498623 62.76897484714718 L 65.19095110625716 62.87580579500701 L 65.15649067690906 62.982486299420856 L 65.11967210783224 63.08900569242717 L 65.08049908085293 63.19535332217542 L 65.03897551324118 63.30151855399125 L 64.99510555731914 63.40749077143996 L 64.94889360004584 63.5132593773881 L 64.90034426257851 63.618813795063225 L 64.84946239981045 63.724143469111524 L 64.79625309988549 63.82923786665337 L 64.74072168368934 63.93408647833659 L 64.6828737043173 64.03867881938739 L 64.62271494651912 64.1430044306588 L 64.56025142612046 64.24705287967667 L 64.49548938942128 64.35081376168277 L 64.4284353125713 64.45427670067541 L 64.3590959009223 64.55743135044686 L 64.28747808835769 64.66026739561813 L 64.21358903659905 64.7627745526704 L 64.13743613448996 64.86494257097338 L 64.05902699725718 64.96676123381039 L 63.97836946574908 65.06822035939997 L 63.89547160565163 65.16930980191414 L 63.810341706681726 65.27001945249287 L 63.72298828175833 65.37033924025505 L 63.63342006615115 65.47025913330548 L 63.5416460166071 65.56976913973813 L 63.44767531045466 65.66885930863528 L 63.35151734468614 65.7675197310626 L 63.253181735017975 65.86574054106009 L 63.15267831492918 65.96351191662859 L 63.05001713467803 66.06082408071202 L 62.945208460296996 66.15766730217506 L 62.83826277256617 66.25403189677627 L 62.7291907659652 66.3499082281365 L 62.61800334760385 66.4452867087025 L 62.50471163613132 66.54015780070569 L 62.38932696062434 66.63451201711595 L 62.27186085945429 66.72833992259025 L 62.15232507913342 66.82163213441623 L 62.030731573140145 66.91437932345046 L 61.90709250072372 67.00657221505134 L 61.78142022568838 67.0982015900065 L 61.653727315156885 67.18925828545483 L 61.52402653831389 67.27973319580266 L 61.392330865128976 67.36961727363435 L 61.25865346505974 67.45890153061701 L 61.123007705734764 67.54757703839935 L 60.98540715161697 67.6356349295045 L 60.84586556264708 67.72306639821673 L 60.70439689286772 67.80986270146201 L 60.56101528902798 67.89601515968236 L 60.415735089168756 67.98151515770375 L 60.26857082118896 68.06635414559763 L 60.11953720139277 68.15052363953589 L 59.96864913301795 68.2340152226393 L 59.81592170474561 68.31682054581911 L 59.66137018919132 68.39893132861202 L 59.50501004137781 68.48033936000816 L 59.34685689718958 68.56103649927225 L 59.18692657180925 68.6410146767576 L 59.0252350581361 68.72026589471311 L 58.86179852518673 68.79878222808303 L 58.696633316478255 68.87655582529945 L 58.529755948393905 68.95357890906746 L 58.36118310853142 69.02984377714286 L 58.190931654034316 69.10534280310242 L 58.019018609906155 69.18006843710643 L 57.8454611673081 69.25401320665378 L 57.67027668183978 69.32716971732913 L 57.493482671803754 69.39953065354239 L 57.315096816453696 69.47108877926021 L 57.13513695422649 69.54183693872967 L 56.953621080958385 69.61176805719379 L 56.77056734808545 69.68087514159897 L 56.585994060828426 69.74915128129439 L 56.39991967636224 69.81658964872294 L 56.21236280197026 69.88318350010411 L 56.02334219318364 69.94892617610824 L 55.83287675190573 70.01381110252252 L 55.64098552452195 70.07783179090838 L 55.44768769999512 70.14098183925032 L 55.25300260794662 70.20325493259614 L 55.056949716723416 70.26464484368842 L 54.85954863145125 70.32514543358717 L 54.66081909207415 70.38475065228383 L 54.460780971380444 70.44345453930622 L 54.25945427301551 70.50125122431453 L 54.0568591294814 70.55813492768844 L 53.85301580012366 70.61409996110503 L 53.647944669105335 70.66914072810756 L 53.441666243368644 70.72325172466522 L 53.23420115058427 70.77642753972344 L 53.02557013708859 70.82866285574504 L 52.81579406580911 70.87995244924193 L 52.604893914178135 70.9302911912975 L 52.392890772035074 70.9796740480795 L 52.179805839517485 71.0280960813434 L 51.96566042494104 71.07555244892625 L 51.75047594266875 71.12203840523081 L 51.53427391096952 71.16754930170019 L 51.31707594986635 71.21208058728268 L 51.09890377897435 71.25562780888683 L 50.87977921532881 71.29818661182675 L 50.659724171203486 71.33975274025764 L 50.4387606519194 71.38032203760127 L 50.21691075364437 71.41989044696174 L 49.994196661183324 71.45845401153106 L 49.77064064575993 71.49600887498494 L 49.54626506278943 71.5325512818683 L 49.32109234964314 71.56807757797091 L 49.095145023404726 71.60258421069277 L 48.868445678618535 71.63606772939937 L 48.64101698503012 71.66852478576672 L 48.41288168531933 71.69995213411627 L 48.184062592826 71.73034663173934 L 47.954582589268725 71.7597052392115 L 47.72446462245661 71.78802502069648 L 47.49373170399458 71.81530314423973 L 47.26240690698219 71.84153688205163 L 47.0305133637064 71.86672361078024 L 46.79807426332827 71.8908608117737 L 46.565112849564144 71.913946071332 L 46.331652418361266 71.93597708094846 L 46.097716315568206 71.95695163754044 L 45.8633279346003 71.97686764366978 L 45.628510714100315 71.99572310775245 L 45.39328813559463 72.01351614425778 L 45.15768372114507 72.03024497389691 L 44.92172103099675 72.04590792380084 L 44.685423661222046 72.06050342768764 L 44.44881524136102 72.07403002601906 L 44.21191943205849 72.08648636614654 L 43.97475992269796 72.09787120244648 L 43.737360429032755 72.1081833964447 L 43.499744690814396 72.11742191693043 L 43.26193646941869 72.12558584005929 L 43.023959545469616 72.13267434944576 L 42.78583771646125 72.13868673624485 L 42.54759479437805 72.14362239922286 L 42.309254603313704 72.14748084481762 L 42.070840977088686 72.1502616871878 L 41.832377756866954 72.15196464825142 L 41.59388878877181 72.15258955771385 L 41.355397921501314 72.15213635308466 L 41.11692900394346 72.15060507968391 L 40.87850588279128 72.14799589063767 L 40.6401524001582 72.1443090468627 L 40.40189239119386 72.13954491704027 L 40.1637496817006 72.1337039775794 L 39.92574808575093 72.12678681256918 L 39.6879114033061 72.11879411372033 L 39.45026341783616 72.10972668029609 L 39.21282789394163 72.09958541903224 L 38.975628574977016 72.08837134404646 L 38.73868918067656 72.07608557673689 L 38.502033404782246 72.06272934567005 L 38.265684912674445 72.04830398645788 L 38.02966733900542 72.0328109416243 L 37.794004285335845 72.01625176046089 L 37.55871931777472 71.99862809887196 L 37.3238359646227 71.97994171920898 L 37.0893777140194 71.96019449009434 L 36.85536801159448 71.9393883862345 L 36.62183025812317 71.91752548822251 L 36.38878780718622 71.89460798232996 L 36.15626396283451 71.87063816028832 L 35.9242819772587 71.84561841905983 L 35.69286504846405 71.81955126059778 L 35.462036317950584 71.79243929159627 L 35.23181886839899 71.7642852232296 L 35.00223572136238 71.73509187088118 L 34.77330983496414 71.7048621538619 L 34.54506410160214 71.67359909511825 L 34.31752134565951 71.64130582093009 L 34.09070432122222 71.6079855605979 L 33.864635709803714 71.57364164611994 L 33.639338118076736 71.53827751185906 L 33.41483407561271 71.50189669419922 L 33.191146032628794 71.46450283119185 L 32.96829635774289 71.42609966219209 L 32.74630733573677 71.38669102748484 L 32.52520116532765 71.34628086790075 L 32.30499995694832 71.30487322442208 L 32.085725730536105 71.26247223777868 L 31.867400413330927 71.21908214803388 L 31.65004583768257 71.17470729416048 L 31.433683738867472 71.12935211360693 L 31.21833575291521 71.08302114185344 L 31.004023414444916 71.0357190119586 L 30.790768154511856 70.987450454096 L 30.578591298464303 70.93822029508118 L 30.367514063811058 70.88803345788901 L 30.157557558099676 70.8368949611614 L 29.948742776805773 70.7848099187054 L 29.741090601233466 70.73178353898187 L 29.534621796427263 70.67782112458457 L 29.329357009095595 70.62292807170999 L 29.125316765546145 70.56710986961765 L 28.922521469633228 70.51037210008127 L 28.720991400717438 70.4527204368305 L 28.520746711637734 70.39416064498364 L 28.321807426696147 70.33469858047107 L 28.124193439655393 70.27434018944969 L 27.927924511749495 70.2130915077083 L 27.733020269707687 70.15095866006402 L 27.539500203791754 70.08794785974987 L 27.347383665847023 70.02406540779336 L 27.15668986736719 69.95931769238642 L 26.967437877573193 69.89371118824668 L 26.779646621506302 69.82725245596986 L 26.59333487813563 69.7599481413738 L 26.408521278480258 69.69180497483389 L 26.22522430374614 69.62282977060998 L 26.043462283478 69.55302942616503 L 25.863253393726396 69.4824109214753 L 25.684615655230132 69.41098131833243 L 25.507566931614196 69.3387477596372 L 25.332124927603406 69.26571746868528 L 25.15830718725196 69.19189774844492 L 24.98613109218905 69.1172959808266 L 24.815613859880703 69.04191962594494 L 24.646772541908046 68.96577622137262 L 24.479624022262183 68.88887338138663 L 24.314185015655784 68.81121879620689 L 24.150472065851645 68.73282023122718 L 23.988501544008322 68.6536855262387 L 23.82828964704302 68.573822594646 L 23.669852396011933 68.49323942267567 L 23.513205634508125 68.41194406857777 L 23.358365027077216 68.32994466181995 L 23.205346057650907 68.24724940227456 L 23.054164027998635 68.16386655939866 L 22.90483405619737 68.07980447140702 L 22.75737107511986 67.99507154443839 L 22.611789830941323 67.90967625171488 L 22.46810488166486 67.8236271326946 L 22.326330595665663 67.73693279221771 L 22.186481150254185 67.64960189964606 L 22.048570530258427 67.56164318799608 L 21.912612526625466 67.47306545306569 L 21.778620735042363 67.38387755255452 L 21.64660855457662 67.29408840517834 L 21.516589186336272 67.20370698977703 L 21.388575632149795 67.11274234441683 L 21.262580693265928 67.02120356548647 L 21.138616969073567 66.92909980678756 L 21.01669685584183 66.83644027861922 L 20.896832545480432 66.74323424685704 L 20.779036024320533 66.64949103202653 L 20.663319071916078 66.55522000837107 L 20.54969325986588 66.46043060291444 L 20.43816995065646 66.3651322945182 L 20.32876029652579 66.2693346129338 L 20.221475238348127 66.17304713784955 L 20.11632550453987 66.07627949793272 L 20.013321609986782 65.97904136986665 L 19.91247385499248 65.88134247738313 L 19.813792324248425 65.78319259028999 L 19.717286885825455 65.68460152349414 L 19.622967190186998 65.58557913602012 L 19.53084266922401 65.48613533002413 L 19.44092253531182 65.38628004980393 L 19.35321578038889 65.2860232808043 L 19.26773117505762 65.18537504861862 L 19.184477267707305 65.08434541798623 L 19.103462383659302 64.982944491786 L 19.024694624334508 64.88118241002603 L 18.94818186644321 64.77906934882972 L 18.87393176119744 64.67661551941809 L 18.80195173354585 64.5738311670887 L 18.732248981431216 64.47072657019112 L 18.66483047507067 64.36731203909913 L 18.599702956258664 64.26359791517966 L 18.536872937692802 64.15959456975868 L 18.47634670232259 64.05531240308405 L 18.418130302721124 63.95076184328555 L 18.362229560479847 63.84595334533201 L 18.308650065626406 63.74089738998592 L 18.257397176065627 63.63560448275524 L 18.208476017043765 63.530085152842965 L 18.16189148063595 63.42434995209415 L 18.117648225257003 63.318409453940745 L 18.075750675195593 63.2122742523443 L 18.036203020171815 63.105954960736526 L 17.99900921491821 62.99946221095797 L 17.964172978784312 62.892806652194885 L 17.931697795364702 62.78599894991426 L 17.90158691215066 62.679049784797314 L 17.873843340205415 62.57196985167143 L 17.84846985386304 62.464769858440704 L 17.825468990451032 62.357460525015114 L 17.80484305003656 62.25005258223858 L 17.786594095196474 62.14255677081588 L 17.770723950811053 62.03498384023857 L 17.757234203881513 61.92734454771006 L 17.7461262033713 61.81964965706991 L 17.737401060071218 61.71190993771744 L 17.73105964648832 61.6041361635348 L 17.727102596758677 61.49633911180959 L 17.725530306583966 61.38852956215717 L 17.726342933191898 61.28071829544265 L 17.72954039532049 61.172916092702856 L 17.735122373226186 61.06513373406823 L 17.743088308715855 60.957381997684834 L 17.753437405202583 60.84967165863649 L 17.766168627785344 60.74201348786736 L 17.78128070335249 60.6344182511048 L 17.79877212070906 60.526896707782825 L 17.81864113072789 60.41945960996616 L 17.840885746524542 60.31211770127506 L 17.86550374365597 60.204881715810956 L 17.892492660342974 60.097762377083015 L 17.92184979771638 59.99077039693585 L 17.953572220086905 59.88391647447831 L 17.987656755238763 59.7772112950136 L 18.02409999474683 59.67066552897075 L 18.06289829431753 59.56428983083758 L 18.104047774153237 59.45809483809524 L 18.147544319340255 59.35209117015452 L 18.19338358026032 59.24628942729389 L 18.241560973025532 59.14070018959944 L 18.292071679936765 59.03533401590697 L 18.344910649965417 58.93020144274604 L 18.400072599258525 58.82531298328635 L 18.45755201166712 58.72067912628645 L 18.51734313929786 58.61631033504484 L 18.579440003087814 58.51221704635366 L 18.64383639340235 58.40840966945505 L 18.710525870656095 58.30489858500019 L 18.7795017659569 58.20169414401126 L 18.850757181772718 58.098806666846365 L 18.92428499262134 57.996246442167475 L 19.00007784578296 57.894023725911595 L 19.07812816203542 57.79214874026516 L 19.158428136412137 57.69063167264185 L 19.24096973898259 57.58948267466382 L 19.325744715655304 57.488711861146584 L 19.41274458900326 57.38832930908751 L 19.50196065911162 57.28834505665816 L 19.593384004447724 57.18876910220045 L 19.68700548275322 57.08961140322686 L 19.782815731958298 56.99088187542464 L 19.880805171117878 56.8925903916643 L 19.980964001369703 56.794746781012314 L 20.083282206914213 56.6973608277482 L 20.18774955601611 56.60044227038614 L 20.294355602027554 56.5040008007011 L 20.403089684432775 56.40804606275968 L 20.513940929914142 56.31258765195572 L 20.626898253439485 56.217635114050736 L 20.74195035937058 56.12319794421941 L 20.859085742592715 56.029285586100016 L 20.978292689665174 55.93590743085011 L 21.099559279992594 55.8430728162074 L 21.222873387016996 55.75079102555599 L 21.348222679430435 55.65907128699804 L 21.475594622408135 55.56792277243099 L 21.604976478861932 55.47735459663031 L 21.736355310714007 55.387375816338135 L 21.86971798019065 55.29799542935749 L 22.005051151136048 55.20922237365261 L 22.14234129034589 55.12106552645507 L 22.281574668920662 55.033533703376136 L 22.422737363638532 54.94663565752517 L 22.565815258347662 54.86038007863435 L 22.710794045377813 54.77477559218968 L 22.857659226971098 54.689830758568455 L 23.006396116731747 54.60555407218327 L 23.156989841094727 54.52195396063252 L 23.3094253408131 54.439038783857704 L 23.46368737246392 54.35681683330739 L 23.619760509972572 54.27529633110813 L 23.777629146155366 54.19448542924221 L 23.93727749428025 54.114392208732454 L 24.09868958964544 54.03502467883419 L 24.26184929117591 53.95639077623426 L 24.42674028303748 53.878498364257396 L 24.593346076268368 53.801355232079885 L 24.761650010428088 53.72496909395066 L 24.931635255263476 53.649347588419886 L 25.103284812391706 53.57449827757509 L 25.276581517000107 53.50042864628498 L 25.451508039562626 53.42714610145097 L 25.62804688757278 53.35465797126647 L 25.806180407292885 53.28297150448409 L 25.985890785519416 53.21209386969077 L 26.16716005136431 53.14203215459092 L 26.349970078052024 53.072793365297684 L 26.534302584732245 53.00438442563227 L 26.72013913830791 52.93681217643165 L 26.907461155278526 52.870083374864436 L 27.096249903598498 52.80420469375517 L 27.286486504550314 52.739182720917064 L 27.47815193463241 52.67502395849323 L 27.6712270274615 52.611734822306424 L 27.8656924756892 52.54932164121754 L 28.061528832932733 52.48779065649267 L 28.258716515719577 52.427148021179015 L 28.457235805445773 52.36739979948956 L 28.657066850347782 52.3085519661967 L 28.85818966748764 52.25061040603471 L 29.060584144751232 52.19358091311133 L 29.264230042859495 52.13746919032833 L 29.469106997392323 52.08228084881122 L 29.675194520824995 52.02802140734818 L 29.882472004576897 51.974696291838114 L 30.0909187210724 51.922310834748146 L 30.300513825813542 51.87087027458034 L 30.511236359464526 51.82037975534783 L 30.72306524994758 51.770844326060484 L 30.93597931455018 51.72226894021993 L 31.149957262043298 51.674658455324284 L 31.36497769481049 51.62801763238236 L 31.581019110987675 51.58235113543759 L 31.79805990661326 51.5376635311016 L 32.01607837778855 51.49395928809759 L 32.23505272284812 51.451242776813444 L 32.45496104453992 51.409518268864694 L 32.675781352215054 51.368789936667355 L 32.89749156402677 51.32906185302072 L 33.12006950913864 51.29033799070003 L 33.34349292994163 51.252622222059266 L 33.56773948427986 51.21591831864385 L 33.79278674768475 51.18022995081354 L 34.01861221561751 51.14556068737539 L 34.24519330571953 51.11191399522683 L 34.47250736007062 51.079293239009054 L 34.70053164745477 51.047701680770494 L 34.929243365633255 51.01714247964064 L 35.15861964362486 50.98761869151416 L 35.38863754399292 50.95913326874524 L 35.619274065139095 50.93168905985244 L 35.85050614360346 50.90528880923376 L 36.08231065637086 50.87993515689227 L 36.31466442318318 50.85563063817208 L 36.547544208857374 50.83237768350481 L 36.78092672560895 50.81017861816654 L 37.014788635380704 50.78903566204531 L 37.24910655217655 50.768950929419105 L 37.48385704440007 50.749926428744466 L 37.71901663719766 50.7319640624556 L 37.95456181480601 50.71506562677416 L 38.19046902290366 50.69923281152964 L 38.426714670966376 50.684467199990365 L 38.66327513462622 50.6707702687052 L 38.90012675803396 50.658143387355835 L 39.13724585622464 50.64658781861989 L 39.37460871748603 50.63610471804463 L 39.61219160572981 50.62669513393135 L 39.84997076286514 50.61836000723063 L 40.08792241117446 50.61110017144819 L 40.32602275569122 50.604916352561574 L 40.564247986579396 50.5998091689475 L 40.80257428151441 50.595779131320086 L 41.04097780806538 50.592826642679725 L 41.279434726078314 50.59095199827282 L 41.51792119006013 50.59015538556226 L 41.75641335156317 50.59043688420866 L 41.994887361570015 50.59179646606236 L 42.2333193728784 50.594233995166334 L 42.471685542485886 50.59774922776969 L 42.70996203397415 50.6023418123521 L 42.94812501989261 50.60801128965893 L 43.18615068414113 50.61475709274719 L 43.424015224351656 50.622578547042174 L 43.661694854268376 50.63147487040497 L 43.89916580612637 50.64144517321068 L 44.13640433302834 50.6524884584373 L 44.37338671131929 50.66460362176552 L 44.610089242958885 50.67778945168912 L 44.84648825789121 50.69204462963607 L 45.082560116411756 50.70736773010048 L 45.31828121153142 50.72375722078505 L 45.55362797133711 50.74121146275439 L 45.78857686134897 50.759728710598836 L 46.02310438687378 50.77930711260903 L 46.257187095354446 50.79994471096109 L 46.49080157871518 50.821639441912396 L 46.72392447570231 50.844389136007905 L 46.956532474220424 50.86819151829718 L 47.188602313663495 50.893044208561825 L 47.420110787240986 50.91894472155353 L 47.65103474429845 50.94589046724256 L 47.88135109263262 50.973878751076825 L 48.11103680080059 51.00290677425126 L 48.340068900422956 51.03297163398772 L 48.5684244884806 51.064070323825305 L 48.79608072960503 51.09619973392093 L 49.02301485836184 51.129356651360375 L 49.24920418152726 51.16353776047952 L 49.47462608035746 51.198739643195935 L 49.69925801285042 51.23495877935069 L 49.923077516000085 51.27219154706035 L 50.14606220804264 51.31043422307917 L 50.368189790694714 51.349682983171405 L 50.58943805138314 51.38993390249377 L 50.809784865466234 51.43118295598788 L 51.02920819844619 51.47342601878273 L 51.24768610817258 51.51665886660727 L 51.46519674703649 51.56087717621274 L 51.68171836415529 51.60607652580503 L 51.8972293075477 51.65225239548683 L 52.11170802629897 51.69940016770967 L 52.32513307271597 51.74751512773561 L 52.537483104471896 51.79659246410874 L 52.748736886740545 51.84662726913632 L 52.95887329431972 51.89761453937955 L 53.167871313743795 51.949549176153894 L 53.37571004538498 52.00242598603895 L 53.5823687055433 52.0562396813978 L 53.78782662852497 52.11098488090573 L 53.9920632687089 52.16665611008844 L 54.19505820260126 52.22324780186939 L 54.39679113087784 52.28075429712656 L 54.59724188041391 52.339169845258354 L 54.79639040630156 52.398488604758626 L 54.994216793854164 52.458704643800864 L 55.19070126059782 52.51981194083135 L 55.385824158249584 52.581804385171296 L 55.579565974682296 52.64467577762793 L 55.77190733587576 52.708419831114405 L 55.96282900785415 52.77303017127848 L 56.152311898609355 52.83850033713999 L 56.340337060010214 52.90482378173691 L 56.526885689697274 52.97199387278003 L 56.71193913296301 53.040003893316246 L 56.89547888461732 53.108847042400164 L 57.077486590837985 53.17851643577425 L 57.25794405100605 53.24900510655722 L 57.43683321952588 53.32030600594074 L 57.6141362076297 53.39241200389429 L 57.78983528516645 53.465315889878156 L 57.9639128823748 53.5390103735645 L 58.13635159164007 53.61348808556637 L 58.307134169235056 53.68874157817461 L 58.47624353704431 53.76476332610268 L 58.643662784271974 53.84154572723915 L 58.809375169132835 53.91908110340788 L 58.97336412052651 53.99736170113587 L 59.13561323969451 54.07637969242858 L 59.29610630186012 54.156127175552726 L 59.45482725785089 54.236596175826456 L 59.611760235703464 54.3177786464168 L 59.76688954225084 54.39966646914434 L 59.92019966469164 54.48225145529506 L 60.07167527214138 54.56552534643915 L 60.221301217165546 54.6494798152569 L 60.36906253729431 54.73410646637139 L 60.514944456518805 54.81939683718802 L 60.65893238676867 54.9053423987408 L 60.80101192937088 54.99193455654518 L 60.94116887648957 55.079164651457546 L 61.079389212546815 55.16702396054111 L 61.215659115624206 55.25550369793815 L 61.34996495884498 55.344595015748695 L 61.48229331173674 55.43428900491518 L 61.61263094157448 55.52457669611344 L 61.74096481470383 55.615449060649595 L 61.86728209784441 55.706897011362926 L 61.99157015937317 55.79891140353456 L 62.11381657058754 55.891483035801954 L 62.234009106948264 55.98460265107904 L 62.352135749301866 56.07826093748187 L 62.46818468508256 56.17244852925987 L 62.58214430949346 56.26715600773234 L 62.69400322666709 56.36237390223035 L 62.80375025080497 56.45809269104382 L 62.911374407296115 56.55430280237361 L 63.01686493381458 56.65099461528878 L 63.12021128139561 56.74815846068861 L 63.22140311549059 56.84578462226952 L 63.3204303170004 56.943863337496715 L 63.41728298328744 57.0423847985804 L 63.51195142916579 57.14133915345658 L 63.60442618786975 57.240716506772216 L 63.6946980120005 57.34050692087479 L 63.78275787445086 57.44070041680606 L 63.86859696930797 57.54128697529992 L 63.95220671273388 57.64225653778434 L 64.03357874382391 57.74359900738722 L 64.11270492544278 57.84530424994605 L 64.18957734503824 57.94736209502132 L 64.26418831543242 58.04976233691358 L 64.33653037559043 58.15249473568397 L 64.40659629136657 58.25554901817823 L 64.4743790562276 58.35891487905398 L 64.53987189195358 58.46258198181127 L 64.60306824931547 58.566539959826216 L 64.66396180873022 58.67077841738765 L 64.72254648089262 58.77528693073668 L 64.77881640738428 58.88005504910905 L 64.83276596125945 58.985072295780256 L 64.88438974760768 59.09032816911312 L 64.93368260409338 59.19581214360803 L 64.98063960147195 59.301513670955444 L 65.02525604408282 59.4074221810907 L 65.06752747031886 59.513527083251056 L 65.10744965307273 59.619817767034704 L 65.14501860015937 59.72628360346185 L 65.18023055471542 59.832913946037564 L 65.21308199557473 59.939698131816456 L 65.24356963762062 60.046625482468926 L 65.27169043211428 60.153685305349015 L 65.29744156699971 60.26086689456366 L 65.32082046718484 60.36815953204325 L 65.34182479479918 60.47555248861345 L 65.36045244942744 60.5830350250681 L 65.3767015683197 60.69059639324311 L 65.3905705265776 60.79822583709131 L 65.40205793731688 60.905912593758 L 65.41116265180604 61.01364589465726 L 65.4178837595812 61.12141496654876 L 65.42222058853721 61.22920903261514 L 65.42417270499476 61.337017313539604 M 65.42429369505078 95.6752857281 L 65.4231012351471 95.78309627301661 L 65.41952397468104 95.89089603696858 L 65.41356227137568 95.99867424006935 L 65.40521672139637 96.1064201045884 L 65.39448815929116 96.21412285602908 L 65.38137765790732 96.321771724206 L 65.36588652828407 96.42935594432204 L 65.34801631952145 96.53686475804484 L 65.32776881862544 96.64428741458265 L 65.30514605032928 96.75161317175929 L 65.28015027689092 96.85883129708851 L 65.2527839978669 96.96593106884711 L 65.2230499498623 97.07290177714718 L 65.19095110625716 97.17973272500701 L 65.15649067690906 97.28641322942086 L 65.11967210783224 97.39293262242717 L 65.08049908085293 97.49928025217542 L 65.03897551324118 97.60544548399125 L 64.99510555731914 97.71141770143996 L 64.94889360004584 97.8171863073881 L 64.90034426257851 97.92274072506322 L 64.84946239981045 98.02807039911151 L 64.79625309988549 98.13316479665336 L 64.74072168368934 98.23801340833658 L 64.6828737043173 98.34260574938737 L 64.62271494651912 98.4469313606588 L 64.56025142612046 98.55097980967666 L 64.49548938942128 98.65474069168278 L 64.4284353125713 98.7582036306754 L 64.3590959009223 98.86135828044685 L 64.28747808835769 98.96419432561812 L 64.21358903659905 99.0667014826704 L 64.13743613448996 99.16886950097337 L 64.05902699725718 99.27068816381038 L 63.97836946574908 99.37214728939998 L 63.89547160565163 99.47323673191414 L 63.810341706681726 99.57394638249288 L 63.72298828175833 99.67426617025505 L 63.63342006615115 99.77418606330548 L 63.5416460166071 99.87369606973812 L 63.44767531045466 99.97278623863527 L 63.35151734468614 100.0714466610626 L 63.253181735017975 100.1696674710601 L 63.15267831492918 100.2674388466286 L 63.05001713467803 100.36475101071201 L 62.945208460296996 100.46159423217506 L 62.83826277256617 100.55795882677627 L 62.7291907659652 100.65383515813649 L 62.61800334760385 100.74921363870249 L 62.50471163613132 100.84408473070569 L 62.38932696062434 100.93843894711594 L 62.27186085945429 101.03226685259024 L 62.15232507913342 101.12555906441622 L 62.030731573140145 101.21830625345046 L 61.90709250072372 101.31049914505132 L 61.78142022568838 101.4021285200065 L 61.653727315156885 101.49318521545483 L 61.52402653831389 101.58366012580265 L 61.392330865128976 101.67354420363434 L 61.25865346505974 101.762828460617 L 61.123007705734764 101.85150396839936 L 60.98540715161697 101.93956185950451 L 60.84586556264708 102.02699332821673 L 60.70439689286772 102.11378963146201 L 60.56101528902798 102.19994208968237 L 60.415735089168756 102.28544208770374 L 60.26857082118896 102.37028107559762 L 60.11953720139277 102.45445056953588 L 59.96864913301795 102.53794215263929 L 59.81592170474561 102.6207474758191 L 59.66137018919132 102.70285825861201 L 59.50501004137781 102.78426629000816 L 59.34685689718958 102.86496342927225 L 59.18692657180925 102.9449416067576 L 59.0252350581361 103.02419282471311 L 58.86179852518673 103.10270915808303 L 58.696633316478255 103.18048275529944 L 58.529755948393905 103.25750583906745 L 58.36118310853142 103.33377070714286 L 58.190931654034316 103.4092697331024 L 58.019018609906155 103.48399536710642 L 57.8454611673081 103.55794013665377 L 57.67027668183978 103.63109664732913 L 57.493482671803754 103.70345758354237 L 57.315096816453696 103.7750157092602 L 57.13513695422649 103.84576386872968 L 56.953621080958385 103.91569498719377 L 56.77056734808545 103.98480207159896 L 56.585994060828426 104.05307821129438 L 56.39991967636224 104.12051657872294 L 56.21236280197026 104.1871104301041 L 56.02334219318364 104.25285310610823 L 55.83287675190573 104.31773803252251 L 55.64098552452195 104.38175872090837 L 55.44768769999512 104.44490876925032 L 55.25300260794662 104.50718186259614 L 55.056949716723416 104.5685717736884 L 54.85954863145125 104.62907236358716 L 54.66081909207415 104.68867758228383 L 54.460780971380444 104.7473814693062 L 54.25945427301551 104.80517815431453 L 54.0568591294814 104.86206185768845 L 53.85301580012366 104.91802689110501 L 53.647944669105335 104.97306765810755 L 53.441666243368644 105.02717865466522 L 53.23420115058427 105.08035446972343 L 53.02557013708859 105.13258978574503 L 52.81579406580911 105.18387937924192 L 52.604893914178135 105.23421812129749 L 52.392890772035074 105.28360097807949 L 52.179805839517485 105.33202301134341 L 51.96566042494104 105.37947937892625 L 51.75047594266875 105.4259653352308 L 51.53427391096952 105.4714762317002 L 51.31707594986635 105.51600751728267 L 51.09890377897435 105.55955473888682 L 50.87977921532881 105.60211354182675 L 50.659724171203486 105.64367967025764 L 50.4387606519194 105.68424896760128 L 50.21691075364437 105.72381737696173 L 49.994196661183324 105.76238094153106 L 49.77064064575993 105.79993580498493 L 49.54626506278943 105.83647821186828 L 49.32109234964314 105.8720045079709 L 49.095145023404726 105.90651114069276 L 48.868445678618535 105.93999465939936 L 48.64101698503012 105.97245171576672 L 48.41288168531933 106.00387906411626 L 48.184062592826 106.03427356173933 L 47.954582589268725 106.0636321692115 L 47.72446462245661 106.09195195069648 L 47.49373170399458 106.11923007423972 L 47.26240690698219 106.14546381205162 L 47.0305133637064 106.17065054078024 L 46.79807426332827 106.1947877417737 L 46.565112849564144 106.21787300133201 L 46.331652418361266 106.23990401094846 L 46.097716315568206 106.26087856754044 L 45.8633279346003 106.28079457366978 L 45.628510714100315 106.29965003775246 L 45.39328813559463 106.31744307425777 L 45.15768372114507 106.3341719038969 L 44.92172103099675 106.34983485380084 L 44.685423661222046 106.36443035768762 L 44.44881524136102 106.37795695601905 L 44.21191943205849 106.39041329614655 L 43.97475992269796 106.40179813244647 L 43.737360429032755 106.4121103264447 L 43.499744690814396 106.42134884693041 L 43.26193646941869 106.42951277005928 L 43.023959545469616 106.43660127944577 L 42.78583771646125 106.44261366624485 L 42.54759479437805 106.44754932922287 L 42.309254603313704 106.45140777481762 L 42.070840977088686 106.45418861718778 L 41.832377756866954 106.45589157825142 L 41.59388878877181 106.45651648771386 L 41.355397921501314 106.45606328308465 L 41.11692900394346 106.4545320096839 L 40.87850588279128 106.45192282063768 L 40.6401524001582 106.44823597686269 L 40.40189239119386 106.44347184704026 L 40.1637496817006 106.43763090757939 L 39.92574808575093 106.43071374256917 L 39.6879114033061 106.42272104372033 L 39.45026341783616 106.41365361029608 L 39.21282789394163 106.40351234903224 L 38.975628574977016 106.39229827404645 L 38.73868918067656 106.38001250673689 L 38.502033404782246 106.36665627567004 L 38.265684912674445 106.35223091645787 L 38.02966733900542 106.33673787162431 L 37.794004285335845 106.32017869046089 L 37.55871931777472 106.30255502887195 L 37.3238359646227 106.28386864920897 L 37.0893777140194 106.26412142009434 L 36.85536801159448 106.2433153162345 L 36.62183025812317 106.22145241822251 L 36.38878780718622 106.19853491232995 L 36.15626396283451 106.17456509028831 L 35.9242819772587 106.14954534905984 L 35.69286504846405 106.12347819059778 L 35.462036317950584 106.09636622159626 L 35.23181886839899 106.06821215322961 L 35.00223572136238 106.03901880088118 L 34.77330983496414 106.0087890838619 L 34.54506410160214 105.97752602511825 L 34.31752134565951 105.94523275093007 L 34.09070432122222 105.91191249059789 L 33.864635709803714 105.87756857611994 L 33.639338118076736 105.84220444185907 L 33.41483407561271 105.8058236241992 L 33.191146032628794 105.76842976119184 L 32.96829635774289 105.73002659219209 L 32.74630733573677 105.69061795748485 L 32.52520116532765 105.65020779790075 L 32.30499995694832 105.60880015442207 L 32.085725730536105 105.56639916777867 L 31.867400413330927 105.52300907803387 L 31.65004583768257 105.47863422416049 L 31.433683738867472 105.43327904360692 L 31.21833575291521 105.38694807185344 L 31.004023414444916 105.33964594195861 L 30.790768154511856 105.291377384096 L 30.578591298464303 105.24214722508117 L 30.367514063811058 105.19196038788901 L 30.157557558099676 105.1408218911614 L 29.948742776805773 105.08873684870541 L 29.741090601233466 105.03571046898188 L 29.534621796427263 104.98174805458457 L 29.329357009095595 104.92685500170998 L 29.125316765546145 104.87103679961766 L 28.922521469633228 104.81429903008126 L 28.720991400717438 104.7566473668305 L 28.520746711637734 104.69808757498365 L 28.321807426696147 104.63862551047107 L 28.124193439655393 104.57826711944969 L 27.927924511749495 104.51701843770829 L 27.733020269707687 104.45488559006402 L 27.539500203791754 104.39187478974986 L 27.347383665847023 104.32799233779335 L 27.15668986736719 104.26324462238642 L 26.967437877573193 104.19763811824667 L 26.779646621506302 104.13117938596986 L 26.59333487813563 104.0638750713738 L 26.408521278480258 103.99573190483389 L 26.22522430374614 103.92675670060999 L 26.043462283478 103.85695635616503 L 25.863253393726396 103.7863378514753 L 25.684615655230132 103.71490824833242 L 25.507566931614196 103.64267468963719 L 25.332124927603406 103.56964439868527 L 25.15830718725196 103.4958246784449 L 24.98613109218905 103.4212229108266 L 24.815613859880703 103.34584655594495 L 24.646772541908046 103.26970315137261 L 24.479624022262183 103.19280031138662 L 24.314185015655784 103.11514572620688 L 24.150472065851645 103.03674716122718 L 23.988501544008322 102.9576124562387 L 23.82828964704302 102.87774952464599 L 23.669852396011933 102.79716635267567 L 23.513205634508125 102.71587099857777 L 23.358365027077216 102.63387159181995 L 23.205346057650907 102.55117633227457 L 23.054164027998635 102.46779348939864 L 22.90483405619737 102.383731401407 L 22.75737107511986 102.29899847443839 L 22.611789830941323 102.21360318171489 L 22.46810488166486 102.12755406269459 L 22.326330595665663 102.04085972221772 L 22.186481150254185 101.95352882964605 L 22.048570530258427 101.86557011799609 L 21.912612526625466 101.77699238306568 L 21.778620735042363 101.68780448255453 L 21.64660855457662 101.59801533517833 L 21.516589186336272 101.50763391977702 L 21.388575632149795 101.41666927441683 L 21.262580693265928 101.32513049548646 L 21.138616969073567 101.23302673678755 L 21.01669685584183 101.14036720861921 L 20.896832545480432 101.04716117685703 L 20.779036024320533 100.95341796202653 L 20.663319071916078 100.85914693837105 L 20.54969325986588 100.76435753291443 L 20.43816995065646 100.66905922451821 L 20.32876029652579 100.5732615429338 L 20.221475238348127 100.47697406784954 L 20.11632550453987 100.3802064279327 L 20.013321609986782 100.28296829986664 L 19.91247385499248 100.18526940738312 L 19.813792324248425 100.08711952028997 L 19.717286885825455 99.98852845349413 L 19.622967190186998 99.8895060660201 L 19.53084266922401 99.79006226002413 L 19.44092253531182 99.69020697980392 L 19.35321578038889 99.5899502108043 L 19.26773117505762 99.48930197861863 L 19.184477267707305 99.38827234798623 L 19.103462383659302 99.28687142178599 L 19.024694624334508 99.18510934002603 L 18.94818186644321 99.08299627882971 L 18.87393176119744 98.98054244941808 L 18.80195173354585 98.87775809708869 L 18.732248981431216 98.7746535001911 L 18.66483047507067 98.67123896909912 L 18.599702956258664 98.56752484517966 L 18.536872937692802 98.46352149975867 L 18.47634670232259 98.35923933308405 L 18.418130302721124 98.25468877328554 L 18.362229560479847 98.14988027533201 L 18.308650065626406 98.04482431998592 L 18.257397176065627 97.93953141275524 L 18.208476017043765 97.83401208284296 L 18.16189148063595 97.72827688209414 L 18.117648225257003 97.62233638394075 L 18.075750675195593 97.5162011823443 L 18.036203020171815 97.40988189073651 L 17.99900921491821 97.30338914095798 L 17.964172978784312 97.19673358219488 L 17.931697795364702 97.08992587991426 L 17.90158691215066 96.9829767147973 L 17.873843340205415 96.87589678167143 L 17.84846985386304 96.7686967884407 L 17.825468990451032 96.66138745501512 L 17.80484305003656 96.55397951223858 L 17.786594095196474 96.44648370081588 L 17.770723950811053 96.33891077023856 L 17.757234203881513 96.23127147771005 L 17.7461262033713 96.1235765870699 L 17.737401060071218 96.01583686771744 L 17.73105964648832 95.90806309353479 L 17.727102596758677 95.80026604180959 L 17.725530306583966 95.69245649215716" stroke-miterlimit="10" stroke-width="2.7769845610000004" stroke-dasharray=""/></g><g><text fill="black" stroke="none" font-family="sans-serif" font-size="11pt" font-style="normal" font-weight="normal" text-decoration="normal" x="8.167601650000002" y="123.984193047" text-anchor="start" dominant-baseline="alphabetic" xml:space="preserve">Config DB</text></g><path fill="none" stroke="none"/><g><path fill="LightCyan" stroke="black" paint-order="fill stroke markers" d=" M 188.13472774384894 84.94305716000001 L 291.21271888043486 84.94305716000001 L 291.21271888043486 128.884754037 L 188.13472774384894 128.884754037 L 188.13472774384894 84.94305716000001 Z" stroke-miterlimit="10" stroke-width="2.613632528" stroke-dasharray=""/></g><g><text fill="black" stroke="none" font-family="sans-serif" font-size="11pt" font-style="normal" font-weight="normal" text-decoration="normal" x="205.85842332434893" y="112.54955073700002" text-anchor="start" dominant-baseline="alphabetic" xml:space="preserve">PortSyncd</text></g><g><path fill="LightCyan" stroke="black" paint-order="fill stroke markers" d=" M 442.4628715571627 96.867755569 L 442.4628715571627 62.563828639 L 490.1616651931627 62.563828639 L 490.1616651931627 96.867755569" stroke-miterlimit="10" stroke-width="2.7769845610000004" stroke-dasharray=""/><path fill="LightCyan" stroke="black" paint-order="fill stroke markers" d=" M 490.1616651931627 61.3713587981 L 490.16047273325904 61.47916934301662 L 490.156895472793 61.58696910696859 L 490.1509337694876 61.69474731006935 L 490.1425882195083 61.8024931745884 L 490.1318596574031 61.91019592602908 L 490.11874915601925 62.017844794206 L 490.103258026396 62.125429014322044 L 490.0853878176334 62.232937828044854 L 490.06514031673737 62.34036048458265 L 490.0425175484412 62.44768624175929 L 490.0175217750029 62.55490436708851 L 489.99015549597885 62.66200413884712 L 489.9604214479742 62.76897484714718 L 489.9283226043691 62.87580579500701 L 489.893862175021 62.982486299420856 L 489.85704360594417 63.08900569242717 L 489.81787057896486 63.19535332217542 L 489.7763470113531 63.30151855399125 L 489.73247705543105 63.40749077143996 L 489.6862650981578 63.5132593773881 L 489.63771576069047 63.618813795063225 L 489.58683389792236 63.724143469111524 L 489.53362459799746 63.82923786665337 L 489.4780931818013 63.93408647833659 L 489.4202452024292 64.03867881938739 L 489.36008644463107 64.1430044306588 L 489.29762292423237 64.24705287967667 L 489.2328608875332 64.35081376168277 L 489.16580681068325 64.45427670067541 L 489.0964673990342 64.55743135044686 L 489.0248495864696 64.66026739561813 L 488.950960534711 64.7627745526704 L 488.8748076326019 64.86494257097338 L 488.7963984953691 64.96676123381039 L 488.71574096386104 65.06822035939997 L 488.63284310376355 65.16930980191414 L 488.54771320479364 65.27001945249287 L 488.46035977987026 65.37033924025505 L 488.3707915642631 65.47025913330548 L 488.27901751471904 65.56976913973813 L 488.1850468085666 65.66885930863528 L 488.08888884279804 65.7675197310626 L 487.9905532331299 65.86574054106009 L 487.8900498130411 65.96351191662859 L 487.78738863278994 66.06082408071202 L 487.68257995840895 66.15766730217506 L 487.5756342706781 66.25403189677627 L 487.46656226407714 66.3499082281365 L 487.3553748457158 66.4452867087025 L 487.2420831342433 66.54015780070569 L 487.12669845873626 66.63451201711595 L 487.00923235756625 66.72833992259025 L 486.88969657724533 66.82163213441623 L 486.7681030712521 66.91437932345046 L 486.64446399883565 67.00657221505134 L 486.5187917238003 67.0982015900065 L 486.3910988132688 67.18925828545483 L 486.2613980364258 67.27973319580266 L 486.1297023632409 67.36961727363435 L 485.9960249631717 67.45890153061701 L 485.8603792038467 67.54757703839935 L 485.7227786497289 67.6356349295045 L 485.583237060759 67.72306639821673 L 485.44176839097963 67.80986270146201 L 485.2983867871399 67.89601515968236 L 485.1531065872807 67.98151515770375 L 485.0059423193009 68.06635414559763 L 484.8569086995047 68.15052363953589 L 484.7060206311299 68.2340152226393 L 484.55329320285756 68.31682054581911 L 484.39874168730324 68.39893132861202 L 484.24238153948977 68.48033936000816 L 484.0842283953015 68.56103649927225 L 483.9242980699212 68.6410146767576 L 483.76260655624804 68.72026589471311 L 483.59917002329865 68.79878222808303 L 483.4340048145902 68.87655582529945 L 483.2671274465058 68.95357890906746 L 483.09855460664335 69.02984377714286 L 482.92830315214627 69.10534280310242 L 482.7563901080181 69.18006843710643 L 482.58283266542 69.25401320665378 L 482.4076481799517 69.32716971732913 L 482.2308541699157 69.39953065354239 L 482.05246831456566 69.47108877926021 L 481.8725084523384 69.54183693872967 L 481.6909925790703 69.61176805719379 L 481.50793884619736 69.68087514159897 L 481.32336555894034 69.74915128129439 L 481.13729117447417 69.81658964872294 L 480.9497343000822 69.88318350010411 L 480.76071369129556 69.94892617610824 L 480.57024825001764 70.01381110252252 L 480.3783570226339 70.07783179090838 L 480.18505919810707 70.14098183925032 L 479.99037410605854 70.20325493259614 L 479.79432121483535 70.26464484368842 L 479.59692012956316 70.32514543358717 L 479.39819059018606 70.38475065228383 L 479.19815246949236 70.44345453930622 L 478.9968257711274 70.50125122431453 L 478.7942306275933 70.55813492768844 L 478.5903872982356 70.61409996110503 L 478.38531616721724 70.66914072810756 L 478.17903774148056 70.72325172466522 L 477.9715726486962 70.77642753972344 L 477.76294163520055 70.82866285574504 L 477.553165563921 70.87995244924193 L 477.3422654122901 70.9302911912975 L 477.130262270147 70.9796740480795 L 476.9171773376294 71.0280960813434 L 476.703031923053 71.07555244892625 L 476.4878474407807 71.12203840523081 L 476.27164540908143 71.16754930170019 L 476.0544474479783 71.21208058728268 L 475.8362752770863 71.25562780888683 L 475.61715071344076 71.29818661182675 L 475.39709566931543 71.33975274025764 L 475.1761321500313 71.38032203760127 L 474.9542822517563 71.41989044696174 L 474.73156815929525 71.45845401153106 L 474.50801214387184 71.49600887498494 L 474.28363656090136 71.5325512818683 L 474.0584638477551 71.56807757797091 L 473.83251652151665 71.60258421069277 L 473.60581717673045 71.63606772939937 L 473.37838848314203 71.66852478576672 L 473.15025318343123 71.69995213411627 L 472.92143409093796 71.73034663173934 L 472.6919540873807 71.7597052392115 L 472.46183612056853 71.78802502069648 L 472.2311032021065 71.81530314423973 L 471.9997784050941 71.84153688205163 L 471.76788486181835 71.86672361078024 L 471.5354457614402 71.8908608117737 L 471.30248434767606 71.913946071332 L 471.0690239164732 71.93597708094846 L 470.83508781368016 71.95695163754044 L 470.60069943271225 71.97686764366978 L 470.3658822122122 71.99572310775245 L 470.13065963370656 72.01351614425778 L 469.895055219257 72.03024497389691 L 469.6590925291087 72.04590792380084 L 469.422795159334 72.06050342768764 L 469.18618673947293 72.07403002601906 L 468.94929093017043 72.08648636614654 L 468.7121314208099 72.09787120244648 L 468.47473192714466 72.1081833964447 L 468.23711618892634 72.11742191693043 L 467.9993079675306 72.12558584005929 L 467.76133104358155 72.13267434944576 L 467.52320921457317 72.13868673624485 L 467.28496629248997 72.14362239922286 L 467.04662610142566 72.14748084481762 L 466.8082124752006 72.1502616871878 L 466.5697492549789 72.15196464825142 L 466.3312602868837 72.15258955771385 L 466.09276941961326 72.15213635308466 L 465.85430050205537 72.15060507968391 L 465.6158773809032 72.14799589063767 L 465.3775238982701 72.1443090468627 L 465.13926388930577 72.13954491704027 L 464.90112117981255 72.1337039775794 L 464.66311958386285 72.12678681256918 L 464.42528290141803 72.11879411372033 L 464.1876349159481 72.10972668029609 L 463.95019939205355 72.09958541903224 L 463.71300007308895 72.08837134404646 L 463.4760606787885 72.07608557673689 L 463.2394049028942 72.06272934567005 L 463.00305641078637 72.04830398645788 L 462.76703883711735 72.0328109416243 L 462.5313757834478 72.01625176046089 L 462.29609081588666 71.99862809887196 L 462.0612074627346 71.97994171920898 L 461.82674921213135 71.96019449009434 L 461.5927395097064 71.9393883862345 L 461.3592017562351 71.91752548822251 L 461.12615930529813 71.89460798232996 L 460.8936354609464 71.87063816028832 L 460.66165347537066 71.84561841905983 L 460.430236546576 71.81955126059778 L 460.1994078160625 71.79243929159627 L 459.96919036651093 71.7642852232296 L 459.7396072194743 71.73509187088118 L 459.5106813330761 71.7048621538619 L 459.28243559971406 71.67359909511825 L 459.0548928437714 71.64130582093009 L 458.8280758193342 71.6079855605979 L 458.6020072079156 71.57364164611994 L 458.3767096161887 71.53827751185906 L 458.15220557372464 71.50189669419922 L 457.92851753074075 71.46450283119185 L 457.7056678558548 71.42609966219209 L 457.4836788338487 71.38669102748484 L 457.2625726634396 71.34628086790075 L 457.0423714550603 71.30487322442208 L 456.82309722864807 71.26247223777868 L 456.60477191144287 71.21908214803388 L 456.3874173357945 71.17470729416048 L 456.1710552369794 71.12935211360693 L 455.95570725102715 71.08302114185344 L 455.74139491255687 71.0357190119586 L 455.5281396526238 70.987450454096 L 455.31596279657623 70.93822029508118 L 455.10488556192297 70.88803345788901 L 454.8949290562116 70.8368949611614 L 454.6861142749177 70.7848099187054 L 454.4784620993454 70.73178353898187 L 454.2719932945392 70.67782112458457 L 454.06672850720753 70.62292807170999 L 453.8626882636581 70.56710986961765 L 453.6598929677452 70.51037210008127 L 453.45836289882936 70.4527204368305 L 453.2581182097497 70.39416064498364 L 453.05917892480807 70.33469858047107 L 452.8615649377673 70.27434018944969 L 452.66529600986144 70.2130915077083 L 452.4703917678196 70.15095866006402 L 452.2768717019037 70.08794785974987 L 452.08475516395896 70.02406540779336 L 451.8940613654791 69.95931769238642 L 451.7048093756851 69.89371118824668 L 451.5170181196182 69.82725245596986 L 451.3307063762476 69.7599481413738 L 451.1458927765922 69.69180497483389 L 450.9625958018581 69.62282977060998 L 450.78083378158993 69.55302942616503 L 450.6006248918383 69.4824109214753 L 450.42198715334206 69.41098131833243 L 450.2449384297261 69.3387477596372 L 450.06949642571533 69.26571746868528 L 449.8956786853639 69.19189774844492 L 449.723502590301 69.1172959808266 L 449.5529853579926 69.04191962594494 L 449.38414404002 68.96577622137262 L 449.2169955203741 68.88887338138663 L 449.0515565137677 68.81121879620689 L 448.8878435639636 68.73282023122718 L 448.72587304212027 68.6536855262387 L 448.56566114515493 68.573822594646 L 448.4072238941239 68.49323942267567 L 448.25057713262004 68.41194406857777 L 448.0957365251891 68.32994466181995 L 447.94271755576284 68.24724940227456 L 447.7915355261106 68.16386655939866 L 447.6422055543093 68.07980447140702 L 447.4947425732318 67.99507154443839 L 447.34916132905323 67.90967625171488 L 447.20547637977677 67.8236271326946 L 447.0637020937776 67.73693279221771 L 446.9238526483661 67.64960189964606 L 446.78594202837036 67.56164318799608 L 446.6499840247374 67.47306545306569 L 446.5159922331543 67.38387755255452 L 446.38398005268857 67.29408840517834 L 446.2539606844482 67.20370698977703 L 446.12594713026175 67.11274234441683 L 445.9999521913779 67.02120356548647 L 445.8759884671855 66.92909980678756 L 445.75406835395376 66.83644027861922 L 445.6342040435924 66.74323424685704 L 445.5164075224325 66.64949103202653 L 445.400690570028 66.55522000837107 L 445.2870647579778 66.46043060291444 L 445.1755414487684 66.3651322945182 L 445.0661317946377 66.2693346129338 L 444.95884673646003 66.17304713784955 L 444.8536970026518 66.07627949793272 L 444.75069310809874 65.97904136986665 L 444.6498453531044 65.88134247738313 L 444.55116382236037 65.78319259028999 L 444.4546583839374 65.68460152349414 L 444.36033868829895 65.58557913602012 L 444.26821416733594 65.48613533002413 L 444.17829403342375 65.38628004980393 L 444.09058727850083 65.2860232808043 L 444.0051026731696 65.18537504861862 L 443.9218487658192 65.08434541798623 L 443.84083388177123 64.982944491786 L 443.7620661224464 64.88118241002603 L 443.6855533645551 64.77906934882972 L 443.61130325930935 64.67661551941809 L 443.53932323165776 64.5738311670887 L 443.46962047954315 64.47072657019112 L 443.4022019731826 64.36731203909913 L 443.3370744543706 64.26359791517966 L 443.27424443580475 64.15959456975868 L 443.2137182004345 64.05531240308405 L 443.15550180083306 63.95076184328555 L 443.09960105859176 63.84595334533201 L 443.04602156373835 63.74089738998592 L 442.9947686741776 63.63560448275524 L 442.9458475151557 63.530085152842965 L 442.89926297874786 63.42434995209415 L 442.8550197233689 63.318409453940745 L 442.81312217330753 63.2122742523443 L 442.77357451828374 63.105954960736526 L 442.73638071303014 62.99946221095797 L 442.70154447689623 62.892806652194885 L 442.66906929347664 62.78599894991426 L 442.6389584102626 62.679049784797314 L 442.6112148383173 62.57196985167143 L 442.585841351975 62.464769858440704 L 442.562840488563 62.357460525015114 L 442.5422145481485 62.25005258223858 L 442.5239655933084 62.14255677081588 L 442.508095448923 62.03498384023857 L 442.49460570199346 61.92734454771006 L 442.48349770148326 61.81964965706991 L 442.47477255818313 61.71190993771744 L 442.46843114460023 61.6041361635348 L 442.46447409487064 61.49633911180959 L 442.4629018046959 61.38852956215717 L 442.46371443130386 61.28071829544265 L 442.46691189343244 61.172916092702856 L 442.47249387133814 61.06513373406823 L 442.4804598068278 60.957381997684834 L 442.49080890331453 60.84967165863649 L 442.5035401258973 60.74201348786736 L 442.5186522014644 60.6344182511048 L 442.536143618821 60.526896707782825 L 442.5560126288398 60.41945960996616 L 442.57825724463646 60.31211770127506 L 442.6028752417679 60.204881715810956 L 442.6298641584549 60.097762377083015 L 442.65922129582833 59.99077039693585 L 442.6909437181988 59.88391647447831 L 442.7250282533507 59.7772112950136 L 442.7614714928588 59.67066552897075 L 442.80026979242945 59.56428983083758 L 442.84141927226517 59.45809483809524 L 442.88491581745217 59.35209117015452 L 442.9307550783723 59.24628942729389 L 442.97893247113745 59.14070018959944 L 443.0294431780487 59.03533401590697 L 443.08228214807735 58.93020144274604 L 443.13744409737046 58.82531298328635 L 443.1949235097791 58.72067912628645 L 443.2547146374098 58.61631033504484 L 443.31681150119977 58.51221704635366 L 443.3812078915143 58.40840966945505 L 443.44789736876805 58.30489858500019 L 443.51687326406886 58.20169414401126 L 443.5881286798847 58.098806666846365 L 443.66165649073326 57.996246442167475 L 443.7374493438949 57.894023725911595 L 443.81549966014734 57.79214874026516 L 443.89579963452405 57.69063167264185 L 443.9783412370945 57.58948267466382 L 444.0631162137672 57.488711861146584 L 444.1501160871152 57.38832930908751 L 444.23933215722354 57.28834505665816 L 444.33075550255967 57.18876910220045 L 444.42437698086513 57.08961140322686 L 444.52018723007023 56.99088187542464 L 444.6181766692298 56.8925903916643 L 444.7183354994816 56.794746781012314 L 444.82065370502613 56.6973608277482 L 444.92512105412806 56.60044227038614 L 445.0317271001395 56.5040008007011 L 445.1404611825447 56.40804606275968 L 445.2513124280261 56.31258765195572 L 445.36426975155143 56.217635114050736 L 445.4793218574825 56.12319794421941 L 445.59645724070464 56.029285586100016 L 445.7156641877771 55.93590743085011 L 445.83693077810454 55.8430728162074 L 445.96024488512893 55.75079102555599 L 446.08559417754236 55.65907128699804 L 446.2129661205201 55.56792277243099 L 446.3423479769739 55.47735459663031 L 446.4737268088259 55.387375816338135 L 446.60708947830256 55.29799542935749 L 446.742422649248 55.20922237365261 L 446.8797127884578 55.12106552645507 L 447.0189461670326 55.033533703376136 L 447.1601088617505 54.94663565752517 L 447.3031867564596 54.86038007863435 L 447.4481655434897 54.77477559218968 L 447.595030725083 54.689830758568455 L 447.7437676148437 54.60555407218327 L 447.8943613392067 54.52195396063252 L 448.04679683892505 54.439038783857704 L 448.2010588705759 54.35681683330739 L 448.3571320080845 54.27529633110813 L 448.5150006442673 54.19448542924221 L 448.6746489923922 54.114392208732454 L 448.83606108775734 54.03502467883419 L 448.99922078928785 53.95639077623426 L 449.1641117811494 53.878498364257396 L 449.3307175743803 53.801355232079885 L 449.49902150854 53.72496909395066 L 449.6690067533754 53.649347588419886 L 449.8406563105036 53.57449827757509 L 450.01395301511207 53.50042864628498 L 450.18887953767455 53.42714610145097 L 450.36541838568473 53.35465797126647 L 450.5435519054048 53.28297150448409 L 450.72326228363136 53.21209386969077 L 450.90453154947625 53.14203215459092 L 451.08734157616396 53.072793365297684 L 451.2716740828442 53.00438442563227 L 451.45751063641984 52.93681217643165 L 451.64483265339044 52.870083374864436 L 451.83362140171045 52.80420469375517 L 452.0238580026622 52.739182720917064 L 452.21552343274436 52.67502395849323 L 452.40859852557344 52.611734822306424 L 452.6030639738011 52.54932164121754 L 452.79890033104465 52.48779065649267 L 452.9960880138315 52.427148021179015 L 453.1946073035577 52.36739979948956 L 453.39443834845974 52.3085519661967 L 453.5955611655996 52.25061040603471 L 453.79795564286314 52.19358091311133 L 454.0016015409714 52.13746919032833 L 454.20647849550426 52.08228084881122 L 454.4125660189369 52.02802140734818 L 454.6198435026888 51.974696291838114 L 454.82829021918434 51.922310834748146 L 455.0378853239255 51.87087027458034 L 455.2486078575765 51.82037975534783 L 455.4604367480595 51.770844326060484 L 455.67335081266214 51.72226894021993 L 455.88732876015524 51.674658455324284 L 456.1023491929224 51.62801763238236 L 456.3183906090996 51.58235113543759 L 456.5354314047252 51.5376635311016 L 456.7534498759005 51.49395928809759 L 456.9724242209601 51.451242776813444 L 457.19233254265185 51.409518268864694 L 457.413152850327 51.368789936667355 L 457.6348630621387 51.32906185302072 L 457.8574410072506 51.29033799070003 L 458.0808644280536 51.252622222059266 L 458.3051109823918 51.21591831864385 L 458.5301582457967 51.18022995081354 L 458.75598371372945 51.14556068737539 L 458.98256480383145 51.11191399522683 L 459.20987885818255 51.079293239009054 L 459.4379031455667 51.047701680770494 L 459.66661486374517 51.01714247964064 L 459.8959911417368 50.98761869151416 L 460.12600904210484 50.95913326874524 L 460.35664556325105 50.93168905985244 L 460.5878776417154 50.90528880923376 L 460.8196821544828 50.87993515689227 L 461.0520359212951 50.85563063817208 L 461.2849157069693 50.83237768350481 L 461.5182982237209 50.81017861816654 L 461.7521601334926 50.78903566204531 L 461.9864780502885 50.768950929419105 L 462.221228542512 50.749926428744466 L 462.45638813530957 50.7319640624556 L 462.69193331291797 50.71506562677416 L 462.9278405210156 50.69923281152964 L 463.1640861690783 50.684467199990365 L 463.40064663273813 50.6707702687052 L 463.6374982561459 50.658143387355835 L 463.8746173543366 50.64658781861989 L 464.11198021559795 50.63610471804463 L 464.3495631038418 50.62669513393135 L 464.5873422609771 50.61836000723063 L 464.8252939092864 50.61110017144819 L 465.06339425380315 50.604916352561574 L 465.30161948469134 50.5998091689475 L 465.53994577962635 50.595779131320086 L 465.7783493061773 50.592826642679725 L 466.01680622419025 50.59095199827282 L 466.25529268817206 50.59015538556226 L 466.4937848496751 50.59043688420866 L 466.73225885968196 50.59179646606236 L 466.9706908709903 50.594233995166334 L 467.2090570405978 50.59774922776969 L 467.4473335320861 50.6023418123521 L 467.6854965180045 50.60801128965893 L 467.92352218225307 50.61475709274719 L 468.1613867224636 50.622578547042174 L 468.3990663523803 50.63147487040497 L 468.6365373042383 50.64144517321068 L 468.8737758311403 50.6524884584373 L 469.1107582094312 50.66460362176552 L 469.3474607410708 50.67778945168912 L 469.58385975600316 50.69204462963607 L 469.8199316145237 50.70736773010048 L 470.05565270964337 50.72375722078505 L 470.29099946944905 50.74121146275439 L 470.5259483594609 50.759728710598836 L 470.76047588498574 50.77930711260903 L 470.99455859346637 50.79994471096109 L 471.2281730768271 50.821639441912396 L 471.46129597381423 50.844389136007905 L 471.69390397233235 50.86819151829718 L 471.9259738117754 50.893044208561825 L 472.1574822853529 50.91894472155353 L 472.3884062424104 50.94589046724256 L 472.61872259074454 50.973878751076825 L 472.84840829891255 51.00290677425126 L 473.07744039853486 51.03297163398772 L 473.30579598659256 51.064070323825305 L 473.53345222771696 51.09619973392093 L 473.76038635647376 51.129356651360375 L 473.9865756796392 51.16353776047952 L 474.2119975784694 51.198739643195935 L 474.43662951096235 51.23495877935069 L 474.66044901411203 51.27219154706035 L 474.88343370615456 51.31043422307917 L 475.10556128880665 51.349682983171405 L 475.32680954949507 51.38993390249377 L 475.54715636357815 51.43118295598788 L 475.76657969655815 51.47342601878273 L 475.9850576062845 51.51665886660727 L 476.2025682451484 51.56087717621274 L 476.41908986226724 51.60607652580503 L 476.6346008056596 51.65225239548683 L 476.8490795244109 51.69940016770967 L 477.0625045708279 51.74751512773561 L 477.27485460258384 51.79659246410874 L 477.48610838485246 51.84662726913632 L 477.6962447924317 51.89761453937955 L 477.9052428118557 51.949549176153894 L 478.1130815434969 52.00242598603895 L 478.3197402036552 52.0562396813978 L 478.5251981266369 52.11098488090573 L 478.7294347668208 52.16665611008844 L 478.9324297007132 52.22324780186939 L 479.13416262898977 52.28075429712656 L 479.33461337852583 52.339169845258354 L 479.5337619044135 52.398488604758626 L 479.7315882919661 52.458704643800864 L 479.92807275870973 52.51981194083135 L 480.12319565636153 52.581804385171296 L 480.3169374727942 52.64467577762793 L 480.5092788339877 52.708419831114405 L 480.7002005059661 52.77303017127848 L 480.8896833967213 52.83850033713999 L 481.07770855812214 52.90482378173691 L 481.2642571878092 52.97199387278003 L 481.4493106310749 53.040003893316246 L 481.63285038272926 53.108847042400164 L 481.8148580889499 53.17851643577425 L 481.995315549118 53.24900510655722 L 482.1742047176378 53.32030600594074 L 482.35150770574165 53.39241200389429 L 482.52720678327836 53.465315889878156 L 482.70128438048675 53.5390103735645 L 482.873723089752 53.61348808556637 L 483.044505667347 53.68874157817461 L 483.21361503515624 53.76476332610268 L 483.3810342823839 53.84154572723915 L 483.54674666724475 53.91908110340788 L 483.71073561863847 53.99736170113587 L 483.87298473780646 54.07637969242858 L 484.03347779997205 54.156127175552726 L 484.1921987559628 54.236596175826456 L 484.3491317338154 54.3177786464168 L 484.5042610403628 54.39966646914434 L 484.65757116280355 54.48225145529506 L 484.8090467702533 54.56552534643915 L 484.9586727152775 54.6494798152569 L 485.10643403540627 54.73410646637139 L 485.2523159546307 54.81939683718802 L 485.3963038848806 54.9053423987408 L 485.5383834274828 54.99193455654518 L 485.6785403746015 55.079164651457546 L 485.81676071065874 55.16702396054111 L 485.95303061373613 55.25550369793815 L 486.0873364569569 55.344595015748695 L 486.21966480984867 55.43428900491518 L 486.3500024396864 55.52457669611344 L 486.47833631281577 55.615449060649595 L 486.60465359595634 55.706897011362926 L 486.7289416574851 55.79891140353456 L 486.85118806869946 55.891483035801954 L 486.9713806050602 55.98460265107904 L 487.0895072474138 56.07826093748187 L 487.2055561831945 56.17244852925987 L 487.3195158076054 56.26715600773234 L 487.431374724779 56.36237390223035 L 487.5411217489169 56.45809269104382 L 487.6487459054081 56.55430280237361 L 487.75423643192653 56.65099461528878 L 487.85758277950754 56.74815846068861 L 487.95877461360254 56.84578462226952 L 488.0578018151123 56.943863337496715 L 488.15465448139935 57.0423847985804 L 488.2493229272777 57.14133915345658 L 488.3417976859817 57.240716506772216 L 488.43206951011246 57.34050692087479 L 488.5201293725628 57.44070041680606 L 488.6059684674199 57.54128697529992 L 488.6895782108458 57.64225653778434 L 488.77095024193585 57.74359900738722 L 488.8500764235547 57.84530424994605 L 488.92694884315017 57.94736209502132 L 489.00155981354436 58.04976233691358 L 489.07390187370237 58.15249473568397 L 489.1439677894785 58.25554901817823 L 489.2117505543396 58.35891487905398 L 489.2772433900655 58.46258198181127 L 489.3404397474274 58.566539959826216 L 489.40133330684216 58.67077841738765 L 489.45991797900456 58.77528693073668 L 489.5161879054962 58.88005504910905 L 489.5701374593714 58.985072295780256 L 489.6217612457196 59.09032816911312 L 489.6710541022053 59.19581214360803 L 489.7180110995839 59.301513670955444 L 489.76262754219476 59.4074221810907 L 489.8048989684308 59.513527083251056 L 489.84482115118465 59.619817767034704 L 489.8823900982713 59.72628360346185 L 489.91760205282736 59.832913946037564 L 489.95045349368667 59.939698131816456 L 489.98094113573256 60.046625482468926 L 490.0090619302262 60.153685305349015 L 490.0348130651116 60.26086689456366 L 490.05819196529677 60.36815953204325 L 490.0791962929111 60.47555248861345 L 490.0978239475394 60.5830350250681 L 490.1140730664316 60.69059639324311 L 490.12794202468956 60.79822583709131 L 490.13942943542884 60.905912593758 L 490.14853414991796 61.01364589465726 L 490.1552552576931 61.12141496654876 L 490.1595920866491 61.22920903261514 L 490.1615442031067 61.337017313539604 M 490.1616651931627 95.6752857281 L 490.16047273325904 95.78309627301661 L 490.156895472793 95.89089603696858 L 490.1509337694876 95.99867424006935 L 490.1425882195083 96.1064201045884 L 490.1318596574031 96.21412285602908 L 490.11874915601925 96.321771724206 L 490.103258026396 96.42935594432204 L 490.0853878176334 96.53686475804484 L 490.06514031673737 96.64428741458265 L 490.0425175484412 96.75161317175929 L 490.0175217750029 96.85883129708851 L 489.99015549597885 96.96593106884711 L 489.9604214479742 97.07290177714718 L 489.9283226043691 97.17973272500701 L 489.893862175021 97.28641322942086 L 489.85704360594417 97.39293262242717 L 489.81787057896486 97.49928025217542 L 489.7763470113531 97.60544548399125 L 489.73247705543105 97.71141770143996 L 489.6862650981578 97.8171863073881 L 489.63771576069047 97.92274072506322 L 489.58683389792236 98.02807039911151 L 489.53362459799746 98.13316479665336 L 489.4780931818013 98.23801340833658 L 489.4202452024292 98.34260574938737 L 489.36008644463107 98.4469313606588 L 489.29762292423237 98.55097980967666 L 489.2328608875332 98.65474069168278 L 489.16580681068325 98.7582036306754 L 489.0964673990342 98.86135828044685 L 489.0248495864696 98.96419432561812 L 488.950960534711 99.0667014826704 L 488.8748076326019 99.16886950097337 L 488.7963984953691 99.27068816381038 L 488.71574096386104 99.37214728939998 L 488.63284310376355 99.47323673191414 L 488.54771320479364 99.57394638249288 L 488.46035977987026 99.67426617025505 L 488.3707915642631 99.77418606330548 L 488.27901751471904 99.87369606973812 L 488.1850468085666 99.97278623863527 L 488.08888884279804 100.0714466610626 L 487.9905532331299 100.1696674710601 L 487.8900498130411 100.2674388466286 L 487.78738863278994 100.36475101071201 L 487.68257995840895 100.46159423217506 L 487.5756342706781 100.55795882677627 L 487.46656226407714 100.65383515813649 L 487.3553748457158 100.74921363870249 L 487.2420831342433 100.84408473070569 L 487.12669845873626 100.93843894711594 L 487.00923235756625 101.03226685259024 L 486.88969657724533 101.12555906441622 L 486.7681030712521 101.21830625345046 L 486.64446399883565 101.31049914505132 L 486.5187917238003 101.4021285200065 L 486.3910988132688 101.49318521545483 L 486.2613980364258 101.58366012580265 L 486.1297023632409 101.67354420363434 L 485.9960249631717 101.762828460617 L 485.8603792038467 101.85150396839936 L 485.7227786497289 101.93956185950451 L 485.583237060759 102.02699332821673 L 485.44176839097963 102.11378963146201 L 485.2983867871399 102.19994208968237 L 485.1531065872807 102.28544208770374 L 485.0059423193009 102.37028107559762 L 484.8569086995047 102.45445056953588 L 484.7060206311299 102.53794215263929 L 484.55329320285756 102.6207474758191 L 484.39874168730324 102.70285825861201 L 484.24238153948977 102.78426629000816 L 484.0842283953015 102.86496342927225 L 483.9242980699212 102.9449416067576 L 483.76260655624804 103.02419282471311 L 483.59917002329865 103.10270915808303 L 483.4340048145902 103.18048275529944 L 483.2671274465058 103.25750583906745 L 483.09855460664335 103.33377070714286 L 482.92830315214627 103.4092697331024 L 482.7563901080181 103.48399536710642 L 482.58283266542 103.55794013665377 L 482.4076481799517 103.63109664732913 L 482.2308541699157 103.70345758354237 L 482.05246831456566 103.7750157092602 L 481.8725084523384 103.84576386872968 L 481.6909925790703 103.91569498719377 L 481.50793884619736 103.98480207159896 L 481.32336555894034 104.05307821129438 L 481.13729117447417 104.12051657872294 L 480.9497343000822 104.1871104301041 L 480.76071369129556 104.25285310610823 L 480.57024825001764 104.31773803252251 L 480.3783570226339 104.38175872090837 L 480.18505919810707 104.44490876925032 L 479.99037410605854 104.50718186259614 L 479.79432121483535 104.5685717736884 L 479.59692012956316 104.62907236358716 L 479.39819059018606 104.68867758228383 L 479.19815246949236 104.7473814693062 L 478.9968257711274 104.80517815431453 L 478.7942306275933 104.86206185768845 L 478.5903872982356 104.91802689110501 L 478.38531616721724 104.97306765810755 L 478.17903774148056 105.02717865466522 L 477.9715726486962 105.08035446972343 L 477.76294163520055 105.13258978574503 L 477.553165563921 105.18387937924192 L 477.3422654122901 105.23421812129749 L 477.130262270147 105.28360097807949 L 476.9171773376294 105.33202301134341 L 476.703031923053 105.37947937892625 L 476.4878474407807 105.4259653352308 L 476.27164540908143 105.4714762317002 L 476.0544474479783 105.51600751728267 L 475.8362752770863 105.55955473888682 L 475.61715071344076 105.60211354182675 L 475.39709566931543 105.64367967025764 L 475.1761321500313 105.68424896760128 L 474.9542822517563 105.72381737696173 L 474.73156815929525 105.76238094153106 L 474.50801214387184 105.79993580498493 L 474.28363656090136 105.83647821186828 L 474.0584638477551 105.8720045079709 L 473.83251652151665 105.90651114069276 L 473.60581717673045 105.93999465939936 L 473.37838848314203 105.97245171576672 L 473.15025318343123 106.00387906411626 L 472.92143409093796 106.03427356173933 L 472.6919540873807 106.0636321692115 L 472.46183612056853 106.09195195069648 L 472.2311032021065 106.11923007423972 L 471.9997784050941 106.14546381205162 L 471.76788486181835 106.17065054078024 L 471.5354457614402 106.1947877417737 L 471.30248434767606 106.21787300133201 L 471.0690239164732 106.23990401094846 L 470.83508781368016 106.26087856754044 L 470.60069943271225 106.28079457366978 L 470.3658822122122 106.29965003775246 L 470.13065963370656 106.31744307425777 L 469.895055219257 106.3341719038969 L 469.6590925291087 106.34983485380084 L 469.422795159334 106.36443035768762 L 469.18618673947293 106.37795695601905 L 468.94929093017043 106.39041329614655 L 468.7121314208099 106.40179813244647 L 468.47473192714466 106.4121103264447 L 468.23711618892634 106.42134884693041 L 467.9993079675306 106.42951277005928 L 467.76133104358155 106.43660127944577 L 467.52320921457317 106.44261366624485 L 467.28496629248997 106.44754932922287 L 467.04662610142566 106.45140777481762 L 466.8082124752006 106.45418861718778 L 466.5697492549789 106.45589157825142 L 466.3312602868837 106.45651648771386 L 466.09276941961326 106.45606328308465 L 465.85430050205537 106.4545320096839 L 465.6158773809032 106.45192282063768 L 465.3775238982701 106.44823597686269 L 465.13926388930577 106.44347184704026 L 464.90112117981255 106.43763090757939 L 464.66311958386285 106.43071374256917 L 464.42528290141803 106.42272104372033 L 464.1876349159481 106.41365361029608 L 463.95019939205355 106.40351234903224 L 463.71300007308895 106.39229827404645 L 463.4760606787885 106.38001250673689 L 463.2394049028942 106.36665627567004 L 463.00305641078637 106.35223091645787 L 462.76703883711735 106.33673787162431 L 462.5313757834478 106.32017869046089 L 462.29609081588666 106.30255502887195 L 462.0612074627346 106.28386864920897 L 461.82674921213135 106.26412142009434 L 461.5927395097064 106.2433153162345 L 461.3592017562351 106.22145241822251 L 461.12615930529813 106.19853491232995 L 460.8936354609464 106.17456509028831 L 460.66165347537066 106.14954534905984 L 460.430236546576 106.12347819059778 L 460.1994078160625 106.09636622159626 L 459.96919036651093 106.06821215322961 L 459.7396072194743 106.03901880088118 L 459.5106813330761 106.0087890838619 L 459.28243559971406 105.97752602511825 L 459.0548928437714 105.94523275093007 L 458.8280758193342 105.91191249059789 L 458.6020072079156 105.87756857611994 L 458.3767096161887 105.84220444185907 L 458.15220557372464 105.8058236241992 L 457.92851753074075 105.76842976119184 L 457.7056678558548 105.73002659219209 L 457.4836788338487 105.69061795748485 L 457.2625726634396 105.65020779790075 L 457.0423714550603 105.60880015442207 L 456.82309722864807 105.56639916777867 L 456.60477191144287 105.52300907803387 L 456.3874173357945 105.47863422416049 L 456.1710552369794 105.43327904360692 L 455.95570725102715 105.38694807185344 L 455.74139491255687 105.33964594195861 L 455.5281396526238 105.291377384096 L 455.31596279657623 105.24214722508117 L 455.10488556192297 105.19196038788901 L 454.8949290562116 105.1408218911614 L 454.6861142749177 105.08873684870541 L 454.4784620993454 105.03571046898188 L 454.2719932945392 104.98174805458457 L 454.06672850720753 104.92685500170998 L 453.8626882636581 104.87103679961766 L 453.6598929677452 104.81429903008126 L 453.45836289882936 104.7566473668305 L 453.2581182097497 104.69808757498365 L 453.05917892480807 104.63862551047107 L 452.8615649377673 104.57826711944969 L 452.66529600986144 104.51701843770829 L 452.4703917678196 104.45488559006402 L 452.2768717019037 104.39187478974986 L 452.08475516395896 104.32799233779335 L 451.8940613654791 104.26324462238642 L 451.7048093756851 104.19763811824667 L 451.5170181196182 104.13117938596986 L 451.3307063762476 104.0638750713738 L 451.1458927765922 103.99573190483389 L 450.9625958018581 103.92675670060999 L 450.78083378158993 103.85695635616503 L 450.6006248918383 103.7863378514753 L 450.42198715334206 103.71490824833242 L 450.2449384297261 103.64267468963719 L 450.06949642571533 103.56964439868527 L 449.8956786853639 103.4958246784449 L 449.723502590301 103.4212229108266 L 449.5529853579926 103.34584655594495 L 449.38414404002 103.26970315137261 L 449.2169955203741 103.19280031138662 L 449.0515565137677 103.11514572620688 L 448.8878435639636 103.03674716122718 L 448.72587304212027 102.9576124562387 L 448.56566114515493 102.87774952464599 L 448.4072238941239 102.79716635267567 L 448.25057713262004 102.71587099857777 L 448.0957365251891 102.63387159181995 L 447.94271755576284 102.55117633227457 L 447.7915355261106 102.46779348939864 L 447.6422055543093 102.383731401407 L 447.4947425732318 102.29899847443839 L 447.34916132905323 102.21360318171489 L 447.20547637977677 102.12755406269459 L 447.0637020937776 102.04085972221772 L 446.9238526483661 101.95352882964605 L 446.78594202837036 101.86557011799609 L 446.6499840247374 101.77699238306568 L 446.5159922331543 101.68780448255453 L 446.38398005268857 101.59801533517833 L 446.2539606844482 101.50763391977702 L 446.12594713026175 101.41666927441683 L 445.9999521913779 101.32513049548646 L 445.8759884671855 101.23302673678755 L 445.75406835395376 101.14036720861921 L 445.6342040435924 101.04716117685703 L 445.5164075224325 100.95341796202653 L 445.400690570028 100.85914693837105 L 445.2870647579778 100.76435753291443 L 445.1755414487684 100.66905922451821 L 445.0661317946377 100.5732615429338 L 444.95884673646003 100.47697406784954 L 444.8536970026518 100.3802064279327 L 444.75069310809874 100.28296829986664 L 444.6498453531044 100.18526940738312 L 444.55116382236037 100.08711952028997 L 444.4546583839374 99.98852845349413 L 444.36033868829895 99.8895060660201 L 444.26821416733594 99.79006226002413 L 444.17829403342375 99.69020697980392 L 444.09058727850083 99.5899502108043 L 444.0051026731696 99.48930197861863 L 443.9218487658192 99.38827234798623 L 443.84083388177123 99.28687142178599 L 443.7620661224464 99.18510934002603 L 443.6855533645551 99.08299627882971 L 443.61130325930935 98.98054244941808 L 443.53932323165776 98.87775809708869 L 443.46962047954315 98.7746535001911 L 443.4022019731826 98.67123896909912 L 443.3370744543706 98.56752484517966 L 443.27424443580475 98.46352149975867 L 443.2137182004345 98.35923933308405 L 443.15550180083306 98.25468877328554 L 443.09960105859176 98.14988027533201 L 443.04602156373835 98.04482431998592 L 442.9947686741776 97.93953141275524 L 442.9458475151557 97.83401208284296 L 442.89926297874786 97.72827688209414 L 442.8550197233689 97.62233638394075 L 442.81312217330753 97.5162011823443 L 442.77357451828374 97.40988189073651 L 442.73638071303014 97.30338914095798 L 442.70154447689623 97.19673358219488 L 442.66906929347664 97.08992587991426 L 442.6389584102626 96.9829767147973 L 442.6112148383173 96.87589678167143 L 442.585841351975 96.7686967884407 L 442.562840488563 96.66138745501512 L 442.5422145481485 96.55397951223858 L 442.5239655933084 96.44648370081588 L 442.508095448923 96.33891077023856 L 442.49460570199346 96.23127147771005 L 442.48349770148326 96.1235765870699 L 442.47477255818313 96.01583686771744 L 442.46843114460023 95.90806309353479 L 442.46447409487064 95.80026604180959 L 442.4629018046959 95.69245649215716" stroke-miterlimit="10" stroke-width="2.7769845610000004" stroke-dasharray=""/></g><g><text fill="black" stroke="none" font-family="sans-serif" font-size="11pt" font-style="normal" font-weight="normal" text-decoration="normal" x="441.05099975944006" y="123.984193047" text-anchor="start" dominant-baseline="alphabetic" xml:space="preserve">App DB</text></g><path fill="none" stroke="none"/><g><path fill="LightCyan" stroke="black" paint-order="fill stroke markers" d=" M 613.6952880236992 84.94305716000001 L 715.1269015968086 84.94305716000001 L 715.1269015968086 128.884754037 L 613.6952880236992 128.884754037 L 613.6952880236992 84.94305716000001 Z" stroke-miterlimit="10" stroke-width="2.613632528" stroke-dasharray=""/></g><g><text fill="black" stroke="none" font-family="sans-serif" font-size="11pt" font-style="normal" font-weight="normal" text-decoration="normal" x="631.4189836041992" y="112.54955073700002" text-anchor="start" dominant-baseline="alphabetic" xml:space="preserve">PortsOrch</text></g><path fill="none" stroke="none"/><g><path fill="LightCyan" stroke="black" paint-order="fill stroke markers" d=" M 875.2263578059583 84.94305716000001 L 934.3029451339505 84.94305716000001 L 934.3029451339505 128.884754037 L 875.2263578059583 128.884754037 L 875.2263578059583 84.94305716000001 Z" stroke-miterlimit="10" stroke-width="2.613632528" stroke-dasharray=""/></g><g><text fill="black" stroke="none" font-family="sans-serif" font-size="11pt" font-style="normal" font-weight="normal" text-decoration="normal" x="892.9500533864583" y="112.54955073700002" text-anchor="start" dominant-baseline="alphabetic" xml:space="preserve">SAI</text></g></g><g><path fill="LightSteelBlue" stroke="black" paint-order="fill stroke markers" d=" M 815.4888193035678 176.25684360699998 L 815.4888193035678 176.25684360699998 A 14.70168297 14.70168297 0 0 1 830.1905022735677 161.55516063699997 L 979.3388006663412 161.55516063699997 L 979.3388006663412 161.55516063699997 A 14.70168297 14.70168297 0 0 1 994.0404836363412 176.25684360699998 L 994.0404836363412 184.42444525699997 L 994.0404836363412 184.42444525699997 A 14.70168297 14.70168297 0 0 1 979.3388006663412 199.12612822699998 L 830.1905022735677 199.12612822699998 L 830.1905022735677 199.12612822699998 A 14.70168297 14.70168297 0 0 1 815.4888193035678 184.42444525699997 L 815.4888193035678 176.25684360699998" stroke-miterlimit="10" stroke-width="1.3612669416666667" stroke-dasharray=""/><g><text fill="black" stroke="none" font-family="sans-serif" font-size="11pt" font-style="normal" font-weight="normal" text-decoration="normal" x="838.3581039235677" y="184.42444525699995" text-anchor="start" dominant-baseline="alphabetic" xml:space="preserve">Parse SAI profile file</text></g><path fill="LightSteelBlue" stroke="black" paint-order="fill stroke markers" d=" M 844.4150659466342 267.73398208699996 L 950.4125540232748 267.73398208699996 L 965.1142369932747 282.43566505699994 L 965.1142369932747 305.30494967699997 L 844.4150659466342 305.30494967699997 L 844.4150659466342 267.73398208699996 M 950.4125540232748 267.73398208699996 L 950.4125540232748 282.43566505699994 L 965.1142369932747 282.43566505699994" stroke-miterlimit="10" stroke-width="1.3612669416666667" stroke-dasharray=""/><g><text fill="black" stroke="none" font-family="sans-serif" font-size="11pt" font-style="normal" font-weight="normal" text-decoration="normal" x="867.2843505666341" y="290.60326670699993" text-anchor="start" dominant-baseline="alphabetic" xml:space="preserve">Create Port</text></g><g><g><rect fill="white" stroke="none" x="60.904887448717446" y="354.31055957699994" width="159.43884529175781" height="21.23576429"/></g><text fill="black" stroke="none" font-family="sans-serif" font-size="11pt" font-style="normal" font-weight="normal" text-decoration="normal" x="63.35516794371745" y="369.0122425469999" text-anchor="start" dominant-baseline="alphabetic" xml:space="preserve">New port in PORT table</text></g><g><path fill="none" stroke="black" paint-order="fill stroke markers" d=" M 41.57489687705078 375.54632386699996 L 226.22440592847522 375.54632386699996" stroke-miterlimit="10" stroke-width="1.3612669416666667" stroke-dasharray="6.53408132"/><g transform="translate(239.6737233121419,375.54632386699996) translate(-239.6737233121419,-375.54632386699996)"><path fill="black" stroke="none" paint-order="stroke fill markers" d=" M 226.06105389547523 368.7399891586666 L 239.6737233121419 375.54632386699996 L 226.06105389547523 382.3526585753333 Z"/></g></g><g><g><rect fill="white" stroke="none" x="259.00371388380853" y="400.04912881699994" width="187.9785639196875" height="21.23576429"/></g><text fill="black" stroke="none" font-family="sans-serif" font-size="11pt" font-style="normal" font-weight="normal" text-decoration="normal" x="261.45399437880855" y="414.7508117869999" text-anchor="start" dominant-baseline="alphabetic" xml:space="preserve">Add new port to PORT table</text></g><g><path fill="none" stroke="black" paint-order="fill stroke markers" d=" M 239.6737233121419 421.28489310699996 L 452.86295099149606 421.28489310699996" stroke-miterlimit="10" stroke-width="1.3612669416666667" stroke-dasharray=""/><g transform="translate(466.3122683751627,421.28489310699996) translate(-466.3122683751627,-421.28489310699996)"><path fill="black" stroke="none" paint-order="stroke fill markers" d=" M 452.69959895849604 414.4785583986666 L 466.3122683751627 421.28489310699996 L 452.69959895849604 428.0912278153333 Z"/></g></g><g><g><rect fill="white" stroke="none" x="485.6422589468293" y="445.78769805699994" width="159.43884529175781" height="21.23576429"/></g><text fill="black" stroke="none" font-family="sans-serif" font-size="11pt" font-style="normal" font-weight="normal" text-decoration="normal" x="488.09253944182933" y="460.4893810269999" text-anchor="start" dominant-baseline="alphabetic" xml:space="preserve">New port in PORT table</text></g><g><path fill="none" stroke="black" paint-order="fill stroke markers" d=" M 466.3122683751627 467.02346234699996 L 650.9617774265872 467.02346234699996" stroke-miterlimit="10" stroke-width="1.3612669416666667" stroke-dasharray="6.53408132"/><g transform="translate(664.4110948102539,467.02346234699996) translate(-664.4110948102539,-467.02346234699996)"><path fill="black" stroke="none" paint-order="stroke fill markers" d=" M 650.7984253935872 460.2171276386666 L 664.4110948102539 467.02346234699996 L 650.7984253935872 473.8297970553333 Z"/></g></g><path fill="LightSteelBlue" stroke="black" paint-order="fill stroke markers" d=" M 554.8047343101563 535.6313162069999 L 774.0174553103517 535.6313162069999 L 788.7191382803517 554.416800002 L 774.0174553103517 573.202283797 L 554.8047343101563 573.202283797 L 540.1030513401563 554.416800002 L 554.8047343101563 535.6313162069999" stroke-miterlimit="10" stroke-width="1.3612669416666667" stroke-dasharray=""/><g><text fill="black" stroke="none" font-family="sans-serif" font-size="11pt" font-style="normal" font-weight="normal" text-decoration="normal" x="562.9723359601562" y="558.500600827" text-anchor="start" dominant-baseline="alphabetic" xml:space="preserve">If port not created or mismatch:</text></g><g><g><rect fill="rgb(247,242,247)" stroke="none" x="689.4497416929557" y="597.7050887469999" width="190.27626289429688" height="21.23576429"/></g><text fill="black" stroke="none" font-family="sans-serif" font-size="11pt" font-style="normal" font-weight="normal" text-decoration="normal" x="691.9000221879558" y="612.4067717169999" text-anchor="start" dominant-baseline="alphabetic" xml:space="preserve">sai_port_api-&gt;remove_port()</text></g><g><path fill="none" stroke="black" paint-order="fill stroke markers" d=" M 664.4110948102539 618.9408530369999 L 902.7227510574544 618.9408530369999" stroke-miterlimit="10" stroke-width="1.3612669416666667" stroke-dasharray="6.53408132"/><g transform="translate(904.7646514699544,618.9408530369999) translate(-904.7646514699544,-618.9408530369999)"><path fill="none" stroke="black" paint-order="fill stroke markers" d=" M 890.7694070869004 612.6974555513765 L 903.2343516044049 618.9408530369999 L 890.7694070869004 625.1842505226233" stroke-miterlimit="10" stroke-width="1.3612669416666667"/></g></g><path fill="LightSteelBlue" stroke="black" paint-order="fill stroke markers" d=" M 839.121578397806 643.4436579869998 L 955.7060415721029 643.4436579869998 L 970.4077245421029 658.1453409569998 L 970.4077245421029 681.0146255769998 L 839.121578397806 681.0146255769998 L 839.121578397806 643.4436579869998 M 955.7060415721029 643.4436579869998 L 955.7060415721029 658.1453409569998 L 970.4077245421029 658.1453409569998" stroke-miterlimit="10" stroke-width="1.3612669416666667" stroke-dasharray=""/><g><text fill="black" stroke="none" font-family="sans-serif" font-size="11pt" font-style="normal" font-weight="normal" text-decoration="normal" x="861.990863017806" y="666.3129426069999" text-anchor="start" dominant-baseline="alphabetic" xml:space="preserve">Remove Port</text></g><g><g><rect fill="rgb(247,242,247)" stroke="none" x="693.5191768125846" y="705.5174305269998" width="182.13739265503906" height="21.23576429"/></g><text fill="black" stroke="none" font-family="sans-serif" font-size="11pt" font-style="normal" font-weight="normal" text-decoration="normal" x="695.9694573075847" y="720.2191134969997" text-anchor="start" dominant-baseline="alphabetic" xml:space="preserve">sai_port_api-&gt;create_port()</text></g><g><path fill="none" stroke="black" paint-order="fill stroke markers" d=" M 664.4110948102539 726.7531948169998 L 902.7227510574544 726.7531948169998" stroke-miterlimit="10" stroke-width="1.3612669416666667" stroke-dasharray="6.53408132"/><g transform="translate(904.7646514699544,726.7531948169998) translate(-904.7646514699544,-726.7531948169998)"><path fill="none" stroke="black" paint-order="fill stroke markers" d=" M 890.7694070869004 720.5097973313764 L 903.2343516044049 726.7531948169998 L 890.7694070869004 732.9965923026232" stroke-miterlimit="10" stroke-width="1.3612669416666667"/></g></g><path fill="LightSteelBlue" stroke="black" paint-order="fill stroke markers" d=" M 844.4150659466342 751.2559997669998 L 950.4125540232748 751.2559997669998 L 965.1142369932747 765.9576827369998 L 965.1142369932747 788.8269673569998 L 844.4150659466342 788.8269673569998 L 844.4150659466342 751.2559997669998 M 950.4125540232748 751.2559997669998 L 950.4125540232748 765.9576827369998 L 965.1142369932747 765.9576827369998" stroke-miterlimit="10" stroke-width="1.3612669416666667" stroke-dasharray=""/><g><text fill="black" stroke="none" font-family="sans-serif" font-size="11pt" font-style="normal" font-weight="normal" text-decoration="normal" x="867.2843505666341" y="774.1252843869999" text-anchor="start" dominant-baseline="alphabetic" xml:space="preserve">Create Port</text></g><path fill="LightSteelBlue" stroke="black" paint-order="fill stroke markers" d=" M 638.3122187461914 813.3297723069998 L 690.5099708743165 813.3297723069998 L 705.2116538443165 832.1152561019998 L 690.5099708743165 850.9007398969998 L 638.3122187461914 850.9007398969998 L 623.6105357761915 832.1152561019998 L 638.3122187461914 813.3297723069998" stroke-miterlimit="10" stroke-width="1.3612669416666667" stroke-dasharray=""/><g><text fill="black" stroke="none" font-family="sans-serif" font-size="11pt" font-style="normal" font-weight="normal" text-decoration="normal" x="646.4798203961914" y="836.1990569269998" text-anchor="start" dominant-baseline="alphabetic" xml:space="preserve">end if</text></g><g><g><rect fill="rgb(247,242,247)" stroke="none" x="683.7410853819206" y="875.4035448469997" width="201.6935755163672" height="21.23576429"/></g><text fill="black" stroke="none" font-family="sans-serif" font-size="11pt" font-style="normal" font-weight="normal" text-decoration="normal" x="686.1913658769206" y="890.1052278169997" text-anchor="start" dominant-baseline="alphabetic" xml:space="preserve">sai_hostif_api-&gt;create_hostif()</text></g><g><path fill="none" stroke="black" paint-order="fill stroke markers" d=" M 664.4110948102539 896.6393091369997 L 891.3153340862877 896.6393091369997" stroke-miterlimit="10" stroke-width="1.3612669416666667" stroke-dasharray=""/><g transform="translate(904.7646514699544,896.6393091369997) translate(-904.7646514699544,-896.6393091369997)"><path fill="black" stroke="none" paint-order="stroke fill markers" d=" M 891.1519820532877 889.8329744286664 L 904.7646514699544 896.6393091369997 L 891.1519820532877 903.445643845333 Z"/></g></g><path fill="LightSteelBlue" stroke="black" paint-order="fill stroke markers" d=" M 816.290523710306 921.1421140869998 L 978.5370962596029 921.1421140869998 L 993.2387792296029 935.8437970569997 L 993.2387792296029 958.7130816769998 L 816.290523710306 958.7130816769998 L 816.290523710306 921.1421140869998 M 978.5370962596029 921.1421140869998 L 978.5370962596029 935.8437970569997 L 993.2387792296029 935.8437970569997" stroke-miterlimit="10" stroke-width="1.3612669416666667" stroke-dasharray=""/><g><text fill="black" stroke="none" font-family="sans-serif" font-size="11pt" font-style="normal" font-weight="normal" text-decoration="normal" x="839.159808330306" y="944.0113987069998" text-anchor="start" dominant-baseline="alphabetic" xml:space="preserve">Create Linux netdev</text></g><path fill="LightSteelBlue" stroke="black" paint-order="fill stroke markers" d=" M 505.62556568341796 997.9175695969998 L 505.625565683418 997.9175695969998 A 14.70168297 14.70168297 0 0 1 520.327248653418 983.2158866269998 L 808.4949409670899 983.2158866269998 L 808.4949409670899 983.2158866269998 A 14.70168297 14.70168297 0 0 1 823.1966239370898 997.9175695969998 L 823.1966239370898 1022.4203745469998 L 823.1966239370898 1022.4203745469998 A 14.70168297 14.70168297 0 0 1 808.4949409670899 1037.1220575169998 L 520.327248653418 1037.1220575169998 L 520.327248653418 1037.1220575169998 A 14.70168297 14.70168297 0 0 1 505.625565683418 1022.4203745469998 L 505.62556568341796 997.9175695969998" stroke-miterlimit="10" stroke-width="1.3612669416666667" stroke-dasharray=""/><g><text fill="black" stroke="none" font-family="sans-serif" font-size="11pt" font-style="normal" font-weight="normal" text-decoration="normal" x="528.4948503034179" y="1006.0851712469998" text-anchor="start" dominant-baseline="alphabetic" xml:space="preserve">Init GB, config PG/Queue,</text><text fill="black" stroke="none" font-family="sans-serif" font-size="11pt" font-style="normal" font-weight="normal" text-decoration="normal" x="528.4948503034179" y="1022.4203745469998" text-anchor="start" dominant-baseline="alphabetic" xml:space="preserve">notify SUBJECT_TYPE_PORT_CHANGE</text></g><g><g><rect fill="rgb(247,242,247)" stroke="none" x="710.0259593443229" y="1061.624862467" width="149.1238275915625" height="21.23576429"/></g><text fill="black" stroke="none" font-family="sans-serif" font-size="11pt" font-style="normal" font-weight="normal" text-decoration="normal" x="712.476239839323" y="1076.326545437" text-anchor="start" dominant-baseline="alphabetic" xml:space="preserve">set_port_attribute(AN)</text></g><g><path fill="none" stroke="black" paint-order="fill stroke markers" d=" M 664.4110948102539 1082.8606267569999 L 891.3153340862877 1082.8606267569999" stroke-miterlimit="10" stroke-width="1.3612669416666667" stroke-dasharray=""/><g transform="translate(904.7646514699544,1082.8606267569999) translate(-904.7646514699544,-1082.8606267569999)"><path fill="black" stroke="none" paint-order="stroke fill markers" d=" M 891.1519820532877 1076.0542920486666 L 904.7646514699544 1082.8606267569999 L 891.1519820532877 1089.666961465333 Z"/></g></g><g><g><rect fill="rgb(247,242,247)" stroke="none" x="700.2371333555534" y="1107.363431707" width="168.70147956910156" height="21.23576429"/></g><text fill="black" stroke="none" font-family="sans-serif" font-size="11pt" font-style="normal" font-weight="normal" text-decoration="normal" x="702.6874138505534" y="1122.065114677" text-anchor="start" dominant-baseline="alphabetic" xml:space="preserve">set_port_attribute(speed)</text></g><g><path fill="none" stroke="black" paint-order="fill stroke markers" d=" M 664.4110948102539 1128.599195997 L 891.3153340862877 1128.599195997" stroke-miterlimit="10" stroke-width="1.3612669416666667" stroke-dasharray=""/><g transform="translate(904.7646514699544,1128.599195997) translate(-904.7646514699544,-1128.599195997)"><path fill="black" stroke="none" paint-order="stroke fill markers" d=" M 891.1519820532877 1121.7928612886667 L 904.7646514699544 1128.599195997 L 891.1519820532877 1135.4055307053331 Z"/></g></g><g><g><rect fill="rgb(247,242,247)" stroke="none" x="704.3316081480339" y="1153.102000947" width="160.51252998414063" height="21.23576429"/></g><text fill="black" stroke="none" font-family="sans-serif" font-size="11pt" font-style="normal" font-weight="normal" text-decoration="normal" x="706.7818886430339" y="1167.8036839170002" text-anchor="start" dominant-baseline="alphabetic" xml:space="preserve">set_port_attribute(MTU)</text></g><g><path fill="none" stroke="black" paint-order="fill stroke markers" d=" M 664.4110948102539 1174.337765237 L 891.3153340862877 1174.337765237" stroke-miterlimit="10" stroke-width="1.3612669416666667" stroke-dasharray=""/><g transform="translate(904.7646514699544,1174.337765237) translate(-904.7646514699544,-1174.337765237)"><path fill="black" stroke="none" paint-order="stroke fill markers" d=" M 891.1519820532877 1167.5314305286668 L 904.7646514699544 1174.337765237 L 891.1519820532877 1181.1440999453332 Z"/></g></g><g><g><rect fill="rgb(247,242,247)" stroke="none" x="771.955059380944" y="1198.8405701870001" width="25.26562751832031" height="21.23576429"/></g><text fill="black" stroke="none" font-family="sans-serif" font-size="11pt" font-style="normal" font-weight="bold" text-decoration="normal" x="774.405339875944" y="1213.5422531570002" text-anchor="start" dominant-baseline="alphabetic" xml:space="preserve">. . .</text></g><g><path fill="none" stroke="black" paint-order="fill stroke markers" d=" M 664.4110948102539 1220.076334477 L 891.3153340862877 1220.076334477" stroke-miterlimit="10" stroke-width="1.3612669416666667" stroke-dasharray=""/><g transform="translate(904.7646514699544,1220.076334477) translate(-904.7646514699544,-1220.076334477)"><path fill="black" stroke="none" paint-order="stroke fill markers" d=" M 891.1519820532877 1213.2699997686668 L 904.7646514699544 1220.076334477 L 891.1519820532877 1226.8826691853333 Z"/></g></g><g><g/><path fill="none" stroke="black" paint-order="fill stroke markers" d=" M 836.2474642966341 223.62893317699996 L 973.2818386432747 223.62893317699996 L 973.2818386432747 329.80775462699995 L 836.2474642966341 329.80775462699995 L 836.2474642966341 223.62893317699996 Z" stroke-miterlimit="10" stroke-width="2.3336004714285714" stroke-dasharray=""/><path fill="Thistle" stroke="black" paint-order="fill stroke markers" d=" M 836.2474642966341 223.62893317699996 L 836.2474642966341 243.23117713699997 L 893.6722654278841 243.23117713699997 L 903.473387407884 233.43005515699997 L 903.473387407884 223.62893317699996 L 836.2474642966341 223.62893317699996" stroke-miterlimit="10" stroke-width="2.3336004714285714" stroke-dasharray=""/><text fill="black" stroke="none" font-family="sans-serif" font-size="8.8pt" font-style="normal" font-weight="bold" text-decoration="normal" x="852.5826675966341" y="236.69709581699996" text-anchor="start" dominant-baseline="alphabetic" xml:space="preserve">loop</text><g><rect fill="rgb(247,242,247)" stroke="none" x="917.358310212884" y="224.93574944099996" width="84.40442146363281" height="16.988611432000003"/></g><text fill="black" stroke="none" font-family="sans-serif" font-size="8.8pt" font-style="normal" font-weight="bold" text-decoration="normal" x="919.808590707884" y="236.69709581699996" text-anchor="start" dominant-baseline="alphabetic" xml:space="preserve">[for each port]</text></g><g><g/><path fill="none" stroke="black" paint-order="fill stroke markers" d=" M 497.45796403341797 491.52626729699995 L 1001.4063808796028 491.52626729699995 L 1001.4063808796028 1244.579139427 L 497.45796403341797 1244.579139427 L 497.45796403341797 491.52626729699995 Z" stroke-miterlimit="10" stroke-width="2.3336004714285714" stroke-dasharray=""/><path fill="Thistle" stroke="black" paint-order="fill stroke markers" d=" M 497.45796403341797 491.52626729699995 L 497.45796403341797 511.12851125699996 L 554.882765164668 511.12851125699996 L 564.6838871446679 501.32738927699995 L 564.6838871446679 491.52626729699995 L 497.45796403341797 491.52626729699995" stroke-miterlimit="10" stroke-width="2.3336004714285714" stroke-dasharray=""/><text fill="black" stroke="none" font-family="sans-serif" font-size="8.8pt" font-style="normal" font-weight="bold" text-decoration="normal" x="513.793167333418" y="504.594429937" text-anchor="start" dominant-baseline="alphabetic" xml:space="preserve">loop</text><g><rect fill="rgb(247,242,247)" stroke="none" x="578.5688099496679" y="492.83308356099997" width="164.5669428259375" height="16.988611432000003"/></g><text fill="black" stroke="none" font-family="sans-serif" font-size="8.8pt" font-style="normal" font-weight="bold" text-decoration="normal" x="581.0190904446679" y="504.594429937" text-anchor="start" dominant-baseline="alphabetic" xml:space="preserve">[for each port in PORT table]</text></g></g></g></svg>